<svg width="12" height="13" viewBox="0 0 12 13" fill="none" xmlns="http://www.w3.org/2000/svg">
<path d="M1.125 0.5C0.902497 0.5 0.684989 0.581206 0.499984 0.73335C0.314979 0.885493 0.170785 1.10174 0.085636 1.35475C0.000487447 1.60775 -0.0217913 1.88615 0.0216171 2.15474C0.0650254 2.42333 0.172171 2.67004 0.329505 2.86369C0.486839 3.05733 0.687295 3.1892 0.905524 3.24263C1.12375 3.29605 1.34995 3.26863 1.55552 3.16383C1.76109 3.05903 1.93679 2.88157 2.0604 2.65387C2.18402 2.42617 2.25 2.15847 2.25 1.88462C2.25 1.51739 2.13147 1.16521 1.9205 0.905544C1.70952 0.645879 1.42337 0.5 1.125 0.5ZM1.125 5.11538C0.902497 5.11538 0.684989 5.19659 0.499984 5.34873C0.314979 5.50088 0.170785 5.71712 0.085636 5.97013C0.000487447 6.22314 -0.0217913 6.50154 0.0216171 6.77012C0.0650254 7.03871 0.172171 7.28543 0.329505 7.47907C0.486839 7.67271 0.687295 7.80458 0.905524 7.85801C1.12375 7.91144 1.34995 7.88402 1.55552 7.77922C1.76109 7.67442 1.93679 7.49695 2.0604 7.26925C2.18402 7.04155 2.25 6.77385 2.25 6.5C2.25 6.13278 2.13147 5.78059 1.9205 5.52093C1.70952 5.26126 1.42337 5.11538 1.125 5.11538ZM1.125 9.73077C0.902497 9.73077 0.684989 9.81197 0.499984 9.96412C0.314979 10.1163 0.170785 10.3325 0.085636 10.5855C0.000487447 10.8385 -0.0217913 11.1169 0.0216171 11.3855C0.0650254 11.6541 0.172171 11.9008 0.329505 12.0945C0.486839 12.2881 0.687295 12.42 0.905524 12.4734C1.12375 12.5268 1.34995 12.4994 1.55552 12.3946C1.76109 12.2898 1.93679 12.1123 2.0604 11.8846C2.18402 11.6569 2.25 11.3892 2.25 11.1154C2.25 10.7482 2.13147 10.396 1.9205 10.1363C1.70952 9.87665 1.42337 9.73077 1.125 9.73077ZM11.625 10.1923H4.125C4.02554 10.1923 3.93016 10.2409 3.85984 10.3275C3.78951 10.414 3.75 10.5314 3.75 10.6538V11.5769C3.75 11.6993 3.78951 11.8167 3.85984 11.9033C3.93016 11.9898 4.02554 12.0385 4.125 12.0385H11.625C11.7245 12.0385 11.8198 11.9898 11.8902 11.9033C11.9605 11.8167 12 11.6993 12 11.5769V10.6538C12 10.5314 11.9605 10.414 11.8902 10.3275C11.8198 10.2409 11.7245 10.1923 11.625 10.1923ZM11.625 0.961538H4.125C4.02554 0.961538 3.93016 1.01016 3.85984 1.09672C3.78951 1.18328 3.75 1.30067 3.75 1.42308V2.34615C3.75 2.46856 3.78951 2.58596 3.85984 2.67251C3.93016 2.75907 4.02554 2.80769 4.125 2.80769H11.625C11.7245 2.80769 11.8198 2.75907 11.8902 2.67251C11.9605 2.58596 12 2.46856 12 2.34615V1.42308C12 1.30067 11.9605 1.18328 11.8902 1.09672C11.8198 1.01016 11.7245 0.961538 11.625 0.961538ZM11.625 5.57692H4.125C4.02554 5.57692 3.93016 5.62555 3.85984 5.7121C3.78951 5.79866 3.75 5.91605 3.75 6.03846V6.96154C3.75 7.08395 3.78951 7.20134 3.85984 7.2879C3.93016 7.37445 4.02554 7.42308 4.125 7.42308H11.625C11.7245 7.42308 11.8198 7.37445 11.8902 7.2879C11.9605 7.20134 12 7.08395 12 6.96154V6.03846C12 5.91605 11.9605 5.79866 11.8902 5.7121C11.8198 5.62555 11.7245 5.57692 11.625 5.57692Z" fill="#0067AC"/>
</svg>
