<svg width="41" height="41" viewBox="0 0 41 41" fill="none" xmlns="http://www.w3.org/2000/svg">
<circle cx="20.0857" cy="20.0908" r="20" fill="#DD2C00"/>
<path d="M27.274 21.3743C24.2537 21.3743 21.8053 23.8227 21.8053 26.843C21.8053 29.8634 24.2537 32.3118 27.274 32.3118C30.2944 32.3118 32.7428 29.8634 32.7428 26.843C32.7428 23.8227 30.2944 21.3743 27.274 21.3743ZM29.3248 27.5266H27.274C26.8962 27.5266 26.5905 27.2209 26.5905 26.843V24.7922C26.5905 24.4144 26.8962 24.1086 27.274 24.1086C27.6519 24.1086 27.9576 24.4144 27.9576 24.7922V26.1594H29.3248C29.7027 26.1594 30.0084 26.4652 30.0084 26.843C30.0084 27.2209 29.7027 27.5266 29.3248 27.5266Z" fill="white"/>
<path d="M20.0856 10.0449C19.7251 9.38732 19.0395 8.97876 18.2965 8.97876C17.5535 8.97876 16.8679 9.38732 16.5094 10.0415L9.67749 22.3389C9.49993 22.65 9.40979 22.9844 9.40979 23.3342C9.40979 24.4651 10.3297 25.385 11.4606 25.385H20.4855C21.0203 22.7618 23.0665 20.6916 25.6684 20.0986L20.0856 10.0449ZM18.2965 21.2834C17.919 21.2834 17.6129 20.9774 17.6129 20.5999C17.6129 20.2223 17.919 19.9163 18.2965 19.9163C18.674 19.9163 18.9801 20.2223 18.9801 20.5999C18.9801 20.9774 18.674 21.2834 18.2965 21.2834ZM18.9801 17.8655C18.9801 18.2433 18.6744 18.5491 18.2965 18.5491C17.9187 18.5491 17.6129 18.2433 17.6129 17.8655V15.1311C17.6129 14.7533 17.9187 14.4475 18.2965 14.4475C18.6744 14.4475 18.9801 14.7533 18.9801 15.1311V17.8655Z" fill="white"/>
</svg>
