<svg width="40" height="41" viewBox="0 0 40 41" fill="none" xmlns="http://www.w3.org/2000/svg">
<circle cx="20" cy="20.0906" r="20" fill="#26A7AD"/>
<path d="M24.3336 8.97961H14.5569C10.3102 8.97961 7.77856 11.5113 7.77856 15.7579V25.5346C7.77856 29.7813 10.3102 32.3129 14.5569 32.3129H24.3336C28.5802 32.3129 31.1119 29.7813 31.1119 25.5346V15.7579C31.1119 11.5113 28.5802 8.97961 24.3336 8.97961V8.97961ZM17.0769 24.0296L14.4519 26.6546C14.2769 26.8296 14.0552 26.9113 13.8336 26.9113C13.6119 26.9113 13.3786 26.8296 13.2152 26.6546L12.3402 25.7796C11.9902 25.4413 11.9902 24.8813 12.3402 24.5429C12.6786 24.2046 13.2269 24.2046 13.5769 24.5429L13.8336 24.7996L15.8402 22.7929C16.1786 22.4546 16.7269 22.4546 17.0769 22.7929C17.4152 23.1313 17.4152 23.6913 17.0769 24.0296V24.0296ZM17.0769 15.8629L14.4519 18.4879C14.2769 18.6629 14.0552 18.7446 13.8336 18.7446C13.6119 18.7446 13.3786 18.6629 13.2152 18.4879L12.3402 17.6129C11.9902 17.2746 11.9902 16.7146 12.3402 16.3763C12.6786 16.0379 13.2269 16.0379 13.5769 16.3763L13.8336 16.6329L15.8402 14.6263C16.1786 14.2879 16.7269 14.2879 17.0769 14.6263C17.4152 14.9646 17.4152 15.5246 17.0769 15.8629ZM25.9319 26.0363H19.8069C19.3286 26.0363 18.9319 25.6396 18.9319 25.1613C18.9319 24.6829 19.3286 24.2863 19.8069 24.2863H25.9319C26.4219 24.2863 26.8069 24.6829 26.8069 25.1613C26.8069 25.6396 26.4219 26.0363 25.9319 26.0363ZM25.9319 17.8696H19.8069C19.3286 17.8696 18.9319 17.4729 18.9319 16.9946C18.9319 16.5163 19.3286 16.1196 19.8069 16.1196H25.9319C26.4219 16.1196 26.8069 16.5163 26.8069 16.9946C26.8069 17.4729 26.4219 17.8696 25.9319 17.8696Z" fill="white"/>
</svg>
