<svg width="40" height="40" xmlns="http://www.w3.org/2000/svg">

 <g>
  <title>background</title>
  <rect fill="none" id="canvas_background" height="42" width="42" y="-1" x="-1"/>
 </g>
 <g>
  <title>Layer 1</title>
  <path fill="#787878" stroke="null" id="svg_1" d="m7.637709,32.966884l1.662788,0l0,0.331377c0,3.044168 2.722954,5.519961 6.069791,5.519961l2.692073,0l12.84745,0l1.155024,0l1.087104,0c3.347798,0 6.070849,-2.475889 6.070849,-5.519961l0,-20.7326c0,-3.04331 -2.723051,-5.520056 -6.070849,-5.520056l-1.662691,0l0,-0.331282c0,-3.044454 -2.722088,-5.520151 -6.069887,-5.520151l-2.242031,0l-12.847546,0l-2.692073,0c-3.346836,0 -6.069791,2.475793 -6.069791,5.520151l0,20.732409c0,3.043214 2.722954,5.520151 6.069791,5.520151zm25.514228,-24.114246c2.2555,0 4.083373,1.662414 4.083373,3.713023l0,20.7326c0,2.050514 -1.827874,3.713118 -4.083373,3.713118l-1.087008,0l-1.155024,0l-12.84745,0l-2.692073,0c-2.254634,0 -4.082411,-1.662604 -4.082411,-3.713118l0,-0.331377l0,-1.807034l0,-18.594189c0,-2.050704 1.827777,-3.713023 4.082411,-3.713023l2.692073,0l11.440276,0l1.407174,0l0.579243,0l1.662788,0zm-29.597698,-2.138315c0,-2.050704 1.827777,-3.713118 4.083469,-3.713118l2.692073,0l12.847546,0l2.242031,0c2.255692,0 4.083373,1.662414 4.083373,3.713118l0,0.331282l-11.440276,0l-2.692073,0c-3.346836,0 -6.069791,2.476747 -6.069791,5.520056l0,18.594189l-1.662884,0c-2.255692,0 -4.083469,-1.663462 -4.083469,-3.713118l0,-20.732409z"/>
  <path fill="#787878" stroke="null" id="svg_2" d="m19.079193,19.616623c-0.406158,0 -0.734969,0.52354 -0.734969,1.170057c0,0.646374 0.328812,1.169915 0.734969,1.169915l14.701894,0c0.406158,0 0.735059,-0.52354 0.735059,-1.169915c0,-0.646517 -0.328901,-1.170057 -0.735059,-1.170057l-14.701894,0z"/>
  <path fill="#787878" stroke="null" id="svg_7" d="m14.393,13.84256c-0.40616,0 -0.73497,0.52355 -0.73497,1.17006c0,0.64638 0.32881,1.16992 0.73497,1.16992l14.70189,0c0.40616,0 0.73506,-0.52354 0.73506,-1.16992c0,-0.64651 -0.3289,-1.17006 -0.73506,-1.17006l-14.70189,0z"/>
  <path fill="#787878" stroke="null" id="svg_8" d="m15.14614,25.390679c-0.40616,0 -0.73497,0.52354 -0.73497,1.17006c0,0.64638 0.32881,1.16992 0.73497,1.16992l14.70189,0c0.40616,0 0.73506,-0.52354 0.73506,-1.16992c0,-0.64652 -0.3289,-1.17006 -0.73506,-1.17006l-14.70189,0z"/>
  <path fill="#787878" stroke="null" id="svg_9" d="m22.000476,30.411598c-0.35572,0 -0.643695,0.52354 -0.643695,1.17006c0,0.64638 0.287976,1.16992 0.643695,1.16992l12.876083,0c0.35572,0 0.643774,-0.52354 0.643774,-1.16992c0,-0.64652 -0.288054,-1.17006 -0.643774,-1.17006l-12.876083,0z"/>
 </g>
</svg>