<svg width="40" height="40" xmlns="http://www.w3.org/2000/svg">

 <g>
  <title>background</title>
  <rect fill="none" id="canvas_background" height="42" width="42" y="-1" x="-1"/>
 </g>
 <g>
  <title>Layer 1</title>
  <path stroke="#787878" stroke-miterlimit="10" stroke-linejoin="round" stroke-linecap="round" stroke-width="2" fill="none" id="svg_1" d="m34.78149,19.568481c0,-2.512301 1.718943,-4.495697 3.966791,-5.156828l0,-2.776754c0,-1.45449 -1.190037,-2.644527 -2.644527,-2.644527l-31.734329,0c-1.45449,0 -2.644527,1.190037 -2.644527,2.644527l0,2.776754c2.247848,0.528905 3.966791,2.644527 3.966791,5.156828s-1.718943,4.495697 -3.966791,5.156828l0,2.776754c0,1.45449 1.190037,2.644527 2.644527,2.644527l31.734329,0c1.45449,0 2.644527,-1.190037 2.644527,-2.644527l0,-2.776754c-2.247848,-0.661132 -3.966791,-2.644527 -3.966791,-5.156828z" class="st0"/>
  <polygon stroke="#787878" stroke-miterlimit="10" stroke-linejoin="round" stroke-linecap="round" stroke-width="2" fill="none" id="svg_2" points="20.539203137159348,11.750068664550781 22.938790768384933,16.869190216064453 28.53782793879509,17.669052124023438 24.538516491651535,21.508390426635742 25.49835154414177,26.94745445251465 20.539203137159348,24.387893676757812 15.580054730176926,26.94745445251465 16.53988978266716,21.508390426635742 12.540577381849289,17.669052124023438 18.13961550593376,16.869190216064453 " class="st0"/>
 </g>
</svg>