<svg width="40" height="40" xmlns="http://www.w3.org/2000/svg">

 <g>
  <title>background</title>
  <rect fill="none" id="canvas_background" height="42" width="42" y="-1" x="-1"/>
 </g>
 <g>
  <title>Layer 1</title>
  <path fill="#787878" stroke="null" id="svg_1" d="m30.362438,0.801237l-21.542591,0c-2.550489,0 -4.61627,2.157071 -4.61627,4.820269l0,28.921616c0,2.663199 2.065781,4.820269 4.61627,4.820269l21.542591,0c2.550489,0 4.61627,-2.157071 4.61627,-4.820269l0,-28.921616c0,-2.663199 -2.065781,-4.820269 -4.61627,-4.820269zm1.538757,33.741886c0,0.887733 -0.688594,1.606756 -1.538757,1.606756l-21.542591,0c-0.850163,0 -1.538757,-0.719024 -1.538757,-1.606756l0,-28.921616c0,-0.887733 0.688594,-1.606756 1.538757,-1.606756l21.542591,0c0.850163,0 1.538757,0.719024 1.538757,1.606756l0,28.921616z"/>
  <path fill="#787878" stroke="null" id="svg_5" d="m28.826761,30.295912c0,1.20629 -1.315702,2.184319 -2.938475,2.184319l-11.753901,0c-1.622773,0 -2.938475,-0.978029 -2.938475,-2.184319l0,0c0,-1.20629 1.315702,-2.184319 2.938475,-2.184319l11.753901,0c1.622773,0 2.938475,0.978029 2.938475,2.184319l0,0z"/>
  <path fill="#787878" stroke="null" id="svg_6" d="m22.80824,11.12925c0,1.20629 -0.87348,2.18432 -1.95082,2.18432l-7.80328,0c-1.07734,0 -1.95082,-0.97803 -1.95082,-2.18432l0,0c0,-1.20629 0.87348,-2.18432 1.95082,-2.18432l7.80328,0c1.07734,0 1.95082,0.97803 1.95082,2.18432l0,0z"/>
  <path fill="#787878" stroke="null" id="svg_7" d="m27.530461,17.14777c0,1.20629 -1.198237,2.18432 -2.676128,2.18432l-10.704514,0c-1.477891,0 -2.676128,-0.97803 -2.676128,-2.18432l0,0c0,-1.20629 1.198237,-2.18432 2.676128,-2.18432l10.704514,0c1.477891,0 2.676128,0.97803 2.676128,2.18432l0,0z"/>
  <path fill="#787878" stroke="null" id="svg_8" d="m24.382317,23.44406c0,1.20629 -0.970216,2.18432 -2.166869,2.18432l-8.667477,0c-1.196664,0 -2.16688,-0.97803 -2.16688,-2.18432l0,0c0,-1.20629 0.970216,-2.18432 2.16688,-2.18432l8.667477,0c1.196653,0 2.166869,0.97803 2.166869,2.18432l0,0z"/>
 </g>
</svg>