<?xml version="1.0" ?><svg viewBox="0 0 120.923 120.926" xmlns="http://www.w3.org/2000/svg"><title/><g data-name="Layer 2" id="Layer_2"><g data-name="Layer 1" id="Layer_1-2"><path d="M21.751,44.23c-.1-1.12-.15-2.25-.15-3.4a38.83,38.83,0,0,1,77.66,0q0,1.71-.15,3.39" style="fill:none;stroke:#414043;stroke-linecap:round;stroke-miterlimit:10;stroke-width:4px"/><polyline points="60.431 23.15 60.431 40.833 83.963 40.833" style="fill:none;stroke:#414043;stroke-linecap:round;stroke-miterlimit:10;stroke-width:4px"/><circle cx="23.934" cy="64.083" r="10.968" style="fill:none;stroke:#414043;stroke-linecap:round;stroke-miterlimit:10;stroke-width:4px"/><path d="M25.035,106.077H5.616A3.628,3.628,0,0,1,2,102.452V96.991A21.9,21.9,0,0,1,36.319,78.913" style="fill:none;stroke:#414043;stroke-linecap:round;stroke-miterlimit:10;stroke-width:4px"/><circle cx="60.461" cy="65.688" r="13.906" style="fill:none;stroke:#414043;stroke-linecap:round;stroke-miterlimit:10;stroke-width:4px"/><path d="M56.9,79.594h7.121a24.251,24.251,0,0,1,24.251,24.251v11.081a4,4,0,0,1-4,4H36.649a4,4,0,0,1-4-4V103.845A24.251,24.251,0,0,1,56.9,79.594Z" style="fill:none;stroke:#414043;stroke-linecap:round;stroke-miterlimit:10;stroke-width:4px"/><circle cx="96.989" cy="64.083" r="10.968" style="fill:none;stroke:#414043;stroke-linecap:round;stroke-miterlimit:10;stroke-width:4px"/><path d="M95.888,106.077h19.419a3.628,3.628,0,0,0,3.616-3.625V96.991A21.9,21.9,0,0,0,84.6,78.913" style="fill:none;stroke:#414043;stroke-linecap:round;stroke-miterlimit:10;stroke-width:4px"/></g></g></svg>