<svg viewBox="0 0 64 64" xml:space="preserve" xmlns="http://www.w3.org/2000/svg" enable-background="new 0 0 64 64"><path d="M32.394 28c1.298 0 2.541.384 3.606 1.06V12a1 1 0 0 0-1-1h-6a1 1 0 0 0-1 1v16.986A10.29 10.29 0 0 1 32.394 28zM39.48 31.633h.019A10.368 10.368 0 0 1 47 28.021V17a1 1 0 0 0-1-1h-6a1 1 0 0 0-1 1v14.382c.162.08.327.157.48.251zM17.394 28A6.738 6.738 0 0 1 23 31c.35.087.684.209 1 .36l.746.013c.081-.088.171-.166.254-.25V17a1 1 0 0 0-1-1h-6a1 1 0 0 0-1 1v11.02c.132-.005.261-.02.394-.02zM53 31c2.351.588 4 2.7 4 5.123V37h1V12a1 1 0 0 0-1-1h-6a1 1 0 0 0-1 1v16.534A6.726 6.726 0 0 1 53 31zM7.1 37a10.398 10.398 0 0 1 6.9-8.422V12a1 1 0 0 0-1-1H7a1 1 0 0 0-1 1v25h1.1z" fill="#ccd4d3" class="fill-00f4cb"></path><path d="M10 7c.768 0 1.461-.298 1.992-.774l6.055 3.303c-.024.154-.047.31-.047.471 0 1.654 1.346 3 3 3s3-1.346 3-3c0-.161-.023-.317-.048-.471l6.055-3.303A2.978 2.978 0 0 0 32 7c.794 0 1.512-.315 2.049-.82l5.991 3.424c-.017.13-.04.26-.04.396 0 1.654 1.346 3 3 3s3-1.346 3-3c0-.136-.023-.266-.04-.397l5.991-3.424A2.978 2.978 0 0 0 54 7c1.654 0 3-1.346 3-3s-1.346-3-3-3-3 1.346-3 3c0 .136.023.266.04.397L45.049 7.82C44.512 7.315 43.794 7 43 7s-1.512.315-2.049.82L34.96 4.397c.017-.131.04-.261.04-.397 0-1.654-1.346-3-3-3s-3 1.346-3 3c0 .161.023.317.048.471l-6.055 3.303C22.461 7.298 21.768 7 21 7s-1.461.298-1.992.774l-6.055-3.303c.024-.154.047-.31.047-.471 0-1.654-1.346-3-3-3S7 2.346 7 4s1.346 3 3 3zm44-4c.551 0 1 .449 1 1s-.449 1-1 1-1-.449-1-1 .449-1 1-1zM43 9c.551 0 1 .449 1 1s-.449 1-1 1-1-.449-1-1 .449-1 1-1zM32 3c.551 0 1 .449 1 1s-.449 1-1 1-1-.449-1-1 .449-1 1-1zM21 9c.551 0 1 .449 1 1s-.449 1-1 1-1-.449-1-1 .449-1 1-1zM10 3c.551 0 1 .449 1 1s-.449 1-1 1-1-.449-1-1 .449-1 1-1zM62.961 61.725l-.995-3.482a6.972 6.972 0 0 0-5.357-4.94L51 52.18V52c0-.026-.013-.048-.015-.073a8.015 8.015 0 0 0 3.771-5.003A4.004 4.004 0 0 0 58 43v-6.877a6.27 6.27 0 0 0-4.386-5.988A7.72 7.72 0 0 0 47.395 27a11.37 11.37 0 0 0-8.106 3.409c-.221-.099-.44-.2-.675-.274A7.72 7.72 0 0 0 32.395 27c-3.17 0-6.04 1.304-8.107 3.4a6.272 6.272 0 0 0-.673-.266A7.725 7.725 0 0 0 17.395 27C11.111 27 6 32.111 6 38.395V43a4.004 4.004 0 0 0 3.244 3.924 8.019 8.019 0 0 0 3.771 5.003c-.002.025-.015.047-.015.073v.18l-5.608 1.122a6.972 6.972 0 0 0-5.358 4.94l-.995 3.482A1 1 0 0 0 2 63h60a.998.998 0 0 0 .961-1.275zM47 51c-2.796 0-5.201-1.973-5.823-4.653A3.993 3.993 0 0 0 43 43v-2.58a8.273 8.273 0 0 0 2.828-1.834l.266-.266.106.08a13.09 13.09 0 0 0 6.8 2.561V45c0 3.309-2.691 6-6 6zm-4 1.18-3.5.7-3.5-.7V52c0-.026-.013-.048-.015-.073a8.029 8.029 0 0 0 3.513-4.166 8.053 8.053 0 0 0 3.517 4.161c-.001.027-.015.05-.015.078v.18zm-18.499.7L21 52.18V52c0-.028-.014-.051-.016-.078a8.053 8.053 0 0 0 3.517-4.161 8.037 8.037 0 0 0 3.513 4.166c-.001.025-.014.047-.014.073v.18l-3.499.7zM24 44.722c-.595-.347-1-.985-1-1.722s.405-1.375 1-1.722v3.444zM26 45v-4.06a8.18 8.18 0 0 0 4.828-2.354l.266-.266.106.08a13.09 13.09 0 0 0 6.8 2.561V45c0 3.309-2.691 6-6 6s-6-2.691-6-6zm15-2c0 .737-.405 1.375-1 1.722v-3.444c.595.347 1 .985 1 1.722zm14 1.722v-3.444c.595.347 1 .985 1 1.722s-.405 1.375-1 1.722zM47.395 29c1.922 0 3.707.955 4.773 2.555.138.207.348.355.589.416A4.273 4.273 0 0 1 56 36.123v3.433A3.959 3.959 0 0 0 54 39c-2.364 0-4.708-.781-6.6-2.2l-.8-.6a1 1 0 0 0-1.307.093l-.879.879A6.232 6.232 0 0 1 43 38.219v-2.096a6.257 6.257 0 0 0-2.015-4.595A9.384 9.384 0 0 1 47.395 29zm-15 0c1.922 0 3.707.955 4.773 2.555.138.207.348.355.589.416A4.273 4.273 0 0 1 41 36.123v3.433A3.959 3.959 0 0 0 39 39c-2.364 0-4.708-.781-6.6-2.2l-.8-.6a1 1 0 0 0-1.307.093l-.879.879A6.202 6.202 0 0 1 25 39c-.732 0-1.409.212-2 .556v-1.162C23 33.214 27.214 29 32.395 29zm-15 0c1.922 0 3.707.955 4.773 2.555.138.207.348.355.59.416.064.016.122.048.185.067A11.325 11.325 0 0 0 21 38.395v.181a11.05 11.05 0 0 1-3.6-1.776l-.8-.6a1 1 0 0 0-1.307.093l-.879.879A6.202 6.202 0 0 1 10 39c-.732 0-1.409.212-2 .556v-1.162C8 33.214 12.214 29 17.395 29zM8 43c0-.737.405-1.375 1-1.722v3.444c-.595-.347-1-.985-1-1.722zm3 2v-4.06a8.18 8.18 0 0 0 4.828-2.354l.266-.266.106.08c1.422 1.067 3.071 1.813 4.8 2.225V43c0 1.402.728 2.633 1.823 3.347C22.201 49.027 19.796 51 17 51c-3.309 0-6-2.691-6-6zM3.957 58.792a4.98 4.98 0 0 1 3.827-3.529l6.413-1.283A.998.998 0 0 0 15 53v-.263A7.953 7.953 0 0 0 17 53c.688 0 1.357-.094 2-.262V53c0 .477.336.887.804.98l.517.103a6.958 6.958 0 0 0-3.287 4.159L16.246 61H3.326l.631-2.208zM40.781 61l-.811-3.243a1.001 1.001 0 0 0-1.941.485l.69 2.758H25.281l.689-2.757a1 1 0 1 0-1.941-.485L23.219 61h-4.893l.631-2.208a4.98 4.98 0 0 1 3.827-3.529l6.413-1.283A.998.998 0 0 0 30 53v-.263c.641.166 1.308.263 2 .263s1.359-.097 2-.263V53c0 .477.336.887.804.98l6.413 1.283a4.982 4.982 0 0 1 3.827 3.529l.63 2.208h-4.893zm6.973 0-.788-2.757a6.96 6.96 0 0 0-3.287-4.159l.517-.103A1 1 0 0 0 45 53v-.262A7.897 7.897 0 0 0 47 53c.692 0 1.359-.097 2-.263V53c0 .477.336.887.804.98l6.413 1.283a4.982 4.982 0 0 1 3.827 3.529l.63 2.208h-12.92z" fill="#000000" class="fill-000000"></path></svg>