<?xml version="1.0" ?><!DOCTYPE svg  PUBLIC '-//W3C//DTD SVG 1.1//EN'  'http://www.w3.org/Graphics/SVG/1.1/DTD/svg11.dtd'><svg height="8.4666mm" style="shape-rendering:geometricPrecision; text-rendering:geometricPrecision; image-rendering:optimizeQuality; fill-rule:evenodd; clip-rule:evenodd" version="1.1" viewBox="0 0 846.66 846.66" width="8.4666mm" xml:space="preserve" xmlns="http://www.w3.org/2000/svg" xmlns:xlink="http://www.w3.org/1999/xlink"><defs><style type="text/css">
   <![CDATA[
    .fil0 {fill:black;fill-rule:nonzero}
   ]]>
  </style></defs><g id="Layer_x0020_1"><path class="fil0" d="M672.61 794.68c63.43,0 114.86,-51.42 114.86,-114.85 0,-63.52 -51.51,-114.86 -114.86,-114.86 -63.44,0 -114.86,51.42 -114.86,114.86 0,63.26 51.26,114.85 114.86,114.85zm-75.35 -114.75c-14.4,-22.89 20.44,-44.81 34.84,-21.93l20.65 32.79 62.46 -69.67c18.01,-20.13 48.66,7.29 30.65,27.42l-79.99 89.22c-8.78,10.86 -25.87,10.05 -33.44,-1.97l-35.17 -55.86zm-35.85 109.52l-342.88 0c-51.84,0 -95.23,-40.37 -98.99,-92.02l-2.38 0c-54.63,0 -99.25,-44.62 -99.25,-99.25l0 -488.24c0,-54.64 44.62,-99.25 99.25,-99.25l380.66 0c51.84,0 95.23,40.37 98.99,92.01l2.38 0c54.63,0 99.26,44.62 99.26,99.25l0 323.85c75.07,12.51 130.31,77.74 130.31,154.03 0,86.23 -69.91,156.14 -156.15,156.14 -42.01,0 -81.7,-16.66 -111.2,-46.52zm95.75 -265.02l0 -322.48c0,-31.83 -26.13,-57.96 -57.97,-57.96l-380.66 0c-31.84,0 -57.97,26.13 -57.97,57.96l0 488.24c0,31.84 26.13,57.97 57.97,57.97l313.64 0c-10.07,-20.64 -15.71,-43.83 -15.71,-68.33 0,-80.25 60.94,-147.56 140.7,-155.4zm-399.32 -46.27l184.1 0c11.4,0 20.64,9.25 20.64,20.65l0 165.5c0,11.4 -9.24,20.65 -20.64,20.65l-184.1 0c-11.4,0 -20.65,-9.25 -20.65,-20.65l0 -165.5c0,-11.4 9.25,-20.65 20.65,-20.65zm163.45 41.29l-142.8 0 0 124.22 142.8 0 0 -124.22zm-302.02 136.69l0 -454.19c0,-54.63 44.63,-99.25 99.26,-99.25l336.8 0c-3.64,-28.77 -28.44,-50.72 -57.51,-50.72l-380.66 0c-31.83,0 -57.96,26.12 -57.96,57.96l0 488.24c0,31.83 26.13,57.96 57.96,57.96l2.11 0zm330.95 -379.75c-27.16,0 -27.16,-41.29 0,-41.29l106.54 0c27.16,0 27.16,41.29 0,41.29l-106.54 0zm0 124.12c-27.16,0 -27.16,-41.29 0,-41.29l106.54 0c27.16,0 27.16,41.29 0,41.29l-106.54 0zm0 -62.06c-27.16,0 -27.16,-41.29 0,-41.29l106.54 0c27.16,0 27.16,41.29 0,41.29l-106.54 0zm-218.45 -132.32l163.85 0c11.4,0 20.64,9.25 20.64,20.65l0 182.05c0,11.4 -9.24,20.65 -20.64,20.65l-163.85 0c-11.4,0 -20.65,-9.25 -20.65,-20.65l0 -182.05c0,-11.4 9.25,-20.65 20.65,-20.65zm143.2 41.29l-122.56 0 0 140.77 122.56 0 0 -140.77z"/></g></svg>