<svg width="40" height="40" viewBox="0 0 40 40" fill="none" xmlns="http://www.w3.org/2000/svg">
<g clip-path="url(#clip0)">
<path d="M0.0141602 0V40H39.9858V0H0.0141602ZM37.6354 2.35043V18.8106H31.1289V22.4929C31.1289 23.4433 30.3557 24.2166 29.4053 24.2166C28.4548 24.2166 27.6816 23.4433 27.6816 22.4929V18.8106H21.1752V14.6545H22.5071C24.7536 14.6545 26.5812 12.8269 26.5812 10.5805C26.5812 8.334 24.7536 6.50638 22.5071 6.50638H21.1752V2.35043H37.6354ZM2.36459 2.35043H18.8247V8.85681H22.5071C23.4575 8.85681 24.2307 9.63002 24.2307 10.5805C24.2307 11.5309 23.4575 12.3041 22.5071 12.3041H18.8247V18.839H14.6687V17.5071C14.6687 15.2606 12.8411 13.433 10.5946 13.433C8.34816 13.433 6.52054 15.2606 6.52054 17.5071V18.839H2.36459V2.35043ZM2.36459 37.6496V21.1894H8.87097V17.5071C8.87097 16.5567 9.64418 15.7834 10.5946 15.7834C11.545 15.7834 12.3183 16.5567 12.3183 17.5071V21.1894H18.8247V25.3454H17.4928C15.2464 25.3454 13.4187 27.173 13.4187 29.4195C13.4187 31.6659 15.2464 33.4935 17.4928 33.4935H18.8247V37.6496H2.36459ZM37.6354 37.6496H21.1752V31.1431H17.4928C16.5424 31.1431 15.7692 30.3699 15.7692 29.4195C15.7692 28.469 16.5424 27.6958 17.4928 27.6958H21.1752V21.161H25.3311V22.4929C25.3311 24.7394 27.1587 26.567 29.4052 26.567C31.6516 26.567 33.4793 24.7394 33.4793 22.4929V21.161H37.6353V37.6496H37.6354Z" fill="#787878"/>
</g>
<defs>
<clipPath id="clip0">
<rect width="40" height="40" fill="white"/>
</clipPath>
</defs>
</svg>
