<svg width="40" height="40" viewBox="0 0 40 40" fill="none" xmlns="http://www.w3.org/2000/svg">
<path d="M35.6939 0H20.5135C20.2029 0 19.9047 0.123596 19.685 0.343322L1.25885 18.7689C-0.419615 20.4479 -0.419615 23.1796 1.25885 24.858L15.1416 38.7404C15.9521 39.551 17.0333 39.9974 18.1857 39.9977H18.186C19.3386 39.9977 20.4199 39.551 21.2307 38.7401L39.6563 20.3143C39.876 20.0945 39.9996 19.7964 39.9996 19.4857L39.9999 4.30541C39.9996 1.93145 38.0678 0 35.6939 0ZM37.6558 19.0005L19.5733 37.083C19.2053 37.4514 18.7124 37.654 18.186 37.654C17.6593 37.654 17.1667 37.4514 16.7987 37.0833L2.91595 23.2009C2.15118 22.4362 2.15118 21.191 2.91595 20.426L20.9988 2.34374H35.6939C36.7757 2.34374 37.6561 3.22387 37.6561 4.30571L37.6558 19.0005Z" fill="#787878"/>
<path d="M29.6707 6.64648C28.6871 6.64648 27.7624 7.02979 27.0669 7.72528C26.3715 8.42047 25.9885 9.34515 25.9885 10.3287C25.9885 11.3123 26.3715 12.237 27.0669 12.9325C27.7624 13.628 28.6871 14.011 29.6707 14.011C30.654 14.011 31.5787 13.628 32.2742 12.9325C32.9697 12.237 33.3527 11.3123 33.3527 10.3287C33.3527 9.34515 32.9697 8.42047 32.2745 7.72528C31.579 7.02979 30.6543 6.64648 29.6707 6.64648ZM30.6171 11.2751C30.3644 11.5281 30.0281 11.6672 29.6707 11.6672C29.313 11.6672 28.977 11.5281 28.7244 11.2751C28.4714 11.0224 28.3322 10.6861 28.3322 10.3287C28.3322 9.97137 28.4714 9.63507 28.7244 9.38239C28.977 9.12939 29.3133 8.99023 29.6707 8.99023C30.0281 8.99023 30.3641 9.12939 30.6171 9.38239C30.87 9.63507 31.0092 9.97137 31.0092 10.3287C31.0092 10.6861 30.8697 11.0224 30.6171 11.2751Z" fill="#787878"/>
</svg>
