<svg width="40" height="40" viewBox="0 0 40 40" fill="none" xmlns="http://www.w3.org/2000/svg">
<path d="M9.41406 23.5352H18.8184V25.8789H9.41406V23.5352Z" fill="#787878"/>
<path d="M9.41406 28.2422H16.4648V30.5859H9.41406V28.2422Z" fill="#787878"/>
<path d="M35.293 9.41406V4.70703H0V30.5859H4.70703V35.293H40V9.41406H35.293ZM37.6562 14.1211H7.05078V11.7578H37.6562V14.1211ZM7.05078 16.4648H37.6562V18.8281H7.05078V16.4648ZM2.34375 28.2422V7.05078H32.9492V9.41406H4.70703V28.2422H2.34375ZM7.05078 32.9492V21.1719H37.6562V32.9492H7.05078Z" fill="#787878"/>
<path d="M25.8887 30.5859H35.293V23.5352H25.8887V30.5859ZM28.2324 25.8789H32.9492V28.2422H28.2324V25.8789Z" fill="#787878"/>
</svg>
