<svg width="40" height="40" viewBox="0 0 40 40" fill="none" xmlns="http://www.w3.org/2000/svg">
<g clip-path="url(#clip0)">
<path d="M38.9718 12.995L27.0049 1.02807C25.634 -0.342768 23.4035 -0.342612 22.0328 1.02807L7.01646 16.0445H3.51577C1.57717 16.0445 0 17.6216 0 19.5602V36.4841C0 38.4227 1.57717 39.9999 3.51577 39.9999H30.4403C32.3789 39.9999 33.9561 38.4227 33.9561 36.4841V22.9828L38.9718 17.967C40.3427 16.5963 40.3427 14.3659 38.9718 12.995ZM23.6902 2.6854C23.9187 2.45696 24.2188 2.34265 24.5189 2.34265C24.819 2.34265 25.1191 2.45696 25.3475 2.6854L31.5138 8.85167L24.321 16.0445H10.331L23.6902 2.6854ZM31.6122 36.4841C31.6122 37.1303 31.0865 37.6561 30.4403 37.6561H3.51577C2.86957 37.6561 2.34385 37.1303 2.34385 36.4841V19.5602C2.34385 18.914 2.86957 18.3883 3.51577 18.3883H30.4403C31.0865 18.3883 31.6122 18.914 31.6122 19.5602V36.4841ZM30.9172 16.0777C30.7611 16.0564 30.6021 16.0445 30.4403 16.0445H27.6357L33.1711 10.5089L34.8285 12.1663L30.9172 16.0777ZM37.3145 16.3098L33.9561 19.6682V19.5602C33.9561 18.6694 33.6224 17.8554 33.0743 17.2352L36.4859 13.8237L37.3145 14.6523C37.7715 15.1093 37.7715 15.8528 37.3145 16.3098Z" fill="#787878"/>
<path d="M4.68768 31.7646H9.04872V34.1085H4.68768V31.7646Z" fill="#787878"/>
<path d="M11.4276 31.7646H15.7886V34.1085H11.4276V31.7646Z" fill="#787878"/>
<path d="M18.1675 31.7646H22.5286V34.1085H18.1675V31.7646Z" fill="#787878"/>
<path d="M24.9073 31.7646H29.2684V34.1085H24.9073V31.7646Z" fill="#787878"/>
<path d="M12.5995 21.9355H4.68768V28.9671H12.5995V21.9355ZM10.2556 26.6232H7.03153V24.2794H10.2556V26.6232Z" fill="#787878"/>
</g>
<defs>
<clipPath id="clip0">
<rect width="40" height="40" fill="white"/>
</clipPath>
</defs>
</svg>
