<svg width="40" height="40" viewBox="0 0 40 40" fill="none" xmlns="http://www.w3.org/2000/svg">
<path d="M15.4166 13.3334H2.91656C1.30829 13.3334 0 12.0251 0 10.4166V2.91656C0 1.30829 1.30829 0 2.91656 0H15.4166C17.0251 0 18.3334 1.30829 18.3334 2.91656V10.4166C18.3334 12.0251 17.0251 13.3334 15.4166 13.3334ZM2.91656 2.5C2.68677 2.5 2.5 2.68677 2.5 2.91656V10.4166C2.5 10.6467 2.68677 10.8334 2.91656 10.8334H15.4166C15.6467 10.8334 15.8334 10.6467 15.8334 10.4166V2.91656C15.8334 2.68677 15.6467 2.5 15.4166 2.5H2.91656Z" fill="#787878"/>
<path d="M15.4166 40.0004H2.91656C1.30829 40.0004 0 38.6921 0 37.0839V19.5839C0 17.9753 1.30829 16.667 2.91656 16.667H15.4166C17.0251 16.667 18.3334 17.9753 18.3334 19.5839V37.0839C18.3334 38.6921 17.0251 40.0004 15.4166 40.0004ZM2.91656 19.167C2.68677 19.167 2.5 19.3538 2.5 19.5839V37.0839C2.5 37.3137 2.68677 37.5004 2.91656 37.5004H15.4166C15.6467 37.5004 15.8334 37.3137 15.8334 37.0839V19.5839C15.8334 19.3538 15.6467 19.167 15.4166 19.167H2.91656Z" fill="#787878"/>
<path d="M37.0834 40.0004H24.5834C22.9749 40.0004 21.6666 38.6921 21.6666 37.0839V29.5839C21.6666 27.9753 22.9749 26.667 24.5834 26.667H37.0834C38.6917 26.667 40 27.9753 40 29.5839V37.0839C40 38.6921 38.6917 40.0004 37.0834 40.0004ZM24.5834 29.167C24.3533 29.167 24.1666 29.3538 24.1666 29.5839V37.0839C24.1666 37.3137 24.3533 37.5004 24.5834 37.5004H37.0834C37.3132 37.5004 37.5 37.3137 37.5 37.0839V29.5839C37.5 29.3538 37.3132 29.167 37.0834 29.167H24.5834Z" fill="#787878"/>
<path d="M37.0834 23.3334H24.5834C22.9749 23.3334 21.6666 22.0251 21.6666 20.4166V2.91656C21.6666 1.30829 22.9749 0 24.5834 0H37.0834C38.6917 0 40 1.30829 40 2.91656V20.4166C40 22.0251 38.6917 23.3334 37.0834 23.3334ZM24.5834 2.5C24.3533 2.5 24.1666 2.68677 24.1666 2.91656V20.4166C24.1666 20.6467 24.3533 20.8334 24.5834 20.8334H37.0834C37.3132 20.8334 37.5 20.6467 37.5 20.4166V2.91656C37.5 2.68677 37.3132 2.5 37.0834 2.5H24.5834Z" fill="#787878"/>
</svg>
