<svg width="40" height="40" viewBox="0 0 40 40" fill="none" xmlns="http://www.w3.org/2000/svg">
<g clip-path="url(#clip0)">
<path d="M14.4598 8.98119C14.5695 9.56744 15.1511 10.0298 15.8371 9.9015C16.5032 9.76244 16.882 9.12377 16.7574 8.52338C16.6111 7.82525 15.9216 7.43634 15.2683 7.63119C14.6848 7.80533 14.3396 8.40791 14.4598 8.98119Z" fill="#787878"/>
<path d="M39.7062 25.3489C33.3295 6.78702 33.7682 8.05878 33.7409 7.99557C33.0772 6.45936 31.7887 5.26511 30.2057 4.71892C29.9791 4.64071 17.1439 1.63829 16.773 1.50985C15.6353 1.11585 14.0548 1.33672 12.9453 2.35721L1.94583 12.4785C0.709238 13.6159 0 15.235 0 16.9208V34.844C0 36.9561 1.70919 38.6745 3.8101 38.6745H27.3424C29.4433 38.6745 31.1525 36.9561 31.1525 34.844V33.1116L37.7117 30.3045C39.6187 29.4792 40.5058 27.2644 39.7062 25.3489ZM27.3424 36.3307H3.8101C3.00157 36.3307 2.34381 35.6637 2.34381 34.844V16.9208C2.34381 15.8888 2.77711 14.8983 3.53267 14.2034C12.9564 5.53222 7.13152 10.9408 14.5696 4.08132C14.9575 3.72381 15.4931 3.58022 16.0243 3.74038C16.499 3.88218 15.6613 3.19982 27.62 14.2036C28.3754 14.8984 28.8087 15.8888 28.8087 16.9208V34.844C28.8086 35.6637 28.1508 36.3307 27.3424 36.3307ZM36.7851 28.1515L31.1524 30.5621V16.9208C31.1524 15.235 30.4432 13.6159 29.2067 12.4787L21.0153 4.94119L29.4923 6.95265C30.4176 7.28758 31.1719 7.9887 31.5725 8.88685C37.937 27.4134 37.5077 26.1699 37.5356 26.234C37.8556 26.9737 37.517 27.8348 36.7851 28.1515Z" fill="#787878"/>
<path d="M18.9036 15.8055C18.3069 15.555 17.6199 15.8359 17.3694 16.4327L11.6644 30.0299C11.3389 30.8056 11.9138 31.6556 12.7445 31.6556C13.2024 31.6556 13.6374 31.3855 13.8257 30.9368L19.5308 17.3396C19.7812 16.7427 19.5004 16.0559 18.9036 15.8055Z" fill="#787878"/>
<path d="M13.4112 19.183C13.4112 16.9212 11.7547 15.0811 9.71844 15.0811C7.68221 15.0811 6.02576 16.9212 6.02576 19.183C6.02576 21.4447 7.68229 23.2849 9.71852 23.2849C11.7547 23.2849 13.4112 21.4447 13.4112 19.183ZM9.71852 20.9411C8.98732 20.9411 8.36957 20.136 8.36957 19.183C8.36957 18.23 8.98725 17.4249 9.71852 17.4249C10.4498 17.4249 11.0675 18.23 11.0675 19.183C11.0674 20.136 10.4497 20.9411 9.71852 20.9411Z" fill="#787878"/>
<path d="M21.5437 24.377C19.5075 24.377 17.851 26.2171 17.851 28.4789C17.851 30.7406 19.5075 32.5808 21.5437 32.5808C23.5799 32.5808 25.2365 30.7406 25.2365 28.4789C25.2365 26.2171 23.5799 24.377 21.5437 24.377ZM21.5437 30.237C20.8125 30.237 20.1948 29.4319 20.1948 28.4789C20.1948 27.5259 20.8124 26.7208 21.5437 26.7208C22.275 26.7208 22.8927 27.5259 22.8927 28.4789C22.8927 29.4319 22.2749 30.237 21.5437 30.237Z" fill="#787878"/>
</g>
<defs>
<clipPath id="clip0">
<rect width="40" height="40" fill="white"/>
</clipPath>
</defs>
</svg>
