<svg width="40" height="40" viewBox="0 0 40 40" fill="none" xmlns="http://www.w3.org/2000/svg">
<path d="M38.8281 2.5H35.2344V1.17188C35.2344 0.524687 34.7097 0 34.0625 0C33.4153 0 32.8906 0.524687 32.8906 1.17188V2.5H28.2031V1.17188C28.2031 0.524687 27.6784 0 27.0312 0C26.3841 0 25.8594 0.524687 25.8594 1.17188V2.5H21.1719V1.17188C21.1719 0.524687 20.6472 0 20 0C19.3528 0 18.8281 0.524687 18.8281 1.17188V2.5H14.1406V1.17188C14.1406 0.524687 13.6159 0 12.9688 0C12.3216 0 11.7969 0.524687 11.7969 1.17188V2.5H7.10938V1.17188C7.10938 0.524687 6.58469 0 5.9375 0C5.29031 0 4.76562 0.524687 4.76562 1.17188V2.5H1.17188C0.524687 2.5 0 3.02469 0 3.67188V38.8281C0 39.4753 0.524687 40 1.17188 40H38.8281C39.4753 40 40 39.4753 40 38.8281V3.67188C40 3.02469 39.4753 2.5 38.8281 2.5ZM4.76562 4.84375V6.01562C4.76562 6.66281 5.29031 7.1875 5.9375 7.1875C6.58469 7.1875 7.10938 6.66281 7.10938 6.01562V4.84375H11.7969V6.01562C11.7969 6.66281 12.3216 7.1875 12.9688 7.1875C13.6159 7.1875 14.1406 6.66281 14.1406 6.01562V4.84375H18.8281V6.01562C18.8281 6.66281 19.3528 7.1875 20 7.1875C20.6472 7.1875 21.1719 6.66281 21.1719 6.01562V4.84375H25.8594V6.01562C25.8594 6.66281 26.3841 7.1875 27.0312 7.1875C27.6784 7.1875 28.2031 6.66281 28.2031 6.01562V4.84375H32.8906V6.01562C32.8906 6.66281 33.4153 7.1875 34.0625 7.1875C34.7097 7.1875 35.2344 6.66281 35.2344 6.01562V4.84375H37.6562V9.53125H2.34375V4.84375H4.76562ZM2.34375 37.6562V11.875H37.6562V37.6562H2.34375Z" fill="#787878"/>
<path d="M12.9688 16.5625H8.28125C7.63406 16.5625 7.10938 17.0872 7.10938 17.7344V22.4219C7.10938 23.0691 7.63406 23.5938 8.28125 23.5938H12.9688C13.6159 23.5938 14.1406 23.0691 14.1406 22.4219V17.7344C14.1406 17.0872 13.6159 16.5625 12.9688 16.5625ZM11.7969 21.25H9.45312V18.9062H11.7969V21.25Z" fill="#787878"/>
<path d="M31.7188 16.5625H27.0312C26.3841 16.5625 25.8594 17.0872 25.8594 17.7344V22.4219C25.8594 23.0691 26.3841 23.5938 27.0312 23.5938H31.7188C32.3659 23.5938 32.8906 23.0691 32.8906 22.4219V17.7344C32.8906 17.0872 32.3659 16.5625 31.7188 16.5625ZM30.5469 21.25H28.2031V18.9062H30.5469V21.25Z" fill="#787878"/>
<path d="M22.3438 25.8594H17.6562C17.0091 25.8594 16.4844 26.3841 16.4844 27.0312V31.7188C16.4844 32.3659 17.0091 32.8906 17.6562 32.8906H22.3438C22.9909 32.8906 23.5156 32.3659 23.5156 31.7188V27.0312C23.5156 26.3841 22.9909 25.8594 22.3438 25.8594ZM21.1719 30.5469H18.8281V28.2031H21.1719V30.5469Z" fill="#787878"/>
<path d="M22.3438 16.5625H17.6562C17.0091 16.5625 16.4844 17.0872 16.4844 17.7344V22.4219C16.4844 23.0691 17.0091 23.5938 17.6562 23.5938H22.3438C22.9909 23.5938 23.5156 23.0691 23.5156 22.4219V17.7344C23.5156 17.0872 22.9909 16.5625 22.3438 16.5625ZM21.1719 21.25H18.8281V18.9062H21.1719V21.25Z" fill="#787878"/>
<path d="M31.7188 25.8594H27.0312C26.3841 25.8594 25.8594 26.3841 25.8594 27.0312V31.7188C25.8594 32.3659 26.3841 32.8906 27.0312 32.8906H31.7188C32.3659 32.8906 32.8906 32.3659 32.8906 31.7188V27.0312C32.8906 26.3841 32.3659 25.8594 31.7188 25.8594ZM30.5469 30.5469H28.2031V28.2031H30.5469V30.5469Z" fill="#787878"/>
<path d="M13.708 26.9657C13.2058 26.5574 12.4677 26.6337 12.0594 27.1357L9.67679 30.0664L9.0243 29.5313C8.52383 29.1208 7.78547 29.194 7.37508 29.6944C6.96469 30.1949 7.03773 30.9332 7.5382 31.3436L9.1007 32.6249C9.60367 33.0374 10.3446 32.9604 10.753 32.458L13.878 28.6142C14.2863 28.112 14.2102 27.374 13.708 26.9657Z" fill="#787878"/>
</svg>
