<svg width="40" height="40" viewBox="0 0 40 40" fill="none" xmlns="http://www.w3.org/2000/svg">
<path d="M4.70703 21.1816H11.7578V23.5254H4.70703V21.1816Z" fill="#787878"/>
<path d="M4.70703 25.8887H9.4043V28.2324H4.70703V25.8887Z" fill="#787878"/>
<path d="M32.9395 26.6091V0H0V32.9395H25.2671L24.643 38.9287L26.6202 40L32.1296 35.5303L39.2191 35.2603L40 33.1516L32.9395 26.6091ZM30.5957 2.34375V4.70711H21.1719V2.34375H30.5957ZM18.8281 2.34375V10.3483L16.4697 9.30453L14.1112 10.3483V2.34375H18.8281ZM11.7676 2.34375V4.70711H2.34375V2.34375H11.7676ZM26.2999 23.0288L25.5113 30.5957H2.34375V7.05086H11.7676V13.9488L16.4698 11.8675L21.1719 13.9488V7.05086H30.5957V24.4373L28.2741 22.2861L26.2999 23.0288ZM31.2598 33.218L27.256 36.4661L28.3896 25.5883L36.4117 33.0217L31.2598 33.218Z" fill="#787878"/>
</svg>
