<svg width="40" height="40" xmlns="http://www.w3.org/2000/svg">

 <g>
  <title>background</title>
  <rect fill="none" id="canvas_background" height="42" width="42" y="-1" x="-1"/>
 </g>
 <g>
  <title>Layer 1</title>
  <path fill="#787878" stroke="null" id="svg_2" d="m6.649896,39.472526l25.188205,0c1.59293,0 2.887186,-1.226517 2.887186,-2.736075l0,-30.922368c0,-1.509559 -1.294256,-2.736075 -2.887186,-2.736075l-3.70854,0l0,-2.512c0,-0.483531 -0.423122,-0.884507 -0.933357,-0.884507s-0.933357,0.400977 -0.933357,0.884507l0,2.512l-6.08549,0l0,-2.512c0,-0.483531 -0.423122,-0.884507 -0.933357,-0.884507s-0.933357,0.400977 -0.933357,0.884507l0,2.512l-6.08549,0l0,-2.512c0,-0.483531 -0.423122,-0.884507 -0.933357,-0.884507s-0.933357,0.400977 -0.933357,0.884507l0,2.512l-3.70854,0c-1.59293,0 -2.887186,1.226517 -2.887186,2.736075l0,30.910575c0,1.509559 1.294256,2.747869 2.887186,2.747869zm-1.020471,-33.658444c0,-0.530704 0.460456,-0.967061 1.020471,-0.967061l3.70854,0l0,2.535587c0,0.483531 0.423122,0.884507 0.933357,0.884507s0.933357,-0.400977 0.933357,-0.884507l0,-2.535587l6.08549,0l0,2.535587c0,0.483531 0.423122,0.884507 0.933357,0.884507s0.933357,-0.400977 0.933357,-0.884507l0,-2.535587l6.08549,0l0,2.535587c0,0.483531 0.423122,0.884507 0.933357,0.884507s0.933357,-0.400977 0.933357,-0.884507l0,-2.535587l3.70854,0c0.560014,0 1.020471,0.436357 1.020471,0.967061l0,30.910575c0,0.530704 -0.460456,0.967061 -1.020471,0.967061l-25.188205,0c-0.560014,0 -1.020471,-0.436357 -1.020471,-0.967061l0,-30.910575z"/>
  <path fill="#787878" stroke="null" id="svg_3" d="m9.484547,31.514064c0.137859,0.137859 0.312481,0.202193 0.487102,0.202193c0.174622,0 0.349243,-0.064334 0.487102,-0.202193l2.435512,-2.435512c0.266528,-0.266528 0.266528,-0.707677 0,-0.974205c-0.266528,-0.266528 -0.707677,-0.266528 -0.974205,0l-1.948409,1.948409l-0.707677,-0.707677c-0.266528,-0.266528 -0.707677,-0.266528 -0.974205,0c-0.266528,0.266528 -0.266528,0.707677 0,0.974205l1.194779,1.194779z"/>
  <path fill="#787878" stroke="null" id="svg_4" d="m15.371236,17.318234l15.287703,0c0.628682,0 1.150028,-0.521346 1.150028,-1.150028s-0.521346,-1.150028 -1.150028,-1.150028l-15.287703,0c-0.628682,0 -1.150028,0.521346 -1.150028,1.150028s0.521346,1.150028 1.150028,1.150028z"/>
  <path fill="#787878" stroke="null" id="svg_9" d="m15.478005,24.33924l15.2877,0c0.62868,0 1.15003,-0.52135 1.15003,-1.15003s-0.52135,-1.15003 -1.15003,-1.15003l-15.2877,0c-0.62869,0 -1.15003,0.52135 -1.15003,1.15003s0.52134,1.15003 1.15003,1.15003z"/>
  <path fill="#787878" stroke="null" id="svg_10" d="m15.533946,31.632894l15.2877,0c0.62868,0 1.15003,-0.52135 1.15003,-1.15003s-0.52135,-1.15003 -1.15003,-1.15003l-15.2877,0c-0.62869,0 -1.15003,0.52135 -1.15003,1.15003s0.52134,1.15003 1.15003,1.15003z"/>
  <path fill="#787878" stroke="null" id="svg_11" d="m9.081194,17.19941c0.13786,0.13786 0.31248,0.2022 0.4871,0.2022c0.17462,0 0.34924,-0.06434 0.4871,-0.2022l2.43551,-2.43551c0.26653,-0.26653 0.26653,-0.70768 0,-0.9742c-0.26652,-0.26653 -0.70767,-0.26653 -0.9742,0l-1.94841,1.94841l-0.70768,-0.70768c-0.26652,-0.26653 -0.70767,-0.26653 -0.9742,0c-0.26653,0.26653 -0.26653,0.70768 0,0.9742l1.19478,1.19478z"/>
  <path fill="#787878" stroke="null" id="svg_12" d="m9.418804,24.15417c0.13786,0.13786 0.31248,0.2022 0.4871,0.2022c0.17462,0 0.34924,-0.06434 0.4871,-0.2022l2.43551,-2.43551c0.26653,-0.26653 0.26653,-0.70768 0,-0.9742c-0.26652,-0.26653 -0.70767,-0.26653 -0.9742,0l-1.94841,1.94841l-0.70768,-0.70768c-0.26653,-0.26653 -0.70767,-0.26653 -0.9742,0c-0.26653,0.26653 -0.26653,0.70768 0,0.9742l1.19478,1.19478z"/>
 </g>
</svg>