<svg width="40" height="40" viewBox="0 0 40 40" fill="none" xmlns="http://www.w3.org/2000/svg">
<g clip-path="url(#clip0_1436_2650)">
<path d="M36.875 19.375H36.1406C36.2418 19.0924 36.2735 18.7895 36.2329 18.4921C36.1924 18.1946 36.0808 17.9113 35.9076 17.6661C35.7344 17.4209 35.5047 17.221 35.238 17.0833C34.9712 16.9456 34.6752 16.8741 34.375 16.875H34.0466C33.8941 13.6206 32.5926 10.5258 30.3734 8.14056C28.1542 5.75533 25.1612 4.23429 21.9263 3.84781C22.1056 3.51456 22.1954 3.14048 22.187 2.76213C22.1785 2.38377 22.072 2.01409 21.8779 1.68921C21.6838 1.36432 21.4087 1.09535 21.0796 0.908582C20.7504 0.72181 20.3784 0.623627 20 0.623627C19.6216 0.623627 19.2496 0.72181 18.9204 0.908582C18.5913 1.09535 18.3162 1.36432 18.1221 1.68921C17.928 2.01409 17.8215 2.38377 17.813 2.76213C17.8046 3.14048 17.8944 3.51456 18.0737 3.84781C14.8388 4.23429 11.8458 5.75533 9.62658 8.14056C7.4074 10.5258 6.1059 13.6206 5.95344 16.875H5.625C5.3248 16.8741 5.0288 16.9456 4.76203 17.0833C4.49527 17.221 4.26558 17.4209 4.0924 17.6661C3.91922 17.9113 3.80763 18.1946 3.76707 18.4921C3.72651 18.7895 3.75817 19.0924 3.85938 19.375H3.125C2.46219 19.3757 1.82673 19.6394 1.35806 20.1081C0.889376 20.5767 0.625744 21.2122 0.625 21.875V31.25C0.625 31.4158 0.690848 31.5747 0.808058 31.6919C0.925268 31.8092 1.08424 31.875 1.25 31.875C2.13945 31.897 3.01355 31.6405 3.75 31.1413V38.75C3.75 38.9158 3.81585 39.0747 3.93306 39.1919C4.05027 39.3092 4.20924 39.375 4.375 39.375H7.5C7.66576 39.375 7.82473 39.3092 7.94194 39.1919C8.05915 39.0747 8.125 38.9158 8.125 38.75V31.1397C8.86186 31.64 9.73682 31.8971 10.6272 31.875C11.5895 31.8928 12.5312 31.5948 13.3081 31.0266C13.8917 30.6031 14.5942 30.3751 15.3152 30.3751C16.0361 30.3751 16.7386 30.6031 17.3222 31.0266C18.1068 31.5789 19.0429 31.8754 20.0025 31.8754C20.9621 31.8754 21.8982 31.5789 22.6828 31.0266C23.2662 30.6033 23.9686 30.3753 24.6894 30.3753C25.4102 30.3753 26.1125 30.6033 26.6959 31.0266C27.4722 31.5946 28.4133 31.8926 29.375 31.875C30.2645 31.8975 31.1387 31.641 31.875 31.1416V38.75C31.875 38.9158 31.9408 39.0747 32.0581 39.1919C32.1753 39.3092 32.3342 39.375 32.5 39.375H35.625C35.7908 39.375 35.9497 39.3092 36.0669 39.1919C36.1842 39.0747 36.25 38.9158 36.25 38.75V31.1406C36.9863 31.6404 37.8604 31.8972 38.75 31.875C38.9158 31.875 39.0747 31.8092 39.1919 31.6919C39.3092 31.5747 39.375 31.4158 39.375 31.25V21.875C39.3743 21.2122 39.1106 20.5767 38.6419 20.1081C38.1733 19.6394 37.5378 19.3757 36.875 19.375ZM20 1.875C20.1854 1.875 20.3667 1.92998 20.5208 2.033C20.675 2.13601 20.7952 2.28243 20.8661 2.45373C20.9371 2.62504 20.9557 2.81354 20.9195 2.9954C20.8833 3.17725 20.794 3.3443 20.6629 3.47541C20.5318 3.60652 20.3648 3.69581 20.1829 3.73199C20.001 3.76816 19.8125 3.74959 19.6412 3.67864C19.4699 3.60768 19.3235 3.48752 19.2205 3.33335C19.1175 3.17918 19.0625 2.99792 19.0625 2.8125C19.0625 2.56386 19.1613 2.3254 19.3371 2.14959C19.5129 1.97377 19.7514 1.875 20 1.875ZM19.6875 5H20.3125C23.5184 5.00373 26.6006 6.23758 28.9235 8.44709C31.2464 10.6566 32.6329 13.6733 32.7969 16.875H7.20312C7.36714 13.6733 8.75357 10.6566 11.0765 8.44709C13.3994 6.23758 16.4816 5.00373 19.6875 5ZM5 18.75C5 18.5842 5.06585 18.4253 5.18306 18.3081C5.30027 18.1908 5.45924 18.125 5.625 18.125H34.375C34.5408 18.125 34.6997 18.1908 34.8169 18.3081C34.9342 18.4253 35 18.5842 35 18.75C35 18.9158 34.9342 19.0747 34.8169 19.1919C34.6997 19.3092 34.5408 19.375 34.375 19.375H5.625C5.45924 19.375 5.30027 19.3092 5.18306 19.1919C5.06585 19.0747 5 18.9158 5 18.75ZM5 38.125V30.4931C5.30544 30.4101 5.62102 30.3704 5.9375 30.375C6.25395 30.3702 6.56952 30.4098 6.875 30.4925V38.125H5ZM33.125 38.125V30.4931C33.7401 30.3359 34.3849 30.3359 35 30.4931V38.125H33.125ZM38.125 30.5775C37.6252 30.4817 37.1531 30.2753 36.7434 29.9734C35.9588 29.4212 35.0228 29.1247 34.0633 29.1247C33.1038 29.1247 32.1677 29.4212 31.3831 29.9734C30.7997 30.3968 30.0973 30.6247 29.3764 30.6247C28.6556 30.6247 27.9532 30.3968 27.3697 29.9734C26.5851 29.4211 25.6489 29.1246 24.6894 29.1246C23.7298 29.1246 22.7937 29.4211 22.0091 29.9734C21.4257 30.3968 20.7233 30.6248 20.0025 30.6248C19.2817 30.6248 18.5793 30.3968 17.9959 29.9734C17.2191 29.4053 16.2776 29.1073 15.3153 29.125C14.353 29.1072 13.4113 29.4052 12.6344 29.9734C12.0577 30.4104 11.3505 30.64 10.6272 30.625C9.90375 30.64 9.19642 30.4104 8.61969 29.9734C7.84244 29.405 6.90028 29.1069 5.9375 29.125C4.97505 29.1072 4.03327 29.4052 3.25625 29.9734C2.84669 30.2754 2.37473 30.4818 1.875 30.5775V21.875C1.875 21.5435 2.0067 21.2255 2.24112 20.9911C2.47554 20.7567 2.79348 20.625 3.125 20.625H36.875C37.2065 20.625 37.5245 20.7567 37.7589 20.9911C37.9933 21.2255 38.125 21.5435 38.125 21.875V30.5775Z" fill="black"/>
<path d="M11.7581 9.09156C11.4875 9.34719 11.2253 9.61938 10.9794 9.90125C10.9249 9.96298 10.8831 10.0349 10.8565 10.1128C10.8298 10.1907 10.8188 10.2731 10.8242 10.3553C10.8295 10.4375 10.851 10.5178 10.8874 10.5916C10.9239 10.6655 10.9746 10.7314 11.0366 10.7856C11.0986 10.8398 11.1707 10.8812 11.2488 10.9074C11.3268 10.9336 11.4093 10.9442 11.4915 10.9384C11.5736 10.9327 11.6538 10.9108 11.7275 10.8739C11.8011 10.8371 11.8668 10.786 11.9206 10.7238C12.1394 10.4738 12.3744 10.2291 12.6166 10.0009C12.7372 9.8871 12.8076 9.73002 12.8124 9.56426C12.8171 9.39849 12.7559 9.23762 12.642 9.11703C12.5282 8.99644 12.3711 8.92601 12.2054 8.92123C12.0396 8.91646 11.8787 8.97773 11.7581 9.09156Z" fill="black"/>
<path d="M10.635 11.3359C10.4931 11.2504 10.323 11.2247 10.1621 11.2646C10.0012 11.3044 9.86278 11.4065 9.77718 11.5484C9.09928 12.6714 8.61899 13.9022 8.35718 15.1875C8.34077 15.2679 8.34036 15.3508 8.35597 15.4314C8.37159 15.512 8.40292 15.5887 8.44819 15.6572C8.53962 15.7955 8.68224 15.8918 8.84468 15.925C9.00713 15.9582 9.17609 15.9254 9.3144 15.834C9.45271 15.7426 9.54903 15.5999 9.58218 15.4375C9.81538 14.292 10.2435 13.195 10.8478 12.1944C10.8903 12.1241 10.9184 12.046 10.9307 11.9648C10.943 11.8836 10.9391 11.8008 10.9193 11.721C10.8996 11.6413 10.8643 11.5663 10.8155 11.5002C10.7667 11.4341 10.7054 11.3783 10.635 11.3359Z" fill="black"/>
</g>
<defs>
<clipPath id="clip0_1436_2650">
<rect width="40" height="40" fill="white"/>
</clipPath>
</defs>
</svg>
