<svg width="40" height="40" xmlns="http://www.w3.org/2000/svg">

 <g>
  <title>background</title>
  <rect fill="none" id="canvas_background" height="42" width="42" y="-1" x="-1"/>
 </g>
 <g>
  <title>Layer 1</title>
  <path fill="#787878" stroke="null" id="svg_2" d="m20.280756,14.880371c-2.749403,0 -4.986199,2.22551 -4.986199,4.961103c0,2.735519 2.236795,4.961029 4.986199,4.961029c2.749403,0 4.986124,-2.225584 4.986124,-4.961029c0,-2.735593 -2.236721,-4.961103 -4.986124,-4.961103zm1.699091,7.425914c-0.328919,0.367825 -0.783539,0.595766 -1.369059,0.687017l0,0.830093l-0.650561,0l0,-0.820886c-0.513425,-0.06274 -0.930773,-0.251181 -1.253083,-0.56874c-0.322236,-0.317484 -0.526864,-0.767947 -0.617001,-1.346933l1.163912,-0.13721c0.047296,0.237594 0.137433,0.441182 0.269223,0.612991c0.13127,0.171736 0.276277,0.294913 0.436875,0.372651l0,-1.862734c-0.582327,-0.165796 -1.008362,-0.416903 -1.278476,-0.752875c-0.27249,-0.337457 -0.408141,-0.744782 -0.408141,-1.225389c0,-0.486547 0.154139,-0.895431 0.461229,-1.225389c0.307164,-0.331666 0.715231,-0.521221 1.225389,-0.571413l0,-0.437989l0.650561,0l0,0.437989c0.476969,0.056206 0.855708,0.217175 1.137925,0.483354c0.281029,0.266179 0.461748,0.621678 0.539412,1.067166l-1.136366,0.145897c-0.070536,-0.349485 -0.250587,-0.586559 -0.540971,-0.71137l0,1.737997c0.719537,0.191783 1.210168,0.44237 1.469368,0.748049c0.261576,0.307238 0.391287,0.700901 0.391287,1.181137c0,0.536813 -0.163346,0.988315 -0.491522,1.356585z"/>
  <path fill="#787878" stroke="null" id="svg_3" d="m20.625859,19.79412l0,2.158051c0.277922,-0.060178 0.504945,-0.191927 0.678864,-0.395062c0.175849,-0.203871 0.262487,-0.44247 0.262487,-0.719013c0,-0.244663 -0.073959,-0.457262 -0.220867,-0.634213c-0.145714,-0.178421 -0.385324,-0.314121 -0.720483,-0.409762z"/>
  <path fill="#787878" stroke="null" id="svg_4" d="m19.264614,17.468126c-0.151468,0.212276 -0.227037,0.44383 -0.227037,0.699508c0,0.231554 0.068298,0.448677 0.206768,0.649055c0.137698,0.198726 0.351076,0.361431 0.636938,0.483156l0,-2.287667c-0.260856,0.092974 -0.46465,0.243561 -0.616669,0.455947z"/>
  <path fill="#787878" stroke="null" id="svg_5" d="m39.463353,20.300299c0.017718,-0.01807 0.033937,-0.037463 0.048041,-0.058531c0.000529,-0.000793 0.001234,-0.001675 0.001763,-0.002468c0.005642,-0.008462 0.009167,-0.017806 0.014104,-0.026621c0.000353,-0.000705 0.000705,-0.001322 0.00097,-0.001939c0.007316,-0.013222 0.015338,-0.026004 0.021244,-0.040019c0.000353,-0.001058 0.00097,-0.002116 0.00141,-0.003173c0.003967,-0.009784 0.00573,-0.02001 0.008991,-0.029882c0.001058,-0.003173 0.001851,-0.006435 0.002821,-0.009608c0.00335,-0.011459 0.007933,-0.022478 0.010225,-0.03429c0.000264,-0.00097 0.000441,-0.001763 0.000617,-0.002733c0.001939,-0.010225 0.001851,-0.020627 0.002997,-0.031028c0.001851,-0.015779 0.004584,-0.031381 0.004584,-0.047248c0,-0.000088 0.000088,-0.000176 0.000088,-0.000353c0,-0.000264 -0.000088,-0.000441 -0.000088,-0.000529c0,-0.009873 -0.002116,-0.019569 -0.002821,-0.029353c-0.001146,-0.016484 -0.001587,-0.032968 -0.00476,-0.049187c-0.000176,-0.000705 -0.000441,-0.00141 -0.000529,-0.002116c-0.002292,-0.011724 -0.006787,-0.022566 -0.010137,-0.033937c-0.003879,-0.013487 -0.006787,-0.027326 -0.012164,-0.04046c-0.000353,-0.000881 -0.000881,-0.001763 -0.001234,-0.002644c-0.005465,-0.012958 -0.01287,-0.024858 -0.019657,-0.037199c-0.005642,-0.010666 -0.010225,-0.021773 -0.016925,-0.03191c-0.000441,-0.000617 -0.00097,-0.001234 -0.00141,-0.001851c-0.012517,-0.018687 -0.02715,-0.0357 -0.042399,-0.052096c-0.003085,-0.003261 -0.005201,-0.006876 -0.008286,-0.010049c0,-0.000088 -0.000176,-0.000088 -0.000353,-0.000264c-0.000264,-0.000264 -0.000529,-0.000529 -0.000881,-0.000881c0,0 0,0 -0.000176,-0.000088l-2.374545,-2.364143c-0.161664,-0.160959 -0.423201,-0.16043 -0.584072,0.001322c-0.160871,0.161664 -0.160342,0.423113 0.001322,0.583984l1.665743,1.658426l-4.960999,0c-0.10331,-3.268812 -1.426596,-6.236331 -3.531053,-8.466313l3.537753,-3.521533l0.000529,2.157964c0.000088,0.22804 0.184936,0.412976 0.413064,0.412976l0,0c0.228217,-0.000088 0.413064,-0.185024 0.413064,-0.413152l-0.000705,-3.150428c0,-0.000088 0,-0.000176 0,-0.000176l0,-0.00097c0,-0.003879 -0.001058,-0.007404 -0.001146,-0.011283c-0.000617,-0.023183 -0.002468,-0.046278 -0.006964,-0.069197c-0.00238,-0.0119 -0.006787,-0.023007 -0.010137,-0.034642c-0.004143,-0.01428 -0.007493,-0.028648 -0.013222,-0.042488c-0.005465,-0.013222 -0.01287,-0.025387 -0.019833,-0.037816c-0.005906,-0.011107 -0.010842,-0.022566 -0.017982,-0.033232c-0.012693,-0.018864 -0.027326,-0.036141 -0.042752,-0.052625c-0.002997,-0.003261 -0.005201,-0.006876 -0.008198,-0.010049c-0.000088,-0.000088 -0.000264,-0.000176 -0.000441,-0.000264c-0.019128,-0.019216 -0.040284,-0.036493 -0.06285,-0.051655c-0.009432,-0.006259 -0.019833,-0.010578 -0.029618,-0.016043c-0.013663,-0.007581 -0.026885,-0.015867 -0.041518,-0.021949c-0.013134,-0.005465 -0.026973,-0.00855 -0.04046,-0.012605c-0.012341,-0.003614 -0.023976,-0.008374 -0.03667,-0.011019c-0.026709,-0.005289 -0.053682,-0.008022 -0.080656,-0.008022c-0.000264,0 -0.000441,-0.000088 -0.000617,-0.000088l0,0l-3.166295,0c-0.228217,0 -0.413064,0.184936 -0.413064,0.413064s0.184847,0.413064 0.413064,0.413064l2.165985,0l-6.414832,6.385214l2.878931,-2.865708c-2.241088,-2.093704 -5.223152,-3.410202 -8.508007,-3.512366l0,-4.941518l1.670414,1.662393c0.080568,0.080215 0.185905,0.120323 0.291331,0.120323c0.105866,0 0.211997,-0.040548 0.292653,-0.121645c0.160959,-0.161664 0.160254,-0.423201 -0.00141,-0.584072l-2.373046,-2.36194c-0.000176,0 -0.000176,-0.000088 -0.000176,-0.000176c-0.000088,-0.000088 -0.000088,-0.000088 -0.000176,-0.000176l-0.000441,-0.000353c-0.000088,-0.000088 -0.000088,-0.000176 -0.000264,-0.000264l-0.000529,-0.000529c-0.002556,-0.002556 -0.005642,-0.004143 -0.008286,-0.006699c-0.01666,-0.015867 -0.034378,-0.03094 -0.053506,-0.04381c-0.000881,-0.000529 -0.001587,-0.001146 -0.00238,-0.001675c-0.009961,-0.006523 -0.020715,-0.01093 -0.031116,-0.016484c-0.012517,-0.006787 -0.024417,-0.014368 -0.037639,-0.019833c-0.001058,-0.000441 -0.002027,-0.001058 -0.003085,-0.001499c-0.013134,-0.005289 -0.026885,-0.00811 -0.04046,-0.012076c-0.011195,-0.00335 -0.021861,-0.007757 -0.033496,-0.009961c-0.000793,-0.000176 -0.001587,-0.000353 -0.00238,-0.000529c-0.014897,-0.002909 -0.030147,-0.003261 -0.045308,-0.004407c-0.011019,-0.00097 -0.022125,-0.003173 -0.033232,-0.003261c-0.000088,0 -0.000264,0 -0.000441,0c-0.000088,0 -0.000176,0 -0.000264,0c-0.01525,0 -0.030323,0.002644 -0.045485,0.004319c-0.011019,0.001234 -0.022125,0.001146 -0.033056,0.003261c-0.00097,0.000176 -0.001939,0.000441 -0.002909,0.000617c-0.010225,0.002116 -0.019657,0.005994 -0.029618,0.008903c-0.003879,0.001058 -0.007757,0.002292 -0.011547,0.003526c-0.010842,0.00335 -0.021949,0.005377 -0.032527,0.009696c-0.001146,0.000441 -0.002204,0.001058 -0.00335,0.001499c-0.012782,0.005377 -0.024241,0.012782 -0.036317,0.019216c-0.000088,0.000088 -0.000176,0.000088 -0.000264,0.000176c-0.010578,0.00573 -0.021685,0.010137 -0.03191,0.016925c-0.000793,0.000529 -0.001587,0.001234 -0.002468,0.001763c-0.018159,0.012164 -0.034731,0.026621 -0.050685,0.04143c-0.003526,0.003261 -0.007581,0.005553 -0.011019,0.008991l-2.374545,2.363438c-0.161664,0.160959 -0.162193,0.422408 -0.00141,0.584072c0.080744,0.081097 0.186787,0.121645 0.292741,0.121645c0.105337,0 0.210763,-0.040108 0.291331,-0.120323l1.67015,-1.662305l0,4.941165c-3.28459,0.102252 -6.266655,1.418574 -8.507654,3.51219l-3.53599,-3.51933l2.165897,0c0.228128,0 0.412976,-0.184936 0.412976,-0.413064s-0.184847,-0.413064 -0.412976,-0.413064l-3.166295,0l-0.000088,0c-0.000176,0 -0.000353,0.000088 -0.000617,0.000088c-0.026973,0 -0.054035,0.002821 -0.080656,0.008022c-0.012429,0.002468 -0.023888,0.007316 -0.035965,0.010842c-0.013751,0.004055 -0.027679,0.007228 -0.041165,0.012782c-0.01428,0.005994 -0.02715,0.014104 -0.04046,0.021508c-0.010225,0.005642 -0.020891,0.010049 -0.030676,0.016572c-0.022566,0.015073 -0.043634,0.032351 -0.06285,0.051567c-0.000088,0.000088 -0.000264,0.000088 -0.000441,0.000264c-0.00335,0.003526 -0.005642,0.007493 -0.008991,0.011019c-0.015073,0.016219 -0.029618,0.033056 -0.041959,0.051567c-0.007052,0.01049 -0.011988,0.021861 -0.017894,0.032968c-0.006876,0.012693 -0.014456,0.024858 -0.02001,0.038256c-0.005553,0.013487 -0.008815,0.02759 -0.01287,0.04143c-0.002292,0.007669 -0.005377,0.015073 -0.00714,0.022919c-0.000793,0.003526 -0.00238,0.006523 -0.003173,0.009961c-0.000176,0.00097 -0.000088,0.002027 -0.000264,0.002909c-0.004319,0.022037 -0.006082,0.044339 -0.006787,0.066728c-0.000176,0.004672 -0.00141,0.008991 -0.00141,0.013663l-0.000617,3.151486c0,0.228128 0.184847,0.413064 0.412976,0.413152c0.000088,0 0.000088,0 0.000088,0c0.22804,0 0.412976,-0.184936 0.412976,-0.412976l0.000529,-2.157964l6.420121,6.390062l-2.88228,-2.868705c-2.104546,2.229893 -3.42792,5.197589 -3.531142,8.466489l-4.960999,0l1.665743,-1.658426c0.161664,-0.160959 0.162193,-0.422408 0.001322,-0.583984c-0.160959,-0.161664 -0.422408,-0.162281 -0.584072,-0.001322l-2.374545,2.364143c0,0.000088 -0.000088,0.000176 -0.000176,0.000264c-0.000264,0.000264 -0.000441,0.000441 -0.000705,0.000705c-0.000088,0.000088 -0.000264,0.000176 -0.000353,0.000264c-0.003438,0.003526 -0.005642,0.007493 -0.008991,0.011019c-0.014897,0.016043 -0.029353,0.032615 -0.041518,0.05095c-0.000617,0.000705 -0.001146,0.00141 -0.001675,0.002116c-0.006611,0.010049 -0.011019,0.020979 -0.01666,0.031469c-0.006699,0.012341 -0.01428,0.024153 -0.019657,0.037375c-0.000441,0.001058 -0.001058,0.002027 -0.001499,0.003085c-0.005024,0.012253 -0.007493,0.025122 -0.011195,0.037639c-0.000176,0.000705 -0.000441,0.001499 -0.000705,0.002204c-0.00335,0.011459 -0.007845,0.022302 -0.010137,0.034202c-0.000176,0.000793 -0.000441,0.001675 -0.000617,0.002468c-0.002292,0.012253 -0.00238,0.024682 -0.003614,0.037022c-0.001499,0.013839 -0.003967,0.027502 -0.003967,0.041342c0,0.000176 -0.000088,0.000264 -0.000088,0.000441s0.000088,0.000264 0.000088,0.000441c0,0.011724 0.002292,0.023359 0.00335,0.034995c0.001322,0.014545 0.001499,0.029177 0.004231,0.043545c0.000176,0.000793 0.000441,0.001499 0.000617,0.002292c0.002292,0.011724 0.006876,0.022654 0.010137,0.034025c0.003879,0.013487 0.006699,0.02715 0.0119,0.040108c0.000441,0.001058 0.00097,0.001939 0.001499,0.002909c0.005377,0.013134 0.012958,0.025034 0.019745,0.037463c0.005642,0.010402 0.009961,0.02142 0.016572,0.031381c0.000441,0.000705 0.001146,0.001587 0.001675,0.002204c0.012958,0.019393 0.028031,0.036934 0.043986,0.053771c0.00238,0.002468 0.004055,0.005553 0.006611,0.00811c0.000088,0.000088 0.000176,0.000176 0.000264,0.000264c0.000264,0.000176 0.000529,0.000441 0.000705,0.000705c0.000176,0.000088 0.000264,0.000264 0.000264,0.000441l2.374545,2.363438c0.080656,0.080127 0.185993,0.120235 0.291419,0.120235c0.106043,0 0.212085,-0.040548 0.292741,-0.121645c0.160959,-0.161664 0.160254,-0.423201 -0.00141,-0.58416l-1.665478,-1.657633l4.960734,0c0.103222,3.268812 1.426684,6.23642 3.531406,8.466225l2.882016,-2.868441l-6.420121,6.390062l-0.000529,-2.157876c0,-0.228128 -0.184936,-0.412976 -0.412976,-0.412976c0,0 0,0 -0.000088,0c-0.22804,0 -0.412976,0.184936 -0.412976,0.413064l0.000617,3.151486c0,0.004672 0.001234,0.008991 0.00141,0.013575c0.000705,0.02239 0.00238,0.044779 0.006787,0.066728c0.000176,0.00097 0.000088,0.001939 0.000264,0.002821c0.000705,0.003438 0.002292,0.006523 0.003173,0.009961c0.001763,0.007845 0.004848,0.01525 0.00714,0.022919c0.003967,0.013927 0.007316,0.027943 0.01287,0.04143s0.013134,0.025563 0.02001,0.038256c0.005906,0.011107 0.010842,0.02239 0.017894,0.032968c0.012341,0.018511 0.026885,0.035348 0.041959,0.051567c0.00335,0.003614 0.005553,0.007669 0.008991,0.011107c0.000176,0.000176 0.000353,0.000264 0.000441,0.000353c0.019216,0.019216 0.040284,0.036405 0.062938,0.051567c0.009961,0.006699 0.020803,0.011283 0.031293,0.016925c0.013134,0.007228 0.025828,0.01525 0.039931,0.021067c0.013487,0.005553 0.02759,0.008815 0.041518,0.01287c0.0119,0.003526 0.023359,0.00811 0.0357,0.010578c0.026709,0.005377 0.053859,0.008198 0.081008,0.008198l0.000088,0l3.166295,0c0.228128,0 0.412976,-0.184936 0.412976,-0.413064s-0.184847,-0.413064 -0.412976,-0.413064l-2.165897,0l6.415273,-6.385214l-2.879107,2.865708c2.241,2.093263 5.222976,3.409497 8.507478,3.511661l0,4.94187l-1.67015,-1.662305c-0.161664,-0.160959 -0.423201,-0.160342 -0.584072,0.00141c-0.160871,0.161664 -0.160254,0.423201 0.00141,0.584072l2.374545,2.363438c0.003526,0.003526 0.007669,0.005818 0.011195,0.009167c0.016043,0.014897 0.032527,0.029177 0.050774,0.041518c0.000793,0.000529 0.001499,0.001146 0.002204,0.001675c0.010049,0.006611 0.020979,0.01093 0.031381,0.016572c0.012517,0.006699 0.024329,0.01428 0.037551,0.019745c0.00097,0.000441 0.001851,0.001058 0.002821,0.001499c0.012958,0.005289 0.026621,0.008022 0.040019,0.0119c0.011547,0.00335 0.022478,0.007845 0.034378,0.010225c0.000705,0.000176 0.001499,0.000441 0.002116,0.000617c0.026004,0.005024 0.052537,0.007581 0.078893,0.007581c0.026445,0 0.052889,-0.002556 0.078893,-0.007581c0.000705,-0.000176 0.00141,-0.000441 0.002116,-0.000617c0.012076,-0.00238 0.023095,-0.006964 0.034731,-0.010313c0.01331,-0.003879 0.026797,-0.006611 0.039667,-0.011812c0.00097,-0.000441 0.001851,-0.00097 0.002733,-0.00141c0.013399,-0.005553 0.025651,-0.013222 0.038256,-0.020186c0.010225,-0.005553 0.020979,-0.009696 0.030852,-0.016307c0.000881,-0.000529 0.001587,-0.001146 0.002204,-0.001675c0.019216,-0.01287 0.03667,-0.027767 0.05333,-0.043634c0.002733,-0.002468 0.005906,-0.004319 0.008639,-0.006964l0.000529,-0.000529c0.000176,-0.000088 0.000176,-0.000176 0.000264,-0.000264l0.000441,-0.000441c0.000088,-0.000088 0.000088,-0.000088 0.000176,-0.000176c0,0 0,0 0.000176,-0.000088l2.373134,-2.36194c0.161664,-0.160871 0.16237,-0.422408 0.00141,-0.584072s-0.422496,-0.16237 -0.583984,-0.00141l-1.670414,1.662393l0,-4.941694c3.284678,-0.102164 6.266831,-1.418574 8.508007,-3.512101l-2.878931,-2.865885l6.414832,6.385743l-2.165985,0c-0.228217,0 -0.413064,0.184936 -0.413064,0.413064s0.184847,0.413064 0.413064,0.413064l3.166295,0l0,0c0.02715,0 0.054211,-0.002821 0.081008,-0.008198c0.012693,-0.002468 0.024329,-0.007228 0.036582,-0.010842c0.013575,-0.004055 0.027414,-0.00714 0.040548,-0.012605c0.014545,-0.006082 0.027855,-0.014368 0.041606,-0.021949c0.009873,-0.005553 0.020186,-0.009784 0.029618,-0.016219c0.022742,-0.015162 0.04381,-0.032351 0.063026,-0.051567c0.000176,-0.000176 0.000353,-0.000264 0.000441,-0.000353c0.002997,-0.003173 0.005201,-0.006787 0.008198,-0.009961c0.015514,-0.016572 0.030147,-0.033761 0.042752,-0.052713c0.00714,-0.010666 0.012076,-0.022125 0.017982,-0.033232c0.006876,-0.012605 0.014368,-0.024593 0.019833,-0.037904c0.00573,-0.013839 0.009167,-0.028208 0.013222,-0.042488c0.00335,-0.011636 0.007757,-0.022654 0.010137,-0.034642c0.004496,-0.02283 0.006347,-0.045925 0.006964,-0.069108c0.000088,-0.003879 0.001146,-0.007404 0.001146,-0.011283l0,-0.00097c0,0 0,-0.000088 0,-0.000176l0.000705,-3.15034c0,-0.228128 -0.184847,-0.413064 -0.413064,-0.413064l0,0c-0.228128,0 -0.412976,0.184847 -0.413064,0.412976l-0.000529,2.157788l-6.419504,-6.390591l2.881751,2.868705c2.104458,-2.229805 3.427743,-5.197149 3.531053,-8.465784l4.960646,0l-1.665478,1.657633c-0.161664,0.160959 -0.16237,0.422496 -0.00141,0.58416c0.080744,0.081097 0.186787,0.121645 0.292653,0.121645c0.105337,0 0.210851,-0.040108 0.291507,-0.120235l2.374545,-2.363438c0.000176,-0.000088 0.000176,-0.000264 0.000353,-0.000441c0.000353,-0.000264 0.000617,-0.000617 0.00097,-0.000881c0,0 0,0 0.000088,-0.000088c0.000881,-0.00097 0.001587,-0.002204 0.002468,-0.003261zm-19.294124,6.42779c-3.719603,0 -6.745742,-3.012828 -6.745742,-6.715859c0,-3.703207 3.026139,-6.715948 6.745742,-6.715948c3.719515,0 6.745654,3.01274 6.745654,6.715948c0,3.703119 -3.026139,6.715859 -6.745654,6.715859z"/>
 </g>
</svg>