<svg width="20" height="20" viewBox="0 0 20 20" fill="none" xmlns="http://www.w3.org/2000/svg">
<path d="M18.2422 1.91406H16.8359V0.585938C16.8359 0.262344 16.5736 0 16.25 0C15.9264 0 15.6641 0.262344 15.6641 0.585938V1.91406H13.7109V0.585938C13.7109 0.262344 13.4486 0 13.125 0C12.8014 0 12.5391 0.262344 12.5391 0.585938V1.91406H10.5859V0.585938C10.5859 0.262344 10.3236 0 10 0C9.67641 0 9.41406 0.262344 9.41406 0.585938V1.91406H7.46094V0.585938C7.46094 0.262344 7.19859 0 6.875 0C6.55141 0 6.28906 0.262344 6.28906 0.585938V1.91406H4.33594V0.585938C4.33594 0.262344 4.07359 0 3.75 0C3.42641 0 3.16406 0.262344 3.16406 0.585938V1.91406H1.75781C0.788555 1.91406 0 2.70262 0 3.67188V18.2422C0 19.2114 0.788555 20 1.75781 20H18.2422C19.2114 20 20 19.2114 20 18.2422V3.67188C20 2.70262 19.2114 1.91406 18.2422 1.91406ZM1.75781 3.08594H18.2422C18.5653 3.08594 18.8281 3.34879 18.8281 3.67188V4.41406H1.17188V3.67188C1.17188 3.34879 1.43473 3.08594 1.75781 3.08594ZM18.2422 18.8281H1.75781C1.43473 18.8281 1.17188 18.5653 1.17188 18.2422V5.58594H18.8281V18.2422C18.8281 18.5653 18.5653 18.8281 18.2422 18.8281Z" fill="white"/>
<path d="M10 6.60156C6.91988 6.60156 4.41406 9.10738 4.41406 12.1875C4.41406 15.2676 6.91988 17.7734 10 17.7734C13.0801 17.7734 15.5859 15.2676 15.5859 12.1875C15.5859 9.10738 13.0801 6.60156 10 6.60156ZM10 16.6016C7.56605 16.6016 5.58594 14.6214 5.58594 12.1875C5.58594 9.75355 7.56605 7.77344 10 7.77344C12.4339 7.77344 14.4141 9.75355 14.4141 12.1875C14.4141 14.6214 12.4339 16.6016 10 16.6016Z" fill="white"/>
<path d="M10.6491 11.6141C10.2756 11.4821 9.86399 11.3237 9.64302 11.1504C9.62848 11.1389 9.60137 11.0707 9.6204 10.9696C9.62954 10.9211 9.67145 10.7593 9.82747 10.7123C10.2183 10.5946 10.3988 10.7452 10.4315 10.7771C10.6584 11.0074 11.029 11.0104 11.2597 10.7836C11.4904 10.5567 11.4935 10.1857 11.2666 9.955C11.1069 9.79258 10.8743 9.64523 10.5856 9.56371V9.53125C10.5856 9.20766 10.3233 8.94531 9.9997 8.94531C9.6761 8.94531 9.41376 9.20766 9.41376 9.53125V9.61609C8.35797 9.99973 8.11504 11.4413 8.91977 12.0725C9.27317 12.3497 9.77204 12.547 10.2585 12.719C10.5489 12.8216 10.5785 13.0299 10.5522 13.1864C10.5229 13.3609 10.3726 13.6568 9.99567 13.6593C9.6052 13.662 9.51266 13.6474 9.22704 13.4605C8.95622 13.2834 8.59309 13.3593 8.41594 13.6301C8.23879 13.9009 8.31473 14.2641 8.58551 14.4412C8.89711 14.645 9.14379 14.7461 9.41372 14.7934V14.8496C9.41372 15.1732 9.67606 15.4356 9.99966 15.4356C10.3233 15.4356 10.5856 15.1732 10.5856 14.8496V14.7272C12.0053 14.2139 12.1935 12.16 10.6491 11.6141Z" fill="white"/>
</svg>
