<svg width="40" height="40" xmlns="http://www.w3.org/2000/svg">

 <g>
  <title>background</title>
  <rect fill="none" id="canvas_background" height="42" width="42" y="-1" x="-1"/>
 </g>
 <g>
  <title>Layer 1</title>
  <path fill="#787878" stroke="null" id="svg_2" d="m27.768334,32.541753c-0.653744,0 -1.183793,0.561459 -1.183793,1.253943l0,3.134857l-23.675854,0l0,-33.856456l23.675854,0l0,0.626971c0,0.692484 0.530049,1.253943 1.183793,1.253943s1.183793,-0.561459 1.183793,-1.253943l0,-1.880914c0,-0.692484 -0.530049,-1.253943 -1.183793,-1.253943l-26.04344,0c-0.653744,0 -1.183793,0.561459 -1.183793,1.253943l0,36.364341c0,0.692484 0.530049,1.253943 1.183793,1.253943l26.04344,0c0.653744,0 1.183793,-0.561459 1.183793,-1.253943l0,-4.3888c0,-0.692484 -0.530049,-1.253943 -1.183793,-1.253943z"/>
  <path fill="#787878" stroke="null" id="svg_3" d="m26.582252,6.06851c-7.039777,0 -12.767146,5.727369 -12.767146,12.767146s5.727369,12.767146 12.767146,12.767146s12.767146,-5.727369 12.767146,-12.767146s-5.727369,-12.767146 -12.767146,-12.767146zm0,22.846472c-5.558063,0 -10.079326,-4.521586 -10.079326,-10.079326s4.521263,-10.079326 10.079326,-10.079326s10.079326,4.521586 10.079326,10.079326s-4.521263,10.079326 -10.079326,10.079326z"/>
  <path fill="#787878" stroke="null" id="svg_4" d="m28.37218,18.642709l2.415556,-3.431757c0.49031,-0.696871 0.291683,-1.638494 -0.444163,-2.103194c-0.736638,-0.466186 -1.730543,-0.276602 -2.220845,0.42064l-3.203018,4.550004c-0.449648,0.638358 -0.32453,1.493706 0.290113,1.992841l5.605281,4.550004c0.301852,0.245131 0.672514,0.3651 1.041605,0.3651c0.451209,0 0.900072,-0.179589 1.21677,-0.529499c0.575542,-0.636144 0.498125,-1.593684 -0.173596,-2.138737l-4.527706,-3.675402z"/>
  <path fill="#787878" id="svg_5" d="m6.979468,10.21922l7,0c1.10449,0 2,-0.89551 2,-2s-0.89551,-2 -2,-2l-7,0c-1.10449,0 -2,0.89551 -2,2s0.89551,2 2,2z"/>
  <path fill="#787878" id="svg_6" d="m6.979468,18.21922l3,0c1.10449,0 2,-0.89551 2,-2s-0.89551,-2 -2,-2l-3,0c-1.10449,0 -2,0.89551 -2,2s0.89551,2 2,2z"/>
  <path fill="#787878" id="svg_7" d="m6.979468,26.21922l5,0c1.10449,0 2,-0.89551 2,-2s-0.89551,-2 -2,-2l-5,0c-1.10449,0 -2,0.89551 -2,2s0.89551,2 2,2z"/>
  <path fill="#787878" id="svg_8" d="m6.842482,34.21922l12,0c1.10449,0 2,-0.89551 2,-2s-0.89551,-2 -2,-2l-12,0c-1.10449,0 -2,0.89551 -2,2s0.89551,2 2,2z"/>
 </g>
</svg>