<svg width="40" height="40" viewBox="0 0 40 40" fill="none" xmlns="http://www.w3.org/2000/svg">
<path d="M24.6875 25.8594H15.3125C14.6653 25.8594 14.1406 26.3841 14.1406 27.0312C14.1406 27.6784 14.6653 28.2031 15.3125 28.2031H24.6875C25.3347 28.2031 25.8594 27.6784 25.8594 27.0312C25.8594 26.3841 25.3347 25.8594 24.6875 25.8594Z" fill="#787878"/>
<path d="M25.0391 15.3477L22.2833 14.9473L21.0508 12.4501C20.8534 12.0501 20.446 11.7969 20 11.7969C19.554 11.7969 19.1465 12.0501 18.9491 12.4502L17.7167 14.9473L14.9608 15.3478C14.5194 15.412 14.1527 15.7212 14.0149 16.1454C13.877 16.5696 13.992 17.0353 14.3114 17.3466L16.3055 19.2905L15.8347 22.0352C15.7594 22.4748 15.9401 22.9191 16.3009 23.1813C16.6619 23.4435 17.1402 23.4781 17.5351 23.2705L20 21.9746L22.4649 23.2705C22.8612 23.4789 23.3397 23.4423 23.699 23.1812C24.0599 22.9191 24.2407 22.4748 24.1652 22.0351L23.6944 19.2904L25.6886 17.3466C26.0079 17.0352 26.123 16.5695 25.9851 16.1453C25.8472 15.7211 25.4805 15.4119 25.0391 15.3477ZM21.6173 18.0421C21.3412 18.3113 21.2151 18.6992 21.2803 19.0794L21.4538 20.0909L20.5454 19.6134C20.3747 19.5236 20.1873 19.4787 20.0001 19.4787C19.8128 19.4787 19.6254 19.5236 19.4547 19.6134L18.5463 20.0909L18.7198 19.0794C18.785 18.6992 18.659 18.3113 18.3828 18.0421L17.6478 17.3257L18.6635 17.1781C19.0452 17.1227 19.3751 16.883 19.5458 16.537L20 15.6166L20.4542 16.537C20.6249 16.8829 20.9549 17.1227 21.3365 17.1781L22.3522 17.3257L21.6173 18.0421Z" fill="#787878"/>
<path d="M39.4935 16.8193L23.1807 0.506484C22.9927 0.318281 22.7445 0.203281 22.4979 0.172344C21.5605 0.0547656 20.7667 0 20 0C8.98758 0 0 8.9882 0 20C0 31.0124 8.9882 40 20 40C31.0124 40 40 31.0118 40 20C40 19.2333 39.9452 18.4395 39.8277 17.5021C39.7967 17.2555 39.6821 17.0077 39.4935 16.8193ZM32.9688 20C32.9688 27.151 27.151 32.9688 20 32.9688C12.849 32.9688 7.03125 27.151 7.03125 20C7.03125 12.849 12.849 7.03125 20 7.03125C20.7576 7.03125 21.5128 7.09805 22.2534 7.22836C24.0336 12.072 27.9259 15.9655 32.7716 17.7465C32.902 18.4872 32.9688 19.2424 32.9688 20ZM23.904 4.5443L35.4557 16.096C29.7477 14.7906 25.2094 10.2523 23.904 4.5443ZM20 37.6562C10.2643 37.6562 2.34375 29.7357 2.34375 20C2.34375 10.2643 10.2643 2.34375 20 2.34375C20.3888 2.34375 20.7891 2.36039 21.2215 2.39508C21.2768 3.19711 21.3866 3.98914 21.5484 4.76695C21.0348 4.71508 20.5178 4.6875 20 4.6875C11.5782 4.6875 4.6875 11.5792 4.6875 20C4.6875 24.0692 6.28602 27.9088 9.18859 30.8114C12.0912 33.714 15.9308 35.3125 20 35.3125C28.4218 35.3125 35.3125 28.4208 35.3125 20C35.3125 19.4822 35.2849 18.9652 35.233 18.4516C36.0109 18.6134 36.8029 18.7232 37.6049 18.7785C37.6396 19.2109 37.6562 19.6112 37.6562 20C37.6562 29.7357 29.7357 37.6562 20 37.6562Z" fill="#787878"/>
</svg>
