<svg width="40" height="40" viewBox="0 0 40 40" fill="none" xmlns="http://www.w3.org/2000/svg">
<path d="M38.8281 14.1406H25.8594V1.17188C25.8594 0.524687 25.3347 0 24.6875 0H1.17188C0.524687 0 0 0.524687 0 1.17188V24.6875C0 25.3347 0.524687 25.8594 1.17188 25.8594H14.1406V38.8281C14.1406 39.4753 14.6653 40 15.3125 40H38.8281C39.4753 40 40 39.4753 40 38.8281V15.3125C40 14.6653 39.4753 14.1406 38.8281 14.1406ZM2.34375 23.5156V2.34375H23.5156V14.1406H15.3125C14.6653 14.1406 14.1406 14.6653 14.1406 15.3125V23.5156H2.34375ZM37.6562 37.6562H16.4844V16.4844H37.6562V37.6562Z" fill="#787878"/>
</svg>
