<svg width="40" height="40" viewBox="0 0 40 40" fill="none" xmlns="http://www.w3.org/2000/svg">
<g clip-path="url(#clip0)">
<path d="M18.7497 12.4998H14.9996V6.24969C14.9996 5.73218 14.6821 5.26967 14.2021 5.08217C13.7221 4.89717 13.1746 5.02717 12.8246 5.40967L0.32438 19.1599C-0.108127 19.6349 -0.108127 20.3624 0.32438 20.8399L12.8246 34.5901C13.0671 34.8551 13.4046 35.0001 13.7496 35.0001C13.9021 35.0001 14.0546 34.9726 14.2021 34.9176C14.6821 34.7301 14.9996 34.2676 14.9996 33.7501V27.5H18.4772C25.6123 27.5 32.5224 30.0551 37.9375 34.7001C38.305 35.0176 38.8325 35.0901 39.2725 34.8851C39.7175 34.6826 40 34.2376 40 33.7501C40 22.0324 30.4674 12.4998 18.7497 12.4998ZM18.4772 25H13.7496C13.0596 25 12.4996 25.56 12.4996 26.25V30.5176L2.93942 19.9999L12.4996 9.48224V13.7498C12.4996 14.4398 13.0596 14.9998 13.7496 14.9998H18.7497C23.7572 14.9998 28.4673 16.9499 32.0074 20.4899C34.8999 23.3825 36.7324 27.055 37.305 31.0301C31.8299 27.125 25.2473 25 18.4772 25Z" fill="#787878"/>
</g>
<defs>
<clipPath id="clip0">
<rect width="40" height="40" fill="white"/>
</clipPath>
</defs>
</svg>
