<svg width="40" height="40" viewBox="0 0 40 40" fill="none" xmlns="http://www.w3.org/2000/svg">
<path d="M6.66667 4H1.33333C0.597333 4 0 4.59733 0 5.33333V10.6667C0 11.4027 0.597333 12 1.33333 12C2.06933 12 2.66667 11.4027 2.66667 10.6667V6.66667H6.66667C7.40267 6.66667 8 6.06933 8 5.33333C8 4.59733 7.40267 4 6.66667 4Z" fill="#787878"/>
<path d="M38.6667 28C37.9307 28 37.3333 28.5973 37.3333 29.3333V33.3333H33.3333C32.5973 33.3333 32 33.9307 32 34.6667C32 35.4027 32.5973 36 33.3333 36H38.6667C39.4027 36 40 35.4027 40 34.6667V29.3333C40 28.5973 39.4027 28 38.6667 28Z" fill="#787878"/>
<path d="M38.6667 4H33.3333C32.5973 4 32 4.59733 32 5.33333C32 6.06933 32.5973 6.66667 33.3333 6.66667H37.3333V10.6667C37.3333 11.4027 37.9307 12 38.6667 12C39.4027 12 40 11.4027 40 10.6667V5.33333C40 4.59733 39.4027 4 38.6667 4Z" fill="#787878"/>
<path d="M6.66667 33.3333H2.66667V29.3333C2.66667 28.5973 2.06933 28 1.33333 28C0.597333 28 0 28.5973 0 29.3333V34.6667C0 35.4027 0.597333 36 1.33333 36H6.66667C7.40267 36 8 35.4027 8 34.6667C8 33.9307 7.40267 33.3333 6.66667 33.3333Z" fill="#787878"/>
<path d="M6.66667 9.33301C5.93067 9.33301 5.33333 9.93034 5.33333 10.6663V29.333C5.33333 30.069 5.93067 30.6663 6.66667 30.6663C7.40267 30.6663 8 30.069 8 29.333V10.6663C8 9.93034 7.40267 9.33301 6.66667 9.33301Z" fill="#787878"/>
<path d="M12 9.33301C11.264 9.33301 10.6667 9.93034 10.6667 10.6663V23.9997C10.6667 24.7357 11.264 25.333 12 25.333C12.736 25.333 13.3333 24.7357 13.3333 23.9997V10.6663C13.3333 9.93034 12.736 9.33301 12 9.33301Z" fill="#787878"/>
<path d="M17.3333 9.33301C16.5973 9.33301 16 9.93034 16 10.6663V23.9997C16 24.7357 16.5973 25.333 17.3333 25.333C18.0693 25.333 18.6667 24.7357 18.6667 23.9997V10.6663C18.6667 9.93034 18.0693 9.33301 17.3333 9.33301Z" fill="#787878"/>
<path d="M22.6667 9.33301C21.9307 9.33301 21.3333 9.93034 21.3333 10.6663V29.333C21.3333 30.069 21.9307 30.6663 22.6667 30.6663C23.4027 30.6663 24 30.069 24 29.333V10.6663C24 9.93034 23.4027 9.33301 22.6667 9.33301Z" fill="#787878"/>
<path d="M28 9.33301C27.264 9.33301 26.6667 9.93034 26.6667 10.6663V23.9997C26.6667 24.7357 27.264 25.333 28 25.333C28.736 25.333 29.3333 24.7357 29.3333 23.9997V10.6663C29.3333 9.93034 28.736 9.33301 28 9.33301Z" fill="#787878"/>
<path d="M33.3333 9.33301C32.5973 9.33301 32 9.93034 32 10.6663V29.333C32 30.069 32.5973 30.6663 33.3333 30.6663C34.0693 30.6663 34.6667 30.069 34.6667 29.333V10.6663C34.6667 9.93034 34.0693 9.33301 33.3333 9.33301Z" fill="#787878"/>
<path d="M12.0534 28H12.0267C11.2907 28 10.7067 28.5973 10.7067 29.3333C10.7067 30.0693 11.3174 30.6667 12.0534 30.6667C12.7894 30.6667 13.3867 30.0693 13.3867 29.3333C13.3867 28.5973 12.7894 28 12.0534 28Z" fill="#787878"/>
<path d="M17.3867 28H17.36C16.624 28 16.04 28.5973 16.04 29.3333C16.04 30.0693 16.6507 30.6667 17.3867 30.6667C18.1227 30.6667 18.72 30.0693 18.72 29.3333C18.72 28.5973 18.1227 28 17.3867 28Z" fill="#787878"/>
<path d="M28.0534 28H28.0267C27.2907 28 26.7067 28.5973 26.7067 29.3333C26.7067 30.0693 27.3174 30.6667 28.0534 30.6667C28.7894 30.6667 29.3867 30.0693 29.3867 29.3333C29.3867 28.5973 28.7894 28 28.0534 28Z" fill="#787878"/>
</svg>
