<svg width="40" height="40" viewBox="0 0 40 40" fill="none" xmlns="http://www.w3.org/2000/svg">
<g clip-path="url(#clip0_4028_15220)">
<path d="M30.1122 26.9529C29.8067 26.9535 29.5106 26.8471 29.2754 26.6522L23.3659 21.7233H20.9603C18.1863 21.7233 15.5259 20.6213 13.5644 18.6598C11.6029 16.6983 10.501 14.038 10.501 11.264C10.501 8.49 11.6029 5.82964 13.5644 3.86814C15.5259 1.90665 18.1863 0.804688 20.9603 0.804688H28.8047C31.3452 0.811942 33.7962 1.74359 35.7001 3.42568C37.6039 5.10777 38.8305 7.4253 39.1507 9.94553C39.471 12.4658 38.863 15.0164 37.4403 17.1212C36.0176 19.2259 33.8775 20.741 31.4196 21.3833V25.6455C31.4202 25.8956 31.3491 26.1406 31.2147 26.3514C31.0803 26.5623 30.8882 26.7302 30.6613 26.8353C30.4889 26.9138 30.3016 26.9539 30.1122 26.9529V26.9529ZM20.9603 3.41951C18.8803 3.42025 16.8857 4.24705 15.4152 5.71809C13.9447 7.18914 13.1186 9.18398 13.1186 11.264C13.1186 13.344 13.9447 15.3388 15.4152 16.8099C16.8857 18.2809 18.8803 19.1077 20.9603 19.1084H23.8366C24.1421 19.1079 24.4381 19.2142 24.6733 19.4092L28.8047 22.8476V20.3113C28.8016 19.994 28.914 19.6865 29.1208 19.4459C29.3277 19.2054 29.615 19.0483 29.9291 19.0039C31.8612 18.6872 33.6051 17.6595 34.818 16.1227C36.031 14.5858 36.6255 12.651 36.4846 10.6982C36.3437 8.74537 35.4777 6.91585 34.0566 5.56905C32.6356 4.22224 30.7623 3.45552 28.8047 3.41951H20.9603V3.41951Z" fill="#787878"/>
<path d="M26.2012 10.4473H24.2012V12.4473H26.2012V10.4473Z" fill="#787878"/>
<path d="M21.2012 10.4473H19.2012V12.4473H21.2012V10.4473Z" fill="#787878"/>
<path d="M31.2539 10.4473H29.2539V12.4473H31.2539V10.4473Z" fill="#787878"/>
<path d="M10.4916 38.7876C10.2892 38.7887 10.0889 38.7458 9.90462 38.6618C9.66201 38.5495 9.45668 38.37 9.313 38.1446C9.16932 37.9192 9.0933 37.6573 9.09396 37.3899V32.8335C6.87006 32.241 4.88317 30.9767 3.40444 29.2131C1.92571 27.4496 1.02719 25.2727 0.831514 22.9796C0.635833 20.6864 1.15252 18.3888 2.31107 16.4002C3.46961 14.4116 5.21357 12.8289 7.30492 11.8682C7.47372 11.7793 7.65895 11.7258 7.84919 11.7112C8.03943 11.6965 8.23065 11.721 8.41108 11.783C8.59151 11.8451 8.75733 11.9434 8.89831 12.072C9.03929 12.2005 9.15246 12.3566 9.23084 12.5306C9.30922 12.7045 9.35114 12.8927 9.35404 13.0835C9.35694 13.2743 9.32075 13.4636 9.24769 13.6399C9.17463 13.8161 9.06626 13.9756 8.92925 14.1084C8.79224 14.2412 8.62949 14.3445 8.45103 14.412C6.80166 15.1598 5.43869 16.4215 4.56595 18.0083C3.69321 19.5952 3.3576 21.4219 3.60931 23.2153C3.86102 25.0087 4.68651 26.6724 5.96235 27.9577C7.23819 29.243 8.89581 30.0807 10.6873 30.3456C11.0232 30.3931 11.3303 30.561 11.5514 30.8182C11.7726 31.0753 11.8927 31.4041 11.8893 31.7433V34.4548L16.306 30.7789C16.5495 30.5502 16.8668 30.4164 17.2005 30.4015H20.2754C21.3947 30.4036 22.5029 30.1793 23.5333 29.7422C24.5638 29.305 25.4951 28.664 26.2715 27.8577C26.531 27.5908 26.8859 27.4379 27.2581 27.4327C27.6303 27.4275 27.9893 27.5703 28.2562 27.8298C28.5231 28.0892 28.676 28.4441 28.6812 28.8163C28.6865 29.1885 28.5436 29.5476 28.2842 29.8145C27.2427 30.8844 25.9975 31.735 24.622 32.3159C23.2465 32.8968 21.7686 33.1964 20.2754 33.1969H17.7037L11.3862 38.4661C11.1347 38.6745 10.8182 38.7883 10.4916 38.7876H10.4916Z" fill="#787878"/>
</g>
<defs>
<clipPath id="clip0_4028_15220">
<rect width="40" height="40" fill="white"/>
</clipPath>
</defs>
</svg>
