<svg width="40" height="40" viewBox="0 0 40 40" fill="none" xmlns="http://www.w3.org/2000/svg">
<path d="M11.7648 14.1172H4.70593V21.176H11.7648V14.1172ZM9.41182 18.8231H7.05888V16.4701H9.41182V18.8231Z" fill="#787878"/>
<path d="M14.1177 14.1172H18.8236V16.4701H14.1177V14.1172Z" fill="#787878"/>
<path d="M14.1177 18.8232H21.1766V21.1762H14.1177V18.8232Z" fill="#787878"/>
<path d="M4.70593 23.5293H21.1765V25.8822H4.70593V23.5293Z" fill="#787878"/>
<path d="M11.7646 32.9404H14.1176V35.2934H11.7646V32.9404Z" fill="#787878"/>
<path d="M17.6471 32.9404H20V35.2934H17.6471V32.9404Z" fill="#787878"/>
<path d="M5.88239 32.9404H8.23533V35.2934H5.88239V32.9404Z" fill="#787878"/>
<path d="M4.70593 4.70605H7.05888V7.059H4.70593V4.70605Z" fill="#787878"/>
<path d="M9.41174 4.70605H16.4706V7.059H9.41174V4.70605Z" fill="#787878"/>
<path d="M29.4118 11.2783L27.8907 9.75724L26.2271 11.4209L29.4118 14.6058L34.9496 9.06798L33.2859 7.4043L29.4118 11.2783Z" fill="#787878"/>
<path d="M30.5882 1.17647C28.8751 1.17647 27.2675 1.63678 25.8824 2.43984V0H0V40H25.8824C25.8824 38.4658 25.8824 19.5219 25.8824 18.7366C27.2675 19.5397 28.8751 20 30.5882 20C35.7779 20 40 15.778 40 10.5882C40 5.39851 35.7779 1.17647 30.5882 1.17647ZM2.35294 2.35294H23.5294V4.36337C22.2407 5.82157 21.4755 7.5909 21.2491 9.41177H2.35294V2.35294ZM23.5294 37.6471H2.35294V30.5882H23.5294V37.6471ZM2.35294 28.2353V11.7647H21.2491C21.4808 13.6259 22.266 15.3836 23.5294 16.8131V28.2353H2.35294ZM30.5882 17.6471C26.5936 17.6471 23.3519 14.3065 23.5373 10.2584C23.7167 6.4738 26.8467 3.52941 30.5882 3.52941C34.4805 3.52941 37.6471 6.696 37.6471 10.5882C37.6471 14.4805 34.4805 17.6471 30.5882 17.6471Z" fill="#787878"/>
</svg>
