<svg width="40" height="40" viewBox="0 0 40 40" fill="none" xmlns="http://www.w3.org/2000/svg">
<g clip-path="url(#clip0)">
<path d="M39.8559 31.3942L37.5327 24.633C38.6525 22.3438 39.2443 19.7978 39.2483 17.2362C39.2552 12.782 37.5319 8.57052 34.3958 5.37755C31.2591 2.18395 27.0792 0.386209 22.6261 0.315662C18.0085 0.242693 13.6682 1.9991 10.4051 5.26208C7.25873 8.40841 5.51357 12.5563 5.45834 16.9888C2.35724 19.3237 0.526842 22.9639 0.532858 26.8521C0.535748 28.6717 0.94528 30.4803 1.7213 32.1159L0.12106 36.7728C-0.154019 37.5733 0.0469192 38.4425 0.645514 39.0411C1.06677 39.4625 1.62216 39.6868 2.19333 39.6868C2.43364 39.6868 2.67677 39.6471 2.91388 39.5656L7.57084 37.9653C9.20639 38.7414 11.0151 39.1509 12.8346 39.1538C12.8412 39.1538 12.8474 39.1538 12.854 39.1538C16.8001 39.1536 20.4681 37.276 22.7944 34.0989C25.2153 34.0352 27.6105 33.4492 29.7759 32.3899L36.5371 34.7132C36.8189 34.8099 37.1078 34.8571 37.3933 34.8571C38.0721 34.8571 38.7321 34.5906 39.2328 34.0898C39.944 33.3785 40.1828 32.3456 39.8559 31.3942ZM12.8538 36.7728C12.8487 36.7728 12.8434 36.7728 12.8383 36.7728C11.2278 36.7704 9.6285 36.3734 8.21358 35.6248C7.92264 35.471 7.58108 35.4443 7.26998 35.5512L2.49474 37.1921L4.1356 32.4169C4.24247 32.1057 4.21591 31.7642 4.06201 31.4733C3.31341 30.0583 2.91638 28.4591 2.91388 26.8485C2.90989 24.258 3.91763 21.8026 5.6799 19.964C6.25553 23.4731 7.92795 26.7067 10.5203 29.2529C13.0935 31.7803 16.328 33.3896 19.8181 33.9157C17.9752 35.732 15.4912 36.7728 12.8538 36.7728ZM37.549 32.4062C37.4813 32.4739 37.401 32.4924 37.3107 32.4613L30.0725 29.9741C29.9468 29.9309 29.816 29.9095 29.6857 29.9095C29.4936 29.9095 29.3022 29.956 29.129 30.0477C27.0624 31.141 24.727 31.7208 22.3753 31.7244C22.3676 31.7244 22.3606 31.7244 22.3528 31.7244C14.4729 31.7244 7.96405 25.3233 7.8392 17.4452C7.77631 13.4776 9.28553 9.74881 12.0887 6.9456C14.8919 4.14239 18.6214 2.63371 22.5884 2.69621C30.4741 2.82129 36.8796 9.34216 36.8674 17.2324C36.8637 19.5841 36.2839 21.9195 35.1907 23.986C35.0368 24.2769 35.0103 24.6184 35.1171 24.9296L37.6043 32.1678C37.6353 32.2584 37.6167 32.3386 37.549 32.4062Z" fill="#787878"/>
<path d="M29.4448 10.8994H15.2604C14.6029 10.8994 14.0699 11.4325 14.0699 12.0899C14.0699 12.7474 14.6029 13.2804 15.2604 13.2804H29.4448C30.1023 13.2804 30.6352 12.7473 30.6352 12.0899C30.6352 11.4325 30.1023 10.8994 29.4448 10.8994Z" fill="#787878"/>
<path d="M29.4448 15.7959H15.2604C14.6029 15.7959 14.0699 16.3289 14.0699 16.9864C14.0699 17.6438 14.6029 18.1768 15.2604 18.1768H29.4448C30.1023 18.1768 30.6352 17.6438 30.6352 16.9864C30.6352 16.3289 30.1023 15.7959 29.4448 15.7959Z" fill="#787878"/>
<path d="M23.9847 20.6924H15.2602C14.6027 20.6924 14.0698 21.2254 14.0698 21.8829C14.0698 22.5404 14.6028 23.0733 15.2602 23.0733H23.9846C24.6421 23.0733 25.1751 22.5403 25.1751 21.8829C25.1751 21.2254 24.6422 20.6924 23.9847 20.6924Z" fill="#787878"/>
</g>
<defs>
<clipPath id="clip0">
<rect width="40" height="40" fill="white"/>
</clipPath>
</defs>
</svg>
