<svg width="40" height="40" viewBox="0 0 40 40" fill="none" xmlns="http://www.w3.org/2000/svg">
<g clip-path="url(#clip0)">
<path d="M32.3889 -0.078125H25.1495C23.461 -0.078125 22.0874 1.29547 22.0874 2.98371V10.2234C22.0874 11.9116 23.461 13.2852 25.1495 13.2852H32.3889C34.0772 13.2852 35.4508 11.9116 35.4508 10.2234V2.98371C35.4511 1.29547 34.0775 -0.078125 32.3889 -0.078125ZM33.1073 10.2234C33.1073 10.6192 32.7851 10.9415 32.3889 10.9415H25.1495C24.7534 10.9415 24.4315 10.6192 24.4315 10.2234V2.98371C24.4315 2.5879 24.7534 2.26563 25.1495 2.26563H32.3889C32.7851 2.26563 33.1073 2.5879 33.1073 2.98371V10.2234Z" fill="#787878"/>
<path d="M26.781 16.211C26.2186 16.211 25.6885 16.3504 25.2231 16.5967C24.6234 15.6983 23.6008 15.1056 22.442 15.1056C21.8436 15.1056 21.2815 15.2637 20.795 15.5405C20.1862 14.7138 19.2063 14.1764 18.103 14.1764C17.7558 14.1764 17.4207 14.2295 17.1054 14.3283V13.2852H17.3837C19.0723 13.2852 20.4459 11.9116 20.4459 10.2231V2.98371C20.4459 1.29547 19.0723 -0.078125 17.3837 -0.078125H10.1444C8.45612 -0.078125 7.08252 1.29547 7.08252 2.98371V10.2234C7.08252 11.9116 8.45612 13.2852 10.1444 13.2852H10.423V20.5448C10.2417 20.3632 10.0382 20.2012 9.81476 20.0623C9.09485 19.6152 8.25073 19.4596 7.4231 19.6189C6.5329 19.6546 5.73425 20.0431 5.21545 20.6971C4.6704 21.384 4.48119 22.305 4.69573 23.2242L6.23596 29.8151C7.11426 35.3141 11.4038 39.4282 11.5866 39.6012C11.8042 39.8072 12.0926 39.922 12.3923 39.922H25.5729C25.9674 39.922 26.3352 39.7233 26.5522 39.3937C28.8865 35.8427 30.1209 31.7197 30.1212 27.4705L30.1224 19.5523C30.1224 19.5523 30.1224 19.5523 30.1224 19.552C30.1224 17.7097 28.6234 16.211 26.781 16.211ZM12.8845 37.5782C11.94 36.5736 9.1568 33.3295 8.54431 29.4092C8.53974 29.3802 8.53424 29.3516 8.52753 29.3235L6.97784 22.6911C6.92627 22.4695 6.95221 22.2785 7.05139 22.1537C7.15027 22.0289 7.31995 21.9635 7.54639 21.9419C7.66022 21.9312 7.70752 21.9178 7.81311 21.9114C8.07892 21.8952 8.35144 21.9126 8.57788 22.0533C8.80432 22.194 8.9621 22.4143 9.02283 22.6737L10.3595 28.3945C10.4712 28.8721 10.8685 29.2298 11.355 29.2908L11.449 29.3024C11.7825 29.3442 12.1179 29.2408 12.37 29.0183C12.6221 28.7958 12.7664 28.4757 12.7664 28.1397V9.51509C12.7664 8.96486 13.2138 8.51747 13.7641 8.51747C14.314 8.51747 14.7617 8.96486 14.7617 9.51509V20.5042C14.7617 21.1512 15.2863 21.6761 15.9335 21.6761C16.5808 21.6761 17.1054 21.1512 17.1054 20.5042V17.5177C17.1054 16.9675 17.5528 16.5201 18.103 16.5201C18.653 16.5201 19.1007 16.9675 19.1007 17.5177V20.6376C19.1007 21.2848 19.6253 21.8094 20.2725 21.8094C20.9198 21.8094 21.4444 21.2848 21.4444 20.6376V18.447C21.4444 17.8971 21.8921 17.4494 22.442 17.4494C22.9923 17.4494 23.4397 17.8971 23.4397 18.447V21.456C23.4397 22.103 23.9643 22.6279 24.6115 22.6279C25.2588 22.6279 25.7834 22.103 25.7834 21.456V19.5523C25.7834 19.0021 26.2311 18.5544 26.781 18.5544C27.3313 18.5544 27.7787 19.0021 27.7787 19.552L27.7774 27.4701C27.7771 31.052 26.7939 34.5331 24.9286 37.5782H12.8845ZM9.42627 10.2234V2.98371C9.42627 2.5879 9.74854 2.26563 10.1444 2.26563H17.3837C17.7799 2.26563 18.1021 2.5879 18.1021 2.98371V10.2234C18.1021 10.6192 17.7799 10.9415 17.3837 10.9415H17.1054V9.51479C17.1054 7.67244 15.6064 6.17341 13.7641 6.17341C11.9217 6.17341 10.4227 7.67244 10.4227 9.51479V10.9415H10.1444C9.74854 10.9415 9.42627 10.6192 9.42627 10.2234Z" fill="#787878"/>
</g>
<defs>
<clipPath id="clip0">
<rect width="40" height="40" fill="white"/>
</clipPath>
</defs>
</svg>
