<svg width="40" height="40" viewBox="0 0 40 40" fill="none" xmlns="http://www.w3.org/2000/svg">
<g clip-path="url(#clip0)">
<path d="M39.7658 14.5312L35.6794 9.08256L35.8388 7.9667C35.8909 7.60154 35.7682 7.2331 35.5073 6.97232L33.0214 4.48639L35.5073 2.00045C35.9649 1.54287 35.9649 0.80084 35.5073 0.343184C35.0497 -0.114395 34.3076 -0.114395 33.85 0.343184L31.3641 2.82912L28.8782 0.343184C28.6174 0.0823242 28.249 -0.0400195 27.8838 0.0116992L16.2828 1.66896C16.0318 1.70482 15.7992 1.82115 15.6199 2.00045L1.25679 16.3636C-0.418603 18.0389 -0.418603 20.765 1.25679 22.4403L13.4101 34.5937C13.6587 34.8423 13.9309 35.0532 14.219 35.2279V35.7031C14.219 38.0724 16.1466 40 18.5158 40H35.7033C38.0726 40 40.0002 38.0724 40.0002 35.7031V15.2344C40.0002 14.9808 39.918 14.734 39.7658 14.5312ZM2.91405 20.783C2.15249 20.0215 2.15249 18.7824 2.91405 18.0208L17.0009 3.93396L27.6351 2.41482L29.7068 4.48646L28.0495 6.14373L27.2208 5.31506C26.7633 4.85748 26.0212 4.85748 25.5636 5.31506C25.1059 5.77264 25.1059 6.51467 25.5636 6.97232L28.8782 10.2869C29.107 10.5158 29.4069 10.6302 29.7068 10.6302C30.0066 10.6302 30.3066 10.5158 30.5354 10.2869C30.993 9.82936 30.993 9.08732 30.5354 8.62967L29.7067 7.80099L31.364 6.14373L33.4356 8.21537L31.9164 18.8496L17.8296 32.9365C17.4607 33.3054 16.9702 33.5085 16.4485 33.5085C15.9268 33.5085 15.4363 33.3053 15.0674 32.9365L2.91405 20.783ZM37.6565 35.7031C37.6565 36.7801 36.7803 37.6562 35.7033 37.6562H18.5158C17.4874 37.6562 16.6427 36.8572 16.5686 35.8473C17.6285 35.8179 18.6797 35.4009 19.4868 34.5937L33.8499 20.2306C34.0292 20.0513 34.1455 19.8187 34.1814 19.5677L35.2105 12.3638L37.6565 15.625V35.7031Z" fill="#787878"/>
</g>
<defs>
<clipPath id="clip0">
<rect width="40" height="40" fill="white"/>
</clipPath>
</defs>
</svg>
