<svg width="20" height="20" viewBox="0 0 20 20" fill="none" xmlns="http://www.w3.org/2000/svg">
<path d="M2.29187 0V20H4.3383V19.3045C4.3383 18.9561 4.62179 18.6726 4.97023 18.6726C5.31866 18.6726 5.60215 18.9561 5.60215 19.3045V20H7.69151V19.3045C7.69151 18.9561 7.97498 18.6726 8.3234 18.6726C8.67181 18.6726 8.9553 18.9561 8.9553 19.3045V20H11.0447V19.3045C11.0447 18.9561 11.3281 18.6726 11.6766 18.6726C12.025 18.6726 12.3084 18.9561 12.3084 19.3045V20H14.3978V19.3045C14.3978 18.9561 14.6813 18.6726 15.0297 18.6726C15.3782 18.6726 15.6617 18.9561 15.6617 19.3045V20H17.7081V0H15.6617V0.695505C15.6617 1.04394 15.3782 1.32741 15.0298 1.32741C14.6814 1.32741 14.3979 1.04394 14.3979 0.695505V0H12.3085V0.695505C12.3085 1.04394 12.025 1.32741 11.6766 1.32741C11.3282 1.32741 11.0447 1.04394 11.0447 0.695505V0H8.95532V0.695505C8.95532 1.04394 8.67183 1.32741 8.32342 1.32741C7.975 1.32741 7.69151 1.04394 7.69151 0.695505V0H5.60215V0.695505C5.60215 1.04394 5.31866 1.32741 4.97023 1.32741C4.62179 1.32741 4.3383 1.04394 4.3383 0.695505V0H2.29187ZM4.97023 2.71842C5.6671 2.71842 6.28287 2.36414 6.64684 1.82629C7.01082 2.36414 7.62654 2.71842 8.32344 2.71842C9.02036 2.71842 9.6361 2.36422 10.0001 1.82629C10.364 2.36422 10.9797 2.71842 11.6766 2.71842C12.3736 2.71842 12.9893 2.3642 13.3533 1.82629C13.7172 2.36422 14.3329 2.71842 15.0299 2.71842C15.5185 2.71842 15.9672 2.54429 16.3172 2.25483V17.7452C15.9672 17.4557 15.5185 17.2816 15.0299 17.2816C14.3329 17.2816 13.7172 17.6358 13.3533 18.1737C12.9893 17.6358 12.3736 17.2816 11.6766 17.2816C10.9797 17.2816 10.364 17.6358 10 18.1737C9.63608 17.6358 9.02038 17.2816 8.32342 17.2816C7.62656 17.2816 7.0108 17.6359 6.64682 18.1737C6.28285 17.6358 5.6671 17.2816 4.97021 17.2816C4.48158 17.2816 4.03286 17.4557 3.68286 17.7452V2.25483C4.03288 2.54429 4.4816 2.71842 4.97023 2.71842Z" fill="white"/>
<path d="M14.11 4.38889H6.07675V5.77991H14.11V4.38889Z" fill="white"/>
<path d="M14.11 7.27808H6.07675V8.66909H14.11V7.27808Z" fill="white"/>
<path d="M14.11 10.1668H6.07675V11.5578H14.11V10.1668Z" fill="white"/>
<path d="M14.11 14.3399H8.97424V15.7309H14.11V14.3399Z" fill="white"/>
</svg>
