<svg width="40" height="40" xmlns="http://www.w3.org/2000/svg">

 <g>
  <title>background</title>
  <rect fill="none" id="canvas_background" height="42" width="42" y="-1" x="-1"/>
 </g>
 <g>
  <title>Layer 1</title>
  <polyline stroke="#787878" stroke-miterlimit="10" stroke-linejoin="round" stroke-width="2" fill="none" id="svg_1" points="13.786588668823242,32.72760398685932 1.4302502870559692,32.72760398685932 1.4302502870559692,4.925844743847847 38.499263763427734,4.925844743847847 38.499263763427734,14.19309814274311 " class="st0"/>
  <polyline stroke="#787878" stroke-miterlimit="10" stroke-linejoin="round" stroke-width="2" fill="none" id="svg_2" points="4.40234899520874,7.24632827937603 19.74449324607849,20.670703813433647 35.08663535118103,7.24632827937603 " class="st0"/>
  <line stroke="#787878" stroke-miterlimit="10" stroke-linejoin="round" stroke-width="2" fill="none" id="svg_3" y2="26.735889" y1="18.129221" x2="6.678414" x1="16.490015" class="st0"/>
  <path stroke="#787878" stroke-miterlimit="10" stroke-linejoin="round" stroke-width="2" fill="none" id="svg_4" d="m38.663836,26.024162c-1.285916,0.321479 -2.571833,0 -3.054051,-0.964437c-0.482219,-0.964437 -0.16074,-2.250354 0.803698,-3.214791c-1.125177,-1.125177 -2.411093,-1.928875 -4.018489,-2.411093c-0.321479,1.285916 -1.285916,2.250354 -2.250354,2.250354s-1.928875,-0.964437 -2.250354,-2.250354c-1.446656,0.482219 -2.893312,1.285916 -4.018489,2.411093c0.964437,0.964437 1.285916,2.250354 0.803698,3.214791c-0.482219,0.964437 -1.768135,1.285916 -3.054051,0.964437c-0.16074,0.803698 -0.321479,1.607395 -0.321479,2.411093s0.16074,1.607395 0.321479,2.411093c1.285916,-0.321479 2.571833,0 3.054051,0.964437c0.482219,0.964437 0.16074,2.250354 -0.803698,3.214791c1.125177,1.125177 2.411093,1.928875 4.018489,2.411093c0.321479,-1.285916 1.285916,-2.250354 2.250354,-2.250354s1.928875,0.964437 2.250354,2.250354c1.446656,-0.482219 2.893312,-1.285916 4.018489,-2.411093c-0.964437,-0.964437 -1.285916,-2.250354 -0.803698,-3.214791c0.482219,-0.964437 1.768135,-1.285916 3.054051,-0.964437c0.16074,-0.803698 0.321479,-1.607395 0.321479,-2.411093s-0.16074,-1.607395 -0.321479,-2.411093z" class="st0"/>
  <circle stroke="#787878" stroke-miterlimit="10" stroke-linejoin="round" stroke-width="2" fill="none" id="svg_5" r="2.519091" cy="28.529369" cx="30.218061" class="st0"/>
 </g>
</svg>