<svg width="40" height="40" viewBox="0 0 40 40" fill="none" xmlns="http://www.w3.org/2000/svg">
<path d="M38.5714 14.2857H36.1528C35.953 13.7177 35.7232 13.1607 35.4643 12.6172L37.1785 10.9029C37.7363 10.3451 37.7363 9.4407 37.1785 8.88289L31.1114 2.82715C30.5535 2.26942 29.6493 2.26942 29.0914 2.82715L27.3772 4.54143C26.8353 4.28127 26.2803 4.04949 25.7143 3.84718V1.4286C25.7143 0.639592 25.0747 0 24.2857 0H15.7142C14.9252 0 14.2856 0.639592 14.2856 1.4286V3.84718C13.7174 4.0474 13.1599 4.27726 12.6156 4.53574L10.9014 2.82145C10.3435 2.26381 9.43919 2.26381 8.88138 2.82145L2.82706 8.88858C2.26933 9.44639 2.26933 10.3507 2.82706 10.9086L4.54135 12.6228C4.28061 13.1644 4.04891 13.7196 3.8471 14.2857H1.4286C0.639592 14.2857 0 14.9253 0 15.7142V24.2857C0 25.0747 0.639592 25.7143 1.4286 25.7143H3.84718C4.04698 26.2823 4.27675 26.8393 4.53574 27.3828L2.82145 29.0971C2.26381 29.655 2.26381 30.5593 2.82145 31.1171L8.88289 37.1785C9.44079 37.7362 10.3451 37.7362 10.9029 37.1785L12.6172 35.4643C13.161 35.7227 13.718 35.9525 14.2857 36.1528V38.5714C14.2857 39.3604 14.9253 40 15.7143 40H24.2858C25.0748 40 25.7143 39.3604 25.7143 38.5714V36.1528C26.2826 35.9526 26.8401 35.7227 27.3844 35.4643L29.0986 37.1785C29.6565 37.7362 30.5608 37.7362 31.1186 37.1785L37.1801 31.1171C37.7377 30.5593 37.7377 29.6549 37.1801 29.0971L35.4658 27.3828C35.7243 26.8393 35.9536 26.2823 36.1529 25.7143H38.5714C39.3604 25.7143 40 25.0747 40 24.2857V15.7142C40 14.9253 39.3604 14.2857 38.5714 14.2857ZM37.1428 22.8572H35.1071C34.4683 22.8572 33.9072 23.2812 33.7328 23.8957C33.4328 24.9624 33.009 25.9903 32.47 26.9585C32.1545 27.5183 32.2516 28.2197 32.7071 28.6728L34.1357 30.1085L30.1014 34.1428L28.6657 32.7142C28.2126 32.2587 27.5112 32.1616 26.9514 32.4771C25.9835 33.0156 24.9561 33.4394 23.89 33.7399C23.2749 33.9138 22.8502 34.475 22.85 35.1142V37.1428H17.1428V35.1071C17.1427 34.4679 16.718 33.9067 16.1028 33.7328C15.0367 33.4323 14.0093 33.0085 13.0414 32.47C12.4816 32.1545 11.7802 32.2516 11.3271 32.7071L9.89849 34.1357L5.85703 30.1014L7.28571 28.6657C7.74123 28.2126 7.83833 27.5112 7.52285 26.9514C6.98378 25.9833 6.55998 24.9553 6.25998 23.8886C6.0837 23.2794 5.52698 22.8594 4.89283 22.8572H2.85711V17.1428H4.89283C5.53158 17.1428 6.09274 16.7188 6.2671 16.1043C6.5671 15.0376 6.9909 14.0097 7.52996 13.0415C7.84545 12.4817 7.74835 11.7803 7.29282 11.3272L5.86423 9.89857L9.89849 5.85711L11.3271 7.28571C11.7802 7.74123 12.4816 7.83833 13.0414 7.52285C14.0093 6.98429 15.0367 6.56049 16.1028 6.25998C16.7154 6.08688 17.1394 5.52932 17.1428 4.89283V2.85711H22.8572V4.89283C22.8573 5.532 23.282 6.09324 23.8972 6.2671C24.9633 6.5676 25.9907 6.9914 26.9586 7.52996C27.5184 7.84545 28.2198 7.74835 28.6729 7.29282L30.1086 5.86423L34.1429 9.89849L32.7143 11.3271C32.2588 11.7802 32.1617 12.4816 32.4772 13.0414C33.0162 14.0095 33.44 15.0375 33.74 16.1042C33.9144 16.7187 34.4755 17.1428 35.1143 17.1428H37.1429V22.8572H37.1428Z" fill="#787878"/>
<path d="M20 10C14.4771 10 10 14.4771 10 20C10 25.5229 14.4772 30 20 30C25.5228 30 30 25.5228 30 19.9999C29.9938 14.4797 25.5203 10.0063 20 10ZM20 27.1428C16.0552 27.1428 12.8572 23.9449 12.8572 20C12.8572 16.0552 16.0552 12.8572 20 12.8572C23.9449 12.8572 27.1428 16.0552 27.1428 20C27.1382 23.9429 23.943 27.1381 20 27.1428Z" fill="#787878"/>
</svg>
