<svg width="40" height="40" viewBox="0 0 40 40" fill="none" xmlns="http://www.w3.org/2000/svg">
<path d="M8.28125 9.375C8.92844 9.375 9.45312 8.85031 9.45312 8.20312C9.45312 4.97227 12.0816 2.34375 15.3125 2.34375C18.5434 2.34375 21.1719 4.97227 21.1719 8.20312C21.1719 8.85031 21.6966 9.375 22.3438 9.375C22.9909 9.375 23.5156 8.85031 23.5156 8.20312C23.5156 3.67992 19.8357 0 15.3125 0C10.7893 0 7.10938 3.67992 7.10938 8.20312C7.10938 8.85031 7.63406 9.375 8.28125 9.375Z" fill="#787878"/>
<path d="M12.4447 39.8763C12.6074 39.9577 12.7868 40 12.9688 40H29.375C29.6859 40 29.9838 39.8766 30.2037 39.6567C31.9364 37.924 32.8906 35.6202 32.8906 33.1698V22.4219C32.8906 20.4834 31.3135 18.9062 29.375 18.9062C28.9174 18.9062 28.4805 18.9951 28.0792 19.1548C27.6726 17.6629 26.3065 16.5625 24.6875 16.5625C24.2299 16.5625 23.793 16.6513 23.3917 16.811C22.9851 15.3191 21.619 14.2188 20 14.2188C19.5892 14.2188 19.1949 14.2902 18.8281 14.4203V8.20312C18.8281 6.26461 17.251 4.6875 15.3125 4.6875C13.374 4.6875 11.7969 6.26461 11.7969 8.20312V21.25H10.625C8.68648 21.25 7.10938 22.8271 7.10938 24.7656V31.2436C7.10938 33.0373 7.60781 34.792 8.55086 36.3177C9.49383 37.8436 10.8403 39.0741 12.4447 39.8763ZM9.45312 24.7656C9.45312 24.1195 9.97883 23.5938 10.625 23.5938H11.7969V28.6317C11.7969 29.2789 12.3216 29.8036 12.9688 29.8036C13.6159 29.8036 14.1406 29.2789 14.1406 28.6317V8.20312C14.1406 7.55695 14.6663 7.03125 15.3125 7.03125C15.9587 7.03125 16.4844 7.55695 16.4844 8.20312V24.7656C16.4844 25.4128 17.0091 25.9375 17.6562 25.9375C18.3034 25.9375 18.8281 25.4128 18.8281 24.7656V17.7344C18.8281 17.0882 19.3538 16.5625 20 16.5625C20.6462 16.5625 21.1719 17.0882 21.1719 17.7344V24.7656C21.1719 25.4128 21.6966 25.9375 22.3438 25.9375C22.9909 25.9375 23.5156 25.4128 23.5156 24.7656V20.0781C23.5156 19.432 24.0413 18.9062 24.6875 18.9062C25.3337 18.9062 25.8594 19.432 25.8594 20.0781V24.7656C25.8594 25.4128 26.3841 25.9375 27.0312 25.9375C27.6784 25.9375 28.2031 25.4128 28.2031 24.7656V22.4219C28.2031 21.7757 28.7288 21.25 29.375 21.25C30.0212 21.25 30.5469 21.7757 30.5469 22.4219V33.1698C30.5469 34.8368 29.9537 36.4127 28.8673 37.6562H13.256C10.9033 36.3732 9.45312 33.9402 9.45312 31.2436V24.7656Z" fill="#787878"/>
</svg>
