<svg width="40" height="40" viewBox="0 0 40 40" fill="none" xmlns="http://www.w3.org/2000/svg">
<path d="M20 4.6875C15.4768 4.6875 11.7969 8.36742 11.7969 12.8906C11.7969 15.6987 13.213 18.2824 15.5849 19.8021C18.007 21.3539 20.9802 21.5188 23.7432 20.2477C24.3311 19.9772 24.5885 19.2812 24.318 18.6933C24.0475 18.1054 23.3516 17.848 22.7636 18.1184C20.7433 19.048 18.5875 18.9423 16.8493 17.8287C15.1532 16.742 14.1406 14.896 14.1406 12.8906C14.1406 9.65977 16.7691 7.03125 20 7.03125C23.2309 7.03125 25.8594 9.65977 25.8594 12.8906C25.8594 13.5368 25.3337 14.0625 24.6875 14.0625C24.097 14.0625 23.5455 13.6147 23.5158 12.9084C23.5157 12.9025 23.5156 12.8966 23.5156 12.8906C23.5156 10.9521 21.9385 9.375 20 9.375C18.0615 9.375 16.4844 10.9521 16.4844 12.8906C16.4844 14.8291 18.0615 16.4062 20 16.4062C20.8997 16.4062 21.7212 16.0662 22.3437 15.5083C22.9661 16.0662 23.7877 16.4062 24.6875 16.4062C26.626 16.4062 28.2031 14.8291 28.2031 12.8906C28.2031 8.36742 24.5232 4.6875 20 4.6875ZM21.1554 13.0786C21.0649 13.6355 20.582 14.0625 20 14.0625C19.3538 14.0625 18.8281 13.5368 18.8281 12.8906C18.8281 12.2445 19.3538 11.7188 20 11.7188C20.6009 11.7188 21.0969 12.1734 21.1637 12.7566C21.1462 12.8631 21.1433 12.9715 21.1554 13.0786Z" fill="#787878"/>
<path d="M37.578 15.3888C37.5777 15.0857 37.4557 14.7828 37.2348 14.562L32.8906 10.2177V1.17188C32.8906 0.524687 32.3659 0 31.7188 0H8.28125C7.63406 0 7.10938 0.524687 7.10938 1.17188V10.2177L2.76516 14.562C2.76109 14.566 2.75766 14.5705 2.75367 14.5747C2.53406 14.8009 2.42242 15.0988 2.42195 15.3888C2.42195 15.3895 2.42188 15.3902 2.42188 15.391V36.4844C2.42188 38.4254 4.00125 40 5.9375 40H34.0625C36.003 40 37.5781 38.4213 37.5781 36.4844V15.391C37.5781 15.3902 37.578 15.3895 37.578 15.3888ZM32.8906 13.5323L34.749 15.3906L32.8906 17.249V13.5323ZM9.45312 10.7035C9.45312 10.7033 9.45312 10.703 9.45312 10.7027V2.34375H30.5469V10.7027C30.5469 10.703 30.5469 10.7033 30.5469 10.7035V19.5927L24.2021 25.9375H15.7979L9.45312 19.5927V10.7035ZM7.10938 13.5323V17.249L5.25102 15.3906L7.10938 13.5323ZM4.76562 35.999V18.2198L13.6552 27.1094L4.76562 35.999ZM6.42297 37.6562L15.7979 28.2812H24.2021L33.577 37.6562H6.42297ZM35.2344 35.999L26.3448 27.1094L35.2344 18.2198V35.999Z" fill="#787878"/>
</svg>
