<svg width="40" height="40" viewBox="0 0 40 40" fill="none" xmlns="http://www.w3.org/2000/svg">
<path d="M32.1382 7.57414V7.02477H34.3173V0H5.68262V7.02477H7.86168V7.57414C7.86168 12.7052 10.9107 17.3225 15.6296 19.3375L17.1811 20L15.6296 20.6625C10.9107 22.6775 7.86168 27.2948 7.86168 32.4259V32.9752H5.68262V40H34.3173V32.9752H32.1382V32.4259C32.1382 27.2948 29.0892 22.6775 24.3704 20.6625L22.8189 20L24.3704 19.3375C29.0892 17.3225 32.1382 12.7052 32.1382 7.57414ZM8.0241 2.34148H31.9758V4.68328H8.0241V2.34148ZM10.2032 7.02477H29.7968V7.57414C29.7968 9.54352 29.2467 11.4202 28.2639 13.0274H11.7361C10.7532 11.4202 10.2032 9.54352 10.2032 7.57414V7.02477ZM31.9758 37.6585H8.0241V35.3167H31.9758V37.6585ZM11.3929 32.9752C12.6118 31.6264 14.1072 30.5551 15.8053 29.8299L20 28.0388L24.1946 29.83C25.8928 30.5552 27.3882 31.6265 28.6071 32.9753H11.3929V32.9752ZM29.6497 30.6837C28.3447 29.421 26.8147 28.4028 25.1141 27.6766L20 25.4928L14.8858 27.6766C13.1852 28.4028 11.6552 29.4211 10.3502 30.6838C10.9342 27.2136 13.2375 24.2301 16.5491 22.8159L18.8293 21.8423V23.7756H21.1707V21.8423L23.4509 22.8159C26.7625 24.23 29.0657 27.2135 29.6497 30.6837ZM20 18.6577L16.5491 17.1841C15.4843 16.7294 14.5243 16.1119 13.6914 15.3688H26.3086C25.4757 16.1119 24.5157 16.7295 23.451 17.1841L20 18.6577Z" fill="#787878"/>
</svg>
