<svg width="40" height="40" viewBox="0 0 40 40" fill="none" xmlns="http://www.w3.org/2000/svg">
<path d="M38.5714 10H31.4286V1.4286C31.4286 0.639592 30.789 0 30 0H10C9.21101 0 8.57142 0.639592 8.57142 1.4286V10H1.4286C0.639592 10 0 10.6396 0 11.4285V30C0 30.789 0.639592 31.4286 1.4286 31.4286H8.57142V38.5714C8.57142 39.3604 9.21101 40 10 40H30C30.789 40 31.4286 39.3604 31.4286 38.5714V31.4286H38.5714C39.3604 31.4286 40 30.789 40 30V11.4285C40 10.6396 39.3604 10 38.5714 10ZM11.4285 2.85711H28.5714V9.99994H11.4285V2.85711ZM28.5714 37.1428H11.4285V24.2857H28.5714V37.1428ZM37.1428 28.5714H31.4285V24.2857H32.8571C33.6461 24.2857 34.2857 23.6461 34.2857 22.8571C34.2857 22.0681 33.6461 21.4286 32.8571 21.4286H7.14282C6.35382 21.4286 5.71423 22.0681 5.71423 22.8572C5.71423 23.6462 6.35382 24.2858 7.14282 24.2858H8.57142V28.5715H2.85711V12.8571H37.1428V28.5714Z" fill="#787878"/>
<path d="M34.2857 15.7139H32.8571C32.0681 15.7139 31.4285 16.3535 31.4285 17.1425C31.4285 17.9315 32.0681 18.5711 32.8571 18.5711H34.2857C35.0747 18.5711 35.7143 17.9315 35.7143 17.1425C35.7143 16.3535 35.0747 15.7139 34.2857 15.7139Z" fill="#787878"/>
<path d="M24.2857 27.1436H15.7142C14.9252 27.1436 14.2856 27.7831 14.2856 28.5722C14.2856 29.3612 14.9252 30.0007 15.7142 30.0007H24.2857C25.0747 30.0007 25.7143 29.3612 25.7143 28.5722C25.7143 27.7831 25.0747 27.1436 24.2857 27.1436Z" fill="#787878"/>
<path d="M24.2857 31.4287H15.7142C14.9252 31.4287 14.2856 32.0683 14.2856 32.8573C14.2856 33.6463 14.9252 34.2859 15.7142 34.2859H24.2857C25.0747 34.2859 25.7143 33.6463 25.7143 32.8573C25.7143 32.0683 25.0747 31.4287 24.2857 31.4287Z" fill="#787878"/>
</svg>
