<svg width="40" height="40" viewBox="0 0 40 40" fill="none" xmlns="http://www.w3.org/2000/svg">
<g clip-path="url(#clip0)">
<path d="M36.2482 25.0004C36.0099 25.0004 35.7699 24.9321 35.5566 24.7904C34.9816 24.4071 34.8266 23.6321 35.2099 23.0571L37.2482 20.0004L35.2099 16.9437C34.8282 16.3687 34.9816 15.5937 35.5566 15.2104C36.1316 14.8271 36.9082 14.9821 37.2899 15.5571L39.7899 19.3071C40.0699 19.7271 40.0699 20.2737 39.7899 20.6937L37.2899 24.4437C37.0482 24.8054 36.6516 25.0004 36.2482 25.0004Z" fill="#787878"/>
<path d="M3.75167 25.0004C3.34833 25.0004 2.95167 24.8054 2.71 24.4437L0.21 20.6937C-0.07 20.2737 -0.07 19.7271 0.21 19.3071L2.71 15.5571C3.09333 14.9821 3.86833 14.8271 4.44333 15.2104C5.01833 15.5937 5.17333 16.3687 4.79 16.9437L2.75167 20.0004L4.79 23.0571C5.17167 23.6321 5.01833 24.4071 4.44333 24.7904C4.23 24.9321 3.99 25.0004 3.75167 25.0004Z" fill="#787878"/>
<path d="M27.0833 36.6663H12.9166C10.3883 36.6663 8.33325 34.6113 8.33325 32.083V7.91634C8.33325 5.38801 10.3883 3.33301 12.9166 3.33301H27.0833C29.6116 3.33301 31.6666 5.38801 31.6666 7.91634V32.083C31.6666 34.6113 29.6116 36.6663 27.0833 36.6663ZM12.9166 5.83301C11.7683 5.83301 10.8333 6.76801 10.8333 7.91634V32.083C10.8333 33.2313 11.7683 34.1663 12.9166 34.1663H27.0833C28.2316 34.1663 29.1666 33.2313 29.1666 32.083V7.91634C29.1666 6.76801 28.2316 5.83301 27.0833 5.83301H12.9166Z" fill="#787878"/>
</g>
<defs>
<clipPath id="clip0">
<rect width="40" height="40" fill="white"/>
</clipPath>
</defs>
</svg>
