<svg width="40" height="40" viewBox="0 0 40 40" fill="none" xmlns="http://www.w3.org/2000/svg">
<path d="M32.647 36.9355H6.76465V39.8767H32.647V36.9355Z" fill="#787878"/>
<path d="M24.3627 13.2607H15.2941C14.4818 13.2607 13.8235 13.9191 13.8235 14.7314C13.8235 15.5436 14.4818 16.202 15.2941 16.202H24.3627C25.175 16.202 25.8333 15.5436 25.8333 14.7314C25.8333 13.9191 25.175 13.2607 24.3627 13.2607Z" fill="#787878"/>
<path d="M31.2254 20.1221H15.2941C14.4818 20.1221 13.8235 20.7804 13.8235 21.5927C13.8235 22.405 14.4818 23.0633 15.2941 23.0633H31.2255C32.0378 23.0633 32.696 22.405 32.696 21.5927C32.696 20.7804 32.0377 20.1221 31.2254 20.1221Z" fill="#787878"/>
<path d="M39.1334 0.301172C38.6054 0.0639063 37.9883 0.157578 37.5549 0.540391L33.4368 4.18352L29.3138 0.496719C28.7554 -0.00281252 27.9113 -0.00281252 27.353 0.496719L23.2353 4.17906L19.1172 0.496719C18.5588 -0.00281252 17.7152 -0.00281252 17.1569 0.496719L13.0338 4.18352L8.9157 0.540391C8.48289 0.158047 7.86523 0.064375 7.33727 0.301172C6.80984 0.538906 6.47062 1.06344 6.47062 1.64188V27.8184H1.47062C0.658359 27.8183 0 28.4766 0 29.2889V32.8673C0 36.7325 3.14461 39.8771 7.00977 39.8771V36.9359C4.76617 36.9359 2.94117 35.1105 2.94117 32.8673V30.7595H25.9804V32.8673C25.9804 36.7325 29.125 39.8772 32.9902 39.8772C36.8553 39.8772 39.9999 36.7326 39.9999 32.8674V1.6418C40 1.06336 39.6608 0.538906 39.1334 0.301172ZM37.0588 32.8673C37.0588 35.1105 35.2334 36.9359 32.9902 36.9359C30.7471 36.9359 28.9216 35.1105 28.9216 32.8673V29.2889C28.9216 28.4766 28.2633 27.8183 27.451 27.8183H9.4118V4.90602L12.0652 7.25359C12.6241 7.74773 13.4642 7.74523 14.0196 7.2482L18.1373 3.56586L22.2549 7.24773C22.8133 7.74727 23.6573 7.74727 24.2157 7.24773L28.3338 3.56539L32.4515 7.24773C33.0073 7.74477 33.8476 7.74672 34.4059 7.25313L37.0588 4.90609V32.8673Z" fill="#787878"/>
</svg>
