<svg width="40" height="40" viewBox="0 0 40 40" fill="none" xmlns="http://www.w3.org/2000/svg">
<path d="M36.9547 22.9463L35.1747 22.6172C35.0425 22.5927 34.9465 22.4773 34.9465 22.3429V22.2398C36.0577 21.532 36.797 20.2899 36.797 18.8777V17.5469C36.797 15.3498 35.0095 13.5625 32.8126 13.5625C30.6156 13.5625 28.8282 15.3498 28.8282 17.5469V18.8777C28.8282 20.2896 29.5671 21.5314 30.6778 22.2393V22.343C30.6778 22.4775 30.5818 22.5928 30.4495 22.6173L28.6703 22.9463C27.7436 23.1176 26.9507 23.6239 26.4063 24.3256C25.862 23.6238 25.0691 23.1176 24.1423 22.9463L22.3623 22.6172C22.2301 22.5927 22.1341 22.4773 22.1341 22.3429V22.2398C23.2452 21.532 23.9845 20.2899 23.9845 18.8777V17.5469C23.9845 15.3498 22.1971 13.5625 20.0002 13.5625C17.8032 13.5625 16.0158 15.3498 16.0158 17.5469V18.8777C16.0158 20.2896 16.7547 21.5314 17.8654 22.2393V22.343C17.8654 22.4775 17.7694 22.5928 17.6371 22.6173L15.8579 22.9463C14.9312 23.1176 14.1383 23.6239 13.5939 24.3256C13.0495 23.6238 12.2566 23.1176 11.3298 22.9463L9.54984 22.6172C9.41766 22.5927 9.32164 22.4773 9.32164 22.3429V22.2398C10.4328 21.532 11.1721 20.2899 11.1721 18.8777V17.5469C11.1721 15.3498 9.38469 13.5625 7.18773 13.5625C4.99078 13.5625 3.20336 15.3498 3.20336 17.5469V18.8777C3.20336 20.2896 3.94227 21.5314 5.05297 22.2393V22.343C5.05297 22.4775 4.95695 22.5928 4.82469 22.6173L3.04547 22.9463C1.2807 23.2725 0 24.8117 0 26.6062V34.043C0 34.4745 0.349844 34.8242 0.78125 34.8242H39.2188C39.6502 34.8242 40 34.4745 40 34.043V26.6063C40 24.8117 38.7192 23.2725 36.9547 22.9463ZM7.1875 15.125C8.29953 15.125 9.23906 15.8784 9.52211 16.9016L8.64359 16.3855C8.31461 16.1922 7.89414 16.2649 7.64906 16.5573C7.1275 17.1798 6.36258 17.5368 5.55055 17.5368H4.76562C4.77117 16.206 5.85547 15.125 7.1875 15.125ZM4.77617 19.0992H5.55047C6.59984 19.0992 7.59906 18.7198 8.37656 18.0408L9.60938 18.7651V18.8777C9.60938 20.213 8.52297 21.2995 7.1875 21.2995C5.9268 21.2995 4.88852 20.3311 4.77617 19.0992ZM7.89508 23.034L7.18773 23.7177L6.47937 23.0333C6.50867 22.9611 6.5343 22.8873 6.5543 22.8111C6.76062 22.8442 6.97203 22.862 7.1875 22.862C7.40273 22.862 7.61383 22.8442 7.81984 22.8112C7.83992 22.8876 7.8657 22.9616 7.89508 23.034ZM12.8124 33.2616H11.8191H11.5588V28.0673V27.877C11.5588 27.4455 11.2089 27.0957 10.7775 27.0957C10.3461 27.0957 9.99625 27.4455 9.99625 27.877V28.0673V33.2617H4.37875V28.0673V27.877C4.37875 27.4455 4.02891 27.0957 3.5975 27.0957C3.16609 27.0957 2.81625 27.4455 2.81625 27.877V28.0673V33.2617H1.5625V26.6062C1.5625 25.5651 2.30555 24.672 3.3293 24.4827L5.10852 24.1538C5.18484 24.1396 5.25852 24.1194 5.33086 24.0964L6.40648 25.1356V27.5099C6.40648 27.9414 6.75633 28.2912 7.18773 28.2912C7.61914 28.2912 7.96898 27.9414 7.96898 27.5099V25.1355L9.04391 24.0966C9.11609 24.1195 9.18961 24.1396 9.26562 24.1537L11.0455 24.4827C12.0693 24.672 12.8124 25.5651 12.8124 26.6062V33.2616ZM20 15.125C21.112 15.125 22.0516 15.8784 22.3346 16.9016L21.4561 16.3855C21.1271 16.1922 20.7066 16.2649 20.4616 16.5573C19.94 17.1798 19.1751 17.5368 18.363 17.5368H17.5781C17.5837 16.206 18.668 15.125 20 15.125ZM17.5887 19.0992H18.363C19.4123 19.0992 20.4116 18.7198 21.1891 18.0408L22.4219 18.7651V18.8777C22.4219 20.213 21.3355 21.2995 20 21.2995C18.7393 21.2995 17.701 20.3311 17.5887 19.0992ZM20.7076 23.034L20.0002 23.7177L19.2919 23.0333C19.3212 22.9611 19.3468 22.8873 19.3668 22.8111C19.5731 22.8442 19.7845 22.862 20 22.862C20.2152 22.862 20.4263 22.8442 20.6323 22.8112C20.6524 22.8876 20.6782 22.9616 20.7076 23.034ZM25.6249 33.2616H24.6316H24.3713V28.0673V27.877C24.3713 27.4455 24.0214 27.0957 23.59 27.0957C23.1586 27.0957 22.8088 27.4455 22.8088 27.877V28.0673V33.2617H17.1912V28.0673V27.877C17.1912 27.4455 16.8414 27.0957 16.41 27.0957C15.9786 27.0957 15.6287 27.4455 15.6287 27.877V28.0673V33.2617H14.375V26.6063V26.6062C14.375 25.5651 15.118 24.672 16.1418 24.4827L17.921 24.1538C17.9973 24.1396 18.071 24.1194 18.1434 24.0964L19.2188 25.1353V27.5099C19.2188 27.9414 19.5686 28.2912 20 28.2912C20.4314 28.2912 20.7812 27.9414 20.7812 27.5099V25.1358L21.8564 24.0966C21.9286 24.1195 22.0021 24.1396 22.0781 24.1537L23.858 24.4827C24.8818 24.672 25.6249 25.5651 25.6249 26.6062V33.2616ZM32.8125 15.125C33.9245 15.125 34.8641 15.8784 35.1471 16.9016L34.2686 16.3855C33.9397 16.1922 33.5191 16.2649 33.2741 16.5573C32.7525 17.1798 31.9876 17.5368 31.1755 17.5368H30.3906C30.3962 16.206 31.4805 15.125 32.8125 15.125ZM30.4012 19.0992H31.1755C32.2248 19.0992 33.2241 18.7198 34.0016 18.0408L35.2344 18.7651V18.8777C35.2344 20.213 34.148 21.2995 32.8125 21.2995C31.5518 21.2995 30.5135 20.3311 30.4012 19.0992ZM33.5201 23.034L32.8127 23.7177L32.1044 23.0333C32.1337 22.9611 32.1593 22.8873 32.1793 22.8111C32.3856 22.8442 32.597 22.862 32.8125 22.862C33.0277 22.862 33.2388 22.8442 33.4448 22.8112C33.4649 22.8876 33.4907 22.9616 33.5201 23.034ZM38.4374 33.2616H37.9063H37.1838V28.0673V27.877C37.1838 27.4455 36.8339 27.0957 36.4025 27.0957C35.9711 27.0957 35.6213 27.4455 35.6213 27.877V28.0673V33.2617H30.0037V28.0673V27.877C30.0037 27.4455 29.6539 27.0957 29.2225 27.0957C28.7911 27.0957 28.4412 27.4455 28.4412 27.877V28.0673V33.2617H28.1055H27.1875V26.6063V26.6062C27.1875 25.5651 27.9305 24.672 28.9543 24.4827L30.7335 24.1538C30.8098 24.1396 30.8835 24.1194 30.9559 24.0964L32.2246 25.3222V27.5099C32.2246 27.9414 32.5745 28.2912 33.0059 28.2912C33.4373 28.2912 33.7871 27.9414 33.7871 27.5099V24.9488L34.6689 24.0966C34.7411 24.1195 34.8146 24.1396 34.8906 24.1537L36.6705 24.4827C37.6943 24.672 38.4374 25.5651 38.4374 26.6062V33.2616Z" fill="#787878"/>
<path d="M13.5938 5.17578C11.3968 5.17578 9.60938 6.96313 9.60938 9.16016V10.4909C9.60938 12.688 11.3968 14.4753 13.5938 14.4753C15.7907 14.4753 17.5781 12.688 17.5781 10.4909V9.16016C17.5781 6.96313 15.7907 5.17578 13.5938 5.17578ZM13.5938 6.73828C14.7058 6.73828 15.6453 7.49172 15.9284 8.51493L15.0498 7.99883C14.7209 7.80555 14.3004 7.87821 14.0553 8.17063C13.5338 8.79305 12.7688 9.15008 11.9568 9.15008H11.1719C11.1774 7.8193 12.2617 6.73828 13.5938 6.73828ZM16.0156 10.4909C16.0156 11.8263 14.9292 12.9128 13.5938 12.9128C12.333 12.9128 11.2948 11.9444 11.1824 10.7125H11.9567C13.0061 10.7125 14.0053 10.3331 14.7828 9.65407L16.0156 10.3784V10.4909Z" fill="#787878"/>
<path d="M26.4062 5.17578C24.2093 5.17578 22.4219 6.96313 22.4219 9.16016V10.4909C22.4219 12.688 24.2093 14.4753 26.4062 14.4753C28.6032 14.4753 30.3906 12.688 30.3906 10.4909V9.16016C30.3906 6.96313 28.6032 5.17578 26.4062 5.17578ZM26.4062 6.73828C27.5183 6.73828 28.4578 7.49172 28.7409 8.51493L27.8623 7.99883C27.5334 7.80555 27.1129 7.87821 26.8678 8.17063C26.3462 8.79305 25.5813 9.15008 24.7693 9.15008H23.9844C23.9899 7.8193 25.0742 6.73828 26.4062 6.73828ZM28.8281 10.4909C28.8281 11.8263 27.7417 12.9128 26.4062 12.9128C25.1455 12.9128 24.1073 11.9444 23.9949 10.7125H24.7692C25.8186 10.7125 26.8178 10.3331 27.5953 9.65407L28.8281 10.3784V10.4909Z" fill="#787878"/>
<path d="M13.5938 15.7842C13.1623 15.7842 12.8125 16.1339 12.8125 16.5654V19.2775C12.8125 19.709 13.1623 20.0588 13.5938 20.0588C14.0252 20.0588 14.375 19.709 14.375 19.2775V16.5654C14.375 16.1339 14.0252 15.7842 13.5938 15.7842Z" fill="#787878"/>
<path d="M14.146 21.2211C14.0008 21.075 13.7992 20.9922 13.5938 20.9922C13.3883 20.9922 13.1867 21.075 13.0414 21.2211C12.8961 21.3664 12.8125 21.568 12.8125 21.7734C12.8125 21.9789 12.896 22.1805 13.0414 22.3258C13.1867 22.4711 13.3883 22.5547 13.5938 22.5547C13.7992 22.5547 14.0008 22.4711 14.146 22.3258C14.2913 22.1805 14.375 21.9789 14.375 21.7734C14.375 21.568 14.2914 21.3664 14.146 21.2211Z" fill="#787878"/>
<path d="M26.4062 18.2793C25.9748 18.2793 25.625 18.6291 25.625 19.0605V21.7727C25.625 22.2041 25.9748 22.5539 26.4062 22.5539C26.8377 22.5539 27.1875 22.2041 27.1875 21.7727V19.0605C27.1875 18.6291 26.8377 18.2793 26.4062 18.2793Z" fill="#787878"/>
<path d="M26.9585 16.0123C26.8133 15.867 26.6117 15.7842 26.4062 15.7842C26.2008 15.7842 25.9992 15.867 25.8539 16.0123C25.7086 16.1584 25.625 16.3592 25.625 16.5646C25.625 16.7709 25.7085 16.9725 25.8539 17.117C25.9992 17.2631 26.2008 17.3459 26.4062 17.3459C26.6117 17.3459 26.8133 17.2631 26.9585 17.117C27.1038 16.9717 27.1875 16.7709 27.1875 16.5646C27.1875 16.3592 27.1039 16.1584 26.9585 16.0123Z" fill="#787878"/>
</svg>
