<svg width="40" height="40" xmlns="http://www.w3.org/2000/svg">

 <g>
  <title>background</title>
  <rect fill="none" id="canvas_background" height="42" width="42" y="-1" x="-1"/>
 </g>
 <g>
  <title>Layer 1</title>
  <path stroke="#787878" stroke-miterlimit="10" stroke-linejoin="round" stroke-linecap="round" stroke-width="2" fill="none" id="svg_1" d="m38.590942,27.02636c-1.402571,0.255013 -2.550128,0 -3.060154,-0.892545c-0.510026,-0.892545 -0.127506,-2.167609 0.765039,-3.187661c-1.147558,-1.147558 -2.422622,-1.912596 -3.952699,-2.295116c-0.382519,1.275064 -1.275064,2.295116 -2.295116,2.295116s-1.912596,-0.892545 -2.295116,-2.295116c-1.530077,0.382519 -2.932648,1.147558 -3.952699,2.295116c0.892545,1.020051 1.275064,2.295116 0.765039,3.187661c-0.510026,0.892545 -1.78509,1.147558 -3.060154,0.892545c-0.382519,0.765039 -0.510026,1.530077 -0.510026,2.295116s0.127506,1.530077 0.255013,2.295116c1.402571,-0.255013 2.550128,0 3.060154,0.892545c0.510026,0.892545 0.127506,2.167609 -0.765039,3.187661c1.147558,1.147558 2.422622,1.912596 3.952699,2.295116c0.382519,-1.275064 1.275064,-2.295116 2.295116,-2.295116s1.912596,0.892545 2.295116,2.295116c1.530077,-0.382519 2.932648,-1.147558 3.952699,-2.295116c-0.892545,-1.020051 -1.275064,-2.295116 -0.765039,-3.187661c0.510026,-0.892545 1.78509,-1.147558 3.060154,-0.892545c0.255013,-0.765039 0.255013,-1.530077 0.255013,-2.295116s0.127506,-1.530077 0,-2.295116z" class="st0"/>
  <circle stroke-miterlimit="10" stroke-linejoin="round" stroke-linecap="round" stroke-width="2" stroke="#787878" fill="none" id="svg_2" r="2" cy="29.181999" cx="29.923839" class="st0"/>
  <path stroke="#787878" stroke-miterlimit="10" stroke-linejoin="round" stroke-linecap="round" stroke-width="2" fill="none" id="svg_3" d="m25.552461,21.217638c1.278003,-1.562004 2.130005,-3.408008 2.130005,-5.538013l0,0c0,-1.562004 1.278003,-2.840006 2.840006,-2.840006l0,0l0,-3.266007c0,-3.976009 -2.982007,-7.668018 -6.958016,-8.094018c-2.840006,-0.284001 -5.396012,0.852002 -6.958016,2.982007c-1.136003,-0.284001 -2.272005,-0.142 -3.692008,0.852002c-1.420003,0.994002 -2.272005,2.840006 -2.272005,4.686011l0,1.420003l0,2.130005l0,1.846004c0,3.124007 1.704004,6.106014 4.26001,7.668018l0,0c0,3.266007 -2.272005,5.964014 -5.396012,6.816016c-3.692008,0.994002 -6.390015,3.976009 -7.242017,7.668018c0,0.426001 0.284001,0.852002 0.852002,0.852002l22.294051,0" class="st0"/>
 </g>
</svg>