<svg width="40" height="40" xmlns="http://www.w3.org/2000/svg" clip-rule="evenodd">

 <g>
  <title>background</title>
  <rect fill="none" id="canvas_background" height="42" width="42" y="-1" x="-1"/>
 </g>
 <g>
  <title>Layer 1</title>
  <path stroke="null" fill="#787878" id="svg_1" d="m0.305977,31.975749l0,-23.507029c0,-1.7121 1.313407,-3.102284 2.930951,-3.102284l33.561621,0c1.615607,0 2.932889,1.388134 2.932889,3.102284l0,23.507029c0,1.713125 -1.315344,3.102284 -2.932889,3.102284l-33.561621,0c-1.617544,0 -2.930951,-1.389159 -2.930951,-3.102284zm37.569643,0l0,-23.507029c0,-0.626403 -0.481389,-1.137983 -1.077071,-1.137983l-33.561621,0c-0.593745,0 -1.076103,0.509529 -1.076103,1.137983l0,23.507029c0,0.627428 0.482357,1.139008 1.076103,1.139008l33.561621,0c0.593745,0 1.077071,-0.51158 1.077071,-1.139008z"/>
  <path fill="#787878" id="svg_2" d="m3.850626,10.392653c0,-0.507 0.413,-0.919 0.92,-0.919c0.506,0 0.917,0.412 0.917,0.919c0,0.504 -0.411,0.917 -0.917,0.917c-0.507,0 -0.92,-0.413 -0.92,-0.917zm2.6,0c0,-0.507 0.412,-0.919 0.917,-0.919c0.507,0 0.92,0.412 0.92,0.919c0,0.504 -0.413,0.917 -0.92,0.917c-0.505,0 -0.917,-0.413 -0.917,-0.917zm2.599,0c0,-0.507 0.413,-0.919 0.917,-0.919c0.507,0 0.919,0.412 0.919,0.919c0,0.504 -0.412,0.917 -0.919,0.917c-0.504,0 -0.917,-0.413 -0.917,-0.917z"/>
  <path stroke="null" fill="#787878" id="svg_3" d="m30.64757,18.308552l-0.183419,-0.784028c-0.206197,-0.06114 -0.402803,-0.142659 -0.589819,-0.240963l-0.764847,0.473534c-0.199004,0.124677 -0.430376,0.163039 -0.59941,0l-0.347658,-0.352453c-0.165437,-0.163039 -0.117484,-0.384821 0,-0.595813l0.472335,-0.768443c-0.127075,-0.237366 -0.226577,-0.495112 -0.287717,-0.768443l-0.734876,-0.175028c-0.228974,-0.051549 -0.423183,-0.189413 -0.423183,-0.421984l0,-0.493913c0,-0.232571 0.194209,-0.35485 0.423183,-0.424382l0.843969,-0.195408l0.239764,-0.502305c-0.137864,-0.221782 -0.275728,-0.44716 -0.409996,-0.668941c-0.128274,-0.199004 -0.166636,-0.433972 0,-0.597012l0.348856,-0.350055c0.163039,-0.165437 0.388417,-0.113888 0.597012,0l0.716894,0.444762l0.484323,-0.199004c0.065935,-0.264939 0.137864,-0.531077 0.214589,-0.793618c0.068333,-0.228974 0.188215,-0.423183 0.424382,-0.423183l0.493913,0c0.232571,0 0.369236,0.194209 0.423183,0.423183l0.199004,0.791221l0.583825,0.240963c0.210992,-0.124677 0.419587,-0.24336 0.631778,-0.360845c0.210992,-0.115087 0.432774,-0.165437 0.595813,0l0.352453,0.348856c0.165437,0.163039 0.124677,0.398008 0,0.597012l-0.370435,0.619789l0.187016,0.39561c0.305699,0.076724 0.597012,0.153449 0.855957,0.228974c0.230173,0.067134 0.424382,0.189413 0.424382,0.424382l0,0.493913c0,0.232571 -0.194209,0.368037 -0.424382,0.421984l-0.74087,0.188215l-0.232571,0.662947c0.145057,0.24336 0.285319,0.490317 0.423183,0.738473c0.117484,0.208595 0.166636,0.430376 0,0.597012l-0.350055,0.348856c-0.165437,0.165437 -0.398008,0.124677 -0.595813,0l-0.676134,-0.400406c-0.212191,0.124677 -0.439967,0.221782 -0.678532,0.292512l-0.184618,0.784028c-0.053947,0.228974 -0.188215,0.423183 -0.423183,0.423183l-0.493913,0c-0.23377,0 -0.356049,-0.194209 -0.424382,-0.423183zm2.183049,-3.706748c0,-0.834378 -0.678532,-1.51291 -1.51291,-1.51291c-0.833179,0 -1.511711,0.678532 -1.511711,1.51291c0,0.834378 0.678532,1.511711 1.511711,1.511711c0.834378,0 1.51291,-0.677333 1.51291,-1.511711z"/>
  <path fill="#787878" id="svg_4" d="m27.689626,29.173653c0,-0.291 0.239,-0.531 0.533,-0.531l5.119,0c0.293,0 0.533,0.24 0.533,0.531c0,0.294 -0.24,0.533 -0.533,0.533l-5.119,0c-0.294,0 -0.533,-0.239 -0.533,-0.533zm-0.023,-1.928c0,-0.291 0.238,-0.532 0.532,-0.532l7.261,0c0.292,0 0.532,0.241 0.532,0.532c0,0.295 -0.24,0.533 -0.532,0.533l-7.261,0c-0.294,0 -0.532,-0.238 -0.532,-0.533zm0.023,-2.38c0,-0.292 0.239,-0.533 0.533,-0.533l5.119,0c0.293,0 0.533,0.241 0.533,0.533c0,0.293 -0.24,0.531 -0.533,0.531l-5.119,0c-0.294,0 -0.533,-0.238 -0.533,-0.531zm-0.023,-1.929c0,-0.291 0.238,-0.531 0.532,-0.531l7.261,0c0.292,0 0.532,0.24 0.532,0.531c0,0.294 -0.24,0.532 -0.532,0.532l-7.261,0c-0.294,0 -0.532,-0.238 -0.532,-0.532z"/>
  <path fill="#787878" id="svg_5" d="m5.217544,28.808356c0,-0.291 0.239,-0.531 0.532,-0.531l16.966,0c0.292,0 0.532,0.24 0.532,0.531c0,0.294 -0.24,0.533 -0.532,0.533l-16.966,0c-0.293,0 -0.532,-0.239 -0.532,-0.533z"/>
  <path fill="#787878" id="svg_6" d="m10.358544,26.524356c1.186,0 2.153,0.967 2.153,2.153c0,1.186 -0.967,2.153 -2.153,2.153c-1.186,0 -2.153,-0.967 -2.153,-2.153c0,-1.186 0.967,-2.153 2.153,-2.153z"/>
  <path fill="#787878" id="svg_12" d="m4.623598,23.421005l0,-9.276l18.119,0l0,9.276l-18.119,0zm17.054,-1.064l0,-7.148l-15.991,0l0,7.148l15.991,0z"/>
  <path fill="#787878" id="svg_13" d="m7.564274,21.333005l0,-1.964l1.968,0l0,1.964l-1.968,0zm3.364,0l0,-1.964l1.964,0l0,1.964l-1.964,0zm3.365,0l0,-1.964l1.961,0l0,1.964l-1.961,0zm3.361,0l0,-1.964l1.969,0l0,1.964l-1.969,0zm-10.09,-3.137l0,-1.966l1.968,0l0,1.966l-1.968,0zm3.364,0l0,-1.966l1.964,0l0,1.966l-1.964,0zm3.365,0l0,-1.966l1.961,0l0,1.966l-1.961,0zm3.361,0l0,-1.966l1.969,0l0,1.966l-1.969,0z"/>
 </g>
</svg>