<svg width="40" height="40" viewBox="0 0 40 40" fill="none" xmlns="http://www.w3.org/2000/svg">
<path d="M36.4844 9.53125H25.9375V3.51562C25.9375 1.57711 24.3604 0 22.4219 0H3.51562C1.57711 0 0 1.57711 0 3.51562V36.4844C0 38.4229 1.57711 40 3.51562 40H22.4219C24.3604 40 25.9375 38.4229 25.9375 36.4844V29.9385L29.9385 25.9375H36.4844C38.4229 25.9375 40 24.3604 40 22.4219V13.0469C40 11.1084 38.4229 9.53125 36.4844 9.53125ZM2.34375 3.51562C2.34375 2.86945 2.86945 2.34375 3.51562 2.34375H22.4219C23.068 2.34375 23.5938 2.86945 23.5938 3.51562V4.6875H2.34375V3.51562ZM23.5938 36.4844C23.5938 37.1305 23.068 37.6562 22.4219 37.6562H3.51562C2.86945 37.6562 2.34375 37.1305 2.34375 36.4844V32.9688H23.5938V36.4844ZM23.5938 30.625H2.34375V7.03125H23.5938V9.53125H22.4219C20.4834 9.53125 18.9062 11.1084 18.9062 13.0469V22.4219C18.9062 24.3604 20.4834 25.9375 22.4219 25.9375H23.5938C23.5938 26.476 23.5938 30.1198 23.5938 30.625ZM37.6562 22.4219C37.6562 23.068 37.1305 23.5938 36.4844 23.5938H29.4531C29.1423 23.5938 28.8443 23.7172 28.6245 23.937L25.9375 26.624V24.7659V24.7656C25.9375 24.1184 25.4128 23.5938 24.7656 23.5938H22.4219C21.7757 23.5938 21.25 23.068 21.25 22.4219V13.0469C21.25 12.4007 21.7757 11.875 22.4219 11.875H36.4844C37.1305 11.875 37.6562 12.4007 37.6562 13.0469V22.4219Z" fill="#787878"/>
<path d="M34.1406 14.2188H24.7656C24.1184 14.2188 23.5938 14.7434 23.5938 15.3906C23.5938 16.0378 24.1184 16.5625 24.7656 16.5625H34.1406C34.7878 16.5625 35.3125 16.0378 35.3125 15.3906C35.3125 14.7434 34.7878 14.2188 34.1406 14.2188Z" fill="#787878"/>
<path d="M29.4531 18.9062H24.7656C24.1184 18.9062 23.5938 19.4309 23.5938 20.0781C23.5938 20.7253 24.1184 21.25 24.7656 21.25H29.4531C30.1003 21.25 30.625 20.7253 30.625 20.0781C30.625 19.4309 30.1003 18.9062 29.4531 18.9062Z" fill="#787878"/>
</svg>
