<svg width="40" height="40" viewBox="0 0 40 40" fill="none" xmlns="http://www.w3.org/2000/svg">
<g clip-path="url(#clip0)">
<path d="M39.8932 28.5202C39.0292 25.064 37.4547 23.1619 35.7334 22.1638C36.2022 21.5664 36.4827 20.8147 36.4827 19.9982C36.4827 19.5874 36.4112 19.1931 36.2812 18.8264H36.4827C38.4212 18.8264 39.9982 17.2494 39.9982 15.3109V5.93637C39.9982 3.99793 38.4212 2.4209 36.4827 2.4209H27.1082C25.1697 2.4209 23.5927 3.99793 23.5927 5.93637V15.3109C23.5927 15.7684 23.6815 16.2053 23.8412 16.6066C22.3493 17.0133 21.2491 18.3794 21.2491 19.9983V22.342C21.2491 22.6656 21.3804 22.9587 21.5925 23.1707C23.6095 25.1877 23.7131 28.403 21.906 30.5448H16.4055V29.373C16.4055 29.3729 16.4055 29.3728 16.4055 29.3727V17.6548C16.4055 16.3368 15.9678 15.1192 15.2305 14.1393H17.5774C18.2246 14.1393 18.7492 13.6146 18.7492 12.9675C18.7492 12.3203 18.2245 11.7957 17.5774 11.7957H14.0619V10.6239C14.0619 8.68544 12.4849 7.10841 10.5464 7.10841H8.20275C7.55556 7.10841 7.03095 7.6331 7.03095 8.28021V12.9675C7.03095 13.6147 7.55564 14.1393 8.20275 14.1393H8.96689L6.7997 21.2908C2.94274 21.9582 0 25.3282 0 29.3729V31.7166C0 35.008 2.6786 37.5786 5.85009 37.5786C8.68478 37.5786 11.0581 35.7936 11.608 32.8884C11.9971 32.8884 22.8367 32.8884 23.7107 32.8884C24.255 35.5595 26.6223 37.5757 29.4519 37.5757C32.2816 37.5757 34.6487 35.5595 35.1932 32.8884H36.4828C38.7696 32.8883 40.4484 30.7406 39.8932 28.5202ZM9.37455 9.45185H10.5463C11.1925 9.45185 11.7181 9.97755 11.7181 10.6236V11.7954C10.87 11.7954 10.2226 11.7954 9.37447 11.7954V9.45185H9.37455ZM7.64673 34.7992C4.93524 36.1158 2.3436 34.2146 2.3436 31.7165C2.3436 29.7782 3.92055 28.2012 5.85876 28.201C5.85884 28.201 5.85884 28.201 5.85892 28.201C5.859 28.201 5.859 28.201 5.85907 28.201C7.79752 28.201 9.37455 29.7781 9.37455 31.7165C9.37455 33.0795 8.69635 34.2896 7.64673 34.7992ZM14.0619 30.5447H11.6003C11.056 27.8736 8.68869 25.8574 5.85907 25.8574C5.859 25.8574 5.85892 25.8574 5.85884 25.8574C5.85876 25.8574 5.85868 25.8574 5.85861 25.8574C4.84478 25.8575 3.8904 26.1166 3.0579 26.5719C4.05298 24.7514 5.98595 23.5138 8.20275 23.5138C11.4335 23.5138 14.0619 26.1422 14.0619 29.373V30.5447ZM14.0619 23.6384C12.8057 22.3552 11.1328 21.4812 9.26432 21.2387L11.3852 14.2402C12.92 14.6173 14.0619 16.0051 14.0619 17.6546V23.6384ZM25.9363 5.93645C25.9363 5.29028 26.462 4.76465 27.1081 4.76465H36.4827C37.1288 4.76465 37.6545 5.29036 37.6545 5.93645V7.10825H25.9363V5.93645ZM25.9363 9.45185H37.6545V15.311C37.6545 15.9572 37.1288 16.4828 36.4827 16.4828C36.0939 16.4828 27.5557 16.4828 27.1082 16.4828C26.462 16.4828 25.9364 15.9571 25.9364 15.311V9.45185H25.9363ZM23.5927 21.1701V19.9983C23.5927 19.3521 24.1184 18.8265 24.7645 18.8265C25.5861 18.8265 32.148 18.8265 32.9673 18.8265C33.6134 18.8265 34.1391 19.3522 34.1391 19.9983C34.1391 20.6445 33.6133 21.1701 32.9673 21.1701C32.0769 21.1701 25.7751 21.1701 24.7645 21.1701H23.5927ZM29.4518 35.232C27.9241 35.232 26.6216 34.2366 26.1379 32.8727H32.7657C32.282 34.2366 30.9794 35.232 29.4518 35.232ZM36.4827 30.5447H24.6975C25.8077 28.3411 25.8076 25.7174 24.6973 23.5138H24.7645H31.8134C34.7825 23.5138 36.6817 25.3374 37.6195 29.0887C37.8044 29.828 37.2459 30.5447 36.4827 30.5447Z" fill="#787878"/>
<path d="M5.85905 32.8885C6.50622 32.8885 7.03085 32.3639 7.03085 31.7167C7.03085 31.0696 6.50622 30.5449 5.85905 30.5449C5.21189 30.5449 4.68726 31.0696 4.68726 31.7167C4.68726 32.3639 5.21189 32.8885 5.85905 32.8885Z" fill="#787878"/>
<path d="M31.7955 25.8584H29.4518C28.8046 25.8584 28.28 26.3831 28.28 27.0302C28.28 27.6773 28.8047 28.202 29.4518 28.202H31.7955C32.4427 28.202 32.9673 27.6773 32.9673 27.0302C32.9673 26.3831 32.4427 25.8584 31.7955 25.8584Z" fill="#787878"/>
</g>
<defs>
<clipPath id="clip0">
<rect width="40" height="40" fill="white"/>
</clipPath>
</defs>
</svg>
