<svg width="40" height="40" viewBox="0 0 40 40" fill="none" xmlns="http://www.w3.org/2000/svg">
<path d="M37.6007 4.75084C36.3277 4.21662 34.95 3.86483 33.6077 3.5557C30.9395 2.94195 28.1505 2.96337 25.4798 3.57302C25.0841 3.66295 24.6894 3.77208 24.2974 3.89529C24.5977 4.24623 24.7835 4.60443 24.8407 4.97056C24.8922 5.30503 24.9118 5.64966 24.9205 5.99762C28.6735 4.81066 32.719 5.12175 36.3785 6.66486C33.0015 8.67239 28.55 8.57665 24.9018 7.05053C24.8793 7.46427 24.8485 7.87912 24.8138 8.28962C24.7823 8.6601 24.7562 9.01019 24.7368 9.34987C28.9517 10.8954 33.885 10.666 37.7079 8.35489C37.6905 8.95021 37.6801 9.54578 37.6658 10.1411C33.6741 12.3565 28.8448 12.6266 24.6965 10.8079C24.6809 11.5844 24.6671 12.362 24.6557 13.1413C28.8286 14.6989 33.5536 14.4905 37.6133 12.6092C37.6021 13.3001 37.5995 13.9914 37.5912 14.682C33.44 16.6591 28.9087 16.2261 24.6306 14.9411C24.6259 15.3458 24.6228 15.7517 24.6194 16.1574C24.7532 16.1333 24.8863 16.1081 25.0214 16.0891C25.5431 16.0145 26.0721 15.9766 26.5951 15.9766C28.9842 15.9766 31.2377 16.7586 33.1142 18.098C34.6189 17.9515 36.1085 17.6179 37.5652 17.0492C37.5613 17.5793 37.5622 18.1099 37.5591 18.6402C36.7745 19.1623 35.9595 19.5806 35.1259 19.9098C35.6194 20.4665 36.0656 21.071 36.4547 21.7175C36.8238 21.5546 37.1899 21.3805 37.5496 21.1841C37.5475 21.9394 37.5409 22.695 37.5409 23.4506C37.5409 23.5086 37.4867 23.5797 37.4013 23.6559C37.6556 24.3189 37.8554 25.0104 37.9949 25.7253C38.4455 25.4445 38.8849 25.1516 39.2878 24.838C39.5369 24.6447 39.6452 24.4177 39.6609 24.1915C39.6924 24.088 39.715 23.9775 39.715 23.8519C39.715 19.3193 39.7224 14.7841 39.8255 10.2511C39.8523 9.08212 40.1189 7.6804 39.9365 6.53056C39.8117 5.74283 38.2073 5.00494 37.6007 4.75084Z" fill="#787878"/>
<path d="M15.2771 29.0126C15.2518 29.0179 15.2273 29.0244 15.2021 29.0291C14.3347 29.189 13.4508 29.2873 12.5639 29.3193C12.3493 29.3271 12.1341 29.3306 11.919 29.3306C10.7543 29.3306 9.59012 29.2153 8.45555 28.9735C7.49044 28.7673 6.54504 28.458 5.64614 28.0441C5.26679 27.8695 2.95201 26.8539 2.95158 26.4138C2.95158 25.4709 2.9427 24.5281 2.94049 23.5853C5.89981 25.032 9.08414 25.8176 12.2441 25.8176C13.3136 25.8176 14.3799 25.7231 15.4349 25.5385C15.6356 24.4718 15.9747 23.4509 16.434 22.4986C15.0369 22.892 13.6077 23.0896 12.1721 23.0896C9.12987 23.0896 6.06227 22.2386 3.22709 20.6703C3.12632 20.6148 3.02709 20.575 2.92854 20.5463C2.92359 19.6507 2.92504 18.7549 2.91796 17.8596C6.31031 19.0279 9.82246 19.7857 13.3025 19.7857C15.1984 19.7857 17.0844 19.5567 18.9382 19.0513C19.4804 18.5361 20.0727 18.0742 20.7074 17.6742C21.6303 17.0933 22.6455 16.6458 23.7304 16.355C23.7361 15.7907 23.74 15.2264 23.7465 14.6624C23.7542 14.0357 23.7651 13.4088 23.7746 12.7814C23.7872 11.9822 23.7997 11.1836 23.8166 10.3845C23.821 10.1871 23.8227 9.98935 23.827 9.79174C23.8326 9.53636 23.8491 9.27014 23.8681 9.00043C23.9219 8.2372 24.0068 7.4319 24.0324 6.65049C24.0363 6.53522 24.0397 6.42037 24.0407 6.3062C24.0428 5.89178 24.0233 5.48819 23.964 5.10662C23.9167 4.79859 23.6923 4.49697 23.3838 4.21736C22.6996 3.59671 21.5991 3.08689 21.0836 2.8659C19.5136 2.19328 17.8151 1.75001 16.1589 1.36093C14.5403 0.980722 12.8846 0.793945 11.2288 0.793945C9.5193 0.793945 7.80887 0.992582 6.13582 1.38269C4.24408 1.82373 2.3648 2.59627 0.665893 3.55379C0.119302 3.86164 -0.0496417 4.366 0.0235672 4.84561C0.00752607 4.93981 -0.00220097 5.03861 0.00172398 5.14698C0.256504 12.402 0.26973 19.6605 0.26973 26.9195C0.26973 27.0777 0.297204 27.2171 0.336624 27.3471C0.355908 27.6323 0.490209 27.9181 0.796355 28.1617C3.95363 30.6722 8.16638 32.0976 12.2965 32.0976C13.4948 32.0976 14.6854 31.9729 15.8415 31.7246C15.6188 31.0448 15.4512 30.3376 15.3467 29.608C15.3191 29.4091 15.2961 29.2106 15.2771 29.0126ZM11.2671 3.52128C14.088 3.52128 16.9147 4.12965 19.5763 5.27565C17.4058 6.59324 14.8741 7.19316 12.3115 7.19316C9.378 7.19316 6.40306 6.40783 3.87727 5.01532C6.25493 4.00226 8.75905 3.52128 11.2671 3.52128ZM2.75038 7.53088C5.57515 9.08635 8.82774 9.90138 12.06 9.90138C15.0198 9.90138 17.9582 9.2088 20.5404 7.78549C20.7665 7.66091 20.9945 7.53984 21.215 7.40357C21.1933 8.15332 21.1812 8.90316 21.1639 9.65291C20.9788 9.75778 20.7882 9.85044 20.6005 9.94839C17.9993 11.3047 15.1395 12.005 12.2805 12.005C9.03977 12.005 5.80493 11.1177 2.95781 9.30479C2.90064 9.26835 2.8439 9.24523 2.78716 9.21852C2.77419 8.65606 2.76574 8.09351 2.75038 7.53088ZM2.85849 12.4024C5.78283 13.9693 9.02834 14.7402 12.2773 14.7402C15.1408 14.7402 18.0057 14.134 20.6582 12.9541C20.8051 12.8891 20.9538 12.8296 21.0993 12.7605C21.085 13.6304 21.082 14.5005 21.072 15.3705C20.9469 15.4311 20.8203 15.4822 20.6942 15.5394C18.3177 16.6224 15.8445 17.075 13.3529 17.075C9.82868 17.075 6.26731 16.1863 2.88605 14.9565C2.87581 14.1061 2.87282 13.2543 2.85849 12.4024Z" fill="#787878"/>
<path d="M37.0302 26.2816C36.9543 25.9497 36.866 25.6239 36.7646 25.3033C36.652 24.9497 36.5259 24.604 36.3851 24.266C36.077 23.5278 35.7087 22.825 35.2767 22.1759C34.8343 21.5113 34.3284 20.9043 33.7781 20.3536C32.8652 19.4396 31.8214 18.6982 30.6927 18.1716C29.4636 17.5974 28.1394 17.2715 26.7794 17.2715C26.3011 17.2715 25.8163 17.3096 25.334 17.3841C25.1703 17.4092 25.0074 17.4391 24.8444 17.4728C24.7639 17.4897 24.6859 17.5101 24.6066 17.5288C24.4571 17.5637 24.309 17.6014 24.1621 17.6428C24.0121 17.6848 23.8635 17.7297 23.7166 17.778C23.4306 17.8726 23.1499 17.9773 22.8756 18.0954C22.2258 18.3753 21.6114 18.7204 21.0368 19.1195C20.9284 19.1944 20.8218 19.2707 20.7166 19.3495C20.6741 19.3816 20.633 19.4145 20.5914 19.4468C20.4393 19.564 20.2917 19.6855 20.1468 19.8101C20.0682 19.8779 19.9893 19.9446 19.9124 20.0148C19.5447 20.3498 19.2008 20.7098 18.881 21.0902C18.6799 21.3299 18.4895 21.579 18.309 21.8347C17.5733 22.8754 17.0135 24.0426 16.6652 25.281C16.619 25.4438 16.5774 25.6077 16.539 25.7723C16.5022 25.9301 16.4691 26.0886 16.4394 26.2476C16.4385 26.2511 16.4378 26.255 16.437 26.2576C16.34 26.7835 16.2814 27.319 16.2628 27.8598C16.2574 28.0141 16.2552 28.1674 16.257 28.3221C16.2583 28.4742 16.2622 28.6267 16.2702 28.7796C16.2866 29.095 16.3154 29.4118 16.3607 29.729C16.4478 30.3377 16.5893 30.9265 16.7671 31.4977C16.8116 31.6397 16.8589 31.7797 16.9086 31.9196C16.9584 32.06 17.0117 32.1987 17.0665 32.336C18.69 36.3885 22.538 39.2069 26.8776 39.2069C27.3564 39.2069 27.8403 39.1727 28.317 39.1042C30.7169 38.7611 33.986 36.7775 35.4543 34.7731C37.1025 32.5236 37.697 29.657 37.1276 26.7029C37.1017 26.5598 37.0627 26.4221 37.0302 26.2816ZM19.1154 24.9498C19.1962 24.7491 19.2827 24.5516 19.3771 24.3579C19.734 23.6282 20.186 22.9515 20.7212 22.3462C21.5431 21.416 22.5521 20.6551 23.7034 20.1529C23.8485 20.0901 23.9993 20.0389 24.1484 19.984C24.2953 19.9298 24.4418 19.8748 24.5924 19.8287C24.7064 19.794 24.8238 19.7676 24.94 19.7377C25.0587 19.7076 25.1744 19.6699 25.2953 19.6445C25.7901 19.5416 26.2891 19.4894 26.7792 19.4894C28.3222 19.4894 29.7038 19.9897 30.8815 20.7911C31.6723 21.3297 32.369 22.0052 32.9568 22.7652C33.5223 23.4958 33.9898 24.2999 34.3408 25.1345C34.6156 25.7882 34.823 26.4577 34.9505 27.1206C34.9565 27.15 34.9582 27.1787 34.963 27.208C35.3859 29.5183 34.9292 31.7358 33.6657 33.4606C32.5367 35.0018 29.8378 36.6448 28.0033 36.9074C27.6303 36.9603 27.2524 36.9876 26.8785 36.9876C23.4794 36.9876 20.4564 34.7747 19.1501 31.5815C19.0942 31.4447 19.0431 31.306 18.9935 31.1661C18.9443 31.0261 18.899 30.8849 18.856 30.7418C18.7273 30.3111 18.6222 29.8701 18.5566 29.4134C18.4868 28.9277 18.4682 28.4438 18.4821 27.9637C18.4868 27.7956 18.4974 27.6283 18.5118 27.4619C18.5267 27.2904 18.5392 27.1184 18.5641 26.949C18.6368 26.4567 18.7561 25.9763 18.9084 25.5083C18.9714 25.3189 19.0414 25.1344 19.1154 24.9498Z" fill="#787878"/>
<path d="M22.7207 25.8917C22.9106 26.429 23.2345 26.909 23.6415 27.2699C23.7649 27.3795 23.8966 27.4748 24.034 27.5607C24.1648 27.6421 24.3005 27.7131 24.4409 27.7699C24.4682 27.7807 24.495 27.7963 24.5228 27.8063C25.0181 27.9857 25.5332 28.0979 26.0249 28.1885C26.0579 29.182 26.0826 30.214 26.0994 31.3284C25.5578 31.0295 25.0301 30.6274 24.6675 30.2331C24.466 30.0131 24.2139 29.8969 23.9374 29.8969C23.5249 29.8969 23.1176 30.1686 22.9473 30.5573C22.7896 30.9169 22.858 31.2964 23.1358 31.5997C23.8857 32.4169 24.9915 33.1387 26.118 33.5512L26.1201 33.8844C26.1183 34.1717 26.2184 34.4252 26.4087 34.6171C26.6102 34.8189 26.8983 34.9351 27.1986 34.9351C27.6639 34.9351 28.1661 34.638 28.17 33.9837L28.1696 33.9205C29.0336 33.8927 29.7675 33.6063 30.3516 33.066C31.3654 32.1297 31.9954 30.7939 31.9542 29.6648C31.9304 28.9983 31.6761 28.4082 31.219 27.9364C31.1341 27.8493 31.0448 27.7648 30.9465 27.6856C30.0708 26.9863 29.0223 26.6769 28.0049 26.4595C27.9936 26.1692 27.9802 25.8792 27.969 25.5885C27.9498 25.1232 27.9312 24.6583 27.9109 24.1925C28.2592 24.2853 28.5963 24.4048 28.8974 24.5435C29.4727 24.8094 30.0612 24.4772 30.1989 23.8516C30.2622 23.566 30.2162 23.2324 30.0261 22.9655C29.9269 22.826 29.7904 22.7034 29.6046 22.618C29.0691 22.3706 28.4551 22.1825 27.8181 22.0699V22.0609C27.7891 21.3871 27.2197 21.0244 26.6994 21.0244C26.4217 21.0244 26.1743 21.1224 26.0032 21.3009C25.8377 21.4742 25.7561 21.7099 25.7683 21.9802L25.7692 21.995C25.5547 22.0202 25.3503 22.0592 25.1514 22.1051C24.9542 22.1518 24.7631 22.2064 24.5834 22.2737C24.4274 22.3313 24.2805 22.3988 24.1388 22.4716C23.9824 22.5522 23.8329 22.6398 23.6947 22.7377C23.4997 22.8754 23.3221 23.0306 23.1653 23.2025C23.0734 23.3035 22.9955 23.4127 22.9235 23.5253C22.5525 24.1059 22.4417 24.8364 22.6271 25.5877C22.6519 25.6924 22.6856 25.792 22.7207 25.8917ZM29.9292 29.8388C29.9284 30.4814 29.3153 31.3077 28.8936 31.5941C28.6813 31.7379 28.4335 31.8259 28.1536 31.8588C28.1402 30.7167 28.1172 29.6413 28.0839 28.5858C28.7195 28.754 29.2048 28.9649 29.6302 29.2549C29.8321 29.3925 29.9296 29.5832 29.9292 29.8388ZM25.9417 26.0598C25.8035 26.0304 25.6657 25.9983 25.5301 25.9645C25.0521 25.8445 24.6714 25.4588 24.6263 25.0468C24.6076 24.8796 24.6505 24.728 24.745 24.5944C24.8304 24.474 24.9578 24.3669 25.1307 24.2798C25.3413 24.1742 25.5847 24.0978 25.8585 24.0502C25.8729 24.3899 25.8863 24.7297 25.901 25.0698C25.9148 25.3999 25.9282 25.7297 25.9417 26.0598Z" fill="#787878"/>
</svg>
