<svg width="40" height="40" viewBox="0 0 40 40" fill="none" xmlns="http://www.w3.org/2000/svg">
<path d="M37.5579 15.0288H37.3135L33.3758 11.6015L31.1806 13.7964L34.0246 16.2703L31.6195 18.1505L20 26.6717L8.38027 18.15L6.04043 16.3922L8.84255 13.936V9.75483L2.78389 15.0293H2.44208C2.22696 15.0293 2.05225 15.204 2.05225 15.4196V39.6102C2.05225 39.8253 2.22696 39.9999 2.44208 39.9999H37.558C37.7732 39.9999 37.9478 39.8252 37.9478 39.6102V15.4191C37.9473 15.2035 37.7731 15.0288 37.5579 15.0288ZM34.8261 36.8783H5.17346V19.6695L19.7695 30.3731C19.9073 30.4742 20.0932 30.4742 20.2313 30.3731L34.8271 19.6695V36.8783H34.8261ZM17.6948 6.17612H12.9531L20.0479 0L27.1433 6.17655H22.4198L20.0479 4.11326L17.6948 6.17612ZM11.1669 18.679L9.59803 17.3671V6.9704H29.2067V7.47189C28.7487 7.78269 28.2336 8.1803 27.6383 8.69999V8.5392H11.1669V18.679ZM30.8084 8.91408L30.9867 8.73527C31.3351 8.38662 31.8476 8.30452 32.2759 8.48478L32.9183 7.84224L33.8888 8.81276L33.2556 9.44624C33.4596 9.88161 33.3858 10.4153 33.0253 10.7752L23.459 20.3419C23.1854 20.6161 22.8097 20.7221 22.4536 20.6697C21.3391 21.4534 20.4928 21.8129 20.2206 21.5401C19.9486 21.2685 20.3079 20.4222 21.0916 19.3077C21.0381 18.952 21.1452 18.576 21.4194 18.3025L29.9015 9.8195C29.242 10.1344 27.9957 11.0016 25.7501 13.3246C25.6037 13.4639 25.3516 13.4842 25.1956 13.3336C25.0396 13.1832 25.0356 12.935 25.1861 12.7794C28.9118 8.92741 30.1863 8.70426 30.8084 8.91408Z" fill="#787878"/>
</svg>
