<svg width="40" height="40" xmlns="http://www.w3.org/2000/svg">

 <g>
  <title>background</title>
  <rect fill="none" id="canvas_background" height="42" width="42" y="-1" x="-1"/>
 </g>
 <g>
  <title>Layer 1</title>
  <path fill="#787878" stroke="null" id="svg_1" d="m33.376772,0.815863l-25.837084,0c-1.681359,0 -3.049623,1.22253 -3.049623,2.724807l0,33.000445c0,1.502277 1.368264,2.724807 3.049623,2.724807l25.837084,0c1.681359,0 3.049623,-1.22253 3.049623,-2.724807l0,-33.000445c0,-1.502277 -1.368264,-2.724807 -3.049623,-2.724807zm1.016541,35.725252c0,0.500759 -0.456088,0.908269 -1.016541,0.908269l-25.837084,0c-0.560453,0 -1.016541,-0.40751 -1.016541,-0.908269l0,-33.000445c0,-0.500759 0.456088,-0.908269 1.016541,-0.908269l25.837084,0c0.560453,0 1.016541,0.40751 1.016541,0.908269l0,33.000445z"/>
  <path fill="#787878" stroke="null" id="svg_2" d="m9.418236,9.094853l23.09981,0c0.66818,0 1.21047,-0.609637 1.21047,-1.362826s-0.542291,-1.362826 -1.21047,-1.362826l-23.09981,0c-0.668987,0 -1.21047,0.609637 -1.21047,1.362826s0.541484,1.362826 1.21047,1.362826z"/>
  <path fill="#787878" stroke="null" id="svg_3" d="m9.6915,14.204976l14.47421,0c0.767017,0 1.389524,-0.624978 1.389524,-1.397119s-0.622507,-1.397119 -1.389524,-1.397119l-14.47421,0c-0.767944,0 -1.389524,0.624978 -1.389524,1.397119s0.62158,1.397119 1.389524,1.397119z"/>
  <path fill="#787878" stroke="null" id="svg_4" d="m9.695085,23.88028l22.092912,0c0.791046,0 1.433054,-0.548275 1.433054,-1.225652s-0.642008,-1.225652 -1.433054,-1.225652l-22.092912,0c-0.792001,0 -1.433054,0.548275 -1.433054,1.225652s0.641053,1.225652 1.433054,1.225652z"/>
  <path fill="#787878" stroke="null" id="svg_5" d="m21.907776,17.858796c0,-0.67656 -0.620437,-1.225652 -1.386968,-1.225652l-10.691672,0c-0.766531,0 -1.386968,0.549092 -1.386968,1.225652s0.620437,1.225652 1.386968,1.225652l10.691672,0c0.765606,0 1.386968,-0.549092 1.386968,-1.225652z"/>
  <path fill="#787878" stroke="null" id="svg_6" d="m29.822716,30.758595l-2.561109,2.591491l-2.661233,-5.954284c-0.009667,-0.020715 -0.022787,-0.039359 -0.033835,-0.059384c-0.017263,-0.033145 -0.035216,-0.06698 -0.056622,-0.098053c-0.020025,-0.031073 -0.043502,-0.058003 -0.06698,-0.085623c-0.019334,-0.022787 -0.038669,-0.046264 -0.060075,-0.068361c-0.031764,-0.031073 -0.065599,-0.058003 -0.100815,-0.084933c-0.014501,-0.011048 -0.026239,-0.024168 -0.042121,-0.035216c-0.004834,-0.003453 -0.010358,-0.005524 -0.015191,-0.008286c-0.035907,-0.023477 -0.073194,-0.043502 -0.111863,-0.062146c-0.024168,-0.012429 -0.046955,-0.025549 -0.071813,-0.035907c-0.032454,-0.01381 -0.06698,-0.021406 -0.100815,-0.031073c-0.031073,-0.009667 -0.061456,-0.020025 -0.093219,-0.026239c-0.032454,-0.006215 -0.064908,-0.006905 -0.097362,-0.010358c-0.033835,-0.003453 -0.06767,-0.008286 -0.100815,-0.007596c-0.031764,0 -0.063527,0.004834 -0.0946,0.008286c-0.035907,0.003453 -0.071123,0.005524 -0.105648,0.01312c-0.02762,0.005524 -0.055241,0.015191 -0.082861,0.023477c-0.038669,0.011739 -0.076647,0.022096 -0.113934,0.037978c-0.006905,0.002762 -0.01381,0.004143 -0.020025,0.006905c-0.020025,0.009667 -0.037288,0.022096 -0.056622,0.032454c-0.035216,0.017953 -0.069742,0.036597 -0.102196,0.058694c-0.02762,0.018644 -0.052479,0.04074 -0.077337,0.062146c-0.026239,0.021406 -0.051788,0.042121 -0.075956,0.06698c-0.02762,0.028311 -0.051788,0.058694 -0.075956,0.090457c-0.01381,0.016572 -0.029692,0.031073 -0.042121,0.049026l-3.256454,4.742436l-0.801684,-0.8224c-0.004834,-0.005524 -0.012429,-0.006905 -0.017263,-0.012429c-0.035907,-0.034526 -0.070432,-0.070432 -0.111863,-0.100815c-0.063527,-0.046264 -0.131197,-0.082861 -0.200939,-0.113244c-0.011048,-0.004834 -0.022096,-0.006905 -0.033145,-0.011048c-0.115315,-0.044883 -0.234774,-0.071813 -0.355614,-0.073885c-0.010358,0 -0.020025,0.002072 -0.030383,0.002072c-0.122911,0.000691 -0.244441,0.021406 -0.359757,0.064908c-0.009667,0.004143 -0.017953,0.009667 -0.02762,0.01381c-0.115315,0.046955 -0.223726,0.114625 -0.317635,0.205082c-0.003453,0.002762 -0.007596,0.003453 -0.011048,0.006905c-0.006215,0.006215 -0.008286,0.014501 -0.014501,0.020715c-0.033835,0.035216 -0.068361,0.068361 -0.097362,0.10841l-1.898908,2.58942c-0.338351,0.461262 -0.238917,1.108962 0.222345,1.448003c0.185057,0.13465 0.399116,0.200248 0.611794,0.200248c0.318326,0 0.633199,-0.146389 0.835519,-0.423284l1.175942,-1.603369l0.823781,0.845877c0.000691,0.000691 0.000691,0.000691 0.001381,0.001381l0.003453,0.004143c0.001381,0.001381 0.002762,0.001381 0.004143,0.002762c0.045574,0.046264 0.095981,0.089767 0.151222,0.128435c0.041431,0.028311 0.087004,0.042121 0.130507,0.063527c0.033835,0.016572 0.065599,0.035907 0.100815,0.048336c0.115315,0.042812 0.234084,0.070432 0.353542,0.070432c0,0 0,0 0.000691,0l0,0c0.000691,0 0.000691,0 0.001381,0c0.116006,-0.000691 0.22925,-0.02693 0.339041,-0.064908c0.024168,-0.008977 0.047645,-0.016572 0.071813,-0.02693c0.107029,-0.046264 0.206463,-0.109101 0.294158,-0.191272c0.004834,-0.004834 0.012429,-0.006215 0.016572,-0.011048c0.011048,-0.010358 0.014501,-0.024168 0.024168,-0.035216c0.036597,-0.039359 0.075266,-0.075266 0.106339,-0.12084l2.925008,-4.260458l2.514154,5.623529l0,0.000691l0.012429,0.02693c0.049717,0.111172 0.120149,0.205082 0.199558,0.287943c0.007596,0.008286 0.009667,0.018644 0.017263,0.026239c0.015882,0.015191 0.037978,0.020715 0.05455,0.035907c0.071813,0.062146 0.149151,0.113244 0.234084,0.153984c0.031764,0.014501 0.061456,0.031073 0.0946,0.042812c0.109791,0.039359 0.224416,0.066289 0.343184,0.066289c0.000691,0 0.001381,0.000691 0.002072,0.000691l0,0c0.000691,0 0.000691,0 0.000691,0c0.12153,0 0.244441,-0.026239 0.363209,-0.071813c0.01381,-0.004834 0.026239,-0.006905 0.039359,-0.012429c0.006905,-0.003453 0.01312,-0.004143 0.019334,-0.006905c0.114625,-0.051098 0.212678,-0.122911 0.297611,-0.205773c0.004834,-0.004834 0.012429,-0.006215 0.016572,-0.011739l3.625187,-3.66869c0.401878,-0.407402 0.397735,-1.062698 -0.008977,-1.465266c-0.406021,-0.400497 -1.060626,-0.398425 -1.463195,0.008286z"/>
 </g>
</svg>