<svg width="40" height="40" viewBox="0 0 40 40" fill="none" xmlns="http://www.w3.org/2000/svg">
<g clip-path="url(#clip0)">
<path d="M24.6888 23.619C24.6888 21.0381 22.5892 18.9385 20.0084 18.9385C17.4275 18.9385 15.3279 21.0381 15.3279 23.619C15.3279 26.1995 17.4275 28.2994 20.0084 28.2994C22.5892 28.2994 24.6888 26.1995 24.6888 23.619ZM20.0084 25.959C18.7178 25.959 17.668 24.9092 17.668 23.619C17.668 22.3284 18.7178 21.2786 20.0084 21.2786C21.2986 21.2786 22.3484 22.3284 22.3484 23.619C22.3484 24.9092 21.2986 25.959 20.0084 25.959Z" fill="#787878"/>
<path d="M12.9874 25.9588C12.9874 23.3779 10.8878 21.2783 8.30695 21.2783C5.72607 21.2783 3.62646 23.3779 3.62646 25.9588C3.62646 28.5397 5.72607 30.6393 8.30695 30.6393C10.8878 30.6393 12.9874 28.5397 12.9874 25.9588ZM8.30695 28.2992C7.01666 28.2992 5.96686 27.2494 5.96686 25.9588C5.96686 24.6685 7.01666 23.6187 8.30695 23.6187C9.59753 23.6187 10.6473 24.6685 10.6473 25.9588C10.6473 27.2494 9.59753 28.2992 8.30695 28.2992Z" fill="#787878"/>
<path d="M36.3898 25.9588C36.3898 23.3779 34.2902 21.2783 31.7093 21.2783C29.1284 21.2783 27.0288 23.3779 27.0288 25.9588C27.0288 28.5397 29.1284 30.6393 31.7093 30.6393C34.2902 30.6393 36.3898 28.5397 36.3898 25.9588ZM31.7093 28.2992C30.419 28.2992 29.3692 27.2494 29.3692 25.9588C29.3692 24.6685 30.419 23.6187 31.7093 23.6187C32.9999 23.6187 34.0497 24.6685 34.0497 25.9588C34.0497 27.2494 32.9999 28.2992 31.7093 28.2992Z" fill="#787878"/>
<path d="M31.7092 30.6389C30.0002 30.6389 28.3358 31.1815 26.9583 32.1602C25.5096 29.8433 22.936 28.2988 20.0082 28.2988C17.08 28.2988 14.5065 29.8433 13.0581 32.1602C11.6802 31.1815 10.0158 30.6389 8.30682 30.6389C3.7475 30.6389 0.0380859 34.3132 0.0380859 38.8298V39.9999H39.978V38.8298C39.978 34.3132 36.2689 30.6389 31.7092 30.6389ZM2.4975 37.6598C3.04834 34.9926 5.44397 32.9793 8.30682 32.9793C9.71826 32.9793 11.0406 33.47 12.0956 34.3715C11.9143 35.0475 11.8173 35.7573 11.8173 36.4894V37.6598H2.4975ZM25.8587 37.6598H14.1577V36.4894C14.1577 33.2634 16.7822 30.6389 20.0082 30.6389C23.2342 30.6389 25.8587 33.2634 25.8587 36.4894V37.6598ZM28.1988 37.6598V36.4894C28.1988 35.7573 28.1017 35.0475 27.9208 34.3715C28.9758 33.47 30.2981 32.9793 31.7092 32.9793C34.5724 32.9793 36.9677 34.9926 37.5189 37.6598H28.1988Z" fill="#787878"/>
</g>
<defs>
<clipPath id="clip0">
<rect width="40" height="40" fill="white"/>
</clipPath>
</defs>
</svg>
