<svg width="40" height="40" viewBox="0 0 40 40" fill="none" xmlns="http://www.w3.org/2000/svg">
<path d="M15 15.625H20C20.1658 15.625 20.3247 15.5592 20.4419 15.4419C20.5592 15.3247 20.625 15.1658 20.625 15V10C20.625 9.83424 20.5592 9.67527 20.4419 9.55806C20.3247 9.44085 20.1658 9.375 20 9.375H15C14.8342 9.375 14.6753 9.44085 14.5581 9.55806C14.4408 9.67527 14.375 9.83424 14.375 10V15C14.375 15.1658 14.4408 15.3247 14.5581 15.4419C14.6753 15.5592 14.8342 15.625 15 15.625ZM15.625 10.625H19.375V14.375H15.625V10.625Z" fill="#787878"/>
<path d="M20 23.125C20.1658 23.125 20.3247 23.0592 20.4419 22.9419C20.5592 22.8247 20.625 22.6658 20.625 22.5V17.5C20.625 17.3342 20.5592 17.1753 20.4419 17.0581C20.3247 16.9408 20.1658 16.875 20 16.875H15C14.8342 16.875 14.6753 16.9408 14.5581 17.0581C14.4408 17.1753 14.375 17.3342 14.375 17.5V22.5C14.375 22.6658 14.4408 22.8247 14.5581 22.9419C14.6753 23.0592 14.8342 23.125 15 23.125H20ZM15.625 18.125H19.375V21.875H15.625V18.125Z" fill="#787878"/>
<path d="M21.875 9.375H29.375V10.625H21.875V9.375Z" fill="#787878"/>
<path d="M21.875 11.875H29.375V13.125H21.875V11.875Z" fill="#787878"/>
<path d="M21.875 16.875H26.875V18.125H21.875V16.875Z" fill="#787878"/>
<path d="M21.875 19.375H25.625V20.625H21.875V19.375Z" fill="#787878"/>
<path d="M37.9238 12.7013C37.5665 12.3605 37.0918 12.1704 36.5981 12.1704C36.1045 12.1704 35.6297 12.3605 35.2725 12.7013L35 12.9737V5.625C35 5.12772 34.8025 4.65081 34.4508 4.29917C34.0992 3.94754 33.6223 3.75 33.125 3.75H27.9875L27.7181 2.67C27.6166 2.26432 27.3825 1.9042 27.0528 1.64691C26.7231 1.38961 26.3169 1.24991 25.8988 1.25H17.8512C17.4331 1.24991 17.0269 1.38961 16.6972 1.64691C16.3675 1.9042 16.1334 2.26432 16.0319 2.67L15.7625 3.75H10.625C10.1277 3.75 9.65081 3.94754 9.29917 4.29917C8.94754 4.65081 8.75 5.12772 8.75 5.625V25H3.125C2.62772 25 2.15081 25.1975 1.79917 25.5492C1.44754 25.9008 1.25 26.3777 1.25 26.875V36.875C1.25 37.3723 1.44754 37.8492 1.79917 38.2008C2.15081 38.5525 2.62772 38.75 3.125 38.75H33.125C33.6223 38.75 34.0992 38.5525 34.4508 38.2008C34.8025 37.8492 35 37.3723 35 36.875V19.16L35.7137 18.4469C35.8309 18.3297 35.8967 18.1707 35.8967 18.005C35.8967 17.8393 35.8309 17.6803 35.7137 17.5631L37.9238 15.3531C38.0979 15.179 38.236 14.9723 38.3303 14.7448C38.4245 14.5173 38.473 14.2734 38.473 14.0272C38.473 13.7809 38.4245 13.5371 38.3303 13.3096C38.236 13.0821 38.0979 12.8754 37.9238 12.7013ZM33.5037 18.8888L31.7362 17.1212L32.62 16.2369L34.3881 18.005L33.5037 18.8888ZM7.5 26.25H8.75V30.3662L8.56687 30.1831C8.44967 30.066 8.29073 30.0001 8.125 30.0001C7.95927 30.0001 7.80033 30.066 7.68313 30.1831L7.5 30.3662V26.25ZM10 26.25H13.125C13.2908 26.25 13.4497 26.3158 13.5669 26.4331C13.6842 26.5503 13.75 26.7092 13.75 26.875V28.75H10V26.25ZM13.125 25H11.875V6.875H15.0162C15.0107 7.01255 15.0516 7.14798 15.1325 7.25937C15.1909 7.33427 15.2656 7.39486 15.351 7.43656C15.4363 7.47825 15.53 7.49995 15.625 7.5H28.125C28.22 7.49995 28.3137 7.47825 28.399 7.43656C28.4844 7.39486 28.5591 7.33427 28.6175 7.25937C28.6984 7.14798 28.7393 7.01255 28.7337 6.875H31.875V15.2144L30.4106 16.6794C30.2935 16.7966 30.2276 16.9555 30.2276 17.1212C30.2276 17.287 30.2935 17.4459 30.4106 17.5631L18.2188 29.7537L18.2294 29.7644C18.1799 29.808 18.1377 29.8593 18.1044 29.9163L16.3369 33.4519C16.2781 33.5692 16.2577 33.7021 16.2787 33.8317C16.2997 33.9613 16.3609 34.081 16.4537 34.1738C16.5465 34.2666 16.6662 34.3278 16.7958 34.3488C16.9254 34.3698 17.0583 34.3494 17.1756 34.2906L20.7113 32.5231C20.768 32.4898 20.819 32.4476 20.8625 32.3981L20.8737 32.4088L31.875 21.4013V35.625H15V26.875C15 26.3777 14.8025 25.9008 14.4508 25.5492C14.0992 25.1975 13.6223 25 13.125 25ZM20.4288 31.08L19.545 30.1956L31.295 18.4456L32.1787 19.3294L20.4288 31.08ZM18.8325 31.25L19.3737 31.7919L18.2906 32.3338L18.8325 31.25ZM33.125 5C33.2908 5 33.4497 5.06585 33.5669 5.18306C33.6842 5.30027 33.75 5.45924 33.75 5.625V14.2237L33.125 14.8487V6.25C33.125 6.08424 33.0592 5.92527 32.9419 5.80806C32.8247 5.69085 32.6658 5.625 32.5 5.625H28.4562L28.3 5H33.125ZM17.2444 2.97375C17.2781 2.83838 17.3562 2.71819 17.4662 2.63234C17.5762 2.54648 17.7117 2.4999 17.8512 2.5H25.8988C26.0383 2.4999 26.1738 2.54648 26.2838 2.63234C26.3938 2.71819 26.4719 2.83838 26.5056 2.97375L27.325 6.25H16.425L17.2444 2.97375ZM10 5.625C10 5.45924 10.0658 5.30027 10.1831 5.18306C10.3003 5.06585 10.4592 5 10.625 5H15.45L15.2937 5.625H11.25C11.0842 5.625 10.9253 5.69085 10.8081 5.80806C10.6908 5.92527 10.625 6.08424 10.625 6.25V25H10V5.625ZM3.125 26.25H6.25V28.75H2.5V26.875C2.5 26.7092 2.56585 26.5503 2.68306 26.4331C2.80027 26.3158 2.95924 26.25 3.125 26.25ZM3.125 37.5C2.95924 37.5 2.80027 37.4342 2.68306 37.3169C2.56585 37.1997 2.5 37.0408 2.5 36.875V30H6.25V31.875C6.25003 31.9986 6.2867 32.1194 6.35537 32.2222C6.42405 32.3249 6.52165 32.405 6.63584 32.4523C6.75003 32.4996 6.87567 32.512 6.99689 32.4879C7.11811 32.4638 7.22947 32.4043 7.31687 32.3169L8.125 31.5088L8.93313 32.3169C9.02053 32.4043 9.13189 32.4638 9.25311 32.4879C9.37433 32.512 9.49997 32.4996 9.61416 32.4523C9.72835 32.405 9.82595 32.3249 9.89463 32.2222C9.9633 32.1194 9.99997 31.9986 10 31.875V30H13.75V36.875C13.75 37.0408 13.6842 37.1997 13.5669 37.3169C13.4497 37.4342 13.2908 37.5 13.125 37.5H3.125ZM33.125 37.5H14.885C14.959 37.2998 14.9979 37.0884 15 36.875H32.5C32.6658 36.875 32.8247 36.8092 32.9419 36.6919C33.0592 36.5747 33.125 36.4158 33.125 36.25V20.2569C33.2101 20.3292 33.314 20.3759 33.4247 20.3916C33.5353 20.4074 33.6481 20.3914 33.75 20.3456V36.875C33.75 37.0408 33.6842 37.1997 33.5669 37.3169C33.4497 37.4342 33.2908 37.5 33.125 37.5ZM37.04 14.4694L34.83 16.6788L33.9456 15.795L36.1562 13.585C36.2754 13.4715 36.4336 13.4082 36.5981 13.4082C36.7627 13.4082 36.9209 13.4715 37.04 13.585C37.0981 13.643 37.1442 13.712 37.1757 13.7879C37.2071 13.8637 37.2233 13.9451 37.2233 14.0272C37.2233 14.1093 37.2071 14.1907 37.1757 14.2665C37.1442 14.3424 37.0981 14.4113 37.04 14.4694Z" fill="#787878"/>
<path d="M22.5 3.75H25V5H22.5V3.75Z" fill="#787878"/>
<path d="M18.75 3.75H21.25V5H18.75V3.75Z" fill="#787878"/>
</svg>
