<svg width="40" height="40" xmlns="http://www.w3.org/2000/svg">

 <g>
  <title>background</title>
  <rect fill="none" id="canvas_background" height="42" width="42" y="-1" x="-1"/>
 </g>
 <g>
  <title>Layer 1</title>
  <path fill="#787878" stroke="null" id="svg_1" d="m3.452582,5.398853l0,33.800838l28.66571,0l0,-4.828691l5.058655,0l0,-33.800838l-28.66571,0l0,4.828691l-5.058655,0zm26.979492,32.191274l-25.293274,0l0,-30.581711l3.372436,0l16.019073,0l0,5.633473l5.901764,0l0,21.72911l0,3.219127zm-4.215546,-29.443749l3.023389,2.885948l-3.023389,0l0,-2.885948zm-16.019073,-5.966653l25.293274,0l0,30.581711l-3.372436,0l0,-21.257508l-6.395826,-6.105075l-15.525011,0l0,-3.219127z"/>
  <rect fill="#787878" id="svg_2" y="19.226291" x="6.787587" width="22" height="2"/>
  <rect fill="#787878" id="svg_3" y="25.226291" x="6.787587" width="22" height="2"/>
  <rect fill="#787878" id="svg_4" y="31.226291" x="6.873554" width="22" height="2"/>
  <rect fill="#787878" id="svg_5" y="40" x="11" width="9" height="2"/>
  <rect fill="#787878" id="svg_6" y="40" x="24" width="9" height="2"/>
  <rect fill="#787878" id="svg_7" y="13.226291" x="13.787587" width="8" height="2"/>
 </g>
</svg>