<svg width="20" height="20" viewBox="0 0 20 20" fill="none" xmlns="http://www.w3.org/2000/svg">
<path d="M10.8243 9.92575C8.90045 10.3826 8.52081 10.7616 8.39584 10.8861C8.04642 11.235 7.85385 11.6988 7.85385 12.1923C7.85385 12.6858 8.04642 13.1496 8.39584 13.4984C8.75626 13.8581 9.22959 14.0378 9.70307 14.0378C10.1764 14.0378 10.6497 13.8581 11.0101 13.4984C11.5147 12.9947 11.8475 11.5995 11.9728 11.0741C12.0502 10.7499 11.9557 10.4154 11.7201 10.1797C11.4841 9.94345 11.1493 9.84854 10.8243 9.92575ZM10.1823 12.669C9.91806 12.9326 9.48807 12.9326 9.22379 12.669C9.09607 12.5416 9.02573 12.3722 9.02573 12.1923C9.02573 12.0124 9.09607 11.843 9.22364 11.7156C9.30893 11.6314 9.73465 11.4147 10.7457 11.1526C10.4834 12.1599 10.2667 12.584 10.1823 12.669Z" fill="white"/>
<path d="M9.92661 6.20508C6.74545 6.20508 4.15741 8.78839 4.15741 11.9636C4.15741 15.1389 6.74545 17.7223 9.92661 17.7223C13.1076 17.7223 15.6956 15.1389 15.6956 11.9636C15.6956 8.78839 13.1076 6.20508 9.92661 6.20508ZM9.92661 16.5504C7.39166 16.5504 5.32928 14.4927 5.32928 11.9636C5.32928 9.4346 7.39166 7.37695 9.92661 7.37695C12.4615 7.37695 14.5238 9.4346 14.5238 11.9636C14.5238 14.4927 12.4615 16.5504 9.92661 16.5504Z" fill="white"/>
<path d="M17.7177 6.76117C17.9552 6.5239 18.0859 6.20834 18.0859 5.8728C18.0859 5.53711 17.9552 5.22171 17.7177 4.98428L16.9096 4.17679C16.4198 3.68713 15.6226 3.68713 15.1328 4.17679L14.1716 5.13718C13.4349 4.67911 12.6189 4.33655 11.7494 4.13483V3.12637H11.9553C12.4655 3.12637 12.8806 2.71118 12.8806 2.20108V0.925293C12.8806 0.415192 12.4655 0 11.9553 0H7.8978C7.38754 0 6.9725 0.415192 6.9725 0.925293V2.20093C6.9725 2.71118 7.38754 3.12622 7.8978 3.12622H8.10364V4.13483C4.53918 4.9614 1.875 8.15781 1.875 11.9635C1.875 16.3948 5.48691 20 9.92661 20C14.3661 20 17.9781 16.3948 17.9781 11.9635C17.9781 10.406 17.5319 8.95065 16.7604 7.7179L17.7177 6.76117ZM15.9612 5.00565C15.9943 4.97253 16.0481 4.97253 16.0812 5.00565L16.8893 5.81329C16.9098 5.83374 16.9141 5.85693 16.9141 5.8728C16.9141 5.88867 16.9098 5.91202 16.8893 5.93231L16.0593 6.76178C15.7753 6.42868 15.4645 6.11893 15.1305 5.83572L15.9612 5.00565ZM8.14438 1.17188H11.7087V1.9545H8.14438V1.17188ZM9.27551 3.12637H10.5775V3.95309C10.3627 3.93585 10.1457 3.92715 9.92661 3.92715C9.70749 3.92715 9.49036 3.93585 9.27551 3.95309V3.12637ZM9.92661 18.8281C6.13312 18.8281 3.04688 15.7486 3.04688 11.9635C3.04688 8.17841 6.13312 5.09903 9.92661 5.09903C13.7201 5.09903 16.8062 8.17841 16.8062 11.9635C16.8062 15.7486 13.7201 18.8281 9.92661 18.8281Z" fill="white"/>
</svg>
