<svg width="20" height="20" viewBox="0 0 20 20" fill="none" xmlns="http://www.w3.org/2000/svg">
<g clip-path="url(#clip0)">
<path d="M18.125 17.5001H1.87501C0.841081 17.5001 0 16.659 0 15.625V12.5C0 12.1546 0.279533 11.875 0.625004 11.875C1.65893 11.875 2.50002 11.0339 2.50002 10C2.50002 8.96607 1.65893 8.12499 0.625004 8.12499C0.279533 8.12504 0 7.8455 0 7.50003V4.37501C0 3.34108 0.841081 2.5 1.87501 2.5H18.125C19.159 2.5 20 3.34108 20 4.37501V7.50003C20 7.8455 19.7205 8.12504 19.375 8.12504C18.3411 8.12504 17.5 8.96612 17.5 10C17.5 11.034 18.3411 11.8751 19.375 11.8751C19.7205 11.8751 20 12.1546 20 12.5001V15.6251C20 16.659 19.159 17.5001 18.125 17.5001ZM1.25001 13.0622V15.625C1.25001 15.9699 1.53017 16.25 1.87501 16.25H18.125C18.4699 16.25 18.75 15.9699 18.75 15.625V13.0622C17.3255 12.7716 16.25 11.5094 16.25 10C16.25 8.49058 17.3254 7.22841 18.75 6.93785V4.37501C18.75 4.03017 18.4699 3.75001 18.125 3.75001H1.87501C1.53017 3.75001 1.25001 4.03017 1.25001 4.37501V6.93789C2.67456 7.22841 3.75002 8.49062 3.75002 10C3.75002 11.5095 2.67456 12.7716 1.25001 13.0622Z" fill="white"/>
<path d="M7.54016 14.7725L11.2888 4.77599L12.4592 5.21489L8.71056 15.2114L7.54016 14.7725Z" fill="white"/>
<path d="M7.04332 10.21C6.00939 10.21 5.1683 9.3689 5.1683 8.33497C5.1683 7.30104 6.00939 6.45996 7.04332 6.45996C8.07725 6.45996 8.91833 7.30104 8.91833 8.33497C8.91833 9.3689 8.07725 10.21 7.04332 10.21ZM7.04332 7.70997C6.69848 7.70997 6.41831 7.99013 6.41831 8.33497C6.41831 8.67981 6.69848 8.95997 7.04332 8.95997C7.38816 8.95997 7.66832 8.67981 7.66832 8.33497C7.66832 7.99013 7.38816 7.70997 7.04332 7.70997Z" fill="white"/>
<path d="M13.5037 14.0869C12.4698 14.0869 11.6287 13.2459 11.6287 12.2119C11.6287 11.178 12.4698 10.3369 13.5037 10.3369C14.5376 10.3369 15.3787 11.178 15.3787 12.2119C15.3787 13.2459 14.5376 14.0869 13.5037 14.0869ZM13.5037 11.5869C13.1589 11.5869 12.8787 11.8671 12.8787 12.2119C12.8787 12.5568 13.1589 12.8369 13.5037 12.8369C13.8485 12.8369 14.1287 12.5568 14.1287 12.2119C14.1287 11.8671 13.8485 11.5869 13.5037 11.5869Z" fill="white"/>
</g>
<defs>
<clipPath id="clip0">
<rect width="20" height="20" fill="white"/>
</clipPath>
</defs>
</svg>
