<svg width="40" height="40" viewBox="0 0 40 40" fill="none" xmlns="http://www.w3.org/2000/svg">
<path d="M39.3333 14.6667H32.6667V8C32.6667 7.63183 32.3682 7.33333 32 7.33333H25.3333V0.666667C25.3333 0.2985 25.0348 0 24.6667 0H0.666667C0.2985 0 0 0.2985 0 0.666667V24.6667C0 25.0348 0.2985 25.3333 0.666667 25.3333H7.33333V32C7.33333 32.3682 7.63183 32.6667 8 32.6667H14.6667V39.3333C14.6667 39.7015 14.9652 40 15.3333 40H39.3333C39.7015 40 40 39.7015 40 39.3333V15.3333C40 14.9652 39.7015 14.6667 39.3333 14.6667ZM7.33333 8V24H1.33333V1.33333H24V7.33333H8C7.63183 7.33333 7.33333 7.63183 7.33333 8ZM14.6667 15.3333V31.3333H8.66667V8.66667H31.3333V14.6667H15.3333C14.9652 14.6667 14.6667 14.9652 14.6667 15.3333ZM38.6667 38.6667H16V16H38.6667V38.6667Z" fill="#787878"/>
</svg>
