<svg width="38" height="38" viewBox="0 0 38 38" fill="none" xmlns="http://www.w3.org/2000/svg">
<path d="M19 0.25C8.64478 0.25 0.25 8.64478 0.25 19C0.25 29.3552 8.64478 37.75 19 37.75C29.3552 37.75 37.75 29.3552 37.75 19C37.7383 8.64966 29.3503 0.261719 19 0.25ZM36.5 19C36.5027 21.8608 35.7996 24.6777 34.4531 27.2019L25.6621 22.125H32.75V18.375C32.7578 16.3604 31.6804 14.4978 29.9299 13.5L29.7085 13.375H31.5V9.625C31.4973 7.20996 29.54 5.25269 27.125 5.25C24.71 5.25269 22.7527 7.20996 22.75 9.625V13.375H24.5398L24.3196 13.5C22.5769 14.5056 21.5027 16.3633 21.5 18.375V19.7217L19.625 18.6387V1.51563C29.0347 1.86157 36.4878 9.58374 36.5 19ZM24.625 8.375V11.5C24.6277 11.7112 24.6572 11.9214 24.7139 12.125H24V9.625C24.0022 7.8999 25.3999 6.5022 27.125 6.5C28.8496 6.50293 30.2471 7.90039 30.25 9.625V12.125H29.5361C29.5928 11.9214 29.6223 11.7112 29.625 11.5V8.375H24.625ZM28.375 9.625V11.5C28.375 12.1904 27.8154 12.75 27.125 12.75C26.4346 12.75 25.875 12.1904 25.875 11.5V9.625H28.375ZM25.4888 13.375C26.4204 14.2085 27.8296 14.2085 28.7612 13.375H29.4075L27.125 15.625L24.8425 13.375H25.4888ZM27.125 17.375L29.7019 14.8374C29.886 14.9692 30.0591 15.1155 30.2195 15.2749C31.0415 16.0969 31.5024 17.2126 31.5 18.375V20.875H30.25V18.375H29V20.875H25.25V18.375H24V20.875H23.5L22.75 20.4438V18.375C22.7522 16.9775 23.4204 15.665 24.5493 14.8413L27.125 17.375ZM7.75 5.60938V9.625C7.75 11.0056 8.86938 12.125 10.25 12.125C11.6306 12.125 12.75 11.0056 12.75 9.625V8.91065C13.8938 8.65112 14.7944 7.77075 15.0801 6.63306L15.4255 5.25H8.19434C11.1035 2.95264 14.6704 1.64429 18.375 1.51563V18.6406L16.5 19.7239V16.5C16.4973 14.085 14.54 12.1277 12.125 12.125H8.375C5.95996 12.1277 4.00269 14.085 4 16.5V22.125H12.3369L3.54614 27.2007C-0.330078 19.9143 1.4231 10.9092 7.75 5.60938ZM12.0481 7.75H9V6.5H13.8125C13.5488 7.24854 12.8418 7.74976 12.0481 7.75ZM9 9H11.5V9.625C11.5 10.3154 10.9404 10.875 10.25 10.875C9.55957 10.875 9 10.3154 9 9.625V9ZM14.5 20.875H14V16.5H12.75V20.875H7.75V16.5H6.5V20.875H5.25V16.5C5.2522 14.7749 6.6499 13.3772 8.375 13.375H8.91699L8.3418 17.9756L10.25 19.8838L12.1582 17.9756L11.583 13.375H12.125C13.8501 13.3772 15.2478 14.7749 15.25 16.5V20.4431L14.5 20.875ZM10.3232 13.375L10.8418 17.5244L10.25 18.1162L9.6582 17.5244L10.1768 13.375H10.3232ZM16.5 36.3189V32.75H15.25V36.0913C14.8276 35.999 14.4106 35.8911 14 35.7681V32.75C14.0022 31.0249 15.3999 29.6272 17.125 29.625H17.667L17.0918 34.2256L19 36.1338L20.9082 34.2256L20.333 29.625H20.875C22.6001 29.6272 23.9978 31.0249 24 32.75V35.7681C23.5896 35.8931 23.1729 36.0007 22.75 36.0913V32.75H21.5V36.3189C19.842 36.5606 18.158 36.5606 16.5 36.3189ZM19.0732 29.625L19.5918 33.7744L19 34.3662L18.4082 33.7744L18.9268 29.625H19.0732ZM25.25 35.3418V32.75C25.2473 30.335 23.29 28.3777 20.875 28.375H17.125C14.71 28.3777 12.7527 30.335 12.75 32.75V35.3418C9.20386 33.9761 6.19531 31.499 4.17432 28.2813L19 19.7217L33.8252 28.2844C31.804 31.5012 28.7954 33.9771 25.25 35.3418Z" fill="#787878"/>
</svg>
