<svg width="40" height="40" viewBox="0 0 40 40" fill="none" xmlns="http://www.w3.org/2000/svg">
<path d="M16.875 38.75C19.0744 38.75 20.8952 37.1166 21.2001 35H27.8662L27.0581 35.8081L27.9419 36.6919L29.8169 34.8169C29.939 34.6948 30 34.5349 30 34.375C30 34.2151 29.939 34.0552 29.8169 33.9331L27.9419 32.0581L27.0581 32.9419L27.8662 33.75H21.2001C20.8952 31.6334 19.0744 30 16.875 30C14.4629 30 12.5 31.9626 12.5 34.375C12.5 36.7874 14.4629 38.75 16.875 38.75ZM16.875 31.25C18.598 31.25 20 32.652 20 34.375C20 36.098 18.598 37.5 16.875 37.5C15.152 37.5 13.75 36.098 13.75 34.375C13.75 32.652 15.152 31.25 16.875 31.25Z" fill="#787878"/>
<path d="M34.375 38.75C36.7871 38.75 38.75 36.7874 38.75 34.375C38.75 31.9626 36.7871 30 34.375 30C31.9629 30 30 31.9626 30 34.375C30 36.7874 31.9629 38.75 34.375 38.75ZM34.375 31.25C36.098 31.25 37.5 32.652 37.5 34.375C37.5 36.098 36.098 37.5 34.375 37.5C32.652 37.5 31.25 36.098 31.25 34.375C31.25 32.652 32.652 31.25 34.375 31.25Z" fill="#787878"/>
<path d="M14.375 15.625C12.1756 15.625 10.3548 17.2584 10.0499 19.375H9.0625C4.75464 19.375 1.25 22.8796 1.25 27.1875C1.25 31.4954 4.75464 35 9.0625 35H10.3662L9.55811 35.8081L10.4419 36.6919L12.3169 34.8169C12.439 34.6948 12.5 34.5349 12.5 34.375C12.5 34.2151 12.439 34.0552 12.3169 33.9331L10.4419 32.0581L9.55811 32.9419L10.3662 33.75H9.0625C5.44373 33.75 2.5 30.806 2.5 27.1875C2.5 23.569 5.44373 20.625 9.0625 20.625H10.0499C10.3548 22.7416 12.1756 24.375 14.375 24.375C16.7871 24.375 18.75 22.4124 18.75 20C18.75 17.5876 16.7871 15.625 14.375 15.625ZM14.375 23.125C12.652 23.125 11.25 21.723 11.25 20C11.25 18.277 12.652 16.875 14.375 16.875C16.098 16.875 17.5 18.277 17.5 20C17.5 21.723 16.098 23.125 14.375 23.125Z" fill="#787878"/>
<path d="M16.6919 3.30811L15.8081 4.19189L16.6162 5H9.95011C9.64519 2.88337 7.8244 1.25 5.625 1.25C3.21289 1.25 1.25 3.21259 1.25 5.625C1.25 8.03741 3.21289 10 5.625 10C7.8244 10 9.64519 8.36662 9.95011 6.25H16.6162L15.8081 7.05811L16.6919 7.94189L18.5669 6.06689C18.689 5.94483 18.75 5.78491 18.75 5.625C18.75 5.46509 18.689 5.30517 18.5669 5.18311L16.6919 3.30811ZM5.625 8.75C3.90197 8.75 2.5 7.34802 2.5 5.625C2.5 3.90197 3.90197 2.5 5.625 2.5C7.34802 2.5 8.75 3.90197 8.75 5.625C8.75 7.34802 7.34802 8.75 5.625 8.75Z" fill="#787878"/>
<path d="M38.75 12.8125C38.75 8.50464 35.2454 5 30.9375 5H27.4501C27.1452 2.88337 25.3244 1.25 23.125 1.25C20.7129 1.25 18.75 3.21259 18.75 5.625C18.75 8.03741 20.7129 10 23.125 10C25.3244 10 27.1452 8.36662 27.4501 6.25H30.9375C34.5563 6.25 37.5 9.19403 37.5 12.8125C37.5 16.431 34.5563 19.375 30.9375 19.375H20.8838L21.6919 18.5669L20.8081 17.6831L18.9331 19.5581C18.811 19.6802 18.75 19.8401 18.75 20C18.75 20.1599 18.811 20.3198 18.9331 20.4419L20.8081 22.3169L21.6919 21.4331L20.8838 20.625H30.9375C35.2454 20.625 38.75 17.1204 38.75 12.8125ZM23.125 8.75C21.402 8.75 20 7.34802 20 5.625C20 3.90197 21.402 2.5 23.125 2.5C24.848 2.5 26.25 3.90197 26.25 5.625C26.25 7.34802 24.848 8.75 23.125 8.75Z" fill="#787878"/>
</svg>
