<svg width="40" height="40" viewBox="0 0 40 40" fill="none" xmlns="http://www.w3.org/2000/svg">
<path d="M30.4297 20.8594C25.4156 20.8594 21.2903 24.7354 20.8914 29.6484H19.1086C18.942 27.5958 18.1247 25.7245 16.864 24.2409L24.2376 16.8673C24.9784 17.4973 25.805 18.0078 26.7046 18.3882C27.8844 18.8875 29.1375 19.1406 30.4297 19.1406C31.7219 19.1406 32.975 18.8875 34.1547 18.3883C35.2945 17.9062 36.318 17.2164 37.1969 16.3375C38.0758 15.4586 38.7656 14.4352 39.2477 13.2953C39.7469 12.1156 40 10.8625 40 9.57031C40 8.42109 39.7984 7.29609 39.3999 6.22891C39.2867 5.92422 38.9921 5.72031 38.668 5.72031C38.575 5.72031 38.4836 5.73672 38.3953 5.76953C38.2 5.84219 38.0445 5.98672 37.9577 6.17656C37.8711 6.36641 37.8632 6.57891 37.9359 6.77422C38.2687 7.66719 38.4375 8.60781 38.4375 9.57031C38.4375 11.2604 37.9163 12.8707 36.9515 14.2188C36.0768 12.6883 34.7559 11.5287 33.2038 10.8948C34.1343 10.1061 34.7266 8.92977 34.7266 7.61719C34.7266 5.24789 32.799 3.32031 30.4297 3.32031C28.0604 3.32031 26.1328 5.24789 26.1328 7.61719C26.1328 8.92945 26.7248 10.1055 27.655 10.8944C26.1027 11.5279 24.7815 12.687 23.9066 14.2172C22.9427 12.8693 22.4219 11.2597 22.4219 9.57031C22.4219 7.43203 23.2555 5.42109 24.7672 3.90781C26.2805 2.39609 28.2914 1.5625 30.4297 1.5625C31.5515 1.5625 32.6367 1.78984 33.6547 2.23828C33.7546 2.28203 33.8609 2.30469 33.9695 2.30469C34.2788 2.30469 34.5602 2.12188 34.6851 1.83828C34.8585 1.44375 34.6788 0.982031 34.2851 0.808594C33.0672 0.271875 31.7711 0 30.4312 0H30.4297C29.1375 0 27.8844 0.253125 26.7046 0.752344C25.5648 1.23438 24.5414 1.92422 23.6625 2.80313C22.7836 3.68203 22.0938 4.70547 21.6117 5.84531C21.1125 7.025 20.8594 8.27812 20.8594 9.57031C20.8594 10.8625 21.1125 12.1156 21.6117 13.2953C21.9922 14.1949 22.5026 15.0216 23.1327 15.7624L15.7591 23.1361C14.2755 21.8754 12.4043 21.0581 10.3516 20.8915V19.1086C15.2646 18.7097 19.1406 14.5844 19.1406 9.57031C19.1406 4.2932 14.8474 0 9.57031 0C4.2932 0 0 4.2932 0 9.57031C0 14.5844 3.87602 18.7097 8.78906 19.1086V20.8915C3.87602 21.2903 0 25.4156 0 30.4297C0 35.7068 4.2932 40 9.57031 40C14.5844 40 18.7097 36.124 19.1086 31.2109H20.8915C21.2903 36.124 25.4156 40 30.4297 40C35.7068 40 40 35.7068 40 30.4297C40 25.1526 35.7068 20.8594 30.4297 20.8594ZM27.6953 7.61719C27.6953 6.10945 28.922 4.88281 30.4297 4.88281C31.9374 4.88281 33.1641 6.10945 33.1641 7.61719C33.1641 9.11938 31.9463 10.3421 30.4463 10.3512C30.4405 10.3512 30.4347 10.3509 30.4289 10.3509C30.4234 10.3509 30.4179 10.3512 30.4124 10.3512C28.9127 10.3417 27.6953 9.11914 27.6953 7.61719ZM30.4125 11.9136C30.4183 11.9136 30.4239 11.9141 30.4297 11.9141C30.4352 11.9141 30.4407 11.9137 30.4462 11.9137C32.7549 11.9205 34.8234 13.2995 35.8429 15.4709C34.3609 16.8316 32.4528 17.5781 30.4297 17.5781C28.4059 17.5781 26.4965 16.831 25.0148 15.4695C26.0346 13.2986 28.1034 11.9202 30.4125 11.9136ZM6.83594 7.61719C6.83594 6.10945 8.06258 4.88281 9.57031 4.88281C11.078 4.88281 12.3047 6.10945 12.3047 7.61719C12.3047 9.11938 11.087 10.3421 9.58687 10.3512C9.58109 10.3512 9.57531 10.3509 9.56953 10.3509C9.56398 10.3509 9.55852 10.3512 9.55305 10.3512C8.05328 10.3417 6.83594 9.11914 6.83594 7.61719ZM9.57031 11.9141C9.57586 11.9141 9.58133 11.9137 9.5868 11.9137C11.8944 11.9205 13.9619 13.298 14.9818 15.4674C13.5555 16.7773 11.6548 17.5781 9.57031 17.5781C7.485 17.5781 5.58359 16.7766 4.15719 15.4659C5.17758 13.297 7.24531 11.9202 9.55313 11.9136C9.55891 11.9137 9.56453 11.9141 9.57031 11.9141ZM9.57031 1.5625C13.9859 1.5625 17.5781 5.15477 17.5781 9.57031C17.5781 11.3005 17.0264 12.9042 16.0898 14.215C15.2152 12.6863 13.8952 11.5282 12.3444 10.8948C13.2749 10.106 13.8672 8.92977 13.8672 7.61719C13.8672 5.24789 11.9396 3.32031 9.57031 3.32031C7.20102 3.32031 5.27344 5.24789 5.27344 7.61719C5.27344 8.92945 5.86539 10.1055 6.79563 10.8944C5.24461 11.5273 3.92445 12.6851 3.04945 14.2133C2.11367 12.9028 1.5625 11.2998 1.5625 9.57031C1.5625 5.15477 5.15477 1.5625 9.57031 1.5625ZM9.57031 38.4375C5.15477 38.4375 1.5625 34.8452 1.5625 30.4297C1.5625 26.0141 5.15477 22.4219 9.57031 22.4219C13.9859 22.4219 17.5781 26.0141 17.5781 30.4297C17.5781 34.8452 13.9859 38.4375 9.57031 38.4375ZM25.0166 36.3252C26.0393 34.1517 28.1143 32.7734 30.4289 32.7734C32.7436 32.7734 34.8187 34.1523 35.8412 36.3267C34.415 37.6366 32.5142 38.4375 30.4297 38.4375C28.3444 38.4375 26.443 37.636 25.0166 36.3252ZM30.4297 31.2109C28.922 31.2109 27.6953 29.9843 27.6953 28.4766C27.6953 26.9688 28.922 25.7422 30.4297 25.7422C31.9374 25.7422 33.1641 26.9688 33.1641 28.4766C33.1641 29.9843 31.9374 31.2109 30.4297 31.2109ZM36.9492 35.0745C36.0745 33.5459 34.7543 32.3879 33.2033 31.7547C34.1341 30.9659 34.7266 29.7894 34.7266 28.4766C34.7266 26.1073 32.799 24.1797 30.4297 24.1797C28.0604 24.1797 26.1328 26.1073 26.1328 28.4766C26.1328 29.7891 26.725 30.9653 27.6555 31.7541C26.1042 32.387 24.7838 33.5445 23.9088 35.0727C22.973 33.7622 22.4219 32.1591 22.4219 30.4297C22.4219 26.0141 26.0141 22.4219 30.4297 22.4219C34.8452 22.4219 38.4375 26.0141 38.4375 30.4297C38.4375 32.1599 37.8858 33.7637 36.9492 35.0745Z" fill="#787878"/>
<path d="M13.7146 26.2641C13.3556 26.0248 12.8706 26.1218 12.6312 26.4807L8.54496 32.6101L6.47606 29.9501C6.21106 29.6095 5.72028 29.5482 5.37973 29.8131C5.0391 30.078 4.97778 30.5688 5.2427 30.9094L7.97707 34.425C8.12535 34.6157 8.35316 34.7267 8.59371 34.7267C8.60324 34.7267 8.61277 34.7265 8.6223 34.7261C8.87324 34.717 9.10449 34.5878 9.24379 34.3788L13.9313 27.3475C14.1706 26.9885 14.0735 26.5034 13.7146 26.2641Z" fill="#787878"/>
<path d="M36.8219 4.31934C37.2534 4.31934 37.6032 3.96956 37.6032 3.53809C37.6032 3.10661 37.2534 2.75684 36.8219 2.75684C36.3905 2.75684 36.0407 3.10661 36.0407 3.53809C36.0407 3.96956 36.3905 4.31934 36.8219 4.31934Z" fill="#787878"/>
</svg>
