<svg width="40" height="40" viewBox="0 0 40 40" fill="none" xmlns="http://www.w3.org/2000/svg">
<path d="M19.3538 10.3915C19.0486 10.3915 18.6744 10.3469 18.4181 10.0614C18.3291 9.96105 18.251 9.86738 18.1753 9.78926C17.5649 9.14691 16.5135 10.0391 17.1506 10.8732L17.3043 11.0717C17.4045 11.1967 17.585 11.3416 17.8434 11.5067C18.0952 11.6671 18.3758 11.7832 18.6877 11.8523V12.9542C18.6877 13.3333 18.9972 13.6456 19.376 13.6456C19.757 13.6456 20.0799 13.3333 20.0799 12.9542V11.8457C20.5789 11.7298 21.0066 11.4866 21.3563 11.1186C21.7082 10.7505 21.8842 10.2621 21.8842 9.65324C21.8842 9.2384 21.8042 8.89277 21.6437 8.61387C21.4833 8.33731 21.2873 8.14332 21.0534 8.03395C20.8173 7.92465 20.5611 7.82871 20.2781 7.74629C19.9975 7.66379 19.7413 7.60574 19.5052 7.57012C19.2713 7.53652 19.0753 7.46512 18.9149 7.36043C18.7545 7.25324 18.6743 7.11504 18.6743 6.94324C18.6743 6.12254 19.8772 6.22285 20.4073 6.66895C21.1892 7.32691 22.0646 6.12254 21.158 5.44231L21.0533 5.34855C20.982 5.29293 20.8573 5.22371 20.6768 5.13668C20.4986 5.0498 20.2981 4.98504 20.0799 4.93816V4.27137V3.98145C20.0799 3.60223 19.7702 3.29004 19.3893 3.29004C19.0106 3.29004 18.6988 3.60215 18.6988 3.98145V4.92707C18.1908 5.02746 17.7698 5.27957 17.4781 5.65191C17.184 6.03113 17.0348 6.45051 17.0348 6.91871C17.0348 7.38941 17.144 7.77527 17.3622 8.08082C17.5805 8.38621 17.8456 8.60043 18.1597 8.72535C18.4716 8.85027 18.7834 8.95066 19.0952 9.02418C19.4093 9.10012 19.6745 9.18254 19.8927 9.27848C20.111 9.37215 20.2202 9.50379 20.2202 9.67551C20.2202 10.1528 19.9307 10.3915 19.3538 10.3915Z" fill="#787878"/>
<path d="M39.1742 22.5661L32.7549 14.3436C32.3224 13.7882 31.6669 13.4697 30.9563 13.4697C30.4549 13.4697 29.9801 13.6289 29.5817 13.9312L25.3805 17.1337C24.8996 17.5002 24.5924 18.0321 24.5154 18.6313C24.5039 18.7206 24.4984 18.8096 24.4975 18.8982C22.8959 18.7769 21.2417 18.8989 19.6352 19.9431L19.5632 19.9899L15.4992 19.3684C15.5076 19.2277 15.5031 19.0853 15.4845 18.9424C15.407 18.3446 15.1003 17.8139 14.6204 17.448L10.4182 14.2485C9.43368 13.4956 8.01017 13.6785 7.24462 14.6572L5.71431 16.6178C5.4465 16.9607 5.50759 17.4558 5.85056 17.7235C6.1936 17.9913 6.68868 17.9302 6.95642 17.5872L8.48626 15.6274C8.71782 15.3313 9.16423 15.273 9.46235 15.5011L13.6655 18.7014C13.8078 18.8099 13.8989 18.9674 13.9219 19.145C13.9449 19.3229 13.8969 19.499 13.7872 19.6399L7.36657 27.8637C7.13657 28.1591 6.68962 28.2168 6.39196 27.9911L2.19064 24.7883C2.04751 24.6793 1.95603 24.5211 1.93314 24.3432C1.9104 24.1662 1.95845 23.9913 2.069 23.85L3.16056 22.4517C3.42829 22.1087 3.36728 21.6136 3.02423 21.346C2.68126 21.0781 2.18618 21.1393 1.91837 21.4822L0.827433 22.8798C0.455792 23.3549 0.293449 23.9459 0.370324 24.544C0.447277 25.1432 0.754621 25.675 1.2354 26.0414L5.43806 29.2454C5.84704 29.5556 6.3304 29.7057 6.81064 29.7056C7.08837 29.7056 7.3647 29.6546 7.62525 29.5561L8.16915 30.3011C7.87353 30.8404 7.82743 31.4882 8.06501 32.1134C8.40462 33.0073 9.20595 33.6134 10.0729 33.6422C10.0998 33.7696 10.137 33.8968 10.1879 34.0229C10.5374 34.8887 11.3353 35.4781 12.1927 35.5168C12.1966 35.5393 12.1996 35.5619 12.2042 35.5844C12.3674 36.3772 12.9756 37.0543 13.7536 37.3093C13.9518 37.3743 14.1517 37.4077 14.3495 37.4136C14.4253 37.7328 14.5838 38.0411 14.8273 38.3117C15.2069 38.7336 15.7611 39.0036 16.3691 39.0036C16.8106 39.0036 17.2805 38.8603 17.7321 38.5301L18.6242 39.364C19.0787 39.7881 19.6507 39.9998 20.2173 39.9998C20.792 39.9997 21.3609 39.7819 21.7953 39.3471C22.0544 39.0878 22.2551 38.7793 22.3849 38.4545C22.6063 38.5218 22.8226 38.5536 23.0301 38.5536C23.6144 38.5536 24.13 38.3068 24.4995 37.9263C24.8017 37.615 25.0181 37.2005 25.1138 36.7587C25.1458 36.7604 25.1777 36.7617 25.2099 36.762C25.2177 36.7621 25.2255 36.7621 25.2334 36.7621C25.8548 36.7621 26.451 36.5214 26.8721 36.0997C27.1671 35.8043 27.3701 35.4408 27.467 35.0439C27.6173 35.0732 27.7682 35.0886 27.9188 35.0886C28.1084 35.0886 28.2976 35.065 28.4839 35.0173C29.2437 34.8226 29.8303 34.2289 30.0149 33.4677C30.1853 32.7654 30.0098 32.0254 29.5319 31.3529C30.7692 30.3575 31.2697 29.8671 31.8349 28.9502C32.221 29.2342 32.691 29.3907 33.1877 29.3907C33.1878 29.3907 33.1878 29.3907 33.1879 29.3907C33.6909 29.3907 34.1664 29.2303 34.5619 28.9279L38.7657 25.7271C39.2452 25.3615 39.552 24.831 39.6295 24.2331C39.707 23.6347 39.5456 23.0429 39.1742 22.5661ZM10.4851 31.905C10.3644 32.014 10.2474 32.0693 10.1371 32.0693C9.91087 32.0693 9.64775 31.843 9.5379 31.5539C9.43821 31.2913 9.4847 31.0719 9.67657 30.9015L9.67907 30.8993C9.67985 30.8986 9.68071 30.8979 9.68149 30.8972L12.3357 28.538C12.5577 28.3411 12.7812 28.2369 12.982 28.2369C13.2759 28.2369 13.4957 28.4601 13.5755 28.6676C13.6608 28.8893 13.6095 29.087 13.4238 29.2549L12.9612 29.6721C12.9608 29.6725 12.9603 29.6729 12.9599 29.6732C12.9577 29.6752 12.9555 29.6772 12.9532 29.6793C12.9367 29.6943 12.9195 29.7097 12.9027 29.725L10.4851 31.905ZM12.6305 33.788C12.5109 33.8937 12.3969 33.945 12.2822 33.945C12.0431 33.945 11.765 33.7202 11.6492 33.4331C11.5215 33.1168 11.673 32.9708 11.7209 32.9246C11.7517 32.895 11.7886 32.8597 11.8271 32.8184C11.8274 32.8182 11.8276 32.8179 11.8278 32.8178L11.8359 32.8106C11.9875 32.6752 13.3221 31.4693 13.9598 30.8932L14.0073 30.8504C14.2234 30.6607 14.4423 30.5604 14.6406 30.5604C14.9534 30.5604 15.1863 30.7998 15.2703 31.0222C15.3538 31.2432 15.3038 31.4368 15.122 31.5968L14.9586 31.7405C14.9574 31.7416 14.9562 31.7425 14.955 31.7436C14.9546 31.7439 14.9542 31.7443 14.9538 31.7447L12.6305 33.788ZM14.9788 35.4886C14.9679 35.4983 14.9577 35.5086 14.9471 35.5185L14.7623 35.6853C14.598 35.8337 14.4334 35.8742 14.2444 35.8122C14.0054 35.7338 13.7966 35.5045 13.7477 35.267C13.7052 35.0605 13.7879 34.8691 13.9977 34.6841L14.2606 34.4544C14.2673 34.4486 14.273 34.4423 14.2794 34.4364L16.0014 32.9219C16.4141 32.5572 16.8227 32.5206 17.0948 32.8247C17.1331 32.8675 17.4574 33.2532 17.0614 33.6109L16.0038 34.5652C15.9925 34.5752 15.981 34.5842 15.9698 34.5944C15.9658 34.5981 15.9625 34.6023 15.9586 34.6059L14.9909 35.4791C14.987 35.4825 14.9826 35.485 14.9788 35.4886ZM15.9988 37.2578C15.9157 37.1656 15.7556 36.9266 16.0183 36.6743L17.0733 35.7223C17.1531 35.654 17.2301 35.5999 17.3021 35.5627C17.3054 35.561 17.3088 35.5593 17.312 35.5575C17.7373 35.3304 17.9677 35.5952 18.0284 35.6817C18.1063 35.7929 18.2013 36.0114 17.9624 36.226L17.2396 36.8757C17.2369 36.8781 17.2342 36.8806 17.2315 36.883L16.9181 37.1646C16.4032 37.6268 16.0842 37.3529 15.9988 37.2578ZM28.4836 33.0963C28.4352 33.2959 28.2927 33.4397 28.0928 33.491C27.7614 33.5758 27.3419 33.3918 26.9578 32.9977C26.929 32.9658 26.8995 32.9344 26.8686 32.904L23.8947 29.9643C23.5852 29.6586 23.0863 29.6614 22.7805 29.9708C22.4746 30.2803 22.4774 30.7791 22.7869 31.085L25.756 34.0199C25.7609 34.0251 25.766 34.0303 25.7709 34.0355C25.8895 34.1575 25.9555 34.3205 25.9562 34.4969C25.9569 34.6832 25.8863 34.857 25.7572 34.9862C25.6299 35.1137 25.4395 35.1864 25.2338 35.1864C25.2309 35.1864 25.2281 35.1864 25.2252 35.1864C25.043 35.1847 24.8767 35.1236 24.7597 35.0172C24.7104 34.9534 24.6567 34.8916 24.5977 34.8324L22.4236 32.6556C22.1161 32.3479 21.6173 32.3475 21.3094 32.6549C21.0016 32.9624 21.0013 33.4611 21.3087 33.769L23.3705 35.8334C23.3953 35.8697 23.4229 35.9048 23.4546 35.9375L23.5424 36.028C23.6554 36.2432 23.5853 36.6059 23.3689 36.8289C23.035 37.1727 22.565 36.8696 22.2302 36.5551L21.2992 35.6786C20.9824 35.3804 20.4837 35.3954 20.1855 35.7122C19.8872 36.0291 19.9023 36.5277 20.2191 36.826L20.9303 37.4954C20.932 37.4971 20.9334 37.4989 20.9352 37.5004C20.9514 37.5156 20.9759 37.5386 20.9771 37.618C20.9802 37.8026 20.8582 38.0558 20.6806 38.2336C20.4214 38.493 19.9904 38.4837 19.6999 38.2125L18.9202 37.4838L19.0155 37.3981C19.7886 36.7039 19.9134 35.6264 19.3189 34.7779C19.1255 34.5017 18.8832 34.2872 18.6114 34.1382C18.9945 33.3827 18.8874 32.4654 18.2691 31.7742C17.9202 31.3842 17.4275 31.1179 16.8775 31.0589C16.8618 30.8612 16.8185 30.662 16.7444 30.4656C16.4767 29.757 15.8818 29.2354 15.1817 29.0548C15.2108 28.7409 15.1674 28.4168 15.0462 28.1016C14.7145 27.2401 13.8852 26.6612 12.9821 26.6612C12.3899 26.6612 11.8049 26.9025 11.2896 27.3596L9.27814 29.1476L8.83595 28.5421L14.8333 20.8605L17.5753 21.2799L17.1605 21.549C14.9386 22.9906 14.7759 24.6671 15.3647 25.7554C15.8359 26.6266 16.7763 27.1246 17.7745 27.1246C18.1854 27.1245 18.6063 27.0401 19.0081 26.8625C19.0188 26.8578 19.0293 26.8529 19.0396 26.8478L21.1168 25.8179L22.3159 26.9097C22.3171 26.9107 22.3184 26.9115 22.3195 26.9125C22.3206 26.9136 22.3216 26.9147 22.3227 26.9158L27.8651 31.8449C28.34 32.2672 28.5713 32.735 28.4836 33.0963ZM28.4174 30.2275L23.3733 25.7415L21.7795 24.2904C21.5395 24.0718 21.1899 24.0228 20.8992 24.1671L18.3566 25.4278C17.6659 25.7249 16.9864 25.4422 16.7505 25.006C16.4263 24.4066 16.9119 23.5885 18.018 22.871L20.4934 21.2646C21.8356 20.3921 23.2435 20.3248 25.1695 20.5483L30.7465 27.6942C30.158 28.7511 29.8454 29.0865 28.4174 30.2275ZM38.0669 24.0305C38.0439 24.2079 37.9528 24.3654 37.8108 24.4737L33.6059 27.6752C33.4549 27.7907 33.2952 27.815 33.1879 27.815C32.9669 27.8149 32.764 27.7176 32.6318 27.5486L26.2134 19.3246C26.1034 19.1839 26.0554 19.0091 26.0782 18.8321C26.1011 18.6541 26.1925 18.4959 26.3357 18.3868L30.5356 15.1853C30.6879 15.0697 30.8484 15.0454 30.9563 15.0454C31.1775 15.0454 31.3799 15.1424 31.5122 15.3123L37.9316 23.5349C38.0419 23.6766 38.09 23.8525 38.0669 24.0305Z" fill="#787878"/>
<path d="M15.377 16.0049C16.6139 16.6723 18.0112 17.0252 19.4177 17.0252C24.1069 17.0252 27.9219 13.2059 27.9219 8.51141C27.9219 5.235 26.0092 2.21359 23.0496 0.814141C21.9094 0.273906 20.6876 0 19.4177 0C14.7297 0 10.9157 3.8182 10.9157 8.51141C10.9157 11.6416 12.6247 14.5127 15.377 16.0049ZM19.4177 1.57563C20.4523 1.57563 21.4473 1.79852 22.3754 2.2382C24.7875 3.37875 26.3462 5.84117 26.3462 8.51141C26.3462 12.3371 23.2381 15.4495 19.4178 15.4495C18.2716 15.4495 17.1331 15.162 16.1267 14.6191C13.8844 13.4032 12.4914 11.0629 12.4914 8.51141C12.4914 4.68703 15.5985 1.57563 19.4177 1.57563Z" fill="#787878"/>
<path d="M3.9459 20.1502C4.09098 20.266 4.2645 20.3222 4.43685 20.3222C4.66826 20.3222 4.89757 20.2207 5.05312 20.0257L5.06202 20.0145C5.33344 19.6745 5.27773 19.1788 4.93765 18.9074C4.59756 18.6361 4.10176 18.6916 3.83043 19.0318L3.82152 19.043C3.55011 19.3831 3.60581 19.8788 3.9459 20.1502Z" fill="#787878"/>
</svg>
