<svg width="40" height="40" viewBox="0 0 40 40" fill="none" xmlns="http://www.w3.org/2000/svg">
<g clip-path="url(#clip0)">
<path d="M5.83333 34.9997H0.833333C0.373333 34.9997 0 34.6264 0 34.1664V19.1663C0 18.7063 0.373333 18.333 0.833333 18.333C6.50167 18.333 9.49667 20.243 9.62167 20.3247C9.92 20.5197 10.0617 20.883 9.975 21.228L6.64167 34.3714C6.54667 34.7414 6.215 34.9997 5.83333 34.9997ZM1.66667 33.333H5.185L8.2 21.4497C7.26167 21.0013 5.05167 20.1397 1.66667 20.0147V33.333Z" fill="#787878"/>
<path d="M21.6667 38.3333C17.7333 38.3333 10.1283 35.0267 5.94332 33.0533C5.52666 32.8583 5.34999 32.36 5.54499 31.945C5.73999 31.5267 6.23666 31.3517 6.65499 31.5467C9.92166 33.0867 17.9217 36.6667 21.6667 36.6667C25.72 36.6667 35.275 31.905 38.0233 30.49C37.59 29.9233 36.695 29.1667 35 29.1667C33.4617 29.1667 31.5117 29.7817 29.625 30.3783C27.62 31.01 25.545 31.6667 23.75 31.6667C20.31 31.6667 15.7417 30.02 15.5483 29.95C15.1167 29.7933 14.8933 29.315 15.05 28.8817C15.2067 28.45 15.685 28.2283 16.1183 28.3833C16.1617 28.4 20.605 30 23.75 30C25.2883 30 27.2383 29.385 29.125 28.7883C31.13 28.1567 33.205 27.5 35 27.5C38.8883 27.5 39.915 30.445 39.9567 30.57C40.085 30.955 39.9183 31.3767 39.5583 31.57C39.04 31.8433 26.815 38.3333 21.6667 38.3333Z" fill="#787878"/>
<path d="M27.5 30.9839C27.04 30.9839 26.6667 30.6105 26.6667 30.1505V29.3172C26.6667 28.1539 25.8833 27.1572 24.76 26.8972L8.66999 23.0122C8.22166 22.9039 7.94666 22.4539 8.05499 22.0055C8.16333 21.5572 8.62166 21.2922 9.05999 21.3905L25.1433 25.2739C27.02 25.7122 28.3333 27.3755 28.3333 29.3172V30.1505C28.3333 30.6105 27.96 30.9839 27.5 30.9839Z" fill="#787878"/>
<path d="M39.1666 21.6667C33.4983 21.6667 30.5033 19.7567 30.3783 19.675C30.08 19.48 29.9383 19.1167 30.025 18.7717L33.3583 5.62833C33.4533 5.25833 33.785 5 34.1666 5H39.1666C39.6266 5 40 5.37333 40 5.83333V20.8333C40 21.2933 39.6266 21.6667 39.1666 21.6667ZM31.8016 18.55C32.74 19 34.95 19.86 38.3333 19.985V6.66667H34.815L31.8016 18.55Z" fill="#787878"/>
<path d="M5 12.5003C1.11167 12.5003 0.084999 9.55533 0.0433323 9.43033C-0.085001 9.04533 0.0816656 8.62366 0.441666 8.43033C0.959999 8.15699 13.185 1.66699 18.3333 1.66699C22.2667 1.66699 29.8717 4.97366 34.0567 6.94699C34.4733 7.14199 34.65 7.64033 34.455 8.05533C34.26 8.47366 33.7633 8.64699 33.345 8.45366C30.0783 6.91366 22.0783 3.33366 18.3333 3.33366C14.28 3.33366 4.725 8.09533 1.97667 9.51033C2.41 10.077 3.305 10.8337 5 10.8337C6.53833 10.8337 8.48833 10.2187 10.375 9.62199C12.38 8.99033 14.455 8.33366 16.25 8.33366C19.69 8.33366 24.2583 9.98033 24.4517 10.0503C24.8833 10.207 25.1067 10.6853 24.95 11.1187C24.7933 11.552 24.3167 11.7737 23.8817 11.617C23.8383 11.6003 19.395 10.0003 16.25 10.0003C14.7117 10.0003 12.7617 10.6153 10.875 11.212C8.87 11.8437 6.795 12.5003 5 12.5003Z" fill="#787878"/>
<path d="M31.135 18.6333C31.07 18.6333 31.0034 18.6249 30.9384 18.6099L14.855 14.7266C12.98 14.2883 11.6667 12.6249 11.6667 10.6833V9.84993C11.6667 9.38993 12.04 9.0166 12.5 9.0166C12.96 9.0166 13.3334 9.38993 13.3334 9.84993V10.6833C13.3334 11.8466 14.1167 12.8433 15.24 13.1033L31.33 16.9883C31.7784 17.0966 32.0534 17.5466 31.945 17.9949C31.8517 18.3766 31.51 18.6333 31.135 18.6333Z" fill="#787878"/>
</g>
<defs>
<clipPath id="clip0">
<rect width="40" height="40" fill="white"/>
</clipPath>
</defs>
</svg>
