<svg width="40" height="40" viewBox="0 0 40 40" fill="none" xmlns="http://www.w3.org/2000/svg">
<g clip-path="url(#clip0)">
<path d="M20.9068 15.9V17.9111C20.9068 18.5498 21.0347 19.0857 21.2862 19.5032C21.6334 20.0793 22.2035 20.4095 22.8508 20.4095C23.4849 20.4095 24.1151 20.1007 24.724 19.4922L31.3664 12.8497C32.8245 11.3913 32.8245 9.01825 31.3661 7.55981L24.724 0.917358C24.1151 0.308533 23.4849 0 22.8508 0C21.8834 0 20.9068 0.772705 20.9068 2.49847V4.32495C11.4763 4.8819 3.66928 12.1191 2.509 21.5945C2.444 22.1237 2.7449 22.6303 3.24081 22.8265C3.38119 22.8821 3.52737 22.9089 3.67172 22.9089C4.03732 22.9089 4.39193 22.7377 4.61776 22.4292C7.72994 18.1769 12.7269 15.6381 17.9845 15.6381C18.9589 15.6381 19.9382 15.726 20.9068 15.9ZM5.89736 17.6709C8.44802 11.1566 14.7963 6.63422 22.0787 6.63422C22.726 6.63422 23.2506 6.10962 23.2506 5.46234V2.75879L29.709 9.21692C30.2534 9.76166 30.2534 10.6479 29.709 11.1926L23.2506 17.6508V14.9469C23.2506 14.4037 22.8773 13.9316 22.3485 13.8065C20.9123 13.4668 19.4438 13.2944 17.9845 13.2944C14.9632 13.2944 11.9578 14.0256 9.29306 15.4092C8.08547 16.0361 6.94534 16.7972 5.89736 17.6709Z" fill="#787878"/>
<path d="M36.7389 17.1731C36.243 16.9769 35.6769 17.1404 35.362 17.5707C32.2498 21.8227 27.2531 24.3615 21.9953 24.3615C21.0211 24.3615 20.0418 24.2736 19.0729 24.0997V22.0885C19.0729 20.3628 18.0966 19.5901 17.1289 19.5901C16.4948 19.5901 15.8646 19.8989 15.2561 20.5077L8.6136 27.1499C7.15517 28.6083 7.15517 30.9814 8.6136 32.4401L15.2561 39.0823C15.8646 39.6911 16.4948 39.9996 17.1289 39.9996C18.0963 39.9996 19.0729 39.2269 19.0729 37.5011V35.6747C28.5037 35.1177 36.3104 27.8805 37.4707 18.4054C37.5357 17.8759 37.2348 17.3693 36.7389 17.1731ZM17.901 33.3654C17.2537 33.3654 16.7291 33.89 16.7291 34.5373V37.2408L10.271 30.783C9.72627 30.238 9.72627 29.3517 10.2707 28.8073L16.7291 22.3489V25.0527C16.7291 25.5962 17.1027 26.0683 17.6315 26.1935C19.068 26.5328 20.5362 26.7052 21.9953 26.7052C25.0168 26.7052 28.0222 25.974 30.6867 24.5907C31.8942 23.9635 33.0344 23.2027 34.0824 22.329C31.5317 28.843 25.1834 33.3654 17.901 33.3654Z" fill="#787878"/>
</g>
<defs>
<clipPath id="clip0">
<rect width="40" height="40" fill="white"/>
</clipPath>
</defs>
</svg>
