<svg width="40" height="40" viewBox="0 0 40 40" fill="none" xmlns="http://www.w3.org/2000/svg">
<g clip-path="url(#clip0)">
<path d="M39.9743 38.4289C39.4407 36.393 37.984 34.7248 36.0387 33.9216C38.0053 32.7666 39.0179 30.4873 38.5568 28.2538C38.0957 26.0202 36.2632 24.3284 34 24.0465V23.3335C34 22.9653 33.7016 22.6669 33.3334 22.6669C32.9652 22.6669 32.6668 22.9653 32.6668 23.3335V24.0465C30.3968 24.3294 28.5611 26.0303 28.1064 28.2722C27.6516 30.514 28.6793 32.7958 30.6596 33.9409C29.2472 34.5638 28.0757 35.6291 27.3217 36.9759C26.301 35.2802 24.7492 33.9687 22.907 33.2448C25.3 31.9195 26.4936 29.1434 25.8092 26.4948C25.1247 23.8463 22.7355 21.9961 20 21.9961C17.2645 21.9961 14.8754 23.8463 14.1909 26.4948C13.5065 29.1434 14.7 31.9195 17.0931 33.2448C15.2509 33.9687 13.6991 35.2802 12.6784 36.9759C11.9243 35.6291 10.7529 34.5638 9.34051 33.9409C11.3207 32.7958 12.3485 30.514 11.8937 28.2722C11.4389 26.0304 9.60325 24.3295 7.33332 24.0465V23.3335C7.33332 22.9653 7.03481 22.6669 6.66668 22.6669C6.29856 22.6669 6.00004 22.9653 6.00004 23.3335V24.0465C3.73684 24.3283 1.90442 26.0202 1.44332 28.2538C0.982231 30.4874 1.99481 32.7666 3.96137 33.9216C2.01606 34.7248 0.559418 36.393 0.0257463 38.4289C-0.0512068 38.8093 0.0476213 39.2041 0.294653 39.5034C0.550668 39.8184 0.935278 40.001 1.34122 40.0002H38.659C39.0649 40.0009 39.4495 39.8184 39.7055 39.5034C39.9525 39.2041 40.0513 38.8093 39.9743 38.4289ZM2.66668 29.3335C2.66668 27.7157 3.64121 26.2571 5.13598 25.638C6.63075 25.0188 8.35114 25.3611 9.49512 26.5051C10.6391 27.6491 10.9814 29.3695 10.3622 30.8642C9.74309 32.3589 8.28457 33.3335 6.66668 33.3335C4.45856 33.3311 2.66911 31.5416 2.66668 29.3335ZM1.33239 38.6958C1.77082 36.5496 4.24192 34.6668 6.62043 34.6668C9.06707 34.6668 11.4726 36.562 11.9056 38.6687L1.33239 38.6958ZM15.3334 28.0002C15.3334 25.4228 17.4228 23.3335 20 23.3335C22.5773 23.3335 24.6667 25.4229 24.6667 28.0002C24.6667 30.5774 22.5774 32.6668 20 32.6668C17.424 32.6639 15.3363 30.5763 15.3334 28.0002ZM13.3946 38.6668C13.9366 36.5018 16.9375 34.0002 20 34.0002C23.0625 34.0002 26.0635 36.5018 26.6055 38.6668H13.3946ZM29.3334 29.3335C29.3334 27.7157 30.3079 26.2571 31.8027 25.638C33.2975 25.0188 35.0179 25.3611 36.1618 26.5051C37.3058 27.6491 37.6481 29.3695 37.0289 30.8642C36.4098 32.3589 34.9513 33.3335 33.3334 33.3335C31.1253 33.3311 29.3358 31.5416 29.3334 29.3335ZM38.6589 38.6668H28.0948C28.5287 36.5607 30.9336 34.6668 33.3797 34.6668C35.7582 34.6668 38.2293 36.5496 38.6729 38.66C38.6693 38.6639 38.6643 38.6663 38.6589 38.6668Z" fill="#787878"/>
<path d="M6.66688 16.6663C7.03509 16.6663 7.33352 16.3678 7.33352 15.9996V13.9996C7.33352 13.6314 7.03501 13.333 6.66688 13.333C6.29876 13.333 6.00024 13.6314 6.00024 13.9996V15.9996C6.00024 16.3679 6.29868 16.6663 6.66688 16.6663Z" fill="#787878"/>
<path d="M6.66688 21.3333C7.03509 21.3333 7.33352 21.0348 7.33352 20.6666V18.6666C7.33352 18.2984 7.03501 18 6.66688 18C6.29876 18 6.00024 18.2984 6.00024 18.6666V20.6666C6.00024 21.0348 6.29868 21.3333 6.66688 21.3333Z" fill="#787878"/>
<path d="M34.0003 13.9996C34.0003 13.6314 33.7018 13.333 33.3336 13.333C32.9654 13.333 32.667 13.6314 32.667 13.9996V15.9996C32.667 16.3679 32.9654 16.6663 33.3336 16.6663C33.7018 16.6663 34.0003 16.3678 34.0003 15.9996V13.9996Z" fill="#787878"/>
<path d="M33.3336 18C32.9654 18 32.667 18.2984 32.667 18.6666V20.6666C32.667 21.0348 32.9654 21.3333 33.3336 21.3333C33.7018 21.3333 34.0003 21.0348 34.0003 20.6666V18.6666C34.0003 18.2985 33.7018 18 33.3336 18Z" fill="#787878"/>
<path d="M6.66688 12C7.03509 12 7.33352 11.7015 7.33352 11.3334V10.6667H11.3673C11.7001 14.9209 15.0794 18.3001 19.3335 18.633V20C19.3335 20.3682 19.632 20.6666 20.0002 20.6666C20.3684 20.6666 20.6668 20.3682 20.6668 20V18.6329C24.9209 18.3001 28.3002 14.9208 28.6331 10.6666H32.6668V11.3333C32.6668 11.7015 32.9652 11.9999 33.3334 11.9999C33.7016 11.9999 34.0001 11.7014 34.0001 11.3333V10.6666C33.9994 9.93055 33.4028 9.33406 32.6667 9.33328H28.633C28.3002 5.07914 24.9209 1.69992 20.6667 1.36703V0.666641C20.6669 0.298438 20.3684 0 20.0002 0C19.632 0 19.3336 0.298438 19.3336 0.666641V1.36711C15.0795 1.69992 11.7002 5.07922 11.3674 9.33336H7.3336C6.59751 9.33406 6.00103 9.93062 6.00024 10.6667V11.3334C6.00024 11.7015 6.29868 12 6.66688 12ZM20.6669 2.70047C24.1863 3.02633 26.9739 5.81391 27.2998 9.33336H24.6137C24.3157 7.28969 22.7106 5.68461 20.6669 5.38656V2.70047ZM20.6669 6.73406C21.9747 7.00367 22.9966 8.02555 23.2662 9.33336H20.6669V6.73406ZM20.6669 10.6666H23.2662C22.9966 11.9745 21.9747 12.9963 20.6669 13.2659V10.6666ZM20.6669 14.6134C22.7106 14.3154 24.3156 12.7103 24.6137 10.6666H27.2998C26.9739 14.1861 24.1863 16.9737 20.6669 17.2995V14.6134ZM19.3336 13.2659C18.0258 12.9963 17.0039 11.9745 16.7343 10.6666H19.3336V13.2659ZM19.3336 9.33336H16.7343C17.0039 8.02555 18.0258 7.00367 19.3336 6.73406V9.33336ZM19.3336 2.70047V5.38656C17.2899 5.68461 15.6849 7.28969 15.3868 9.33336H12.7007C13.0266 5.81391 15.8141 3.02633 19.3336 2.70047ZM15.3868 10.6666C15.6849 12.7103 17.2899 14.3154 19.3336 14.6134V17.2995C15.8141 16.9737 13.0266 14.1861 12.7007 10.6666H15.3868Z" fill="#787878"/>
</g>
<defs>
<clipPath id="clip0">
<rect width="40" height="40" fill="white"/>
</clipPath>
</defs>
</svg>
