<svg width="40" height="40" xmlns="http://www.w3.org/2000/svg">

 <g>
  <title>background</title>
  <rect fill="none" id="canvas_background" height="42" width="42" y="-1" x="-1"/>
 </g>
 <g>
  <title>Layer 1</title>
  <path fill="#787878" stroke="null" id="svg_1" d="m21.677317,23.86964c2.551034,0 4.619048,-2.068014 4.619048,-4.619048c0,-2.551034 -2.068014,-4.619048 -4.619048,-4.619048s-4.619048,2.068014 -4.619048,4.619048c0,2.551034 2.068014,4.619048 4.619048,4.619048zm0,-5.938777c0.72915,0 1.319728,0.590578 1.319728,1.319728c0,0.72915 -0.590578,1.319728 -1.319728,1.319728s-1.319728,-0.590578 -1.319728,-1.319728c0,-0.72915 0.590578,-1.319728 1.319728,-1.319728z"/>
  <circle fill="#787878" stroke="null" id="svg_2" r="3" cy="3.418923" cx="36.583579"/>
  <circle fill="#787878" stroke="null" id="svg_3" r="3.183674" cy="36.343662" cx="3.773993"/>
  <circle fill="#787878" stroke="null" id="svg_4" r="2.947981" cy="36.743403" cx="36.78134"/>
  <circle fill="#787878" stroke="null" id="svg_5" r="3.115647" cy="3.28632" cx="3.586588"/>
  <path fill="#787878" stroke="null" id="svg_6" d="m26.413253,14.819849l5.539398,-5.539398l0.791183,0.791183c0.106312,0.106312 0.248993,0.163944 0.395591,0.163944c0.049799,0 0.100157,-0.006714 0.149396,-0.020143c0.194159,-0.053715 0.344674,-0.208147 0.393353,-0.403425l0.791183,-3.16529c0.04756,-0.190801 -0.008393,-0.392234 -0.147158,-0.531558s-0.339638,-0.195278 -0.531558,-0.147158l-3.16529,0.791183c-0.195278,0.04868 -0.349709,0.199195 -0.403425,0.393353s0.001119,0.402306 0.143801,0.544987l0.791183,0.791183l-5.539398,5.539398l0.791742,0.791742z"/>
  <path fill="#787878" stroke="null" id="svg_7" d="m7.365543,33.853985c0.051278,0 0.102557,-0.006331 0.153835,-0.018992l3.581257,-0.895156c0.22094,-0.055077 0.395667,-0.225372 0.456441,-0.445046s-0.001266,-0.455175 -0.162698,-0.616607l-0.895156,-0.895156l6.267358,-6.267358l-0.895156,-0.895156l-6.267358,6.267358l-0.895156,-0.895156c-0.161432,-0.161432 -0.3963,-0.224106 -0.616607,-0.162698c-0.219674,0.060774 -0.389969,0.235501 -0.445046,0.456441l-0.895156,3.581257c-0.053811,0.215876 0.009496,0.44378 0.166496,0.601413c0.11965,0.11965 0.281081,0.184855 0.446945,0.184855z"/>
  <path fill="#787878" stroke="null" id="svg_8" d="m28.430902,19.808804l7.277532,0l0,1.039647c0,0.187137 0.100846,0.360238 0.263551,0.452247c0.079533,0.045225 0.167903,0.067577 0.256273,0.067577c0.092529,0 0.185057,-0.024432 0.267709,-0.074335l2.599118,-1.559471c0.156467,-0.093568 0.252114,-0.263031 0.252114,-0.445489s-0.095648,-0.351921 -0.252114,-0.445489l-2.599118,-1.559471c-0.160626,-0.096687 -0.360758,-0.099286 -0.523462,-0.006758c-0.163225,0.092009 -0.26407,0.26511 -0.26407,0.452247l0,1.039647l-7.277532,0l0,1.039647z"/>
  <path fill="#787878" stroke="null" id="svg_9" d="m5.662528,17.017344c-0.192037,-0.10921 -0.428249,-0.106142 -0.617832,0.007976l-3.067686,1.840611c-0.185288,0.110437 -0.298179,0.31045 -0.298179,0.525801s0.112891,0.415365 0.297566,0.525801l3.067686,1.840611c0.097552,0.0589 0.206762,0.087736 0.315972,0.087736c0.104301,0 0.208603,-0.026382 0.302474,-0.07976c0.192037,-0.108596 0.311063,-0.312904 0.311063,-0.533777l0,-1.227074l8.58952,0l0,-1.227074l-8.58952,0l0,-1.227074c0,-0.220873 -0.119026,-0.425181 -0.311063,-0.533777z"/>
  <path fill="#787878" stroke="null" id="svg_10" d="m20.067764,4.660786l1.152525,0l0,8.067672l1.152525,0l0,-8.067672l1.152525,0c0.207454,0 0.39935,-0.111795 0.501348,-0.292165c0.102575,-0.18037 0.099693,-0.402231 -0.007491,-0.580296l-1.728787,-2.881312c-0.208031,-0.347486 -0.780259,-0.347486 -0.98829,0l-1.728787,2.881312c-0.107185,0.178065 -0.10949,0.399926 -0.007491,0.580296c0.102575,0.18037 0.29447,0.292165 0.501924,0.292165z"/>
  <path fill="#787878" stroke="null" id="svg_11" d="m21.09338,26.016l0,8.418334l-1.202619,0c-0.216471,0 -0.416708,0.116654 -0.523139,0.304864c-0.107033,0.18821 -0.104027,0.419714 0.007817,0.605519l1.803929,3.006548c0.108236,0.181595 0.304263,0.292236 0.515322,0.292236s0.407087,-0.110641 0.515322,-0.291635l1.803929,-3.006548c0.111844,-0.185805 0.114249,-0.417309 0.007817,-0.605519c-0.106432,-0.188811 -0.306668,-0.305465 -0.523139,-0.305465l-1.202619,0l0,-8.418334l-1.202619,0z"/>
  <path fill="#787878" stroke="null" id="svg_12" d="m33.964029,29.403995c-0.050407,-0.202206 -0.206262,-0.362117 -0.407309,-0.417738c-0.202786,-0.056201 -0.417159,0.001159 -0.564323,0.148903l-0.819253,0.819253l-5.735933,-5.735933l-0.819253,0.819253l5.735933,5.735933l-0.819253,0.819253c-0.147744,0.147744 -0.204524,0.363276 -0.148903,0.564323s0.215532,0.356903 0.417738,0.407309l3.277593,0.819253c0.04693,0.011588 0.093861,0.017382 0.140791,0.017382c0.151799,0 0.299543,-0.059677 0.409627,-0.16976c0.144267,-0.144267 0.201627,-0.352847 0.152379,-0.550418l-0.819833,-3.277014z"/>
  <path fill="#787878" stroke="null" id="svg_13" d="m7.623767,9.704668c0.055087,0.220983 0.225415,0.395743 0.445131,0.456529c0.055721,0.015197 0.112708,0.022795 0.169061,0.022795c0.165895,0 0.327358,-0.065218 0.447664,-0.185524l0.895328,-0.895328l6.268564,6.268564l0.895328,-0.895328l-6.268564,-6.268564l0.895328,-0.895328c0.161463,-0.161463 0.223515,-0.397009 0.162729,-0.616725s-0.235546,-0.390044 -0.456529,-0.445131l-3.581946,-0.895328c-0.215917,-0.053188 -0.443865,0.009498 -0.601529,0.166529c-0.157664,0.157664 -0.22035,0.385612 -0.166529,0.601529l0.895961,3.581313z"/>
 </g>
</svg>