<svg width="40.00000000000001" height="40.00000000000001" xmlns="http://www.w3.org/2000/svg">
 <title/>

 <g>
  <title>background</title>
  <rect fill="none" id="canvas_background" height="42" width="42" y="-1" x="-1"/>
 </g>
 <g>
  <title>Layer 1</title>
  <path fill="#787878" stroke="null" id="svg_1" d="m31.305314,39.369844l-7.924613,0a1.584923,1.584923 0 0 1 -1.584923,-1.584923a4.754768,4.754768 0 0 0 -9.509536,0a1.584923,1.584923 0 0 1 -1.584923,1.584923l-7.924613,0a1.584923,1.584923 0 0 1 -1.584923,-1.584923l0,-7.924613a1.584923,1.584923 0 0 1 1.584923,-1.584923a4.754768,4.754768 0 0 0 0,-9.509536a1.584923,1.584923 0 0 1 -1.584923,-1.584923l0,-7.924613a1.584923,1.584923 0 0 1 1.584923,-1.584923l6.498183,0a7.924613,7.924613 0 0 1 15.532241,0l6.498183,0a1.584923,1.584923 0 0 1 1.584923,1.584923l0,6.498183a7.924613,7.924613 0 0 1 0,15.532241l0,6.498183a1.584923,1.584923 0 0 1 -1.584923,1.584923zm-6.498183,-3.169845l4.91326,0l0,-6.33969a1.584923,1.584923 0 0 1 1.584923,-1.584923a4.754768,4.754768 0 0 0 0,-9.509536a1.584923,1.584923 0 0 1 -1.584923,-1.584923l0,-6.33969l-6.33969,0a1.584923,1.584923 0 0 1 -1.584923,-1.584923a4.754768,4.754768 0 0 0 -9.509536,0a1.584923,1.584923 0 0 1 -1.584923,1.584923l-6.33969,0l0,4.91326a7.924613,7.924613 0 0 1 0,15.532241l0,4.91326l4.91326,0a7.924613,7.924613 0 0 1 15.532241,0z"/>
 </g>
</svg>