<svg width="40" height="40" xmlns="http://www.w3.org/2000/svg">

 <g>
  <title>background</title>
  <rect fill="none" id="canvas_background" height="42" width="42" y="-1" x="-1"/>
 </g>
 <g>
  <title>Layer 1</title>
  <path stroke="null" fill="#787878" id="file_x5F_folder" d="m39.20487,34.163877l-0.138964,-25.013505c0,-0.833784 -0.69482,-1.389639 -1.389639,-1.389639l-17.787382,0.138964c-0.555856,0 -0.972747,-0.972747 -0.972747,-1.389639l0,-0.138964c0,-0.833784 -0.69482,-1.528603 -1.528603,-1.528603l-9.449546,0.138964c-0.69482,0 -1.389639,0.555856 -1.389639,1.389639l0,0.138964c0,0.416892 -0.416892,1.389639 -0.972747,1.389639l0,0c-0.69482,0 -1.389639,0.69482 -1.389639,1.389639l0,7.226124l-3.057206,0c0,0 -1.389639,0 -0.833784,1.528603l3.335134,16.258778c0,0.833784 0.555856,1.528603 1.389639,1.528603l33.35134,-0.277928c0.972747,0.138964 0.833784,-1.389639 0.833784,-1.389639zm-1.806531,-15.702923l0.138964,16.397742l-3.335134,-17.509454c-0.277928,-0.972747 -1.389639,-0.833784 -1.389639,-0.833784l-26.820036,0.138964l0,-5.558557l31.405846,-0.277928l0,7.643016l0,0z" class="st0"/>
 </g>
</svg>