<svg width="40" height="40" viewBox="0 0 40 40" fill="none" xmlns="http://www.w3.org/2000/svg">
<path d="M11.7969 32.8906H7.10938V35.2344H11.7969V32.8906Z" fill="#787878"/>
<path d="M21.1719 4.6875H14.1406V7.03125H21.1719V4.6875Z" fill="#787878"/>
<path d="M25.067 21.1719C25.4179 20.4325 25.6574 19.6433 25.7747 18.8281H25.8594C28.4441 18.8281 30.5469 16.7253 30.5469 14.1406C30.5469 12.4252 29.6375 10.899 28.2031 10.078V8.20312C28.2031 3.67992 24.5232 0 20 0H15.3125C10.7893 0 7.10938 3.67992 7.10938 8.20312V10.078C5.675 10.899 4.76562 12.4252 4.76562 14.1406C4.76562 16.7253 6.86844 18.8281 9.45312 18.8281H9.53719C9.83625 20.9098 10.9195 22.7414 12.4774 24.013L12.0302 25.762L7.08641 26.4035C3.18727 26.9095 0.157578 30.1429 0.00617188 34.0599C0.00203125 34.1663 0 34.2736 0 34.3791V40H18.8281H34.0625H40V21.1719H25.067ZM28.2031 23.5156H30.5469V28.2031H28.2031V23.5156ZM28.2031 14.1406C28.2031 15.433 27.1517 16.4844 25.8594 16.4844V13.4541L27.1357 12.1778C27.7848 12.6039 28.2031 13.3405 28.2031 14.1406ZM9.45312 16.4844C8.16078 16.4844 7.10938 15.433 7.10938 14.1406C7.10938 13.3405 7.52766 12.6039 8.1768 12.1778L9.45312 13.4541V16.4844ZM9.45312 9.45312V8.20312C9.45312 4.97227 12.0816 2.34375 15.3125 2.34375H20C23.2309 2.34375 25.8594 4.97227 25.8594 8.20312V9.45312H9.45312ZM24.202 11.7969L21.8583 14.1406H13.4541L11.1104 11.7969H24.202ZM18.8281 37.6562H2.34375V34.3791C2.34375 31.5 4.58172 29.092 7.38805 28.7278L10.3147 28.348C11.6977 31.1228 14.5271 32.8906 17.6562 32.8906C18.0507 32.8906 18.4418 32.8611 18.8281 32.8058V37.6562ZM18.8281 30.4289C18.4447 30.5066 18.053 30.5469 17.6562 30.5469C15.7048 30.5469 13.9165 29.5841 12.8363 28.0209L13.9073 27.8819L14.5779 25.2594C15.529 25.6459 16.568 25.8594 17.6562 25.8594C18.0507 25.8594 18.4418 25.8298 18.8281 25.7745V30.4289ZM18.8281 23.3977C18.4447 23.4754 18.053 23.5156 17.6562 23.5156C14.4254 23.5156 11.7969 20.8871 11.7969 17.6562V15.7979L12.4834 16.4844H22.8292L23.5157 15.7979V17.6562C23.5157 18.9312 23.1021 20.1615 22.3434 21.1719H18.8281V23.3977ZM37.6562 37.6562H34.0625H21.1719V23.5156H25.8594V30.5469H32.8906V23.5156H37.6562V37.6562Z" fill="#787878"/>
</svg>
