<svg width="40" height="40" viewBox="0 0 40 40" fill="none" xmlns="http://www.w3.org/2000/svg">
<g clip-path="url(#clip0)">
<path d="M40.0007 12.3509C40.0007 6.15332 34.9587 1.11133 28.7612 1.11133C22.8911 1.11133 18.0585 5.63487 17.5641 11.3791H2.45362V30.7575H1.8901C1.23106 30.7575 0.630775 31.0922 0.284357 31.6528C-0.0620609 32.2134 -0.0929631 32.9 0.201664 33.4894L1.41953 35.9253C2.33384 37.7539 4.17178 38.8898 6.21626 38.8898H30.2392C32.2836 38.8898 34.1215 37.7539 35.0359 35.9253L36.2537 33.4895C36.5485 32.9001 36.5176 32.2134 36.1711 31.6528C35.8246 31.0922 35.2243 30.7575 34.5653 30.7575H34.0018V22.2913C37.5662 20.4045 40.0007 16.6569 40.0007 12.3509ZM28.7612 3.45833C33.6646 3.45833 37.6537 7.44754 37.6537 12.3509C37.6537 17.2543 33.6646 21.2435 28.7612 21.2435C23.8578 21.2435 19.8686 17.2543 19.8686 12.3509C19.8686 7.44754 23.8578 3.45833 28.7612 3.45833ZM32.9367 34.8757C32.4225 35.904 31.3889 36.5428 30.2393 36.5428H6.21626C5.06654 36.5428 4.03299 35.904 3.51884 34.8757L2.63324 33.1045H33.8222L32.9367 34.8757ZM31.6548 30.7575H4.80062V13.7261H17.6058C18.2861 19.2773 23.0291 23.5905 28.7611 23.5905C29.7613 23.5905 30.7311 23.4584 31.6547 23.2121V30.7575H31.6548Z" fill="#787878"/>
<path d="M24.446 15.0068L23.3635 16.0893L25.0231 17.7489L26.1056 16.6663C26.5575 16.9454 27.0563 17.1548 27.5871 17.2811V18.8109H29.9341V17.2811C30.4649 17.1548 30.9638 16.9454 31.4156 16.6663L32.4982 17.7489L34.1577 16.0893L33.0752 15.0068C33.3543 14.5549 33.5636 14.0561 33.69 13.5253H35.2197V11.1783H33.69C33.5636 10.6475 33.3543 10.1486 33.0752 9.69676L34.1577 8.61424L32.4982 6.95468L31.4156 8.03719C30.9638 7.75813 30.4649 7.54886 29.9341 7.42243V5.89258H27.5871V7.42236C27.0563 7.5487 26.5574 7.75806 26.1056 8.03711L25.0231 6.9546L23.3635 8.61416L24.446 9.69668C24.167 10.1486 23.9576 10.6474 23.8312 11.1783H22.3015V13.5253H23.8312C23.9576 14.056 24.167 14.5549 24.446 15.0068ZM28.7607 9.63073C30.2611 9.63073 31.4817 10.8514 31.4817 12.3517C31.4817 13.852 30.261 15.0727 28.7607 15.0727C27.2603 15.0727 26.0397 13.852 26.0397 12.3517C26.0397 10.8514 27.2603 9.63073 28.7607 9.63073Z" fill="#787878"/>
</g>
<defs>
<clipPath id="clip0">
<rect width="40" height="40" fill="white"/>
</clipPath>
</defs>
</svg>
