<svg width="40" height="40" viewBox="0 0 40 40" fill="none" xmlns="http://www.w3.org/2000/svg">
<path d="M27.9016 14.1516L22.1707 19.8828L27.9016 25.614C28.512 26.2241 28.512 27.2134 27.9016 27.8235C27.5967 28.1287 27.1967 28.2812 26.7969 28.2812C26.3971 28.2812 25.997 28.1287 25.6921 27.8235L19.9609 22.0926L14.2297 27.8235C13.9249 28.1287 13.5248 28.2812 13.125 28.2812C12.7252 28.2812 12.3251 28.1287 12.0203 27.8235C11.4099 27.2134 11.4099 26.2241 12.0203 25.614L17.7512 19.8828L12.0203 14.1516C11.4099 13.5416 11.4099 12.5522 12.0203 11.9421C12.6303 11.3318 13.6197 11.3318 14.2297 11.9421L19.9609 17.673L25.6921 11.9421C26.3022 11.3318 27.2916 11.3318 27.9016 11.9421C28.512 12.5522 28.512 13.5416 27.9016 14.1516ZM34.1422 5.85785C30.3647 2.08038 25.3421 0 20 0C14.6579 0 9.63531 2.08038 5.85785 5.85785C2.08038 9.63531 0 14.6579 0 20C0 25.3421 2.08038 30.3647 5.85785 34.1422C9.63531 37.9196 14.6579 40 20 40C23.6572 40 27.2357 39.0033 30.3485 37.1176C31.0867 36.6705 31.3226 35.7098 30.8755 34.9719C30.4285 34.2337 29.4675 33.9978 28.7296 34.4449C26.105 36.0345 23.0862 36.875 20 36.875C10.6952 36.875 3.125 29.3048 3.125 20C3.125 10.6952 10.6952 3.125 20 3.125C29.3048 3.125 36.875 10.6952 36.875 20C36.875 23.3273 35.8856 26.5659 34.0137 29.3661C33.5339 30.0833 33.7268 31.0538 34.4443 31.5335C35.1614 32.0129 36.1319 31.8204 36.6116 31.1029C38.8281 27.7872 40 23.9478 40 20C40 14.6579 37.9196 9.63531 34.1422 5.85785Z" fill="#787878"/>
</svg>
