<svg width="40" height="40" viewBox="0 0 40 40" fill="none" xmlns="http://www.w3.org/2000/svg">
<path d="M31.7969 0H8.20312C3.67992 0 0 3.67992 0 8.20312V31.7969C0 36.3201 3.67992 40 8.20312 40H31.7969C36.3201 40 40 36.3201 40 31.7969V8.20312C40 3.67992 36.3201 0 31.7969 0ZM37.6562 31.7969C37.6562 35.0277 35.0277 37.6562 31.7969 37.6562H8.20312C4.97227 37.6562 2.34375 35.0277 2.34375 31.7969V8.20312C2.34375 4.97227 4.97227 2.34375 8.20312 2.34375H31.7969C35.0277 2.34375 37.6562 4.97227 37.6562 8.20312V31.7969Z" fill="#787878"/>
<path d="M34.292 16.201H23.374L20.0001 5.81738L16.6263 16.201H5.70825L14.5411 22.6184L11.1672 33.0021L20.0001 26.5846L28.833 33.0021L25.4592 22.6184L34.292 16.201ZM20.0001 23.6876L15.6254 26.8661L17.2964 21.7232L12.9216 18.5447H18.3291L20.0001 13.4019L21.6711 18.5447H27.0786L22.7039 21.7232L24.3749 26.8661L20.0001 23.6876Z" fill="#787878"/>
</svg>
