<svg width="40" height="40" viewBox="0 0 40 40" fill="none" xmlns="http://www.w3.org/2000/svg">
<path d="M24.6875 25.8594H34.1406C34.7878 25.8594 35.3125 25.3347 35.3125 24.6875C35.3125 24.0403 34.7878 23.5156 34.1406 23.5156H24.6875C24.0403 23.5156 23.5156 24.0403 23.5156 24.6875C23.5156 25.3347 24.0403 25.8594 24.6875 25.8594ZM24.6875 21.1719H34.1406C34.7878 21.1719 35.3125 20.6472 35.3125 20C35.3125 19.3528 34.7878 18.8281 34.1406 18.8281H24.6875C24.0403 18.8281 23.5156 19.3528 23.5156 20C23.5156 20.6472 24.0403 21.1719 24.6875 21.1719ZM24.6875 30.5469H34.1406C34.7878 30.5469 35.3125 30.0222 35.3125 29.375C35.3125 28.7278 34.7878 28.2031 34.1406 28.2031H24.6875C24.0403 28.2031 23.5156 28.7278 23.5156 29.375C23.5156 30.0222 24.0403 30.5469 24.6875 30.5469ZM24.6875 16.4844H34.1406C34.7878 16.4844 35.3125 15.9597 35.3125 15.3125C35.3125 14.6653 34.7878 14.1406 34.1406 14.1406H24.6875C24.0403 14.1406 23.5156 14.6653 23.5156 15.3125C23.5156 15.9597 24.0403 16.4844 24.6875 16.4844ZM5.85938 32.8906H20C20.6472 32.8906 21.1719 32.3659 21.1719 31.7188V12.9688C21.1719 12.3216 20.6472 11.7969 20 11.7969H5.85938C5.21219 11.7969 4.6875 12.3216 4.6875 12.9688V31.7188C4.6875 32.3659 5.21219 32.8906 5.85938 32.8906ZM7.03125 14.1406H18.8281V30.5469H7.03125V14.1406ZM12.9688 25.8594C12.3216 25.8594 11.7969 26.3841 11.7969 27.0312C11.7969 27.6784 12.3216 28.2031 12.9688 28.2031C13.6159 28.2031 14.1406 27.6784 14.1406 27.0312C14.1406 26.3841 13.6159 25.8594 12.9688 25.8594ZM38.8281 2.42188H1.17188C0.524687 2.42188 0 2.94656 0 3.59375V36.4062C0 37.0534 0.524687 37.5781 1.17188 37.5781H38.8281C39.4753 37.5781 40 37.0534 40 36.4062V3.59375C40 2.94656 39.4753 2.42188 38.8281 2.42188ZM37.6562 35.2344H2.34375V9.45312H37.6562V35.2344ZM37.6562 7.10938H2.34375V4.76562H37.6562V7.10938ZM12.9688 16.4844C11.0302 16.4844 9.45312 18.0615 9.45312 20C9.45312 20.6472 9.97781 21.1719 10.625 21.1719C11.2722 21.1719 11.7969 20.6472 11.7969 20C11.7969 19.3538 12.3226 18.8281 12.9688 18.8281C13.6149 18.8281 14.1406 19.3538 14.1406 20C14.1406 20.4939 13.8286 20.9375 13.3641 21.1038C12.4267 21.4396 11.7969 22.3341 11.7969 23.3295V23.5156C11.7969 24.1628 12.3216 24.6875 12.9688 24.6875C13.6159 24.6875 14.1406 24.1628 14.1406 23.5156V23.3295C14.1406 23.3213 14.1464 23.3132 14.1545 23.3103C15.5481 22.8111 16.4844 21.4808 16.4844 20C16.4844 18.0615 14.9073 16.4844 12.9688 16.4844Z" fill="#787878"/>
</svg>
