<svg width="40" height="40" viewBox="0 0 40 40" fill="none" xmlns="http://www.w3.org/2000/svg">
<g clip-path="url(#clip0)">
<path d="M39.5816 14.7046L29.5814 4.70439C29.0234 4.14657 28.1189 4.14674 27.561 4.70473C27.2933 4.97259 27.1428 5.33571 27.1428 5.71448V10.0003H17.1426C16.3536 10.0003 15.714 10.6399 15.714 11.4289C15.714 12.2179 16.3536 12.8575 17.1426 12.8575H28.5714C29.3604 12.8575 30 12.2179 30 11.4289V9.16303L36.5516 15.7146L30 22.2661V20.0004C30 19.2114 29.3604 18.5717 28.5714 18.5717H12.8568V14.286C12.8566 13.4969 12.2169 12.8575 11.4279 12.8577C11.0492 12.8578 10.686 13.0082 10.4182 13.276L0.418059 23.2761C-0.139679 23.8341 -0.139679 24.7383 0.418059 25.2962L10.4182 35.2963C10.6861 35.5643 11.0494 35.7149 11.4283 35.715C11.616 35.7155 11.8021 35.6786 11.9754 35.6064C12.5091 35.3851 12.857 34.8642 12.8568 34.2863V30.0006H22.857C23.646 30.0006 24.2856 29.361 24.2856 28.5719C24.2856 27.7829 23.646 27.1433 22.857 27.1433H11.4283C10.6392 27.1433 9.99963 27.7829 9.99963 28.5719V30.8377L3.44807 24.2862L9.99963 17.7346V20.0004C9.99963 20.7894 10.6392 21.429 11.4283 21.429H27.1428V25.7148C27.1429 26.5038 27.7827 27.1432 28.5716 27.1431C28.9503 27.143 29.3135 26.9926 29.5814 26.7248L39.5816 16.7246C40.1392 16.1667 40.1392 15.2624 39.5816 14.7046Z" fill="#787878"/>
</g>
<defs>
<clipPath id="clip0">
<rect width="40" height="40" fill="white"/>
</clipPath>
</defs>
</svg>
