<svg width="40" height="40" viewBox="0 0 40 40" fill="none" xmlns="http://www.w3.org/2000/svg">
<g clip-path="url(#clip0)">
<path d="M34.004 29.4224L30.7764 18.8492L32.5141 16.5876C33.5706 15.2533 33.3686 13.2849 32.0606 12.1939L28.6942 9.3857C27.5891 8.46376 26.1878 7.95595 24.7489 7.95595H24.3622C24.9002 7.13838 25.2143 6.16151 25.2143 5.1117C25.2143 2.25007 22.8861 -0.078125 20.0244 -0.078125C17.1628 -0.078125 14.8346 2.25007 14.8346 5.1117C14.8346 6.16121 15.1486 7.13838 15.6864 7.95595H15.3C13.8608 7.95595 12.4597 8.46376 11.3547 9.3854L7.98798 12.1939C6.67999 13.2849 6.47797 15.2536 7.53479 16.5879L9.05457 18.5636L6.09375 29.4224H13.2446V35.9458C13.2446 38.1382 15.0284 39.922 17.2211 39.922C18.3139 39.922 19.3048 39.4785 20.0244 38.7626C20.7437 39.4785 21.735 39.922 22.8278 39.922C25.0202 39.922 26.8039 38.1382 26.8039 35.9458V29.4224H34.004ZM30.8353 27.0768H26.8039V24.0198L29.0213 21.1338L30.8353 27.0768ZM17.1802 5.1117C17.1802 3.5434 18.4561 2.26746 20.0244 2.26746C21.5924 2.26746 22.8684 3.5434 22.8684 5.1117C22.8684 6.67909 21.5943 7.95442 20.0272 7.95595H20.0214C18.4543 7.95442 17.1802 6.67909 17.1802 5.1117ZM9.49067 13.9951L12.8571 11.1869C13.5413 10.6159 14.4089 10.3015 15.3 10.3015H20.0214H20.0244H20.0275H24.7489C25.64 10.3015 26.5073 10.6159 27.1918 11.1869L30.5582 13.9951C30.8973 14.2777 30.9491 14.7885 30.6736 15.1337L26.811 20.1612V13.5004H24.4651V18.2929L15.5905 18.2981V13.508H13.2449V20.1642L9.38874 15.1505L9.37562 15.1337C9.10004 14.7885 9.15162 14.2777 9.49067 13.9951ZM9.16443 27.0768L10.8496 20.8973L13.2446 24.0116V27.0768H9.16443ZM22.8278 37.5764C21.9287 37.5764 21.1972 36.8449 21.1972 35.9458V24.3345H18.8516V35.9458C18.8516 36.8449 18.1201 37.5764 17.2211 37.5764C16.3217 37.5764 15.5905 36.8449 15.5905 35.9458V20.644L24.4583 20.6385V35.9458C24.4583 36.8449 23.7268 37.5764 22.8278 37.5764Z" fill="#787878"/>
</g>
<defs>
<clipPath id="clip0">
<rect width="40" height="40" fill="white"/>
</clipPath>
</defs>
</svg>
