<svg width="40" height="40" viewBox="0 0 40 40" fill="none" xmlns="http://www.w3.org/2000/svg">
<g clip-path="url(#clip0)">
<path d="M0 12.9135H8.85101V4.0625H0V12.9135ZM2.34406 6.40656H6.50726V10.5698H2.34406V6.40656Z" fill="#787878"/>
<path d="M11.6638 4.0625V12.9135H40V4.0625H11.6638ZM37.6559 10.5698H14.0079V6.40656H37.6559V10.5698Z" fill="#787878"/>
<path d="M0 24.3979H8.85101V15.5469H0V24.3979ZM2.34406 17.8906H6.50726V22.0538H2.34406V17.8906Z" fill="#787878"/>
<path d="M11.6638 24.3979H40V15.5469H11.6638V24.3979ZM14.0079 17.8906H37.6559V22.0538H14.0079V17.8906Z" fill="#787878"/>
<path d="M0 35.8835H8.85101V27.0322H0V35.8835ZM2.34406 29.3763H6.50726V33.5395H2.34406V29.3763Z" fill="#787878"/>
<path d="M11.6638 35.8835H40V27.0322H11.6638V35.8835ZM14.0079 29.3763H37.6559V33.5395H14.0079V29.3763Z" fill="#787878"/>
</g>
<defs>
<clipPath id="clip0">
<rect width="40" height="40" fill="white"/>
</clipPath>
</defs>
</svg>
