<svg width="40" height="40" viewBox="0 0 40 40" fill="none" xmlns="http://www.w3.org/2000/svg">
<path d="M4.6875 18.7529H25.7812V21.0967H4.6875V18.7529Z" fill="#787878"/>
<path d="M11.7188 23.4404H25.7812V25.7842H11.7188V23.4404Z" fill="#787878"/>
<path d="M4.6875 28.1279H25.7812V30.4717H4.6875V28.1279Z" fill="#787878"/>
<path d="M0 35.1582H4.6875V39.999L10.9471 35.1582H30.4688V0.00195312H0V35.1582ZM2.34375 2.3457H28.125V32.8145H10.1466L7.03125 35.2237V32.8145H2.34375V2.3457Z" fill="#787878"/>
<path d="M10.5469 5.1377V15.9612L21.3704 10.5494L10.5469 5.1377ZM12.8906 8.92996L16.1296 10.5494L12.8906 12.1689V8.92996Z" fill="#787878"/>
<path d="M36.4844 2.34668C34.5459 2.34668 32.9688 3.92379 32.9688 5.8623V18.7529H32.981C33.1601 27.5583 35.3013 33.0132 35.3964 33.2507L36.4844 35.9708L37.5724 33.2507C37.6674 33.0132 39.8087 27.5583 39.9878 18.7529H40C40 15.6919 40 8.40746 40 5.8623C40 3.92379 38.4229 2.34668 36.4844 2.34668ZM36.4844 28.5632C35.9552 26.2089 35.4143 22.8548 35.3255 18.7529H37.6432C37.5545 22.8548 37.0134 26.209 36.4844 28.5632ZM35.3125 16.4092V5.8623C35.3125 5.21613 35.8382 4.69043 36.4844 4.69043C37.1305 4.69043 37.6562 5.21613 37.6562 5.8623V16.4092H35.3125Z" fill="#787878"/>
<path d="M4.6875 23.4404H9.375V25.7842H4.6875V23.4404Z" fill="#787878"/>
</svg>
