<svg width="40" height="40" viewBox="0 0 40 40" fill="none" xmlns="http://www.w3.org/2000/svg">
<path d="M38.8281 40H15.3125C14.6653 40 14.1406 39.4753 14.1406 38.8281V25.8594H1.17188C0.524687 25.8594 0 25.3347 0 24.6875V1.17188C0 0.524687 0.524687 0 1.17188 0H24.6875C25.3347 0 25.8594 0.524687 25.8594 1.17188V14.1406H38.8281C39.4753 14.1406 40 14.6653 40 15.3125V38.8281C40 39.4753 39.4753 40 38.8281 40ZM16.4844 37.6562H37.6562V16.4844H24.6875C24.0403 16.4844 23.5156 15.9597 23.5156 15.3125V2.34375H2.34375V23.5156H15.3125C15.9597 23.5156 16.4844 24.0403 16.4844 24.6875V37.6562Z" fill="#787878"/>
</svg>
