<svg width="40" height="40" viewBox="0 0 40 40" fill="none" xmlns="http://www.w3.org/2000/svg">
<path d="M21.6484 19.8515C17.8007 20.7652 17.0414 21.5233 16.7915 21.7723C16.0927 22.4699 15.7075 23.3976 15.7075 24.3846C15.7075 25.3715 16.0927 26.2993 16.7915 26.9969C17.5123 27.7162 18.459 28.0757 19.406 28.0757C20.3526 28.0757 21.2993 27.7162 22.0201 26.9969C23.0293 25.9895 23.6949 23.199 23.9454 22.1483C24.1002 21.4998 23.9113 20.8308 23.4401 20.3593C22.968 19.8869 22.2984 19.6971 21.6484 19.8515ZM20.3645 25.3379C19.8359 25.8653 18.976 25.8653 18.4474 25.3379C18.192 25.0831 18.0513 24.7444 18.0513 24.3846C18.0513 24.0248 18.192 23.686 18.4471 23.4312C18.6177 23.2628 19.4691 22.8294 21.4912 22.3051C20.9666 24.3199 20.5333 25.168 20.3645 25.3379Z" fill="#787878"/>
<path d="M19.8533 12.4102C13.491 12.4102 8.31494 17.5768 8.31494 23.9272C8.31494 30.2779 13.491 35.4445 19.8533 35.4445C26.2153 35.4445 31.3914 30.2779 31.3914 23.9272C31.3914 17.5768 26.2153 12.4102 19.8533 12.4102ZM19.8533 33.1008C14.7834 33.1008 10.6587 28.9855 10.6587 23.9272C10.6587 18.8692 14.7834 14.7539 19.8533 14.7539C24.9232 14.7539 29.0477 18.8692 29.0477 23.9272C29.0477 28.9855 24.9232 33.1008 19.8533 33.1008Z" fill="#787878"/>
<path d="M35.4355 13.5223C35.9103 13.0478 36.1719 12.4167 36.1719 11.7456C36.1719 11.0742 35.9103 10.4434 35.4355 9.96857L33.8193 8.35358C32.8397 7.37427 31.2451 7.37427 30.2655 8.35358L28.3432 10.2744C26.8698 9.35822 25.2377 8.6731 23.4988 8.26965V6.25275H23.9105C24.931 6.25275 25.7611 5.42236 25.7611 4.40216V1.85059C25.7611 0.830383 24.931 0 23.9105 0H15.7956C14.7751 0 13.945 0.830383 13.945 1.85059V4.40186C13.945 5.42236 14.7751 6.25244 15.7956 6.25244H16.2073V8.26965C9.07837 9.92279 3.75 16.3156 3.75 23.927C3.75 32.7896 10.9738 40 19.8532 40C28.7323 40 35.9561 32.7896 35.9561 23.927C35.9561 20.8121 35.0638 17.9013 33.5208 15.4358L35.4355 13.5223ZM31.9223 10.0113C31.9885 9.94507 32.0963 9.94507 32.1625 10.0113L33.7787 11.6266C33.8196 11.6675 33.8281 11.7139 33.8281 11.7456C33.8281 11.7773 33.8196 11.824 33.7787 11.8646L32.1185 13.5236C31.5506 12.8574 30.929 12.2379 30.2609 11.6714L31.9223 10.0113ZM16.2888 2.34375H23.4174V3.909H16.2888V2.34375ZM18.551 6.25275H21.1551V7.90619C20.7254 7.8717 20.2914 7.85431 19.8532 7.85431C19.415 7.85431 18.9807 7.8717 18.551 7.90619V6.25275ZM19.8532 37.6562C12.2662 37.6562 6.09375 31.4972 6.09375 23.927C6.09375 16.3568 12.2662 10.1981 19.8532 10.1981C27.4402 10.1981 33.6124 16.3568 33.6124 23.927C33.6124 31.4972 27.4402 37.6562 19.8532 37.6562Z" fill="#787878"/>
</svg>
