<svg width="40" height="40" viewBox="0 0 40 40" fill="none" xmlns="http://www.w3.org/2000/svg">
<path d="M31.8143 23.5439C29.0459 23.5439 26.7932 25.7967 26.7932 28.565C26.7932 31.3334 29.0456 33.5861 31.8143 33.5861C34.5831 33.5861 36.8354 31.3338 36.8354 28.565C36.8354 25.7963 34.5827 23.5439 31.8143 23.5439ZM31.8143 31.0541C30.4413 31.0541 29.3249 29.9376 29.3249 28.5646C29.3249 27.1917 30.4413 26.0752 31.8143 26.0752C33.1869 26.0752 34.3034 27.1917 34.3034 28.5646C34.3033 29.9376 33.1869 31.0541 31.8143 31.0541Z" fill="#787878"/>
<path d="M10.2533 23.5439C7.48452 23.5439 5.23218 25.7967 5.23218 28.565C5.23218 31.3334 7.48452 33.5861 10.2533 33.5861C13.022 33.5861 15.2744 31.3334 15.2744 28.565C15.2744 25.7967 13.0221 23.5439 10.2533 23.5439ZM10.2533 31.0541C8.8803 31.0541 7.76382 29.9376 7.76382 28.5646C7.76382 27.1917 8.88069 26.0752 10.2533 26.0752C11.6258 26.0752 12.7427 27.1917 12.7427 28.5646C12.7427 29.9376 11.6263 31.0541 10.2533 31.0541Z" fill="#787878"/>
<path d="M39.8269 17.4629L36.1982 11.2604C35.9712 10.8721 35.5548 10.6338 35.1054 10.6338H24.2192V13.1654H34.3792L37.4682 18.4452V27.3004H35.5695V29.8321H38.734C39.4331 29.8321 39.9999 29.2654 39.9998 28.5662V18.1021C39.9999 17.8772 39.9403 17.6565 39.8269 17.4629Z" fill="#787878"/>
<path d="M28.1013 27.2998H13.9663V29.8314H28.1013V27.2998Z" fill="#787878"/>
<path d="M24.2194 6.41406H1.26586C0.566641 6.41406 0 6.9807 0 7.67984V28.5659C0 29.2651 0.566641 29.8318 1.26586 29.8318H5.99156V27.3002H2.53164V8.9457H22.9536V28.5659H25.4852V7.67984C25.4852 6.9807 24.9186 6.41406 24.2194 6.41406Z" fill="#787878"/>
<path d="M38.7336 16.9199H24.2192V19.4516H38.7336V16.9199Z" fill="#787878"/>
<path d="M19.156 11.4346H11.8142C11.1151 11.4346 10.5483 12.0012 10.5483 12.7004C10.5483 13.3996 11.115 13.9663 11.8142 13.9663H19.156C19.8551 13.9663 20.4219 13.3996 20.4219 12.7004C20.4219 12.0012 19.8552 11.4346 19.156 11.4346Z" fill="#787878"/>
<path d="M19.156 15.9492H6.28686C5.58772 15.9492 5.021 16.5159 5.021 17.2151C5.021 17.9143 5.58764 18.4809 6.28686 18.4809H19.1561C19.8552 18.4809 20.4219 17.9143 20.4219 17.2151C20.4219 16.5159 19.8552 15.9492 19.156 15.9492Z" fill="#787878"/>
<path d="M19.156 20.4219H15.696C14.9969 20.4219 14.4302 20.9885 14.4302 21.6877C14.4302 22.3869 14.9968 22.9536 15.696 22.9536H19.156C19.8551 22.9536 20.4218 22.387 20.4218 21.6877C20.4218 20.9885 19.8552 20.4219 19.156 20.4219Z" fill="#787878"/>
</svg>
