<svg width="40" height="40" viewBox="0 0 40 40" fill="none" xmlns="http://www.w3.org/2000/svg">
<path d="M26.0156 23.2812C26.4471 23.2812 26.7969 22.9315 26.7969 22.5C26.7969 22.0685 26.4471 21.7188 26.0156 21.7188C25.5842 21.7188 25.2344 22.0685 25.2344 22.5C25.2344 22.9315 25.5842 23.2812 26.0156 23.2812Z" fill="#787878"/>
<path d="M4.29688 22.7344C3.52305 22.7344 2.80469 22.41 2.27422 21.821C2.12609 21.6564 1.91516 21.5625 1.69375 21.5625H0.78125C0.349844 21.5625 0 21.9123 0 22.3438V29.375C0 29.8064 0.349844 30.1562 0.78125 30.1555H7.09164C6.4518 30.9244 6.09375 31.8923 6.09375 32.8906C6.09375 35.2599 8.02133 37.1875 10.3906 37.1875C12.7599 37.1875 14.6875 35.2599 14.6875 32.8906C14.6875 31.8923 14.3295 30.9236 13.6896 30.1555H26.3105C25.6705 30.9236 25.3125 31.8923 25.3125 32.8906C25.3125 35.2599 27.2401 37.1875 29.6094 37.1875C31.9787 37.1875 33.9062 35.2599 33.9062 32.8906C33.9062 31.8923 33.5482 30.9244 32.9084 30.1562H39.2188C39.6502 30.1562 40 29.8064 40 29.375V22.3438C40 21.9123 39.6502 21.5625 39.2188 21.5625H38.3063C38.0848 21.5625 37.8739 21.6564 37.7257 21.821C37.1953 22.41 36.477 22.7344 35.7031 22.7344C34.1954 22.7344 32.9688 21.5077 32.9688 20C32.9688 18.4923 34.1954 17.2656 35.7031 17.2656C36.477 17.2656 37.1953 17.59 37.7258 18.179C37.8739 18.3435 38.0849 18.4375 38.3063 18.4375H39.2188C39.6502 18.4375 40 18.0877 40 17.6562V10.625C40 10.1936 39.6502 9.84375 39.2188 9.84375H32.9084C33.5482 9.07562 33.9062 8.10766 33.9062 7.10938C33.9062 4.74008 31.9787 2.8125 29.6094 2.8125C27.2401 2.8125 25.3125 4.74008 25.3125 7.10938C25.3125 8.10766 25.6705 9.07562 26.3104 9.84375C25.9544 9.84375 14.0455 9.84375 13.6895 9.84375C14.3294 9.07562 14.6874 8.10766 14.6874 7.10938C14.6874 4.74008 12.7598 2.8125 10.3905 2.8125C8.02125 2.8125 6.09375 4.74008 6.09375 7.10938C6.09375 8.10766 6.4518 9.07562 7.09164 9.84375H0.78125C0.349844 9.84375 0 10.1936 0 10.625V17.6562C0 18.0877 0.349844 18.4375 0.78125 18.4375H1.69375C1.91516 18.4375 2.12609 18.3436 2.2743 18.179C2.80469 17.59 3.52305 17.2656 4.29688 17.2656C5.80461 17.2656 7.03125 18.4923 7.03125 20C7.03125 21.5077 5.80461 22.7344 4.29688 22.7344ZM4.29688 15.7031C3.29859 15.7031 2.33063 16.0612 1.5625 16.701V11.4062H8.04688C8.47828 11.4062 8.82812 11.0564 8.82812 10.625V9.7125C8.82812 9.49109 8.73422 9.28016 8.56961 9.13195C7.98063 8.60156 7.65625 7.8832 7.65625 7.10938C7.65625 5.60164 8.88289 4.375 10.3906 4.375C11.8984 4.375 13.125 5.60164 13.125 7.10938C13.125 7.8832 12.8006 8.60156 12.2116 9.13203C12.0471 9.28016 11.9531 9.49117 11.9531 9.71258V10.625C11.9531 11.0564 12.303 11.4062 12.7344 11.4062H19.2188V17.6562C19.2188 18.0877 19.5686 18.4375 20 18.4375H20.9125C21.1339 18.4375 21.3448 18.3436 21.493 18.179C22.0234 17.59 22.7418 17.2656 23.5156 17.2656C24.7565 17.2656 25.8438 18.1023 26.1598 19.3003C26.2698 19.7176 26.6974 19.9662 27.1145 19.8564C27.5317 19.7464 27.7807 19.319 27.6706 18.9017C27.1738 17.0184 25.4652 15.7031 23.5156 15.7031C22.5173 15.7031 21.5494 16.0612 20.7812 16.701V11.4062H27.2656C27.697 11.4062 28.0469 11.0564 28.0469 10.625V9.7125C28.0469 9.49109 27.953 9.28016 27.7884 9.13195C27.1994 8.60156 26.875 7.8832 26.875 7.10938C26.875 5.60164 28.1016 4.375 29.6094 4.375C31.1171 4.375 32.3438 5.60164 32.3438 7.10938C32.3438 7.8832 32.0194 8.60156 31.4304 9.13203C31.2659 9.28016 31.1719 9.49117 31.1719 9.71258V10.625C31.1719 11.0564 31.5217 11.4062 31.9531 11.4062H38.4375V16.701C37.6694 16.0612 36.7014 15.7031 35.7031 15.7031C33.3338 15.7031 31.4062 17.6307 31.4062 20C31.4062 22.3693 33.3338 24.2969 35.7031 24.2969C36.7014 24.2969 37.6694 23.9388 38.4375 23.299V28.5938H31.9531C31.5217 28.5938 31.1719 28.9436 31.1719 29.375V30.2875C31.1719 30.5089 31.2658 30.7198 31.4304 30.868C32.0194 31.3984 32.3438 32.1168 32.3438 32.8906C32.3438 34.3984 31.1171 35.625 29.6094 35.625C28.1016 35.625 26.875 34.3984 26.875 32.8906C26.875 32.1168 27.1994 31.3984 27.7884 30.868C27.9529 30.7198 28.0469 30.5088 28.0469 30.2874V29.375C28.0469 28.9436 27.697 28.5938 27.2656 28.5938H20.7812V23.2999C21.259 23.6995 21.8139 23.9901 22.4128 24.1514C22.8298 24.2635 23.2581 24.0167 23.3704 23.6002C23.4826 23.1836 23.2358 22.7548 22.8191 22.6426C22.313 22.5063 21.8543 22.2221 21.493 21.8208C21.3448 21.6563 21.1338 21.5623 20.9124 21.5623H20C19.5686 21.5623 19.2188 21.9122 19.2188 22.3436V28.5936H12.7344C12.303 28.5936 11.9531 28.9434 11.9531 29.3748V30.2873C11.9531 30.5088 12.047 30.7197 12.2116 30.8679C12.8006 31.3984 13.125 32.1168 13.125 32.8906C13.125 34.3984 11.8984 35.625 10.3906 35.625C8.88289 35.625 7.65625 34.3984 7.65625 32.8906C7.65625 32.1168 7.98063 31.3984 8.56961 30.868C8.73414 30.7198 8.82812 30.5088 8.82812 30.2874V29.375C8.82812 28.9436 8.47828 28.5938 8.04688 28.5938H1.5625V23.299C2.33063 23.9388 3.29859 24.2969 4.29688 24.2969C6.66617 24.2969 8.59375 22.3693 8.59375 20C8.59375 17.6307 6.66617 15.7031 4.29688 15.7031Z" fill="#787878"/>
</svg>
