<svg width="40" height="40" viewBox="0 0 40 40" fill="none" xmlns="http://www.w3.org/2000/svg">
<path d="M20 0C10.3074 0 2.42188 7.88555 2.42188 17.5781C2.42188 18.6523 2.42188 26.9616 2.42188 27.1094C2.42188 29.0479 3.99898 30.625 5.9375 30.625H7.31094C7.79469 31.9889 9.09727 32.9688 10.625 32.9688C12.5635 32.9688 14.1406 31.3916 14.1406 29.4531V19.9219C14.1406 17.9834 12.5635 16.4062 10.625 16.4062C9.09727 16.4062 7.79469 17.3861 7.31094 18.75H5.9375C5.52664 18.75 5.13242 18.8215 4.76562 18.9516V17.5781C4.76562 9.17789 11.5998 2.34375 20 2.34375C28.4002 2.34375 35.2344 9.17789 35.2344 17.5781V18.9516C34.8676 18.8215 34.4734 18.75 34.0625 18.75H32.6891C32.2053 17.3861 30.9027 16.4062 29.375 16.4062C27.4365 16.4062 25.8594 17.9834 25.8594 19.9219V29.4531C25.8594 31.3916 27.4365 32.9688 29.375 32.9688C29.7298 32.9688 30.0723 32.9155 30.3954 32.8173C29.957 34.2596 28.615 35.3125 27.0312 35.3125H23.3141C22.8303 33.9486 21.5277 32.9688 20 32.9688C18.0615 32.9688 16.4844 34.5459 16.4844 36.4844C16.4844 38.4229 18.0615 40 20 40C21.5277 40 22.8303 39.0202 23.3141 37.6562H27.0312C30.2621 37.6562 32.8906 35.0277 32.8906 31.7969V30.625H34.0625C36.001 30.625 37.5781 29.0479 37.5781 27.1094C37.5781 26.9638 37.5781 18.6514 37.5781 17.5781C37.5781 7.88555 29.6926 0 20 0ZM9.45312 19.9219C9.45312 19.2757 9.97883 18.75 10.625 18.75C11.2712 18.75 11.7969 19.2757 11.7969 19.9219V29.4531C11.7969 30.0993 11.2712 30.625 10.625 30.625C9.97883 30.625 9.45312 30.0993 9.45312 29.4531V19.9219ZM5.9375 21.0938H7.10938V28.2812H5.9375C5.29133 28.2812 4.76562 27.7555 4.76562 27.1094V22.2656C4.76562 21.6195 5.29133 21.0938 5.9375 21.0938ZM20 37.6562C19.3538 37.6562 18.8281 37.1305 18.8281 36.4844C18.8281 35.8382 19.3538 35.3125 20 35.3125C20.6462 35.3125 21.1719 35.8382 21.1719 36.4844C21.1719 37.1305 20.6462 37.6562 20 37.6562ZM30.5469 29.4531C30.5469 30.0993 30.0212 30.625 29.375 30.625C28.7288 30.625 28.2031 30.0993 28.2031 29.4531V19.9219C28.2031 19.2757 28.7288 18.75 29.375 18.75C30.0212 18.75 30.5469 19.2757 30.5469 19.9219V29.4531ZM35.2344 27.1094C35.2344 27.7555 34.7087 28.2812 34.0625 28.2812H32.8906V21.0938H34.0625C34.7087 21.0938 35.2344 21.6195 35.2344 22.2656V27.1094Z" fill="#787878"/>
</svg>
