<svg width="40" height="40" viewBox="0 0 40 40" fill="none" xmlns="http://www.w3.org/2000/svg">
<path d="M36.4062 30.625C37.0534 30.625 37.5781 30.1003 37.5781 29.4531V1.17188C37.5781 0.524687 37.0534 0 36.4062 0H31.7188C31.0716 0 30.5469 0.524687 30.5469 1.17188V29.4531C30.5469 30.1003 31.0716 30.625 31.7188 30.625H36.4062ZM32.8906 2.34375H35.2344V28.2812H32.8906V2.34375Z" fill="#787878"/>
<path d="M27.0312 30.625C27.6784 30.625 28.2031 30.1003 28.2031 29.4531V6.01562C28.2031 5.36844 27.6784 4.84375 27.0312 4.84375H22.3438C21.6966 4.84375 21.1719 5.36844 21.1719 6.01562V29.4531C21.1719 30.1003 21.6966 30.625 22.3438 30.625H27.0312ZM23.5156 7.1875H25.8594V28.2812H23.5156V7.1875Z" fill="#787878"/>
<path d="M17.6562 30.625C18.3034 30.625 18.8281 30.1003 18.8281 29.4531V10.7031C18.8281 10.0559 18.3034 9.53125 17.6562 9.53125H12.9688C12.3216 9.53125 11.7969 10.0559 11.7969 10.7031V29.4531C11.7969 30.1003 12.3216 30.625 12.9688 30.625H17.6562ZM14.1406 11.875H16.4844V28.2812H14.1406V11.875Z" fill="#787878"/>
<path d="M8.28125 30.625C8.92844 30.625 9.45312 30.1003 9.45312 29.4531V15.3906C9.45312 14.7434 8.92844 14.2188 8.28125 14.2188H3.59375C2.94656 14.2188 2.42188 14.7434 2.42188 15.3906V29.4531C2.42188 30.1003 2.94656 30.625 3.59375 30.625H8.28125ZM4.76562 16.5625H7.10938V28.2812H4.76562V16.5625Z" fill="#787878"/>
<path d="M38.8281 35.3125H28.0016C27.5178 33.9486 26.2152 32.9688 24.6875 32.9688C23.1598 32.9688 21.8572 33.9486 21.3734 35.3125H1.17188C0.524687 35.3125 0 35.8372 0 36.4844C0 37.1316 0.524687 37.6562 1.17188 37.6562H21.3734C21.8572 39.0202 23.1598 40 24.6875 40C26.2152 40 27.5178 39.0202 28.0016 37.6562H38.8281C39.4753 37.6562 40 37.1316 40 36.4844C40 35.8372 39.4753 35.3125 38.8281 35.3125ZM24.6875 37.6562C24.0418 37.6562 23.5166 37.1313 23.5157 36.4859C23.5157 36.4853 23.5158 36.4848 23.5158 36.4844C23.5158 36.4839 23.5157 36.4834 23.5157 36.4829C23.5166 35.8374 24.0418 35.3125 24.6875 35.3125C25.3337 35.3125 25.8594 35.8382 25.8594 36.4844C25.8594 37.1305 25.3337 37.6562 24.6875 37.6562Z" fill="#787878"/>
</svg>
