<svg width="40" height="40" viewBox="0 0 40 40" fill="none" xmlns="http://www.w3.org/2000/svg">
<path d="M10.626 24.7656C10.626 22.8271 9.04919 21.25 7.11102 21.25C5.17255 21.25 3.5957 22.8271 3.5957 24.7656C3.5957 26.7041 5.17255 28.2813 7.11102 28.2813C9.04919 28.2813 10.626 26.7041 10.626 24.7656ZM7.11072 25.9375C6.46466 25.9375 5.93915 25.4117 5.93915 24.7656C5.93915 24.1196 6.46466 23.5938 7.11072 23.5938C7.75677 23.5938 8.28259 24.1196 8.28259 24.7656C8.28259 25.4117 7.75708 25.9375 7.11072 25.9375Z" fill="#787878"/>
<path d="M24.1399 20.5859C24.1399 18.3243 22.3003 16.4844 20.0389 16.4844C17.7776 16.4844 15.938 18.3243 15.938 20.5859C15.938 22.8476 17.7776 24.6875 20.0389 24.6875C22.3003 24.6875 24.1399 22.8476 24.1399 20.5859ZM20.0389 22.3438C19.0697 22.3438 18.2814 21.5552 18.2814 20.5859C18.2814 19.6167 19.0697 18.8281 20.0389 18.8281C21.0082 18.8281 21.7964 19.6167 21.7964 20.5859C21.7964 21.5552 21.0082 22.3438 20.0389 22.3438Z" fill="#787878"/>
<path d="M36.482 24.7656C36.482 22.8271 34.9052 21.25 32.967 21.25C31.0285 21.25 29.4517 22.8271 29.4517 24.7656C29.4517 26.7041 31.0285 28.2813 32.967 28.2813C34.9052 28.2813 36.482 26.7041 36.482 24.7656ZM32.9667 25.9375C32.3206 25.9375 31.7951 25.4117 31.7951 24.7656C31.7951 24.1196 32.3206 23.5938 32.9667 23.5938C33.6127 23.5938 34.1385 24.1196 34.1385 24.7656C34.1385 25.4117 33.613 25.9375 32.9667 25.9375Z" fill="#787878"/>
<path d="M35.7037 0H4.29626C1.92749 0 0 1.92749 0 4.29688V38.8281C0 39.4754 0.524597 40 1.17157 40H38.8284C39.4754 40 40 39.4754 40 38.8281V4.29688C40 1.92749 38.0725 0 35.7037 0ZM11.72 37.6562H2.34589V32.6562C2.34589 31.5363 3.25714 30.625 4.37714 30.625H9.68872C10.8087 30.625 11.72 31.5363 11.72 32.6562V37.6562ZM25.8585 37.6562H14.1415V29.0625C14.1415 27.9425 15.0525 27.0312 16.1725 27.0312H23.8275C24.9475 27.0312 25.8588 27.9425 25.8588 29.0625V37.6562H25.8585ZM37.6541 37.6562H28.28V32.6562C28.28 31.5363 29.1913 30.625 30.3113 30.625H35.6229C36.7429 30.625 37.6541 31.5363 37.6541 32.6562V37.6562ZM30.3113 28.2812C29.5441 28.2812 28.8229 28.4802 28.1955 28.8284C28.0737 26.5247 26.1612 24.6875 23.8275 24.6875C23.0359 24.6875 16.9888 24.6875 16.1725 24.6875C13.8388 24.6875 11.9263 26.5247 11.8045 28.8284C10.5316 28.1223 10.0809 28.2812 4.37714 28.2812C3.64319 28.2812 2.95135 28.4637 2.34344 28.7845V11.7969H37.6566V28.7845C36.4304 28.1378 36.0172 28.2812 30.3113 28.2812ZM4.29626 2.34375H35.7037C36.7804 2.34375 37.6566 3.21991 37.6566 4.29688V9.45312H2.34344V4.29688C2.34344 3.21991 3.2196 2.34375 4.29626 2.34375Z" fill="#787878"/>
<path d="M35.2324 5.9375C35.2324 6.58478 34.7078 7.10938 34.0605 7.10938C33.4133 7.10938 32.8887 6.58478 32.8887 5.9375C32.8887 5.29022 33.4133 4.76562 34.0605 4.76562C34.7078 4.76562 35.2324 5.29022 35.2324 5.9375Z" fill="#787878"/>
<path d="M30.5454 5.9375C30.5454 6.58478 30.0208 7.10938 29.3735 7.10938C28.7263 7.10938 28.2017 6.58478 28.2017 5.9375C28.2017 5.29022 28.7263 4.76562 29.3735 4.76562C30.0208 4.76562 30.5454 5.29022 30.5454 5.9375Z" fill="#787878"/>
<path d="M25.8589 5.9375C25.8589 6.58478 25.3343 7.10938 24.687 7.10938C24.0397 7.10938 23.5151 6.58478 23.5151 5.9375C23.5151 5.29022 24.0397 4.76562 24.687 4.76562C25.3343 4.76562 25.8589 5.29022 25.8589 5.9375Z" fill="#787878"/>
</svg>
