<svg width="40" height="40" viewBox="0 0 40 40" fill="none" xmlns="http://www.w3.org/2000/svg">
<path d="M28.4375 20C28.4375 18.3312 27.9426 16.6999 27.0155 15.3124C26.0884 13.9248 24.7706 12.8434 23.2289 12.2048C21.6871 11.5662 19.9906 11.3991 18.3539 11.7246C16.7172 12.0502 15.2138 12.8538 14.0338 14.0338C12.8538 15.2138 12.0502 16.7172 11.7246 18.3539C11.3991 19.9906 11.5662 21.6871 12.2048 23.2289C12.8434 24.7706 13.9248 26.0884 15.3124 27.0155C16.6999 27.9426 18.3312 28.4375 20 28.4375C22.237 28.4349 24.3816 27.5452 25.9634 25.9634C27.5452 24.3816 28.4349 22.237 28.4375 20ZM13.5055 20.9375H14.375C14.6236 20.9375 14.8621 20.8387 15.0379 20.6629C15.2137 20.4871 15.3125 20.2486 15.3125 20C15.3125 19.7513 15.2137 19.5129 15.0379 19.3371C14.8621 19.1613 14.6236 19.0625 14.375 19.0625H13.5055C13.7101 17.6614 14.3614 16.3638 15.3626 15.3626C16.3638 14.3614 17.6614 13.7101 19.0625 13.5055V14.375C19.0625 14.6236 19.1613 14.8621 19.3371 15.0379C19.5129 15.2137 19.7513 15.3125 20 15.3125C20.2486 15.3125 20.4871 15.2137 20.6629 15.0379C20.8387 14.8621 20.9375 14.6236 20.9375 14.375V13.5055C22.3386 13.7101 23.6362 14.3614 24.6374 15.3626C25.6386 16.3638 26.2899 17.6614 26.4944 19.0625H25.625C25.3763 19.0625 25.1379 19.1613 24.9621 19.3371C24.7863 19.5129 24.6875 19.7513 24.6875 20C24.6875 20.2486 24.7863 20.4871 24.9621 20.6629C25.1379 20.8387 25.3763 20.9375 25.625 20.9375H26.4944C26.2899 22.3386 25.6386 23.6362 24.6374 24.6374C23.6362 25.6386 22.3386 26.2899 20.9375 26.4944V25.625C20.9375 25.3763 20.8387 25.1379 20.6629 24.9621C20.4871 24.7863 20.2486 24.6875 20 24.6875C19.7513 24.6875 19.5129 24.7863 19.3371 24.9621C19.1613 25.1379 19.0625 25.3763 19.0625 25.625V26.4944C17.6614 26.2899 16.3638 25.6386 15.3626 24.6374C14.3614 23.6362 13.7101 22.3386 13.5055 20.9375Z" fill="#787878"/>
<path d="M19.5807 20.838C19.7567 20.926 19.9559 20.9564 20.1502 20.9249C20.3444 20.8933 20.5238 20.8015 20.6629 20.6624L23.1629 18.1624C23.3364 17.9861 23.4331 17.7484 23.4321 17.5011C23.4311 17.2537 23.3324 17.0169 23.1575 16.842C22.9827 16.6671 22.7458 16.5684 22.4984 16.5674C22.2511 16.5664 22.0134 16.6631 21.8371 16.8366L19.8149 18.8589L17.9193 17.911C17.6969 17.7998 17.4395 17.7815 17.2036 17.8602C16.9677 17.9388 16.7727 18.1079 16.6615 18.3303C16.5503 18.5527 16.532 18.8101 16.6106 19.046C16.6892 19.2819 16.8583 19.4769 17.0807 19.5881L19.5807 20.838Z" fill="#787878"/>
<path d="M5.625 20.937C5.87364 20.937 6.1121 20.8382 6.28791 20.6624C6.46373 20.4865 6.5625 20.2481 6.5625 19.9995C6.5625 12.9448 12.027 7.14283 18.9453 6.60323L18.0871 7.46158C17.9989 7.54838 17.9287 7.65178 17.8807 7.76582C17.8326 7.87987 17.8076 8.0023 17.8071 8.12605C17.8066 8.24981 17.8306 8.37244 17.8777 8.48687C17.9249 8.60131 17.9942 8.70527 18.0817 8.79278C18.1692 8.88029 18.2732 8.94961 18.3876 8.99674C18.502 9.04386 18.6247 9.06787 18.7484 9.06736C18.8722 9.06686 18.9946 9.04186 19.1087 8.9938C19.2227 8.94574 19.3261 8.87558 19.4129 8.78736L21.9129 6.28737C22.0887 6.11155 22.1875 5.87311 22.1875 5.62448C22.1875 5.37585 22.0887 5.1374 21.9129 4.96159L19.4129 2.46159C19.2366 2.28814 18.9989 2.19138 18.7516 2.19239C18.5043 2.1934 18.2674 2.29209 18.0925 2.46697C17.9176 2.64185 17.8189 2.87875 17.8179 3.12606C17.8169 3.37338 17.9137 3.61107 18.0871 3.78737L19.019 4.71932C11.0313 5.2269 4.6875 11.8857 4.6875 19.9995C4.6875 20.2481 4.78627 20.4865 4.96209 20.6624C5.1379 20.8382 5.37636 20.937 5.625 20.937Z" fill="#787878"/>
<path d="M34.3749 19.0625C34.1262 19.0625 33.8878 19.1613 33.712 19.3371C33.5362 19.5129 33.4374 19.7514 33.4374 20C33.4374 27.0547 27.9728 32.8566 21.0546 33.3963L21.9128 32.5379C22.0863 32.3616 22.1831 32.1239 22.1821 31.8766C22.181 31.6293 22.0824 31.3924 21.9075 31.2175C21.7326 31.0426 21.4957 30.9439 21.2484 30.9429C21.0011 30.9419 20.7634 31.0387 20.5871 31.2121L18.0871 33.7121C17.9113 33.8879 17.8125 34.1264 17.8125 34.375C17.8125 34.6236 17.9113 34.8621 18.0871 35.0379L20.5871 37.5379C20.7634 37.7113 21.0011 37.8081 21.2484 37.8071C21.4957 37.8061 21.7326 37.7074 21.9075 37.5325C22.0824 37.3576 22.181 37.1207 22.1821 36.8734C22.1831 36.6261 22.0863 36.3884 21.9128 36.2121L20.981 35.2802C28.9686 34.7726 35.3124 28.1138 35.3124 20C35.3124 19.7514 35.2136 19.5129 35.0378 19.3371C34.862 19.1613 34.6235 19.0625 34.3749 19.0625Z" fill="#787878"/>
<path d="M38.4375 4.375C38.4183 3.68694 38.2513 3.01105 37.9479 2.3932C37.277 1.05141 36.0078 0.3125 34.375 0.3125H29.375C29.1264 0.3125 28.8879 0.411272 28.7121 0.587087C28.5363 0.762903 28.4375 1.00136 28.4375 1.25C28.4375 2.84883 29.4345 3.84867 30.3131 4.34883C30.3131 4.35758 30.3125 4.36633 30.3125 4.375C30.3125 5.45244 30.7405 6.48575 31.5024 7.24762C32.2642 8.00949 33.2976 8.4375 34.375 8.4375C35.4524 8.4375 36.4858 8.00949 37.2476 7.24762C38.0095 6.48575 38.4375 5.45244 38.4375 4.375ZM34.375 2.1875C35.1465 2.1875 35.7054 2.42492 36.0734 2.91125L35.9215 2.86063C35.8259 2.82875 35.7258 2.8125 35.625 2.8125H31.4297C31.1136 2.67336 30.8366 2.45874 30.6228 2.1875H34.375ZM34.375 6.5625C33.8492 6.5618 33.3412 6.372 32.9437 6.02776C32.5463 5.68352 32.2859 5.20782 32.2102 4.6875H35.4729L36.4658 5.01852C36.3276 5.46528 36.0502 5.85614 35.674 6.13394C35.2978 6.41174 34.8426 6.56191 34.375 6.5625Z" fill="#787878"/>
<path d="M36.875 8.4375H31.875C31.1293 8.43833 30.4144 8.73491 29.8872 9.26218C29.3599 9.78944 29.0633 10.5043 29.0625 11.25V16.875C29.0625 17.1236 29.1613 17.3621 29.3371 17.5379C29.5129 17.7137 29.7514 17.8125 30 17.8125H38.75C38.9986 17.8125 39.2371 17.7137 39.4129 17.5379C39.5887 17.3621 39.6875 17.1236 39.6875 16.875V11.25C39.6867 10.5043 39.3901 9.78944 38.8628 9.26218C38.3356 8.73491 37.6207 8.43833 36.875 8.4375ZM37.8125 15.9375H30.9375V11.25C30.9378 11.0014 31.0366 10.7631 31.2124 10.5874C31.3881 10.4116 31.6264 10.3128 31.875 10.3125H36.875C37.1236 10.3128 37.3619 10.4116 37.5376 10.5874C37.7134 10.7631 37.8122 11.0014 37.8125 11.25V15.9375Z" fill="#787878"/>
<path d="M10.3125 26.25C10.2933 25.5619 10.1263 24.8861 9.82289 24.2682C9.15203 22.9264 7.88281 22.1875 6.25 22.1875H1.25C1.00136 22.1875 0.762903 22.2863 0.587087 22.4621C0.411272 22.6379 0.3125 22.8764 0.3125 23.125C0.3125 24.7238 1.30953 25.7237 2.18812 26.2238C2.18812 26.2326 2.1875 26.2413 2.1875 26.25C2.1875 27.3274 2.61551 28.3608 3.37738 29.1226C4.13925 29.8845 5.17256 30.3125 6.25 30.3125C7.32744 30.3125 8.36075 29.8845 9.12262 29.1226C9.88449 28.3608 10.3125 27.3274 10.3125 26.25ZM6.25 24.0625C7.02148 24.0625 7.58039 24.2999 7.94844 24.7863L7.79648 24.7356C7.70088 24.7038 7.60077 24.6875 7.5 24.6875H3.30469C2.98864 24.5483 2.71158 24.3337 2.49781 24.0625H6.25ZM6.25 28.4375C5.7242 28.4368 5.21619 28.247 4.81874 27.9028C4.42129 27.5585 4.16091 27.0828 4.08516 26.5625H7.34789L8.34078 26.8935C8.20264 27.3403 7.92519 27.7311 7.54901 28.0089C7.17282 28.2867 6.71764 28.4369 6.25 28.4375Z" fill="#787878"/>
<path d="M8.75 30.3125H3.75C3.00433 30.3133 2.28944 30.6099 1.76218 31.1372C1.23491 31.6644 0.938327 32.3793 0.9375 33.125V38.75C0.9375 38.9986 1.03627 39.2371 1.21209 39.4129C1.3879 39.5887 1.62636 39.6875 1.875 39.6875H10.625C10.8736 39.6875 11.1121 39.5887 11.2879 39.4129C11.4637 39.2371 11.5625 38.9986 11.5625 38.75V33.125C11.5617 32.3793 11.2651 31.6644 10.7378 31.1372C10.2106 30.6099 9.49567 30.3133 8.75 30.3125ZM9.6875 37.8125H2.8125V33.125C2.81277 32.8764 2.91163 32.6381 3.08738 32.4624C3.26314 32.2866 3.50144 32.1878 3.75 32.1875H8.75C8.99856 32.1878 9.23686 32.2866 9.41262 32.4624C9.58837 32.6381 9.68723 32.8764 9.6875 33.125V37.8125Z" fill="#787878"/>
</svg>
