<svg width="40" height="40" viewBox="0 0 40 40" fill="none" xmlns="http://www.w3.org/2000/svg">
<g clip-path="url(#clip0)">
<path d="M15.8333 33.3333H1.25C0.56 33.3333 0 32.7733 0 32.0833V26.25C0 22.8033 2.805 20 6.25 20H22.0833C22.7733 20 23.3333 20.56 23.3333 21.25C23.3333 21.94 22.7733 22.5 22.0833 22.5H6.25C4.18333 22.5 2.5 24.1817 2.5 26.25V30.8333H15.8333C16.5233 30.8333 17.0833 31.3933 17.0833 32.0833C17.0833 32.7733 16.5233 33.3333 15.8333 33.3333Z" fill="#787878"/>
<path d="M37.0833 40.0003H22.9167C21.3083 40.0003 20 38.692 20 37.0837V29.5837C20 27.9753 21.3083 26.667 22.9167 26.667H37.0833C38.6917 26.667 40 27.9753 40 29.5837V37.0837C40 38.692 38.6917 40.0003 37.0833 40.0003ZM22.9167 29.167C22.6867 29.167 22.5 29.3537 22.5 29.5837V37.0837C22.5 37.3137 22.6867 37.5003 22.9167 37.5003H37.0833C37.3133 37.5003 37.5 37.3137 37.5 37.0837V29.5837C37.5 29.3537 37.3133 29.167 37.0833 29.167H22.9167Z" fill="#787878"/>
<path d="M33.75 29.1667C33.06 29.1667 32.5 28.6067 32.5 27.9167V25.4167C32.5 25.1867 32.3133 25 32.0833 25H27.9167C27.6867 25 27.5 25.1867 27.5 25.4167V27.9167C27.5 28.6067 26.94 29.1667 26.25 29.1667C25.56 29.1667 25 28.6067 25 27.9167V25.4167C25 23.8083 26.3083 22.5 27.9167 22.5H32.0833C33.6917 22.5 35 23.8083 35 25.4167V27.9167C35 28.6067 34.44 29.1667 33.75 29.1667Z" fill="#787878"/>
<path d="M30 35.0003C29.8167 35.0003 29.6317 34.9603 29.4633 34.8786L20.7133 30.7119C20.09 30.4153 19.825 29.6703 20.1233 29.0453C20.4183 28.4219 21.1667 28.1569 21.7883 28.4536L30 32.3653L38.2133 28.4536C38.835 28.1569 39.5833 28.4219 39.8783 29.0453C40.1767 29.6686 39.9117 30.4136 39.2883 30.7119L30.5383 34.8786C30.3683 34.9603 30.1833 35.0003 30 35.0003Z" fill="#787878"/>
<path d="M13.3333 16.6667C10.1167 16.6667 7.5 14.2367 7.5 11.25C7.5 10.56 8.06 10 8.75 10C9.44 10 10 10.56 10 11.25C10 12.8583 11.495 14.1667 13.3333 14.1667C15.1717 14.1667 16.6667 12.8583 16.6667 11.25C16.6667 10.56 17.2267 10 17.9167 10C18.6067 10 19.1667 10.56 19.1667 11.25C19.1667 14.2367 16.55 16.6667 13.3333 16.6667Z" fill="#787878"/>
<path d="M17.9167 12.5C16.685 12.5 14.645 11.0967 13.3333 9.34834C12.0217 11.0967 9.98167 12.5 8.75 12.5C8.06 12.5 7.5 11.94 7.5 11.25C7.5 10.5683 8.04333 10.015 8.72 10C9.54167 9.85167 12.0833 7.54334 12.0833 6.25C12.0833 5.56 12.6433 5 13.3333 5C14.0233 5 14.5833 5.56 14.5833 6.25C14.5833 7.55 17.15 9.87334 17.955 10.0017C18.645 10.0017 19.185 10.56 19.185 11.25C19.1867 11.9417 18.6067 12.5 17.9167 12.5Z" fill="#787878"/>
<path d="M19.5834 16.6667H7.08341C5.47508 16.6667 4.16675 15.3583 4.16675 13.75V9.16667C4.16675 4.11167 8.28008 0 13.3334 0C18.3867 0 22.5001 4.11167 22.5001 9.16667V13.75C22.5001 15.3583 21.1917 16.6667 19.5834 16.6667ZM13.3334 2.5C9.65674 2.5 6.66675 5.49 6.66675 9.16667V13.75C6.66675 13.98 6.85341 14.1667 7.08341 14.1667H19.5834C19.8134 14.1667 20.0001 13.98 20.0001 13.75V9.16667C20.0001 5.49 17.0101 2.5 13.3334 2.5Z" fill="#787878"/>
</g>
<defs>
<clipPath id="clip0">
<rect width="40" height="40" fill="white"/>
</clipPath>
</defs>
</svg>
