<svg width="40" height="40" viewBox="0 0 40 40" fill="none" xmlns="http://www.w3.org/2000/svg">
<path d="M39.1794 11.5173L40 11.2595V4.45312H7.995V11.2595L8.81561 11.5173C10.0693 11.9113 10.9116 13.0597 10.9116 14.375C10.9116 14.8486 10.8017 15.3003 10.6036 15.7031H0V22.5098L0.820618 22.7673C2.07428 23.1613 2.91656 24.3097 2.91656 25.625C2.91656 26.9406 2.07428 28.089 0.820618 28.4827L0 28.7405V35.5469H32.0053V28.7405L31.1844 28.4827C29.9307 28.0887 29.0887 26.9403 29.0887 25.625C29.0887 25.1514 29.1983 24.6997 29.3964 24.2969H40V17.4902L39.1794 17.2324C37.9257 16.8387 37.0834 15.6903 37.0834 14.3747C37.0834 13.0597 37.9257 11.9113 39.1794 11.5173ZM34.7397 14.375C34.7397 16.4194 35.8817 18.2376 37.6562 19.1351V21.9531H32.0053V6.79688H37.6562V9.61487C35.8817 10.5124 34.7397 12.3306 34.7397 14.375ZM29.6616 30.3851V33.2031H23.6719V18.0469H29.6616V20.8649C27.887 21.7624 26.745 23.5806 26.745 25.625C26.745 27.6694 27.887 29.4876 29.6616 30.3851ZM2.34375 30.3851C4.11835 29.4876 5.26031 27.6694 5.26031 25.625C5.26031 23.5806 4.11835 21.7624 2.34375 20.8649V18.0469H21.3281V33.2031H2.34375V30.3851ZM10.3387 9.61487V6.79688H29.6616V15.7031H13.0896C13.1979 15.2768 13.2553 14.8315 13.2553 14.375C13.2553 12.3306 12.1133 10.5124 10.3387 9.61487Z" fill="#787878"/>
<path d="M16.3281 10.7031H23.2031V13.0469H16.3281V10.7031Z" fill="#787878"/>
<path d="M8.3335 21.9531H15.2085V24.2969H8.3335V21.9531Z" fill="#787878"/>
<path d="M8.3335 26.9531H17.5001V29.2969H8.3335V26.9531Z" fill="#787878"/>
</svg>
