<svg width="40" height="40" viewBox="0 0 40 40" fill="none" xmlns="http://www.w3.org/2000/svg">
<path d="M35.5998 29.2178C36.857 28.1423 37.6562 26.546 37.6562 24.7656C37.6562 22.8528 36.7347 21.1514 35.3125 20.0813C35.3125 20.0803 35.3125 20.0792 35.3125 20.0781C35.3125 11.6556 28.4208 4.76562 20 4.76562C17.8987 4.76562 15.8858 5.14609 14.062 5.87875C14.062 5.87227 14.0625 5.86586 14.0625 5.85938C14.0625 2.62852 11.434 0 8.20312 0C4.97227 0 2.34375 2.62852 2.34375 5.85938C2.34375 7.63977 3.14297 9.23609 4.40023 10.3116C1.7868 11.6848 0 14.4266 0 17.5781V19.9219C0 20.5691 0.524687 21.0938 1.17188 21.0938H4.73234C5.33039 28.9463 11.9484 35.2344 20 35.2344C21.3105 35.2344 22.5792 35.0946 23.7623 34.8256C23.6519 35.3615 23.5938 35.9162 23.5938 36.4844V38.8281C23.5938 39.4753 24.1184 40 24.7656 40H38.8281C39.4753 40 40 39.4753 40 38.8281V36.4844C40 33.3328 38.2132 30.5911 35.5998 29.2178ZM35.3125 24.7656C35.3125 26.7041 33.7354 28.2812 31.7969 28.2812C29.8584 28.2812 28.2812 26.7041 28.2812 24.7656C28.2812 22.8271 29.8584 21.25 31.7969 21.25C33.7354 21.25 35.3125 22.8271 35.3125 24.7656ZM8.20312 2.34375C10.1416 2.34375 11.7188 3.92086 11.7188 5.85938C11.7188 7.79789 10.1416 9.375 8.20312 9.375C6.26461 9.375 4.6875 7.79789 4.6875 5.85938C4.6875 3.92086 6.26461 2.34375 8.20312 2.34375ZM2.34375 18.75V17.5781C2.34375 14.3473 4.97227 11.7188 8.20312 11.7188C11.434 11.7188 14.0625 14.3473 14.0625 17.5781V18.75H2.34375ZM20 32.8906C13.244 32.8906 7.67914 27.6976 7.08477 21.0938H15.2344C15.8816 21.0938 16.4062 20.5691 16.4062 19.9219V17.5781C16.4062 14.4266 14.6195 11.6848 12.006 10.3116C12.4692 9.91531 12.8705 9.44891 13.1922 8.92789C15.1431 7.73844 17.4898 7.10938 20 7.10938C26.7934 7.10938 32.383 12.3602 32.925 19.0163C32.5598 18.9448 32.1828 18.9062 31.7969 18.9062C28.566 18.9062 25.9375 21.5348 25.9375 24.7656C25.9375 26.546 26.7367 28.1423 27.994 29.2178C26.7413 29.876 25.6787 30.8485 24.9116 32.03C23.4873 32.5935 21.7982 32.8906 20 32.8906ZM37.6562 37.6562H25.9375V36.4844C25.9375 33.2535 28.566 30.625 31.7969 30.625C35.0277 30.625 37.6562 33.2535 37.6562 36.4844V37.6562Z" fill="#787878"/>
</svg>
