<svg width="40" height="40" viewBox="0 0 40 40" fill="none" xmlns="http://www.w3.org/2000/svg">
<g clip-path="url(#clip0)">
<path d="M20 31.667C14.5 31.667 10 27.167 10 21.667C10 16.167 14.5 11.667 20 11.667C25.5 11.667 30 16.167 30 21.667C30 27.167 25.5 31.667 20 31.667ZM20 13.3337C15.3333 13.3337 11.6667 17.0003 11.6667 21.667C11.6667 26.3336 15.3333 30.0003 20 30.0003C24.6667 30.0003 28.3333 26.3336 28.3333 21.667C28.3333 17.0003 24.6667 13.3337 20 13.3337Z" fill="#787878"/>
<path d="M20.0001 28.3333C19.5001 28.3333 19.1667 28 19.1667 27.5V25.8333C19.1667 25.3333 19.5001 25 20.0001 25C20.5001 25 20.8334 25.3333 20.8334 25.8333V27.5C20.8334 28 20.5001 28.3333 20.0001 28.3333Z" fill="#787878"/>
<path d="M20.3333 26.6673H17.3333C16.8333 26.6673 16.5 26.334 16.5 25.834C16.5 25.334 16.8333 25.0006 17.3333 25.0006H20.3333C21 25.0006 21.6667 24.5006 21.6667 23.6673C21.6667 22.834 21.1667 22.334 20.3333 22.334H19.5C17.8333 22.334 16.5 21.0006 16.5 19.334C16.5 17.6673 17.8333 16.334 19.5 16.334H22.5C23 16.334 23.3333 16.6673 23.3333 17.1673C23.3333 17.6673 23 18.334 22.5 18.334H19.5C18.8333 18.334 18.1667 18.834 18.1667 19.6673C18.1667 20.5006 18.6667 21.0006 19.5 21.0006H20.3333C22 21.0006 23.3333 22.334 23.3333 24.0006C23.3333 25.6673 22 26.6673 20.3333 26.6673Z" fill="#787878"/>
<path d="M20.0001 18.3333C19.5001 18.3333 19.1667 18 19.1667 17.5V15.8333C19.1667 15.3333 19.5001 15 20.0001 15C20.5001 15 20.8334 15.3333 20.8334 15.8333V17.5C20.8334 18 20.5001 18.3333 20.0001 18.3333Z" fill="#787878"/>
<path d="M20.0001 6.66667C18.1667 6.66667 16.6667 5.16667 16.6667 3.33333C16.6667 1.5 18.1667 0 20.0001 0C21.8334 0 23.3334 1.5 23.3334 3.33333C23.3334 5.16667 21.8334 6.66667 20.0001 6.66667ZM20.0001 1.66667C19.0001 1.66667 18.3334 2.33333 18.3334 3.33333C18.3334 4.33333 19.0001 5 20.0001 5C21.0001 5 21.6667 4.33333 21.6667 3.33333C21.6667 2.33333 21.0001 1.66667 20.0001 1.66667Z" fill="#787878"/>
<path d="M36.6666 11.6667C34.8333 11.6667 33.3333 10.1667 33.3333 8.33333C33.3333 6.5 34.8333 5 36.6666 5C38.4999 5 39.9999 6.5 39.9999 8.33333C39.9999 10.1667 38.4999 11.6667 36.6666 11.6667ZM36.6666 6.66666C35.6666 6.66666 34.9999 7.33333 34.9999 8.33333C34.9999 9.33333 35.6666 9.99999 36.6666 9.99999C37.6666 9.99999 38.3333 9.33333 38.3333 8.33333C38.3333 7.33333 37.6666 6.66666 36.6666 6.66666Z" fill="#787878"/>
<path d="M35.0001 39.9997C33.1667 39.9997 31.6667 38.4997 31.6667 36.6663C31.6667 34.833 33.1667 33.333 35.0001 33.333C36.8334 33.333 38.3334 34.833 38.3334 36.6663C38.3334 38.4997 36.8334 39.9997 35.0001 39.9997ZM35.0001 34.9997C34.0001 34.9997 33.3334 35.6663 33.3334 36.6663C33.3334 37.6663 34.0001 38.333 35.0001 38.333C36.0001 38.333 36.6667 37.6663 36.6667 36.6663C36.6667 35.6663 36.0001 34.9997 35.0001 34.9997Z" fill="#787878"/>
<path d="M3.33333 39.9997C1.5 39.9997 0 38.4997 0 36.6663C0 34.833 1.5 33.333 3.33333 33.333C5.16667 33.333 6.66667 34.833 6.66667 36.6663C6.66667 38.4997 5.16667 39.9997 3.33333 39.9997ZM3.33333 34.9997C2.33333 34.9997 1.66667 35.6663 1.66667 36.6663C1.66667 37.6663 2.33333 38.333 3.33333 38.333C4.33333 38.333 5 37.6663 5 36.6663C5 35.6663 4.33333 34.9997 3.33333 34.9997Z" fill="#787878"/>
<path d="M3.33333 14.9997C1.5 14.9997 0 13.4997 0 11.6663C0 9.83301 1.5 8.33301 3.33333 8.33301C5.16667 8.33301 6.66667 9.83301 6.66667 11.6663C6.66667 13.4997 5.16667 14.9997 3.33333 14.9997ZM3.33333 9.99967C2.33333 9.99967 1.66667 10.6663 1.66667 11.6663C1.66667 12.6663 2.33333 13.333 3.33333 13.333C4.33333 13.333 5 12.6663 5 11.6663C5 10.6663 4.33333 9.99967 3.33333 9.99967Z" fill="#787878"/>
<path d="M27.4999 17.3327C27.3333 17.3327 26.9999 17.166 26.8333 16.9993C26.4999 16.666 26.4999 16.166 26.8333 15.8327L33.9999 9.16602C34.3332 8.83268 34.8332 8.83268 35.1666 9.16602C35.4999 9.49935 35.4999 9.99935 35.1666 10.3327L27.9999 16.9993C27.8332 17.166 27.6666 17.3327 27.4999 17.3327Z" fill="#787878"/>
<path d="M20.0001 13.3333C19.5001 13.3333 19.1667 13 19.1667 12.5V5.83333C19.1667 5.33333 19.5001 5 20.0001 5C20.5001 5 20.8334 5.33333 20.8334 5.83333V12.5C20.8334 13 20.5001 13.3333 20.0001 13.3333Z" fill="#787878"/>
<path d="M33.3334 35.6667C33.1667 35.6667 33.0001 35.6667 32.8334 35.5L25.6667 29.1667C25.3334 28.8333 25.3334 28.3333 25.6667 28C26.0001 27.6667 26.5001 27.6667 26.8334 28L34.0001 34.3333C34.3334 34.6667 34.3334 35.1667 34.0001 35.5C33.8334 35.5 33.5001 35.6667 33.3334 35.6667Z" fill="#787878"/>
<path d="M5.16667 35.8337C5 35.8337 4.66667 35.667 4.5 35.5003C4.16667 35.167 4.16667 34.667 4.5 34.3337L12.5 27.167C12.8333 26.8337 13.3333 26.8337 13.6667 27.167C14 27.5003 14 28.0003 13.6667 28.3337L5.66667 35.5003C5.5 35.8337 5.33333 35.8337 5.16667 35.8337Z" fill="#787878"/>
<path d="M12.1666 17.8336C12 17.8336 11.8333 17.8336 11.6666 17.6669L4.99997 13.6669C4.66664 13.5003 4.49997 12.8336 4.83331 12.5003C4.99997 12.1669 5.49997 12.0003 5.83331 12.1669L12.5 16.1669C12.8333 16.3336 13 16.8336 12.8333 17.3336C12.6666 17.6669 12.5 17.8336 12.1666 17.8336Z" fill="#787878"/>
</g>
<defs>
<clipPath id="clip0">
<rect width="40" height="40" fill="white"/>
</clipPath>
</defs>
</svg>
