<svg width="40" height="40" viewBox="0 0 40 40" fill="none" xmlns="http://www.w3.org/2000/svg">
<path d="M36.4844 15.3135L28.2032 15.3133L28.2025 9.45315C28.2025 6.22228 25.5747 3.59375 22.3438 3.59375C21.6966 3.59375 21.172 4.11844 21.172 4.76563V5.69009C21.172 11.0008 20.7116 13.7206 18.1941 17.657C18.0659 17.657 2.15509 17.6571 1.17188 17.657C0.524689 17.657 0 18.1809 0 18.8281V35.2344C0 35.8816 0.524689 36.4063 1.17188 36.4063H12.9688C13.552 36.4063 14.0464 35.9775 14.1289 35.4001L14.32 34.0625H17.2538C19.2725 35.5768 21.7508 36.4063 24.2795 36.4063L32.9685 36.4065C34.907 36.4065 36.4841 34.8294 36.4841 32.8909C36.4841 32.2646 36.3195 31.676 36.0313 31.1662C37.0078 30.5409 37.6562 29.4464 37.6562 28.2034C37.6562 27.5767 37.4906 26.9883 37.202 26.4782C38.1787 25.853 38.8281 24.7591 38.8281 23.5159C38.8281 22.8892 38.6625 22.3008 38.3739 21.7907C39.3506 21.1655 40 20.0716 40 18.8283C40 16.8898 38.4229 15.3127 36.4844 15.3135ZM2.34298 34.0634V20.0001H13.9614L11.9525 34.0634H2.34298ZM34.1406 29.3753H32.9687C32.3215 29.3753 31.7968 29.8999 31.7968 30.5471C31.7968 31.1943 32.3215 31.719 32.9687 31.719C33.6148 31.719 34.1404 32.2447 34.1404 32.8909C34.1404 33.5371 33.6147 34.0628 32.9686 34.0628L24.2796 34.0635C22.1441 34.0635 20.0535 33.3237 18.3933 31.9805C18.1847 31.8117 17.9245 31.7197 17.6562 31.7197H14.6548L16.329 20.0001H18.8282C19.22 20.0001 19.5859 19.8044 19.8033 19.4783C22.9166 14.8083 23.487 11.654 23.5146 6.13798C24.8793 6.62134 25.8595 7.92494 25.8595 9.45315V16.4844C25.8595 17.1316 26.3842 17.6563 27.0314 17.6563L36.4844 17.6556C37.1305 17.6556 37.6562 18.1821 37.6562 18.8283C37.6562 19.4744 37.1305 20.0001 36.4844 20.0001H35.3125C34.6653 20.0001 34.1406 20.5248 34.1406 21.172C34.1406 21.8192 34.6653 22.3439 35.3125 22.3439C35.9587 22.3439 36.4844 22.8696 36.4844 23.5158C36.4844 24.162 35.9587 24.6877 35.3125 24.6877H34.1406C33.4934 24.6877 32.9687 25.2123 32.9687 25.8595C32.9687 26.5067 33.4934 27.0314 34.1406 27.0314C34.7868 27.0314 35.3125 27.5571 35.3125 28.2033C35.3125 28.8495 34.7868 29.3753 34.1406 29.3753Z" fill="#787878"/>
<path d="M8.28125 31.7188C8.92846 31.7188 9.45312 31.1941 9.45312 30.5469C9.45312 29.8997 8.92846 29.375 8.28125 29.375C7.63404 29.375 7.10938 29.8997 7.10938 30.5469C7.10938 31.1941 7.63404 31.7188 8.28125 31.7188Z" fill="#787878"/>
</svg>
