<svg width="40" height="40" viewBox="0 0 40 40" fill="none" xmlns="http://www.w3.org/2000/svg">
<path d="M39.8986 34.2745C39.7227 33.4298 38.8952 32.8876 38.0505 33.0634C37.2055 33.2393 36.6633 34.0667 36.8392 34.9116C36.9405 35.3981 36.8199 35.897 36.5083 36.2802C36.3277 36.502 35.9254 36.8744 35.2584 36.8744H28.2031C27.3402 36.8744 26.6406 37.5739 26.6406 38.4369C26.6406 39.2998 27.3402 39.9994 28.2031 39.9994H35.2584C36.6903 39.9994 38.0295 39.3624 38.9327 38.2518C39.8404 37.1356 40.1925 35.686 39.8986 34.2745Z" fill="#787878"/>
<path d="M21.5869 21.3101C26.7202 21.7829 31.3898 24.5342 34.298 28.8716C34.7785 29.5884 35.7493 29.7799 36.4659 29.2993C37.1827 28.8187 37.3741 27.848 36.8936 27.1313C34.3297 23.3074 30.6065 20.5274 26.3614 19.1304C28.9485 17.1906 30.6255 14.1 30.6255 10.625C30.6255 4.76633 25.8591 0 20.0005 0C14.1419 0 9.37546 4.76633 9.37546 10.625C9.37546 14.1023 11.0545 17.1947 13.6444 19.1341C11.2717 19.9152 9.04515 21.13 7.09655 22.7327C3.52374 25.6716 1.0396 29.7708 0.101864 34.2752C-0.192042 35.6866 0.160068 37.1362 1.06772 38.2524C1.97085 39.363 3.31015 40 4.7421 40H11.563C12.4259 40 13.1255 39.3005 13.1255 38.4375C13.1255 37.5745 12.4259 36.875 11.563 36.875H4.74194C4.07491 36.875 3.67257 36.5027 3.49202 36.2808C3.18038 35.8975 3.05976 35.3988 3.16108 34.9121C4.69108 27.563 10.8939 22.0838 18.2538 21.3273L15.2709 34.8984C15.1566 35.4189 15.3154 35.9618 15.6922 36.3386L18.8173 39.4641C19.1103 39.7573 19.5078 39.9219 19.9223 39.9219C20.3368 39.9219 20.7342 39.7572 21.0273 39.4641L24.1521 36.3386C24.5289 35.9617 24.6876 35.4189 24.5733 34.8984L21.5869 21.3101ZM12.5005 10.625C12.5005 6.48945 15.8649 3.125 20.0005 3.125C24.136 3.125 27.5005 6.48945 27.5005 10.625C27.5005 14.6357 24.336 17.921 20.3727 18.1158C20.2488 18.1135 20.1248 18.112 20.0005 18.112C19.8785 18.112 19.7567 18.1138 19.6349 18.116C15.6685 17.9247 12.5005 14.638 12.5005 10.625ZM19.9223 36.1495L18.5069 34.7338L19.9223 28.2944L21.3375 34.7339L19.9223 36.1495Z" fill="#787878"/>
</svg>
