<svg width="40" height="40" xmlns="http://www.w3.org/2000/svg">
 <title/>
 <desc/>

 <g>
  <title>background</title>
  <rect fill="none" id="canvas_background" height="42" width="42" y="-1" x="-1"/>
 </g>
 <g>
  <title>Layer 1</title>
  <path fill="#787878" stroke="null" id="calendar" d="m12.237517,28.105407c-0.24962,-0.24962 -0.653097,-0.24962 -0.902717,0l-0.825469,0.825469l-0.825469,-0.825469c-0.24962,-0.24962 -0.653097,-0.24962 -0.902717,0c-0.24962,0.24962 -0.24962,0.653097 0,0.902717l0.825469,0.825469l-0.825469,0.825469c-0.24962,0.24962 -0.24962,0.653097 0,0.902717c0.124491,0.124491 0.287925,0.187055 0.451358,0.187055c0.163434,0 0.326868,-0.062565 0.451358,-0.187055l0.825469,-0.825469l0.825469,0.825469c0.124491,0.124491 0.287925,0.187055 0.451358,0.187055c0.163434,0 0.326868,-0.062565 0.451358,-0.187055c0.24962,-0.24962 0.24962,-0.653097 0,-0.902717l-0.825469,-0.825469l0.825469,-0.825469c0.24962,-0.24962 0.24962,-0.653097 0,-0.902717l0,0zm6.384137,0c-0.24962,-0.24962 -0.653097,-0.24962 -0.902717,0l-0.825469,0.825469l-0.825469,-0.825469c-0.24962,-0.24962 -0.653097,-0.24962 -0.902717,0c-0.24962,0.24962 -0.24962,0.653097 0,0.902717l0.825469,0.825469l-0.825469,0.825469c-0.24962,0.24962 -0.24962,0.653097 0,0.902717c0.124491,0.124491 0.287925,0.187055 0.451358,0.187055c0.163434,0 0.326868,-0.062565 0.451358,-0.187055l0.825469,-0.825469l0.825469,0.825469c0.124491,0.124491 0.287925,0.187055 0.451358,0.187055c0.163434,0 0.326868,-0.062565 0.451358,-0.187055c0.24962,-0.24962 0.24962,-0.653097 0,-0.902717l-0.825469,-0.825469l0.825469,-0.825469c0.24962,-0.24962 0.24962,-0.653097 0,-0.902717l0,0zm12.768274,-6.384137c-0.24962,-0.24962 -0.653097,-0.24962 -0.902717,0l-0.825469,0.825469l-0.825469,-0.825469c-0.24962,-0.24962 -0.653097,-0.24962 -0.902717,0c-0.24962,0.24962 -0.24962,0.653097 0,0.902717l0.825469,0.825469l-0.825469,0.825469c-0.24962,0.24962 -0.24962,0.653097 0,0.902717c0.124491,0.124491 0.287925,0.187055 0.451358,0.187055c0.163434,0 0.326868,-0.062565 0.451358,-0.187055l0.825469,-0.825469l0.825469,0.825469c0.124491,0.124491 0.287925,0.187055 0.451358,0.187055c0.163434,0 0.326868,-0.062565 0.451358,-0.187055c0.24962,-0.24962 0.24962,-0.653097 0,-0.902717l-0.825469,-0.825469l0.825469,-0.825469c0.24962,-0.24962 0.24962,-0.653097 0,-0.902717l0,0zm-6.384137,-6.384137c-0.24962,-0.24962 -0.653097,-0.24962 -0.902717,0l-0.825469,0.825469l-0.825469,-0.825469c-0.24962,-0.24962 -0.653097,-0.24962 -0.902717,0c-0.24962,0.24962 -0.24962,0.653097 0,0.902717l0.825469,0.825469l-0.825469,0.825469c-0.24962,0.24962 -0.24962,0.653097 0,0.902717c0.124491,0.124491 0.287925,0.187055 0.451358,0.187055c0.163434,0 0.326868,-0.062565 0.451358,-0.187055l0.825469,-0.825469l0.825469,0.825469c0.124491,0.124491 0.287925,0.187055 0.451358,0.187055c0.163434,0 0.326868,-0.062565 0.451358,-0.187055c0.24962,-0.24962 0.24962,-0.653097 0,-0.902717l-0.825469,-0.825469l0.825469,-0.825469c0.24962,-0.24962 0.24962,-0.653097 0,-0.902717l0,0zm4.017537,2.3666l1.276827,0l0,-1.276827l-1.276827,0l0,1.276827zm2.553655,0.638414c0,0.352404 -0.286009,0.638414 -0.638414,0.638414l-2.553655,0c-0.352404,0 -0.638414,-0.286009 -0.638414,-0.638414l0,-2.553655c0,-0.352404 0.286009,-0.638414 0.638414,-0.638414l2.553655,0c0.352404,0 0.638414,0.286009 0.638414,0.638414l0,2.553655zm-8.937792,12.12986l1.276827,0l0,-1.276827l-1.276827,0l0,1.276827zm2.553655,-1.915241l0,2.553655c0,0.352404 -0.286009,0.638414 -0.638414,0.638414l-2.553655,0c-0.352404,0 -0.638414,-0.286009 -0.638414,-0.638414l0,-2.553655c0,-0.352404 0.286009,-0.638414 0.638414,-0.638414l2.553655,0c0.352404,0 0.638414,0.286009 0.638414,0.638414l0,0zm-2.553655,-4.468896l1.276827,0l0,-1.276827l-1.276827,0l0,1.276827zm2.553655,0.638414c0,0.352404 -0.286009,0.638414 -0.638414,0.638414l-2.553655,0c-0.352404,0 -0.638414,-0.286009 -0.638414,-0.638414l0,-2.553655c0,-0.352404 0.286009,-0.638414 0.638414,-0.638414l2.553655,0c0.352404,0 0.638414,0.286009 0.638414,0.638414l0,2.553655zm-8.937792,-0.638414l1.276827,0l0,-1.276827l-1.276827,0l0,1.276827zm2.553655,0.638414c0,0.352404 -0.286009,0.638414 -0.638414,0.638414l-2.553655,0c-0.352404,0 -0.638414,-0.286009 -0.638414,-0.638414l0,-2.553655c0,-0.352404 0.286009,-0.638414 0.638414,-0.638414l2.553655,0c0.352404,0 0.638414,0.286009 0.638414,0.638414l0,2.553655zm-2.553655,-7.022551l1.276827,0l0,-1.276827l-1.276827,0l0,1.276827zm2.553655,0.638414c0,0.352404 -0.286009,0.638414 -0.638414,0.638414l-2.553655,0c-0.352404,0 -0.638414,-0.286009 -0.638414,-0.638414l0,-2.553655c0,-0.352404 0.286009,-0.638414 0.638414,-0.638414l2.553655,0c0.352404,0 0.638414,0.286009 0.638414,0.638414l0,2.553655zm-8.937792,5.745723l1.276827,0l0,-1.276827l-1.276827,0l0,1.276827zm2.553655,0.638414c0,0.352404 -0.286009,0.638414 -0.638414,0.638414l-2.553655,0c-0.352404,0 -0.638414,-0.286009 -0.638414,-0.638414l0,-2.553655c0,-0.352404 0.286009,-0.638414 0.638414,-0.638414l2.553655,0c0.352404,0 0.638414,0.286009 0.638414,0.638414l0,2.553655zm-2.553655,-7.022551l1.276827,0l0,-1.276827l-1.276827,0l0,1.276827zm2.553655,0.638414c0,0.352404 -0.286009,0.638414 -0.638414,0.638414l-2.553655,0c-0.352404,0 -0.638414,-0.286009 -0.638414,-0.638414l0,-2.553655c0,-0.352404 0.286009,-0.638414 0.638414,-0.638414l2.553655,0c0.352404,0 0.638414,0.286009 0.638414,0.638414l0,2.553655zm16.598756,-13.406688c0,0.351766 0.286648,0.638414 0.638414,0.638414c0.351766,0 0.638414,-0.286648 0.638414,-0.638414l0,-2.553655c0,-0.351766 -0.286648,-0.638414 -0.638414,-0.638414c-0.351766,0 -0.638414,0.286648 -0.638414,0.638414l0,2.553655zm-1.276827,0l0,-2.553655c0,-1.055936 0.859305,-1.915241 1.915241,-1.915241c1.055936,0 1.915241,0.859305 1.915241,1.915241l0,2.553655c0,1.055936 -0.859305,1.915241 -1.915241,1.915241c-1.055936,0 -1.915241,-0.859305 -1.915241,-1.915241l0,0zm-5.10731,0c0,0.351766 0.286648,0.638414 0.638414,0.638414c0.351766,0 0.638414,-0.286648 0.638414,-0.638414l0,-2.553655c0,-0.351766 -0.286648,-0.638414 -0.638414,-0.638414c-0.351766,0 -0.638414,0.286648 -0.638414,0.638414l0,2.553655zm-1.276827,0l0,-2.553655c0,-1.055936 0.859305,-1.915241 1.915241,-1.915241c1.055936,0 1.915241,0.859305 1.915241,1.915241l0,2.553655c0,1.055936 -0.859305,1.915241 -1.915241,1.915241c-1.055936,0 -1.915241,-0.859305 -1.915241,-1.915241l0,0zm-5.10731,0c0,0.351766 0.286648,0.638414 0.638414,0.638414c0.351766,0 0.638414,-0.286648 0.638414,-0.638414l0,-2.553655c0,-0.351766 -0.286648,-0.638414 -0.638414,-0.638414c-0.351766,0 -0.638414,0.286648 -0.638414,0.638414l0,2.553655zm-1.276827,0l0,-2.553655c0,-1.055936 0.859305,-1.915241 1.915241,-1.915241c1.055936,0 1.915241,0.859305 1.915241,1.915241l0,2.553655c0,1.055936 -0.859305,1.915241 -1.915241,1.915241c-1.055936,0 -1.915241,-0.859305 -1.915241,-1.915241l0,0zm-5.10731,0c0,0.351766 0.286648,0.638414 0.638414,0.638414c0.351766,0 0.638414,-0.286648 0.638414,-0.638414l0,-2.553655c0,-0.351766 -0.286648,-0.638414 -0.638414,-0.638414c-0.351766,0 -0.638414,0.286648 -0.638414,0.638414l0,2.553655zm-1.276827,0l0,-2.553655c0,-1.055936 0.859305,-1.915241 1.915241,-1.915241c1.055936,0 1.915241,0.859305 1.915241,1.915241l0,2.553655c0,1.055936 -0.859305,1.915241 -1.915241,1.915241c-1.055936,0 -1.915241,-0.859305 -1.915241,-1.915241l0,0zm23.169948,30.192499c-0.24962,0.24962 -0.24962,0.653097 0,0.902717c0.124491,0.124491 0.287925,0.187055 0.451358,0.187055c0.163434,0 0.326868,-0.062565 0.451358,-0.187055l3.830482,-3.830482c0.120022,-0.119383 0.187055,-0.282179 0.187055,-0.451358l0,-20.429238c0,-0.352404 -0.286009,-0.638414 -0.638414,-0.638414l-31.920685,0c-0.352404,0 -0.638414,0.286009 -0.638414,0.638414l0,22.34448c0,1.408341 1.145314,2.553655 2.553655,2.553655l23.621307,0c0.352404,0 0.638414,-0.286009 0.638414,-0.638414l0,-3.830482c0,-0.289201 0.284733,-0.638414 0.638414,-0.638414l2.553655,0c0.352404,0 0.638414,-0.286009 0.638414,-0.638414c0,-0.352404 -0.286009,-0.638414 -0.638414,-0.638414l-2.553655,0c-1.020185,0 -1.915241,0.895056 -1.915241,1.915241l0,3.192069l-22.982893,0c-0.70417,0 -1.276827,-0.572657 -1.276827,-1.276827l0,-21.706066l30.643858,0l0,19.526521l-3.643427,3.643427zm4.281841,-33.384568l-2.553655,0c-0.352404,0 -0.638414,0.286009 -0.638414,0.638414c0,0.352404 0.286009,0.638414 0.638414,0.638414l2.553655,0c0.930807,0 1.915241,0.984434 1.915241,1.915241l0,30.643858c0,0.930807 -0.984434,1.915241 -1.915241,1.915241l-31.920685,0c-0.930807,0 -1.915241,-0.984434 -1.915241,-1.915241l0,-26.174962l33.835926,0c0.352404,0 0.638414,-0.286009 0.638414,-0.638414c0,-0.352404 -0.286009,-0.638414 -0.638414,-0.638414l-34.47434,0c-0.352404,0 -0.638414,0.286009 -0.638414,0.638414l0,26.813375c0,1.640723 1.551345,3.192069 3.192069,3.192069l31.920685,0c1.640723,0 3.192069,-1.551345 3.192069,-3.192069l0,-30.643858c0,-1.640723 -1.551345,-3.192069 -3.192069,-3.192069l0,0zm-35.112754,4.468896l0,-1.276827c0,-1.640723 1.551345,-3.192069 3.192069,-3.192069l2.553655,0c0.352404,0 0.638414,0.286009 0.638414,0.638414c0,0.352404 -0.286009,0.638414 -0.638414,0.638414l-2.553655,0c-0.930807,0 -1.915241,0.984434 -1.915241,1.915241l0,1.276827c0,0.352404 -0.286009,0.638414 -0.638414,0.638414c-0.352404,0 -0.638414,-0.286009 -0.638414,-0.638414l0,0z"/>
 </g>
</svg>