<svg width="20" height="20" viewBox="0 0 20 20" fill="none" xmlns="http://www.w3.org/2000/svg">
<path d="M14.2969 2.38449H11.7578V0.587921C11.7578 0.264435 11.4958 0.00213623 11.1723 0.00198364L8.86719 0C8.5434 0 8.28125 0.262909 8.28125 0.585938V2.38449H5.70312C4.51843 2.38449 3.55469 3.34824 3.55469 4.53278V17.8517C3.55469 19.0363 4.51843 20 5.70312 20H14.2969C15.4816 20 16.4453 19.0363 16.4453 17.8517V4.53278C16.4453 3.34824 15.4816 2.38449 14.2969 2.38449ZM9.45312 1.17233L10.5859 1.17325V3.55621H9.45312V1.17233ZM15.2734 17.8517C15.2734 18.39 14.8354 18.8281 14.2969 18.8281H5.70312C5.16464 18.8281 4.72656 18.39 4.72656 17.8517V4.53278C4.72656 3.99445 5.16464 3.55637 5.70312 3.55637H8.28125V4.14215C8.28125 4.46579 8.54355 4.72809 8.86719 4.72809H11.1719C11.4955 4.72809 11.7578 4.46579 11.7578 4.14215V3.55637H14.2969C14.8354 3.55637 15.2734 3.99429 15.2734 4.53278V17.8517Z" fill="white"/>
<path d="M13.5156 14.1016H6.48438C6.16074 14.1016 5.89844 14.3639 5.89844 14.6875C5.89844 15.0111 6.16074 15.2734 6.48438 15.2734H13.5156C13.8393 15.2734 14.1016 15.0111 14.1016 14.6875C14.1016 14.3639 13.8393 14.1016 13.5156 14.1016Z" fill="white"/>
<path d="M8.82812 16.4453H6.48438C6.16074 16.4453 5.89844 16.7076 5.89844 17.0312C5.89844 17.3547 6.16074 17.6172 6.48438 17.6172H8.82812C9.15176 17.6172 9.41406 17.3547 9.41406 17.0312C9.41406 16.7076 9.15176 16.4453 8.82812 16.4453Z" fill="white"/>
<path d="M13.5156 16.4453H11.1719C10.8482 16.4453 10.5859 16.7076 10.5859 17.0312C10.5859 17.3547 10.8482 17.6172 11.1719 17.6172H13.5156C13.8393 17.6172 14.1016 17.3547 14.1016 17.0312C14.1016 16.7076 13.8393 16.4453 13.5156 16.4453Z" fill="white"/>
<path d="M7.65625 12.9302H12.3438C12.6674 12.9302 12.9297 12.6678 12.9297 12.3443V11.1724C12.9297 10.0938 12.3485 9.14511 11.4612 8.63303C12.2388 7.47275 11.4043 5.89941 10 5.89941C8.59497 5.89941 7.75803 7.4758 8.54187 8.6376C7.62222 9.17654 7.07031 10.1714 7.07031 11.2113V12.3443C7.07031 12.6678 7.33261 12.9302 7.65625 12.9302ZM10 7.07129C10.323 7.07129 10.5859 7.3342 10.5859 7.65723C10.5859 7.98026 10.323 8.24301 10 8.24301C9.67697 8.24301 9.41406 7.98026 9.41406 7.65723C9.41406 7.3342 9.67697 7.07129 10 7.07129ZM8.24219 11.2113C8.24219 10.2161 9.04678 9.39581 10.036 9.41519C10.9854 9.43427 11.7578 10.2225 11.7578 11.1724V11.7583H8.24219V11.2113Z" fill="white"/>
</svg>
