<svg width="40" height="40" xmlns="http://www.w3.org/2000/svg" class="bi bi-list-columns-reverse">

 <g>
  <title>background</title>
  <rect fill="none" id="canvas_background" height="42" width="42" y="-1" x="-1"/>
 </g>
 <g>
  <title>Layer 1</title>
  <path fill="#787878" stroke="null" id="svg_1" fill-rule="evenodd" d="m0.5,2.932058a1.213308,1.213308 0 0 1 1.213308,-1.213308l4.853232,0a1.213308,1.213308 0 0 1 0,2.426616l-4.853232,0a1.213308,1.213308 0 0 1 -1.213308,-1.213308zm9.706463,0a1.213308,1.213308 0 0 1 1.213308,-1.213308l24.266158,0a1.213308,1.213308 0 0 1 0,2.426616l-24.266158,0a1.213308,1.213308 0 0 1 -1.213308,-1.213308zm-9.706463,4.853232a1.213308,1.213308 0 0 1 1.213308,-1.213308l4.853232,0a1.213308,1.213308 0 0 1 0,2.426616l-4.853232,0a1.213308,1.213308 0 0 1 -1.213308,-1.213308zm9.706463,0a1.213308,1.213308 0 0 1 1.213308,-1.213308l21.839542,0a1.213308,1.213308 0 0 1 0,2.426616l-21.839542,0a1.213308,1.213308 0 0 1 -1.213308,-1.213308zm-9.706463,4.853232a1.213308,1.213308 0 0 1 1.213308,-1.213308l4.853232,0a1.213308,1.213308 0 0 1 0,2.426616l-4.853232,0a1.213308,1.213308 0 0 1 -1.213308,-1.213308zm9.706463,0a1.213308,1.213308 0 0 1 1.213308,-1.213308l26.692774,0a1.213308,1.213308 0 0 1 0,2.426616l-26.692774,0a1.213308,1.213308 0 0 1 -1.213308,-1.213308zm-9.706463,4.853232a1.213308,1.213308 0 0 1 1.213308,-1.213308l4.853232,0a1.213308,1.213308 0 0 1 0,2.426616l-4.853232,0a1.213308,1.213308 0 0 1 -1.213308,-1.213308zm9.706463,0a1.213308,1.213308 0 0 1 1.213308,-1.213308l19.412926,0a1.213308,1.213308 0 0 1 0,2.426616l-19.412926,0a1.213308,1.213308 0 0 1 -1.213308,-1.213308zm-9.706463,4.853232a1.213308,1.213308 0 0 1 1.213308,-1.213308l4.853232,0a1.213308,1.213308 0 0 1 0,2.426616l-4.853232,0a1.213308,1.213308 0 0 1 -1.213308,-1.213308zm9.706463,0a1.213308,1.213308 0 0 1 1.213308,-1.213308l19.412926,0a1.213308,1.213308 0 0 1 0,2.426616l-19.412926,0a1.213308,1.213308 0 0 1 -1.213308,-1.213308zm-9.706463,4.853232a1.213308,1.213308 0 0 1 1.213308,-1.213308l4.853232,0a1.213308,1.213308 0 0 1 0,2.426616l-4.853232,0a1.213308,1.213308 0 0 1 -1.213308,-1.213308zm9.706463,0a1.213308,1.213308 0 0 1 1.213308,-1.213308l24.266158,0a1.213308,1.213308 0 0 1 0,2.426616l-24.266158,0a1.213308,1.213308 0 0 1 -1.213308,-1.213308zm-9.706463,4.853232a1.213308,1.213308 0 0 1 1.213308,-1.213308l4.853232,0a1.213308,1.213308 0 0 1 0,2.426616l-4.853232,0a1.213308,1.213308 0 0 1 -1.213308,-1.213308zm9.706463,0a1.213308,1.213308 0 0 1 1.213308,-1.213308l14.559695,0a1.213308,1.213308 0 0 1 0,2.426616l-14.559695,0a1.213308,1.213308 0 0 1 -1.213308,-1.213308zm-9.706463,4.853232a1.213308,1.213308 0 0 1 1.213308,-1.213308l4.853232,0a1.213308,1.213308 0 0 1 0,2.426616l-4.853232,0a1.213308,1.213308 0 0 1 -1.213308,-1.213308zm9.706463,0a1.213308,1.213308 0 0 1 1.213308,-1.213308l26.692774,0a1.213308,1.213308 0 0 1 0,2.426616l-26.692774,0a1.213308,1.213308 0 0 1 -1.213308,-1.213308z"/>
 </g>
</svg>