<svg width="40" height="40" xmlns="http://www.w3.org/2000/svg">

 <g>
  <title>background</title>
  <rect fill="none" id="canvas_background" height="42" width="42" y="-1" x="-1"/>
 </g>
 <g>
  <title>Layer 1</title>
  <path stroke="null" id="svg_3" fill="#787878" d="m9.833533,11.027978c-0.219473,0 -0.365788,0.146315 -0.365788,0.365788s0.146315,0.365788 0.365788,0.365788l10.242069,0c0.219473,0 0.365788,-0.146315 0.365788,-0.365788s-0.146315,-0.365788 -0.365788,-0.365788l-10.242069,0z"/>
  <path stroke="null" id="svg_4" fill="#787878" d="m7.09847,9.509049l16.444259,0c0.246664,0 0.411106,-0.164443 0.411106,-0.411106s-0.164443,-0.411106 -0.411106,-0.411106l-16.444259,0c-0.246664,0 -0.411106,0.164443 -0.411106,0.411106s0.246664,0.411106 0.411106,0.411106z"/>
  <path stroke="null" id="svg_5" fill="#787878" d="m16.247061,31.397951c-0.502343,0 -0.932922,0.21529 -1.219975,0.430579c-0.287053,-0.21529 -0.717632,-0.430579 -1.219975,-0.430579c-0.287053,0 -0.574106,0.071763 -0.789396,0.287053c-0.287053,0.287053 -0.502343,0.645869 -0.502343,1.076448c0,0.430579 0.143526,0.789396 0.502343,1.076448l1.794081,1.650554c0.071763,0.071763 0.143526,0.071763 0.21529,0.071763c0.071763,0 0.143526,0 0.21529,-0.071763l1.794081,-1.650554c0.287053,-0.287053 0.502343,-0.717632 0.502343,-1.076448s-0.21529,-0.789396 -0.502343,-1.076448c-0.21529,-0.21529 -0.430579,-0.287053 -0.789396,-0.287053zm0.358816,1.937607l-1.578791,1.435265l-1.578791,-1.435265c-0.143526,-0.143526 -0.21529,-0.358816 -0.21529,-0.574106c0,-0.21529 0.071763,-0.430579 0.287053,-0.574106c0.071763,-0.071763 0.21529,-0.143526 0.287053,-0.143526c0.287053,0 0.645869,0.143526 1.004685,0.430579c0.143526,0.143526 0.358816,0.143526 0.502343,0c0.502343,-0.430579 1.076448,-0.574106 1.291738,-0.358816c0.143526,0.143526 0.287053,0.358816 0.287053,0.574106c-0.071763,0.287053 -0.143526,0.502343 -0.287053,0.645869z"/>
  <path stroke="null" id="svg_6" fill="#787878" d="m9.760326,16.735152c-0.219473,0 -0.365788,0.146315 -0.365788,0.365788s0.146315,0.365788 0.365788,0.365788l10.242069,0c0.219473,0 0.365788,-0.146315 0.365788,-0.365788s-0.146315,-0.365788 -0.365788,-0.365788l-10.242069,0z"/>
  <path stroke="null" id="svg_7" fill="#787878" d="m6.889309,14.651487l16.862581,0c0.252939,0 0.421565,-0.168626 0.421565,-0.421565s-0.168626,-0.421565 -0.421565,-0.421565l-16.862581,0c-0.252939,0 -0.421565,0.168626 -0.421565,0.421565s0.252939,0.421565 0.421565,0.421565z"/>
  <path stroke="null" id="svg_8" fill="#787878" d="m9.726163,23.051404c-0.242899,0 -0.404832,0.161933 -0.404832,0.404832s0.161933,0.404832 0.404832,0.404832l11.335285,0c0.242899,0 0.404832,-0.161933 0.404832,-0.404832s-0.161933,-0.404832 -0.404832,-0.404832l-11.335285,0z"/>
  <path stroke="null" id="svg_9" fill="#787878" d="m6.716751,20.915449l15.816774,0c0.237252,0 0.395419,-0.158168 0.395419,-0.395419s-0.158168,-0.395419 -0.395419,-0.395419l-15.816774,0c-0.237252,0 -0.395419,0.158168 -0.395419,0.395419s0.237252,0.395419 0.395419,0.395419z"/>
  <path stroke="null" id="svg_10" fill="#787878" d="m21.393074,29.453795c0,-0.241435 -0.160957,-0.402391 -0.402391,-0.402391l-11.266959,0c-0.241435,0 -0.402391,0.160957 -0.402391,0.402391s0.160957,0.402391 0.402391,0.402391l11.266959,0c0.241435,0 0.402391,-0.160957 0.402391,-0.402391z"/>
  <path stroke="null" id="svg_11" fill="#787878" d="m23.368184,26.530488c0,-0.243526 -0.162351,-0.405877 -0.405877,-0.405877l-16.235098,0c-0.243526,0 -0.405877,0.162351 -0.405877,0.405877s0.162351,0.405877 0.405877,0.405877l16.235098,0c0.243526,0 0.405877,-0.162351 0.405877,-0.405877z"/>
  <path stroke="null" id="svg_12" fill="#787878" d="m31.74944,18.184893c0,0 0.063258,0 0,0l4.744358,-0.253032c0.189774,0 0.379549,-0.126516 0.506065,-0.316291l0.506065,-0.822355c0,0 0,-0.063258 0,-0.063258l3.036389,-4.175035c0.126516,-0.189774 0.189774,-0.442807 0.063258,-0.632581c-0.126516,-0.189774 -0.316291,-0.316291 -0.569323,-0.379549l-1.32842,-0.063258l-1.581453,-2.530324c-0.126516,-0.189774 -0.316291,-0.316291 -0.569323,-0.316291l-3.415938,0.126516l-0.506065,-0.822355c-0.126516,-0.189774 -0.316291,-0.316291 -0.569323,-0.316291c-0.253032,0 -0.442807,0.189774 -0.569323,0.379549l-2.34055,5.376939c-0.063258,0.189774 -0.063258,0.379549 0,0.569323l1.581453,3.099647c-0.063258,0.063258 -0.063258,0.063258 -0.126516,0.126516l-1.771227,2.973131l0,-13.600493l1.644711,0c0.379549,0 0.632581,-0.253032 0.632581,-0.632581l0,-1.644711c0,-1.32842 -1.518195,-2.783357 -2.909873,-2.783357l-22.962692,0c0,0 -0.063258,0 -0.063258,0c-1.32842,0.189774 -2.467066,1.961001 -2.467066,3.099647l0,0.063258l0,27.833566l-1.897743,0c-0.379549,0 -0.632581,0.253032 -0.632581,0.632581l0,2.720099c0,1.32842 1.075388,2.34055 2.403808,2.34055l0.759097,0l19.610013,0l2.530324,0l1.265162,0c1.32842,0 2.150776,-1.32842 2.150776,-2.530324l0,-11.955782l4.364809,1.32842c0.063258,0 0.126516,0 0.189774,0c0.063258,0 0.189774,0 0.253032,-0.063258l3.542454,-1.707969c0.253032,-0.126516 0.379549,-0.379549 0.379549,-0.632581s-0.189774,-0.442807 -0.442807,-0.569323l-4.870874,-1.518195c-0.126516,-0.063258 -0.316291,-0.063258 -0.442807,0.063258l-2.403808,1.138646l2.087517,-3.605712c0.063258,0.063258 0.126516,0.063258 0.189774,0.063258zm-3.479196,-15.434978c0.695839,0 1.644711,0.948872 1.644711,1.518195l0,1.01213l-1.644711,0c0,0 0,0 0,0l-19.863045,0l0,-1.01213c0,-0.506065 -0.253032,-1.01213 -0.695839,-1.518195l20.558884,0zm-26.821437,33.083989l0,-2.087517l1.265162,0l0,3.162905l-0.063258,0c-0.632581,0 -1.201904,-0.506065 -1.201904,-1.075388zm25.303242,1.075388l-1.265162,0l-2.530324,0l-18.977432,0l0,-32.261634l0,-0.063258c0,-0.632581 0.822355,-1.834485 1.391678,-1.834485l0,0c0.695839,0 1.771227,1.01213 1.771227,1.518195l0,1.644711c0,0.379549 0.253032,0.632581 0.632581,0.632581l19.863045,0l0,15.751268l-7.464456,12.967912c-0.189774,0.316291 -0.063258,0.695839 0.253032,0.885613c0.126516,0.063258 0.189774,0.063258 0.316291,0.063258c0.189774,0 0.442807,-0.126516 0.569323,-0.316291l6.389069,-11.00691l0,10.753878c-0.063258,0.569323 -0.379549,1.265162 -0.948872,1.265162zm5.440197,-15.055429l3.099647,0.948872l-1.897743,0.885613l-3.099647,-0.948872l1.897743,-0.885613zm4.807616,-6.578843l-1.581453,-2.65684l3.415938,0.126516l-1.834485,2.530324zm-2.34055,-3.858744l-0.253032,-0.379549l0.885613,0l0.316291,0.379549l-0.759097,0c0,-0.063258 -0.063258,-0.063258 -0.189774,0zm1.581453,-1.518195l0.948872,1.518195l-0.695839,0l-0.822355,-1.01213l-1.581453,0l-0.253032,-0.379549l2.403808,-0.126516zm-4.048519,-0.253032l3.985261,6.768617l-0.189774,0.316291l-3.795486,0.189774l-1.707969,-3.289421l1.707969,-3.985261z"/>
 </g>
</svg>