<svg width="40" height="40" xmlns="http://www.w3.org/2000/svg">

 <g>
  <title>background</title>
  <rect fill="none" id="canvas_background" height="42" width="42" y="-1" x="-1"/>
 </g>
 <g>
  <title>Layer 1</title>
  <path fill="#787878" stroke="null" id="svg_2" d="m31.873442,3.804964l-6.467641,0l0,-2.766035c0,-0.325416 -0.284739,-0.610155 -0.610155,-0.610155l-9.640446,0c-0.325416,0 -0.610155,0.284739 -0.610155,0.610155l0,2.766035l-6.833734,0c-1.423694,0 -2.56265,1.138956 -2.56265,2.56265l0,30.670447c0,1.423694 1.138956,2.56265 2.56265,2.56265l24.202806,0c1.423694,0 2.56265,-1.138956 2.56265,-2.56265l0,-30.670447c-0.040677,-1.423694 -1.179633,-2.56265 -2.603327,-2.56265zm-16.718241,7.891335l9.640446,0c0.325416,0 0.610155,-0.284739 0.610155,-0.610155l0,-2.644004l4.271083,0l0,26.31801l-19.769015,0l0,-26.277333l4.637176,0l0,2.603327c0,0.366093 0.284739,0.610155 0.610155,0.610155zm9.030291,-10.047215l0,6.182902c0,0 0,0 0,0s0,0 0,0l0,2.644004l-8.420136,0l0,-2.644004c0,0 0,0 0,0s0,0 0,0l0,-3.457544c0,0 0,0 0,0s0,0 0,0l0,-2.725358l8.420136,0l0,0zm9.030291,35.3483c0,0.732186 -0.610155,1.342341 -1.342341,1.342341l-24.162129,0c-0.732186,0 -1.342341,-0.610155 -1.342341,-1.342341l0,-30.62977c0,-0.732186 0.610155,-1.342341 1.342341,-1.342341l6.833734,0l0,2.237234l-5.247331,0c-0.325416,0 -0.610155,0.284739 -0.610155,0.610155l0,27.538319c0,0.325416 0.284739,0.610155 0.610155,0.610155l20.989325,0c0.325416,0 0.610155,-0.284739 0.610155,-0.610155l0,-27.538319c0,-0.325416 -0.284739,-0.610155 -0.610155,-0.610155l-4.881238,0l0,-2.237234l6.467641,0c0.732186,0 1.342341,0.610155 1.342341,1.342341l0,30.62977z"/>
  <path fill="#787878" stroke="null" id="svg_3" d="m11.694437,22.690815c0,0.295842 0.258861,0.554703 0.554703,0.554703l14.237375,0c0.295842,0 0.554703,-0.258861 0.554703,-0.554703s-0.258861,-0.554703 -0.554703,-0.554703l-14.237375,0c-0.295842,0 -0.554703,0.258861 -0.554703,0.554703z"/>
  <path fill="#787878" stroke="null" id="svg_4" d="m26.733563,26.954072l-14.650895,0c-0.304434,0 -0.570814,0.26638 -0.570814,0.570814s0.26638,0.570814 0.570814,0.570814l14.650895,0c0.304434,0 0.570814,-0.26638 0.570814,-0.570814s-0.26638,-0.570814 -0.570814,-0.570814z"/>
  <path fill="#787878" stroke="null" id="svg_5" d="m26.65873,17.376885l-14.503511,0c-0.301372,0 -0.565072,0.2637 -0.565072,0.565072c0,0.301372 0.2637,0.565072 0.565072,0.565072l14.503511,0c0.301372,0 0.565072,-0.2637 0.565072,-0.565072c0,-0.301372 -0.2637,-0.565072 -0.565072,-0.565072z"/>
 </g>
</svg>