<svg width="40" height="40" xmlns="http://www.w3.org/2000/svg">

 <g>
  <title>background</title>
  <rect fill="none" id="canvas_background" height="42" width="42" y="-1" x="-1"/>
 </g>
 <g>
  <title>Layer 1</title>
  <path fill="#787878" stroke="null" id="svg_2" d="m31.777972,3.686212l-6.526996,0l0,-2.79142c0,-0.328402 -0.287352,-0.615754 -0.615754,-0.615754l-9.728919,0c-0.328402,0 -0.615754,0.287352 -0.615754,0.615754l0,2.79142l-6.896449,0c-1.43676,0 -2.586168,1.149408 -2.586168,2.586168l0,30.95192c0,1.43676 1.149408,2.586168 2.586168,2.586168l24.424923,0c1.43676,0 2.586168,-1.149408 2.586168,-2.586168l0,-30.95192c-0.04105,-1.43676 -1.190458,-2.586168 -2.627219,-2.586168zm-16.87167,7.963757l9.728919,0c0.328402,0 0.615754,-0.287352 0.615754,-0.615754l0,-2.668269l4.310281,0l0,26.559539l-19.950442,0l0,-26.518488l4.679733,0l0,2.627219c0,0.369453 0.287352,0.615754 0.615754,0.615754zm9.113165,-10.139422l0,6.239644c0,0 0,0 0,0s0,0 0,0l0,2.668269l-8.49741,0l0,-2.668269c0,0 0,0 0,0s0,0 0,0l0,-3.489275c0,0 0,0 0,0s0,0 0,0l0,-2.75037l8.49741,0l0,0zm9.113165,35.672703c0,0.738905 -0.615754,1.35466 -1.35466,1.35466l-24.383873,0c-0.738905,0 -1.35466,-0.615754 -1.35466,-1.35466l0,-30.910869c0,-0.738905 0.615754,-1.35466 1.35466,-1.35466l6.896449,0l0,2.257766l-5.295488,0c-0.328402,0 -0.615754,0.287352 -0.615754,0.615754l0,27.791047c0,0.328402 0.287352,0.615754 0.615754,0.615754l21.18195,0c0.328402,0 0.615754,-0.287352 0.615754,-0.615754l0,-27.791047c0,-0.328402 -0.287352,-0.615754 -0.615754,-0.615754l-4.926035,0l0,-2.257766l6.526996,0c0.738905,0 1.35466,0.615754 1.35466,1.35466l0,30.910869z"/>
  <path fill="#787878" stroke="null" id="svg_3" d="m10.610341,28.933947c0,0.352556 0.308486,0.661042 0.661042,0.661042l16.966748,0c0.352556,0 0.661042,-0.308486 0.661042,-0.661042s-0.308486,-0.661042 -0.661042,-0.661042l-16.966748,0c-0.352556,0 -0.661042,0.308486 -0.661042,0.661042z"/>
  <path fill="#787878" stroke="null" id="svg_4" d="m28.277812,22.81345l-16.885795,0c-0.350874,0 -0.657888,0.307014 -0.657888,0.657888s0.307014,0.657888 0.657888,0.657888l16.885795,0c0.350874,0 0.657888,-0.307014 0.657888,-0.657888s-0.307014,-0.657888 -0.657888,-0.657888z"/>
  <path fill="#787878" stroke="null" id="svg_5" d="m27.947365,17.342611l-16.642937,0c-0.345827,0 -0.648426,0.302599 -0.648426,0.648426c0,0.345827 0.302599,0.648426 0.648426,0.648426l16.642937,0c0.345827,0 0.648426,-0.302599 0.648426,-0.648426c0,-0.345827 -0.302599,-0.648426 -0.648426,-0.648426z"/>
 </g>
</svg>