<svg width="40" height="40" viewBox="0 0 40 40" fill="none" xmlns="http://www.w3.org/2000/svg">
<g clip-path="url(#clip0)">
<path d="M23.5016 15.1777L22.458 16.2214C21.1992 15.5662 19.6616 15.8066 18.6094 16.8589C17.9153 17.5529 17.6166 18.2956 17.6701 19.2028C17.7288 19.9888 17.8581 20.5258 18.2213 21.494C18.746 22.9729 18.7601 23.6352 18.2769 24.1184C17.9699 24.4254 17.6351 24.5995 17.2817 24.6359C16.8394 24.6701 16.4565 24.5091 16.0772 24.1298C15.3592 23.4118 15.3825 22.5883 16.1604 21.1927L16.4356 20.699L14.1919 20.1472L14.0244 20.4017C13.0958 21.8125 13.0324 23.4839 13.8333 24.8464L12.7999 25.8798L14.3273 27.4072L15.3692 26.3652C15.9774 26.7279 16.6501 26.8945 17.3722 26.8613C18.34 26.8226 19.197 26.4368 19.9192 25.7146L19.9319 25.7012C20.7456 24.8147 21.0217 23.9509 20.8557 22.8161C20.7573 22.1034 20.6426 21.741 20.4152 21.0589L20.1185 20.1229C20.0702 19.9578 20.0288 19.7341 19.9765 19.4515L19.9717 19.4259C19.9087 18.9115 20.0479 18.6589 20.3091 18.3977C20.6974 18.0094 21.3087 17.9888 21.6716 18.3518C22.0683 18.7484 22.2339 19.1387 21.9742 20.0632L21.8499 20.5056L24.0208 20.9696L24.1412 20.6004C24.484 19.5491 24.4286 18.5944 23.9773 17.757L25.0292 16.705L23.5016 15.1777Z" fill="#787878"/>
<path d="M40 1.6766L38.3485 0.015625L33.832 4.50653L19.1899 2.80721L0 21.9721L17.9898 39.9853L37.1797 20.8205L35.497 6.15415L40 1.6766ZM34.7237 19.963L17.9919 36.6729L3.31251 21.9742L20.0442 5.26433L31.7085 6.61808L29.3629 8.95042C28.9448 8.76453 28.4887 8.66584 28.0173 8.66584C27.1329 8.66584 26.3011 9.01 25.6753 9.63499C24.3823 10.9263 24.3809 13.0289 25.6723 14.3219C26.2985 14.9488 27.1313 15.2941 28.0173 15.2941C28.9017 15.2941 29.7334 14.9499 30.3592 14.3249C31.3663 13.3191 31.5896 11.8212 31.029 10.597L33.3808 8.25844L34.7237 19.963ZM28.704 12.6676C28.5206 12.8508 28.2767 12.9518 28.0173 12.9518C27.7574 12.9518 27.5132 12.8505 27.3296 12.6667C26.9509 12.2876 26.9513 11.671 27.3305 11.2923C27.514 11.109 27.7579 11.0081 28.0173 11.0081C28.2771 11.0081 28.5213 11.1094 28.705 11.2932C29.0836 11.6723 29.0832 12.2889 28.704 12.6676Z" fill="#787878"/>
</g>
<defs>
<clipPath id="clip0">
<rect width="40" height="40" fill="white"/>
</clipPath>
</defs>
</svg>
