<svg width="40" height="40" viewBox="0 0 40 40" fill="none" xmlns="http://www.w3.org/2000/svg">
<g clip-path="url(#clip0)">
<path d="M38.7487 19.7327C37.4113 18.6304 35.2974 18.5359 33.91 20.0249L30.4657 23.7223C30.0204 22.2912 28.6838 21.249 27.1081 21.249H20.9616C20.4952 21.249 20.3391 21.0709 19.5289 20.4468C16.44 17.754 11.8005 17.7626 8.72094 20.4726L6.46172 22.4615C5.44617 21.924 4.26031 21.9107 3.23922 22.4208L0.647969 23.7161C0.0690631 24.0059 -0.165234 24.7097 0.123751 25.2887L7.15461 39.3503C7.44445 39.9292 8.14828 40.1635 8.72719 39.8745L11.3184 38.5785C12.5957 37.9403 13.3066 36.6372 13.2605 35.3108H27.108C29.6759 35.3108 32.1296 34.0843 33.6702 32.0297L39.2956 24.5287C40.387 23.0747 40.2143 20.9428 38.7487 19.7327ZM10.27 36.4825L8.72711 37.2543L2.74391 25.2887L4.28758 24.5169C4.86649 24.2278 5.56953 24.4614 5.85938 25.0411L10.7942 34.9108C11.0833 35.4896 10.8489 36.1926 10.27 36.4825ZM37.4207 23.1224L31.7953 30.6235C30.6946 32.0914 28.9423 32.9671 27.1081 32.9671H12.4426L8.05141 24.184L10.2692 22.2319C12.4761 20.2905 15.8041 20.2905 18.0109 22.2319C19.3109 23.3763 20.1194 23.5927 20.9616 23.5927H27.108C27.7541 23.5927 28.2798 24.1185 28.2798 24.7645C28.2798 25.4105 27.7541 25.9363 27.108 25.9363H21.1233C20.4764 25.9363 19.9515 26.4613 19.9515 27.1081C19.9515 27.7549 20.4765 28.2799 21.1233 28.2799H27.8932C28.8658 28.2799 29.8033 27.8721 30.4657 27.1605L35.6248 21.6225C36.0966 21.1162 36.82 21.1584 37.2638 21.5467C37.7277 21.9529 37.7778 22.6474 37.4207 23.1224Z" fill="#787878"/>
<path d="M24.6394 7.99738C25.4417 7.15606 25.9362 6.01863 25.9362 4.76629C25.9362 2.18676 23.852 0.000976562 21.249 0.000976562C18.6656 0.000976562 16.4837 2.18285 16.4837 4.76629C16.4837 5.98027 16.9595 7.12629 17.8235 8.00676C15.6807 9.20824 14.1401 11.5143 14.1401 14.2189V15.3907C14.1401 16.0375 14.6651 16.5625 15.3119 16.5625H27.1081C27.7549 16.5625 28.2799 16.0375 28.2799 15.3907V14.2189C28.2798 11.5675 26.8214 9.22543 24.6394 7.99738ZM21.249 2.34465C22.5193 2.34465 23.5926 3.45395 23.5926 4.76637C23.5926 6.05848 22.5411 7.10996 21.249 7.10996C19.9366 7.10996 18.8273 6.0366 18.8273 4.76637C18.8273 3.4766 19.9593 2.34465 21.249 2.34465ZM16.4837 14.2189C16.4837 11.6354 18.6656 9.45356 21.249 9.45356C23.8332 9.45356 25.9362 11.5909 25.9362 14.2189H16.4837Z" fill="#787878"/>
</g>
<defs>
<clipPath id="clip0">
<rect width="40" height="40" fill="white"/>
</clipPath>
</defs>
</svg>
