<svg width="40" height="40" viewBox="0 0 40 40" fill="none" xmlns="http://www.w3.org/2000/svg">
<g clip-path="url(#clip0)">
<path d="M21.7036 8.4258C21.6704 8.4141 21.6381 8.40261 21.6063 8.39132V7.3209C21.6162 7.33125 21.6249 7.34166 21.6321 7.35194C21.8466 7.65763 22.2684 7.73153 22.574 7.51699C22.8797 7.30251 22.9536 6.8808 22.739 6.57511C22.5102 6.24894 22.1149 5.9709 21.6036 5.8496C21.5727 5.5047 21.283 5.23438 20.9302 5.23438C20.5625 5.23438 20.2633 5.52789 20.2542 5.89349C20.2273 5.90086 20.2002 5.90863 20.173 5.91681C19.496 6.12081 18.9851 6.77593 18.9307 7.51002C18.8765 8.24101 19.2627 8.87469 19.9638 9.20533C20.0344 9.2386 20.1325 9.28045 20.254 9.32927V10.7449C20.1469 10.6883 20.0543 10.6179 19.9862 10.5332C19.7519 10.2423 19.3261 10.1966 19.0354 10.4308C18.7445 10.665 18.6988 11.0907 18.9329 11.3815C19.278 11.8099 19.7686 12.0573 20.2601 12.1794C20.3048 12.5096 20.5877 12.7642 20.9301 12.7642C21.2558 12.7642 21.5276 12.5339 21.5919 12.2273C22.4783 12.0571 23.0987 11.4581 23.2019 10.6459C23.323 9.69338 22.7068 8.78044 21.7036 8.4258ZM21.8604 10.4756C21.8393 10.6419 21.7345 10.7469 21.6063 10.8129V9.90447C21.8001 10.076 21.8834 10.2954 21.8604 10.4756Z" fill="#787878"/>
<path d="M20.9999 14.989C17.6972 14.989 15.0104 12.302 15.0104 8.9994C15.0104 5.6967 17.6972 3.00977 20.9999 3.00977C24.3026 3.00977 26.9896 5.6967 26.9896 8.9994C26.9896 12.302 24.3026 14.989 20.9999 14.989ZM20.9999 4.36206C18.443 4.36206 16.3627 6.44235 16.3627 8.9994C16.3627 11.5564 18.443 13.6367 20.9999 13.6367C23.557 13.6367 25.6373 11.5564 25.6373 8.9994C25.6373 6.44242 23.557 4.36206 20.9999 4.36206Z" fill="#787878"/>
<path d="M21 18C16.0373 18 12 13.9626 12 8.99997C12 4.03733 16.0374 0 21 0C25.9626 0 30 4.0374 30 8.99997C30 13.9626 25.9626 18 21 18ZM21 1.35229C16.7831 1.35229 13.3523 4.78305 13.3523 8.99997C13.3523 13.2169 16.7831 16.6477 21 16.6477C25.2169 16.6477 28.6477 13.2169 28.6477 8.99997C28.6477 4.78298 25.2169 1.35229 21 1.35229Z" fill="#787878"/>
<path d="M38.7487 19.7337C37.4113 18.6314 35.2974 18.5369 33.91 20.0259L30.4657 23.7233C30.0204 22.2921 28.6838 21.25 27.1081 21.25H20.9616C20.4952 21.25 20.3391 21.0719 19.5289 20.4478C16.44 17.7549 11.8005 17.7635 8.72094 20.4735L6.46172 22.4624C5.44617 21.9249 4.26031 21.9117 3.23922 22.4218L0.647969 23.7171C0.0690631 24.0069 -0.165234 24.7107 0.123751 25.2896L7.15461 39.3513C7.44445 39.9302 8.14828 40.1645 8.72719 39.8755L11.3184 38.5795C12.5957 37.9413 13.3066 36.6382 13.2605 35.3117H27.108C29.6759 35.3117 32.1296 34.0853 33.6702 32.0307L39.2956 24.5296C40.387 23.0757 40.2143 20.9438 38.7487 19.7337ZM10.27 36.4835L8.72711 37.2553L2.74391 25.2896L4.28758 24.5178C4.86649 24.2288 5.56953 24.4624 5.85938 25.0421L10.7942 34.9117C11.0833 35.4906 10.8489 36.1936 10.27 36.4835ZM37.4207 23.1234L31.7953 30.6245C30.6946 32.0924 28.9423 32.9681 27.1081 32.9681H12.4426L8.05141 24.185L10.2692 22.2328C12.4761 20.2915 15.8041 20.2915 18.0109 22.2328C19.3109 23.3773 20.1194 23.5937 20.9616 23.5937H27.108C27.7541 23.5937 28.2798 24.1195 28.2798 24.7655C28.2798 25.4115 27.7541 25.9373 27.108 25.9373H21.1233C20.4764 25.9373 19.9515 26.4623 19.9515 27.1091C19.9515 27.7559 20.4765 28.2809 21.1233 28.2809H27.8932C28.8658 28.2809 29.8033 27.8731 30.4657 27.1614L35.6248 21.6235C36.0966 21.1172 36.82 21.1594 37.2638 21.5477C37.7277 21.9539 37.7778 22.6484 37.4207 23.1234Z" fill="#787878"/>
</g>
<defs>
<clipPath id="clip0">
<rect width="40" height="40" fill="white"/>
</clipPath>
</defs>
</svg>
