<svg width="34" height="40" viewBox="0 0 34 40" fill="none" xmlns="http://www.w3.org/2000/svg">
<path d="M32 37.4194H29.4193V5.80645C29.4193 5.09387 28.8417 4.51613 28.129 4.51613H18.4516V1.29032C18.4516 0.577742 17.8739 0 17.1613 0H8.20966C7.49708 0 6.91933 0.577742 6.91933 1.29032V4.51613H5.87095C5.15837 4.51613 4.58062 5.09387 4.58062 5.80645V37.4194H1.99998C1.2874 37.4194 0.709656 37.9971 0.709656 38.7097C0.709656 39.4223 1.2874 40 1.99998 40H32C32.7126 40 33.2903 39.4223 33.2903 38.7097C33.2903 37.9971 32.7126 37.4194 32 37.4194ZM9.49998 2.58065H15.8709V4.51613H9.49998V2.58065ZM14.4193 37.4194V31.9355H19.5806V37.4194H14.4193ZM22.1613 37.4194V31.9355H22.7258C23.4384 31.9355 24.0161 31.3577 24.0161 30.6452C24.0161 29.9326 23.4384 29.3548 22.7258 29.3548C18.2376 29.3548 15.4313 29.3548 11.2742 29.3548C10.5616 29.3548 9.98385 29.9326 9.98385 30.6452C9.98385 31.3577 10.5616 31.9355 11.2742 31.9355H11.8387V37.4194H7.16127V7.09677H26.8387V37.4194H22.1613ZM15.1451 10.8871C15.1451 11.5997 14.5674 12.1774 13.8548 12.1774H12.4032C11.6906 12.1774 11.1129 11.5997 11.1129 10.8871C11.1129 10.1745 11.6906 9.59677 12.4032 9.59677H13.8548C14.5674 9.59677 15.1451 10.1745 15.1451 10.8871ZM22.8064 10.8871C22.8064 11.5997 22.2288 12.1774 21.5161 12.1774H20.0645C19.3518 12.1774 18.7742 11.5997 18.7742 10.8871C18.7742 10.1745 19.3518 9.59677 20.0645 9.59677H21.5161C22.2288 9.59677 22.8064 10.1745 22.8064 10.8871ZM15.1451 15.7258C15.1451 16.4384 14.5674 17.0161 13.8548 17.0161H12.4032C11.6906 17.0161 11.1129 16.4384 11.1129 15.7258C11.1129 15.0132 11.6906 14.4355 12.4032 14.4355H13.8548C14.5674 14.4355 15.1451 15.0132 15.1451 15.7258ZM22.8064 15.7258C22.8064 16.4384 22.2288 17.0161 21.5161 17.0161H20.0645C19.3518 17.0161 18.7742 16.4384 18.7742 15.7258C18.7742 15.0132 19.3518 14.4355 20.0645 14.4355H21.5161C22.2288 14.4355 22.8064 15.0132 22.8064 15.7258ZM15.1451 20.5645C15.1451 21.2771 14.5674 21.8548 13.8548 21.8548H12.4032C11.6906 21.8548 11.1129 21.2771 11.1129 20.5645C11.1129 19.8519 11.6906 19.2742 12.4032 19.2742H13.8548C14.5674 19.2742 15.1451 19.8519 15.1451 20.5645ZM22.8064 20.5645C22.8064 21.2771 22.2288 21.8548 21.5161 21.8548H20.0645C19.3518 21.8548 18.7742 21.2771 18.7742 20.5645C18.7742 19.8519 19.3518 19.2742 20.0645 19.2742H21.5161C22.2288 19.2742 22.8064 19.8519 22.8064 20.5645ZM15.1451 25.4032C15.1451 26.1158 14.5674 26.6935 13.8548 26.6935H12.4032C11.6906 26.6935 11.1129 26.1158 11.1129 25.4032C11.1129 24.6906 11.6906 24.1129 12.4032 24.1129H13.8548C14.5674 24.1129 15.1451 24.6906 15.1451 25.4032ZM22.8064 25.4032C22.8064 26.1158 22.2288 26.6935 21.5161 26.6935H20.0645C19.3518 26.6935 18.7742 26.1158 18.7742 25.4032C18.7742 24.6906 19.3518 24.1129 20.0645 24.1129H21.5161C22.2288 24.1129 22.8064 24.6906 22.8064 25.4032Z" fill="#787878"/>
</svg>
