<svg width="40" height="40" viewBox="0 0 40 40" fill="none" xmlns="http://www.w3.org/2000/svg">
<path d="M36.4844 3.82812H33.6719V1.17188C33.6719 0.524687 33.1472 0 32.5 0C31.8528 0 31.3281 0.524687 31.3281 1.17188V3.82812H27.4219V1.17188C27.4219 0.524687 26.8972 0 26.25 0C25.6028 0 25.0781 0.524687 25.0781 1.17188V3.82812H21.1719V1.17188C21.1719 0.524687 20.6472 0 20 0C19.3528 0 18.8281 0.524687 18.8281 1.17188V3.82812H14.9219V1.17188C14.9219 0.524687 14.3972 0 13.75 0C13.1028 0 12.5781 0.524687 12.5781 1.17188V3.82812H8.67188V1.17188C8.67188 0.524687 8.14719 0 7.5 0C6.85281 0 6.32812 0.524687 6.32812 1.17188V3.82812H3.51562C1.57711 3.82812 0 5.40523 0 7.34375V36.4844C0 38.4229 1.57711 40 3.51562 40H36.4844C38.4229 40 40 38.4229 40 36.4844V7.34375C40 5.40523 38.4229 3.82812 36.4844 3.82812ZM3.51562 6.17188H36.4844C37.1305 6.17188 37.6562 6.69758 37.6562 7.34375V8.82812H2.34375V7.34375C2.34375 6.69758 2.86945 6.17188 3.51562 6.17188ZM36.4844 37.6562H3.51562C2.86945 37.6562 2.34375 37.1305 2.34375 36.4844V11.1719H37.6562V36.4844C37.6562 37.1305 37.1305 37.6562 36.4844 37.6562Z" fill="#787878"/>
<path d="M20 13.2031C13.8398 13.2031 8.82812 18.2148 8.82812 24.375C8.82812 30.5352 13.8398 35.5469 20 35.5469C26.1602 35.5469 31.1719 30.5352 31.1719 24.375C31.1719 18.2148 26.1602 13.2031 20 13.2031ZM20 33.2031C15.1321 33.2031 11.1719 29.2429 11.1719 24.375C11.1719 19.5071 15.1321 15.5469 20 15.5469C24.8679 15.5469 28.8281 19.5071 28.8281 24.375C28.8281 29.2429 24.8679 33.2031 20 33.2031Z" fill="#787878"/>
<path d="M21.2982 23.2282C20.5512 22.9641 19.728 22.6474 19.286 22.3007C19.257 22.2779 19.2028 22.1415 19.2408 21.9391C19.2591 21.8422 19.3429 21.5187 19.655 21.4247C20.4365 21.1893 20.7975 21.4903 20.8629 21.5541C21.3168 22.0148 22.0581 22.0208 22.5193 21.5672C22.9808 21.1134 22.987 20.3714 22.5332 19.91C22.2137 19.5852 21.7486 19.2905 21.1713 19.1274V19.0625C21.1713 18.4153 20.6466 17.8906 19.9994 17.8906C19.3522 17.8906 18.8275 18.4153 18.8275 19.0625V19.2322C16.716 19.9995 16.2301 22.8827 17.8396 24.145C18.5464 24.6994 19.5441 25.0941 20.5171 25.438C21.0979 25.6433 21.157 26.0598 21.1043 26.3729C21.0457 26.7217 20.7453 27.3135 19.9914 27.3185C19.2104 27.3239 19.0253 27.2948 18.4541 26.9211C17.9124 26.5668 17.1862 26.7186 16.8319 27.2602C16.4776 27.8019 16.6295 28.5281 17.171 28.8824C17.7942 29.2901 18.2876 29.4921 18.8275 29.5869V29.6993C18.8275 30.3465 19.3521 30.8712 19.9993 30.8712C20.6465 30.8712 21.1712 30.3465 21.1712 29.6993V29.4544C24.0107 28.4278 24.3869 24.3199 21.2982 23.2282Z" fill="#787878"/>
</svg>
