<svg width="40" height="40" viewBox="0 0 40 40" fill="none" xmlns="http://www.w3.org/2000/svg">
<g clip-path="url(#clip0)">
<path d="M37.1282 20.6649C36.8657 20.2615 36.8657 19.7404 37.1282 19.337L38.5889 17.0917C39.9196 15.0465 39.023 12.2989 36.7488 11.4284L34.2473 10.4706C33.7978 10.2984 33.4913 9.87673 33.4666 9.39603L33.3287 6.72105C33.2031 4.28481 30.8629 2.5881 28.511 3.22091L25.9244 3.91637C25.4597 4.04122 24.9639 3.8802 24.6614 3.50591L22.9774 1.42272C21.4437 -0.47446 18.5536 -0.471413 17.0225 1.42272L15.3385 3.50599C15.036 3.88036 14.5403 4.04122 14.0754 3.91645L11.4886 3.22099C9.13217 2.58724 6.79624 4.28958 6.67093 6.72112L6.53304 9.39611C6.5082 9.87673 6.20187 10.2984 5.75242 10.4706L3.25103 11.4284C0.972057 12.3007 0.0826874 15.0506 1.41073 17.0918L2.87158 19.337C3.134 19.7403 3.134 20.2616 2.87158 20.6649L1.41096 22.9102C0.0801874 24.9555 0.977057 27.7033 3.25111 28.5736L5.75265 29.5314C6.20211 29.7036 6.50851 30.1252 6.53327 30.6059L6.67116 33.2809C6.79679 35.7176 9.1374 37.4136 11.4889 36.781L14.0755 36.0856C14.5404 35.9609 15.036 36.1217 15.3386 36.496L17.0226 38.5791C18.5566 40.4769 21.4466 40.473 22.9775 38.5791L24.6615 36.496C24.9639 36.1218 25.46 35.961 25.9245 36.0856L28.5113 36.781C30.8671 37.415 33.2036 35.7128 33.329 33.2809L33.4669 30.6059C33.4917 30.1253 33.798 29.7036 34.2475 29.5315L36.7489 28.5737C39.0277 27.7013 39.9171 24.9515 38.5893 22.9102L37.1282 20.6649ZM35.8152 26.1352L33.3137 27.093C31.9005 27.6341 30.937 28.9602 30.8591 30.4714L30.7213 33.1464C30.6813 33.9214 29.9372 34.4605 29.1891 34.2596L26.6023 33.5641C25.141 33.171 23.5819 33.6778 22.6308 34.8546L20.9469 36.9377C20.4591 37.5412 19.54 37.5399 19.053 36.9377L17.3692 34.8546C16.6319 33.9424 15.5294 33.4328 14.3902 33.4328C14.0598 33.4328 13.7262 33.4757 13.3975 33.5641L10.8108 34.2596C10.0611 34.4608 9.31857 33.9199 9.27857 33.1464L9.14068 30.4714C9.06279 28.9602 8.09928 27.6341 6.68616 27.093L4.18462 26.1352C3.45986 25.8577 3.17712 24.9833 3.59946 24.3341L5.06024 22.0889C5.88547 20.8205 5.88547 19.1813 5.06024 17.913L3.59946 15.6678C3.17619 15.0173 3.46134 14.1437 4.18469 13.8667L6.68624 12.9089C8.09944 12.3678 9.06287 11.0417 9.14076 9.53056L9.27865 6.85558C9.31857 6.0805 10.0627 5.54144 10.8108 5.74238L13.3976 6.43784C14.8589 6.83089 16.4179 6.32417 17.3691 5.14738L19.0531 3.06419C19.541 2.46076 20.4601 2.46201 20.9469 3.06419L22.6309 5.14746C23.5823 6.32425 25.141 6.83097 26.6025 6.43784L29.1892 5.74238C29.9388 5.54105 30.6814 6.08206 30.7214 6.85558L30.8591 9.53056C30.937 11.0417 31.9005 12.3679 33.3137 12.9089L35.8153 13.8668C36.54 14.1441 36.8227 15.0187 36.4004 15.6678L34.9398 17.9129C34.1144 19.1813 34.1144 20.8205 34.9397 22.0889L36.4004 24.3341C36.8236 24.9847 36.5386 25.8583 35.8152 26.1352Z" fill="#787878"/>
<path d="M26.5221 13.3472C26.0124 12.8374 25.1857 12.8374 24.6759 13.3472L12.4911 25.532C11.9813 26.0417 11.9813 26.8684 12.4912 27.3782C12.7461 27.6331 13.0802 27.7606 13.4143 27.7606C13.7484 27.7606 14.0826 27.6331 14.3374 27.3782L26.5222 15.1933C27.032 14.6836 27.032 13.857 26.5221 13.3472Z" fill="#787878"/>
<path d="M14.7198 12.9639C13.28 12.9639 12.1088 14.1352 12.1088 15.5749C12.1088 17.0146 13.2802 18.1859 14.7198 18.1859C16.1596 18.1859 17.3308 17.0145 17.3308 15.5749C17.3309 14.1352 16.1596 12.9639 14.7198 12.9639Z" fill="#787878"/>
<path d="M24.2935 22.5391C22.8538 22.5391 21.6825 23.7104 21.6825 25.1501C21.6825 26.5898 22.8538 27.7611 24.2935 27.7611C25.7332 27.7611 26.9045 26.5897 26.9045 25.1501C26.9046 23.7104 25.7333 22.5391 24.2935 22.5391Z" fill="#787878"/>
</g>
<defs>
<clipPath id="clip0">
<rect width="40" height="40" fill="white"/>
</clipPath>
</defs>
</svg>
