<svg width="37" height="37" viewBox="0 0 37 37" fill="none" xmlns="http://www.w3.org/2000/svg">
<path d="M36.4053 8.35286L32.6158 0.773909C32.5367 0.615702 32.415 0.482783 32.2643 0.390196C32.1136 0.297608 31.94 0.249049 31.7632 0.250014H5.23684C5.06079 0.249932 4.8882 0.298908 4.73843 0.391446C4.58866 0.483985 4.46764 0.616425 4.38895 0.773909L0.599474 8.35286C0.548172 8.48913 0.514736 8.63147 0.5 8.77633V35.3026C0.5 35.5539 0.599812 35.7949 0.777478 35.9725C0.955144 36.1502 1.19611 36.25 1.44737 36.25H35.5526C35.8039 36.25 36.0449 36.1502 36.2225 35.9725C36.4002 35.7949 36.5 35.5539 36.5 35.3026V8.77633C36.4868 8.63168 36.455 8.48934 36.4053 8.35286ZM34.0198 7.82896H23.0284L21.6074 2.14475H31.1758L34.0198 7.82896ZM15.6579 9.7237H21.3421V18.6119L18.9235 17.4021C18.792 17.3364 18.647 17.3022 18.5 17.3022C18.353 17.3022 18.208 17.3364 18.0765 17.4021L15.6579 18.6119V9.7237ZM19.6548 2.14475L21.0759 7.82896H15.9241L17.3452 2.14475H19.6548ZM5.82232 2.14475H15.3907L13.9697 7.82896H2.98021L5.82232 2.14475ZM34.6053 34.3553H2.39474V9.7237H13.7632V20.1447C13.7631 20.3063 13.8043 20.4651 13.8829 20.6062C13.9615 20.7473 14.0748 20.8659 14.2122 20.9509C14.3495 21.0358 14.5063 21.0843 14.6677 21.0916C14.829 21.0989 14.9895 21.0648 15.134 20.9926L18.5 19.3092L21.866 20.9974C22.0108 21.0698 22.1718 21.1038 22.3335 21.0963C22.4953 21.0888 22.6524 21.0399 22.7898 20.9544C22.9273 20.8689 23.0406 20.7496 23.1189 20.6078C23.1971 20.4661 23.2377 20.3067 23.2368 20.1447V9.7237H34.6053V34.3553Z" fill="#787878"/>
</svg>
