<svg width="40" height="40" viewBox="0 0 40 40" fill="none" xmlns="http://www.w3.org/2000/svg">
<path d="M35.7143 5.71484H4.28571C1.91878 5.71484 0 7.63362 0 10.0006V30.0005C0 32.3674 1.91878 34.2862 4.28571 34.2862H35.7143C38.0812 34.2862 40 32.3674 40 30.0005V10.0006C40 7.63362 38.0812 5.71484 35.7143 5.71484ZM37.1428 30.0005C37.1428 30.7895 36.5032 31.4291 35.7142 31.4291H4.28571C3.49671 31.4291 2.85711 30.7895 2.85711 30.0005V21.4291H37.1428V30.0005ZM37.1428 18.572H2.85711V15.7149H37.1428V18.572ZM37.1428 12.8577H2.85711V10.0006C2.85711 9.21155 3.49671 8.57196 4.28571 8.57196H35.7143C36.5033 8.57196 37.1429 9.21155 37.1429 10.0006V12.8577H37.1428Z" fill="#787878"/>
<path d="M32.8571 24.2861H27.1428C26.3538 24.2861 25.7142 24.9257 25.7142 25.7147C25.7142 26.5037 26.3538 27.1433 27.1428 27.1433H32.8571C33.6461 27.1433 34.2857 26.5037 34.2857 25.7147C34.2857 24.9257 33.6461 24.2861 32.8571 24.2861Z" fill="#787878"/>
</svg>
