<svg width="43" height="43" viewBox="0 0 43 43" fill="none" xmlns="http://www.w3.org/2000/svg">
<g clip-path="url(#clip0)">
<path d="M19.4827 21.3555C15.2312 21.3555 11.7724 24.8144 11.7724 29.066C11.7724 33.3189 15.2312 36.7788 19.4827 36.7788C23.7355 36.7788 27.1954 33.3188 27.1954 29.066C27.1954 24.8144 23.7354 21.3555 19.4827 21.3555ZM19.4827 35.0991C16.1574 35.0991 13.4521 32.3926 13.4521 29.066C13.4521 25.7406 16.1574 23.0352 19.4827 23.0352C22.8093 23.0352 25.5157 25.7405 25.5157 29.066C25.5157 32.3927 22.8093 35.0991 19.4827 35.0991Z" fill="#787878"/>
<path d="M21.8987 28.2268H20.3222V25.5908C20.3222 25.127 19.9461 24.751 19.4824 24.751C19.0186 24.751 18.6426 25.127 18.6426 25.5908V29.0666C18.6426 29.5304 19.0186 29.9064 19.4824 29.9064H21.8987C22.3624 29.9064 22.7385 29.5304 22.7385 29.0666C22.7385 28.6028 22.3625 28.2268 21.8987 28.2268Z" fill="#787878"/>
<path d="M40.5246 2.82227H16.959C15.5941 2.82227 14.4836 3.93271 14.4836 5.29771V19.1464C13.4823 19.653 12.5682 20.3074 11.7687 21.0798H8.36501C7.90125 21.0798 7.52517 21.4558 7.52517 21.9196C7.52517 22.3835 7.90125 22.7595 8.36501 22.7595H10.3427C9.93266 23.3517 9.57901 23.9855 9.28884 24.6532H5.29631C4.83254 24.6532 4.45646 25.0292 4.45646 25.493C4.45646 25.9569 4.83254 26.3329 5.29631 26.3329H8.71304C8.55742 26.9455 8.45328 27.5784 8.40457 28.2265H0.839844C0.376082 28.2265 0 28.6025 0 29.0664C0 29.5302 0.376082 29.9062 0.839844 29.9062H8.40415C8.45278 30.5544 8.5575 31.1871 8.71304 31.7999H5.29631C4.83254 31.7999 4.45646 32.1759 4.45646 32.6397C4.45646 33.1036 4.83254 33.4796 5.29631 33.4796H9.28724C9.57724 34.1473 9.9309 34.781 10.3406 35.3733H8.36501C7.90125 35.3733 7.52517 35.7493 7.52517 36.2131C7.52517 36.677 7.90125 37.053 8.36501 37.053H11.766C13.766 38.9869 16.4876 40.1788 19.4824 40.1788C24.8317 40.1788 29.31 36.3791 30.361 31.3369H40.5246C41.8896 31.3369 43 30.2265 43 28.8615V5.29771C43 3.93271 41.8896 2.82227 40.5246 2.82227ZM25.6905 4.50195H31.793V12.1166L29.2206 10.3246C28.932 10.1235 28.5488 10.1236 28.2602 10.3247L25.6904 12.1161V4.50195H25.6905ZM19.4824 38.4992C14.2826 38.4992 10.0523 34.2676 10.0523 29.0664C10.0523 23.8664 14.2826 19.6359 19.4824 19.6359C24.6836 19.6359 28.9149 23.8664 28.9149 29.0664C28.9149 34.2676 24.6835 38.4992 19.4824 38.4992ZM41.3203 28.8616C41.3203 29.3004 40.9634 29.6573 40.5246 29.6573H30.5789C30.5892 29.4616 30.5947 29.2646 30.5947 29.0664C30.5947 22.9402 25.6098 17.9563 19.4825 17.9563C18.3269 17.9563 17.212 18.1339 16.1634 18.4628V5.29771C16.1634 4.85897 16.5203 4.50195 16.959 4.50195H24.011V13.7253C24.011 14.0381 24.1848 14.3251 24.4622 14.4698C24.7395 14.6146 25.0743 14.5932 25.3311 14.4142L28.741 12.0373L32.1531 14.4144C32.2966 14.5144 32.4645 14.5651 32.6332 14.5651C32.7662 14.5651 32.8996 14.5336 33.0218 14.4698C33.2991 14.325 33.473 14.0381 33.473 13.7253V4.50195H40.5249C40.9636 4.50195 41.3206 4.85889 41.3206 5.29771V28.8616H41.3203Z" fill="#787878"/>
<path d="M3.49875 22.7598H4.92951C5.39327 22.7598 5.76936 22.3838 5.76936 21.9199C5.76936 21.4561 5.39327 21.0801 4.92951 21.0801H3.49875C3.03499 21.0801 2.65891 21.4561 2.65891 21.9199C2.65891 22.3838 3.03499 22.7598 3.49875 22.7598Z" fill="#787878"/>
<path d="M4.92951 35.373H3.49875C3.03499 35.373 2.65891 35.749 2.65891 36.2129C2.65891 36.6767 3.03499 37.0527 3.49875 37.0527H4.92951C5.39327 37.0527 5.76936 36.6767 5.76936 36.2129C5.76936 35.749 5.39336 35.373 4.92951 35.373Z" fill="#787878"/>
</g>
<defs>
<clipPath id="clip0">
<rect width="43" height="43" fill="white"/>
</clipPath>
</defs>
</svg>
