<svg width="40" height="40" viewBox="0 0 40 40" fill="none" xmlns="http://www.w3.org/2000/svg">
<path d="M28.5938 4.76898H23.5156V1.17584C23.5156 0.52887 22.9916 0.00427246 22.3447 0.00396728L17.7344 0C17.0868 0 16.5625 0.525818 16.5625 1.17188V4.76898H11.4062C9.03687 4.76898 7.10938 6.69647 7.10938 9.06555V35.7034C7.10938 38.0725 9.03687 40 11.4062 40H28.5938C30.9631 40 32.8906 38.0725 32.8906 35.7034V9.06555C32.8906 6.69647 30.9631 4.76898 28.5938 4.76898ZM18.9062 2.34467L21.1719 2.3465V7.11243H18.9062V2.34467ZM30.5469 35.7034C30.5469 36.7801 29.6707 37.6562 28.5938 37.6562H11.4062C10.3293 37.6562 9.45312 36.7801 9.45312 35.7034V9.06555C9.45312 7.98889 10.3293 7.11273 11.4062 7.11273H16.5625V8.2843C16.5625 8.93158 17.0871 9.45618 17.7344 9.45618H22.3438C22.991 9.45618 23.5156 8.93158 23.5156 8.2843V7.11273H28.5938C29.6707 7.11273 30.5469 7.98859 30.5469 9.06555V35.7034Z" fill="#787878"/>
<path d="M27.0312 28.2031H12.9688C12.3215 28.2031 11.7969 28.7277 11.7969 29.375C11.7969 30.0223 12.3215 30.5469 12.9688 30.5469H27.0312C27.6785 30.5469 28.2031 30.0223 28.2031 29.375C28.2031 28.7277 27.6785 28.2031 27.0312 28.2031Z" fill="#787878"/>
<path d="M17.6562 32.8906H12.9688C12.3215 32.8906 11.7969 33.4152 11.7969 34.0625C11.7969 34.7095 12.3215 35.2344 12.9688 35.2344H17.6562C18.3035 35.2344 18.8281 34.7095 18.8281 34.0625C18.8281 33.4152 18.3035 32.8906 17.6562 32.8906Z" fill="#787878"/>
<path d="M27.0312 32.8906H22.3438C21.6965 32.8906 21.1719 33.4152 21.1719 34.0625C21.1719 34.7095 21.6965 35.2344 22.3438 35.2344H27.0312C27.6785 35.2344 28.2031 34.7095 28.2031 34.0625C28.2031 33.4152 27.6785 32.8906 27.0312 32.8906Z" fill="#787878"/>
<path d="M15.3125 25.8604H24.6875C25.3348 25.8604 25.8594 25.3355 25.8594 24.6885V22.3448C25.8594 20.1875 24.697 18.2902 22.9224 17.2661C24.4775 14.9455 22.8085 11.7988 20 11.7988C17.1899 11.7988 15.5161 14.9516 17.0837 17.2752C15.2444 18.3531 14.1406 20.3428 14.1406 22.4226V24.6885C14.1406 25.3355 14.6652 25.8604 15.3125 25.8604ZM20 14.1426C20.6461 14.1426 21.1719 14.6684 21.1719 15.3145C21.1719 15.9605 20.6461 16.486 20 16.486C19.3539 16.486 18.8281 15.9605 18.8281 15.3145C18.8281 14.6684 19.3539 14.1426 20 14.1426ZM16.4844 22.4226C16.4844 20.4323 18.0936 18.7916 20.072 18.8304C21.9708 18.8685 23.5156 20.4451 23.5156 22.3448V23.5167H16.4844V22.4226Z" fill="#787878"/>
</svg>
