<svg width="40" height="40" viewBox="0 0 40 40" fill="none" xmlns="http://www.w3.org/2000/svg">
<path d="M38.7433 14.8124C37.2616 13.5691 35.0446 13.7637 33.8036 15.2426L30.468 19.1897V7.74406C30.468 6.78476 30.0691 5.85578 29.3737 5.19523L24.9223 0.966719C24.2661 0.343359 23.4062 0 22.5012 0H3.51555C1.57711 0 0 1.57711 0 3.51555V36.4836C0 38.422 1.57711 39.9991 3.51555 39.9991H26.9526C28.891 39.9991 30.4681 38.422 30.4681 36.4836V30.0804C30.6121 29.9098 39.1497 19.797 39.1766 19.7652C40.4255 18.2768 40.2319 16.0615 38.7433 14.8124ZM23.437 2.78828C28.1255 7.24203 27.7926 6.91648 27.8805 7.03117H23.437V2.78828ZM28.1244 36.4836C28.1244 37.1298 27.5987 37.6555 26.9525 37.6555H3.51555C2.86937 37.6555 2.34367 37.1298 2.34367 36.4836V3.51555C2.34367 2.86937 2.86937 2.34367 3.51555 2.34367H21.0933V8.20289C21.0933 8.85008 21.618 9.37476 22.2652 9.37476H28.1244V21.963C27.621 22.5586 23.5792 27.3413 23.1423 27.8583C22.7934 28.2742 22.5422 28.7732 22.4161 29.3012L21.327 33.8603C21.224 34.292 21.3736 34.745 21.7136 35.0303C22.0539 35.3159 22.526 35.3841 22.9329 35.2078L27.2337 33.3436C27.5566 33.2036 27.8577 33.0134 28.1244 32.7849V36.4836ZM25.3371 28.8923L27.1323 30.3986L26.733 30.8714C26.6169 31.01 26.4676 31.1213 26.3016 31.1933L24.1512 32.1254L24.6959 29.8459C24.7379 29.6698 24.8216 29.5035 24.9352 29.368L25.3371 28.8923ZM28.6441 28.6077L26.8498 27.1022C27.0318 26.8868 32.9199 19.9191 33.3271 19.4373L35.1177 20.9398L28.6441 28.6077ZM37.3835 18.256L36.6297 19.149L34.84 17.6473L35.5964 16.7522C36.0096 16.2598 36.7456 16.1955 37.2368 16.6077C37.7377 17.028 37.793 17.768 37.3835 18.256Z" fill="#787878"/>
<path d="M17.5778 7.03125H5.85925C5.21207 7.03125 4.68738 7.55594 4.68738 8.20312C4.68738 8.85031 5.21207 9.375 5.85925 9.375H17.5778C18.225 9.375 18.7496 8.85031 18.7496 8.20312C18.7496 7.55594 18.225 7.03125 17.5778 7.03125Z" fill="#787878"/>
<path d="M24.6089 14.1406H5.85925C5.21207 14.1406 4.68738 14.6653 4.68738 15.3125C4.68738 15.9597 5.21207 16.4844 5.85925 16.4844H24.6089C25.2561 16.4844 25.7807 15.9597 25.7807 15.3125C25.7807 14.6653 25.2561 14.1406 24.6089 14.1406Z" fill="#787878"/>
<path d="M24.6089 21.1719H5.85925C5.21207 21.1719 4.68738 21.6966 4.68738 22.3438C4.68738 22.9909 5.21207 23.5156 5.85925 23.5156H24.6089C25.2561 23.5156 25.7807 22.9909 25.7807 22.3438C25.7807 21.6965 25.2561 21.1719 24.6089 21.1719Z" fill="#787878"/>
<path d="M17.5778 28.2031H5.85925C5.21207 28.2031 4.68738 28.7278 4.68738 29.375C4.68738 30.0222 5.21207 30.5469 5.85925 30.5469H17.5778C18.225 30.5469 18.7496 30.0222 18.7496 29.375C18.7496 28.7278 18.225 28.2031 17.5778 28.2031Z" fill="#787878"/>
</svg>
