<svg width="40" height="40" viewBox="0 0 40 40" fill="none" xmlns="http://www.w3.org/2000/svg">
<g clip-path="url(#clip0)">
<path d="M4.82546 37.5431C4.0658 37.5431 3.32901 37.421 2.63392 37.1805L1.05103 36.6329L2.26731 35.4812C3.87715 33.9568 4.28343 32.1984 4.30987 30.8815C1.52747 27.7965 2.16118e-08 23.9479 2.16118e-08 20.0005C-0.000508457 10.3277 8.9716 2.45801 19.9995 2.45801C31.0274 2.45801 40 10.3277 40 20.0005C40 29.6728 31.0274 37.542 19.9995 37.542C16.7162 37.542 13.4772 36.8307 10.5906 35.4791C9.50296 36.2495 7.30582 37.5431 4.82546 37.5431ZM10.3521 33.0913L10.9359 33.3867C13.6801 34.7744 16.8144 35.5086 19.999 35.5086C29.9057 35.5086 37.9656 28.5516 37.9656 20.001C37.9656 11.4494 29.9057 4.49243 19.999 4.49243C10.0923 4.49243 2.0329 11.4494 2.0329 20.0005C2.0329 23.5543 3.46376 27.0287 6.06259 29.7832L6.327 30.0633L6.33921 30.4482C6.38395 31.8308 6.13581 33.7056 4.90682 35.5081C7.26209 35.4705 9.4272 33.8312 9.8411 33.5001L10.3521 33.0913Z" fill="#787878"/>
<path d="M10.2986 24.7985C9.55269 24.7985 8.94709 24.74 8.47929 24.6226C8.01251 24.5061 7.68962 24.3861 7.51216 24.2641C7.46742 24.2193 7.45064 24.1171 7.46132 23.9554C7.47199 23.7953 7.49742 23.6275 7.53657 23.4556C7.57522 23.2837 7.62556 23.1292 7.68657 22.9975C7.74759 22.8643 7.80556 22.8022 7.862 22.8139C8.15132 22.9141 8.46556 23.0117 8.80472 23.1058C9.14387 23.1998 9.57506 23.2471 10.0978 23.2471C10.6322 23.2471 11.0847 23.1704 11.4585 23.0137C11.8307 22.8576 12.0178 22.5795 12.0178 22.1793C12.0178 21.8331 11.8947 21.5529 11.6502 21.3363C11.4056 21.1197 10.9658 20.8883 10.3317 20.6447C9.98642 20.51 9.66151 20.363 9.3554 20.2014C9.04879 20.0407 8.7798 19.851 8.5459 19.6339C8.312 19.4173 8.12895 19.1585 7.99522 18.8585C7.86149 18.5585 7.79437 18.202 7.79437 17.7901C7.79437 17.4566 7.85895 17.1393 7.98658 16.8388C8.1142 16.5383 8.312 16.2795 8.57895 16.0628C8.8459 15.8462 9.18811 15.6733 9.60557 15.5457C10.023 15.4176 10.5208 15.3535 11.0995 15.3535C11.4773 15.3535 11.792 15.3622 12.0422 15.3784C12.2924 15.3952 12.4978 15.4176 12.66 15.4456C12.8207 15.4735 12.9519 15.504 13.052 15.5376C13.1522 15.5711 13.2468 15.5986 13.3358 15.621C13.4136 15.654 13.4527 15.7517 13.4527 15.9128C13.4527 16.074 13.4298 16.2464 13.3856 16.4305C13.3414 16.6135 13.2798 16.7752 13.2026 16.914C13.1242 17.0534 13.0464 17.1118 12.9687 17.0895C12.7795 17.034 12.5207 16.973 12.1927 16.9064C11.8642 16.8393 11.5449 16.8062 11.2332 16.8062C10.5986 16.8062 10.1624 16.8957 9.92337 17.0732C9.68388 17.2512 9.56439 17.4901 9.56439 17.7907C9.56439 18.1135 9.69812 18.3724 9.96507 18.5666C10.232 18.7608 10.6495 18.9586 11.2164 19.159C12.1175 19.5149 12.7825 19.9237 13.2107 20.3854C13.6388 20.8471 13.8534 21.4283 13.8534 22.1295C13.8534 22.6527 13.7532 23.087 13.5534 23.4322C13.3526 23.777 13.0856 24.05 12.752 24.2488C12.4185 24.4502 12.0371 24.5916 11.609 24.6749C11.1803 24.7568 10.7435 24.7985 10.2986 24.7985Z" fill="#787878"/>
<path d="M22.3307 24.7151C22.0973 24.7151 21.9443 24.6765 21.8726 24.5982C21.7994 24.5209 21.7643 24.3709 21.7643 24.1472V18.3063C21.3194 19.0293 20.9761 19.5881 20.7366 19.9832C20.4966 20.3788 20.3232 20.6681 20.2114 20.8517C20.1 21.0342 20.0329 21.1436 20.01 21.1766C19.9882 21.2102 19.978 21.2331 19.978 21.2443C19.8783 21.411 19.8082 21.5193 19.7695 21.5697C19.7298 21.621 19.649 21.6444 19.527 21.6444H19.26C19.1156 21.6444 19.0205 21.6195 18.9763 21.5697C18.932 21.5193 18.8649 21.411 18.7759 21.2443L17.0736 18.3408V24.2489C17.0736 24.3938 17.0486 24.5082 16.9983 24.5916C16.9485 24.675 16.8178 24.7167 16.6063 24.7167H15.9061C15.75 24.7167 15.6142 24.6917 15.4968 24.6414C15.3803 24.5916 15.3213 24.4278 15.3213 24.1487V16.1376C15.3213 15.9149 15.363 15.7674 15.4464 15.6952C15.5298 15.623 15.6493 15.5869 15.8054 15.5869H16.6398C16.7619 15.5869 16.8651 15.6032 16.9485 15.6367C17.0319 15.6703 17.1178 15.7537 17.2073 15.8869L19.4263 19.4249L21.6458 15.9205C21.7129 15.7979 21.7927 15.712 21.8888 15.6617C21.9839 15.6113 22.0744 15.5869 22.1639 15.5869H23.0822C23.2938 15.5869 23.4153 15.6312 23.4499 15.7201C23.4834 15.8096 23.4997 15.954 23.4997 16.1544V24.2305C23.4997 24.3973 23.4778 24.5204 23.4331 24.5987C23.3883 24.677 23.2602 24.7151 23.0497 24.7151H22.3307Z" fill="#787878"/>
<path d="M27.889 24.7985C27.1425 24.7985 26.5374 24.74 26.0696 24.6226C25.6028 24.5061 25.2794 24.3861 25.1025 24.2641C25.0577 24.2193 25.041 24.1171 25.0516 23.9554C25.0623 23.7953 25.0867 23.6275 25.1264 23.4556C25.165 23.2837 25.2149 23.1292 25.2764 22.9975C25.3369 22.8637 25.3949 22.8022 25.4518 22.8139C25.7411 22.9141 26.0559 23.0117 26.3945 23.1058C26.7332 23.2004 27.1644 23.2471 27.6876 23.2471C28.222 23.2471 28.6741 23.1704 29.0483 23.0137C29.42 22.8576 29.6081 22.5795 29.6081 22.1793C29.6081 21.8331 29.4851 21.5529 29.24 21.3363C28.9949 21.1197 28.5556 20.8883 27.921 20.6447C27.5757 20.51 27.2513 20.363 26.9447 20.2014C26.6381 20.0407 26.3691 19.851 26.1347 19.6339C25.9013 19.4173 25.7183 19.1585 25.5845 18.8585C25.4503 18.5579 25.3837 18.202 25.3837 17.7901C25.3837 17.4566 25.4483 17.1393 25.5754 16.8388C25.7035 16.5383 25.9013 16.2795 26.1683 16.0628C26.4352 15.8462 26.7769 15.6733 27.1944 15.5457C27.6123 15.4176 28.1107 15.3535 28.6883 15.3535C29.0666 15.3535 29.3813 15.3622 29.631 15.3784C29.8812 15.3952 30.0866 15.4176 30.2493 15.4456C30.4095 15.4735 30.5407 15.504 30.6414 15.5376C30.741 15.5706 30.8361 15.5986 30.9256 15.621C31.0029 15.654 31.042 15.7517 31.042 15.9128C31.042 16.074 31.0192 16.2464 30.9744 16.4305C30.9307 16.6135 30.8692 16.7752 30.7924 16.914C30.7141 17.0534 30.6358 17.1118 30.558 17.0895C30.3693 17.034 30.1095 16.973 29.7825 16.9064C29.4541 16.8393 29.1342 16.8062 28.823 16.8062C28.1885 16.8062 27.7517 16.8957 27.5132 17.0732C27.2737 17.2512 27.1537 17.4901 27.1537 17.7907C27.1537 18.1135 27.2879 18.3724 27.5549 18.5666C27.8213 18.7608 28.2393 18.9586 28.8063 19.159C29.7068 19.5149 30.3724 19.9237 30.8005 20.3854C31.2287 20.8471 31.4432 21.4283 31.4432 22.1295C31.4432 22.6527 31.3431 23.087 31.1432 23.4322C30.9424 23.777 30.6754 24.05 30.3419 24.2488C30.0083 24.4502 29.6269 24.5916 29.1988 24.6749C28.7691 24.7568 28.3339 24.7985 27.889 24.7985Z" fill="#787878"/>
</g>
<defs>
<clipPath id="clip0">
<rect width="40" height="40" fill="white"/>
</clipPath>
</defs>
</svg>
