<svg width="40" height="40" viewBox="0 0 40 40" fill="none" xmlns="http://www.w3.org/2000/svg">
<path d="M36.4844 4.76562H3.51562C1.57953 4.76562 0 6.34344 0 8.28125V31.7188C0 33.65 1.5725 35.2344 3.51562 35.2344H36.4844C38.4156 35.2344 40 33.6619 40 31.7188V8.28125C40 6.35 38.4275 4.76562 36.4844 4.76562ZM35.9989 7.10938L20.0745 23.0338L4.01242 7.10938H35.9989ZM2.34375 31.2334V8.75539L13.6312 19.946L2.34375 31.2334ZM4.00102 32.8906L15.2955 21.5961L19.2531 25.5197C19.7113 25.9739 20.4505 25.9724 20.9068 25.5161L24.7656 21.6573L35.999 32.8906H4.00102ZM37.6562 31.2334L26.4229 20L37.6562 8.76656V31.2334Z" fill="#787878"/>
</svg>
