<svg width="20" height="20" viewBox="0 0 20 20" fill="none" xmlns="http://www.w3.org/2000/svg">
<path d="M19.3716 7.40621C18.6308 6.78457 17.5223 6.88183 16.9018 7.62129L15.234 9.59484V3.87203C15.234 3.39238 15.0346 2.92789 14.6868 2.59762L12.4611 0.483359C12.133 0.17168 11.7031 0 11.2506 0H1.75777C0.788555 0 0 0.788555 0 1.75777V18.2418C0 19.211 0.788555 19.9996 1.75777 19.9996H13.4763C14.4455 19.9996 15.2341 19.211 15.2341 18.2418V15.0402C15.3061 14.9549 19.5748 9.89851 19.5883 9.88262C20.2128 9.1384 20.116 8.03074 19.3716 7.40621ZM11.7185 1.39414C14.0628 3.62102 13.8963 3.45824 13.9402 3.51559H11.7185V1.39414ZM14.0622 18.2418C14.0622 18.5649 13.7993 18.8277 13.4762 18.8277H1.75777C1.43469 18.8277 1.17184 18.5649 1.17184 18.2418V1.75777C1.17184 1.43469 1.43469 1.17184 1.75777 1.17184H10.5466V4.10145C10.5466 4.42504 10.809 4.68738 11.1326 4.68738H14.0622V10.9815C13.8105 11.2793 11.7896 13.6707 11.5712 13.9291C11.3967 14.1371 11.2711 14.3866 11.208 14.6506L10.6635 16.9302C10.612 17.146 10.6868 17.3725 10.8568 17.5152C11.027 17.658 11.263 17.6921 11.4664 17.6039L13.6168 16.6718C13.7783 16.6018 13.9289 16.5067 14.0622 16.3925V18.2418ZM12.6686 14.4462L13.5661 15.1993L13.3665 15.4357C13.3084 15.505 13.2338 15.5607 13.1508 15.5966L12.0756 16.0627L12.3479 14.9229C12.3689 14.8349 12.4108 14.7518 12.4676 14.684L12.6686 14.4462ZM14.322 14.3039L13.4249 13.5511C13.5159 13.4434 16.46 9.95957 16.6636 9.71867L17.5588 10.4699L14.322 14.3039ZM18.6918 9.12801L18.3148 9.57449L17.42 8.82363L17.7982 8.37609C18.0048 8.12988 18.3728 8.09777 18.6184 8.30387C18.8689 8.51398 18.8965 8.88402 18.6918 9.12801Z" fill="white"/>
<path d="M8.78888 3.51562H2.92963C2.60603 3.51562 2.34369 3.77797 2.34369 4.10156C2.34369 4.42516 2.60603 4.6875 2.92963 4.6875H8.78888C9.11248 4.6875 9.37482 4.42516 9.37482 4.10156C9.37482 3.77797 9.11248 3.51562 8.78888 3.51562Z" fill="white"/>
<path d="M12.3044 7.07031H2.92963C2.60603 7.07031 2.34369 7.33266 2.34369 7.65625C2.34369 7.97984 2.60603 8.24219 2.92963 8.24219H12.3044C12.628 8.24219 12.8904 7.97984 12.8904 7.65625C12.8904 7.33266 12.628 7.07031 12.3044 7.07031Z" fill="white"/>
<path d="M12.3044 10.5859H2.92963C2.60603 10.5859 2.34369 10.8483 2.34369 11.1719C2.34369 11.4955 2.60603 11.7578 2.92963 11.7578H12.3044C12.628 11.7578 12.8904 11.4955 12.8904 11.1719C12.8904 10.8482 12.628 10.5859 12.3044 10.5859Z" fill="white"/>
<path d="M8.78888 14.1016H2.92963C2.60603 14.1016 2.34369 14.3639 2.34369 14.6875C2.34369 15.0111 2.60603 15.2734 2.92963 15.2734H8.78888C9.11248 15.2734 9.37482 15.0111 9.37482 14.6875C9.37482 14.3639 9.11248 14.1016 8.78888 14.1016Z" fill="white"/>
</svg>
