<svg width="40" height="40" viewBox="0 0 40 40" fill="none" xmlns="http://www.w3.org/2000/svg">
<g clip-path="url(#clip0)">
<path d="M22.9035 4.27539H12.2955C11.9351 4.27539 11.6402 4.57028 11.6402 4.93071C11.6402 5.29113 11.9351 5.58602 12.2955 5.58602H22.9035C23.2639 5.58602 23.5588 5.29113 23.5588 4.93071C23.5588 4.57028 23.2639 4.27539 22.9035 4.27539Z" fill="#787878"/>
<path d="M26.131 1.69531C25.7706 1.69531 25.4757 1.99021 25.4757 2.35063V7.45392C25.4757 7.81434 25.7706 8.10923 26.131 8.10923C26.4914 8.10923 26.7863 7.81434 26.7863 7.45392V2.35063C26.7863 1.99021 26.4914 1.69531 26.131 1.69531Z" fill="#787878"/>
<path d="M9.17467 1.69531C8.81424 1.69531 8.51935 1.99021 8.51935 2.35063V7.45392C8.51935 7.81434 8.81424 8.10923 9.17467 8.10923C9.53509 8.10923 9.82998 7.81434 9.82998 7.45392V2.35063C9.82998 1.99021 9.53509 1.69531 9.17467 1.69531Z" fill="#787878"/>
<path d="M30.415 12.3037H4.88222C4.52179 12.3037 4.2269 12.5986 4.2269 12.959C4.2269 13.3195 4.52179 13.6143 4.88222 13.6143H30.4068C30.7754 13.6143 31.0703 13.3195 31.0703 12.959C31.0703 12.5986 30.7754 12.3037 30.415 12.3037Z" fill="#787878"/>
<path d="M24.4517 17.4639H4.88222C4.52179 17.4639 4.2269 17.7588 4.2269 18.1192C4.2269 18.4796 4.52179 18.7745 4.88222 18.7745H24.4517C24.8203 18.7745 25.107 18.4796 25.107 18.1192C25.107 17.7588 24.8121 17.4639 24.4517 17.4639Z" fill="#787878"/>
<path d="M15.9407 22.543H4.88222C4.52179 22.543 4.2269 22.8379 4.2269 23.1983C4.2269 23.5587 4.52179 23.8536 4.88222 23.8536H15.9407C16.3011 23.8536 16.596 23.5587 16.596 23.1983C16.596 22.8379 16.3011 22.543 15.9407 22.543Z" fill="#787878"/>
<path d="M39.0159 25.5498C38.1803 23.9607 36.8943 22.6664 35.3051 21.8391V4.89911C35.3133 4.56326 35.0348 4.27656 34.699 4.27656C34.6908 4.27656 34.6744 4.27656 34.6662 4.27656H28.711C28.3506 4.27656 28.0557 4.57145 28.0557 4.93188C28.0557 5.2923 28.3506 5.58719 28.711 5.58719H33.9945V21.282C33.1098 20.9872 32.1842 20.8315 31.2504 20.8397C26.4338 20.8397 22.5182 24.7388 22.5182 29.5636C22.5182 30.4893 22.6657 31.4149 22.9688 32.2914H1.31054V5.58719H5.73393C6.09436 5.58719 6.38925 5.2923 6.38925 4.93188C6.38925 4.57145 6.09436 4.27656 5.73393 4.27656H0.630648C0.294798 4.26837 0.0162885 4.5223 -9.44747e-05 4.85815C-9.44747e-05 4.87454 -9.44747e-05 4.88273 -9.44747e-05 4.89911V32.9795C-0.00828594 33.3153 0.253841 33.5938 0.589691 33.602C0.606074 33.602 0.614266 33.602 0.630648 33.602H23.5258C25.7457 37.878 31.021 39.5408 35.2969 37.3209C39.5729 35.1011 41.2357 29.8257 39.0159 25.5498ZM31.2585 37.0097C27.1546 37.0097 23.8289 33.6839 23.8289 29.58C23.8289 25.4761 27.1546 22.1503 31.2585 22.1503C35.3625 22.1503 38.6882 25.4761 38.6882 29.58C38.6882 33.6757 35.3625 37.0015 31.2585 37.0097Z" fill="#787878"/>
<path d="M35.9444 32.5361H35.3055V29.366C35.33 27.3837 33.9047 25.6881 31.947 25.3604V24.2627C31.947 23.9023 31.6521 23.6074 31.2916 23.6074C30.9312 23.6074 30.6363 23.9023 30.6363 24.2627V25.3604C28.6622 25.6635 27.2041 27.3673 27.1959 29.366V32.5361H26.5816C26.2211 32.5361 25.9262 32.831 25.9262 33.1914C25.9262 33.5519 26.2211 33.8468 26.5816 33.8468H30.6363V34.8953C30.6363 35.2557 30.9312 35.5506 31.2916 35.5506C31.6521 35.5506 31.947 35.2557 31.947 34.8953V33.8468H35.9444C36.3048 33.8468 36.5997 33.5519 36.5997 33.1914C36.5997 32.831 36.3048 32.5361 35.9444 32.5361ZM33.9948 32.5361H28.5065V29.366C28.5065 27.8506 29.7353 26.6219 31.2507 26.6219C32.7661 26.6219 33.9948 27.8506 33.9948 29.366V32.5361Z" fill="#787878"/>
</g>
<defs>
<clipPath id="clip0">
<rect width="40" height="40" fill="white"/>
</clipPath>
</defs>
</svg>
