<svg width="34" height="40" viewBox="0 0 34 40" fill="none" xmlns="http://www.w3.org/2000/svg">
<path d="M31.6012 10.882L33.8469 10.2113C32.5921 6.00937 29.8225 2.44258 26.0483 0.167969L24.8385 2.17539C28.112 4.14812 30.5137 7.24024 31.6012 10.882Z" fill="#787878"/>
<path d="M9.16144 2.17531L7.95167 0.167969C4.17738 2.44258 1.40777 6.00937 0.152924 10.2113L2.39863 10.882C3.4862 7.24024 5.88792 4.14813 9.16144 2.17531Z" fill="#787878"/>
<path d="M4.10938 15.2344V27.7959C4.10938 28.5516 3.81508 29.262 3.28078 29.7963C2.30375 30.7734 1.76562 32.0724 1.76562 33.4541V35.3125H11.2585C11.8029 37.9837 14.1703 40 17 40C19.8297 40 22.197 37.9837 22.7415 35.3125H32.2344V33.4541C32.2344 32.0723 31.6962 30.7734 30.7192 29.7963C30.1848 29.262 29.8906 28.5516 29.8906 27.7959V15.2344C29.8906 8.52156 24.7326 2.99172 18.1719 2.39758V0H15.8281V2.39758C9.26742 2.99164 4.10938 8.52148 4.10938 15.2344ZM17 37.6562C15.4723 37.6562 14.1697 36.6765 13.6859 35.3117H20.314C19.8303 36.6765 18.5277 37.6562 17 37.6562ZM27.5469 15.2344V27.7959C27.5469 29.1777 28.085 30.4766 29.062 31.4537C29.4802 31.8718 29.7512 32.3977 29.8495 32.9688H4.15062C4.24875 32.3977 4.51992 31.8717 4.93805 31.4537C5.915 30.4766 6.45312 29.1776 6.45312 27.7959V15.2344C6.45312 9.41883 11.1845 4.6875 17 4.6875C22.8155 4.6875 27.5469 9.41883 27.5469 15.2344Z" fill="#787878"/>
</svg>
