<svg width="40" height="40" xmlns="http://www.w3.org/2000/svg">

 <g>
  <title>background</title>
  <rect fill="none" id="canvas_background" height="42" width="42" y="-1" x="-1"/>
 </g>
 <g>
  <title>Layer 1</title>
  <path stroke="#787878" fill-rule="nonzero" fill="#787878" id="svg_1" d="m13.653618,26.969448c1.913142,1.062024 3.28918,2.9133 3.735829,5.056563l8.524777,0l0,-14.915197l0,-9.258727c0,-0.53523 0.433995,-0.969225 0.969225,-0.969225l5.057969,0c0.43587,-1.628186 1.916892,-2.767073 3.608818,-2.767073c2.063119,0 3.736298,1.673179 3.736298,3.736298c0,2.063119 -1.673179,3.735829 -3.736298,3.735829c-1.691926,0 -3.172948,-1.138418 -3.608818,-2.767073l-4.089212,0l0,7.320745l4.089212,0c0.43587,-1.628186 1.916892,-2.767073 3.608818,-2.767073c2.063119,0 3.736298,1.673179 3.736298,3.736298c0,2.063119 -1.673179,3.736298 -3.736298,3.736298c-1.691926,0 -3.172948,-1.138887 -3.608818,-2.767541l-4.089212,0l0,7.58836l4.089212,0c0.43587,-1.628655 1.916892,-2.767073 3.608818,-2.767073c2.063119,0 3.736298,1.673179 3.736298,3.736298c0,2.063119 -1.673179,3.735829 -3.736298,3.735829c-1.691926,0 -3.172948,-1.138418 -3.608818,-2.767073l-4.089212,0l0,5.388855c0,0.53523 -0.433995,0.969225 -0.968757,0.969225l-9.336996,0l0,1.38916c0,0.53523 -0.433995,0.969225 -0.969225,0.969225l-15.078297,0c-0.53523,0 -0.968757,-0.433995 -0.968757,-0.969225l0,-1.803003c0,-2.738952 1.505861,-5.255282 3.892368,-6.580703c-0.456023,-0.796752 -0.696455,-1.700831 -0.696455,-2.619908l0,-1.83956c0,-3.117644 2.280585,-5.278247 5.311992,-5.278247c3.031407,0 5.312461,2.160604 5.312461,5.278247l0,1.83956c0,0.912515 -0.243712,1.82878 -0.696924,2.619908zm21.896619,-2.130609c-0.993128,0 -1.797847,0.805188 -1.797847,1.798316c0,0.993128 0.804719,1.797847 1.797847,1.797847c0.993128,0 1.797847,-0.804719 1.797847,-1.797847c0,-0.993128 -0.804719,-1.798316 -1.797847,-1.798316zm0,-9.525873c-0.993128,0 -1.797847,0.804719 -1.797847,1.797847c0,0.993128 0.804719,1.798316 1.797847,1.798316c0.993128,0 1.797847,-0.805188 1.797847,-1.798316c0,-0.993128 -0.804719,-1.797847 -1.797847,-1.797847zm0,-9.259195c-0.993128,0 -1.797847,0.805188 -1.797847,1.798316c0,0.992659 0.804719,1.797847 1.797847,1.797847c0.993128,0 1.797847,-0.805188 1.797847,-1.797847c0,-0.993128 -0.804719,-1.798316 -1.797847,-1.798316zm-23.678531,22.224225c-0.673958,-0.213248 -0.904548,-1.07046 -0.404,-1.591161c0.608344,-0.631777 0.944854,-1.460399 0.944854,-2.337295l0,-1.83956c0,-2.024687 -1.416344,-3.340265 -3.374479,-3.340265c-1.958135,0 -3.37401,1.315578 -3.37401,3.340265l0,1.83956c0,0.874552 0.337917,1.707393 0.944385,2.337295c0.481801,0.501485 0.292455,1.348386 -0.378692,1.582256c-2.242622,0.781754 -3.761607,2.904395 -3.761607,5.28106l0,0.834246l13.140315,0c0,-0.434464 0.016404,-0.888613 -0.02109,-1.320265c-0.189346,-2.177945 -1.654432,-4.056405 -3.715676,-4.786136z" class="fil0"/>
 </g>
</svg>