<svg width="40" height="40" xmlns="http://www.w3.org/2000/svg">

 <title/>
 <g>
  <title>background</title>
  <rect fill="none" id="canvas_background" height="42" width="42" y="-1" x="-1"/>
 </g>
 <g>
  <title>Layer 1</title>
  <path stroke="#787878" fill="#787878" id="svg_1" d="m19.521586,28.201534a6.553709,6.287928 0 1 1 6.553709,-6.287928a6.553709,6.287928 0 0 1 -6.553709,6.287928zm0,-10.479881a4.369139,4.191952 0 1 0 4.369139,4.191952a4.369139,4.191952 0 0 0 -4.369139,-4.191952z" class="cls-1"/>
  <path stroke="#787878" fill="#787878" id="svg_2" d="m25.404064,37.77739l-11.278971,0a4.511589,4.216181 0 0 1 -4.511589,-4.216181l0,-2.687816a1.127897,1.054045 0 0 1 0.710575,-0.969722l4.105546,-1.538906a1.127897,1.054045 0 1 1 0.823365,1.960524l-3.383691,1.264854l0,1.971065a2.255794,2.108091 0 0 0 2.255794,2.108091l11.278971,0a2.255794,2.108091 0 0 0 2.255794,-2.108091l0,-1.971065l-3.383691,-1.264854a1.127897,1.054045 0 0 1 0.834644,-1.960524l4.105546,1.538906a1.127897,1.054045 0 0 1 0.710575,0.969722l0,2.687816a4.511589,4.216181 0 0 1 -4.522868,4.216181z" class="cls-1"/>
  <path stroke="#787878" fill="#787878" id="svg_3" d="m12.012174,15.208184a5.310077,5.310077 0 1 1 5.310077,-5.310077a5.310077,5.310077 0 0 1 -5.310077,5.310077zm0,-8.496123a3.186046,3.186046 0 1 0 3.186046,3.186046a3.186046,3.186046 0 0 0 -3.186046,-3.186046z" class="cls-1"/>
  <path stroke="#787878" fill="#787878" id="svg_4" d="m10.342183,24.306953l-3.1495,0a4.19934,4.19934 0 0 1 -4.19933,-4.19933l0,-1.83721a1.04983,1.04983 0 0 1 0.66139,-0.97634l3.34897,-1.3123a1.04983,1.04983 0 0 1 1.35429,0.56691a1.04983,1.04983 0 0 1 -0.58791,1.36479l-2.67708,1.07083l0,1.12332a2.09967,2.09967 0 0 0 2.09967,2.09967l3.1495,0a1.04983,1.04983 0 0 1 0,2.09966z" class="cls-1"/>
  <path stroke="#787878" transform="rotate(-0.8142620921134949 27.793344497680476,9.858001708984359) " fill="#787878" id="svg_5" d="m27.793343,15.121643a5.28696,5.26364 0 1 1 5.28696,-5.26364a5.28696,5.26364 0 0 1 -5.28696,5.26364zm0,-8.42183a3.17217,3.15818 0 1 0 3.17217,3.15819a3.17217,3.15818 0 0 0 -3.17217,-3.15819z" class="cls-1"/>
  <path transform="rotate(-0.8142620921134949 27.995098114013484,9.607407569885257) " stroke="#787878" fill="#787878" id="svg_6" d="m31.961227,24.617862l-3.39867,0a1.13289,1.13289 0 0 1 0,-2.26578l3.39867,0a2.26578,2.26578 0 0 0 2.26578,-2.26578l0,-1.212192l-2.888869,-1.13289a1.13289,1.13289 0 0 1 -0.634418,-1.472757a1.13289,1.13289 0 0 1 1.461428,-0.645747l3.613919,1.416112a1.13289,1.13289 0 0 1 0.713721,1.053588l0,1.982557a4.531559,4.531559 0 0 1 -4.531559,4.542888z" class="cls-1"/>
 </g>
</svg>