<svg width="40" height="40" xmlns="http://www.w3.org/2000/svg">

 <g>
  <title>background</title>
  <rect fill="none" id="canvas_background" height="42" width="42" y="-1" x="-1"/>
 </g>
 <g>
  <title>Layer 1</title>
  <path fill="#787878" stroke="null" id="svg_2" d="m10.254797,21.080153c-3.948856,0 -7.161292,3.079156 -7.161292,6.864178s3.212436,6.864178 7.161292,6.864178s7.161292,-3.079156 7.161292,-6.864178s-3.212436,-6.864178 -7.161292,-6.864178zm5.937308,6.292163l-5.340534,0l0,-5.11896c2.814985,0.268847 5.06005,2.420767 5.340534,5.11896zm-11.905051,0.572015c0,-2.960749 2.359646,-5.403252 5.370969,-5.690975l0,11.382522c-3.011323,-0.288295 -5.370969,-2.730799 -5.370969,-5.691547zm6.564518,5.690975l0,-5.11896l5.340534,0c-0.280484,2.698194 -2.525549,4.850113 -5.340534,5.11896z"/>
  <path fill="#787878" stroke="null" id="svg_3" d="m29.386247,19.023332l1.470196,0.553709c0.392101,0.14815 0.808935,0.223459 1.238864,0.223459c0.814755,0 1.58077,-0.269756 2.156918,-0.758649l0.987163,-0.837662c0.469211,-0.398152 0.72746,-0.927169 0.72746,-1.490137s-0.258248,-1.092603 -0.72746,-1.490137l-1.153751,-0.979022c-0.937696,-0.795686 -2.57448,-0.795686 -3.512175,0l-0.464847,0.394448c-0.169498,0.143829 -0.395011,0.222842 -0.635072,0.222842l-0.107664,0c-0.240062,0 -0.465574,-0.079013 -0.635072,-0.222842l-0.502675,-0.426547c-0.170226,-0.144446 -0.26334,-0.335806 -0.26334,-0.539511c0,-0.232718 0.122941,-0.450004 0.336814,-0.595067l0.418289,-0.283336c0.444478,-0.301855 0.699816,-0.752476 0.699816,-1.236431c0,-0.417288 -0.198596,-0.824699 -0.546322,-1.119146l-1.334889,-1.132727c-0.937696,-0.795686 -2.57448,-0.795686 -3.512175,0l-0.987163,0.837662c-0.576148,0.488893 -0.894048,1.1389 -0.894048,1.844462c0,0.351855 0.08293,0.695068 0.246609,1.019145c1.358895,2.690149 3.843169,4.826588 6.994525,6.015489zm-5.318458,-8.006248l0.987163,-0.837662c0.194959,-0.164816 0.45248,-0.255558 0.72746,-0.255558s0.5325,0.090742 0.72746,0.255558l1.334889,1.132727c0.075656,0.064815 0.120031,0.15494 0.120031,0.246299c0,0.106791 -0.056014,0.205557 -0.153494,0.271607l-0.417562,0.283336c-0.562326,0.381485 -0.883864,0.950009 -0.883864,1.559891c0,0.533338 0.244426,1.035195 0.688904,1.411742l0.502675,0.426547c0.444478,0.377781 1.035903,0.585191 1.664428,0.585191l0.107664,0c0.628525,0 1.21995,-0.207409 1.6637,-0.584573l0.464847,-0.394448c0.389191,-0.329015 1.065728,-0.329015 1.454919,0l1.153751,0.979022c0.194232,0.165434 0.301168,0.383954 0.301168,0.61729s-0.106937,0.451856 -0.301168,0.61729l-0.987163,0.837662c-0.459755,0.390127 -1.180667,0.504943 -1.775729,0.279632l-1.470196,-0.553709c-2.815269,-1.061738 -5.034748,-2.970398 -6.248151,-5.37289c-0.08584,-0.169137 -0.129488,-0.348769 -0.129488,-0.547536c0,-0.361732 0.166588,-0.701241 0.467757,-0.957416z"/>
  <path fill="#787878" stroke="null" id="svg_4" d="m32.522145,22.099061l4.69958,0c1.007793,0 1.827919,-0.83322 1.827919,-1.857103l0,-12.380684c0,-1.023883 -0.820126,-1.857103 -1.827919,-1.857103l-6.70237,0l0,-4.952274l-24.015203,0l-5.231505,5.315028l0,30.588956l15.04804,0l3.655838,2.476137l17.245199,0c1.007793,0 1.827919,-0.83322 1.827919,-1.857103l0,-2.476137c0,-1.023883 -0.820126,-1.857103 -1.827919,-1.857103l-6.70237,0l0,-9.8705l2.00279,-1.272115zm5.308887,-14.237787l0,12.380684c0,0.341707 -0.272969,0.619034 -0.609306,0.619034l-5.049322,0l-4.090274,2.596848l0,-2.596848l-6.70237,0c-0.336337,0 -0.609306,-0.277327 -0.609306,-0.619034l0,-12.380684c0,-0.341707 0.272969,-0.619034 0.609306,-0.619034l15.841967,0c0.336337,0 0.609306,0.277327 0.609306,0.619034zm-31.683933,-4.695993l0,2.838891l-2.794279,0l2.794279,-2.838891zm14.623354,33.790601l9.748902,0l0,1.238068l-9.748902,0l0,-1.238068zm10.967515,-2.476137l1.218613,0l0,3.714205l-1.218613,0l0,-3.714205zm-1.218613,1.238068l-9.748902,0l0,-1.238068l9.748902,0l0,1.238068zm-10.967515,1.938815l-1.947953,-1.319781l1.947953,-1.319781l0,2.639562zm18.279192,-2.557849l0,2.476137c0,0.341707 -0.272969,0.619034 -0.609306,0.619034l-3.046532,0l0,-3.714205l3.046532,0c0.336337,0 0.609306,0.277327 0.609306,0.619034zm-8.53029,-1.857103l-9.324216,0l-3.655838,2.476137l-13.829427,0l0,-28.475573l4.874451,0l0,-4.952274l21.935031,0l0,3.714205l-7.920983,0c-1.007793,0 -1.827919,0.83322 -1.827919,1.857103l0,12.380684c0,1.023883 0.820126,1.857103 1.827919,1.857103l5.483758,0l0,3.593494l2.437226,-1.547585l0,9.096708z"/>
  <polygon fill="#787878" stroke="null" id="svg_5" points="16.89558624059009,7.959678649902344 15.560555518170986,7.959678649902344 15.560555518170986,17.22199058532715 14.225523777319268,17.22199058532715 14.225523777319268,6.41595983505249 12.890493054900162,6.41595983505249 12.890493054900162,17.22199058532715 11.555462332481056,17.22199058532715 11.555462332481056,12.590834617614746 10.220432628494564,12.590834617614746 10.220432628494564,17.22199058532715 8.885399869210232,17.22199058532715 8.885399869210232,9.503396987915039 7.550369146791127,9.503396987915039 7.550369146791127,17.22199058532715 6.215337915155715,17.22199058532715 6.215337915155715,11.04711627960205 4.880306683520303,11.04711627960205 4.880306683520303,17.22199058532715 2.8777598360671846,17.22199058532715 2.8777598360671846,18.765708923339844 18.89813232421875,18.765708923339844 18.89813232421875,17.22199058532715 16.89558624059009,17.22199058532715 "/>
 </g>
</svg>