<svg width="40" height="40" xmlns="http://www.w3.org/2000/svg">
 <title/>
 <desc/>

 <g>
  <title>background</title>
  <rect fill="none" id="canvas_background" height="42" width="42" y="-1" x="-1"/>
 </g>
 <g>
  <title>Layer 1</title>
  <path stroke="#787878" fill="#787878" id="notepad" d="m16.422302,30.562758l6.542651,0c0.361809,0 0.654265,-0.293111 0.654265,-0.654265c0,-0.361154 -0.292457,-0.654265 -0.654265,-0.654265l-6.542651,0c-0.361809,0 -0.654265,0.293111 -0.654265,0.654265c0,0.361154 0.292457,0.654265 0.654265,0.654265l0,0zm0,-3.925591l10.468242,0c0.361809,0 0.654265,-0.293111 0.654265,-0.654265c0,-0.361154 -0.292457,-0.654265 -0.654265,-0.654265l-10.468242,0c-0.361809,0 -0.654265,0.293111 -0.654265,0.654265c0,0.361154 0.292457,0.654265 0.654265,0.654265l0,0zm-0.654265,-4.579856c0,0.361154 0.292457,0.654265 0.654265,0.654265l11.776772,0c0.361809,0 0.654265,-0.293111 0.654265,-0.654265c0,-0.361154 -0.292457,-0.654265 -0.654265,-0.654265l-11.776772,0c-0.361809,0 -0.654265,0.293111 -0.654265,0.654265l0,0zm0.654265,-3.271326l9.159712,0c0.361809,0 0.654265,-0.293111 0.654265,-0.654265c0,-0.361154 -0.292457,-0.654265 -0.654265,-0.654265l-9.159712,0c-0.361809,0 -0.654265,0.293111 -0.654265,0.654265c0,0.361154 0.292457,0.654265 0.654265,0.654265l0,0zm0,-3.925591l10.468242,0c0.361809,0 0.654265,-0.293111 0.654265,-0.654265c0,-0.361154 -0.292457,-0.654265 -0.654265,-0.654265l-10.468242,0c-0.361809,0 -0.654265,0.293111 -0.654265,0.654265c0,0.361154 0.292457,0.654265 0.654265,0.654265l0,0zm-3.925591,14.393833l-1.30853,0c-0.361809,0 -0.654265,0.293111 -0.654265,0.654265c0,0.361154 0.292457,0.654265 0.654265,0.654265l1.30853,0c0.361809,0 0.654265,-0.293111 0.654265,-0.654265c0,-0.361154 -0.292457,-0.654265 -0.654265,-0.654265l0,0zm0,-3.925591l-1.30853,0c-0.361809,0 -0.654265,0.293111 -0.654265,0.654265c0,0.361154 0.292457,0.654265 0.654265,0.654265l1.30853,0c0.361809,0 0.654265,-0.293111 0.654265,-0.654265c0,-0.361154 -0.292457,-0.654265 -0.654265,-0.654265l0,0zm0,-3.925591l-1.30853,0c-0.361809,0 -0.654265,0.293111 -0.654265,0.654265c0,0.361154 0.292457,0.654265 0.654265,0.654265l1.30853,0c0.361809,0 0.654265,-0.293111 0.654265,-0.654265c0,-0.361154 -0.292457,-0.654265 -0.654265,-0.654265l0,0zm0,-3.925591l-1.30853,0c-0.361809,0 -0.654265,0.293111 -0.654265,0.654265c0,0.361154 0.292457,0.654265 0.654265,0.654265l1.30853,0c0.361809,0 0.654265,-0.293111 0.654265,-0.654265c0,-0.361154 -0.292457,-0.654265 -0.654265,-0.654265l0,0zm-1.30853,-2.61706l1.30853,0c0.361809,0 0.654265,-0.293111 0.654265,-0.654265c0,-0.361154 -0.292457,-0.654265 -0.654265,-0.654265l-1.30853,0c-0.361809,0 -0.654265,0.293111 -0.654265,0.654265c0,0.361154 0.292457,0.654265 0.654265,0.654265l0,0zm1.962795,-7.851181l13.085302,0l0,-2.61706l-3.337406,0c-0.310776,0 -0.579025,-0.219179 -0.640526,-0.524066c-0.246658,-1.213008 -1.324887,-2.092994 -2.564719,-2.092994c-1.239832,0 -2.318061,0.879987 -2.564719,2.092994c-0.061501,0.304888 -0.32975,0.524066 -0.640526,0.524066l-3.337406,0l0,2.61706zm-1.30853,0.654265l0,-3.925591c0,-0.361154 0.292457,-0.654265 0.654265,-0.654265l3.495739,0c0.546311,-1.544066 2.025605,-2.61706 3.701178,-2.61706c1.675573,0 3.154866,1.072995 3.701178,2.61706l3.495739,0c0.361809,0 0.654265,0.293111 0.654265,0.654265l0,3.925591c0,0.361154 -0.292457,0.654265 -0.654265,0.654265l-14.393833,0c-0.361809,0 -0.654265,-0.293111 -0.654265,-0.654265l0,0zm7.851181,-4.579856c-0.721654,0 -1.30853,0.586876 -1.30853,1.30853c0,0.721654 0.586876,1.30853 1.30853,1.30853c0.721654,0 1.30853,-0.586876 1.30853,-1.30853c0,-0.721654 -0.586876,-1.30853 -1.30853,-1.30853l0,0zm9.813977,34.021786c0.167492,0 0.334984,-0.064118 0.462565,-0.1917l3.925591,-3.925591c0.123002,-0.122348 0.1917,-0.289185 0.1917,-0.462565l0,-26.170605c0,-0.361154 -0.292457,-0.654265 -0.654265,-0.654265l-3.925591,0c-0.361809,0 -0.654265,0.293111 -0.654265,0.654265c0,0.361154 0.292457,0.654265 0.654265,0.654265l3.271326,0l0,25.245474l-3.733891,3.733891c-0.255818,0.255818 -0.255818,0.669313 0,0.925131c0.127582,0.127582 0.295074,0.1917 0.462565,0.1917l0,0zm-19.627953,-31.404726l-3.925591,0c-0.361809,0 -0.654265,0.293111 -0.654265,0.654265l0,28.1334c0,1.443309 1.173752,2.61706 2.61706,2.61706l18.973688,0c0.361809,0 0.654265,-0.293111 0.654265,-0.654265l0,-3.925591c0,-0.296382 0.291802,-0.654265 0.654265,-0.654265l2.61706,0c0.361809,0 0.654265,-0.293111 0.654265,-0.654265c0,-0.361154 -0.292457,-0.654265 -0.654265,-0.654265l-2.61706,0c-1.045516,0 -1.962795,0.91728 -1.962795,1.962795l0,3.271326l-18.319423,0c-0.721654,0 -1.30853,-0.586876 -1.30853,-1.30853l0,-27.479135l3.271326,0c0.361809,0 0.654265,-0.293111 0.654265,-0.654265c0,-0.361154 -0.292457,-0.654265 -0.654265,-0.654265l0,0zm26.82487,0.654265l0,30.096195c0,1.681461 -1.589864,3.271326 -3.271326,3.271326l-27.479135,0c-1.681461,0 -3.271326,-1.589864 -3.271326,-3.271326l0,-30.096195c0,-1.681461 1.589864,-3.271326 3.271326,-3.271326l3.925591,0c0.361809,0 0.654265,0.293111 0.654265,0.654265c0,0.361154 -0.292457,0.654265 -0.654265,0.654265l-3.925591,0c-0.953919,0 -1.962795,1.008877 -1.962795,1.962795l0,30.096195c0,0.953919 1.008877,1.962795 1.962795,1.962795l27.479135,0c0.953919,0 1.962795,-1.008877 1.962795,-1.962795l0,-30.096195c0,-0.953919 -1.008877,-1.962795 -1.962795,-1.962795l-3.925591,0c-0.361809,0 -0.654265,-0.293111 -0.654265,-0.654265c0,-0.361154 0.292457,-0.654265 0.654265,-0.654265l3.925591,0c1.681461,0 3.271326,1.589864 3.271326,3.271326l0,0z"/>
 </g>
</svg>