<svg width="40" height="40" xmlns="http://www.w3.org/2000/svg">

 <g>
  <title>background</title>
  <rect fill="none" id="canvas_background" height="42" width="42" y="-1" x="-1"/>
 </g>
 <g>
  <title>Layer 1</title>
  <path stroke="null" fill="#787878" id="svg_1" d="m31.528593,1.4127c-0.0004,0 -0.000788,0 -0.001188,0c0,0 -0.000388,0 -0.000388,0l-20.850198,0c-2.524178,0 -4.645852,1.866627 -5.05032,4.291061c-2.144154,0.138375 -4.213798,0.90434 -4.213798,2.410647c0,1.488956 2.021942,2.254921 4.139287,2.405907l0,3.072139c-2.117345,0.151386 -4.139287,0.91735 -4.139287,2.406307s2.021942,2.254932 4.139287,2.405918l0,3.072139c-2.117345,0.151386 -4.139287,0.91735 -4.139287,2.406307s2.021942,2.254932 4.139287,2.405918l0,3.072139c-2.117345,0.151374 -4.139287,0.917339 -4.139287,2.406307c0,1.506308 2.069644,2.272272 4.213798,2.410636c0.404468,2.424446 2.526142,4.291061 5.05032,4.291061l22.667536,0c2.825762,0 5.124831,-2.299069 5.124831,-5.124831l0,-24.989473c0,0 0,-0.0004 0,-0.0004c0,-0.000388 0,-0.000788 0,-0.001176c0,-3.827069 -3.113523,-6.940604 -6.940592,-6.940604zm5.363727,6.940604c0,2.95742 -2.406307,5.363727 -5.363727,5.363727c-1.116426,0 -2.154012,-0.343756 -3.013403,-0.929561c-0.002364,-0.001576 -0.004341,-0.003553 -0.006705,-0.005129c-1.413269,-0.967016 -2.34363,-2.590795 -2.34363,-4.429037c0,-2.95742 2.406307,-5.363727 5.363738,-5.363727s5.363727,2.406307 5.363727,5.363727zm-8.822595,7.602096c0,1.489356 -0.866496,2.747698 -1.892248,2.747698c-1.025764,0 -1.892248,-1.258342 -1.892248,-2.747698c0,-1.486992 0.866484,-2.743758 1.892248,-2.743758c0.180948,0 0.355579,0.043761 0.522728,0.117083c0.237719,0.231014 0.493566,0.442312 0.762423,0.637447l0.607097,1.989228zm-25.067937,-7.840991c0.177407,-0.271222 1.316302,-0.859003 3.338632,-0.859003s3.161237,0.587781 3.338632,0.859003c-0.177395,0.271222 -1.31629,0.859003 -3.338632,0.859003s-3.161225,-0.587781 -3.338632,-0.859003zm0,7.884352c0.177407,-0.271222 1.316302,-0.858991 3.338632,-0.858991s3.161237,0.587769 3.338632,0.858991c-0.177395,0.271222 -1.31629,0.859003 -3.338632,0.859003s-3.161225,-0.587781 -3.338632,-0.859003zm0,7.884364c0.177407,-0.271222 1.316302,-0.859003 3.338632,-0.859003s3.161237,0.587781 3.338632,0.859003c-0.177395,0.271222 -1.31629,0.859003 -3.338632,0.859003s-3.161225,-0.587781 -3.338632,-0.859003zm0,7.884364c0.177407,-0.271222 1.316302,-0.859003 3.338632,-0.859003s3.161237,0.587781 3.338632,0.859003c-0.177395,0.271222 -1.31629,0.859003 -3.338632,0.859003s-3.161225,-0.587781 -3.338632,-0.859003zm33.890531,1.576866c0,1.956113 -1.591853,3.547965 -3.547965,3.547965l-22.667536,0c-1.661234,0 -3.072139,-1.16768 -3.448222,-2.72483c2.08069,-0.167937 4.039555,-0.934702 4.039555,-2.400001c0,-1.488968 -2.021942,-2.254932 -4.139287,-2.405918l0,-3.072139c2.117345,-0.151374 4.139287,-0.91735 4.139287,-2.406307s-2.021942,-2.254921 -4.139287,-2.405907l0,-3.072151c2.117345,-0.151374 4.139287,-0.917339 4.139287,-2.406307s-2.021942,-2.254921 -4.139287,-2.405907l0,-3.072139c2.117345,-0.151386 4.139287,-0.91735 4.139287,-2.406307c0,-1.465311 -1.958866,-2.232064 -4.039555,-2.400001c0.376083,-1.557162 1.786987,-2.72483 3.448222,-2.72483l16.452688,0c-1.550456,1.274106 -2.541518,3.204985 -2.541518,5.363727c0,1.22404 0.321288,2.37358 0.879895,3.372923c-1.573725,0.409197 -2.759533,2.149283 -2.759533,4.229173c0,2.384626 1.556373,4.324576 3.469126,4.324576c1.91314,0 3.469114,-1.93995 3.469114,-4.324576c0,-0.324041 -0.031138,-0.641388 -0.086333,-0.950065c0.624836,0.185289 1.284363,0.288573 1.967935,0.288573c2.158741,0 4.089621,-0.991073 5.363727,-2.541529l0,20.591975l0.0004,0z"/>
  <path stroke="null" fill="#787878" id="svg_3" d="m17.888951,21.643943c2.284797,0 4.143814,-2.316825 4.143814,-5.164932s-1.859017,-5.165403 -4.143814,-5.165403s-4.143814,2.317296 -4.143814,5.165403s1.859017,5.164932 4.143814,5.164932zm0,-8.446354c1.225058,0 2.259834,1.502474 2.259834,3.281422s-1.034776,3.280951 -2.259834,3.280951s-2.259834,-1.502474 -2.259834,-3.280951s1.034776,-3.281422 2.259834,-3.281422z"/>
  <path stroke="null" fill="#787878" id="svg_4" d="m30.333153,19.883213c-0.176709,-0.145042 -0.408151,-0.20603 -0.633338,-0.164981c-0.225187,0.040268 -0.421443,0.176709 -0.537164,0.373748c-0.68768,1.170893 -1.777256,1.869911 -2.914918,1.869911c-1.155255,0 -2.254605,-0.718956 -2.940721,-1.923471c-0.112984,-0.198211 -0.307286,-0.337389 -0.5313,-0.380785c-0.224405,-0.043786 -0.455847,0.013683 -0.634902,0.155598c-0.841323,0.668914 -1.501245,1.535258 -1.924253,2.513022c-0.616136,0.568049 -1.35894,0.893319 -2.125982,0.893319c-1.155646,0 -2.255387,-0.718174 -2.942285,-1.921907c-0.112984,-0.198211 -0.306895,-0.336998 -0.530909,-0.380003c-0.223232,-0.043395 -0.455847,0.013683 -0.634511,0.155598c-1.56888,1.246346 -2.468454,3.108438 -2.468454,5.109317l0,1.749889c0,0.431608 0.350291,0.781899 0.781899,0.781899l11.481009,0c0.431608,0 0.781899,-0.350291 0.781899,-0.781899l0,-0.47774l7.377214,0c0.431608,0 0.781899,-0.350291 0.781899,-0.781899l0,-1.747544c0,-1.960611 -0.869471,-3.798073 -2.385182,-5.042074zm-7.337728,7.267748l-9.917212,0l0,-0.967991c0,-1.2354 0.451546,-2.401602 1.26003,-3.303913c0.9719,1.206861 2.321848,1.904314 3.752332,1.904314c1.203342,0 2.354297,-0.500024 3.269509,-1.380051c0.031667,-0.026585 0.061379,-0.055124 0.088745,-0.0864c0.118067,-0.118458 0.233006,-0.241607 0.342081,-0.372966c0.772907,0.89371 1.203733,2.036455 1.203733,3.239015l0,0.967991l0.000782,0zm8.159113,-1.26003l-6.611735,0c-0.053951,-1.216634 -0.442164,-2.373453 -1.113033,-3.361382c0.828422,0.637638 1.801495,0.996139 2.818354,0.996139c1.402335,0 2.733909,-0.673997 3.70229,-1.840199c0.773298,0.893319 1.204515,2.036064 1.204515,3.239797l0,0.965645l-0.000391,0z"/>
 </g>
</svg>