<svg width="20" height="20" viewBox="0 0 20 20" fill="none" xmlns="http://www.w3.org/2000/svg">
<g clip-path="url(#clip0)">
<path d="M18.5641 10.333C18.4328 10.1312 18.4328 9.8707 18.5641 9.66898L19.2945 8.54633C19.9598 7.52376 19.5115 6.14994 18.3744 5.71467L17.1236 5.23576C16.8989 5.14967 16.7457 4.93885 16.7333 4.6985L16.6644 3.36101C16.6016 2.14289 15.4314 1.29454 14.2555 1.61094L12.9622 1.95868C12.7299 2.0211 12.4819 1.94059 12.3307 1.75344L11.4887 0.711847C10.7219 -0.236742 9.2768 -0.235218 8.51126 0.711847L7.66923 1.75348C7.51798 1.94067 7.27013 2.0211 7.03771 1.95871L5.74432 1.61098C4.56608 1.29411 3.39812 2.14528 3.33547 3.36105L3.26652 4.69854C3.2541 4.93885 3.10094 5.14971 2.87621 5.23576L1.62551 5.71467C0.486029 6.15084 0.0413437 7.52579 0.705363 8.54637L1.43579 9.66898C1.567 9.87066 1.567 10.1313 1.43579 10.333L0.70548 11.4556C0.0400937 12.4783 0.488529 13.8521 1.62555 14.2873L2.87633 14.7662C3.10105 14.8523 3.25425 15.0631 3.26664 15.3034L3.33558 16.6409C3.39839 17.8593 4.5687 18.7073 5.74444 18.391L7.03775 18.0433C7.27021 17.9809 7.51802 18.0614 7.66931 18.2485L8.51129 19.2901C9.27828 20.2389 10.7233 20.237 11.4887 19.2901L12.3307 18.2485C12.482 18.0614 12.73 17.981 12.9622 18.0433L14.2556 18.391C15.4336 18.708 16.6018 17.8569 16.6645 16.6409L16.7334 15.3034C16.7459 15.0631 16.899 14.8523 17.1237 14.7662L18.3744 14.2873C19.5138 13.8511 19.9586 12.4762 19.2946 11.4556L18.5641 10.333ZM17.9076 13.0681L16.6568 13.547C15.9502 13.8176 15.4685 14.4806 15.4296 15.2362L15.3606 16.5737C15.3407 16.9612 14.9686 17.2307 14.5945 17.1303L13.3011 16.7825C12.5705 16.586 11.791 16.8394 11.3154 17.4278L10.4735 18.4693C10.2295 18.7711 9.77 18.7705 9.52652 18.4693L8.68461 17.4278C8.31594 16.9717 7.7647 16.7169 7.19509 16.7169C7.0299 16.7169 6.8631 16.7383 6.69877 16.7825L5.40538 17.1303C5.03053 17.2309 4.65929 16.9604 4.63929 16.5737L4.57034 15.2362C4.5314 14.4806 4.04964 13.8175 3.34308 13.547L2.09231 13.0681C1.72993 12.9293 1.58856 12.4921 1.79973 12.1676L2.53012 11.045C2.94273 10.4107 2.94273 9.59113 2.53012 8.95699L1.79973 7.83438C1.58809 7.50915 1.73067 7.07232 2.09235 6.93384L3.34312 6.45494C4.04972 6.18439 4.53143 5.52135 4.57038 4.76577L4.63932 3.42828C4.65929 3.04074 5.03135 2.77121 5.40541 2.87168L6.6988 3.21941C7.42946 3.41593 8.20895 3.16257 8.68457 2.57418L9.52656 1.53258C9.77051 1.23087 10.2301 1.23149 10.4735 1.53258L11.3155 2.57422C11.7912 3.16261 12.5705 3.41597 13.3012 3.21941L14.5946 2.87168C14.9694 2.77101 15.3407 3.04152 15.3607 3.42828L15.4296 4.76577C15.4685 5.52135 15.9503 6.18443 16.6568 6.45494L17.9076 6.93388C18.27 7.07255 18.4114 7.50981 18.2002 7.83438L17.4699 8.95695C17.0572 9.59113 17.0572 10.4107 17.4698 11.045L18.2002 12.1675C18.4118 12.4928 18.2693 12.9296 17.9076 13.0681Z" fill="white"/>
<path d="M13.261 6.67358C13.0062 6.4187 12.5928 6.4187 12.3379 6.67358L6.24554 12.766C5.99066 13.0209 5.99066 13.4342 6.24558 13.6891C6.37304 13.8166 6.54011 13.8803 6.70714 13.8803C6.87417 13.8803 7.04128 13.8166 7.1687 13.6891L13.2611 7.59667C13.516 7.34182 13.516 6.9285 13.261 6.67358Z" fill="white"/>
<path d="M7.35988 6.48242C6.64 6.48242 6.05438 7.06808 6.05438 7.78792C6.05438 8.5078 6.64008 9.09342 7.35988 9.09342C8.07976 9.09342 8.66538 8.50776 8.66538 7.78792C8.66542 7.06808 8.07976 6.48242 7.35988 6.48242Z" fill="white"/>
<path d="M12.1468 11.2695C11.4269 11.2695 10.8413 11.8552 10.8413 12.575C10.8413 13.2949 11.4269 13.8805 12.1468 13.8805C12.8666 13.8805 13.4523 13.2949 13.4523 12.575C13.4523 11.8552 12.8667 11.2695 12.1468 11.2695Z" fill="white"/>
</g>
<defs>
<clipPath id="clip0">
<rect width="20" height="20" fill="white"/>
</clipPath>
</defs>
</svg>
