<svg width="40" height="40" viewBox="0 0 40 40" fill="none" xmlns="http://www.w3.org/2000/svg">
<g clip-path="url(#clip0_1436_2589)">
<path d="M1.66653 10.8324V1.66653H10.8324C11.9357 1.66653 11.934 0 10.8324 0H0.833264C0.373302 0 0 0.373302 0 0.833264V10.8324C0 11.9357 1.66653 11.934 1.66653 10.8324Z" fill="black"/>
<path d="M10.8325 38.3335H1.6666V29.1676C1.6666 28.0643 7.62939e-05 28.066 7.62939e-05 29.1676V39.1667C7.62939e-05 39.6267 0.373379 40 0.83334 40H10.8325C11.9357 40 11.9341 38.3335 10.8325 38.3335Z" fill="black"/>
<path d="M39.9968 0.833264C39.9968 0.373302 39.6235 0 39.1635 0H29.1643C28.0611 0 28.0628 1.66653 29.1643 1.66653H38.3302V10.8324C38.3302 11.9357 39.9968 11.934 39.9968 10.8324V0.833264Z" fill="black"/>
<path d="M38.3302 29.1676V38.3335H29.1643C28.0611 38.3335 28.0628 40 29.1643 40H39.1635C39.6235 40 39.9968 39.6267 39.9968 39.1667V29.1676C39.9968 28.0643 38.3302 28.066 38.3302 29.1676Z" fill="black"/>
<path d="M8.33273 10.8324C8.33273 11.2924 8.70604 11.6657 9.166 11.6657H10.8325C11.2925 11.6657 11.6658 11.2924 11.6658 10.8324V9.1659C11.6658 8.70594 11.2925 8.33264 10.8325 8.33264H9.166C8.70604 8.33264 8.33273 8.70594 8.33273 9.1659V10.8324Z" fill="black"/>
<path d="M5.83294 4.99959C5.37298 4.99959 4.99968 5.37289 4.99968 5.83285V14.1655C4.99968 14.6255 5.37298 14.9988 5.83294 14.9988H14.1656C14.6255 14.9988 14.9988 14.6255 14.9988 14.1655V5.83285C14.9988 5.37289 14.6255 4.99959 14.1656 4.99959H5.83294ZM6.66621 6.66612H13.3323V13.3322H6.66621V6.66612Z" fill="black"/>
<path d="M11.6658 29.1643C11.6658 28.7043 11.2925 28.331 10.8325 28.331H9.166C8.70604 28.331 8.33273 28.7043 8.33273 29.1643V30.8308C8.33273 31.2907 8.70604 31.664 9.166 31.664H10.8325C11.2925 31.664 11.6658 31.2907 11.6658 30.8308V29.1643Z" fill="black"/>
<path d="M14.9988 25.8312C14.9988 25.3712 14.6255 24.9979 14.1656 24.9979H5.83294C5.37298 24.9979 4.99968 25.3712 4.99968 25.8312V34.1638C4.99968 34.6238 5.37298 34.9971 5.83294 34.9971H14.1656C14.6255 34.9971 14.9988 34.6238 14.9988 34.1638V25.8312ZM13.3323 33.3306H6.66621V26.6645H13.3323V33.3306Z" fill="black"/>
<path d="M28.3311 10.8324C28.3311 11.2924 28.7044 11.6657 29.1643 11.6657H30.8309C31.2908 11.6657 31.6641 11.2924 31.6641 10.8324V9.1659C31.6641 8.70594 31.2908 8.33264 30.8309 8.33264H29.1643C28.7044 8.33264 28.3311 8.70594 28.3311 9.1659V10.8324Z" fill="black"/>
<path d="M24.998 14.1655C24.998 14.6255 25.3713 14.9988 25.8313 14.9988H34.1639C34.6239 14.9988 34.9972 14.6255 34.9972 14.1655V5.83285C34.9972 5.37289 34.6239 4.99959 34.1639 4.99959H25.8313C25.3713 4.99959 24.998 5.37289 24.998 5.83285V14.1655ZM26.6645 6.66612H33.3306V13.3322H26.6645V6.66612Z" fill="black"/>
<path d="M10.8325 23.3314C11.0142 23.3314 17.7453 23.3314 17.4986 23.3314C18.6019 23.3314 18.6002 21.6649 17.4986 21.6649H14.9988V19.1651C14.9988 18.0618 13.3323 18.0635 13.3323 19.1651V21.6649H10.8325C9.72927 21.6649 9.73094 23.3314 10.8325 23.3314Z" fill="black"/>
<path d="M18.3319 7.49938V5.83285C18.3319 4.72961 16.6654 4.73127 16.6654 5.83285V7.49938C16.6654 8.60262 18.3319 8.60095 18.3319 7.49938Z" fill="black"/>
<path d="M17.4986 11.6657H20.8317C21.2916 11.6657 21.6649 11.2924 21.6649 10.8324V8.33263H22.4982C23.6014 8.33263 23.5998 6.66611 22.4982 6.66611H20.8317C20.3717 6.66611 19.9984 7.03941 19.9984 7.49937V9.99916H17.4986C16.3954 9.99916 16.397 11.6657 17.4986 11.6657Z" fill="black"/>
<path d="M17.4986 19.9984H20.8317C21.9349 19.9984 21.9332 18.3318 20.8317 18.3318H19.9984V14.9988H22.4982C23.6014 14.9988 23.5998 13.3322 22.4982 13.3322H19.1651C18.7052 13.3322 18.3319 13.7055 18.3319 14.1655V18.3318H17.4986C16.3954 18.3318 16.397 19.9984 17.4986 19.9984Z" fill="black"/>
<path d="M23.3315 19.1651C23.3315 20.2683 24.998 20.2666 24.998 19.1651V17.4985C24.998 16.3953 23.3315 16.397 23.3315 17.4985V19.1651Z" fill="black"/>
<path d="M18.3319 28.331H19.9984V29.1642C19.9984 30.2675 21.665 30.2658 21.665 29.1642V24.1647C21.665 23.0614 19.9984 23.0631 19.9984 24.1647V26.6644H17.4986C17.0387 26.6644 16.6654 27.0377 16.6654 27.4977V29.1642C16.6654 30.2675 18.3319 30.2658 18.3319 29.1642V28.331Z" fill="black"/>
<path d="M24.998 29.1642V29.9975H24.1647C23.7048 29.9975 23.3315 30.3708 23.3315 30.8308V33.3306H19.1652C18.0619 33.3306 18.0636 34.9971 19.1652 34.9971H24.1647C24.6247 34.9971 24.998 34.6238 24.998 34.1638V31.664H25.8313C26.2912 31.664 26.6645 31.2907 26.6645 30.8308V29.1642C26.6645 28.061 24.998 28.0627 24.998 29.1642Z" fill="black"/>
<path d="M29.9976 30.8308V33.3306H29.1643C28.0611 33.3306 28.0628 34.9971 29.1643 34.9971H34.1639C35.2672 34.9971 35.2655 33.3306 34.1639 33.3306H31.6641V30.8308C31.6641 29.7275 29.9976 29.7292 29.9976 30.8308Z" fill="black"/>
<path d="M34.9972 25.8312C34.9972 25.3712 34.6239 24.9979 34.1639 24.9979H29.1643C28.0611 24.9979 28.0628 26.6645 29.1643 26.6645H33.3307V29.1676C33.3307 30.2708 34.9972 30.2692 34.9972 29.1676V25.8312Z" fill="black"/>
<path d="M34.9972 19.1651C34.9972 18.0618 33.3306 18.0635 33.3306 19.1651V21.6649H32.4974C31.3941 21.6649 31.3958 23.3314 32.4974 23.3314H34.1639C34.6239 23.3314 34.9972 22.9581 34.9972 22.4981V19.1651Z" fill="black"/>
<path d="M29.9976 22.4981V18.3318H30.8308C31.9341 18.3318 31.9324 16.6653 30.8308 16.6653H29.1643C28.7043 16.6653 28.331 17.0386 28.331 17.4985V21.6649H25.8313C25.3713 21.6649 24.998 22.0382 24.998 22.4981V24.9979H24.1647C23.0615 24.9979 23.0632 26.6645 24.1647 26.6645H25.8313C26.2912 26.6645 26.6645 26.2911 26.6645 25.8312V23.3314H29.1643C29.6243 23.3314 29.9976 22.9581 29.9976 22.4981Z" fill="black"/>
<path d="M4.99968 17.4985C4.99968 17.7469 4.99968 22.7398 4.99968 22.4981C4.99968 23.6014 6.66621 23.5997 6.66621 22.4981V19.9983H9.166C10.2692 19.9983 10.2676 18.3318 9.166 18.3318H6.66621V17.4985C6.66621 16.3953 4.99968 16.397 4.99968 17.4985Z" fill="black"/>
</g>
<defs>
<clipPath id="clip0_1436_2589">
<rect width="40" height="40" fill="white"/>
</clipPath>
</defs>
</svg>
