<svg width="30.000000000000004" height="30.000000000000004" xmlns="http://www.w3.org/2000/svg">

 <title/>
 <g>
  <title>background</title>
  <rect fill="none" id="canvas_background" height="32" width="32" y="-1" x="-1"/>
 </g>
 <g>
  <title>Layer 1</title>
  <path stroke-linejoin="round" stroke-linecap="round" stroke="#787878" fill="none" id="svg_1" d="m15.43119,1.440831l1.1,3.08a0.63,0.63 0 0 0 0.56,0.43l3.16,0.13a0.65,0.65 0 0 1 0.36,1.16l-2.48,2.08a0.65,0.65 0 0 0 -0.22,0.68l0.86,3.19a0.63,0.63 0 0 1 -0.94,0.72l-2.64,-1.84a0.57,0.57 0 0 0 -0.68,0l-2.66,1.84a0.63,0.63 0 0 1 -0.94,-0.72l0.86,-3.19a0.65,0.65 0 0 0 -0.22,-0.68l-2.48,-2a0.65,0.65 0 0 1 0.38,-1.21l3.16,-0.13a0.63,0.63 0 0 0 0.56,-0.46l1.1,-3.08a0.61,0.61 0 0 1 1.16,0z" class="cls-1"/>
  <path stroke-linejoin="round" stroke-linecap="round" stroke="#787878" fill="none" id="svg_2" d="m7.005596,18.068808l1.1,3.08a0.63,0.63 0 0 0 0.56,0.43l3.16,0.13a0.65,0.65 0 0 1 0.36,1.16l-2.48,2.08a0.65,0.65 0 0 0 -0.22,0.68l0.86,3.19a0.63,0.63 0 0 1 -0.94,0.72l-2.64,-1.84a0.57,0.57 0 0 0 -0.68,0l-2.64,1.84a0.63,0.63 0 0 1 -0.94,-0.72l0.86,-3.19a0.65,0.65 0 0 0 -0.22,-0.68l-2.48,-2.05a0.65,0.65 0 0 1 0.36,-1.16l3.16,-0.13a0.63,0.63 0 0 0 0.56,-0.46l1.1,-3.11a0.61,0.61 0 0 1 1.16,0.03z" class="cls-1"/>
  <path stroke-linejoin="round" stroke-linecap="round" stroke="#787878" fill="none" id="svg_3" d="m24.005596,17.994404l1.1,3.08a0.63,0.63 0 0 0 0.56,0.43l3.16,0.13a0.65,0.65 0 0 1 0.36,1.16l-2.48,2.08a0.65,0.65 0 0 0 -0.22,0.68l0.86,3.19a0.63,0.63 0 0 1 -0.94,0.72l-2.64,-1.84a0.57,0.57 0 0 0 -0.68,0l-2.64,1.84a0.63,0.63 0 0 1 -0.94,-0.72l0.86,-3.19a0.65,0.65 0 0 0 -0.22,-0.68l-2.48,-2.05a0.65,0.65 0 0 1 0.36,-1.16l3.16,-0.13a0.63,0.63 0 0 0 0.56,-0.43l1.1,-3.11a0.61,0.61 0 0 1 1.16,0z" class="cls-1"/>
  <rect id="svg_5" height="0.074404" width="0" y="-1.906716" x="10.647376" stroke-width="null" stroke="#787878" fill="none"/>
  <rect id="svg_6" height="0.074404" width="0" y="0.697418" x="36.688709" stroke-width="null" stroke="#787878" fill="none"/>
 </g>
</svg>