<svg width="40" height="40" xmlns="http://www.w3.org/2000/svg">

 <g>
  <title>background</title>
  <rect fill="none" id="canvas_background" height="42" width="42" y="-1" x="-1"/>
 </g>
 <g>
  <title>Layer 1</title>
  <path stroke="null" fill="#787878" id="svg_3" d="m38.355724,12.716224c1.102328,1.002785 1.608237,1.093135 1.413084,2.54617c-0.165513,1.232279 -0.949279,1.716249 -1.78047,2.525299c-1.311043,1.276119 -2.622087,2.552245 -3.933136,3.828364c-1.398749,1.361487 -2.809728,3.068501 -4.683985,3.710337c-1.330331,0.455564 -2.559996,0.43997 -3.826947,1.118996c0.338052,0.259883 0.676104,0.519766 1.014162,0.779649c0.288615,-0.993543 0.307313,-2.044016 0.577764,-3.018861c0.65778,-2.371016 2.157312,-3.694781 3.796202,-5.378543c1.040765,-1.069258 6.014046,-7.476936 7.802923,-5.955128c0.673165,0.572664 1.654434,-0.399487 0.976342,-0.976342c-2.880607,-2.450548 -5.628398,1.714924 -7.460981,3.59768c-1.818272,1.868053 -4.11253,3.697297 -5.619303,5.824631c-1.156528,1.632839 -0.861242,3.669755 -1.404382,5.539502c-0.173564,0.597487 0.496514,1.057089 1.014162,0.779655c1.893127,-1.014623 4.004328,-0.75917 5.752329,-2.117325c2.224343,-1.728271 4.165748,-4.025561 6.184567,-5.990598c1.109122,-1.07958 3.217659,-2.447387 3.523665,-4.099441c0.305632,-1.650053 -1.301335,-2.718543 -2.36966,-3.690387c-0.65608,-0.596836 -1.635349,0.376842 -0.976336,0.976342l0,0z" class="st0"/>
  <path stroke="null" fill="#787878" id="svg_5" d="m34.809943,15.281281c0.701778,0.203826 1.295103,1.074286 1.790482,1.580637c0.516166,0.527601 0.9623,0.940505 1.376435,1.556885c0.468118,0.696729 1.601661,0.040446 1.129306,-0.66259c-0.251448,-0.374238 -0.457108,-0.823684 -0.799601,-1.117888c-0.365616,-0.314071 -0.71159,-0.633394 -1.052461,-0.981819c-0.626329,-0.640203 -1.207365,-1.382885 -2.096477,-1.641113c-0.810052,-0.235269 -1.15594,1.031145 -0.347684,1.265889l0,0z" class="st0"/>
  <path fill="#787878" id="svg_7" d="m25.17209,30.066472c-5.47226,0.05165 -10.94452,0.1033 -16.41678,0.15495c-1.44705,0.01366 -1.45063,2.26369 0,2.25c5.47226,-0.05165 10.94452,-0.1033 16.41678,-0.15495c1.44705,-0.01366 1.45062,-2.2637 0,-2.25l0,0z" class="st0"/>
  <path fill="#787878" id="svg_9" d="m8.448541,27.246276c5.55555,0 11.11111,0 16.66666,0c1.44777,0 1.45017,-2.25 0,-2.25c-5.55555,0 -11.11111,0 -16.66666,0c-1.44777,0 -1.45017,2.25 0,2.25l0,0z" class="st0"/>
  <path fill="#787878" id="svg_11" d="m8.317146,22.898727c5.47222,0 10.94445,0 16.41667,0c1.44777,0 1.45016,-2.25 0,-2.25c-5.47222,0 -10.94445,0 -16.41667,0c-1.44776,0 -1.45016,2.25 0,2.25l0,0z" class="st0"/>
  <path fill="#787878" id="svg_13" d="m8.75559,18.77039c2.61111,0 5.22222,0 7.83334,0c1.44776,0 1.45016,-2.25 0,-2.25c-2.61112,0 -5.22223,0 -7.83334,0c-1.44776,0 -1.45016,2.25 0,2.25l0,0z" class="st0"/>
  <path stroke="null" fill="#787878" id="svg_15" d="m30.545859,25.729449c0.037591,2.129919 0.075181,4.259837 0.112772,6.389756c0.016702,0.946634 0.033413,1.89326 0.050124,2.839894c0.025183,1.426986 0.380385,1.699454 -0.892355,2.334564c-1.647964,0.822348 -5.429929,0.217138 -7.350176,0.217642c-2.407592,0.000639 -4.815193,-0.003668 -7.222769,-0.01256c-2.407576,-0.0089 -4.815135,-0.022384 -7.222644,-0.040815c-0.999999,-0.007659 -2.232989,0.154089 -3.20999,-0.027398c-1.560808,-0.289936 -1.725189,0.195911 -1.918221,-1.543079c-0.476789,-4.295165 0.009681,-8.874508 0.014401,-13.197935c0.004536,-4.154899 0.009072,-8.309805 0.0136,-12.464711c0.001851,-1.690734 -0.70832,-5.087244 0.007205,-6.598964c0.910959,-1.924612 4.06352,-1.319004 5.938113,-1.337397c2.319002,-0.022753 4.638163,-0.030893 6.957282,-0.026135c3.242978,0.006652 4.908395,0.296009 7.548428,2.356798c1.499861,1.170785 2.927484,2.462984 4.286438,3.765038c2.532839,2.426785 2.858056,3.828282 2.889159,7.016252c0.010615,1.087727 1.886842,1.09035 1.876202,0c-0.023173,-2.374424 0.266129,-4.129215 -1.296356,-6.033592c-1.805515,-2.200604 -4.214934,-4.095285 -6.428769,-5.943574c-1.18445,-0.988869 -2.358728,-2.224807 -3.899156,-2.706798c-2.769483,-0.866553 -7.482227,-0.153195 -10.387205,-0.132201c-2.859932,0.020663 -8.225136,-1.282623 -9.358737,1.575175c-0.52492,1.323318 -0.004044,3.706559 -0.005604,5.132523c-0.001868,1.710841 -0.003736,3.42169 -0.005595,5.132531c-0.003469,3.177282 -0.006938,6.354556 -0.010407,9.531837s-0.006938,6.354563 -0.010398,9.531837c-0.001493,1.36305 -0.788922,5.601263 0.206282,6.786426c0.568381,0.676865 1.16222,0.660028 1.978367,0.831368c3.326731,0.6984 7.781744,0.066792 11.235073,0.081066c3.745116,0.015492 7.49029,0.019438 11.235423,0.011854c1.550385,-0.003134 4.817862,0.679496 6.103669,-0.288643c1.113622,-0.838493 0.819308,-2.050153 0.817465,-3.241135c-0.005137,-3.312504 -0.116967,-6.627609 -0.175421,-9.939625c-0.019187,-1.087201 -1.895448,-1.090501 -1.876202,0l0,0z" class="st0"/>
  <path fill="#787878" id="svg_17" d="m17.909863,2.649957c0.01687,2.58775 0.03375,5.17549 0.05062,7.76324c0.00895,1.37187 -0.57486,4.16994 0.56806,5.22898c1.05024,0.97316 3.35293,0.46314 4.61757,0.46381c2.63661,0.00138 5.27323,0.00276 7.90984,0.00414c1.4478,0.00076 1.45014,-2.24924 0,-2.25c-1.86114,-0.00097 -3.72228,-0.00195 -5.58342,-0.00292c-0.93057,-0.00049 -1.86114,-0.00098 -2.79171,-0.00147c-0.25747,-0.00013 -2.63262,0.16979 -2.79171,-0.00146c0.15107,0.16263 0.32836,-2.36974 0.3277,-2.47068c-0.00633,-0.9704 -0.01266,-1.94081 -0.01898,-2.91121c-0.01266,-1.94081 -0.02532,-3.88162 -0.03797,-5.82243c-0.00944,-1.4473 -2.25946,-1.45051 -2.25,0l0,0z" class="st0"/>
 </g>
</svg>