<?xml version="1.0" encoding="UTF-8"?>
<svg xmlns="http://www.w3.org/2000/svg" xmlns:xlink="http://www.w3.org/1999/xlink" width="40px" height="40px" viewBox="0 0 40 40" version="1.1">
<g id="surface1">
<path style=" stroke:none;fill-rule:evenodd;fill:rgb(0%,0%,0%);fill-opacity:1;" d="M 33.585938 19.230469 C 32.796875 18.453125 31.421875 18.261719 30.503906 18.859375 C 29.777344 19.332031 28.800781 19.761719 28.488281 20.480469 C 27.378906 22.992188 25.664062 23.011719 23.492188 22.480469 C 22.425781 22.21875 21.230469 22.558594 20.09375 22.609375 C 19.570312 22.632812 19.121094 22.550781 18.910156 21.90625 C 18.710938 21.3125 18.21875 21.039062 17.652344 21.011719 C 16.65625 20.957031 15.648438 20.839844 14.667969 20.953125 C 13.472656 21.09375 12.269531 21.339844 11.371094 22.355469 C 10.714844 23.097656 10.019531 23.808594 9.332031 24.519531 C 8.335938 25.539062 8.257812 25.527344 7.429688 24.320312 C 7.203125 23.992188 7.054688 23.527344 6.558594 23.628906 C 6.148438 23.707031 6.183594 24.101562 6.140625 24.4375 C 6.097656 24.773438 5.796875 24.902344 5.597656 25.109375 C 5.035156 25.683594 4.460938 26.238281 3.921875 26.84375 C 3.28125 27.558594 3.445312 28.082031 3.914062 28.703125 C 4.09375 28.941406 4.246094 29.207031 4.460938 29.398438 C 7.027344 31.699219 8.929688 34.789062 12.085938 36.414062 C 12.863281 36.816406 13.257812 36.699219 13.738281 36.246094 C 14.320312 35.695312 14.820312 35.042969 15.375 34.457031 C 16.542969 33.222656 16.609375 32.894531 15.921875 31.449219 C 16.207031 31.230469 16.53125 31.332031 16.839844 31.332031 C 19.1875 31.347656 21.539062 31.347656 23.882812 31.417969 C 25.242188 31.453125 26.359375 31.089844 27.292969 29.960938 C 28.140625 28.941406 29.207031 28.136719 30.058594 27.125 C 31.421875 25.496094 33.054688 24.097656 33.917969 22.03125 C 34.351562 21.003906 34.429688 20.058594 33.585938 19.230469 Z M 12.859375 35.054688 C 12.0625 35.082031 11.421875 34.699219 10.824219 34.195312 C 8.78125 32.476562 7.15625 30.296875 5.210938 28.472656 C 4.777344 28.066406 4.765625 27.613281 5.148438 27.195312 C 5.597656 26.710938 6.097656 26.28125 6.570312 25.828125 C 6.761719 25.644531 6.941406 25.667969 7.132812 25.835938 C 7.710938 26.335938 8.445312 26.722656 8.839844 27.351562 C 9.9375 29.078125 11.554688 30.09375 13.113281 31.207031 C 13.710938 31.636719 14.027344 32.519531 14.929688 32.476562 C 14.988281 32.46875 15.101562 32.707031 15.105469 32.839844 C 15.121094 33.210938 13.230469 35.058594 12.859375 35.054688 Z M 32.863281 21.5625 C 32.027344 23.453125 30.519531 24.769531 29.238281 26.269531 C 28.402344 27.246094 27.371094 28.035156 26.550781 29.019531 C 25.761719 29.96875 24.851562 30.269531 23.714844 30.207031 C 22.578125 30.144531 21.441406 30.195312 20.304688 30.195312 L 20.304688 30.125 C 19.097656 30.125 17.886719 30.125 16.679688 30.125 C 16.429688 30.125 16.183594 30.128906 15.933594 30.140625 C 15.167969 30.175781 14.464844 30.832031 13.625 30.148438 C 12.253906 29.027344 10.644531 28.210938 9.742188 26.519531 C 9.625 26.300781 9.511719 26.078125 9.699219 25.914062 C 11.09375 24.683594 11.96875 22.785156 13.9375 22.292969 C 15.078125 22.007812 16.203125 22.191406 17.335938 22.1875 C 17.710938 22.1875 17.925781 22.421875 18.03125 22.777344 C 18.28125 23.621094 18.910156 23.808594 19.628906 23.78125 C 20.871094 23.746094 22.113281 23.664062 23.355469 23.628906 C 23.808594 23.613281 24.292969 23.589844 24.621094 24.054688 C 24.828125 24.347656 25.117188 24.589844 25.03125 25.039062 C 24.933594 25.542969 24.546875 25.523438 24.210938 25.609375 C 22.378906 26.074219 20.554688 26.625 18.644531 26.101562 C 18.234375 25.988281 17.800781 25.964844 17.464844 25.636719 C 17.207031 25.390625 16.898438 25.21875 16.628906 25.558594 C 16.316406 25.953125 16.496094 26.351562 16.785156 26.671875 C 17.070312 26.984375 17.46875 27.054688 17.847656 27.15625 C 19.609375 27.632812 21.363281 27.621094 23.121094 27.132812 C 23.570312 27.007812 24.015625 26.808594 24.464844 26.792969 C 25.765625 26.742188 26.207031 25.894531 26.222656 24.710938 C 26.230469 24.132812 26.4375 23.898438 26.921875 23.800781 C 27.835938 23.617188 28.375 23.035156 28.746094 22.109375 C 29.238281 20.894531 30.34375 20.3125 31.394531 19.78125 C 31.898438 19.527344 32.449219 19.792969 32.863281 20.207031 C 33.289062 20.640625 33.054688 21.121094 32.863281 21.5625 Z M 32.863281 21.5625 "/>
<path style=" stroke:none;fill-rule:evenodd;fill:rgb(0%,0%,0%);fill-opacity:1;" d="M 15.007812 19.941406 C 15.59375 19.902344 15.527344 19.320312 15.511719 18.875 C 15.488281 18.15625 15.496094 17.445312 15.660156 16.738281 C 16.394531 13.539062 17.769531 10.886719 20.890625 9.675781 C 21.570312 9.410156 21.722656 8.957031 21.21875 8.277344 C 20.804688 7.722656 20.484375 7.078125 20.15625 6.453125 C 19.671875 5.539062 19.9375 4.898438 20.890625 4.605469 C 21.320312 4.476562 21.734375 4.566406 22.152344 4.671875 C 23.121094 4.914062 24.085938 5.226562 25.097656 5.121094 C 25.550781 5.074219 25.703125 5.207031 25.492188 5.679688 C 24.9375 6.9375 24.753906 8.613281 22.832031 8.339844 C 22.738281 8.324219 22.625 8.386719 22.527344 8.433594 C 22.144531 8.609375 21.605469 8.726562 21.769531 9.324219 C 21.945312 9.945312 22.445312 9.730469 22.847656 9.582031 C 23.621094 9.292969 24.273438 9.386719 24.851562 10.089844 C 25.265625 10.601562 25.789062 11.007812 26.265625 11.464844 C 27.902344 13.042969 29.132812 14.828125 28.96875 17.34375 C 28.941406 17.714844 29.074219 18.046875 29.472656 18.070312 C 29.882812 18.09375 30 17.730469 30.054688 17.390625 C 30.203125 16.394531 30.039062 15.445312 29.726562 14.5 C 29.035156 12.398438 27.515625 11.011719 26.042969 9.59375 C 25.632812 9.203125 25.527344 8.894531 25.691406 8.339844 C 26.042969 7.136719 26.625 6.054688 27.101562 4.917969 C 27.265625 4.523438 27.359375 4.085938 27.082031 3.730469 C 26.789062 3.351562 26.371094 3.429688 26 3.613281 C 25.105469 4.050781 24.203125 3.9375 23.285156 3.71875 C 22.492188 3.527344 21.714844 3.242188 20.871094 3.375 C 18.992188 3.675781 18.226562 5.246094 19.132812 6.996094 C 19.304688 7.328125 19.460938 7.671875 19.664062 7.980469 C 20 8.5 19.9375 8.804688 19.367188 9.109375 C 15.890625 10.984375 14.875 14.421875 14.324219 17.871094 C 14.355469 18.425781 14.351562 18.691406 14.386719 18.953125 C 14.449219 19.382812 14.40625 19.984375 15.007812 19.941406 Z M 15.007812 19.941406 "/>
<path style=" stroke:none;fill-rule:evenodd;fill:rgb(0%,0%,0%);fill-opacity:1;" d="M 22.914062 19.9375 C 22.40625 20.0625 21.992188 19.964844 21.734375 19.449219 C 21.542969 19.066406 21.332031 18.628906 20.855469 18.953125 C 20.449219 19.234375 20.585938 19.703125 20.757812 20.082031 C 21.128906 20.917969 21.925781 21.363281 22.535156 21.921875 C 23.0625 22.40625 23.015625 21.199219 23.476562 21.03125 C 23.609375 20.984375 23.742188 20.925781 23.863281 20.847656 C 25.414062 19.875 25.417969 17.507812 23.855469 16.546875 C 23.335938 16.222656 22.777344 15.960938 22.234375 15.691406 C 21.589844 15.371094 21.632812 14.882812 22 14.410156 C 22.582031 13.667969 23.097656 13.957031 23.5625 14.601562 C 23.765625 14.886719 24.019531 15.097656 24.382812 14.9375 C 24.609375 14.832031 24.660156 14.613281 24.617188 14.289062 C 24.59375 14.222656 24.5625 14.070312 24.492188 13.945312 C 24.042969 13.105469 23.136719 12.679688 22.796875 11.683594 C 22.652344 11.261719 21.976562 11.492188 22.019531 12.015625 C 22.085938 12.726562 21.6875 12.984375 21.3125 13.378906 C 20.152344 14.59375 20.410156 16.097656 21.867188 16.851562 C 22.347656 17.097656 22.828125 17.339844 23.296875 17.613281 C 23.75 17.871094 23.953125 18.304688 23.859375 18.84375 C 23.761719 19.398438 23.472656 19.804688 22.914062 19.9375 Z M 22.914062 19.9375 "/>
<path style=" stroke:none;fill-rule:evenodd;fill:rgb(0%,0%,0%);fill-opacity:1;" d="M 7.417969 27.546875 C 7.015625 27.601562 6.832031 27.8125 6.882812 28.167969 C 6.988281 28.84375 7.269531 29.394531 7.96875 29.523438 C 8.300781 29.585938 8.605469 29.398438 8.511719 29.039062 C 8.347656 28.382812 7.972656 27.847656 7.417969 27.546875 Z M 7.417969 27.546875 "/>
</g>
</svg>
