<svg width="40" height="40" xmlns="http://www.w3.org/2000/svg">

 <g>
  <title>background</title>
  <rect fill="none" id="canvas_background" height="42" width="42" y="-1" x="-1"/>
 </g>
 <g>
  <title>Layer 1</title>
  <g stroke="null" id="svg_7">
   <path fill="#787878" stroke="null" id="svg_1" d="m39.626808,10.714753l-0.008465,-0.038564a1.001719,1.001719 0 0 0 -0.072425,-0.188116c-0.006584,-0.011287 -0.013168,-0.021633 -0.018812,-0.03292a0.962215,0.962215 0 0 0 -0.282174,-0.313214l-0.015049,-0.012228l-0.011287,-0.005643a0.948106,0.948106 0 0 0 -0.155196,-0.083712l-3.640049,-1.50493c-0.234205,0.692268 -0.575636,1.250973 -1.007362,1.655423l1.770174,0.729891l-3.345647,1.379833c0.444895,0.552121 0.834296,1.085431 1.173845,1.58676l3.726583,-1.535969l0,5.894622l-16.795017,6.922677l0,-5.889919l5.540023,-2.283731c-0.316035,-0.572814 -0.658407,-1.128697 -1.005481,-1.656363l-5.491113,2.263979l-5.930364,-2.445511c-0.35554,0.527666 -0.698852,1.078847 -1.021471,1.649779l5.995264,2.471847l0,5.889919l-16.793136,-6.922677l0,-5.889919l3.287331,1.354437c0.346134,-0.50133 0.741178,-1.034639 1.191716,-1.579236l-2.924267,-1.205825l1.387357,-0.571873c-0.470291,-0.376232 -0.846523,-0.920829 -1.11647,-1.610275l-3.148125,1.298002a0.948106,0.948106 0 0 0 -0.155196,0.083712a0.063019,0.063019 0 0 0 -0.011287,0.005643l-0.015049,0.012228a0.962215,0.962215 0 0 0 -0.282174,0.313214c-0.005643,0.011287 -0.012228,0.021633 -0.018812,0.03292a1.001719,1.001719 0 0 0 -0.072425,0.188116l-0.008465,0.038564a0.929294,0.929294 0 0 0 -0.026336,0.21069l0,7.961079a0.958452,0.958452 0 0 0 0.591626,0.885087l0.90672,0.376232l0,11.957608a0.957512,0.957512 0 0 0 0.607615,0.89073l17.292585,6.76466l0.025396,0.007525a1.066619,1.066619 0 0 0 0.115691,0.03292l0.046088,0.010346a0.877562,0.877562 0 0 0 0.32356,0l0.045148,-0.010346a0.958452,0.958452 0 0 0 0.115691,-0.03292l0.026336,-0.007525l17.293526,-6.76466a0.956571,0.956571 0 0 0 0.608556,-0.89073l0,-12.031914l0.735534,-0.302867a0.958452,0.958452 0 0 0 0.591626,-0.885087l0,-7.961079a0.929294,0.929294 0 0 0 -0.026336,-0.21069zm-20.50467,26.753891l-15.379443,-6.01972l0,-10.514757l15.379443,6.340458l0,10.194019zm17.294466,-6.01972l-15.380383,6.01972l0,-10.264562l15.37568,-6.340458l0.004703,10.585301z"/>
   <path fill="#787878" stroke="null" id="svg_2" d="m5.339803,8.485575l0.005643,0.011287a2.888525,2.888525 0 0 0 0.238908,0.427964l0.015049,0.022574a2.05611,2.05611 0 0 0 0.142968,0.181532a0.313214,0.313214 0 0 0 0.023515,0.026336a1.685521,1.685521 0 0 0 0.353659,0.299105l0.035742,0.022574a1.449436,1.449436 0 0 0 0.203166,0.098761l0.041386,0.015049a1.475772,1.475772 0 0 0 0.237967,0.065841c1.128697,0.205047 3.028671,-0.061138 4.972853,-0.475934l0,0q0.270887,-0.058316 0.539894,-0.118513l0.154255,-0.035742l0.392222,-0.094058l0.174008,-0.041386l0.376232,-0.094058l0.156136,-0.038564c0.146731,-0.036683 0.292521,-0.073365 0.43643,-0.110989l0.082771,-0.020693c0.360243,-0.094058 0.711079,-0.188116 1.047807,-0.282174l0.028217,-0.007525l0.023515,-0.006584a5.072554,5.072554 0 0 1 0.196581,-4.384049c-3.09169,-2.343928 -6.899163,-4.51479 -8.277114,-3.315549c-1.759827,1.539731 -2.41071,5.096069 -1.813441,7.251881a4.004054,4.004054 0 0 0 0.211631,0.602913z"/>
   <path fill="#787878" stroke="null" id="svg_3" d="m5.145102,16.874619l4.077419,-1.14845a0.640536,0.640536 0 0 1 0.789148,0.445835l0.691327,2.539569c1.406169,-3.554456 3.877076,-6.584068 5.702744,-8.500973a5.140276,5.140276 0 0 1 -0.701674,-0.735534c-1.749481,0.489102 -4.006876,1.05251 -5.990562,1.337506c-2.488778,2.368383 -3.892125,4.706668 -4.568403,6.062046z"/>
   <circle fill="#787878" stroke="null" id="svg_4" r="3.808413" cy="6.348575" cx="19.70718"/>
   <path fill="#787878" stroke="null" id="svg_5" d="m23.007679,10.207779c1.825668,1.918786 4.297515,4.946516 5.704625,8.500032l0.690387,-2.539569a0.636773,0.636773 0 0 1 0.301927,-0.387519a0.646179,0.646179 0 0 1 0.487221,-0.059257l4.077419,1.14845c-0.675337,-1.354437 -2.077744,-3.693662 -4.567462,-6.063927c-1.983686,-0.282174 -4.242021,-0.846523 -5.991502,-1.338447a5.096069,5.096069 0 0 1 -0.702614,0.740237z"/>
   <path fill="#787878" stroke="null" id="svg_6" d="m24.387512,8.334142l0.030099,0.008465l0.020693,0.005643c0.337669,0.094058 0.690387,0.188116 1.053451,0.282174l0.06396,0.01693l0.458063,0.115691l0.136384,0.033861l0.403509,0.098761l0.154255,0.036683c0.137325,0.03292 0.27559,0.0649 0.413856,0.094058l0.135444,0.031039c0.179651,0.040445 0.360243,0.08089 0.540834,0.119454l0,0c1.947944,0.415737 3.856383,0.683803 4.975674,0.478756a1.658245,1.658245 0 0 0 0.201284,-0.052673l0,0a1.486118,1.486118 0 0 0 0.459004,-0.250195l0,0a1.823787,1.823787 0 0 0 0.188116,-0.174008l0,0a2.315711,2.315711 0 0 0 0.303808,-0.414796a0.040445,0.040445 0 0 1 0,-0.006584c0.042326,-0.073365 0.08089,-0.147671 0.115691,-0.223858a0.057375,0.057375 0 0 0 0.006584,-0.013168a3.944797,3.944797 0 0 0 0.179651,-0.465588l0,0c0.018812,-0.058316 0.035742,-0.114751 0.050791,-0.171186c0.594447,-2.155812 -0.057375,-5.712149 -1.818143,-7.242475c-1.36008,-1.202063 -5.148741,0.948106 -8.238551,3.283569l0,0l-0.033861,0.026336a5.073495,5.073495 0 0 1 0.197522,4.382168l0.001881,0.000941z"/>
  </g>
 </g>
</svg>