<svg width="40" height="40" xmlns="http://www.w3.org/2000/svg">

 <g>
  <title>background</title>
  <rect fill="none" id="canvas_background" height="42" width="42" y="-1" x="-1"/>
 </g>
 <g>
  <title>Layer 1</title>
  <path stroke="null" id="svg_1" fill="#787878" d="m22.311256,19.759137c2.635581,0 4.77201,2.136429 4.77201,4.77201l-1.193003,0c-0.418267,0 -0.819831,0.071819 -1.193003,0.203765l0,-0.203765c0,-1.317791 -1.068214,-2.386005 -2.386005,-2.386005l-16.702036,0c-1.317743,0 -2.386005,1.068214 -2.386005,2.386005l0,3.579008c0,3.357348 3.766595,5.965013 10.737023,5.965013c3.72966,0 6.542187,-0.746581 8.351018,-1.955093l0,2.712411c-2.157426,1.038628 -4.984007,1.628687 -8.351018,1.628687c-8.14093,0 -13.123028,-3.449209 -13.123028,-8.351018l0,-3.579008c0,-2.635581 2.136501,-4.77201 4.77201,-4.77201l16.702036,0zm15.509033,4.77201c0.418267,0 0.819831,0.071819 1.193003,0.203765l0,-0.203765c0,-2.635581 -2.136429,-4.77201 -4.77201,-4.77201l-6.596588,-0.0021c0.616544,0.688315 1.101857,1.496932 1.416571,2.385957l5.180017,0.002147c1.317791,0 2.386005,1.068214 2.386005,2.386005l1.193003,0zm-23.860051,-23.860051c4.612148,0 8.351018,3.73887 8.351018,8.351018c0,4.612148 -3.73887,8.351018 -8.351018,8.351018c-4.612148,0 -8.351018,-3.73887 -8.351018,-8.351018c0,-4.612148 3.73887,-8.351018 8.351018,-8.351018zm0,2.386005c-3.294381,0 -5.965013,2.670632 -5.965013,5.965013c0,3.294381 2.670632,5.965013 5.965013,5.965013c3.294381,0 5.965013,-2.670632 5.965013,-5.965013c0,-3.294381 -2.670632,-5.965013 -5.965013,-5.965013zm16.702036,2.386005c3.294357,0 5.965013,2.670632 5.965013,5.965013c0,3.294381 -2.670656,5.965013 -5.965013,5.965013c-3.294357,0 -5.965013,-2.670632 -5.965013,-5.965013c0,-3.294381 2.670656,-5.965013 5.965013,-5.965013zm0,2.386005c-1.976567,0 -3.579008,1.602369 -3.579008,3.579008c0,1.976638 1.602441,3.579008 3.579008,3.579008c1.976567,0 3.579008,-1.602369 3.579008,-3.579008c0,-1.976638 -1.602441,-3.579008 -3.579008,-3.579008zm-4.77201,19.088041c-0.658776,0 -1.193003,0.534227 -1.193003,1.193003c0,0.658776 0.534227,1.193003 1.193003,1.193003l11.930026,0c0.658776,0 1.193003,-0.534227 1.193003,-1.193003c0,-0.658776 -0.534227,-1.193003 -1.193003,-1.193003l-11.930026,0zm0,4.77201c-0.658776,0 -1.193003,0.534227 -1.193003,1.193003c0,0.658776 0.534227,1.193003 1.193003,1.193003l11.930026,0c0.658776,0 1.193003,-0.534227 1.193003,-1.193003c0,-0.658776 -0.534227,-1.193003 -1.193003,-1.193003l-11.930026,0zm0,4.77201c-0.658776,0 -1.193003,0.534227 -1.193003,1.193003c0,0.658776 0.534227,1.193003 1.193003,1.193003l11.930026,0c0.658776,0 1.193003,-0.534227 1.193003,-1.193003c0,-0.658776 -0.534227,-1.193003 -1.193003,-1.193003l-11.930026,0z"/>
 </g>
</svg>