<svg width="40" height="40" xmlns="http://www.w3.org/2000/svg">

 <g>
  <title>background</title>
  <rect fill="none" id="canvas_background" height="42" width="42" y="-1" x="-1"/>
 </g>
 <g>
  <title>Layer 1</title>
  <g stroke="null" id="svg_10">
   <path fill="#787878" stroke="null" id="svg_2" d="m8.666666,6.994444l0,28.888888l21.666666,0l0,-28.888888l-0.722222,0l-20.944444,0zm1.444444,27.444444l0,-26l18.777777,0l0,26l-18.777777,0z"/>
   <rect fill="#787878" stroke="null" id="svg_3" y="12.122222" x="11.916666" width="7.583333" height="1.444444"/>
   <path fill="#787878" stroke="null" id="svg_4" d="m27.805555,1.722222l0,-1.444444l-16.611111,0l0,1.444444l-5.055555,0l0,37.555555l26.722222,0l0,-37.555555l-5.055555,0zm-15.166666,0l13.722222,0l0,1.516667l-13.722222,0l0,-1.516667zm18.777777,36.11111l-23.833333,0l0,-34.666666l3.611111,0l0,1.444444l16.611111,0l0,-0.722222l0,-0.722222l3.611111,0l0,34.666666z"/>
   <rect fill="#787878" stroke="null" id="svg_5" y="19.416666" x="11.916666" width="7.583333" height="1.444444"/>
   <path fill="#787878" stroke="null" id="svg_6" d="m21.377777,23.027777l5.777778,0l0,-0.722222l0,-5.055555l-5.777778,0l0,5.777778zm1.444444,-4.333333l2.888889,0l0,2.888889l-2.888889,0l0,-2.888889z"/>
   <rect fill="#787878" stroke="null" id="svg_7" y="26.71111" x="11.916666" width="7.583333" height="1.444444"/>
   <path fill="#787878" stroke="null" id="svg_8" d="m21.377777,30.322221l5.777778,0l0,-0.722222l0,-5.055555l-5.777778,0l0,5.777778zm1.444444,-4.333333l2.888889,0l0,2.888889l-2.888889,0l0,-2.888889z"/>
   <path fill="#787878" stroke="null" id="svg_9" d="m27.588888,9.522222l-0.505556,0.433333l-5.705555,0l0,5.777778l5.777778,0l0,-0.722222l0,-3.105555l1.444444,-1.372222l-1.011111,-1.011111zm-4.766667,1.877778l2.816667,0l-1.011111,0.938889l-0.505556,-0.505556l-1.155556,0.938889l1.3,1.588889l-1.516667,0l0,-2.961111l0.072222,0zm2.888889,2.888889l-1.011111,0l1.011111,-0.938889l0,0.938889z"/>
  </g>
 </g>
</svg>