<svg width="40" height="40" xmlns="http://www.w3.org/2000/svg">

 <g>
  <title>background</title>
  <rect fill="none" id="canvas_background" height="42" width="42" y="-1" x="-1"/>
 </g>
 <g>
  <title>Layer 1</title>
  <path stroke="null" id="svg_2" fill="#787878" d="m36.126472,5.577852l-10.532628,0l0,-4.956531l-18.843492,0l-5.939163,5.939163l0,27.517421l13.63046,0l0,1.858699c0,1.708145 1.389687,3.097832 3.097832,3.097832l18.586991,0c1.708145,0 3.097832,-1.389687 3.097832,-3.097832l0,-27.260921c0,-1.708145 -1.389687,-3.097832 -3.097832,-3.097832zm1.858699,3.097832l0,0.619566l-22.30439,0l0,-0.619566c0,-1.024763 0.833936,-1.858699 1.858699,-1.858699l18.586991,0c1.024763,0 1.858699,0.833936 1.858699,1.858699zm-16.108726,-3.097832l-4.336965,0c-1.495633,0 -2.747157,1.066274 -3.035256,2.478266l-8.736506,0l0,8.673929l8.673929,0l0,2.478266l-9.913062,0l0,-11.771761l3.097832,0l0,-3.097832l14.250027,0l0,1.239133zm-7.434797,9.913062l-7.434797,0l0,-6.195664l7.434797,0l0,1.239133l-6.195664,0l0,1.239133l6.195664,0l0,3.717398zm-8.054363,-9.293496l-3.460898,0l3.460898,-3.460898l0,3.460898zm-3.097832,1.239133l0,13.010894l11.152195,0l0,1.239133l-8.673929,0l0,1.239133l8.673929,0l0,1.239133l-11.152195,0l0,1.239133l11.152195,0l0,3.717398l-12.391328,0l0,-21.684823l1.239133,0zm12.391328,3.097832l22.30439,0l0,22.30439l-22.30439,0l0,-22.30439zm8.673929,-4.956531l-1.239133,0l0,-2.478266l-15.489159,0l0,-1.239133l16.728292,0l0,3.717398zm-22.30439,27.260921l0,-2.478266l12.391328,0l0,2.478266l-12.391328,0zm34.076151,4.956531l-18.586991,0c-1.024763,0 -1.858699,-0.833936 -1.858699,-1.858699l0,-1.858699l22.30439,0l0,1.858699c0,1.024763 -0.833936,1.858699 -1.858699,1.858699z"/>
  <rect stroke="null" id="svg_6" fill="#787878" y="35.187691" x="25.227769" width="4.65858" height="1.03524"/>
  <g stroke="null" id="svg_22">
   <path stroke="null" id="svg_7" fill="#787878" d="m17.159135,30.670774l7.218295,0l0,-7.218295l-7.218295,0l0,7.218295zm1.203049,-6.015246l4.812197,0l0,4.812197l-4.812197,0l0,-4.812197z"/>
   <path stroke="null" id="svg_8" fill="#787878" d="m27.208807,13.651838l-0.850556,-0.850556l-1.980821,1.980821l0,-0.984094l-7.218295,0l0,7.218295l7.218295,0l0,-4.53309l2.831376,-2.831376zm-4.034426,6.161417l-4.812197,0l0,-4.812197l4.812197,0l0,0.984094l-1.804574,1.804574l-1.980821,-1.980821l-0.850556,0.850556l2.831376,2.831376l1.804574,-1.804574l0,2.126991z"/>
   <rect stroke="null" id="svg_11" fill="#787878" y="18.610205" x="35.204873" width="1.203049" height="1.203049"/>
   <rect stroke="null" id="svg_12" fill="#787878" y="18.610205" x="25.580479" width="8.421345" height="1.203049"/>
   <rect stroke="null" id="svg_13" fill="#787878" y="23.452478" x="29.189627" width="7.218295" height="1.203049"/>
   <rect stroke="null" id="svg_14" fill="#787878" y="23.452478" x="25.580479" width="2.406098" height="1.203049"/>
   <rect stroke="null" id="svg_15" fill="#787878" y="25.858577" x="25.580479" width="10.827443" height="1.203049"/>
   <rect stroke="null" id="svg_16" fill="#787878" y="28.264675" x="35.204873" width="1.203049" height="1.203049"/>
   <rect stroke="null" id="svg_17" fill="#787878" y="28.264675" x="25.580479" width="8.421345" height="1.203049"/>
   <g stroke="null" id="svg_20">
    <rect stroke="null" id="svg_9" fill="#787878" y="13.798008" x="27.986578" width="8.421345" height="1.203049"/>
    <rect stroke="null" id="svg_10" fill="#787878" y="27.841043" x="28.267411" width="18" transform="matrix(0.6015246241348109,-0.0017444214099909515,0.0017444214099909515,0.6015246241348109,8.526280253696845,-0.5455007995166223) " height="2"/>
   </g>
  </g>
  <g stroke="null" id="svg_23">
   <rect stroke="null" id="svg_3" fill="#787878" y="21.704567" x="3.326296" width="1.310007" height="1.310007"/>
   <rect stroke="null" id="svg_4" fill="#787878" y="26.944595" x="12.496344" width="1.310007" height="1.310007"/>
   <rect stroke="null" id="svg_5" fill="#787878" y="26.944595" x="3.326296" width="7.860041" height="1.310007"/>
   <rect stroke="null" id="svg_18" fill="#787878" y="12.534519" x="8.566323" width="1.310007" height="1.310007"/>
   <rect stroke="null" id="svg_19" fill="#787878" y="12.534519" x="11.186337" width="1.310007" height="1.310007"/>
  </g>
 </g>
</svg>