<svg width="40" height="40" xmlns="http://www.w3.org/2000/svg">

 <g>
  <title>background</title>
  <rect fill="none" id="canvas_background" height="42" width="42" y="-1" x="-1"/>
 </g>
 <g>
  <title>Layer 1</title>
  <g stroke="null" id="svg_13">
   <path stroke="null" id="svg_3" fill="#787878" d="m11.82887,13.348696c-0.187386,0 -0.312309,0.124924 -0.312309,0.312309s0.124924,0.312309 0.312309,0.312309l8.744664,0c0.187386,0 0.312309,-0.124924 0.312309,-0.312309s-0.124924,-0.312309 -0.312309,-0.312309l-8.744664,0z"/>
   <path stroke="null" id="svg_4" fill="#787878" d="m9.955013,12.099458l12.492378,0c0.187386,0 0.312309,-0.124924 0.312309,-0.312309s-0.124924,-0.312309 -0.312309,-0.312309l-12.492378,0c-0.187386,0 -0.312309,0.124924 -0.312309,0.312309s0.187386,0.312309 0.312309,0.312309z"/>
   <path stroke="null" id="svg_5" fill="#787878" d="m16.888283,29.963558c-0.437233,0 -0.812005,0.187386 -1.061852,0.374771c-0.249848,-0.187386 -0.624619,-0.374771 -1.061852,-0.374771c-0.249848,0 -0.499695,0.062462 -0.687081,0.249848c-0.249848,0.249848 -0.437233,0.562157 -0.437233,0.936928c0,0.374771 0.124924,0.687081 0.437233,0.936928l1.561547,1.436623c0.062462,0.062462 0.124924,0.062462 0.187386,0.062462c0.062462,0 0.124924,0 0.187386,-0.062462l1.561547,-1.436623c0.249848,-0.249848 0.437233,-0.624619 0.437233,-0.936928s-0.187386,-0.687081 -0.437233,-0.936928c-0.187386,-0.187386 -0.374771,-0.249848 -0.687081,-0.249848zm0.312309,1.686471l-1.374162,1.249238l-1.374162,-1.249238c-0.124924,-0.124924 -0.187386,-0.312309 -0.187386,-0.499695c0,-0.187386 0.062462,-0.374771 0.249848,-0.499695c0.062462,-0.062462 0.187386,-0.124924 0.249848,-0.124924c0.249848,0 0.562157,0.124924 0.874466,0.374771c0.124924,0.124924 0.312309,0.124924 0.437233,0c0.437233,-0.374771 0.936928,-0.499695 1.124314,-0.312309c0.124924,0.124924 0.249848,0.312309 0.249848,0.499695c-0.062462,0.249848 -0.124924,0.437233 -0.249848,0.562157z"/>
   <path stroke="null" id="svg_6" fill="#787878" d="m11.82887,17.096409c-0.187386,0 -0.312309,0.124924 -0.312309,0.312309s0.124924,0.312309 0.312309,0.312309l8.744664,0c0.187386,0 0.312309,-0.124924 0.312309,-0.312309s-0.124924,-0.312309 -0.312309,-0.312309l-8.744664,0z"/>
   <path stroke="null" id="svg_7" fill="#787878" d="m9.955013,15.847172l12.492378,0c0.187386,0 0.312309,-0.124924 0.312309,-0.312309s-0.124924,-0.312309 -0.312309,-0.312309l-12.492378,0c-0.187386,0 -0.312309,0.124924 -0.312309,0.312309s0.187386,0.312309 0.312309,0.312309z"/>
   <path stroke="null" id="svg_8" fill="#787878" d="m11.82887,22.09336c-0.187386,0 -0.312309,0.124924 -0.312309,0.312309s0.124924,0.312309 0.312309,0.312309l8.744664,0c0.187386,0 0.312309,-0.124924 0.312309,-0.312309s-0.124924,-0.312309 -0.312309,-0.312309l-8.744664,0z"/>
   <path stroke="null" id="svg_9" fill="#787878" d="m9.955013,20.844123l12.492378,0c0.187386,0 0.312309,-0.124924 0.312309,-0.312309s-0.124924,-0.312309 -0.312309,-0.312309l-12.492378,0c-0.187386,0 -0.312309,0.124924 -0.312309,0.312309s0.187386,0.312309 0.312309,0.312309z"/>
   <path stroke="null" id="svg_10" fill="#787878" d="m20.885844,26.153383c0,-0.187386 -0.124924,-0.312309 -0.312309,-0.312309l-8.744664,0c-0.187386,0 -0.312309,0.124924 -0.312309,0.312309s0.124924,0.312309 0.312309,0.312309l8.744664,0c0.187386,0 0.312309,-0.124924 0.312309,-0.312309z"/>
   <path stroke="null" id="svg_11" fill="#787878" d="m22.759701,24.279527c0,-0.187386 -0.124924,-0.312309 -0.312309,-0.312309l-12.492378,0c-0.187386,0 -0.312309,0.124924 -0.312309,0.312309s0.124924,0.312309 0.312309,0.312309l12.492378,0c0.187386,0 0.312309,-0.124924 0.312309,-0.312309z"/>
   <path stroke="null" id="svg_12" fill="#787878" d="m31.129594,18.595495c0,0 0.062462,0 0,0l4.684642,-0.249848c0.187386,0 0.374771,-0.124924 0.499695,-0.312309l0.499695,-0.812005c0,0 0,-0.062462 0,-0.062462l2.998171,-4.122485c0.124924,-0.187386 0.187386,-0.437233 0.062462,-0.624619c-0.124924,-0.187386 -0.312309,-0.312309 -0.562157,-0.374771l-1.3117,-0.062462l-1.561547,-2.498476c-0.124924,-0.187386 -0.312309,-0.312309 -0.562157,-0.312309l-3.372942,0.124924l-0.499695,-0.812005c-0.124924,-0.187386 -0.312309,-0.312309 -0.562157,-0.312309c-0.249848,0 -0.437233,0.187386 -0.562157,0.374771l-2.31109,5.309261c-0.062462,0.187386 -0.062462,0.374771 0,0.562157l1.561547,3.060633c-0.062462,0.062462 -0.062462,0.062462 -0.124924,0.124924l-1.748933,2.935709l0,-13.429306l1.624009,0c0.374771,0 0.624619,-0.249848 0.624619,-0.624619l0,-1.624009c0,-1.3117 -1.499085,-2.748323 -2.873247,-2.748323l-22.673666,0c0,0 -0.062462,0 -0.062462,0c-1.3117,0.187386 -2.436014,1.936319 -2.436014,3.060633l0,0.062462l0,27.483231l-1.873857,0c-0.374771,0 -0.624619,0.249848 -0.624619,0.624619l0,2.685861c0,1.3117 1.061852,2.31109 2.373552,2.31109l0.749543,0l19.363186,0l2.498476,0l1.249238,0c1.3117,0 2.123704,-1.3117 2.123704,-2.498476l0,-11.805297l4.30987,1.3117c0.062462,0 0.124924,0 0.187386,0c0.062462,0 0.187386,0 0.249848,-0.062462l3.497866,-1.686471c0.249848,-0.124924 0.374771,-0.374771 0.374771,-0.624619s-0.187386,-0.437233 -0.437233,-0.562157l-4.809565,-1.499085c-0.124924,-0.062462 -0.312309,-0.062462 -0.437233,0.062462l-2.373552,1.124314l2.061242,-3.560328c0.062462,0.062462 0.124924,0.062462 0.187386,0.062462zm-3.435404,-15.240701c0.687081,0 1.624009,0.936928 1.624009,1.499085l0,0.99939l-1.624009,0c0,0 0,0 0,0l-19.613033,0l0,-0.99939c0,-0.499695 -0.249848,-0.99939 -0.687081,-1.499085l20.300114,0zm-26.483841,32.667568l0,-2.061242l1.249238,0l0,3.123094l-0.062462,0c-0.624619,0 -1.186776,-0.499695 -1.186776,-1.061852zm24.984756,1.061852l-1.249238,0l-2.498476,0l-18.738567,0l0,-31.855563l0,-0.062462c0,-0.624619 0.812005,-1.811395 1.374162,-1.811395l0,0c0.687081,0 1.748933,0.99939 1.748933,1.499085l0,1.624009c0,0.374771 0.249848,0.624619 0.624619,0.624619l19.613033,0l0,15.55301l-7.370503,12.804687c-0.187386,0.312309 -0.062462,0.687081 0.249848,0.874466c0.124924,0.062462 0.187386,0.062462 0.312309,0.062462c0.187386,0 0.437233,-0.124924 0.562157,-0.312309l6.308651,-10.868369l0,10.618521c-0.062462,0.562157 -0.374771,1.249238 -0.936928,1.249238zm5.371722,-14.86593l3.060633,0.936928l-1.873857,0.874466l-3.060633,-0.936928l1.873857,-0.874466zm4.747104,-6.496036l-1.561547,-2.623399l3.372942,0.124924l-1.811395,2.498476zm-2.31109,-3.810175l-0.249848,-0.374771l0.874466,0l0.312309,0.374771l-0.749543,0c0,-0.062462 -0.062462,-0.062462 -0.187386,0zm1.561547,-1.499085l0.936928,1.499085l-0.687081,0l-0.812005,-0.99939l-1.561547,0l-0.249848,-0.374771l2.373552,-0.124924zm-3.997561,-0.249848l3.935099,6.683422l-0.187386,0.312309l-3.747713,0.187386l-1.686471,-3.248018l1.686471,-3.935099z"/>
  </g>
 </g>
</svg>