<svg width="40" height="40" xmlns="http://www.w3.org/2000/svg">

 <g>
  <title>background</title>
  <rect fill="none" id="canvas_background" height="42" width="42" y="-1" x="-1"/>
 </g>
 <g>
  <title>Layer 1</title>
  <path stroke="#787878" stroke-miterlimit="10" stroke-linejoin="round" stroke-linecap="round" stroke-width="2" fill="none" id="svg_1" d="m36.011228,20.803144c-1.761017,0.320185 -3.201849,0 -3.842219,-1.120647c-0.64037,-1.120647 -0.160092,-2.721572 0.960555,-4.002312c-1.440832,-1.440832 -3.041757,-2.401387 -4.962866,-2.881664c-0.480277,1.600925 -1.600925,2.881664 -2.881664,2.881664s-2.401387,-1.120647 -2.881664,-2.881664c-1.92111,0.480277 -3.682127,1.440832 -4.962866,2.881664c1.120647,1.28074 1.600925,2.881664 0.960555,4.002312c-0.64037,1.120647 -2.241294,1.440832 -3.842219,1.120647c-0.480277,0.960555 -0.64037,1.92111 -0.64037,2.881664s0.160092,1.92111 0.320185,2.881664c1.761017,-0.320185 3.201849,0 3.842219,1.120647c0.64037,1.120647 0.160092,2.721572 -0.960555,4.002312c1.440832,1.440832 3.041757,2.401387 4.962866,2.881664c0.480277,-1.600925 1.600925,-2.881664 2.881664,-2.881664s2.401387,1.120647 2.881664,2.881664c1.92111,-0.480277 3.682127,-1.440832 4.962866,-2.881664c-1.120647,-1.28074 -1.600925,-2.881664 -0.960555,-4.002312c0.64037,-1.120647 2.241294,-1.440832 3.842219,-1.120647c0.320185,-0.960555 0.320185,-1.92111 0.320185,-2.881664s0.160092,-1.92111 0,-2.881664z" class="st0"/>
  <circle stroke="#787878" stroke-miterlimit="10" stroke-linejoin="round" stroke-linecap="round" stroke-width="2" fill="none" id="svg_2" r="2.582363" cy="23.409317" cx="25.660566" class="st0"/>
  <polyline stroke="#787878" stroke-miterlimit="10" stroke-linejoin="round" stroke-linecap="round" stroke-width="2" fill="none" id="svg_3" points="22.66056728363037,1.336106538772583 22.66056728363037,9.915140867233276 31.23960304260254,9.915140867233276 22.66056728363037,1.336106538772583 5.502495765686035,1.336106538772583 5.502495765686035,38.51192545890808 31.23960304260254,38.51192545890808 31.23960304260254,33.221516370773315 " class="st0"/>
  <line stroke="#787878" stroke-miterlimit="10" stroke-linejoin="round" stroke-linecap="round" stroke-width="2" fill="none" id="svg_4" y2="13.996672" y1="10.24792" x2="31.2396" x1="31.2396" class="st0"/>
 </g>
</svg>