<svg width="40" height="40" xmlns="http://www.w3.org/2000/svg">

 <g>
  <title>background</title>
  <rect fill="none" id="canvas_background" height="42" width="42" y="-1" x="-1"/>
 </g>
 <g>
  <title>Layer 1</title>
  <path fill="#787878" stroke="null" id="svg_1" d="m34.116529,5.134334l-5.49197,0l0,-1.401773a0.677185,0.677185 0 0 0 -0.677185,-0.677185l-2.099273,0l0,-2.031555a0.677185,0.677185 0 0 0 -0.677185,-0.677185l-10.076511,0a0.677185,0.677185 0 0 0 -0.677185,0.677185l0,2.031555l-2.099273,0a0.677185,0.677185 0 0 0 -0.677185,0.677185l0,1.408545l-5.49197,0a0.677185,0.677185 0 0 0 -0.677185,0.677185l0,33.127886a0.677185,0.677185 0 0 0 0.677185,0.677185l27.967737,0a0.677185,0.677185 0 0 0 0.677185,-0.677185l0,-33.134658a0.677185,0.677185 0 0 0 -0.677185,-0.677185zm-9.622798,-3.433327l0,2.823861l-8.722142,0l0,-0.792306l0,0l0,-2.031555l8.722142,0zm-10.076511,2.70874l0,0.799078a0.677185,0.677185 0 0 0 0.677185,0.677185l10.076511,0a0.677185,0.677185 0 0 0 0.677185,-0.677185l0,-0.799078l1.422088,0l0,1.408545l0,0l0,2.654565l-14.275058,0l0,-2.661337l0,0l0,-1.401773l1.422088,0zm-4.198546,2.08573l0,2.654565a0.677185,0.677185 0 0 0 0.677185,0.677185l17.051516,0a0.677185,0.677185 0 0 0 0.677185,-0.677185l0,-2.661337l1.462719,0l0,28.069315l-19.909236,0l0,-28.069315l0.040631,0.006772zm23.261302,31.780288l-26.653998,0l0,-31.78706l2.031555,0l0,28.746499a0.677185,0.677185 0 0 0 0.677185,0.677185l21.229747,0a0.677185,0.677185 0 0 0 0.677185,-0.677185l0,-28.746499l1.997695,0l0.040631,31.78706z"/>
  <path fill="#787878" stroke="null" id="svg_2" d="m12.144251,13.518237l6.080659,0a0.608066,0.608066 0 0 0 0,-1.216132l-6.080659,0a0.608066,0.608066 0 0 0 0,1.216132z"/>
  <path fill="#787878" stroke="null" id="svg_3" d="m24.342556,13.472731l4.094322,0a0.595105,0.595105 0 0 0 0,-1.19021l-4.094322,0a0.595105,0.595105 0 0 0 0,1.19021z"/>
  <path fill="#787878" stroke="null" id="svg_4" d="m12.131543,15.719858l2.415056,0a0.583347,0.583347 0 0 0 0,-1.166694l-2.415056,0a0.583347,0.583347 0 0 0 0,1.166694z"/>
  <path fill="#787878" stroke="null" id="svg_5" d="m29.058047,14.813079a0.648354,0.648354 0 0 0 -0.648354,-0.648354l-8.279483,0a0.648354,0.648354 0 0 0 0,1.296708l8.279483,0a0.648354,0.648354 0 0 0 0.648354,-0.648354z"/>
  <path fill="#787878" stroke="null" id="svg_6" d="m12.083396,17.831625l6.281803,0a0.62818,0.62818 0 0 0 0,-1.256361l-6.281803,0a0.62818,0.62818 0 0 0 0,1.256361z"/>
  <path fill="#787878" stroke="null" id="svg_7" d="m24.030901,17.7314l4.211723,0a0.612169,0.612169 0 0 0 0,-1.224338l-4.211723,0a0.612169,0.612169 0 0 0 0,1.224338z"/>
  <path fill="#787878" stroke="null" id="svg_8" d="m12.133467,19.988809l2.372645,0a0.573103,0.573103 0 0 0 0,-1.146205l-2.372645,0a0.573103,0.573103 0 0 0 0,1.146205z"/>
  <path fill="#787878" stroke="null" id="svg_9" d="m19.411894,19.203156a0.644553,0.644553 0 0 0 0.644553,0.644553l8.230937,0a0.644553,0.644553 0 0 0 0,-1.289105l-8.230937,0a0.644553,0.644553 0 0 0 -0.644553,0.644553z"/>
  <path fill="#787878" stroke="null" id="svg_10" d="m12.020966,22.338101l6.340788,0a0.634079,0.634079 0 0 0 0,-1.268158l-6.340788,0a0.634079,0.634079 0 0 0 0,1.268158z"/>
  <path fill="#787878" stroke="null" id="svg_11" d="m28.056875,20.939143l-4.277174,0a0.621682,0.621682 0 1 0 0,1.243365l4.277174,0a0.621682,0.621682 0 0 0 0,-1.243365z"/>
  <path stroke="null" fill="#787878" id="svg_12" d="m18.804318,29.402144l-2.182934,0a0.513632,0.513632 0 0 0 -0.513632,0.513632l0,2.53734a0.513632,0.513632 0 0 0 0.513632,0.513632l2.182934,0a0.513632,0.513632 0 0 0 0.513632,-0.513632l0,-2.53734a0.513632,0.513632 0 0 0 -0.513632,-0.513632zm-0.513632,2.53734l-1.155671,0l0,-1.510077l1.155671,0l0,1.510077z"/>
  <path stroke="null" fill="#787878" id="svg_13" d="m23.089892,27.560792l-2.508255,0a0.590178,0.590178 0 0 0 -0.590178,0.590178l0,4.166654a0.590178,0.590178 0 0 0 0.590178,0.590178l2.508255,0a0.590178,0.590178 0 0 0 0.590178,-0.590178l0,-4.166654a0.590178,0.590178 0 0 0 -0.590178,-0.590178zm-0.590178,4.166654l-1.3279,0l0,-2.986299l1.3279,0l0,2.986299z"/>
  <path stroke="null" fill="#787878" id="svg_14" d="m24.262044,25.272974l0,6.812577a0.736495,0.736495 0 0 0 0.736495,0.736495l3.130103,0a0.736495,0.736495 0 0 0 0.736495,-0.736495l0,-6.812577a0.736495,0.736495 0 0 0 -0.736495,-0.736495l-3.130103,0a0.736495,0.736495 0 0 0 -0.736495,0.736495zm1.47299,0.736495l1.657113,0l0,5.339587l-1.657113,0l0,-5.339587z"/>
 </g>
</svg>