<svg width="40" height="40" xmlns="http://www.w3.org/2000/svg">

 <g>
  <title>background</title>
  <rect fill="none" id="canvas_background" height="42" width="42" y="-1" x="-1"/>
 </g>
 <g>
  <title>Layer 1</title>
  <path stroke="#787878" id="svg_4" fill="#ffffff" d="m19.531691,9.755525l-10.045488,0c-0.347197,0 -0.627843,-0.279551 -0.627843,-0.625395l0,-5.003157c0,-0.345843 0.280646,-0.625395 0.627843,-0.625395l10.045488,0c0.347197,0 0.627843,0.279551 0.627843,0.625395l0,5.003157c0,0.345843 -0.280646,0.625395 -0.627843,0.625395z"/>
  <path stroke="#787878" id="svg_7" fill="#ffffff" d="m30.832865,25.591608l-11.301174,0c-0.347197,0 -0.627843,-0.279551 -0.627843,-0.625395l0,-12.507893c0,-0.345843 0.280646,-0.625395 0.627843,-0.625395l11.301174,0c0.347197,0 0.627843,0.279551 0.627843,0.625395l0,12.507893c0,0.345843 -0.280646,0.625395 -0.627843,0.625395z"/>
  <path fill="#ffffff" stroke="#787878" id="svg_9" d="m36.483452,3.501579l-2.511372,0l0,-1.876184c0,-0.345218 -0.281274,-0.625395 -0.627843,-0.625395l-26.369407,0c-0.346569,0 -0.627843,0.280177 -0.627843,0.625395l0,14.113906c-0.819963,0.176987 -1.660645,0.27017 -2.511372,0.27017l-1.255686,0c-1.038452,0 -1.883529,0.841781 -1.883529,1.876184l0,2.501579c0,1.034403 0.845077,1.876184 1.883529,1.876184l1.255686,0c0.850727,0 1.691409,0.093184 2.511372,0.27017l0,16.615485c0,0.345218 0.281274,0.625395 0.627843,0.625395l17.579604,0c0.084131,0 0.165751,-0.016886 0.24172,-0.048781c0.075969,-0.031895 0.145032,-0.077549 0.202165,-0.135085l8.789174,-8.7549c0.057762,-0.056911 0.103594,-0.125704 0.135614,-0.201377c0.03202,-0.075673 0.048972,-0.156974 0.048972,-0.240777l0,-20.638023l2.511372,0c1.730963,0 3.139215,-1.40276 3.139215,-3.126973s-1.408252,-3.126973 -3.139215,-3.126973zm-2.511372,2.501579l-8.161959,0l0,-1.250789l8.161959,0l0,1.250789zm-9.417645,1.826152l-1.506195,-1.200758l1.506195,-1.200758l0,2.401515zm-20.090976,13.205208l0,-3.79552c2.229471,-0.105692 4.381089,-0.767359 6.27843,-1.944352l0,7.684224c-1.897342,-1.177618 -4.04896,-1.83866 -6.27843,-1.944352zm-2.511372,-0.647283l0,-2.501579c0,-0.344592 0.281902,-0.625395 0.627843,-0.625395l0.627843,0l0,3.752368l-0.627843,0c-0.345942,0 -0.627843,-0.280802 -0.627843,-0.625395zm23.230192,17.252137l0,-6.620428l6.646346,0l-6.646346,6.620428zm7.534116,-7.871217l-8.161959,0c-0.346569,0 -0.627843,0.280177 -0.627843,0.625395l0,8.13013l-16.323918,0l0,-15.639869c0.976924,0.327707 1.914921,0.77674 2.786367,1.355856l0.632866,0.420265c0.10485,0.070044 0.226023,0.105066 0.347825,0.105066c0.101711,0 0.203421,-0.02439 0.296342,-0.073797c0.204049,-0.108819 0.331501,-0.320827 0.331501,-0.551598l0,-10.006314c0,-0.230771 -0.127452,-0.442779 -0.331501,-0.551598c-0.204049,-0.109444 -0.452047,-0.096936 -0.644167,0.03127l-0.632866,0.420265c-0.871446,0.57849 -1.808816,1.027523 -2.786367,1.355856l0,-13.138291l25.113721,0l0,1.250789l-7.534116,0c-0.14252,0 -0.280646,0.048155 -0.392402,0.136961l-3.139215,2.501579c-0.148799,0.118825 -0.235441,0.298313 -0.235441,0.488433s0.086642,0.369608 0.235441,0.488433l3.139215,2.501579c0.111756,0.088806 0.249882,0.136961 0.392402,0.136961l7.534116,0l0,20.012629zm-6.906273,-21.263418l0,-1.250789l8.161959,0l0,1.250789l-8.161959,0zm10.673331,0l-1.255686,0l0,-3.752368l1.255686,0c1.038452,0 1.883529,0.841781 1.883529,1.876184s-0.845077,1.876184 -1.883529,1.876184z"/>
  <circle fill="#787878" stroke="#787878" id="svg_10" r="0.596039" cy="6.628552" cx="11.997575"/>
  <circle fill="#787878" stroke="#787878" id="svg_11" r="0.596039" cy="6.628552" cx="14.508947"/>
  <circle fill="#787878" stroke="#787878" id="svg_12" r="0.596039" cy="6.628552" cx="17.020319"/>
  <path fill="#787878" stroke="#787878" id="svg_13" d="m21.41522,15.384077c0,0.345218 0.281274,0.625395 0.627843,0.625395l6.27843,0c0.346569,0 0.627843,-0.280177 0.627843,-0.625395s-0.281274,-0.625395 -0.627843,-0.625395l-6.27843,0c-0.346569,0 -0.627843,0.280177 -0.627843,0.625395z"/>
  <path fill="#787878" stroke="#787878" id="svg_14" d="m28.321493,19.761839l-6.27843,0c-0.346569,0 -0.627843,0.280177 -0.627843,0.625395s0.281274,0.625395 0.627843,0.625395l6.27843,0c0.346569,0 0.627843,-0.280177 0.627843,-0.625395s-0.281274,-0.625395 -0.627843,-0.625395z"/>
  <path fill="#787878" stroke="#787878" id="svg_15" d="m28.321493,22.263418l-6.27843,0c-0.346569,0 -0.627843,0.280177 -0.627843,0.625395s0.281274,0.625395 0.627843,0.625395l6.27843,0c0.346569,0 0.627843,-0.280177 0.627843,-0.625395s-0.281274,-0.625395 -0.627843,-0.625395z"/>
  <path fill="#787878" stroke="#787878" id="svg_16" d="m28.321493,17.260261l-1.883529,0c-0.346569,0 -0.627843,0.280177 -0.627843,0.625395s0.281274,0.625395 0.627843,0.625395l1.883529,0c0.346569,0 0.627843,-0.280177 0.627843,-0.625395s-0.281274,-0.625395 -0.627843,-0.625395z"/>
  <path fill="#787878" stroke="#787878" id="svg_17" d="m22.043063,18.51105l1.883529,0c0.346569,0 0.627843,-0.280177 0.627843,-0.625395s-0.281274,-0.625395 -0.627843,-0.625395l-1.883529,0c-0.346569,0 -0.627843,0.280177 -0.627843,0.625395s0.281274,0.625395 0.627843,0.625395z"/>
  <path fill="#787878" stroke="#787878" id="svg_18" d="m22.043063,31.018943l-5.022744,0c-0.346569,0 -0.627843,0.280177 -0.627843,0.625395s0.281274,0.625395 0.627843,0.625395l5.022744,0c0.346569,0 0.627843,-0.280177 0.627843,-0.625395s-0.281274,-0.625395 -0.627843,-0.625395z"/>
  <path fill="#787878" stroke="#787878" id="svg_19" d="m9.486203,32.269732l5.022744,0c0.346569,0 0.627843,-0.280177 0.627843,-0.625395s-0.281274,-0.625395 -0.627843,-0.625395l-5.022744,0c-0.346569,0 -0.627843,0.280177 -0.627843,0.625395s0.281274,0.625395 0.627843,0.625395z"/>
  <path fill="#787878" stroke="#787878" id="svg_20" d="m22.043063,28.517365l-12.55686,0c-0.346569,0 -0.627843,0.280177 -0.627843,0.625395s0.281274,0.625395 0.627843,0.625395l12.55686,0c0.346569,0 0.627843,-0.280177 0.627843,-0.625395s-0.281274,-0.625395 -0.627843,-0.625395z"/>
  <path fill="#787878" stroke="#787878" id="svg_21" d="m22.043063,33.520522l-12.55686,0c-0.346569,0 -0.627843,0.280177 -0.627843,0.625395s0.281274,0.625395 0.627843,0.625395l12.55686,0c0.346569,0 0.627843,-0.280177 0.627843,-0.625395s-0.281274,-0.625395 -0.627843,-0.625395z"/>
  <circle fill="#787878" stroke="#787878" id="svg_22" r="0.596039" cy="36.647495" cx="13.253261"/>
  <circle fill="#787878" stroke="#787878" id="svg_23" r="0.596039" cy="36.647495" cx="15.764633"/>
  <circle fill="#787878" stroke="#787878" id="svg_24" r="0.596039" cy="36.647495" cx="18.276005"/>
  <path fill="#787878" stroke="#787878" id="svg_25" d="m13.513188,20.905686c0.122429,0.121952 0.283157,0.183241 0.443885,0.183241s0.321456,-0.061289 0.443885,-0.183241c0.474649,-0.472798 0.735832,-1.10132 0.735832,-1.769241s-0.261183,-1.296443 -0.735204,-1.768616c-0.245487,-0.244529 -0.642283,-0.244529 -0.88777,0s-0.245487,0.639779 0,0.884308c0.236697,0.235774 0.367288,0.550347 0.367288,0.884308s-0.130591,0.648534 -0.367916,0.884933c-0.245487,0.243904 -0.245487,0.639779 0,0.884308z"/>
  <path fill="#787878" stroke="#787878" id="svg_26" d="m15.289356,16.482895c0.711346,0.709198 1.10312,1.651042 1.10312,2.653549s-0.391774,1.944352 -1.10312,2.653549c-0.245487,0.244529 -0.245487,0.639779 0,0.884308c0.122429,0.121952 0.283157,0.183241 0.443885,0.183241s0.321456,-0.061289 0.443885,-0.183241c0.948671,-0.944971 1.471036,-2.201389 1.471036,-3.537858s-0.522365,-2.592886 -1.471036,-3.537858c-0.245487,-0.244529 -0.642283,-0.244529 -0.88777,0s-0.245487,0.640404 0,0.884308z"/>
 </g>
</svg>