<svg width="40" height="40" xmlns="http://www.w3.org/2000/svg">

 <g>
  <title>background</title>
  <rect fill="none" id="canvas_background" height="42" width="42" y="-1" x="-1"/>
 </g>
 <g>
  <title>Layer 1</title>
  <path stroke="null" fill="#787878" id="svg_2" d="m20.305901,9.750067c-5.246732,0 -9.515291,4.26856 -9.515291,9.515291s4.26856,9.515291 9.515291,9.515291s9.515291,-4.26856 9.515291,-9.515291s-4.26856,-9.515291 -9.515291,-9.515291zm0,17.761877c-2.331246,0 -4.435395,-0.976903 -5.936908,-2.537411l11.873815,0c-1.501513,1.560508 -3.605661,2.537411 -5.936908,2.537411zm-0.949626,-9.146732c-0.596926,-0.347625 -0.953432,-0.959776 -0.953432,-1.637264l0,-1.268706c0,-0.531588 0.225195,-1.04351 0.61786,-1.403188c0.397105,-0.364753 0.912199,-0.539834 1.457743,-0.492258c0.969925,0.084369 1.730514,0.974366 1.730514,2.027391l0,1.13676c0,0.677489 -0.356506,1.289639 -0.953432,1.637264l-0.315273,0.183328l0,1.829473l3.070267,0.87731c0.806897,0.23027 1.370202,0.977538 1.370202,1.816152l0,0.634353l-10.149644,0l0,-0.634353c0,-0.838614 0.563305,-1.585882 1.370202,-1.816152l3.070267,-0.87731l0,-1.829473l-0.315273,-0.183328zm7.293154,6.162103l0,-1.45584c0,-1.40192 -0.94138,-2.65096 -2.290013,-3.036012l-2.150456,-0.614053l0,-0.168738c0.790404,-0.595657 1.268706,-1.532596 1.268706,-2.52409l0,-1.13676c0,-1.70514 -1.26934,-3.150196 -2.890111,-3.291022c-0.888728,-0.079294 -1.771747,0.222023 -2.424496,0.820852c-0.654018,0.598829 -1.02892,1.451399 -1.02892,2.33759l0,1.268706c0,0.991493 0.478302,1.929067 1.268706,2.52409l0,0.168738l-2.150456,0.614688c-1.348634,0.385052 -2.290013,1.634093 -2.290013,3.036012l0,1.45584c-1.187508,-1.429197 -1.903058,-3.263111 -1.903058,-5.261956c0,-4.547041 3.699545,-8.246586 8.246586,-8.246586s8.246586,3.699545 8.246586,8.246586c0,1.998846 -0.71555,3.832759 -1.903058,5.261956z"/>
  <path stroke="null" fill="#787878" id="svg_3" d="m34.185391,3.508756l-5.866478,0c-0.264451,-0.741614 -0.9671,-1.277543 -1.798781,-1.277543l-2.160964,0c-0.827848,-1.578405 -2.43883,-2.555086 -4.226751,-2.555086c-1.787922,0 -3.398903,0.976043 -4.226751,2.555086l-2.160964,0c-0.831681,0 -1.534329,0.535929 -1.798781,1.277543l-5.866478,0c-1.056528,0 -1.916315,0.859787 -1.916315,1.916315l0,31.938578c0,1.056528 0.859787,1.916315 1.916315,1.916315l28.105949,0c1.056528,0 1.916315,-0.859787 1.916315,-1.916315l0,-31.938578c0,-1.056528 -0.859787,-1.916315 -1.916315,-1.916315zm-1.916315,26.828406l-5.110172,0l0,5.110172l-19.163147,0l0,-28.105949l3.832629,0l0,1.277543l16.608061,0l0,-1.277543l3.832629,0l0,22.995776zm-0.903223,1.277543l-2.929406,2.929406l0,-2.929406l2.929406,0zm-18.259924,-27.467177c0,-0.351963 0.286808,-0.638772 0.638772,-0.638772l2.949847,0l0.311082,-0.622802c0.596613,-1.191948 1.794309,-1.932284 3.126787,-1.932284s2.530174,0.740336 3.126787,1.931645l0.311082,0.623441l2.949847,0c0.351963,0 0.638772,0.286808 0.638772,0.638772l0,3.193858l-14.052974,0l0,-3.193858zm21.718233,33.216121c0,0.351963 -0.286808,0.638772 -0.638772,0.638772l-28.105949,0c-0.351963,0 -0.638772,-0.286808 -0.638772,-0.638772l0,-31.938578c0,-0.351963 0.286808,-0.638772 0.638772,-0.638772l5.748944,0l0,1.277543l-5.110172,0l0,30.661035l21.343913,0l5.484493,-5.484493l0,-25.176542l-5.110172,0l0,-1.277543l5.748944,0c0.351963,0 0.638772,0.286808 0.638772,0.638772l0,31.938578z"/>
  <rect stroke="null" fill="#787878" id="svg_4" y="30.276463" x="24.53195" width="1.432626" height="1.432626"/>
  <rect stroke="null" fill="#787878" id="svg_5" y="30.336639" x="8.790164" width="14.592848" height="1.372449"/>
  <rect stroke="null" fill="#787878" id="svg_6" y="32.617411" x="8.758614" width="14.718961" height="1.389643"/>
  <rect stroke="null" fill="#787878" id="svg_7" y="32.700541" x="24.626513" width="1.432625" height="1.432625"/>
  <path stroke="null" fill="#787878" id="svg_8" d="m20.14797,2.131665c-1.393323,0 -2.527188,1.133865 -2.527188,2.527188s1.133865,2.527188 2.527188,2.527188s2.527188,-1.133865 2.527188,-2.527188s-1.133865,-2.527188 -2.527188,-2.527188zm0,3.369584c-0.46416,0 -0.842396,-0.378236 -0.842396,-0.842396s0.378236,-0.842396 0.842396,-0.842396s0.842396,0.378236 0.842396,0.842396s-0.378236,0.842396 -0.842396,0.842396z"/>
  <rect fill="#787878" id="svg_9" y="4.208867" x="15.111044" width="2" height="2"/>
  <rect fill="#787878" id="svg_10" y="4.334891" x="23.279636" width="2" height="2"/>
 </g>
</svg>