<svg width="40" height="40" xmlns="http://www.w3.org/2000/svg">

 <g>
  <title>background</title>
  <rect fill="none" id="canvas_background" height="42" width="42" y="-1" x="-1"/>
 </g>
 <g>
  <title>Layer 1</title>
  <path fill="#787878" stroke="null" id="svg_2" d="m4.562834,31.709102c0.450292,0 0.804092,-0.353801 0.804092,-0.804092l0,-8.410804l4.856717,-2.605259l0,6.899111c0,0.450292 0.353801,0.804092 0.804092,0.804092c0.450292,0 0.804092,-0.353801 0.804092,-0.804092l0,-9.584779l-8.057004,4.326016l0,9.375715c-0.016082,0.43421 0.337719,0.804092 0.78801,0.804092z"/>
  <path fill="#787878" stroke="null" id="svg_3" d="m13.941487,24.447791c0.520284,0 0.929079,-0.408795 0.929079,-0.929079l0,-16.426111l5.611635,-3.010215l0,26.720303c0,0.520284 0.408795,0.929079 0.929079,0.929079c0.520284,0 0.929079,-0.408795 0.929079,-0.929079l0,-29.823426l-9.32795,4.998443l0,17.541005c0,0.501702 0.408795,0.929079 0.929079,0.929079z"/>
  <path fill="#787878" stroke="null" id="svg_4" d="m23.915743,29.842779c0.408984,0 0.730329,-0.321345 0.730329,-0.730329l0,-13.920076l4.411189,-2.366267l0,12.605483c0,0.408984 0.321345,0.730329 0.730329,0.730329c0.408984,0 0.730329,-0.321345 0.730329,-0.730329l0,-15.044783l-7.317899,3.929172l0,14.796471c-0.014607,0.408984 0.321345,0.730329 0.715723,0.730329z"/>
  <path fill="#787878" stroke="null" id="svg_5" d="m39.740224,25.858735c-0.145532,-0.242553 -0.404256,-0.404256 -0.695319,-0.404256l-5.578726,0c-0.291064,0 -0.549787,0.161702 -0.695319,0.404256c-0.145532,0.242553 -0.145532,0.549787 0,0.808511l1.002554,1.730214l-4.446811,2.700427c-0.679149,0.420426 -1.342128,0.824681 -2.021278,1.245107c-0.485107,0.307234 -0.970213,0.598298 -1.43915,0.905532c-1.261277,0.808511 -2.377022,1.536171 -3.411917,2.247661c-0.533617,0.355745 -1.051064,0.72766 -1.584682,1.083405l-7.244259,-7.082557l-13.065538,8.311493c-0.371915,0.242553 -0.485107,0.74383 -0.242553,1.115745c0.161702,0.242553 0.420426,0.371915 0.679149,0.371915c0.145532,0 0.291064,-0.048511 0.436596,-0.129362l11.965963,-7.616174l7.30894,7.131067l0.986383,-0.71149c0.549787,-0.388085 1.099575,-0.776171 1.665533,-1.148086c1.018724,-0.695319 2.118299,-1.406809 3.379576,-2.21532c0.468936,-0.307234 0.954043,-0.598298 1.422979,-0.905532c0.662979,-0.420426 1.342128,-0.824681 2.005107,-1.245107l4.091066,-2.506384l0.323404,-0.194043l0.986383,1.714043c0.145532,0.242553 0.404256,0.404256 0.695319,0.404256s0.549787,-0.161702 0.695319,-0.404256l2.797448,-4.834896c0.129362,-0.210213 0.129362,-0.517447 -0.01617,-0.776171zm-3.492768,3.622129l-1.390639,-2.409363l2.781278,0l-1.390639,2.409363z"/>
 </g>
</svg>