<svg width="40" height="40" viewBox="0 0 40 40" fill="none" xmlns="http://www.w3.org/2000/svg">
<path d="M20.625 39.375H39.375V24.375H20.625V39.375ZM28.125 25.625H31.875V26.875H28.125V25.625ZM21.875 25.625H26.875V28.125H33.125V25.625H38.125V38.125H21.875V25.625Z" fill="#787878"/>
<path d="M35.625 35.625H36.875V36.875H35.625V35.625Z" fill="#787878"/>
<path d="M33.125 35.625H34.375V36.875H33.125V35.625Z" fill="#787878"/>
<path d="M30.625 35.625H31.875V36.875H30.625V35.625Z" fill="#787878"/>
<path d="M38.125 13.125H36.875V0.625H20.625V13.125H19.375V0.625H3.125V13.125H1.875C1.18562 13.125 0.625 13.6856 0.625 14.375V15.625C0.625 16.3144 1.18562 16.875 1.875 16.875H5.16437C5.06062 17.2756 5 17.6925 5 18.125C5 19.8625 5.89188 21.3944 7.24062 22.2906C3.41375 23.4719 0.625 27.0406 0.625 31.25C0.625 32.5281 1.39812 33.6263 2.5 34.11V39.375H19.375V31.25C19.375 27.0406 16.5863 23.4719 12.7594 22.2906C14.1081 21.3944 15 19.8625 15 18.125C15 17.6925 14.9394 17.2756 14.8356 16.875H38.125C38.8144 16.875 39.375 16.3144 39.375 15.625V14.375C39.375 13.6856 38.8144 13.125 38.125 13.125ZM26.875 1.875H30.625V3.125H26.875V1.875ZM21.875 1.875H25.625V4.375H31.875V1.875H35.625V13.125H31.875V10.625H25.625V13.125H21.875V1.875ZM30.625 13.125H26.875V11.875H30.625V13.125ZM9.375 1.875H13.125V3.125H9.375V1.875ZM4.375 1.875H8.125V4.375H14.375V1.875H18.125V13.125H14.375V10.625H8.125V13.125H4.375V1.875ZM9.375 13.125V11.875H13.125V13.125H9.375ZM1.875 15.625V14.375H6.70375C6.2975 14.7325 5.95 15.1544 5.67625 15.625H1.875ZM3.75 34.375H6.25V38.125H3.75V34.375ZM9.6875 30H7.5V26.875H11.875V30H15V38.125H7.5V34.375H9.6875C10.8938 34.375 11.875 33.3937 11.875 32.1875C11.875 30.9813 10.8938 30 9.6875 30ZM13.125 27.7588L14.1163 28.75H13.125V27.7588ZM18.125 31.25V38.125H16.25V29.1162L12.7587 25.625H6.25V30H4.375V31.25H9.6875C10.2044 31.25 10.625 31.6706 10.625 32.1875C10.625 32.7044 10.2044 33.125 9.6875 33.125H3.75C2.71625 33.125 1.875 32.2838 1.875 31.25C1.875 26.77 5.52 23.125 10 23.125C14.48 23.125 18.125 26.77 18.125 31.25ZM10 21.875C7.93188 21.875 6.25 20.1931 6.25 18.125C6.25 16.0569 7.93188 14.375 10 14.375C12.0681 14.375 13.75 16.0569 13.75 18.125C13.75 20.1931 12.0681 21.875 10 21.875ZM38.125 15.625H14.3237C14.0506 15.1544 13.7025 14.7325 13.2963 14.375H38.125V15.625Z" fill="#787878"/>
<path d="M30.625 33.125H36.875V34.375H30.625V33.125Z" fill="#787878"/>
</svg>
