<svg width="40" height="40" viewBox="0 0 40 40" fill="none" xmlns="http://www.w3.org/2000/svg">
<path d="M32.5 0.625H7.5C5.67727 0.627068 3.92979 1.35206 2.64092 2.64092C1.35206 3.92979 0.627068 5.67727 0.625 7.5V38.75C0.625 38.9158 0.690848 39.0747 0.808058 39.1919C0.925268 39.3092 1.08424 39.375 1.25 39.375H25C25.1658 39.375 25.3247 39.3092 25.4419 39.1919C25.5592 39.0747 25.625 38.9158 25.625 38.75V20.8836L26.4328 21.6922C26.5502 21.8093 26.7092 21.875 26.875 21.875C27.0408 21.875 27.1998 21.8093 27.3172 21.6922L28.75 20.2586L30.1828 21.6922C30.3002 21.8093 30.4592 21.875 30.625 21.875C30.7908 21.875 30.9498 21.8093 31.0672 21.6922L32.5 20.2586L33.9328 21.6922C34.0502 21.8093 34.2092 21.875 34.375 21.875C34.5408 21.875 34.6998 21.8093 34.8172 21.6922L36.3086 20.2L38.375 21.75C38.4679 21.8196 38.5783 21.8621 38.6939 21.8725C38.8095 21.8829 38.9257 21.8609 39.0295 21.809C39.1333 21.7571 39.2206 21.6773 39.2817 21.5786C39.3427 21.4798 39.375 21.3661 39.375 21.25V7.5C39.3729 5.67727 38.6479 3.92979 37.3591 2.64092C36.0702 1.35206 34.3227 0.627068 32.5 0.625ZM24.375 7.5V38.125H1.875V7.5C1.87672 6.00868 2.4699 4.57894 3.52442 3.52442C4.57894 2.4699 6.00868 1.87672 7.5 1.875H27.3016C26.3979 2.50865 25.6601 3.35065 25.1507 4.32977C24.6413 5.30888 24.3752 6.39629 24.375 7.5ZM38.125 20L36.625 18.875C36.5046 18.7848 36.3557 18.741 36.2056 18.7516C36.0555 18.7622 35.9143 18.8265 35.8078 18.9328L34.375 20.3664L32.9422 18.9328C32.8248 18.8157 32.6658 18.75 32.5 18.75C32.3342 18.75 32.1752 18.8157 32.0578 18.9328L30.625 20.3664L29.1922 18.9328C29.0748 18.8157 28.9158 18.75 28.75 18.75C28.5842 18.75 28.4252 18.8157 28.3078 18.9328L26.875 20.3664L25.625 19.1164V7.5C25.6267 6.00868 26.2199 4.57894 27.2744 3.52442C28.3289 2.4699 29.7587 1.87672 31.25 1.875H32.5C33.9913 1.87672 35.4211 2.4699 36.4756 3.52442C37.5301 4.57894 38.1233 6.00868 38.125 7.5V20Z" fill="#787878"/>
<path d="M11.875 13.125C11.7092 13.125 11.5503 13.1908 11.4331 13.3081C11.3158 13.4253 11.25 13.5842 11.25 13.75C11.25 13.9158 11.3158 14.0747 11.4331 14.1919C11.5503 14.3092 11.7092 14.375 11.875 14.375H12.5C12.5 14.5408 12.5658 14.6997 12.6831 14.8169C12.8003 14.9342 12.9592 15 13.125 15C13.2908 15 13.4497 14.9342 13.5669 14.8169C13.6842 14.6997 13.75 14.5408 13.75 14.375H14.375C14.5408 14.375 14.6997 14.3092 14.8169 14.1919C14.9342 14.0747 15 13.9158 15 13.75V11.25C15 11.0842 14.9342 10.9253 14.8169 10.8081C14.6997 10.6908 14.5408 10.625 14.375 10.625H12.5V9.375H14.375C14.5408 9.375 14.6997 9.30915 14.8169 9.19194C14.9342 9.07473 15 8.91576 15 8.75C15 8.58424 14.9342 8.42527 14.8169 8.30806C14.6997 8.19085 14.5408 8.125 14.375 8.125H13.75C13.75 7.95924 13.6842 7.80027 13.5669 7.68306C13.4497 7.56585 13.2908 7.5 13.125 7.5C12.9592 7.5 12.8003 7.56585 12.6831 7.68306C12.5658 7.80027 12.5 7.95924 12.5 8.125H11.875C11.7092 8.125 11.5503 8.19085 11.4331 8.30806C11.3158 8.42527 11.25 8.58424 11.25 8.75V11.25C11.25 11.4158 11.3158 11.5747 11.4331 11.6919C11.5503 11.8092 11.7092 11.875 11.875 11.875H13.75V13.125H11.875Z" fill="#787878"/>
<path d="M13.125 17.5C14.3611 17.5 15.5695 17.1334 16.5973 16.4467C17.6251 15.7599 18.4262 14.7838 18.8992 13.6418C19.3723 12.4997 19.4961 11.2431 19.2549 10.0307C19.0138 8.81831 18.4185 7.70466 17.5444 6.83059C16.6703 5.95651 15.5567 5.36125 14.3443 5.12009C13.1319 4.87894 11.8753 5.00271 10.7332 5.47576C9.59119 5.9488 8.61507 6.74988 7.92831 7.77769C7.24156 8.8055 6.875 10.0139 6.875 11.25C6.87688 12.907 7.53597 14.4956 8.70766 15.6673C9.87936 16.839 11.468 17.4981 13.125 17.5ZM13.125 6.25C14.1139 6.25 15.0806 6.54325 15.9029 7.09265C16.7251 7.64206 17.366 8.42296 17.7444 9.33659C18.1228 10.2502 18.2219 11.2555 18.0289 12.2255C17.836 13.1954 17.3598 14.0863 16.6605 14.7855C15.9613 15.4848 15.0704 15.961 14.1005 16.1539C13.1305 16.3469 12.1252 16.2478 11.2116 15.8694C10.298 15.491 9.51706 14.8501 8.96765 14.0279C8.41824 13.2056 8.125 12.2389 8.125 11.25C8.12649 9.92438 8.65375 8.65347 9.59111 7.71611C10.5285 6.77875 11.7994 6.25149 13.125 6.25Z" fill="#787878"/>
<path d="M21.875 10.625H20.625C20.4592 10.625 20.3003 10.6908 20.1831 10.8081C20.0658 10.9253 20 11.0842 20 11.25C20 11.4158 20.0658 11.5747 20.1831 11.6919C20.3003 11.8092 20.4592 11.875 20.625 11.875H21.875C22.0408 11.875 22.1997 11.8092 22.3169 11.6919C22.4342 11.5747 22.5 11.4158 22.5 11.25C22.5 11.0842 22.4342 10.9253 22.3169 10.8081C22.1997 10.6908 22.0408 10.625 21.875 10.625Z" fill="#787878"/>
<path d="M6.25 11.25C6.25 11.0842 6.18415 10.9253 6.06694 10.8081C5.94973 10.6908 5.79076 10.625 5.625 10.625H4.375C4.20924 10.625 4.05027 10.6908 3.93306 10.8081C3.81585 10.9253 3.75 11.0842 3.75 11.25C3.75 11.4158 3.81585 11.5747 3.93306 11.6919C4.05027 11.8092 4.20924 11.875 4.375 11.875H5.625C5.79076 11.875 5.94973 11.8092 6.06694 11.6919C6.18415 11.5747 6.25 11.4158 6.25 11.25Z" fill="#787878"/>
<path d="M20.625 19.375H5.625C5.45924 19.375 5.30027 19.4408 5.18306 19.5581C5.06585 19.6753 5 19.8342 5 20C5 20.1658 5.06585 20.3247 5.18306 20.4419C5.30027 20.5592 5.45924 20.625 5.625 20.625H20.625C20.7908 20.625 20.9497 20.5592 21.0669 20.4419C21.1842 20.3247 21.25 20.1658 21.25 20C21.25 19.8342 21.1842 19.6753 21.0669 19.5581C20.9497 19.4408 20.7908 19.375 20.625 19.375Z" fill="#787878"/>
<path d="M20.625 21.875H5.625C5.45924 21.875 5.30027 21.9408 5.18306 22.0581C5.06585 22.1753 5 22.3342 5 22.5C5 22.6658 5.06585 22.8247 5.18306 22.9419C5.30027 23.0592 5.45924 23.125 5.625 23.125H20.625C20.7908 23.125 20.9497 23.0592 21.0669 22.9419C21.1842 22.8247 21.25 22.6658 21.25 22.5C21.25 22.3342 21.1842 22.1753 21.0669 22.0581C20.9497 21.9408 20.7908 21.875 20.625 21.875Z" fill="#787878"/>
<path d="M20.625 24.375H5.625C5.45924 24.375 5.30027 24.4408 5.18306 24.5581C5.06585 24.6753 5 24.8342 5 25C5 25.1658 5.06585 25.3247 5.18306 25.4419C5.30027 25.5592 5.45924 25.625 5.625 25.625H20.625C20.7908 25.625 20.9497 25.5592 21.0669 25.4419C21.1842 25.3247 21.25 25.1658 21.25 25C21.25 24.8342 21.1842 24.6753 21.0669 24.5581C20.9497 24.4408 20.7908 24.375 20.625 24.375Z" fill="#787878"/>
<path d="M18.125 32.5H8.125C7.95924 32.5 7.80027 32.5658 7.68306 32.6831C7.56585 32.8003 7.5 32.9592 7.5 33.125V35.625C7.5 35.7908 7.56585 35.9497 7.68306 36.0669C7.80027 36.1842 7.95924 36.25 8.125 36.25H18.125C18.2908 36.25 18.4497 36.1842 18.5669 36.0669C18.6842 35.9497 18.75 35.7908 18.75 35.625V33.125C18.75 32.9592 18.6842 32.8003 18.5669 32.6831C18.4497 32.5658 18.2908 32.5 18.125 32.5ZM17.5 35H8.75V33.75H17.5V35Z" fill="#787878"/>
</svg>
