<svg width="40" height="40" viewBox="0 0 40 40" fill="none" xmlns="http://www.w3.org/2000/svg">
<path d="M23.871 5.1617C24.2264 5.1617 24.5162 5.45152 24.5162 5.80686H25.8065C25.8065 4.96702 25.2653 4.25728 24.5162 3.99014V2.58105H23.2259V3.99014C22.4768 4.25728 21.9355 4.96702 21.9355 5.80686C21.9355 6.87383 22.8041 7.74234 23.871 7.74234C24.2264 7.74234 24.5162 8.03216 24.5162 8.38751C24.5162 8.74285 24.2264 9.03267 23.871 9.03267C23.5157 9.03267 23.2259 8.74285 23.2259 8.38751H21.9355C21.9355 9.22735 22.4768 9.93709 23.2259 10.2042V11.6133H24.5162V10.2042C25.2653 9.93709 25.8065 9.22735 25.8065 8.38751C25.8065 7.32053 24.938 6.45202 23.871 6.45202C23.5157 6.45202 23.2259 6.1622 23.2259 5.80686C23.2259 5.45152 23.5157 5.1617 23.871 5.1617Z" fill="#787878"/>
<path d="M9.03229 25.8062C9.38763 25.8062 9.67745 26.0954 9.67745 26.4514H10.9678C10.9678 25.6115 10.4266 24.9018 9.67745 24.6347V23.2256H8.38712V24.6347C7.63801 24.9018 7.0968 25.6115 7.0968 26.4514C7.0968 27.5184 7.96531 28.3869 9.03229 28.3869C9.38763 28.3869 9.67745 28.6761 9.67745 29.032C9.67745 29.388 9.38763 29.6772 9.03229 29.6772C8.67694 29.6772 8.38712 29.388 8.38712 29.032H7.0968C7.0968 29.8719 7.63801 30.5816 8.38712 30.8488V32.2578H9.67745V30.8488C10.4266 30.5816 10.9678 29.8719 10.9678 29.032C10.9678 27.9651 10.0993 27.0966 9.03229 27.0966C8.67694 27.0966 8.38712 26.8074 8.38712 26.4514C8.38712 26.0954 8.67694 25.8062 9.03229 25.8062Z" fill="#787878"/>
<path d="M2.58069 34.8391H15.4839V20.6455H2.58069V34.8391ZM3.87101 21.9358H14.1936V33.5487H3.87101V21.9358Z" fill="#787878"/>
<path d="M2.58069 18.0645H15.4839V19.3548H2.58069V18.0645Z" fill="#787878"/>
<path d="M2.58069 15.4844H6.45166V16.7747H2.58069V15.4844Z" fill="#787878"/>
<path d="M20.6451 37.4194H32.258V30.9678H20.6451V37.4194ZM21.9355 32.2581H30.9677V36.1291H21.9355V32.2581Z" fill="#787878"/>
<path d="M23.2258 33.5488H24.5162V34.8392H23.2258V33.5488Z" fill="#787878"/>
<path d="M25.8064 33.5488H27.0967V34.8392H25.8064V33.5488Z" fill="#787878"/>
<path d="M28.3871 33.5488H29.6774V34.8392H28.3871V33.5488Z" fill="#787878"/>
<path d="M19.3549 18.0645H20.6452V19.3548H19.3549V18.0645Z" fill="#787878"/>
<path d="M21.9355 18.0645H32.2581V19.3548H21.9355V18.0645Z" fill="#787878"/>
<path d="M19.3549 23.2256H32.2581V24.5159H19.3549V23.2256Z" fill="#787878"/>
<path d="M19.3549 25.8066H32.2581V27.097H19.3549V25.8066Z" fill="#787878"/>
<path d="M19.3549 28.3877H32.2581V29.678H19.3549V28.3877Z" fill="#787878"/>
<path d="M7.74194 0V14.1935H15.4839V12.9032H12.8516C12.5671 10.9296 11.0059 9.36775 9.03226 9.08392V5.10963C11.0059 4.82579 12.5677 3.26392 12.8516 1.29032H19.8031C17.9747 2.5756 16.7742 4.69664 16.7742 7.09677C16.7742 9.49691 17.9747 11.6179 19.8031 12.9032H16.7742V38.7097H1.29032V14.1935H6.45161V12.9032H0V40H34.8387V14.1935H40V0H7.74194ZM11.5477 12.9032H9.03226V10.3878C10.2942 10.6452 11.2903 11.6413 11.5477 12.9032ZM9.03226 3.80576V1.29032H11.5477C11.2903 2.55229 10.2942 3.54839 9.03226 3.80576ZM38.7097 3.80576C37.4477 3.54839 36.4516 2.55229 36.1942 1.29032H38.7097V3.80576ZM18.0645 7.09677C18.0645 3.89554 20.6697 1.29032 23.871 1.29032C27.0722 1.29032 29.6774 3.89554 29.6774 7.09677C29.6774 10.298 27.0722 12.9032 23.871 12.9032C20.6697 12.9032 18.0645 10.298 18.0645 7.09677ZM33.5484 12.9032V38.7097H18.0645V14.1935H32.2581V12.9032H27.9388C29.7672 11.6179 30.9677 9.49691 30.9677 7.09677C30.9677 4.69664 29.7672 2.5756 27.9388 1.29032H34.8904C35.1742 3.26392 36.7361 4.82579 38.7097 5.10963V9.08392C36.7361 9.36838 35.1742 10.9296 34.8904 12.9032H33.5484ZM36.1942 12.9032C36.4516 11.6413 37.4477 10.6452 38.7097 10.3878V12.9032H36.1942Z" fill="#787878"/>
<path d="M19.3549 20.6455H32.2581V21.9358H19.3549V20.6455Z" fill="#787878"/>
</svg>
