<svg width="40" height="40" xmlns="http://www.w3.org/2000/svg">

 <g>
  <title>background</title>
  <rect fill="none" id="canvas_background" height="42" width="42" y="-1" x="-1"/>
 </g>
 <g>
  <title>Layer 1</title>
  <path stroke="null" fill-rule="nonzero" fill="#787878" id="svg_1" d="m9.270011,14.648345c3.466893,0.380703 6.098788,3.320651 6.098788,6.813962c0,0.425047 -0.038684,0.840659 -0.112748,1.244006l6.441751,0c1.237401,-2.808801 4.017426,-4.632588 7.102201,-4.632588c3.085247,0 5.8648,1.823787 7.102673,4.632588l1.66292,0l0,-19.574336l-28.295585,0l0,11.516369zm15.638523,11.532409c-0.682623,-1.084554 0.968503,-2.12382 1.651126,-1.039266l0.957181,1.516206l3.634836,-3.909867c0.874625,-0.940198 2.303557,0.389666 1.428932,1.329864l-4.496724,4.837328c-0.435426,0.4609 -1.195887,0.40146 -1.539793,-0.145299l-1.635558,-2.588966zm-1.909645,-0.349095c0,3.203656 2.597457,5.801114 5.801114,5.801114c3.204128,0 5.801114,-2.597457 5.801114,-5.801114c0,-3.154123 -2.548395,-5.801586 -5.801114,-5.801586c-3.203656,0 -5.801114,2.597457 -5.801114,5.801586zm-1.869075,-1.168997l-6.552612,0c-0.294844,0.558081 -0.664696,1.06993 -1.095404,1.523282c1.999278,1.544982 3.184315,3.91883 3.184315,6.453073l0,4.645797c0,0.540154 -0.437784,0.977938 -0.977938,0.977938l-14.350173,0c-0.540154,0 -0.977938,-0.437784 -0.977938,-0.977938l0,-4.645797c0,-2.534715 1.185037,-4.907619 3.184786,-6.453073c-1.169469,-1.229381 -1.887473,-2.892773 -1.887473,-4.723636c0,-3.324896 2.390359,-6.17474 5.656286,-6.751219l0,-12.55705c0,-0.540626 0.437784,-0.97841 0.977938,-0.97841l30.252405,0c0.540154,0 0.977938,0.437784 0.977938,0.97841l0,21.530685c0,0.540154 -0.437784,0.977938 -0.977938,0.977938l-2.073814,0c0.057554,0.381174 0.087746,0.771784 0.087746,1.168997c0,4.283965 -3.473498,7.757462 -7.757934,7.757462c-4.284436,0 -7.757462,-3.473026 -7.757462,-7.757462c0,-0.397686 0.02972,-0.787823 0.087274,-1.168997zm5.184064,-15.909308c-1.286935,0 -1.286935,-1.956349 0,-1.956349l6.063879,0c1.286463,0 1.286463,1.956349 0,1.956349l-6.063879,0zm0,4.088188c-1.286935,0 -1.286935,-1.956349 0,-1.956349l6.063879,0c1.286463,0 1.286463,1.956349 0,1.956349l-6.063879,0zm-11.856029,-7.100314l8.142411,0c0.540154,0 0.97841,0.437784 0.97841,0.977938l0,6.199743c0,0.540626 -0.438256,0.97841 -0.97841,0.97841l-8.142411,0c-0.540154,0 -0.977938,-0.437784 -0.977938,-0.97841l0,-6.199743c0,-0.540154 0.437784,-0.977938 0.977938,-0.977938zm7.164001,1.956349l-6.18559,0l0,4.243394l6.18559,0l0,-4.243394zm-18.008125,13.764731c0,2.715867 2.203546,4.899127 4.899599,4.899127c2.68709,0 4.899127,-2.175713 4.899127,-4.899127c0,-2.705488 -2.193639,-4.899127 -4.899127,-4.899127c-2.704545,0 -4.899599,2.193167 -4.899599,4.899127zm8.258933,5.977548c-0.993034,0.559024 -2.138916,0.878399 -3.359334,0.878399c-1.22089,0 -2.366771,-0.319375 -3.359806,-0.878399c-1.762459,1.145882 -2.837106,3.09138 -2.837106,5.19916l0,3.667387l12.393353,0l0,-3.667387c0,-2.10778 -1.074647,-4.053279 -2.837106,-5.19916z" class="fil0"/>
 </g>
</svg>