<svg width="40" height="40" viewBox="0 0 40 40" fill="none" xmlns="http://www.w3.org/2000/svg">
<path d="M36.875 16.25H34.9938C34.8612 16.2495 34.7322 16.2068 34.6255 16.1282C34.5187 16.0495 34.4398 15.939 34.4 15.8125C34.0979 14.7576 33.6764 13.7406 33.1437 12.7812C33.0822 12.6633 33.0599 12.5287 33.0802 12.3972C33.1004 12.2657 33.1621 12.144 33.2562 12.05L34.5813 10.7188C34.9324 10.3672 35.1296 9.89063 35.1296 9.39375C35.1296 8.89687 34.9324 8.42031 34.5813 8.06875L31.9312 5.41875C31.5797 5.06762 31.1031 4.8704 30.6063 4.8704C30.1094 4.8704 29.6328 5.06762 29.2812 5.41875L27.95 6.74375C27.856 6.83791 27.7343 6.89959 27.6028 6.91983C27.4713 6.94006 27.3367 6.91779 27.2188 6.85625C26.2583 6.32421 25.2416 5.90077 24.1875 5.59375C24.0609 5.55622 23.9499 5.4787 23.871 5.37279C23.7921 5.26689 23.7497 5.13829 23.75 5.00625V3.125C23.7485 2.62818 23.5505 2.15212 23.1992 1.80081C22.8479 1.4495 22.3718 1.25148 21.875 1.25H18.125C17.6282 1.25148 17.1521 1.4495 16.8008 1.80081C16.4495 2.15212 16.2515 2.62818 16.25 3.125V5.00625C16.2495 5.13883 16.2068 5.2678 16.1282 5.37454C16.0495 5.48127 15.939 5.56023 15.8125 5.6C14.7576 5.90213 13.7406 6.32361 12.7812 6.85625C12.6633 6.91779 12.5287 6.94006 12.3972 6.91983C12.2657 6.89959 12.144 6.83791 12.05 6.74375L10.7188 5.41875C10.3672 5.06762 9.89063 4.8704 9.39375 4.8704C8.89687 4.8704 8.42031 5.06762 8.06875 5.41875L5.41875 8.06875C5.06762 8.42031 4.8704 8.89687 4.8704 9.39375C4.8704 9.89063 5.06762 10.3672 5.41875 10.7188L6.74375 12.05C6.83791 12.144 6.89959 12.2657 6.91983 12.3972C6.94006 12.5287 6.91779 12.6633 6.85625 12.7812C6.32421 13.7417 5.90077 14.7584 5.59375 15.8125C5.55622 15.9391 5.4787 16.0501 5.37279 16.129C5.26689 16.2079 5.13829 16.2503 5.00625 16.25H3.125C2.62818 16.2515 2.15212 16.4495 1.80081 16.8008C1.4495 17.1521 1.25148 17.6282 1.25 18.125V21.875C1.25148 22.3718 1.4495 22.8479 1.80081 23.1992C2.15212 23.5505 2.62818 23.7485 3.125 23.75H5.00625C5.13883 23.7505 5.2678 23.7932 5.37454 23.8718C5.48127 23.9505 5.56023 24.061 5.6 24.1875C5.90213 25.2424 6.32361 26.2594 6.85625 27.2188C6.91779 27.3367 6.94006 27.4713 6.91983 27.6028C6.89959 27.7343 6.83791 27.856 6.74375 27.95L5.41875 29.2812C5.24444 29.4551 5.10614 29.6616 5.01178 29.889C4.91742 30.1163 4.86884 30.3601 4.86884 30.6063C4.86884 30.8524 4.91742 31.0962 5.01178 31.3235C5.10614 31.5509 5.24444 31.7574 5.41875 31.9312L8.06875 34.5813C8.42031 34.9324 8.89687 35.1296 9.39375 35.1296C9.89063 35.1296 10.3672 34.9324 10.7188 34.5813L12.05 33.2562C12.144 33.1621 12.2657 33.1004 12.3972 33.0802C12.5287 33.0599 12.6633 33.0822 12.7812 33.1437C13.7417 33.6758 14.7584 34.0992 15.8125 34.4062C15.9391 34.4438 16.0501 34.5213 16.129 34.6272C16.2079 34.7331 16.2503 34.8617 16.25 34.9938V36.875C16.2515 37.3718 16.4495 37.8479 16.8008 38.1992C17.1521 38.5505 17.6282 38.7485 18.125 38.75H21.875C22.3718 38.7485 22.8479 38.5505 23.1992 38.1992C23.5505 37.8479 23.7485 37.3718 23.75 36.875V34.9938C23.7505 34.8612 23.7932 34.7322 23.8718 34.6255C23.9505 34.5187 24.061 34.4398 24.1875 34.4C25.2424 34.0979 26.2594 33.6764 27.2188 33.1437C27.3367 33.0822 27.4713 33.0599 27.6028 33.0802C27.7343 33.1004 27.856 33.1621 27.95 33.2562L29.2812 34.5813C29.6328 34.9324 30.1094 35.1296 30.6063 35.1296C31.1031 35.1296 31.5797 34.9324 31.9312 34.5813L34.5813 31.9312C34.7556 31.7574 34.8939 31.5509 34.9882 31.3235C35.0826 31.0962 35.1312 30.8524 35.1312 30.6063C35.1312 30.3601 35.0826 30.1163 34.9882 29.889C34.8939 29.6616 34.7556 29.4551 34.5813 29.2812L33.2562 27.95C33.1621 27.856 33.1004 27.7343 33.0802 27.6028C33.0599 27.4713 33.0822 27.3367 33.1437 27.2188C33.6758 26.2583 34.0992 25.2416 34.4062 24.1875C34.4438 24.0609 34.5213 23.9499 34.6272 23.871C34.7331 23.7921 34.8617 23.7497 34.9938 23.75H36.875C37.3718 23.7485 37.8479 23.5505 38.1992 23.1992C38.5505 22.8479 38.7485 22.3718 38.75 21.875V18.125C38.7485 17.6282 38.5505 17.1521 38.1992 16.8008C37.8479 16.4495 37.3718 16.2515 36.875 16.25ZM37.5 21.875C37.5 22.0408 37.4342 22.1997 37.3169 22.3169C37.1997 22.4342 37.0408 22.5 36.875 22.5H34.9938C34.5907 22.5005 34.1986 22.6309 33.8755 22.8719C33.5524 23.1128 33.3155 23.4514 33.2 23.8375C32.923 24.8051 32.5372 25.7381 32.05 26.6187C31.859 26.9741 31.7868 27.3813 31.8442 27.7806C31.9016 28.1799 32.0854 28.5503 32.3688 28.8375L33.7 30.1625C33.8162 30.281 33.8813 30.4403 33.8813 30.6063C33.8813 30.7722 33.8162 30.9315 33.7 31.05L31.05 33.7C30.9305 33.8143 30.7716 33.8781 30.6063 33.8781C30.4409 33.8781 30.282 33.8143 30.1625 33.7L28.8375 32.3688C28.5503 32.0854 28.1799 31.9016 27.7806 31.8442C27.3813 31.7868 26.9741 31.859 26.6187 32.05C25.7381 32.5372 24.8051 32.923 23.8375 33.2C23.4514 33.3155 23.1128 33.5524 22.8719 33.8755C22.6309 34.1986 22.5005 34.5907 22.5 34.9938V36.875C22.5 37.0408 22.4342 37.1997 22.3169 37.3169C22.1997 37.4342 22.0408 37.5 21.875 37.5H18.125C17.9592 37.5 17.8003 37.4342 17.6831 37.3169C17.5658 37.1997 17.5 37.0408 17.5 36.875V34.9938C17.4995 34.5907 17.3691 34.1986 17.1281 33.8755C16.8872 33.5524 16.5486 33.3155 16.1625 33.2C15.1949 32.923 14.2619 32.5372 13.3813 32.05C13.1089 31.902 12.8037 31.8246 12.4937 31.825C11.9959 31.8247 11.5178 32.02 11.1625 32.3688L9.8375 33.7C9.71804 33.8143 9.55908 33.8781 9.39375 33.8781C9.22842 33.8781 9.06946 33.8143 8.95 33.7L6.3 31.05C6.1838 30.9315 6.11872 30.7722 6.11872 30.6063C6.11872 30.4403 6.1838 30.281 6.3 30.1625L7.63125 28.8375C7.91459 28.5503 8.09843 28.1799 8.1558 27.7806C8.21316 27.3813 8.14104 26.9741 7.95 26.6187C7.46282 25.7381 7.07702 24.8051 6.8 23.8375C6.68447 23.4514 6.44759 23.1128 6.1245 22.8719C5.8014 22.6309 5.40928 22.5005 5.00625 22.5H3.125C2.95924 22.5 2.80027 22.4342 2.68306 22.3169C2.56585 22.1997 2.5 22.0408 2.5 21.875V18.125C2.5 17.9592 2.56585 17.8003 2.68306 17.6831C2.80027 17.5658 2.95924 17.5 3.125 17.5H5.00625C5.40928 17.4995 5.8014 17.3691 6.1245 17.1281C6.44759 16.8872 6.68447 16.5486 6.8 16.1625C7.07702 15.1949 7.46282 14.2619 7.95 13.3813C8.14104 13.0259 8.21316 12.6187 8.1558 12.2194C8.09843 11.8201 7.91459 11.4497 7.63125 11.1625L6.3 9.8375C6.1838 9.71902 6.11872 9.5597 6.11872 9.39375C6.11872 9.2278 6.1838 9.06848 6.3 8.95L8.95 6.3C9.06946 6.1857 9.22842 6.1219 9.39375 6.1219C9.55908 6.1219 9.71804 6.1857 9.8375 6.3L11.1625 7.63125C11.4497 7.91459 11.8201 8.09843 12.2194 8.1558C12.6187 8.21316 13.0259 8.14104 13.3813 7.95C14.2619 7.46282 15.1949 7.07702 16.1625 6.8C16.5486 6.68447 16.8872 6.44759 17.1281 6.1245C17.3691 5.8014 17.4995 5.40928 17.5 5.00625V3.125C17.5 2.95924 17.5658 2.80027 17.6831 2.68306C17.8003 2.56585 17.9592 2.5 18.125 2.5H21.875C22.0408 2.5 22.1997 2.56585 22.3169 2.68306C22.4342 2.80027 22.5 2.95924 22.5 3.125V5.00625C22.5005 5.40928 22.6309 5.8014 22.8719 6.1245C23.1128 6.44759 23.4514 6.68447 23.8375 6.8C24.8051 7.07702 25.7381 7.46282 26.6187 7.95C26.9741 8.14104 27.3813 8.21316 27.7806 8.1558C28.1799 8.09843 28.5503 7.91459 28.8375 7.63125L30.1625 6.3C30.282 6.1857 30.4409 6.1219 30.6063 6.1219C30.7716 6.1219 30.9305 6.1857 31.05 6.3L33.7 8.95C33.8162 9.06848 33.8813 9.2278 33.8813 9.39375C33.8813 9.5597 33.8162 9.71902 33.7 9.8375L32.3688 11.1625C32.0854 11.4497 31.9016 11.8201 31.8442 12.2194C31.7868 12.6187 31.859 13.0259 32.05 13.3813C32.5372 14.2619 32.923 15.1949 33.2 16.1625C33.3155 16.5486 33.5524 16.8872 33.8755 17.1281C34.1986 17.3691 34.5907 17.4995 34.9938 17.5H36.875C37.0408 17.5 37.1997 17.5658 37.3169 17.6831C37.4342 17.8003 37.5 17.9592 37.5 18.125V21.875Z" fill="#787878"/>
<path d="M20 8.75C17.775 8.75 15.5999 9.4098 13.7498 10.646C11.8998 11.8821 10.4578 13.6391 9.60636 15.6948C8.75487 17.7505 8.53209 20.0125 8.96617 22.1948C9.40025 24.3771 10.4717 26.3816 12.0451 27.955C13.6184 29.5283 15.623 30.5998 17.8052 31.0338C19.9875 31.4679 22.2495 31.2451 24.3052 30.3936C26.3609 29.5422 28.1179 28.1002 29.354 26.2502C30.5902 24.4001 31.25 22.225 31.25 20C31.2455 17.0177 30.0588 14.1588 27.95 12.05C25.8412 9.94116 22.9823 8.75446 20 8.75ZM20 30C18.0222 30 16.0888 29.4135 14.4443 28.3147C12.7998 27.2159 11.5181 25.6541 10.7612 23.8268C10.0043 21.9996 9.8063 19.9889 10.1922 18.0491C10.578 16.1093 11.5304 14.3275 12.9289 12.9289C14.3275 11.5304 16.1093 10.578 18.0491 10.1921C19.9889 9.8063 21.9996 10.0043 23.8268 10.7612C25.6541 11.5181 27.2159 12.7998 28.3147 14.4443C29.4135 16.0888 30 18.0222 30 20C29.9965 22.6511 28.9418 25.1926 27.0672 27.0672C25.1926 28.9418 22.6511 29.9965 20 30Z" fill="#787878"/>
<path d="M26.875 23.75V14.375C26.875 14.2092 26.8092 14.0503 26.6919 13.9331C26.5747 13.8158 26.4158 13.75 26.25 13.75H23.75C23.5842 13.75 23.4253 13.8158 23.3081 13.9331C23.1908 14.0503 23.125 14.2092 23.125 14.375V23.75H21.875V16.875C21.875 16.7092 21.8092 16.5503 21.6919 16.4331C21.5747 16.3158 21.4158 16.25 21.25 16.25H18.75C18.5842 16.25 18.4253 16.3158 18.3081 16.4331C18.1908 16.5503 18.125 16.7092 18.125 16.875V23.75H16.875V20.625C16.875 20.4592 16.8092 20.3003 16.6919 20.1831C16.5747 20.0658 16.4158 20 16.25 20H13.75C13.5842 20 13.4253 20.0658 13.3081 20.1831C13.1908 20.3003 13.125 20.4592 13.125 20.625V23.75H11.875V25H28.125V23.75H26.875ZM15.625 23.75H14.375V21.25H15.625V23.75ZM20.625 23.75H19.375V17.5H20.625V23.75ZM25.625 23.75H24.375V15H25.625V23.75Z" fill="#787878"/>
</svg>
