<svg width="40" height="40" xmlns="http://www.w3.org/2000/svg">

 <g>
  <title>background</title>
  <rect fill="none" id="canvas_background" height="42" width="42" y="-1" x="-1"/>
 </g>
 <g>
  <title>Layer 1</title>
  <g stroke="null" id="svg_7">
   <path stroke="null" id="svg_2" fill="#787878" d="m20.869185,24.872463l-5.246449,0c-0.51899,-1.462094 -1.911969,-2.513269 -3.549992,-2.513269c-2.079102,0 -3.769903,1.690802 -3.769903,3.769903s1.690802,3.769903 3.769903,3.769903c0.214256,0 0.423486,-0.021991 0.628317,-0.056549l0,1.9415l8.168124,0l0,-6.911489zm-8.796441,3.769903c-1.386068,0 -2.513269,-1.127201 -2.513269,-2.513269s1.127201,-2.513269 2.513269,-2.513269c0.92614,0 1.727872,0.508937 2.163924,1.256634l-1.535607,0l0,3.680682c-0.202318,0.052779 -0.410291,0.089221 -0.628317,0.089221zm2.513269,-2.513269c0,0.631459 -0.241902,1.202599 -0.628317,1.644934l0,-1.644934l0.628317,0zm5.026538,4.398221l-5.654855,0l0,-1.138511c1.124688,-0.652822 1.884952,-1.867987 1.884952,-3.25971l3.769903,0l0,4.398221z"/>
   <path stroke="null" id="svg_3" fill="#787878" d="m14.626243,11.077759c-0.796078,-0.793565 -1.893748,-1.284909 -3.103887,-1.284909c-2.425304,0 -4.398221,1.972916 -4.398221,4.398221s1.972916,4.398221 4.398221,4.398221s4.398221,-1.972916 4.398221,-4.398221c0,-0.763405 -0.196035,-1.4822 -0.539724,-2.108633l1.377271,-1.032954l6.70226,0l0,-1.256634l-7.120719,0l-1.713421,1.284909zm-0.377619,4.644521l-2.097951,-1.258519l0,-3.350816c1.431935,0.292168 2.513269,1.56074 2.513269,3.078126c0,0.558574 -0.158964,1.076307 -0.415318,1.531209zm-5.867854,-1.531209c0,-1.516758 1.081334,-2.785959 2.513269,-3.078126l0,4.062071l2.517039,1.509846c-0.527786,0.400866 -1.176838,0.647795 -1.888722,0.647795c-1.732271,0 -3.141586,-1.409316 -3.141586,-3.141586z"/>
   <rect stroke="null" id="svg_4" fill="#787878" y="12.306119" x="22.12582" width="1.256634" height="1.256634"/>
   <rect stroke="null" id="svg_5" fill="#787878" y="12.306119" x="17.727599" width="3.141586" height="1.256634"/>
   <path stroke="null" id="svg_6" fill="#787878" d="m38.195032,17.859815l1.155475,-1.155475l-2.773392,-2.773392l-1.155475,1.155475c-1.528067,-0.993998 -3.291754,-1.523669 -5.127697,-1.523669c-0.645282,0 -1.275484,0.065973 -1.884952,0.189752l0,-9.61451l-5.026538,0l0,-2.513269l-5.72397,0c-0.820582,-0.801733 -1.924536,-1.256634 -3.072471,-1.256634s-2.251889,0.454902 -3.072471,1.256634l-5.72397,0l0,2.513269l-5.026538,0l0,35.185764l27.645957,0l0,-7.101241c0.609468,0.123778 1.23967,0.189752 1.884952,0.189752c5.196812,0 9.424758,-4.227947 9.424758,-9.424758c0,-1.835315 -0.529671,-3.599629 -1.523669,-5.127697zm-0.621406,-1.155475l-9.792952,9.792952l-3.50978,-3.50978l0.996511,-0.996511l2.513269,2.513269l8.796441,-8.796441l0.996511,0.996511zm-10.421269,-11.30971l0,8.717901c-0.409035,0.145141 -0.806131,0.314159 -1.186891,0.512079l0,-7.973345l-2.583012,0l0,-1.256634l3.769903,0zm-5.733395,14.451296l-15.629391,0l0,14.451296l13.822979,0l0,-1.256634l-12.566344,0l0,-11.938027l14.012731,0c-0.123778,0.609468 -0.189752,1.23967 -0.189752,1.884952c0,1.704625 0.461813,3.30055 1.256634,4.681592l0,5.371484l-1.256634,0l0,1.256634l2.513269,0l0,-4.924122c0.404008,0.43668 0.8476,0.834405 1.326378,1.188148l0,4.992609l-20.245637,0l0,-27.645957l1.326378,0l0,0.628317l17.592882,0l0,-0.628317l1.326378,0l0,7.505249c-1.498537,1.108352 -2.65464,2.645215 -3.289869,4.432778zm-14.372756,-16.964565l5.015856,0l0.187239,-0.208601c0.59753,-0.666016 1.448899,-1.048033 2.336712,-1.048033s1.739182,0.382017 2.336712,1.048033l0.187239,0.208601l5.015856,0l0,3.769903l0,0.628317l-15.079613,0l0,-1.884952l0,-1.256634l0,-1.256634zm20.106151,35.185764l-25.132689,0l0,-32.672495l3.769903,0l0,1.256634l-2.583012,0l0,30.159226l22.759534,0l0,-5.460077c0.38076,0.19792 0.777857,0.366937 1.186891,0.512079l0,6.204632l-0.000628,0zm3.141586,-6.911489c-1.590271,0 -3.071843,-0.464326 -4.328477,-1.253493l0,-0.003142l-0.005027,0c-2.299013,-1.446386 -3.83462,-3.999867 -3.83462,-6.911489c0,-4.503778 3.664346,-8.168124 8.168124,-8.168124c1.501678,0 2.948693,0.406521 4.21915,1.175582l-6.732419,6.732419l-2.513269,-2.513269l-2.773392,2.773392l5.286661,5.286661l9.505811,-9.505811c0.76906,1.271086 1.175582,2.7181 1.175582,4.21915c0,4.503778 -3.664346,8.168124 -8.168124,8.168124z"/>
  </g>
 </g>
</svg>