<svg width="40" height="40" xmlns="http://www.w3.org/2000/svg">

 <g>
  <title>background</title>
  <rect fill="none" id="canvas_background" height="42" width="42" y="-1" x="-1"/>
 </g>
 <g>
  <title>Layer 1</title>
  <polygon fill="#787878" stroke="null" id="svg_2" points="26.536797374486923,9.508937075734138 25.82634624838829,8.798388674855232 23.159296840429306,11.4654371291399 22.155125468969345,10.461564257740974 21.444676250219345,11.172114565968513 23.159296840429306,12.886538699269295 "/>
  <polygon fill="#787878" stroke="null" id="svg_3" points="4.873003959655762,0.2574901580810547 4.873003959655762,39.752498626708984 33.59865665435791,39.752498626708984 33.59865665435791,9.525886535644531 32.76027965545654,9.525886535644531 32.76027965545654,38.91411209106445 5.711385011672974,38.91411209106445 5.711385011672974,1.095872402191162 32.76027965545654,1.095872402191162 32.76027965545654,6.032601833343506 33.59865665435791,6.032601833343506 33.59865665435791,0.2574901580810547 "/>
  <rect fill="#787878" stroke="null" id="svg_4" y="7.029105" x="32.719951" width="0.931188" height="1.21548"/>
  <path fill="#787878" stroke="null" id="svg_5" d="m6.163934,32.724353l0,5.294887l22.373897,0l3.803798,-3.637053l0,-31.380279l-8.866856,0c0.045851,-0.25089 0.071094,-0.508822 0.071094,-0.772763l0,-0.686901l-8.586257,0l0,0.686901c0,0.263942 0.025158,0.521873 0.070922,0.772763l-8.866598,0l0,28.296954l0.858626,0l0,-27.438329l8.259893,0c0.64354,1.56038 2.180394,2.66174 3.970285,2.66174c1.789891,0 3.326659,-1.101359 3.970199,-2.66174l8.259979,0l0,29.837243l-3.632674,0l0,2.37556l0.858626,0l0,-1.516934l2.208042,0l-2.723647,2.604212l-21.170705,0l0,-4.436261l-0.858626,0zm13.088804,-27.060705c-1.836343,0 -3.340569,-1.448416 -3.430296,-3.262778l6.860419,0c-0.089726,1.814362 -1.593953,3.262778 -3.430124,3.262778z"/>
  <rect fill="#787878" stroke="null" id="svg_6" y="3.049424" x="17.283213" width="4.193414" height="0.911612"/>
  <polygon fill="#787878" stroke="null" id="svg_7" points="11.033536911010742,12.681405773035522 11.033536911010742,21.361860275268555 19.189491591234855,21.361860275268555 19.189491591234855,20.226575486189176 12.168832873786414,20.226575486189176 12.168832873786414,12.681405773035522 "/>
  <path fill="#787878" stroke="null" id="svg_8" d="m14.322183,10.258241l0,0.000516l-3.344239,0l0,1.876517l1.03179,0l0,-0.844727l2.312449,0l0,5.895135l4.788952,0l0,-5.895135l0.445837,0c0.190572,1.211632 0.887237,2.257145 1.866199,2.912848l0,6.140907l-1.473087,0l0,1.03179l2.504878,0l0,-6.666914c0.428296,0.143006 0.885998,0.221525 1.36186,0.221525c2.377968,0 4.312575,-1.934607 4.312575,-4.312575c0,-2.378071 -1.934607,-4.312678 -4.312575,-4.312678c-2.256938,0 -4.11313,1.743004 -4.296479,3.953202l-0.409311,0l0,-0.000516l-4.788849,0l0,0.000103zm3.757162,5.895548l-2.725371,0l0,-4.863344l2.725371,0l0,4.863344zm5.737477,-8.816546c1.809038,0 3.280784,1.471849 3.280784,3.280887s-1.471746,3.280784 -3.280784,3.280784s-3.280784,-1.471746 -3.280784,-3.280784s1.471746,-3.280887 3.280784,-3.280887z"/>
  <polygon fill="#787878" stroke="null" id="svg_9" points="12.273447960615158,24.26522159576416 12.273447960615158,23.222220420837402 8.998195618391037,23.222220420837402 8.998195618391037,28.671923637390137 14.447910279035568,28.671923637390137 14.447910279035568,24.8607816696167 15.711508721113205,23.597073554992676 14.974107712507248,22.859564781188965 12.152352303266525,25.681204795837402 11.261834114789963,24.79079532623291 10.52443215250969,25.52819538116455 12.152352303266525,27.15622615814209 13.404897660017014,25.903794288635254 13.404897660017014,27.62892246246338 10.041201561689377,27.62892246246338 10.041201561689377,24.26522159576416 "/>
  <polygon fill="#787878" stroke="null" id="svg_10" points="9.05892276763916,34.81958846928046 14.315547430960578,34.81958846928046 14.315547430960578,31.143571220124613 15.534385941225082,29.924643243316496 14.82310306175259,29.213159561157227 12.101328014196952,31.934835201442183 11.242362711181613,31.075964335333992 10.531079831709121,31.787247214806484 12.101328014196952,33.35769321776297 13.309498136171896,32.14962449120412 13.309498136171896,33.813531221910125 10.064978026864082,33.813531221910125 10.064978026864082,30.56911449616382 12.218133545393357,30.56911449616382 12.218133545393357,29.56307116581138 9.05892276763916,29.56307116581138 "/>
  <rect fill="#787878" stroke="null" id="svg_11" y="29.465551" x="17.178069" width="10.515293" height="0.76851"/>
  <rect fill="#787878" stroke="null" id="svg_12" y="31.119862" x="17.16352" width="10.526696" height="0.769343"/>
  <rect fill="#787878" stroke="null" id="svg_13" y="23.299648" x="17.193236" width="10.54189" height="0.770454"/>
  <rect fill="#787878" stroke="null" id="svg_14" y="24.915969" x="17.219852" width="10.474722" height="0.765545"/>
 </g>
</svg>