<svg width="40" height="40" viewBox="0 0 40 40" fill="none" xmlns="http://www.w3.org/2000/svg">
<g clip-path="url(#clip0)">
<path d="M0.78125 40H39.2188C39.6502 40 40 39.6502 40 39.2187V36.0937C40 33.0783 37.5467 30.625 34.5312 30.625C33.8908 30.625 32.5505 30.625 31.9531 30.625V30.0989C33.8431 29.2018 35.0781 27.2807 35.0781 25.1562V22.0312C35.0781 20.5984 34.512 19.2244 33.5156 18.2062V15H35.8594C36.1754 15 36.4602 14.8096 36.5812 14.5177C36.702 14.2258 36.6352 13.8897 36.4118 13.6663L30.1618 7.41631C29.8566 7.11123 29.3621 7.11123 29.0569 7.41631L22.8069 13.6663C22.5835 13.8897 22.5166 14.2258 22.6375 14.5177C22.7584 14.8097 23.0433 15 23.3593 15H25.703V18.2062C24.7066 19.2244 24.1405 20.5984 24.1405 22.0312V25.157C24.1405 27.281 25.3755 29.2018 27.2655 30.0989V30.625C26.7073 30.625 25.317 30.625 24.6874 30.625C22.7002 30.625 20.9576 31.6907 19.9999 33.2803C19.0423 31.6907 17.2997 30.625 15.3125 30.625C14.682 30.625 13.2924 30.625 12.7344 30.625V30.0989C14.6244 29.2018 15.8594 27.2807 15.8594 25.1562V22.0312C15.8594 21.7621 15.8396 21.4934 15.8005 21.228C16.8352 20.2039 17.4219 18.8137 17.4219 17.3437V15.7812C17.4219 15.4653 17.2315 15.1804 16.9396 15.0594C16.6477 14.9385 16.3116 15.0054 16.0882 15.2287C15.585 15.7319 14.9676 16.1088 14.2969 16.3311V7.81248H16.6406C16.9566 7.81248 17.2415 7.62209 17.3624 7.33021C17.4834 7.03834 17.4165 6.70225 17.1931 6.47881L10.9431 0.228809C10.638 -0.0762695 10.1434 -0.0762695 9.8382 0.228809L3.5882 6.47881C3.36477 6.70225 3.29797 7.03826 3.41891 7.33021C3.53984 7.62217 3.82469 7.81248 4.14062 7.81248H6.48438V8.90623C6.48438 9.33771 6.83414 9.68748 7.26562 9.68748C7.69711 9.68748 8.04688 9.33771 8.04688 8.90623V7.03123C8.04688 6.59975 7.69711 6.24998 7.26562 6.24998H6.02672L10.3906 1.88607L14.7545 6.24998H13.5156C13.0841 6.24998 12.7344 6.59975 12.7344 7.03123V16.5625H10.3906C9.57219 16.5625 8.77344 16.7461 8.04688 17.0908V15.9375C8.04688 15.506 7.69711 15.1562 7.26562 15.1562C6.83414 15.1562 6.48438 15.506 6.48438 15.9375V18.2048C5.47031 19.2392 4.92188 20.6133 4.92188 22.0312V25.157C4.92188 27.281 6.15688 29.2018 8.04688 30.0989V30.625C7.4893 30.625 6.09805 30.625 5.46875 30.625C2.45328 30.625 0 33.0783 0 36.0937V39.2187C0 39.6502 0.349766 40 0.78125 40ZM33.3748 32.1875H34.5312C36.6852 32.1875 38.4375 33.9398 38.4375 36.0937V38.4375H36.875V36.0937C36.875 35.6622 36.5252 35.3125 36.0938 35.3125C35.6623 35.3125 35.3125 35.6622 35.3125 36.0937V38.4375H32.1248L33.3748 32.1875ZM30.5314 38.4375H28.6873L27.4373 32.1875H27.7233L29.057 33.5212C29.2095 33.6737 29.4095 33.75 29.6094 33.75C29.8093 33.75 30.0092 33.6737 30.1618 33.5212L31.4955 32.1875H31.7815L30.5314 38.4375ZM25.2455 13.4375L29.6094 9.07357L33.9733 13.4375H32.7344C32.303 13.4375 31.9531 13.7872 31.9531 14.2187V17.0908C31.2266 16.7461 30.4278 16.5625 29.6094 16.5625C28.7909 16.5625 27.9922 16.7461 27.2656 17.0908V14.2187C27.2656 13.7872 26.9158 13.4375 26.4844 13.4375H25.2455ZM25.7031 22.0312C25.7031 19.8705 27.4557 18.125 29.6094 18.125C31.7616 18.125 33.5156 19.869 33.5156 22.0312V22.6781C32.6063 22.3556 31.9531 21.4872 31.9531 20.4687C31.9531 20.1064 31.7041 19.7916 31.3514 19.7084C30.9989 19.6251 30.6352 19.7953 30.4732 20.1193C29.6422 21.7805 27.9725 22.8125 26.1156 22.8125H25.7031V22.0312ZM25.7031 25.157V24.375H26.1156C27.9529 24.375 29.6513 23.6101 30.8492 22.304C31.3892 23.3143 32.3607 24.0605 33.5156 24.296V25.1562C33.5156 26.8092 32.4691 28.2899 30.9114 28.8408C30.5993 28.9511 30.3906 29.2462 30.3906 29.5773V31.0826L29.6094 31.8639L28.8281 31.0826V29.5773C28.8281 29.2462 28.6195 28.9511 28.3073 28.8408C26.7497 28.2899 25.7031 26.8095 25.7031 25.157ZM20.7812 36.0937C20.7812 33.9398 22.5336 32.1875 24.6875 32.1875H25.8439L27.0939 38.4375H23.9062V36.0937C23.9062 35.6622 23.5564 35.3125 23.125 35.3125C22.6936 35.3125 22.3438 35.6622 22.3438 36.0937V38.4375H20.7812V36.0937ZM14.1561 32.1875H15.3125C17.4664 32.1875 19.2188 33.9398 19.2188 36.0937V38.4375H17.6562V36.0937C17.6562 35.6622 17.3065 35.3125 16.875 35.3125C16.4435 35.3125 16.0938 35.6622 16.0938 36.0937V38.4375H12.9061L14.1561 32.1875ZM11.3127 38.4375H9.46859L8.21859 32.1875H8.50453L9.8382 33.5212C9.99078 33.6737 10.1907 33.75 10.3906 33.75C10.5905 33.75 10.7905 33.6737 10.943 33.5212L12.2768 32.1875H12.5627L11.3127 38.4375ZM10.3906 18.125H12.8687C13.8842 18.125 14.9156 17.8709 15.8594 17.3422V17.3437C15.8594 19.5058 14.107 21.25 11.9531 21.25C10.2602 21.25 8.76867 20.6772 7.41148 19.5053C8.16664 18.6158 9.25719 18.125 10.3906 18.125ZM6.48438 25.157V22.0312C6.48438 21.6473 6.54109 21.268 6.65039 20.9047C8.22461 22.1713 10.0037 22.8125 11.9531 22.8125C12.7681 22.8125 13.569 22.6286 14.2969 22.2837V25.1562C14.2969 26.8092 13.2503 28.2899 11.6927 28.8408C11.3805 28.9511 11.1719 29.2462 11.1719 29.5773V31.0826L10.3906 31.8639L9.60938 31.0826V29.5773C9.60938 29.2462 9.4007 28.9511 9.08859 28.8408C7.53094 28.29 6.48438 26.8095 6.48438 25.157ZM1.5625 36.0937C1.5625 33.9398 3.31484 32.1875 5.46875 32.1875H6.62516L7.87516 38.4375H4.6875V36.0937C4.6875 35.6622 4.33773 35.3125 3.90625 35.3125C3.47477 35.3125 3.125 35.6622 3.125 36.0937V38.4375H1.5625V36.0937Z" fill="#787878"/>
<path d="M7.26562 13.2031C7.6971 13.2031 8.04688 12.8533 8.04688 12.4219C8.04688 11.9904 7.6971 11.6406 7.26562 11.6406C6.83415 11.6406 6.48438 11.9904 6.48438 12.4219C6.48438 12.8533 6.83415 13.2031 7.26562 13.2031Z" fill="#787878"/>
</g>
<defs>
<clipPath id="clip0">
<rect width="40" height="40" fill="white"/>
</clipPath>
</defs>
</svg>
