<svg width="40" height="40" viewBox="0 0 40 40" fill="none" xmlns="http://www.w3.org/2000/svg">
<path d="M8.47751 21.5567C8.80173 21.5567 9.06462 21.2939 9.06462 20.9696V20.5626C9.06462 19.6263 8.34923 18.854 7.43641 18.7634V18.1203C7.43641 17.796 7.17352 17.5332 6.8493 17.5332C6.52508 17.5332 6.26219 17.796 6.26219 18.1203V18.7915C5.33579 18.9711 4.63399 19.7881 4.63399 20.7661C4.63399 21.8754 5.53649 22.7778 6.64571 22.7778H7.05274C7.51462 22.7778 7.89032 23.1535 7.89032 23.6154C7.89032 24.0773 7.51462 24.453 7.05274 24.453H6.44219C6.09258 24.453 5.80813 24.1685 5.80813 23.8188C5.80813 23.4945 5.54524 23.2317 5.22102 23.2317C4.8968 23.2317 4.63391 23.4945 4.63391 23.8188C4.63391 24.7551 5.34922 25.5274 6.26212 25.6181V26.2611C6.26212 26.5854 6.52501 26.8482 6.84923 26.8482C7.17344 26.8482 7.43634 26.5854 7.43634 26.2611V25.5899C8.36274 25.4103 9.06454 24.5934 9.06454 23.6153C9.06454 22.506 8.16204 21.6036 7.05282 21.6036H6.64579C6.18391 21.6036 5.80821 21.2279 5.80821 20.766C5.80821 20.3041 6.18391 19.9284 6.64579 19.9284H7.25634C7.60595 19.9284 7.8904 20.2129 7.8904 20.5626V20.9696C7.8904 21.2939 8.15329 21.5567 8.47751 21.5567Z" fill="#787878"/>
<path d="M21.6281 6.52938C21.9524 6.52938 22.2152 6.26656 22.2152 5.94227V5.53523C22.2152 4.59898 21.4999 3.82664 20.587 3.73602V3.09297C20.587 2.76867 20.3242 2.50586 19.9999 2.50586C19.6757 2.50586 19.4128 2.76867 19.4128 3.09297V3.76414C18.4864 3.94375 17.7846 4.7607 17.7846 5.73875C17.7846 6.84805 18.6871 7.75047 19.7963 7.75047H20.2034C20.6652 7.75047 21.041 8.12617 21.041 8.58805C21.041 9.04992 20.6652 9.42563 20.2034 9.42563H19.5928C19.2432 9.42563 18.9588 9.14117 18.9588 8.79148C18.9588 8.46719 18.6959 8.20438 18.3717 8.20438C18.0474 8.20438 17.7845 8.46719 17.7845 8.79148C17.7845 9.72773 18.4999 10.5001 19.4127 10.5907V11.2338C19.4127 11.558 19.6756 11.8209 19.9999 11.8209C20.3242 11.8209 20.587 11.558 20.587 11.2338V10.5626C21.5133 10.383 22.2152 9.56602 22.2152 8.58797C22.2152 7.47867 21.3127 6.57625 20.2035 6.57625H19.7964C19.3345 6.57625 18.9588 6.20055 18.9588 5.73867C18.9588 5.2768 19.3345 4.90109 19.7964 4.90109H20.407C20.7566 4.90109 21.041 5.18555 21.041 5.53523V5.94227C21.041 6.26664 21.3038 6.52938 21.6281 6.52938Z" fill="#787878"/>
<path d="M33.1507 11.5855C31.4537 11.5855 29.899 12.2062 28.7012 13.2321L25.7948 10.8101C26.4624 9.75332 26.8493 8.50246 26.8493 7.16277C26.8493 3.38605 23.7767 0.313477 20 0.313477C16.2233 0.313477 13.1507 3.38605 13.1507 7.16277C13.1507 9.14441 13.9969 10.9318 15.3466 12.1836L10.5605 16.4379C9.49039 15.7454 8.21602 15.3428 6.8493 15.3428C3.07258 15.3429 0 18.4154 0 22.1922C0 25.9689 3.07258 29.0414 6.8493 29.0414C10.626 29.0414 13.6986 25.9689 13.6986 22.1922C13.6986 20.2105 12.8524 18.4232 11.5027 17.1713L16.2888 12.917C17.3589 13.6095 18.6333 14.0121 20 14.0121C22.0155 14.0121 23.8302 13.1368 25.0847 11.7468L27.8748 14.0718C26.8925 15.2575 26.3014 16.7783 26.3014 18.4347C26.3014 22.2114 29.374 25.284 33.1507 25.284C36.9274 25.284 40 22.2114 40 18.4347C40 14.658 36.9274 11.5855 33.1507 11.5855ZM12.5245 22.1922C12.5245 25.3214 9.97859 27.8673 6.8493 27.8673C3.72 27.8673 1.17414 25.3214 1.17414 22.1922C1.17414 19.0629 3.72 16.517 6.8493 16.517C9.97859 16.517 12.5245 19.0629 12.5245 22.1922ZM20 12.8379C16.8707 12.8379 14.3248 10.2921 14.3248 7.16277C14.3248 4.03348 16.8707 1.48762 20 1.48762C23.1293 1.48762 25.6752 4.03348 25.6752 7.16277C25.6752 10.2921 23.1293 12.8379 20 12.8379ZM33.1507 24.11C30.0214 24.11 27.4755 21.5641 27.4755 18.4348C27.4755 16.9582 28.0427 15.6119 28.9702 14.6014C29.0636 14.567 29.1498 14.509 29.2181 14.4271C29.2623 14.3741 29.2948 14.3154 29.3174 14.2542C30.328 13.3269 31.6741 12.7597 33.1506 12.7597C36.2799 12.7597 38.8258 15.3056 38.8258 18.4349C38.8259 21.5641 36.28 24.11 33.1507 24.11Z" fill="#787878"/>
<path d="M34.7788 17.8009C35.1031 17.8009 35.366 17.538 35.366 17.2138V16.8067C35.366 15.8705 34.6506 15.0981 33.7378 15.0075V14.3645C33.7378 14.0402 33.4749 13.7773 33.1506 13.7773C32.8264 13.7773 32.5635 14.0402 32.5635 14.3645V15.0356C31.6372 15.2152 30.9353 16.0322 30.9353 17.0102C30.9353 18.1195 31.8378 19.022 32.9471 19.022H33.354C33.8159 19.022 34.1916 19.3977 34.1916 19.8595C34.1916 20.3214 33.8159 20.6971 33.354 20.6971H32.7435C32.3939 20.6971 32.1094 20.4127 32.1094 20.063C32.1094 19.7387 31.8466 19.4759 31.5223 19.4759C31.198 19.4759 30.9352 19.7387 30.9352 20.063C30.9352 20.9992 31.6505 21.7716 32.5634 21.8622V22.5052C32.5634 22.8295 32.8262 23.0923 33.1505 23.0923C33.4748 23.0923 33.7376 22.8295 33.7376 22.5052V21.8341C34.6639 21.6545 35.3658 20.8375 35.3658 19.8595C35.3658 18.7502 34.4633 17.8477 33.3541 17.8477H32.9471C32.4853 17.8477 32.1096 17.472 32.1096 17.0102C32.1096 16.5483 32.4853 16.1726 32.9471 16.1726H33.5577C33.9073 16.1726 34.1917 16.457 34.1917 16.8067V17.2138C34.1918 17.538 34.4546 17.8009 34.7788 17.8009Z" fill="#787878"/>
<path d="M12.4853 30.9971H7.47554C7.15132 30.9971 6.88843 31.2599 6.88843 31.5842V39.0989C6.88843 39.4232 7.15132 39.686 7.47554 39.686H12.4853C12.8095 39.686 13.0724 39.4232 13.0724 39.0989V31.5842C13.0724 31.2598 12.8095 30.9971 12.4853 30.9971ZM11.8982 38.5118H8.06257V32.1712H11.8982V38.5118Z" fill="#787878"/>
<path d="M36.908 30.9971H31.8983C31.574 30.9971 31.3112 31.2599 31.3112 31.5842V39.0989C31.3112 39.4232 31.574 39.686 31.8983 39.686H36.908C37.2323 39.686 37.4951 39.4232 37.4951 39.0989V31.5842C37.4951 31.2598 37.2323 30.9971 36.908 30.9971ZM36.3209 38.5118H32.4853V32.1712H36.3209V38.5118Z" fill="#787878"/>
<path d="M20.6262 33.4641C20.9505 33.4641 21.2134 33.2013 21.2134 32.877V24.0705C21.2134 23.7462 20.9505 23.4834 20.6262 23.4834H15.6164C15.2922 23.4834 15.0293 23.7462 15.0293 24.0705V39.0999C15.0293 39.4242 15.2922 39.687 15.6164 39.687H20.6262C20.9505 39.687 21.2133 39.4242 21.2133 39.0999V35.6167C21.2133 35.2924 20.9505 35.0296 20.6262 35.0296C20.3019 35.0296 20.0391 35.2924 20.0391 35.6167V38.5128H16.2034V24.6575H20.0391V32.8769C20.0391 33.2013 20.302 33.4641 20.6262 33.4641Z" fill="#787878"/>
<path d="M28.7672 27.2412H23.7574C23.4331 27.2412 23.1703 27.504 23.1703 27.8283V39.1004C23.1703 39.4246 23.4331 39.6875 23.7574 39.6875H28.7672C29.0915 39.6875 29.3543 39.4246 29.3543 39.1004V27.8283C29.3543 27.504 29.0915 27.2412 28.7672 27.2412ZM28.1801 38.5132H24.3445V28.4154H28.1801V38.5132Z" fill="#787878"/>
</svg>
