<svg width="40" height="40" viewBox="0 0 40 40" fill="none" xmlns="http://www.w3.org/2000/svg">
<path d="M33.125 9.375H31.875C31.5306 9.375 31.25 9.09438 31.25 8.75H30C30 9.78375 30.8412 10.625 31.875 10.625V11.875H33.125V10.625C34.1588 10.625 35 9.78375 35 8.75C35 7.71625 34.1588 6.875 33.125 6.875H31.875C31.5306 6.875 31.25 6.59437 31.25 6.25C31.25 5.90563 31.5306 5.625 31.875 5.625H33.125C33.4694 5.625 33.75 5.90563 33.75 6.25H35C35 5.21625 34.1588 4.375 33.125 4.375V3.125H31.875V4.375C30.8412 4.375 30 5.21625 30 6.25C30 7.28375 30.8412 8.125 31.875 8.125H33.125C33.4694 8.125 33.75 8.40562 33.75 8.75C33.75 9.09438 33.4694 9.375 33.125 9.375Z" fill="#787878"/>
<path d="M30.625 19.375V20.5919L29.8731 27.7369C28.3938 25.4075 25.9906 23.7494 23.2162 23.245L23.0087 23.2075L22.7631 22.225C24.2425 21.6775 25.3444 20.3544 25.5756 18.75H25.625C27.0037 18.75 28.125 17.6287 28.125 16.25C28.125 15.3969 27.6944 14.6438 27.04 14.1925L27.4719 13.3288C27.6044 13.0631 27.7106 12.7856 27.8037 12.5037C29.0681 13.6856 30.7463 14.375 32.5 14.375C36.2906 14.375 39.375 11.2906 39.375 7.5C39.375 3.70937 36.2906 0.625 32.5 0.625C29.3312 0.625 26.6194 2.80312 25.8475 5.77187C24.7806 4.9 23.42 4.375 21.9381 4.375H20.625C18.5544 4.375 16.5725 5.32625 15.2744 6.9325L15.2319 6.94125C13.2869 7.33063 11.875 9.0525 11.875 11.0369C11.875 11.6819 12.0275 12.3275 12.3162 12.9044L12.96 14.1925C12.6562 14.4019 12.4094 14.6806 12.2225 15H10.625V9.00875L12.9419 6.69187L12.0581 5.80813L7.5 10.3663L5 7.86625L0.808125 12.0581L1.69187 12.9419L1.875 12.7587V15H0.625V16.25H11.875C11.875 17.6287 12.9963 18.75 14.375 18.75H14.425C14.6562 20.3544 15.7581 21.6769 17.2375 22.225L16.9919 23.2075L16.7844 23.245C14.0094 23.7494 11.6069 25.4075 10.1269 27.7369L9.375 20.5919V19.375C9.375 18.3412 8.53375 17.5 7.5 17.5H1.875V18.125C1.875 19.6581 2.98688 20.93 4.44438 21.1938L4.85375 31.8462C4.94875 34.3156 6.95937 36.25 9.43062 36.25C10.9175 36.25 12.2719 35.5419 13.125 34.3681V39.375H26.875V34.3681C27.7275 35.5419 29.0819 36.25 30.5694 36.25C33.0412 36.25 35.0513 34.3156 35.1456 31.8462L35.5556 21.1938C37.0137 20.93 38.125 19.6581 38.125 18.125V17.5H32.5C31.4662 17.5 30.625 18.3412 30.625 19.375ZM4.375 15H3.125V11.5087L4.375 10.2587V15ZM6.875 15H5.625V10.2587L6.875 11.5087V15ZM9.375 15H8.125V11.5087L9.375 10.2587V15ZM22.9925 24.475L23 24.4769L22.6238 28.615L20.8381 26.8294L22.7556 24.4325L22.9925 24.475ZM20 25.8744L18.1812 23.6012L18.4606 22.485C18.5569 22.4919 18.6525 22.5 18.75 22.5H21.25C21.3475 22.5 21.4431 22.4919 21.5394 22.4856L21.8188 23.6019L20 25.8744ZM25.625 17.5V15C26.3144 15 26.875 15.5606 26.875 16.25C26.875 16.9394 26.3144 17.5 25.625 17.5ZM32.5 1.875C35.6012 1.875 38.125 4.39875 38.125 7.5C38.125 10.6012 35.6012 13.125 32.5 13.125C30.7881 13.125 29.1631 12.3269 28.1 10.9906C28.11 10.8475 28.125 10.705 28.125 10.5619C28.125 9.19063 27.6713 7.92625 26.9131 6.89937C27.215 4.06625 29.625 1.875 32.5 1.875ZM14.375 17.5C13.6856 17.5 13.125 16.9394 13.125 16.25C13.125 15.5606 13.6856 15 14.375 15V17.5ZM14.375 13.0181V13.75C14.2975 13.75 14.2237 13.7663 14.1481 13.7731L13.4344 12.3456C13.2319 11.9406 13.125 11.4881 13.125 11.0369C13.125 9.64688 14.1144 8.44 15.4775 8.16688L15.9819 8.06625L16.125 7.875C17.1819 6.46625 18.8638 5.625 20.625 5.625H21.9381C24.6606 5.625 26.875 7.83938 26.875 10.5619C26.875 11.3244 26.6944 12.0875 26.3538 12.7694L25.8519 13.7725C25.7762 13.7662 25.7025 13.75 25.625 13.75C25.625 12.7163 24.7838 11.875 23.75 11.875H23.5356C21.4225 11.875 19.4363 11.0525 17.9419 9.55813L17.5 9.11625L14.9244 11.6919C14.57 12.0456 14.375 12.5169 14.375 13.0181ZM15.625 18.125V13.0181C15.625 12.8513 15.69 12.6938 15.8081 12.5756L17.5144 10.8694C19.1831 12.3281 21.2981 13.125 23.5356 13.125H23.75C24.0944 13.125 24.375 13.4056 24.375 13.75V18.125C24.375 19.8481 22.9731 21.25 21.25 21.25H18.75C17.0269 21.25 15.625 19.8481 15.625 18.125ZM17.0081 24.475L17.245 24.4319L19.1625 26.8287L17.3769 28.6144L17.0006 24.4762C17.0031 24.4762 17.0056 24.475 17.0081 24.475ZM3.23187 18.75H7.5C7.84438 18.75 8.125 19.0306 8.125 19.375V20H5C4.185 20 3.49 19.4775 3.23187 18.75ZM14.375 38.125V30H13.125V31.7275L12.4088 33.1594C11.8413 34.295 10.7006 35 9.43062 35C7.63375 35 6.17188 33.5938 6.10313 31.7981L5.6975 21.25H8.1875L9.37875 32.565L10.6219 32.4344L10.37 30.0387C11.2931 27.555 13.2975 25.6344 15.775 24.7962L16.3737 31.385L18.3538 29.405L17.4675 35.1644L19.6875 38.125H14.375ZM18.7825 34.835L19.8481 27.9106L20 27.7588L20.1519 27.9106L21.2175 34.835L20 36.4581L18.7825 34.835ZM33.8969 31.7981C33.8281 33.5938 32.3662 35 30.5694 35C29.3 35 28.1588 34.295 27.5912 33.1594L26.875 31.7275V30H25.625V38.125H20.3125L22.5325 35.165L21.6462 29.4056L23.6262 31.3856L24.225 24.7969C26.7025 25.6356 28.7063 27.5556 29.63 30.0394L29.3781 32.4344L30.6213 32.565L31.8125 21.25H34.3025L33.8969 31.7981ZM35 20H31.875V19.375C31.875 19.0306 32.1556 18.75 32.5 18.75H36.7681C36.51 19.4775 35.815 20 35 20Z" fill="#787878"/>
<path d="M17.5 15C17.8452 15 18.125 14.7202 18.125 14.375C18.125 14.0298 17.8452 13.75 17.5 13.75C17.1548 13.75 16.875 14.0298 16.875 14.375C16.875 14.7202 17.1548 15 17.5 15Z" fill="#787878"/>
<path d="M22.5 15C22.8452 15 23.125 14.7202 23.125 14.375C23.125 14.0298 22.8452 13.75 22.5 13.75C22.1548 13.75 21.875 14.0298 21.875 14.375C21.875 14.7202 22.1548 15 22.5 15Z" fill="#787878"/>
<path d="M22.9364 17.7075L23.3007 16.25H16.6995L17.0638 17.7075C17.4013 19.0575 18.6088 20 20.0001 20C21.3914 20 22.5989 19.0575 22.9364 17.7075ZM18.3038 17.5H21.697C21.4676 18.2413 20.7838 18.75 20.0007 18.75C19.2176 18.75 18.5326 18.2413 18.3038 17.5Z" fill="#787878"/>
</svg>
