<svg width="40" height="40" xmlns="http://www.w3.org/2000/svg">

 <g>
  <title>background</title>
  <rect fill="none" id="canvas_background" height="42" width="42" y="-1" x="-1"/>
 </g>
 <g>
  <title>Layer 1</title>
  <path fill="#787878" stroke="null" id="svg_1" d="m0.850341,0.666667l0,3.264952l0.304729,0.391794l10.83964,13.538667l0,16.281226l2.220167,-1.741308l2.176635,-1.654242c1.043392,5.070688 5.556513,8.924202 10.926705,8.924202c6.137761,0 11.144369,-5.006608 11.144369,-11.144369c0,-6.137761 -5.006608,-11.144369 -11.144369,-11.144369c-2.628678,0 -5.055364,0.94762 -6.96523,2.481363l0,-2.002504l10.83964,-13.541383l0.304729,-0.389078l0,-3.264952l-30.647014,0zm3.177886,2.786092l24.291241,0l-10.012519,12.537415l-4.266204,0l-10.012519,-12.537415zm10.752575,15.323507l2.786092,0l0,4.353269c-0.71324,1.284389 -1.190706,2.736639 -1.349513,4.266204l-1.436579,1.13185l0,-9.751323zm12.537415,1.393046c4.630485,0 8.358277,3.727791 8.358277,8.358277c0,4.630485 -3.727791,8.358277 -8.358277,8.358277c-4.630485,0 -8.358277,-3.727791 -8.358277,-8.358277c0,-4.630485 3.727791,-8.358277 8.358277,-8.358277zm-1.393046,1.393046l0,1.480111c-1.567177,0.261893 -2.786092,1.591486 -2.786092,3.224136c0,1.050357 0.581945,2.010583 1.523644,2.478647l4.04854,2.046036c0,0.310649 -0.211743,0.522392 -0.522392,0.522392l-1.741308,0c-0.310649,0 -0.522392,-0.211743 -0.522392,-0.522392l0,-0.870654l-2.786092,0l0,0.870654c0,1.63265 1.218915,2.959526 2.786092,3.221419l0,1.480111l2.786092,0l0,-1.480111c1.567177,-0.261893 2.786092,-1.591486 2.786092,-3.224136c0,-1.050357 -0.581945,-2.005011 -1.523644,-2.478647l-4.04854,-2.046036c0,-0.310649 0.211743,-0.522392 0.522392,-0.522392l1.741308,0c0.310649,0 0.522392,0.211743 0.522392,0.522392l0,0.870654l2.786092,0l0,-0.870654c0,-1.63265 -1.218915,-2.959526 -2.786092,-3.221419l0,-1.480111l-2.786092,0z"/>
 </g>
</svg>