<svg width="40" height="40" xmlns="http://www.w3.org/2000/svg">

 <title/>
 <g>
  <title>background</title>
  <rect fill="none" id="canvas_background" height="42" width="42" y="-1" x="-1"/>
 </g>
 <g>
  <title>Layer 1</title>
  <rect stroke="null" x="44.003995" y="2.642272" fill="none" id="svg_1" width="40.691088" height="40.691088" class="cls-1"/>
  <g stroke="null" id="svg_11">
   <path stroke="null" fill="#787878" id="svg_2" d="m35.735298,5.101481l-1.781456,-0.317153l0,-0.230657a2.544937,2.162407 0 0 0 -2.544937,-2.162407l-9.518063,0l-9.272052,-1.830838a2.544937,2.162407 0 0 0 -3.07089,1.629013l-0.050899,0.194617l-1.840837,0a2.544937,2.162407 0 0 0 -2.544937,2.162407l0,13.976358l-3.698641,13.651997a2.544937,2.162407 0 0 0 1.917186,2.602096l1.781456,0.353193l0,0.194617a2.544937,2.162407 0 0 0 2.544937,2.162407l9.602894,0l0.093314,0.03604l9.093907,1.78759a2.544937,2.162407 0 0 0 3.07089,-1.629013l0.050899,-0.194617l1.840837,0a2.544937,2.162407 0 0 0 2.544937,-2.162407l0,-14.00519l3.698641,-13.615956a2.544937,2.162407 0 0 0 -1.917186,-2.602096zm-30.62407,28.514941l-1.399715,-0.281113a0.848312,0.720802 0 0 1 -0.644717,-0.872171l2.044432,-7.496344l0,8.649628zm7.125822,-31.650431l2.112297,0.418065l-3.079373,0a0.848312,0.720802 0 0 1 0.967076,-0.418065zm14.590969,35.910373l-2.103814,-0.418065l3.07089,0a0.848312,0.720802 0 0 1 -0.967076,0.418065zm5.429198,-2.58768a0.848312,0.720802 0 0 1 -0.848312,0.720802l-23.752741,0a0.848312,0.720802 0 0 1 -0.848312,-0.720802l0,-30.735012a0.848312,0.720802 0 0 1 0.848312,-0.720802l23.752741,0a0.848312,0.720802 0 0 1 0.848312,0.720802l0,30.735012zm3.741057,-27.909467l-2.044432,7.532385l0,-8.685668l1.399715,0.273905a0.848312,0.720802 0 0 1 0.644717,0.879379z" class="cls-2"/>
   <path stroke="null" fill="#787878" id="svg_3" d="m28.015658,32.052281l-16.117931,0l0,-5.860123a0.848312,0.720802 0 0 0 -1.696624,0l0,6.580925a0.848312,0.720802 0 0 0 0.848312,0.720802l16.966244,0a0.848312,0.720802 0 0 0 0,-1.441605z" class="cls-2"/>
   <path stroke="null" fill="#787878" id="svg_4" d="m13.874293,13.592532a3.681675,3.128282 0 0 0 3.681675,-3.121074a3.639259,3.092242 0 0 0 -0.568369,-1.636221l1.543928,-1.304652a0.848312,0.720802 0 0 0 -1.204603,-1.023539l-3.461114,2.940874l-1.925669,-1.636221a0.848312,0.720802 0 0 0 -1.19612,0a0.848312,0.720802 0 0 0 0,1.016331l0,0a3.630776,3.085034 0 0 0 -0.54292,1.643429a3.673192,3.121074 0 0 0 3.673192,3.121074zm-1.857804,-3.6833l1.263985,1.073996a0.848312,0.720802 0 0 0 0.593819,0.209033a0.848312,0.720802 0 0 0 0.568369,-0.209033l1.263985,-1.073996a2.171679,1.845254 0 0 1 0.118764,0.562226a1.985051,1.686678 0 0 1 -3.961618,0a1.942635,1.650637 0 0 1 0.152696,-0.562226z" class="cls-2"/>
   <path stroke="null" fill="#787878" id="svg_5" d="m13.874293,21.492526a3.681675,3.128282 0 1 0 -3.673192,-3.128282a3.690158,3.13549 0 0 0 3.673192,3.128282zm0,-4.807752a1.985051,1.686678 0 1 1 -1.976567,1.679469a1.985051,1.686678 0 0 1 1.976567,-1.679469z" class="cls-2"/>
   <path stroke="null" fill="#787878" id="svg_6" d="m28.015658,23.078291l-3.325384,0a0.848312,0.720802 0 0 0 0,1.441605l1.280951,0l-4.742065,4.050909l-3.333867,-2.883209a0.848312,0.720802 0 0 0 -1.19612,0l-3.036958,2.58768a0.848312,0.720802 0 1 0 1.19612,1.016331l2.443139,-2.075911l3.325384,2.832753a0.848312,0.720802 0 0 0 1.204603,0l5.335884,-4.505015l0,1.081204a0.848312,0.720802 0 0 0 1.696624,0l0,-2.825545a0.848312,0.720802 0 0 0 -0.848312,-0.720802z" class="cls-2"/>
   <path stroke="null" fill="#787878" id="svg_7" d="m20.660791,17.643442l3.639259,0a0.848312,0.720802 0 0 0 0,-1.441605l-3.639259,0a0.848312,0.720802 0 0 0 0,1.441605z" class="cls-2"/>
   <path stroke="null" fill="#787878" id="svg_8" d="m20.660791,20.533859l6.981609,0a0.848312,0.720802 0 0 0 0,-1.441605l-6.981609,0a0.848312,0.720802 0 0 0 0,1.441605z" class="cls-2"/>
   <path stroke="null" fill="#787878" id="svg_9" d="m20.660791,9.750656l3.639259,0a0.848312,0.720802 0 0 0 0,-1.441605l-3.639259,0a0.848312,0.720802 0 0 0 0,1.441605z" class="cls-2"/>
   <path stroke="null" fill="#787878" id="svg_10" d="m20.660791,12.633865l6.981609,0a0.848312,0.720802 0 0 0 0,-1.441605l-6.981609,0a0.848312,0.720802 0 0 0 0,1.441605z" class="cls-2"/>
  </g>
 </g>
</svg>