<svg width="40" height="40" viewBox="0 0 40 40" fill="none" xmlns="http://www.w3.org/2000/svg">
<g clip-path="url(#clip0)">
<path d="M32.1974 9.36314C31.4461 9.12907 31.3329 9.03799 31.3329 8.66751C31.3329 8.29936 31.6314 8.00088 31.9995 8.00088C32.3677 8.00088 32.6662 8.29936 32.6662 8.66751H33.9994C33.9968 7.8228 33.463 7.07109 32.6662 6.79044V6.00098H31.3329V6.79044C30.5362 7.07109 30.0022 7.8228 29.9996 8.66751C29.9996 10.0747 31.1272 10.4259 31.8003 10.6358C32.5528 10.8705 32.6662 10.962 32.6662 11.334C32.6658 11.702 32.3675 12.0003 31.9995 12.0007C31.6315 12.0003 31.3332 11.702 31.3329 11.334H29.9996C30.0022 12.1787 30.5362 12.9305 31.3329 13.211V14.0006H32.6662V13.2111C33.463 12.9305 33.9968 12.1787 33.9994 11.334C33.9994 9.92494 32.8712 9.57338 32.1974 9.36314Z" fill="#787878"/>
<path d="M8.19865 9.36314C7.44736 9.12907 7.33412 9.03799 7.33412 8.66751C7.33412 8.29936 7.6326 8.00088 8.00075 8.00088C8.36889 8.00088 8.66738 8.29936 8.66738 8.66751H10.0006C9.99805 7.8228 9.46417 7.07109 8.66738 6.79044V6.00098H7.33412V6.79044C6.53741 7.07109 6.00344 7.8228 6.00085 8.66751C6.00085 10.0747 7.12838 10.4259 7.80151 10.6358C8.55405 10.8705 8.66738 10.962 8.66738 11.334C8.66704 11.702 8.36873 12.0003 8.00075 12.0007C7.63277 12.0003 7.33445 11.702 7.33412 11.334H6.00085C6.00344 12.1787 6.53741 12.9305 7.33412 13.211V14.0006H8.66738V13.2111C9.46408 12.9305 9.99805 12.1787 10.0006 11.334C10.0006 9.92494 8.87237 9.57338 8.19865 9.36314Z" fill="#787878"/>
<path d="M35.8149 15.4605C38.834 13.3617 39.58 9.2127 37.4811 6.19361C35.3822 3.17452 31.2332 2.42856 28.2141 4.52745C28.0405 4.64819 27.8726 4.77718 27.7112 4.91393C26.0092 0.841056 21.3277 -1.08093 17.2548 0.621068C15.1546 1.49869 13.5282 3.23018 12.7837 5.38115C11.5363 4.07355 9.80751 3.33443 8.00044 3.33618C4.32171 3.33318 1.33712 6.31294 1.33412 9.99166C1.33237 12.1712 2.39698 14.2138 4.18472 15.4605C1.79201 15.9462 0.00085451 17.8333 0.00085451 20.0853V39.3343C0.000771181 39.7024 0.299089 40.0009 0.667153 40.0009C0.667237 40.0009 0.667403 40.0009 0.667486 40.0009H39.3321C39.7002 40.001 39.9987 39.7027 39.9988 39.3346C39.9988 39.3346 39.9988 39.3344 39.9988 39.3343V20.0853C39.9988 17.8332 38.2075 15.9461 35.8149 15.4605ZM28.3327 8.0026C28.332 7.43838 28.2715 6.87574 28.1523 6.32419C30.1814 4.18605 33.5597 4.09772 35.6978 6.12686C37.836 8.15601 37.9243 11.5342 35.8952 13.6724C33.866 15.8105 30.4878 15.8989 28.3496 13.8697C27.8416 13.3875 27.4333 12.81 27.1483 12.1702C27.9218 10.9177 28.3319 9.47477 28.3327 8.0026ZM28.2011 15.4673C27.64 15.5789 27.0986 15.7736 26.5949 16.045C25.9153 15.5328 25.1456 15.1526 24.3258 14.9242C25.0451 14.5068 25.6953 13.9805 26.2532 13.3638C26.7432 14.1972 27.4078 14.9147 28.2011 15.4673ZM20.3331 1.33628C24.0149 1.33628 26.9995 4.32088 26.9995 8.0026C26.9995 11.6843 24.0149 14.6689 20.3331 14.6689C16.6514 14.6689 13.6668 11.6843 13.6668 8.0026C13.671 4.32263 16.6532 1.34053 20.3331 1.33628ZM16.1131 14.7859C15.1065 14.9742 14.1573 15.3932 13.3398 16.0101C12.8591 15.7594 12.3455 15.5778 11.8141 15.4705C12.7574 14.8117 13.5127 13.9184 14.0057 12.8787C14.5895 13.6344 15.3031 14.2803 16.1131 14.7859ZM2.66738 10.0025C2.66047 7.06398 5.03701 4.67636 7.97552 4.66944C9.74985 4.66527 11.4094 5.54581 12.4007 7.0174C12.1997 8.53324 12.4515 10.0746 13.1244 11.4477C12.3293 14.2805 9.3882 15.9325 6.55535 15.1374C4.25422 14.4915 2.66488 12.3925 2.66738 10.0025ZM10.667 38.6677H1.33412V20.0853C1.33412 18.2013 3.15561 16.6688 5.39507 16.6688H10.6057C11.1818 16.6701 11.7526 16.7791 12.2886 16.99C11.2427 18.1961 10.6669 19.7388 10.667 21.3352V38.6677ZM27.9994 38.6677H12.0002V21.3352C12.0036 18.3913 14.3894 16.0055 17.3333 16.0022H22.4997C25.5356 16.0058 27.9958 18.466 27.9994 21.5019V38.6677ZM38.6655 38.6677H29.3327V21.5019C29.3324 19.8512 28.7315 18.2569 27.6421 17.0167C28.1977 16.7877 28.7929 16.6695 29.3938 16.6688H34.6045C36.8439 16.6688 38.6654 18.2013 38.6654 20.0853V38.6677H38.6655Z" fill="#787878"/>
<path d="M23.2496 9.3342C22.9472 8.15534 21.8836 7.33189 20.6666 7.33439C19.9302 7.33439 19.3333 6.7375 19.3333 6.00113C19.3333 5.26475 19.9302 4.66786 20.6666 4.66786C21.403 4.66786 21.9999 5.26475 21.9999 6.00113H23.3331C23.3295 4.78861 22.5075 3.7315 21.3332 3.42926V2.66797H20V3.42926C18.5765 3.79441 17.7185 5.24433 18.0836 6.66784C18.386 7.84669 19.4496 8.67015 20.6666 8.66765C21.403 8.66765 21.9999 9.26454 21.9999 10.0009C21.9999 10.7373 21.403 11.3342 20.6666 11.3342C19.9306 11.3333 19.3342 10.7369 19.3333 10.0009H18.0001C18.0037 11.2134 18.8257 12.2705 20 12.5728V13.3341H21.3332V12.5728C22.7567 12.2076 23.6148 10.7577 23.2496 9.3342Z" fill="#787878"/>
</g>
<defs>
<clipPath id="clip0">
<rect width="40" height="40" fill="white"/>
</clipPath>
</defs>
</svg>
