<svg width="40" height="40" xmlns="http://www.w3.org/2000/svg">

 <g>
  <title>background</title>
  <rect fill="none" id="canvas_background" height="42" width="42" y="-1" x="-1"/>
 </g>
 <g>
  <title>Layer 1</title>
  <path stroke="null" id="svg_2" fill="#787878" d="m32.232884,16.070879l-29.287678,0l0,20.374037l29.287678,0l0,-20.374037zm-1.273377,19.100659l-26.740923,0l0,-17.827282l26.740923,0l0,17.827282z"/>
  <path stroke="null" id="svg_3" fill="#787878" d="m8.710167,33.219186c1.275568,0 2.312906,-1.037338 2.312906,-2.312906c0,-0.59326 -0.230712,-1.129276 -0.599621,-1.539239l3.320755,-5.534206c0.235916,0.080952 0.485132,0.134727 0.748225,0.134727c0.271188,0 0.527921,-0.05551 0.76962,-0.141666l3.624902,4.142415c-0.215679,0.351562 -0.346936,0.760946 -0.346936,1.203289c0,1.275568 1.037338,2.312906 2.312906,2.312906s2.312906,-1.037338 2.312906,-2.312906c0,-0.458534 -0.138196,-0.88353 -0.368909,-1.243187l2.991166,-3.988029c0.089625,0.010408 0.176937,0.027177 0.268875,0.027177c1.275568,0 2.312906,-1.037338 2.312906,-2.312906s-1.037338,-2.312906 -2.312906,-2.312906s-2.312906,1.037338 -2.312906,2.312906c0,0.755164 0.368909,1.420703 0.930367,1.843386l-2.733855,3.64514c-0.325542,-0.175781 -0.692137,-0.284487 -1.087644,-0.284487c-0.412854,0 -0.795062,0.11738 -1.130433,0.307617l-3.496536,-3.996124c0.356188,-0.407072 0.579383,-0.933258 0.579383,-1.515532c0,-1.275568 -1.037338,-2.312906 -2.312906,-2.312906s-2.312906,1.037338 -2.312906,2.312906c0,0.59326 0.230712,1.129276 0.599621,1.539239l-3.320755,5.534206c-0.235916,-0.080952 -0.485132,-0.134727 -0.748225,-0.134727c-1.275568,0 -2.312906,1.037338 -2.312906,2.312906s1.037338,2.312906 2.312906,2.312906zm17.346797,-12.720984c0.637784,0 1.156453,0.518669 1.156453,1.156453s-0.518669,1.156453 -1.156453,1.156453s-1.156453,-0.518669 -1.156453,-1.156453s0.518669,-1.156453 1.156453,-1.156453zm-4.047586,8.673399c0,0.637784 -0.518669,1.156453 -1.156453,1.156453s-1.156453,-0.518669 -1.156453,-1.156453s0.518669,-1.156453 1.156453,-1.156453s1.156453,0.518669 1.156453,1.156453zm-7.516945,-8.673399c0.637784,0 1.156453,0.518669 1.156453,1.156453s-0.518669,1.156453 -1.156453,1.156453s-1.156453,-0.518669 -1.156453,-1.156453s0.518669,-1.156453 1.156453,-1.156453zm-5.782266,9.251625c0.637784,0 1.156453,0.518669 1.156453,1.156453s-0.518669,1.156453 -1.156453,1.156453s-1.156453,-0.518669 -1.156453,-1.156453s0.518669,-1.156453 1.156453,-1.156453z"/>
  <path stroke="null" id="svg_4" fill="#787878" d="m30.878417,0.315069l-18.855878,0l0,13.63942l-11.159525,0l0,24.798945l33.478576,0l4.959789,0l0,-30.015403l-8.422962,-8.422962zm0.363305,13.63942l0,-4.339815l4.339815,0l0,13.019446l-1.239947,0l0,-8.679631l-3.099868,0zm-6.199736,0l-1.239947,0l0,-5.579763l1.239947,0l0,5.579763zm-2.479895,-6.81971l0,6.81971l-1.239947,0l0,-5.579763l-3.719842,0l0,5.579763l-1.859921,0l0,-9.919578l14.259394,0l0,1.859921l-2.479895,0l0,8.059657l-1.239947,0l0,-6.81971l-3.719842,0zm-2.479895,6.81971l-1.239947,0l0,-4.339815l1.239947,0l0,4.339815zm8.679631,-6.81971l1.239947,0l0,2.479895l0,4.339815l-1.239947,0l0,-6.81971zm2.479895,1.239947l0,-2.479895l0,-3.463173l5.943067,5.943067l-5.943067,0zm-17.979235,-6.81971l16.739288,0l0,1.239947l-15.499341,0l0,11.159525l-1.239947,0l0,-12.399473zm19.839156,35.958471l-30.998682,0l0,-22.319051l30.998682,0l0,22.319051zm4.959789,0l-3.719842,0l0,-13.63942l2.479895,0l0,-14.259394l1.239947,0l0,27.898813z"/>
  <rect id="svg_6" fill="#787878" y="10.068495" x="1.219179" width="2" height="2"/>
  <rect id="svg_7" fill="#787878" y="6.068495" x="1.219179" width="2" height="2"/>
  <rect id="svg_8" fill="#787878" y="2.068495" x="1.219179" width="2" height="2"/>
  <rect id="svg_9" fill="#787878" y="2.068495" x="5.219179" width="2" height="2"/>
  <rect id="svg_10" fill="#787878" y="2.068495" x="9.219179" width="2" height="2"/>
  <rect id="svg_12" fill="#787878" y="32.041106" x="27.739733" width="2" height="2"/>
  <rect id="svg_13" fill="#787878" y="32.041106" x="23.739733" width="2" height="2"/>
  <rect id="svg_14" fill="#787878" y="28.041106" x="27.739733" width="2" height="2"/>
 </g>
</svg>