<svg width="40" height="40" xmlns="http://www.w3.org/2000/svg">

 <g>
  <title>background</title>
  <rect fill="none" id="canvas_background" height="42" width="42" y="-1" x="-1"/>
 </g>
 <g>
  <title>Layer 1</title>
  <path stroke="null" id="svg_1" fill="#787878" d="m0.655341,6.975936c0,-3.490777 2.829818,-6.320595 6.320595,-6.320595l20.420383,0c3.490719,0 6.320595,2.829818 6.320595,6.320595l0,9.251795c-0.160835,-0.009335 -0.323031,-0.014003 -0.4862,-0.014003l-2.430998,0l0,-9.237793c0,-1.879648 -1.52375,-3.403397 -3.403397,-3.403397l-20.420383,0c-1.879648,0 -3.403397,1.52375 -3.403397,3.403397l0,22.365182c0,1.879648 1.52375,3.403397 3.403397,3.403397l1.458599,0l0,0.4862c0,0.845987 0.127112,1.662414 0.363288,2.430998l-1.821887,0c-3.490758,0 -6.320595,-2.829876 -6.320595,-6.320595l0,-22.365182zm9.237793,-0.4862c-0.805555,0 -1.458599,0.653044 -1.458599,1.458599c0,0.805555 0.653044,1.458599 1.458599,1.458599l14.585988,0c0.805536,0 1.458599,-0.653044 1.458599,-1.458599c0,-0.805555 -0.653063,-1.458599 -1.458599,-1.458599l-14.585988,0zm2.430998,6.320595c0,-0.805555 0.653044,-1.458599 1.458599,-1.458599l10.696391,0c0.805536,0 1.458599,0.653044 1.458599,1.458599c0,0.805555 -0.653063,1.458599 -1.458599,1.458599l-10.696391,0c-0.805555,0 -1.458599,-0.653044 -1.458599,-1.458599zm-1.944798,11.668791c0,-3.490719 2.829818,-6.320595 6.320595,-6.320595l16.530787,0c3.490719,0 6.320595,2.829876 6.320595,6.320595l0,8.751593c0,3.490719 -2.829876,6.320595 -6.320595,6.320595l-16.530787,0c-3.490777,0 -6.320595,-2.829876 -6.320595,-6.320595l0,-8.751593zm6.320595,-3.403397c-0.980742,0 -1.864595,0.414826 -2.485647,1.078585l10.751235,6.911425l10.750846,-6.911425c-0.620974,-0.66376 -1.504885,-1.078585 -2.485647,-1.078585l-16.530787,0zm-3.403397,12.15499c0,1.879648 1.52375,3.403397 3.403397,3.403397l16.530787,0c1.879648,0 3.403397,-1.52375 3.403397,-3.403397l0,-8.198298l-10.87998,6.994273c-0.480365,0.308834 -1.097061,0.308834 -1.577426,0l-10.880175,-6.994273l0,8.198298z"/>
 </g>
</svg>