<svg width="20" height="20" viewBox="0 0 20 20" fill="none" xmlns="http://www.w3.org/2000/svg">
<path d="M14.2187 9.99999C14.2187 9.16561 13.9713 8.34996 13.5077 7.65619C13.0442 6.96242 12.3853 6.42169 11.6144 6.10238C10.8436 5.78308 9.99531 5.69953 9.17696 5.86231C8.3586 6.0251 7.60689 6.42689 7.01689 7.01689C6.42689 7.60689 6.0251 8.3586 5.86231 9.17696C5.69953 9.99531 5.78308 10.8436 6.10238 11.6144C6.42169 12.3853 6.96242 13.0442 7.65619 13.5077C8.34996 13.9713 9.16561 14.2187 9.99999 14.2187C11.1185 14.2175 12.1908 13.7726 12.9817 12.9817C13.7726 12.1908 14.2175 11.1185 14.2187 9.99999ZM6.75277 10.4687H7.1875C7.31182 10.4687 7.43105 10.4194 7.51895 10.3314C7.60686 10.2435 7.65625 10.1243 7.65625 9.99999C7.65625 9.87567 7.60686 9.75645 7.51895 9.66854C7.43105 9.58063 7.31182 9.53124 7.1875 9.53124H6.75277C6.85504 8.83071 7.18069 8.18189 7.68129 7.68129C8.18189 7.18069 8.83071 6.85504 9.53124 6.75277V7.1875C9.53124 7.31182 9.58063 7.43105 9.66854 7.51895C9.75645 7.60686 9.87567 7.65625 9.99999 7.65625C10.1243 7.65625 10.2435 7.60686 10.3314 7.51895C10.4194 7.43105 10.4687 7.31182 10.4687 7.1875V6.75277C11.1693 6.85504 11.8181 7.18069 12.3187 7.68129C12.8193 8.18189 13.145 8.83071 13.2472 9.53124H12.8125C12.6882 9.53124 12.5689 9.58063 12.481 9.66854C12.3931 9.75645 12.3437 9.87567 12.3437 9.99999C12.3437 10.1243 12.3931 10.2435 12.481 10.3314C12.5689 10.4194 12.6882 10.4687 12.8125 10.4687H13.2472C13.145 11.1693 12.8193 11.8181 12.3187 12.3187C11.8181 12.8193 11.1693 13.145 10.4687 13.2472V12.8125C10.4687 12.6882 10.4194 12.5689 10.3314 12.481C10.2435 12.3931 10.1243 12.3437 9.99999 12.3437C9.87567 12.3437 9.75645 12.3931 9.66854 12.481C9.58063 12.5689 9.53124 12.6882 9.53124 12.8125V13.2472C8.83071 13.145 8.18189 12.8193 7.68129 12.3187C7.18069 11.8181 6.85504 11.1693 6.75277 10.4687Z" fill="white"/>
<path d="M9.79036 10.4195C9.87836 10.4635 9.97797 10.4787 10.0751 10.4629C10.1722 10.4472 10.2619 10.4012 10.3315 10.3317L11.5815 9.08168C11.6682 8.99353 11.7166 8.87468 11.7161 8.75102C11.7156 8.62736 11.6662 8.50891 11.5788 8.42147C11.4913 8.33403 11.3729 8.28469 11.2492 8.28418C11.1256 8.28368 11.0067 8.33206 10.9186 8.41879L9.90743 9.42992L8.95965 8.95601C8.84846 8.90041 8.71973 8.89126 8.60179 8.93057C8.48384 8.96987 8.38635 9.05443 8.33075 9.16562C8.27514 9.27682 8.26599 9.40554 8.3053 9.52349C8.34461 9.64143 8.42916 9.73892 8.54036 9.79453L9.79036 10.4195Z" fill="white"/>
<path d="M2.8125 10.469C2.93682 10.469 3.05605 10.4196 3.14396 10.3317C3.23186 10.2438 3.28125 10.1245 3.28125 10.0002C3.28125 6.47288 6.01348 3.57191 9.47266 3.3021L9.04356 3.73128C8.99945 3.77468 8.96437 3.82638 8.94034 3.8834C8.91631 3.94042 8.90381 4.00164 8.90356 4.06352C8.9033 4.12539 8.91531 4.18671 8.93887 4.24393C8.96243 4.30114 8.99709 4.35313 9.04084 4.39688C9.0846 4.44064 9.13658 4.47529 9.1938 4.49886C9.25102 4.52242 9.31233 4.53442 9.37421 4.53417C9.43609 4.53392 9.4973 4.52142 9.55433 4.49739C9.61135 4.47336 9.66305 4.43828 9.70645 4.39417L10.9564 3.14417C11.0443 3.05627 11.0937 2.93704 11.0937 2.81273C11.0937 2.68841 11.0443 2.56919 10.9564 2.48128L9.70645 1.23128C9.6183 1.14456 9.49945 1.09618 9.37579 1.09668C9.25213 1.09719 9.13368 1.14653 9.04624 1.23397C8.9588 1.32141 8.90946 1.43986 8.90895 1.56352C8.90845 1.68718 8.95683 1.80603 9.04356 1.89417L9.50949 2.36015C5.51563 2.61394 2.34375 5.94335 2.34375 10.0002C2.34375 10.1245 2.39314 10.2438 2.48104 10.3317C2.56895 10.4196 2.68818 10.469 2.8125 10.469Z" fill="white"/>
<path d="M17.1875 9.53125C17.0632 9.53125 16.944 9.58064 16.856 9.66854C16.7681 9.75645 16.7188 9.87568 16.7188 10C16.7188 13.5273 13.9865 16.4283 10.5273 16.6981L10.9565 16.2689C11.0432 16.1808 11.0916 16.0619 11.0911 15.9383C11.0906 15.8146 11.0412 15.6962 10.9538 15.6087C10.8664 15.5213 10.7479 15.472 10.6242 15.4715C10.5006 15.471 10.3817 15.5193 10.2936 15.6061L9.04359 16.8561C8.95569 16.944 8.90631 17.0632 8.90631 17.1875C8.90631 17.3118 8.95569 17.431 9.04359 17.5189L10.2936 18.7689C10.3817 18.8557 10.5006 18.9041 10.6242 18.9035C10.7479 18.903 10.8664 18.8537 10.9538 18.7663C11.0412 18.6788 11.0906 18.5604 11.0911 18.4367C11.0916 18.3131 11.0432 18.1942 10.9565 18.1061L10.4905 17.6401C14.4844 17.3863 17.6562 14.0569 17.6562 10C17.6562 9.87568 17.6069 9.75645 17.519 9.66854C17.431 9.58064 17.3118 9.53125 17.1875 9.53125Z" fill="white"/>
<path d="M19.2188 2.1875C19.2091 1.84347 19.1257 1.50553 18.9739 1.1966C18.6385 0.525703 18.0039 0.15625 17.1875 0.15625H14.6875C14.5632 0.15625 14.444 0.205636 14.356 0.293544C14.2681 0.381451 14.2188 0.50068 14.2188 0.625C14.2188 1.42441 14.7173 1.92434 15.1566 2.17441C15.1566 2.17879 15.1562 2.18316 15.1562 2.1875C15.1562 2.72622 15.3703 3.24288 15.7512 3.62381C16.1321 4.00474 16.6488 4.21875 17.1875 4.21875C17.7262 4.21875 18.2429 4.00474 18.6238 3.62381C19.0047 3.24288 19.2188 2.72622 19.2188 2.1875ZM17.1875 1.09375C17.5732 1.09375 17.8527 1.21246 18.0367 1.45563L17.9607 1.43031C17.9129 1.41438 17.8629 1.40625 17.8125 1.40625H15.7148C15.5568 1.33668 15.4183 1.22937 15.3114 1.09375H17.1875ZM17.1875 3.28125C16.9246 3.2809 16.6706 3.186 16.4719 3.01388C16.2731 2.84176 16.143 2.60391 16.1051 2.34375H17.7364L18.2329 2.50926C18.1638 2.73264 18.0251 2.92807 17.837 3.06697C17.6489 3.20587 17.4213 3.28096 17.1875 3.28125Z" fill="white"/>
<path d="M18.4375 4.21875H15.9375C15.5647 4.21916 15.2072 4.36745 14.9436 4.63109C14.68 4.89472 14.5317 5.25217 14.5312 5.625V8.4375C14.5312 8.56182 14.5806 8.68105 14.6685 8.76896C14.7565 8.85686 14.8757 8.90625 15 8.90625H19.375C19.4993 8.90625 19.6185 8.85686 19.7065 8.76896C19.7944 8.68105 19.8438 8.56182 19.8438 8.4375V5.625C19.8433 5.25217 19.695 4.89472 19.4314 4.63109C19.1678 4.36745 18.8103 4.21916 18.4375 4.21875ZM18.9062 7.96875H15.4688V5.625C15.4689 5.50072 15.5183 5.38157 15.6062 5.29369C15.6941 5.20581 15.8132 5.15638 15.9375 5.15625H18.4375C18.5618 5.15638 18.6809 5.20581 18.7688 5.29369C18.8567 5.38157 18.9061 5.50072 18.9062 5.625V7.96875Z" fill="white"/>
<path d="M5.15625 13.125C5.14665 12.781 5.06316 12.443 4.91145 12.1341C4.57602 11.4632 3.94141 11.0938 3.125 11.0938H0.625C0.50068 11.0938 0.381451 11.1431 0.293544 11.231C0.205636 11.319 0.15625 11.4382 0.15625 11.5625C0.15625 12.3619 0.654766 12.8618 1.09406 13.1119C1.09406 13.1163 1.09375 13.1207 1.09375 13.125C1.09375 13.6637 1.30776 14.1804 1.68869 14.5613C2.06962 14.9422 2.58628 15.1562 3.125 15.1562C3.66372 15.1562 4.18038 14.9422 4.56131 14.5613C4.94224 14.1804 5.15625 13.6637 5.15625 13.125ZM3.125 12.0312C3.51074 12.0312 3.7902 12.15 3.97422 12.3931L3.89824 12.3678C3.85044 12.3519 3.80039 12.3438 3.75 12.3438H1.65234C1.49432 12.2742 1.35579 12.1669 1.24891 12.0312H3.125ZM3.125 14.2188C2.8621 14.2184 2.6081 14.1235 2.40937 13.9514C2.21064 13.7793 2.08046 13.5414 2.04258 13.2812H3.67395L4.17039 13.4468C4.10132 13.6701 3.96259 13.8656 3.7745 14.0045C3.58641 14.1434 3.35882 14.2185 3.125 14.2188Z" fill="white"/>
<path d="M4.375 15.1562H1.875C1.50217 15.1567 1.14472 15.305 0.881088 15.5686C0.617454 15.8322 0.469164 16.1897 0.46875 16.5625V19.375C0.46875 19.4993 0.518136 19.6185 0.606044 19.7065C0.693951 19.7944 0.81318 19.8438 0.9375 19.8438H5.3125C5.43682 19.8438 5.55605 19.7944 5.64396 19.7065C5.73186 19.6185 5.78125 19.4993 5.78125 19.375V16.5625C5.78084 16.1897 5.63255 15.8322 5.36891 15.5686C5.10528 15.305 4.74783 15.1567 4.375 15.1562ZM4.84375 18.9062H1.40625V16.5625C1.40638 16.4382 1.45581 16.3191 1.54369 16.2312C1.63157 16.1433 1.75072 16.0939 1.875 16.0938H4.375C4.49928 16.0939 4.61843 16.1433 4.70631 16.2312C4.79419 16.3191 4.84362 16.4382 4.84375 16.5625V18.9062Z" fill="white"/>
</svg>
