<svg width="40" height="40" viewBox="0 0 40 40" fill="none" xmlns="http://www.w3.org/2000/svg">
<path d="M9.375 21.0938C11.7443 21.0938 13.6719 19.1662 13.6719 16.7969C13.6719 15.95 13.4246 15.1602 12.9998 14.4941L14.3895 12.8572C14.9527 13.1289 15.5839 13.2812 16.25 13.2812C16.9697 13.2812 17.6481 13.1025 18.2447 12.7884L19.8281 14.5284C19.4168 15.1873 19.1783 15.9646 19.1783 16.7968C19.1783 19.1661 21.1059 21.0937 23.4752 21.0937C25.8445 21.0937 27.772 19.1661 27.772 16.7968C27.772 16.0137 27.5604 15.2795 27.1929 14.6465L28.7969 12.8719C29.352 13.134 29.9716 13.2812 30.625 13.2812C32.9943 13.2812 34.9219 11.3537 34.9219 8.98438C34.9219 6.61508 32.9943 4.6875 30.625 4.6875C28.2557 4.6875 26.3281 6.61508 26.3281 8.98438C26.3281 9.85047 26.5866 10.6569 27.0291 11.3324L25.5098 13.0134C24.9038 12.6862 24.2109 12.5001 23.4752 12.5001C22.7879 12.5001 22.1383 12.6632 21.5616 12.9513L19.9449 11.1745C20.3267 10.5326 20.5469 9.78383 20.5469 8.98438C20.5469 6.61508 18.6193 4.6875 16.25 4.6875C13.8807 4.6875 11.9531 6.61508 11.9531 8.98438C11.9531 9.83781 12.2042 10.6332 12.6349 11.3025L11.2514 12.9321C10.6841 12.6556 10.0474 12.5 9.375 12.5C7.0057 12.5 5.07812 14.4276 5.07812 16.7969C5.07812 19.1662 7.0057 21.0938 9.375 21.0938ZM30.625 7.03125C31.702 7.03125 32.5781 7.90742 32.5781 8.98438C32.5781 10.0613 31.702 10.9375 30.625 10.9375C29.548 10.9375 28.6719 10.0613 28.6719 8.98438C28.6719 7.90742 29.548 7.03125 30.625 7.03125ZM25.4282 16.7969C25.4282 17.8738 24.552 18.75 23.4751 18.75C22.3981 18.75 21.522 17.8738 21.522 16.7969C21.522 15.7199 22.3981 14.8438 23.4751 14.8438C24.5521 14.8438 25.4282 15.7199 25.4282 16.7969ZM16.25 7.03125C17.327 7.03125 18.2031 7.90742 18.2031 8.98438C18.2031 10.0613 17.327 10.9375 16.25 10.9375C15.173 10.9375 14.2969 10.0613 14.2969 8.98438C14.2969 7.90742 15.173 7.03125 16.25 7.03125ZM9.375 14.8438C10.452 14.8438 11.3281 15.7199 11.3281 16.7969C11.3281 17.8738 10.452 18.75 9.375 18.75C8.29805 18.75 7.42188 17.8738 7.42188 16.7969C7.42188 15.7199 8.29805 14.8438 9.375 14.8438Z" fill="#787878"/>
<path d="M38.8281 0H1.17188C0.524687 0 0 0.524687 0 1.17188V30.0781C0 30.7253 0.524687 31.25 1.17188 31.25H13.706C14.1877 33.8426 16.2355 35.8904 18.8281 36.3721V38.8281C18.8281 39.4753 19.3528 40 20 40C20.6472 40 21.1719 39.4753 21.1719 38.8281V36.372C23.7645 35.8904 25.8123 33.8426 26.294 31.2499H38.8281C39.4753 31.2499 40 30.7252 40 30.078V1.17188C40 0.524687 39.4753 0 38.8281 0ZM20 34.1377C17.7616 34.1377 15.9404 32.3166 15.9404 30.0781C15.9404 27.8397 17.7616 26.0185 20 26.0185C22.2384 26.0185 24.0596 27.8397 24.0596 30.0781C24.0596 32.3166 22.2384 34.1377 20 34.1377ZM37.6562 28.9062H26.294C25.7416 25.9334 23.1304 23.6748 20 23.6748C16.8696 23.6748 14.2584 25.9334 13.706 28.9062H2.34375V2.34375H37.6562V28.9062Z" fill="#787878"/>
</svg>
