<svg width="40" height="40" viewBox="0 0 40 40" fill="none" xmlns="http://www.w3.org/2000/svg">
<g clip-path="url(#clip0)">
<path d="M17.6471 2.3418L16.3152 2.51929C7.08941 3.74854 0 11.6474 0 21.1759C0 31.5791 8.4189 39.9994 18.8235 39.9994C28.3357 39.9994 36.2488 32.9249 37.4802 23.6842L37.6577 22.3524H17.6471V2.3418ZM2.35294 21.1759C2.35294 13.4089 7.82886 6.71646 15.2941 5.08533V23.0416L6.38024 31.9555C3.87247 29.0645 2.35294 25.2943 2.35294 21.1759ZM34.9142 24.7053C33.283 32.1707 26.5905 37.6465 18.8235 37.6465C14.7051 37.6465 10.9349 36.127 8.044 33.6192L16.9579 24.7053H34.9142Z" fill="#787878"/>
<path d="M21.1765 0H20V20H40V18.8235C40 8.42031 31.5811 0 21.1765 0ZM22.3529 9.32824L27.894 3.78714C28.6449 4.124 29.3663 4.51498 30.0528 4.95592L22.3529 12.6558V9.32824ZM25.4401 2.91357L22.3529 6.00071V2.39451C23.4126 2.46973 24.4446 2.64643 25.4401 2.91357ZM22.3529 15.9833L31.9552 6.38094C32.5484 6.89553 33.1045 7.45161 33.619 8.04478L24.0168 17.6471H22.3529V15.9833ZM35.0441 9.94722C35.4851 10.6337 35.8761 11.3551 36.2129 12.106L30.6719 17.6471H27.3442L35.0441 9.94722ZM33.9995 17.6471L37.0864 14.5601C37.3535 15.5555 37.5303 16.5875 37.6054 17.6471H33.9995Z" fill="#787878"/>
</g>
<defs>
<clipPath id="clip0">
<rect width="40" height="40" fill="white"/>
</clipPath>
</defs>
</svg>
