<svg width="40" height="40" viewBox="0 0 40 40" fill="none" xmlns="http://www.w3.org/2000/svg">
<path d="M36.4851 22.515L31.3352 20.0916L28.3839 14.1887L20.7713 23.0701L16.6048 16.8203L13.2105 20.0781H11.1141L6.17227 12.0477L2.34375 14.2606V0H0V40H40L36.4851 22.515ZM2.34375 16.9677L5.37117 15.2179L9.80437 22.4219H14.1532L16.2077 20.4501L19.1868 24.9187L13.5234 31.5259H6.54586L2.34375 35.728V16.9677ZM7.51664 33.8696H14.6016L27.8662 18.3942L29.6023 21.8664L34.4134 24.1305L37.0725 37.6917L3.70719 37.6791L7.51664 33.8696Z" fill="#787878"/>
<path d="M26.947 9.23828H29.3007V11.582H26.947V9.23828Z" fill="#787878"/>
<path d="M35.7412 17.0859H38.095V19.4297H35.7412V17.0859Z" fill="#787878"/>
<path d="M15.5352 11.875H17.8888V14.2188H15.5352V11.875Z" fill="#787878"/>
<path d="M4.67139 7.17969H6.98522V9.52344H4.67139V7.17969Z" fill="#787878"/>
</svg>
