<svg width="40" height="40" viewBox="0 0 40 40" fill="none" xmlns="http://www.w3.org/2000/svg">
<path d="M19.0234 10.0781H7.46094V12.4219H19.0234V10.0781Z" fill="#787878"/>
<path d="M14.3359 6.17188H7.46094V8.51562H14.3359V6.17188Z" fill="#787878"/>
<path d="M31.6797 20.1688V6.93648L24.7432 0H2.77344V40H26.6797C32.4952 40 37.2266 35.2687 37.2266 29.4531C37.2266 25.4456 34.9797 21.9532 31.6797 20.1688ZM25.4297 4.00102L27.6787 6.25H25.4297V4.00102ZM5.11719 37.6562V2.34375H23.0859V8.59375H29.3359V19.2452C28.5837 19.0494 27.7992 18.9348 26.9922 18.9112V14.7656H7.46094V28.8281H16.1519C16.1397 29.035 16.1328 29.2433 16.1328 29.4531C16.1328 32.763 17.6659 35.7212 20.0587 37.6562H5.11719ZM24.6484 17.1094V19.1033C23.5344 19.3216 22.4827 19.7156 21.5234 20.2555V17.1094H24.6484ZM15.2734 20.625V17.1094H19.1797V20.625H15.2734ZM18.3674 22.9688C17.5583 24.0037 16.9383 25.193 16.5589 26.4844H15.2734V22.9688H18.3674ZM9.80469 20.625V17.1094H12.9297V20.625H9.80469ZM12.9297 22.9688V26.4844H9.80469V22.9688H12.9297ZM26.6797 37.6562C22.1565 37.6562 18.4766 33.9763 18.4766 29.4531C18.4766 24.9299 22.1565 21.25 26.6797 21.25C28.523 21.25 30.226 21.8612 31.5973 22.8915L25.0172 29.4716L31.5763 36.0307C30.2086 37.0513 28.5135 37.6562 26.6797 37.6562ZM33.2368 34.3766L28.3317 29.4715L33.2527 24.5505C34.2762 25.9191 34.8828 27.6166 34.8828 29.453C34.8828 31.2991 34.2698 33.0045 33.2368 34.3766Z" fill="#787878"/>
</svg>
