<svg width="40" height="40" viewBox="0 0 40 40" fill="none" xmlns="http://www.w3.org/2000/svg">
<path d="M24.375 10V7.95C24.9517 7.54848 25.4231 7.01396 25.7495 6.39168C26.0758 5.7694 26.2475 5.07767 26.25 4.375V1.875C26.25 1.70924 26.1842 1.55027 26.0669 1.43306C25.9497 1.31585 25.7908 1.25 25.625 1.25H18.125C16.9651 1.25132 15.8531 1.71268 15.0329 2.53287C14.2127 3.35305 13.7513 4.46508 13.75 5.625V6.875C13.7515 7.37182 13.9495 7.84788 14.3008 8.19919C14.6521 8.5505 15.1282 8.74852 15.625 8.75V10C15.626 10.7047 15.7969 11.3987 16.1233 12.0233C16.4498 12.6478 16.922 13.1844 17.5 13.5875V15.3125L15.25 17C15.1545 17.0732 15.0815 17.1718 15.0395 17.2846C14.9975 17.3973 14.9882 17.5197 15.0125 17.6375L16.2625 23.2625C16.2954 23.4006 16.3735 23.5236 16.4846 23.612C16.5956 23.7004 16.7331 23.749 16.875 23.75H23.125C23.2669 23.749 23.4044 23.7004 23.5154 23.612C23.6265 23.5236 23.7046 23.4006 23.7375 23.2625L24.9875 17.6375C25.0118 17.5197 25.0025 17.3973 24.9605 17.2846C24.9185 17.1718 24.8455 17.0732 24.75 17L22.5 15.3125V13.5875C23.078 13.1844 23.5502 12.6478 23.8767 12.0233C24.2031 11.3987 24.374 10.7047 24.375 10ZM15.625 6.25V7.5C15.4592 7.5 15.3003 7.43415 15.1831 7.31694C15.0658 7.19973 15 7.04076 15 6.875V5.625C15 4.7962 15.3292 4.00134 15.9153 3.41529C16.5013 2.82924 17.2962 2.5 18.125 2.5H25V4.375C24.9996 5.04917 24.7803 5.70498 24.375 6.24375C24.372 6.10564 24.324 5.97227 24.2383 5.86396C24.1525 5.75565 24.0337 5.67832 23.9 5.64375L18.9 4.39375C18.755 4.35709 18.6015 4.37488 18.4687 4.44375L15.9687 5.69375C15.8646 5.74434 15.777 5.8235 15.7161 5.92198C15.6553 6.02047 15.6237 6.13423 15.625 6.25ZM23.675 17.7563L22.625 22.5H17.375L16.325 17.7563L18.5 16.125C18.5771 16.0663 18.6398 15.9907 18.6831 15.9041C18.7264 15.8174 18.7493 15.7219 18.75 15.625V14.1937C19.5658 14.4354 20.4342 14.4354 21.25 14.1937V15.625C21.2507 15.7219 21.2736 15.8174 21.3169 15.9041C21.3602 15.9907 21.4229 16.0663 21.5 16.125L23.675 17.7563ZM20 13.125C19.1712 13.125 18.3763 12.7958 17.7903 12.2097C17.2042 11.6237 16.875 10.8288 16.875 10V6.6375L18.825 5.6625L23.125 6.7375V10C23.125 10.8288 22.7958 11.6237 22.2097 12.2097C21.6237 12.7958 20.8288 13.125 20 13.125Z" fill="#787878"/>
<path d="M23.75 26.25H16.25C16.0842 26.25 15.9253 26.3158 15.8081 26.4331C15.6908 26.5503 15.625 26.7092 15.625 26.875V34.375C15.625 34.5408 15.6908 34.6997 15.8081 34.8169C15.9253 34.9341 16.0842 35 16.25 35H23.75C23.9158 35 24.0747 34.9341 24.1919 34.8169C24.3092 34.6997 24.375 34.5408 24.375 34.375V26.875C24.375 26.7092 24.3092 26.5503 24.1919 26.4331C24.0747 26.3158 23.9158 26.25 23.75 26.25ZM23.125 33.75H16.875V27.5H23.125V33.75Z" fill="#787878"/>
<path d="M29.3751 13.7504H36.8751C36.9819 13.751 37.0871 13.7242 37.1806 13.6726C37.2741 13.621 37.3528 13.5462 37.4092 13.4555C37.4657 13.3648 37.4979 13.2612 37.5029 13.1545C37.5078 13.0478 37.4854 12.9416 37.4376 12.8461L33.6876 5.34606C33.6299 5.2492 33.5479 5.169 33.4499 5.1133C33.3518 5.0576 33.241 5.02832 33.1282 5.02832C33.0155 5.02832 32.9046 5.0576 32.8066 5.1133C32.7085 5.169 32.6266 5.2492 32.5689 5.34606L28.8188 12.8461C28.7713 12.9411 28.7489 13.0468 28.7535 13.1529C28.7582 13.2591 28.7899 13.3624 28.8456 13.4529C28.9012 13.5434 28.9791 13.6182 29.0718 13.6703C29.1644 13.7224 29.2688 13.75 29.3751 13.7504ZM33.1251 7.02294L35.8639 12.5004H30.3864L33.1251 7.02294Z" fill="#787878"/>
<path d="M6.875 13.75C7.74029 13.75 8.58615 13.4934 9.30562 13.0127C10.0251 12.5319 10.5858 11.8487 10.917 11.0492C11.2481 10.2498 11.3347 9.37014 11.1659 8.52148C10.9971 7.67281 10.5804 6.89326 9.96859 6.28141C9.35674 5.66955 8.57719 5.25288 7.72852 5.08407C6.87985 4.91526 6.00019 5.0019 5.20076 5.33303C4.40133 5.66416 3.71805 6.22492 3.23732 6.94438C2.75659 7.66384 2.5 8.50971 2.5 9.375C2.50132 10.5349 2.96268 11.6469 3.78287 12.4671C4.60305 13.2873 5.71508 13.7487 6.875 13.75ZM6.875 6.25C7.49307 6.25 8.09725 6.43328 8.61116 6.77666C9.12506 7.12004 9.5256 7.60809 9.76212 8.17911C9.99865 8.75013 10.0605 9.37846 9.93995 9.98465C9.81937 10.5908 9.52175 11.1477 9.08471 11.5847C8.64767 12.0217 8.09085 12.3194 7.48466 12.4399C6.87847 12.5605 6.25013 12.4986 5.67911 12.2621C5.1081 12.0256 4.62004 11.6251 4.27666 11.1112C3.93328 10.5973 3.75 9.99306 3.75 9.375C3.75099 8.5465 4.08055 7.75222 4.66639 7.16639C5.25222 6.58055 6.0465 6.25099 6.875 6.25Z" fill="#787878"/>
<path d="M18.125 7.5H19.375V8.75H18.125V7.5Z" fill="#787878"/>
<path d="M20.625 7.5H21.875V8.75H20.625V7.5Z" fill="#787878"/>
<path d="M5.625 22.5H6.875V23.75H5.625V22.5Z" fill="#787878"/>
<path d="M8.125 22.5H9.375V23.75H8.125V22.5Z" fill="#787878"/>
<path d="M30.625 22.5H31.875V23.75H30.625V22.5Z" fill="#787878"/>
<path d="M33.125 22.5H34.375V23.75H33.125V22.5Z" fill="#787878"/>
<path d="M9.375 16.25H5.625C4.46508 16.2513 3.35305 16.7127 2.53287 17.5329C1.71268 18.3531 1.25132 19.4651 1.25 20.625V21.25C1.25123 21.4157 1.31613 21.5746 1.43125 21.6937L3.125 23.3812V25C3.12598 25.7047 3.29693 26.3987 3.62334 27.0233C3.94976 27.6478 4.422 28.1844 5 28.5875V30.3125L2.75 32C2.65449 32.0732 2.58154 32.1718 2.53953 32.2846C2.49752 32.3973 2.48815 32.5197 2.5125 32.6375L3.7625 38.2625C3.79535 38.4006 3.87355 38.5236 3.98459 38.612C4.09563 38.7004 4.23309 38.749 4.375 38.75H10.625C10.7669 38.749 10.9044 38.7004 11.0154 38.612C11.1265 38.5236 11.2046 38.4006 11.2375 38.2625L12.4875 32.6375C12.5118 32.5197 12.5025 32.3973 12.4605 32.2846C12.4185 32.1718 12.3455 32.0732 12.25 32L10 30.3125V28.5875C10.578 28.1844 11.0502 27.6478 11.3767 27.0233C11.7031 26.3987 11.874 25.7047 11.875 25V23.3812L13.5687 21.6937C13.6839 21.5746 13.7488 21.4157 13.75 21.25V20.625C13.7487 19.4651 13.2873 18.3531 12.4671 17.5329C11.6469 16.7127 10.5349 16.2513 9.375 16.25ZM11.175 32.7562L10.125 37.5H4.875L3.825 32.7562L6 31.125C6.07713 31.0663 6.13977 30.9907 6.18311 30.904C6.22645 30.8174 6.24933 30.7219 6.25 30.625V29.1937C7.06581 29.4354 7.93419 29.4354 8.75 29.1937V30.625C8.75067 30.7219 8.77355 30.8174 8.81689 30.904C8.86023 30.9907 8.92287 31.0663 9 31.125L11.175 32.7562ZM10.625 25C10.625 25.8288 10.2958 26.6237 9.70971 27.2097C9.12366 27.7958 8.3288 28.125 7.5 28.125C6.6712 28.125 5.87634 27.7958 5.29029 27.2097C4.70424 26.6237 4.375 25.8288 4.375 25V21.6375L6.325 20.6625L10.625 21.7375V25ZM12.5 20.9937L11.875 21.6187V21.25C11.8749 21.1104 11.8281 20.9749 11.742 20.865C11.6559 20.7551 11.5355 20.6772 11.4 20.6437L6.4 19.3937C6.25497 19.3571 6.10154 19.3749 5.96875 19.4437L3.46875 20.6937C3.36461 20.7443 3.27701 20.8235 3.21614 20.922C3.15528 21.0205 3.12367 21.1342 3.125 21.25V21.6187L2.5 20.9937V20.625C2.5 19.7962 2.82924 19.0013 3.41529 18.4153C4.00134 17.8292 4.7962 17.5 5.625 17.5H9.375C10.2038 17.5 10.9987 17.8292 11.5847 18.4153C12.1708 19.0013 12.5 19.7962 12.5 20.625V20.9937Z" fill="#787878"/>
<path d="M34.375 16.25H26.875C26.7092 16.25 26.5503 16.3158 26.4331 16.4331C26.3158 16.5503 26.25 16.7092 26.25 16.875V19.375C26.2525 20.0777 26.4242 20.7694 26.7505 21.3917C27.0769 22.014 27.5483 22.5485 28.125 22.95V25C28.126 25.7047 28.2969 26.3987 28.6233 27.0233C28.9498 27.6478 29.422 28.1844 30 28.5875V30.3125L27.75 32C27.6545 32.0732 27.5815 32.1718 27.5395 32.2846C27.4975 32.3973 27.4882 32.5197 27.5125 32.6375L28.7625 38.2625C28.7954 38.4006 28.8735 38.5236 28.9846 38.612C29.0956 38.7004 29.2331 38.749 29.375 38.75H35.625C35.7669 38.749 35.9044 38.7004 36.0154 38.612C36.1265 38.5236 36.2046 38.4006 36.2375 38.2625L37.4875 32.6375C37.5118 32.5197 37.5025 32.3973 37.4605 32.2846C37.4185 32.1718 37.3455 32.0732 37.25 32L35 30.3125V28.5875C35.578 28.1844 36.0502 27.6478 36.3767 27.0233C36.7031 26.3987 36.874 25.7047 36.875 25V23.75C37.3718 23.7485 37.8479 23.5505 38.1992 23.1992C38.5505 22.8479 38.7485 22.3718 38.75 21.875V20.625C38.7487 19.4651 38.2873 18.3531 37.4671 17.5329C36.6469 16.7127 35.5349 16.2513 34.375 16.25ZM36.175 32.7562L35.125 37.5H29.875L28.825 32.7562L31 31.125C31.0771 31.0663 31.1398 30.9907 31.1831 30.904C31.2264 30.8174 31.2493 30.7219 31.25 30.625V29.1937C32.0658 29.4354 32.9342 29.4354 33.75 29.1937V30.625C33.7507 30.7219 33.7736 30.8174 33.8169 30.904C33.8602 30.9907 33.9229 31.0663 34 31.125L36.175 32.7562ZM35.625 25C35.625 25.8288 35.2958 26.6237 34.7097 27.2097C34.1237 27.7958 33.3288 28.125 32.5 28.125C31.6712 28.125 30.8763 27.7958 30.2903 27.2097C29.7042 26.6237 29.375 25.8288 29.375 25V21.6375L31.325 20.6625L35.625 21.7375V25ZM37.5 21.875C37.5 22.0408 37.4342 22.1997 37.3169 22.3169C37.1997 22.4342 37.0408 22.5 36.875 22.5V21.25C36.8749 21.1104 36.8281 20.9749 36.742 20.865C36.6559 20.7551 36.5355 20.6772 36.4 20.6437L31.4 19.3937C31.255 19.3571 31.1015 19.3749 30.9687 19.4437L28.4687 20.6937C28.3662 20.7447 28.2798 20.8231 28.2191 20.9202C28.1584 21.0172 28.1259 21.1293 28.125 21.2437C27.7197 20.705 27.5004 20.0492 27.5 19.375V17.5H34.375C35.2038 17.5 35.9987 17.8292 36.5847 18.4153C37.1708 19.0013 37.5 19.7962 37.5 20.625V21.875Z" fill="#787878"/>
</svg>
