<svg width="40" height="40" viewBox="0 0 40 40" fill="none" xmlns="http://www.w3.org/2000/svg">
<path d="M22.6667 14.6855H17.3334C16.9652 14.6855 16.6667 14.984 16.6667 15.3522V34.0189C16.6667 34.387 16.9652 34.6855 17.3334 34.6855H22.6667C23.0349 34.6855 23.3334 34.387 23.3334 34.0189V15.3522C23.3334 14.984 23.0349 14.6855 22.6667 14.6855ZM22.0001 33.3522H18.0001V16.0189H22.0001V33.3522Z" fill="#787878"/>
<path d="M38.6667 12.0186H33.3334C32.9652 12.0186 32.6667 12.3171 32.6667 12.6852V34.0186C32.6667 34.3867 32.9652 34.6852 33.3334 34.6852H38.6667C39.0349 34.6852 39.3334 34.3867 39.3334 34.0186V12.6852C39.3334 12.317 39.0349 12.0186 38.6667 12.0186ZM38.0001 33.3519H34.0001V13.3519H38.0001V33.3519Z" fill="#787878"/>
<path d="M30.6667 26.6855H25.3334C24.9652 26.6855 24.6667 26.984 24.6667 27.3522V34.0189C24.6667 34.387 24.9652 34.6855 25.3334 34.6855H30.6667C31.0349 34.6855 31.3334 34.387 31.3334 34.0189V27.3522C31.3334 26.984 31.0349 26.6855 30.6667 26.6855ZM30.0001 33.3522H26.0001V28.0189H30.0001V33.3522Z" fill="#787878"/>
<path d="M6.66675 17.3516H1.33341C0.965248 17.3516 0.666748 17.6501 0.666748 18.0182V34.0182C0.666748 34.3864 0.965248 34.6849 1.33341 34.6849H6.66675C7.03491 34.6849 7.33342 34.3864 7.33342 34.0182V18.0182C7.33342 17.65 7.03491 17.3516 6.66675 17.3516ZM6.00008 33.3516H2.00008V18.6849H6.00008V33.3516Z" fill="#787878"/>
<path d="M14.6667 21.3516H9.33341C8.96525 21.3516 8.66675 21.6501 8.66675 22.0182V34.0182C8.66675 34.3864 8.96525 34.6849 9.33341 34.6849H14.6667C15.0349 34.6849 15.3334 34.3864 15.3334 34.0182V22.0182C15.3334 21.65 15.0349 21.3516 14.6667 21.3516ZM14.0001 33.3516H10.0001V22.6849H14.0001V33.3516Z" fill="#787878"/>
<path d="M36.0388 0.646555C34.5553 0.635889 33.3442 1.82972 33.3335 3.31314C33.3281 4.06214 33.6357 4.77939 34.1821 5.29172L28.6488 15.4404C28.1475 15.3016 27.6151 15.3262 27.1288 15.5104L21.9813 7.78581C22.9676 6.69206 22.8804 5.00581 21.7866 4.01964C20.6928 3.03347 19.0066 3.12056 18.0204 4.21439C17.2958 5.01806 17.1287 6.17989 17.5973 7.15522L13.55 10.5238C12.4397 9.71389 10.893 9.89514 10 10.9398L6.60601 9.24247C6.91384 7.80222 5.99576 6.38514 4.55559 6.07739C3.11534 5.76956 1.69826 6.68756 1.39051 8.12781C1.08267 9.56806 2.00067 10.9851 3.44092 11.2929C3.62467 11.3321 3.81209 11.3519 4.00001 11.3518C4.76876 11.3493 5.49851 11.0131 6.00001 10.4305L9.39401 12.1278C9.07376 13.5653 9.97951 14.9903 11.417 15.3106C12.8545 15.6308 14.2795 14.7251 14.5998 13.2876C14.73 12.703 14.6597 12.0916 14.4 11.5518L18.4473 8.18314C19.1449 8.69939 20.0556 8.82972 20.87 8.52981L26.016 16.2545C25.0324 17.3506 25.1238 19.0366 26.22 20.0202C27.3162 21.0038 29.0022 20.9125 29.9858 19.8162C30.9573 18.7335 30.8818 17.072 29.8161 16.0818L35.3494 5.93314C35.5619 5.98864 35.7805 6.01731 36.0001 6.01847C37.4835 6.02914 38.6947 4.83531 38.7053 3.35189C38.716 1.86847 37.5221 0.657305 36.0388 0.646555ZM4.00001 10.0185C3.26359 10.0185 2.66667 9.42156 2.66667 8.68514C2.66667 7.94872 3.26359 7.35181 4.00001 7.35181C4.73642 7.35181 5.33334 7.94872 5.33334 8.68514C5.33334 9.42156 4.73642 10.0185 4.00001 10.0185ZM12 14.0185C11.2636 14.0185 10.6667 13.4216 10.6667 12.6851C10.6667 11.9487 11.2636 11.3518 12 11.3518C12.7364 11.3518 13.3333 11.9487 13.3333 12.6851C13.3333 13.4216 12.7364 14.0185 12 14.0185ZM20 7.35181C19.2636 7.35181 18.6667 6.75489 18.6667 6.01847C18.6667 5.28206 19.2636 4.68514 20 4.68514C20.7364 4.68514 21.3333 5.28206 21.3333 6.01847C21.3333 6.75489 20.7364 7.35181 20 7.35181ZM28 19.3518C27.2636 19.3518 26.6667 18.7549 26.6667 18.0185C26.6667 17.2821 27.2636 16.6851 28 16.6851C28.7364 16.6851 29.3333 17.2821 29.3333 18.0185C29.3333 18.7549 28.7364 19.3518 28 19.3518ZM36 4.68514C35.2636 4.68514 34.6667 4.08822 34.6667 3.35181C34.6667 2.61539 35.2636 2.01847 36 2.01847C36.7364 2.01847 37.3333 2.61539 37.3333 3.35181C37.3333 4.08822 36.7364 4.68514 36 4.68514Z" fill="#787878"/>
<path d="M39.3333 35.3516H0.666667C0.2985 35.3516 0 35.6501 0 36.0182V38.6849C0 39.0531 0.2985 39.3516 0.666667 39.3516H39.3333C39.7015 39.3516 40 39.0531 40 38.6849V36.0182C40 35.65 39.7015 35.3516 39.3333 35.3516ZM38.6667 38.0182H1.33333V36.6849H38.6667V38.0182Z" fill="#787878"/>
</svg>
