<svg width="40" height="40" viewBox="0 0 40 40" fill="none" xmlns="http://www.w3.org/2000/svg">
<g clip-path="url(#clip0)">
<path d="M39.1763 5.91273L20.3482 0.0529687C20.1215 -0.0176563 19.8786 -0.0176563 19.6517 0.0529687L0.823594 5.91273C0.333828 6.06523 0 6.51859 0 7.03172V32.968C0 33.481 0.333828 33.9345 0.823594 34.0869L19.6517 39.947C19.7652 39.9823 19.8826 40 20 40C20.1174 40 20.2348 39.9823 20.3483 39.947L39.1764 34.0869C39.6663 33.9345 40 33.481 40 32.968V7.03172C40 6.51859 39.6662 6.06523 39.1763 5.91273ZM37.6562 31.3759L21.1719 26.2455V18.278C22.1376 17.5377 23.1871 16.7776 24.2234 16.2152C24.8628 17.0969 25.9004 17.6719 27.0703 17.6719C28.3766 17.6719 29.5177 16.9553 30.1239 15.8952C32.1503 16.7206 33.0576 18.1742 33.1136 18.2668C33.3254 18.6527 33.726 18.8745 34.1416 18.8745C34.3183 18.8745 34.4978 18.8344 34.6665 18.7497C35.2448 18.4593 35.4784 17.7551 35.188 17.1766C35.1746 17.15 33.854 14.6888 30.5316 13.5452C30.2414 11.897 28.8004 10.6406 27.0703 10.6406C25.212 10.6406 23.6868 12.0901 23.5637 13.9177C22.747 14.3221 21.9425 14.8287 21.1719 15.3678V2.76398L37.6562 7.8943V31.3759ZM27.0703 15.328C26.4241 15.328 25.8984 14.8023 25.8984 14.1562C25.8984 13.51 26.4241 12.9843 27.0703 12.9843C27.7166 12.9843 28.2422 13.51 28.2422 14.1562C28.2422 14.8023 27.7166 15.328 27.0703 15.328ZM33.0934 18.2281C33.0991 18.2395 33.1049 18.2508 33.111 18.262C33.1016 18.2452 33.0961 18.2335 33.0934 18.2281ZM18.8281 2.76398V17.1265C17.8622 17.8669 16.8126 18.627 15.7766 19.1895C15.1372 18.3078 14.0995 17.7328 12.9297 17.7328C11.6205 17.7328 10.477 18.4527 9.87187 19.5169C7.79211 18.6813 6.92164 17.1994 6.8818 17.1296C6.56555 16.5649 5.85148 16.3636 5.28672 16.6798C4.72211 16.9961 4.5207 17.7103 4.83695 18.2749C4.89805 18.384 6.26461 20.7624 9.4693 21.8648C9.76164 23.5104 11.2016 24.764 12.9297 24.764C14.788 24.764 16.3132 23.3145 16.4363 21.4869C17.2529 21.0824 18.0573 20.5758 18.8281 20.0366V26.2455L2.34375 31.3759V7.8943L18.8281 2.76398ZM12.9297 20.0766C13.5759 20.0766 14.1016 20.6023 14.1016 21.2484C14.1016 21.8947 13.5759 22.4203 12.9297 22.4203C12.2835 22.4203 11.7578 21.8947 11.7578 21.2484C11.7578 20.6023 12.2835 20.0766 12.9297 20.0766ZM20 37.6007L5.11531 32.968L20 28.3355L34.8848 32.968L20 37.6007Z" fill="#787878"/>
</g>
<defs>
<clipPath id="clip0">
<rect width="40" height="40" fill="white"/>
</clipPath>
</defs>
</svg>
