<svg width="40" height="40" viewBox="0 0 40 40" fill="none" xmlns="http://www.w3.org/2000/svg">
<g clip-path="url(#clip0)">
<path d="M23.6629 23.6748H16.3445C15.885 23.6748 15.509 24.0508 15.509 24.5102C15.509 24.9697 15.885 25.3457 16.3445 25.3457H23.6629C24.1224 25.3457 24.4983 24.9697 24.4983 24.5102C24.4983 24.0508 24.1224 23.6748 23.6629 23.6748Z" fill="#787878"/>
<path d="M27.147 27.1006H12.8611C12.4016 27.1006 12.0256 27.4765 12.0256 27.936C12.0256 28.3955 12.4016 28.7715 12.8611 28.7715H27.147C27.6065 28.7715 27.9824 28.3955 27.9824 27.936C27.9824 27.4765 27.6065 27.1006 27.147 27.1006Z" fill="#787878"/>
<path d="M27.147 30.6094H12.8611C12.4016 30.6094 12.0256 30.9853 12.0256 31.4448C12.0256 31.9043 12.4016 32.2802 12.8611 32.2802H27.147C27.6065 32.2802 27.9824 31.9043 27.9824 31.4448C27.9824 30.9853 27.6065 30.6094 27.147 30.6094Z" fill="#787878"/>
<path d="M32.268 0.0573283C31.9506 -0.067987 31.5913 0.0155565 31.3574 0.274541L29.5779 2.22111L27.7985 0.282896C27.4894 -0.0596326 26.963 -0.0763413 26.6205 0.23277C26.6038 0.249478 26.5871 0.266187 26.5704 0.282896L24.7909 2.22111L23.0114 0.274541C22.7023 -0.067987 22.1676 -0.0846957 21.8335 0.224415C21.8167 0.241124 21.8 0.257833 21.7833 0.274541L20.0038 2.21275L18.2244 0.274541C17.9153 -0.067987 17.3806 -0.0846957 17.0464 0.224415C17.0297 0.241124 17.013 0.257833 16.9963 0.274541L15.2168 2.21275L13.4373 0.274541C13.1282 -0.067987 12.5935 -0.0846957 12.2594 0.224415C12.2426 0.241124 12.2259 0.257833 12.2092 0.274541L10.4298 2.21275L8.64192 0.274541C8.41635 0.0239109 8.05711 -0.067987 7.73965 0.0573283C7.42218 0.182644 7.21332 0.491755 7.22168 0.834283V39.164C7.21332 39.6152 7.57256 39.9911 8.0237 39.9995C8.26597 40.0078 8.49154 39.9076 8.65027 39.7321L10.4298 37.7856L12.2092 39.7238C12.5183 40.0663 13.0447 40.083 13.3872 39.7739C13.4039 39.7572 13.4206 39.7405 13.4373 39.7238L15.2168 37.7856L16.9963 39.7238C17.3054 40.0663 17.8401 40.083 18.1742 39.7739C18.191 39.7572 18.2077 39.7405 18.2244 39.7238L20.0038 37.7856L21.7833 39.7238C22.0924 40.0663 22.6271 40.083 22.9613 39.7739C22.978 39.7572 22.9947 39.7405 23.0114 39.7238L24.7909 37.7856L26.5704 39.7238C26.8795 40.0663 27.4142 40.083 27.7483 39.7739C27.765 39.7572 27.7818 39.7405 27.7985 39.7238L29.5779 37.7856L31.3574 39.7238C31.5162 39.8992 31.7417 39.9911 31.9756 39.9911C32.0759 39.9911 32.1678 39.9744 32.2597 39.9326C32.5772 39.8073 32.786 39.4982 32.7777 39.1557V0.825929C32.7944 0.491755 32.5855 0.182644 32.268 0.0573283ZM29.5863 35.7053C29.3524 35.7053 29.1268 35.8056 28.9681 35.981L27.1886 37.9276L25.4091 35.9894C25.1 35.6469 24.5653 35.6302 24.2312 35.9393C24.2144 35.956 24.1977 35.9727 24.181 35.9894L22.4015 37.9276L20.6221 35.9894C20.313 35.6469 19.7783 35.6302 19.4441 35.9393C19.4274 35.956 19.4107 35.9727 19.394 35.9894L17.6145 37.9276L15.835 35.9894C15.5259 35.6469 14.9912 35.6302 14.6571 35.9393C14.6403 35.956 14.6236 35.9727 14.6069 35.9894L12.8191 37.9276L11.0396 35.981C10.8809 35.8056 10.6553 35.7053 10.4214 35.7053C10.1875 35.7053 9.97026 35.8056 9.81988 35.981L8.89255 37.017V2.98135L9.81988 4.00894C9.97026 4.18438 10.1875 4.28463 10.4214 4.28463C10.6553 4.28463 10.8809 4.18438 11.0396 4.00894L12.8191 2.06237L14.5986 4.00058C14.9077 4.34311 15.4424 4.35982 15.7765 4.05071C15.7932 4.034 15.81 4.01729 15.8267 4.00058L17.6061 2.06237L19.3856 4.00058C19.6947 4.34311 20.2294 4.35982 20.5636 4.05071C20.5803 4.034 20.597 4.01729 20.6137 4.00058L22.3932 2.06237L24.1727 4.00058C24.4818 4.34311 25.0165 4.35982 25.3506 4.05071C25.3673 4.034 25.3841 4.01729 25.4008 4.00058L27.1802 2.06237L28.9597 4.00894C29.1185 4.18438 29.344 4.28463 29.5779 4.28463C29.8119 4.28463 30.0291 4.18438 30.1795 4.00894L31.1151 2.973V37.0086L30.1878 35.981C30.0374 35.8056 29.8202 35.7053 29.5863 35.7053Z" fill="#787878"/>
<path d="M22.5937 14.2932C22.2345 13.1653 21.1818 12.4051 20.0039 12.4051C19.4191 12.4051 18.9512 11.9372 18.9512 11.3524C18.9512 10.7676 19.4191 10.3081 19.9955 10.2998C20.572 10.2914 21.0482 10.7676 21.0482 11.3524C21.0482 11.3524 21.0482 11.3524 21.0482 11.3608C21.0482 11.8203 21.4241 12.1962 21.8836 12.1962C22.3431 12.1962 22.719 11.8203 22.719 11.3608C22.719 10.1828 21.9588 9.13018 20.831 8.77094V8.24462C20.831 7.78513 20.455 7.40918 19.9955 7.40918C19.536 7.40918 19.1601 7.78513 19.1601 8.24462V8.77094C17.7315 9.23043 16.9462 10.7676 17.4057 12.1962C17.7649 13.3157 18.8176 14.0843 19.9955 14.0843C20.572 14.076 21.0482 14.5438 21.0565 15.1286C21.0649 15.7134 20.597 16.1813 20.0122 16.1896C20.0122 16.1813 20.0122 16.1813 20.0039 16.1813C19.4274 16.1813 18.9512 15.7134 18.9512 15.1286C18.9512 14.6691 18.5753 14.2932 18.1158 14.2932C17.6563 14.2932 17.2804 14.6691 17.2804 15.1286C17.2804 16.3066 18.0406 17.3509 19.1684 17.7185V18.2531C19.1684 18.7126 19.5444 19.0886 20.0039 19.0886C20.4634 19.0886 20.8393 18.7126 20.8393 18.2531V17.7185C22.2679 17.259 23.0532 15.7218 22.5937 14.2932Z" fill="#787878"/>
</g>
<defs>
<clipPath id="clip0">
<rect width="40" height="40" fill="white"/>
</clipPath>
</defs>
</svg>
