<svg width="40" height="40" viewBox="0 0 40 40" fill="none" xmlns="http://www.w3.org/2000/svg">
<path d="M9.375 20.625H11.25V21.875H9.375V20.625Z" fill="#787878"/>
<path d="M13.75 23.75H15.625V25H13.75V23.75Z" fill="#787878"/>
<path d="M9.375 23.75H12.5V25H9.375V23.75Z" fill="#787878"/>
<path d="M4.375 23.75H8.125V25H4.375V23.75Z" fill="#787878"/>
<path d="M8.125 26.875H15.625V28.125H8.125V26.875Z" fill="#787878"/>
<path d="M4.375 26.875H6.875V28.125H4.375V26.875Z" fill="#787878"/>
<path d="M11.875 30H15.625V31.25H11.875V30Z" fill="#787878"/>
<path d="M4.375 30H10.625V31.25H4.375V30Z" fill="#787878"/>
<path d="M8.125 33.125H11.875V34.375H8.125V33.125Z" fill="#787878"/>
<path d="M4.375 33.125H6.875V34.375H4.375V33.125Z" fill="#787878"/>
<path d="M37.5 18.75C37.5 18.5842 37.4342 18.4253 37.3169 18.3081C37.1997 18.1909 37.0408 18.125 36.875 18.125H33.125C32.9592 18.125 32.8003 18.1909 32.6831 18.3081C32.5659 18.4253 32.5 18.5842 32.5 18.75V21.875H29.375C29.2092 21.875 29.0503 21.9409 28.9331 22.0581C28.8159 22.1753 28.75 22.3342 28.75 22.5V25.625H25.625C25.4592 25.625 25.3003 25.6909 25.1831 25.8081C25.0659 25.9253 25 26.0842 25 26.25V29.375H21.875C21.7092 29.375 21.5503 29.4409 21.4331 29.5581C21.3159 29.6753 21.25 29.8342 21.25 30V33.75H16.7675C16.6201 33.333 16.3299 32.9815 15.9484 32.7577C15.5669 32.5339 15.1186 32.4522 14.6827 32.527C14.2467 32.6018 13.8513 32.8283 13.5662 33.1665C13.2811 33.5046 13.1247 33.9327 13.1247 34.375C13.1247 34.8173 13.2811 35.2454 13.5662 35.5835C13.8513 35.9217 14.2467 36.1482 14.6827 36.223C15.1186 36.2978 15.5669 36.2161 15.9484 35.9923C16.3299 35.7685 16.6201 35.417 16.7675 35H17.5V36.875C17.4998 37.0407 17.4339 37.1996 17.3167 37.3167C17.1996 37.4339 17.0407 37.4998 16.875 37.5H3.12501C2.9593 37.4998 2.80044 37.4339 2.68327 37.3167C2.56611 37.1996 2.5002 37.0407 2.50001 36.875V22.5H5.62501C6.12211 22.4994 6.5987 22.3017 6.9502 21.9502C7.30171 21.5987 7.49944 21.1221 7.50001 20.625V17.5H16.875C17.0407 17.5002 17.1996 17.5661 17.3167 17.6833C17.4339 17.8004 17.4998 17.9593 17.5 18.125V18.75H18.75V18.125C18.7494 17.6279 18.5517 17.1513 18.2002 16.7998C17.8487 16.4483 17.3721 16.2506 16.875 16.25H7.39274C7.14641 16.2493 6.90239 16.2975 6.67481 16.3918C6.44723 16.4861 6.24061 16.6246 6.0669 16.7992L1.79917 21.0669C1.62452 21.2406 1.48605 21.4473 1.39178 21.6749C1.29752 21.9024 1.24933 22.1464 1.25001 22.3928V36.875C1.25058 37.3721 1.4483 37.8487 1.79981 38.2002C2.15132 38.5517 2.6279 38.7494 3.12501 38.75H16.875C17.3721 38.7494 17.8487 38.5517 18.2002 38.2002C18.5517 37.8487 18.7494 37.3721 18.75 36.875V35H38.75V33.75H37.5V18.75ZM6.25001 18.3839V20.625C6.24982 20.7907 6.18391 20.9496 6.06674 21.0667C5.94957 21.1839 5.79071 21.2498 5.62501 21.25H3.38391L6.25001 18.3839ZM15 35C14.8764 35 14.7556 34.9634 14.6528 34.8947C14.55 34.826 14.4699 34.7284 14.4226 34.6142C14.3753 34.5 14.3629 34.3743 14.387 34.2531C14.4111 34.1318 14.4707 34.0205 14.5581 33.9331C14.6455 33.8457 14.7568 33.7861 14.8781 33.762C14.9993 33.7379 15.125 33.7503 15.2392 33.7976C15.3534 33.8449 15.451 33.925 15.5197 34.0278C15.5884 34.1306 15.625 34.2514 15.625 34.375C15.6248 34.5407 15.5589 34.6996 15.4417 34.8167C15.3246 34.9339 15.1657 34.9998 15 35ZM22.5 30.625H25V33.75H22.5V30.625ZM26.25 26.875H28.75V33.75H26.25V26.875ZM30 23.125H32.5V33.75H30V23.125ZM33.75 33.75V19.375H36.25V33.75H33.75Z" fill="#787878"/>
<path d="M3.125 16.8749C3.44174 16.8749 3.75333 16.7948 4.03069 16.6418C4.30804 16.4888 4.54212 16.2681 4.71107 16.0002C4.88001 15.7323 4.97832 15.4259 4.9968 15.1097C5.01529 14.7935 4.95335 14.4778 4.81678 14.192L6.69212 12.3166C6.92932 12.43 7.18771 12.4922 7.45052 12.4992C7.71332 12.5062 7.97466 12.4578 8.21755 12.3572C8.46043 12.2566 8.67943 12.106 8.86032 11.9152C9.04121 11.7245 9.17993 11.4978 9.26748 11.2499H11.9825C12.121 11.6417 12.3857 11.9764 12.7351 12.2014C13.0845 12.4264 13.4988 12.5289 13.9128 12.4928C14.3268 12.4567 14.7171 12.2841 15.0223 12.002C15.3275 11.72 15.5304 11.3445 15.5989 10.9346L19.1286 7.90928C19.5202 8.11484 19.9718 8.17536 20.4037 8.08014C20.8356 7.98493 21.22 7.74011 21.4888 7.38894C21.7577 7.03778 21.8938 6.60288 21.873 6.16109C21.8523 5.7193 21.676 5.29907 21.3754 4.97466C21.0748 4.65024 20.6692 4.44253 20.2303 4.38822C19.7914 4.33391 19.3474 4.4365 18.9768 4.67786C18.6062 4.91923 18.3328 5.28383 18.205 5.70723C18.0772 6.13064 18.1032 6.58559 18.2783 6.9917L15.2882 9.55463C15.0915 9.27135 14.8203 9.04788 14.5047 8.90884C14.189 8.7698 13.8411 8.72059 13.4993 8.76663C13.1574 8.81267 12.8349 8.95217 12.5673 9.16977C12.2997 9.38737 12.0973 9.67461 11.9825 9.99986H9.26748C9.18268 9.75983 9.04987 9.53958 8.87717 9.35254C8.70447 9.16551 8.49548 9.0156 8.26295 8.91197C8.03042 8.80834 7.77922 8.75316 7.52467 8.74978C7.27011 8.7464 7.01754 8.7949 6.78234 8.89232C6.54714 8.98974 6.33425 9.13404 6.15664 9.31643C5.97903 9.49882 5.84043 9.71546 5.74928 9.95316C5.65813 10.1909 5.61635 10.4446 5.62649 10.699C5.63662 10.9534 5.69845 11.203 5.80822 11.4327L3.93288 13.3081C3.67893 13.1868 3.40095 13.1243 3.11954 13.1251C2.83813 13.1259 2.5605 13.19 2.30726 13.3127C2.05402 13.4355 1.83165 13.6136 1.65664 13.834C1.48164 14.0544 1.35848 14.3113 1.29632 14.5858C1.23415 14.8603 1.23457 15.1452 1.29753 15.4195C1.3605 15.6937 1.4844 15.9503 1.66004 16.1702C1.83569 16.3901 2.05858 16.5676 2.31218 16.6896C2.56578 16.8115 2.84359 16.8749 3.125 16.8749ZM20 5.62486C20.1236 5.62486 20.2444 5.66152 20.3472 5.7302C20.45 5.79887 20.5301 5.89648 20.5774 6.01069C20.6247 6.12489 20.6371 6.25056 20.613 6.3718C20.5889 6.49303 20.5293 6.6044 20.4419 6.69181C20.3545 6.77921 20.2432 6.83874 20.1219 6.86286C20.0007 6.88697 19.875 6.87459 19.7608 6.82729C19.6466 6.77998 19.549 6.69988 19.4803 6.5971C19.4117 6.49432 19.375 6.37348 19.375 6.24986C19.3752 6.08416 19.4411 5.9253 19.5583 5.80813C19.6754 5.69096 19.8343 5.62505 20 5.62486ZM13.75 9.99986C13.8736 9.99986 13.9944 10.0365 14.0972 10.1052C14.2 10.1739 14.2801 10.2715 14.3274 10.3857C14.3747 10.4999 14.3871 10.6256 14.363 10.7468C14.3389 10.868 14.2793 10.9794 14.1919 11.0668C14.1045 11.1542 13.9932 11.2137 13.8719 11.2379C13.7507 11.262 13.625 11.2496 13.5108 11.2023C13.3966 11.155 13.299 11.0749 13.2303 10.9721C13.1617 10.8693 13.125 10.7485 13.125 10.6249C13.1252 10.4592 13.1911 10.3003 13.3083 10.1831C13.4254 10.066 13.5843 10.0001 13.75 9.99986ZM7.5 9.99986C7.62361 9.99986 7.74445 10.0365 7.84723 10.1052C7.95001 10.1739 8.03012 10.2715 8.07742 10.3857C8.12473 10.4999 8.13711 10.6256 8.11299 10.7468C8.08887 10.868 8.02935 10.9794 7.94194 11.0668C7.85453 11.1542 7.74317 11.2137 7.62193 11.2379C7.50069 11.262 7.37503 11.2496 7.26082 11.2023C7.14662 11.155 7.04901 11.0749 6.98033 10.9721C6.91165 10.8693 6.875 10.7485 6.875 10.6249C6.87519 10.4592 6.9411 10.3003 7.05827 10.1831C7.17544 10.066 7.3343 10.0001 7.5 9.99986ZM3.125 14.3749C3.24861 14.3749 3.36945 14.4115 3.47223 14.4802C3.57501 14.5489 3.65512 14.6465 3.70242 14.7607C3.74973 14.8749 3.76211 15.0006 3.73799 15.1218C3.71387 15.243 3.65435 15.3544 3.56694 15.4418C3.47953 15.5292 3.36817 15.5887 3.24693 15.6129C3.12569 15.637 3.00003 15.6246 2.88582 15.5773C2.77162 15.53 2.67401 15.4499 2.60533 15.3471C2.53665 15.2443 2.5 15.1235 2.5 14.9999C2.50019 14.8342 2.5661 14.6753 2.68327 14.5581C2.80044 14.441 2.9593 14.3751 3.125 14.3749Z" fill="#787878"/>
<path d="M25.7471 15.8682L21.6159 19.9994H16.1423C15.9948 19.5824 15.7047 19.2309 15.3232 19.0071C14.9417 18.7833 14.4934 18.7016 14.0574 18.7764C13.6215 18.8512 13.2261 19.0777 12.941 19.4159C12.6559 19.754 12.4995 20.1821 12.4995 20.6244C12.4995 21.0667 12.6559 21.4948 12.941 21.8329C13.2261 22.1711 13.6215 22.3976 14.0574 22.4724C14.4934 22.5472 14.9417 22.4655 15.3232 22.2417C15.7047 22.0179 15.9948 21.6664 16.1423 21.2494H17.4998V32.4994H18.7498V21.2494H21.8748C22.0406 21.2494 22.1995 21.1836 22.3168 21.0663L26.8275 16.5556C28.6871 17.5426 30.8566 17.7713 32.8812 17.194C34.9058 16.6167 36.6283 15.278 37.6877 13.4586C38.747 11.6393 39.0609 9.48046 38.5636 7.43473C38.0664 5.38901 36.7965 3.6152 35.0202 2.48513C33.2439 1.35506 31.0991 0.956477 29.0354 1.37293C26.9717 1.78938 25.1493 2.98853 23.9503 4.71901C22.7512 6.4495 22.2686 8.57696 22.6036 10.6554C22.9385 12.7339 24.0651 14.602 25.7471 15.8682L25.7471 15.8682ZM14.3748 21.2494C14.2512 21.2494 14.1303 21.2127 14.0276 21.1441C13.9248 21.0754 13.8447 20.9778 13.7974 20.8636C13.7501 20.7494 13.7377 20.6237 13.7618 20.5025C13.7859 20.3812 13.8454 20.2699 13.9329 20.1825C14.0203 20.0951 14.1316 20.0355 14.2529 20.0114C14.3741 19.9873 14.4998 19.9997 14.614 20.047C14.7282 20.0943 14.8258 20.1744 14.8945 20.2772C14.9631 20.38 14.9998 20.5008 14.9998 20.6244C14.9996 20.7901 14.9337 20.949 14.8165 21.0661C14.6994 21.1833 14.5405 21.2492 14.3748 21.2494ZM35.6381 14.0736L32.0166 9.9994H37.4711C37.3324 11.5241 36.6871 12.9585 35.6381 14.0736ZM37.4711 8.7494H31.2498V2.52812C32.8497 2.67642 34.3474 3.37951 35.4835 4.51567C36.6197 5.65182 37.3228 7.1495 37.4711 8.7494ZM29.9998 2.52812V9.3744C29.9998 9.52744 30.0561 9.67512 30.1582 9.78918L30.1576 9.78963L34.7043 14.9046C33.8509 15.5342 32.8635 15.9578 31.8192 16.1423C30.7748 16.3268 29.702 16.2671 28.6846 15.968C27.6672 15.6689 26.7328 15.1384 25.9545 14.418C25.1762 13.6977 24.5751 12.807 24.1983 11.8157C23.8215 10.8245 23.6792 9.75943 23.7825 8.70399C23.8858 7.64854 24.2319 6.63131 24.7937 5.73188C25.3555 4.83245 26.1178 4.07521 27.021 3.51942C27.9242 2.96362 28.9437 2.62434 29.9998 2.52812Z" fill="#787878"/>
</svg>
