<svg width="40" height="40" viewBox="0 0 40 40" fill="none" xmlns="http://www.w3.org/2000/svg">
<path d="M9.67725 12.9053V18.7084H15.4804V12.9053H9.67725ZM14.1969 17.425H10.9686V14.1966H14.1969V17.425Z" fill="#787878"/>
<path d="M16.7717 12.9053V18.7084H22.5749V12.9053H16.7717ZM21.2914 17.425H18.0631V14.1966H21.2914V17.425Z" fill="#787878"/>
<path d="M23.874 12.9053V18.7084H29.6772V12.9053H23.874ZM28.3858 17.4171H25.1575V14.1887H28.3858V17.4171Z" fill="#787878"/>
<path d="M2.58252 20V25.8032H8.38567V20H2.58252ZM7.1022 24.5197H3.87386V21.2913H7.1022V24.5197Z" fill="#787878"/>
<path d="M9.67725 20V25.8032H15.4804V20H9.67725ZM14.1969 24.5197H10.9686V21.2913H14.1969V24.5197Z" fill="#787878"/>
<path d="M16.7717 20V25.8032H22.5749V20H16.7717ZM21.2914 24.5197H18.0631V21.2913H21.2914V24.5197Z" fill="#787878"/>
<path d="M14.1969 6.44824H12.9055V7.73958H14.1969V6.44824Z" fill="#787878"/>
<path d="M16.7716 6.44824H15.4802V7.73958H16.7716V6.44824Z" fill="#787878"/>
<path d="M19.3546 6.44824H18.0632V7.73958H19.3546V6.44824Z" fill="#787878"/>
<path d="M32.2598 22.0394V3.22835H27.1024V2.25984C27.1024 1.01575 26.0866 0 24.8425 0C23.5984 0 22.5827 1.01575 22.5827 2.25984V3.22835H9.67717V2.25984C9.67717 1.01575 8.66142 0 7.41732 0C6.17323 0 5.15748 1.01575 5.15748 2.25984V3.22835H0V29.0315H22.1496C22.0157 29.6535 21.937 30.2992 21.937 30.9685C21.937 35.9528 25.9921 40 30.9685 40C35.9449 40 40 35.9449 40 30.9685C40 26.4252 36.6299 22.6693 32.2598 22.0394ZM23.874 3.22835V2.25984C23.874 1.72441 24.3071 1.29134 24.8425 1.29134C25.378 1.29134 25.811 1.72441 25.811 2.25984V3.22835V6.45669H23.874V3.22835ZM6.44882 3.22835V2.25984C6.44882 1.72441 6.88189 1.29134 7.41732 1.29134C7.95276 1.29134 8.38583 1.72441 8.38583 2.25984V3.22835V6.45669H6.44882V3.22835ZM1.29134 4.51969H5.15748V7.74803H9.67717V4.51969H22.5827V7.74803H27.1024V4.51969H30.9764V9.68504H1.29134V4.51969ZM1.29134 27.7402V10.9685H30.9685V21.937C27.126 21.937 23.8425 24.3543 22.5433 27.7402H1.29134ZM30.9685 38.7087C26.7008 38.7087 23.2283 35.2362 23.2283 30.9685C23.2283 26.7008 26.7008 23.2283 30.9685 23.2283C35.2362 23.2283 38.7087 26.7008 38.7087 30.9685C38.7087 35.2362 35.2362 38.7087 30.9685 38.7087Z" fill="#787878"/>
<path d="M31.6141 30.9681V25.8027H30.3228V32.2594H34.8424V30.9681H31.6141Z" fill="#787878"/>
</svg>
