<svg width="40" height="40" xmlns="http://www.w3.org/2000/svg">

 <g>
  <title>background</title>
  <rect fill="none" id="canvas_background" height="42" width="42" y="-1" x="-1"/>
 </g>
 <g>
  <title>Layer 1</title>
  <path fill="#787878" stroke="null" id="svg_3" d="m28.87777,39.826476l-24.662693,0c-0.576975,0 -1.044866,-0.440671 -1.044866,-0.984079l0,-33.097345c0,-0.543409 0.467891,-0.984079 1.044866,-0.984079l6.644509,0c0.576975,0 1.044866,0.440671 1.044866,0.984079l0,26.616001l16.973319,0c0.576975,0 1.044866,0.440671 1.044866,0.984079l0,5.497264c0,0.543409 -0.467891,0.984079 -1.044866,0.984079zm-23.617828,-1.968159l22.572962,0l0,-3.529105l-16.973423,0c-0.576975,0 -1.044866,-0.440671 -1.044866,-0.984079l0,-26.616001l-4.554778,0l0,31.129186l0.000104,0z"/>
  <path fill="#787878" stroke="null" id="svg_5" d="m36.340965,33.798597l-25.333861,0c-0.592676,0 -1.0733,-0.421987 -1.0733,-0.942355l0,-31.693952c0,-0.520369 0.480624,-0.942355 1.0733,-0.942355l25.333861,0c0.592676,0 1.0733,0.421987 1.0733,0.942355l0,31.693952c0,0.520463 -0.480517,0.942355 -1.0733,0.942355zm-24.26056,-1.884711l23.18726,0l0,-29.809241l-23.18726,0l0,29.809241z"/>
  <path fill="#787878" stroke="null" id="svg_7" d="m17.624273,10.786042c-0.248544,0 -0.495002,-0.106109 -0.666636,-0.310941l-1.136349,-1.356389c-0.308247,-0.367862 -0.259841,-0.916049 0.108021,-1.224209c0.367862,-0.30842 0.915962,-0.259928 1.224209,0.108021l0.59077,0.705135l2.818974,-2.255231c0.374815,-0.299904 0.921698,-0.238984 1.221515,0.135743c0.299817,0.374815 0.239071,0.921611 -0.135743,1.221515l-3.482395,2.786038c-0.159989,0.127922 -0.351785,0.190319 -0.542364,0.190319z"/>
  <path fill="#787878" stroke="null" id="svg_9" d="m32.837988,16.357332l-8.017964,0c-0.456445,0 -0.826594,-0.370149 -0.826594,-0.826594s0.370149,-0.826594 0.826594,-0.826594l8.017964,0c0.456445,0 0.826594,0.370149 0.826594,0.826594s-0.370066,0.826594 -0.826594,0.826594z"/>
  <path fill="#787878" stroke="null" id="svg_11" d="m28.973499,18.965507l-4.020348,0c-0.477427,0 -0.864591,-0.387164 -0.864591,-0.864591s0.387164,-0.864591 0.864591,-0.864591l4.020348,0c0.477427,0 0.864591,0.387164 0.864591,0.864591s-0.387077,0.864591 -0.864591,0.864591z"/>
  <path fill="#787878" stroke="null" id="svg_13" d="m33.101031,8.512664l-8.105495,0c-0.461428,0 -0.835618,-0.37419 -0.835618,-0.835618s0.37419,-0.835618 0.835618,-0.835618l8.105495,0c0.461428,0 0.835618,0.37419 0.835618,0.835618s-0.374106,0.835618 -0.835618,0.835618z"/>
  <path fill="#787878" stroke="null" id="svg_15" d="m29.118083,28.257784l-3.909261,0c-0.464235,0 -0.840701,-0.376466 -0.840701,-0.840701s0.376466,-0.840701 0.840701,-0.840701l3.909261,0c0.464235,0 0.840701,0.376466 0.840701,0.840701s-0.376382,0.840701 -0.840701,0.840701z"/>
  <path fill="#787878" stroke="null" id="svg_17" d="m32.911367,25.293804l-7.903286,0c-0.449917,0 -0.814772,-0.364855 -0.814772,-0.814772s0.364855,-0.814772 0.814772,-0.814772l7.903286,0c0.449917,0 0.814772,0.364855 0.814772,0.814772s-0.364773,0.814772 -0.814772,0.814772z"/>
  <path fill="#787878" stroke="null" id="svg_19" d="m29.194925,11.344111l-4.085943,0c-0.485217,0 -0.878697,-0.393481 -0.878697,-0.878697s0.393481,-0.878697 0.878697,-0.878697l4.085943,0c0.485217,0 0.878697,0.393481 0.878697,0.878697s-0.393393,0.878697 -0.878697,0.878697z"/>
  <path fill="#787878" stroke="null" id="svg_21" d="m20.383087,19.866593l-3.519532,0c-0.484261,0 -0.876967,-0.392706 -0.876967,-0.876967l0,-3.318443c0,-0.484261 0.392706,-0.876967 0.876967,-0.876967l3.519532,0c0.484261,0 0.876967,0.392706 0.876967,0.876967l0,3.318443c0,0.484349 -0.392618,0.876967 -0.876967,0.876967zm-2.642477,-1.753934l1.765598,0l0,-1.564509l-1.765598,0l0,1.564509z"/>
  <path fill="#787878" stroke="null" id="svg_23" d="m20.450533,28.247421l-3.498823,0c-0.481412,0 -0.871807,-0.390395 -0.871807,-0.871807l0,-3.298918c0,-0.481412 0.390395,-0.871807 0.871807,-0.871807l3.498823,0c0.481412,0 0.871807,0.390395 0.871807,0.871807l0,3.298918c0,0.481499 -0.390308,0.871807 -0.871807,0.871807zm-2.626929,-1.743614l1.755209,0l0,-1.555304l-1.755209,0l0,1.555304z"/>
 </g>
</svg>