<svg width="40" height="40" viewBox="0 0 40 40" fill="none" xmlns="http://www.w3.org/2000/svg">
<path d="M33.1249 13.7499C32.6936 13.7499 32.3436 14.0999 32.3436 14.5312C32.3436 14.9624 32.6936 15.3124 33.1249 15.3124C33.5561 15.3124 33.9061 14.9624 33.9061 14.5312C33.9061 14.0999 33.5561 13.7499 33.1249 13.7499Z" fill="black"/>
<path d="M39.8833 18.8081C39.7409 18.5778 39.4895 18.4376 39.2187 18.4376H38.3598C37.6776 11.5465 32.5521 6.02951 25.9374 4.68811V4.37499C25.9374 2.64867 24.5391 1.25 22.8124 1.25C21.0893 1.25 19.6874 2.65187 19.6874 4.37499V4.68811C13.0728 6.02951 7.94723 11.5464 7.26504 18.4374H6.40622C6.13544 18.4374 5.88396 18.5777 5.74169 18.808C5.59935 19.0382 5.58638 19.3259 5.70747 19.5681C6.49208 21.1372 7.88246 22.3193 9.56738 22.8388L5.17302 25.7685L4.50631 24.9684C4.21123 24.6144 3.67725 24.593 3.35381 24.9162L0.228822 28.0412C-0.00891121 28.279 -0.0678953 28.6422 0.0824947 28.943L4.76998 38.318C4.96294 38.7039 5.43224 38.8603 5.81818 38.6674L12.0682 35.5424C12.5185 35.3173 12.6412 34.7303 12.3189 34.3435L11.5716 33.4467L13.4656 32.4999H23.5219C23.9922 32.4999 24.4468 32.3605 24.8363 32.0968C24.8419 32.093 24.8476 32.0891 24.8531 32.0851L33.0747 26.1998C34.0828 25.5101 34.4386 24.216 33.9728 23.125H34.1624C36.6149 23.125 38.82 21.7622 39.9174 19.5683C40.0386 19.3261 40.0257 19.0385 39.8833 18.8081ZM22.8124 2.81249C23.6753 2.81249 24.3749 3.51202 24.3749 4.37499H21.2499C21.2499 3.51343 21.9508 2.81249 22.8124 2.81249ZM22.8124 5.93748C30.0228 5.93748 36.0092 11.3645 36.7881 18.4374H8.83668C9.61558 11.3645 15.602 5.93748 22.8124 5.93748ZM9.25183 35.2037L7.68129 32.8478C7.442 32.4889 6.957 32.3918 6.59794 32.6312C6.23896 32.8705 6.14192 33.3556 6.3813 33.7146L7.84356 35.9079L5.81825 36.9206L1.73186 28.7479L3.85389 26.6259L10.4871 34.586L9.25183 35.2037ZM32.1889 24.9126C32.1833 24.9164 32.1778 24.9202 32.1724 24.924L23.9534 30.8076C23.825 30.8926 23.6759 30.9375 23.5218 30.9375H13.2812C13.1599 30.9375 13.0403 30.9657 12.9319 31.02L10.5439 32.2136L6.17903 26.9758L11.4794 23.4419C11.7913 23.2346 12.1533 23.1249 12.5265 23.1249H16.864C17.3604 23.1249 17.8465 23.3262 18.1975 23.6773C18.8394 24.3192 19.7281 24.6874 20.6359 24.6874H22.6562C23.0869 24.6874 23.4374 25.0379 23.4374 25.4687C23.4374 25.9064 23.0837 26.2499 22.6562 26.2499H17.9687C17.5372 26.2499 17.1874 26.5997 17.1874 27.0311C17.1874 27.4626 17.5372 27.8124 17.9687 27.8124H22.6562C23.5828 27.8124 24.4054 27.2702 24.7834 26.4511L31.2654 23.2324C31.615 23.0809 32.0401 23.145 32.3303 23.4352C32.7578 23.8626 32.6896 24.5732 32.1889 24.9126ZM22.6562 23.1249H27.9686L24.8593 24.6689C24.5316 23.7692 23.6678 23.1249 22.6562 23.1249ZM34.1624 21.5624H11.4625C10.0883 21.5624 8.79746 20.9756 7.887 19.9921H37.7413C36.8345 20.9776 35.5507 21.5624 34.1624 21.5624Z" fill="black"/>
<path d="M31.9157 11.427C29.5705 8.93552 26.3047 7.49997 22.8124 7.49997C22.3809 7.49997 22.0312 7.84981 22.0312 8.28122C22.0312 8.71263 22.3809 9.06247 22.8124 9.06247C25.8605 9.06247 28.7201 10.3122 30.778 12.498C31.0738 12.8122 31.5681 12.8271 31.8823 12.5314C32.1965 12.2357 32.2114 11.7412 31.9157 11.427Z" fill="black"/>
</svg>
