<svg width="40" height="40" xmlns="http://www.w3.org/2000/svg">

 <g>
  <title>background</title>
  <rect fill="none" id="canvas_background" height="42" width="42" y="-1" x="-1"/>
 </g>
 <g>
  <title>Layer 1</title>
  <path fill="#787878" stroke="null" id="svg_2" d="m8.089424,9.955292c0,-4.302992 3.290524,-7.593516 7.593516,-7.593516s7.593516,3.290524 7.593516,7.593516c0,4.302992 -3.290524,7.593516 -7.593516,7.593516s-7.593516,-3.290524 -7.593516,-7.593516zm7.593516,12.65586c-11.643391,0 -15.187032,8.352868 -15.187032,8.352868l0,4.302992l30.374064,0l0,-4.302992c0,0 -3.543641,-8.352868 -15.187032,-8.352868z"/>
  <circle fill="#787878" stroke="null" id="svg_5" r="4.695132" cy="10.939036" cx="30.150453"/>
  <path fill="#787878" stroke="null" id="svg_7" d="m31.313172,20.612238c-2.255802,0 -3.947653,0.56395 -5.263538,1.503868c4.32362,2.067818 6.015472,5.639505 6.015472,6.015472l0,0.187983l7.707323,0l0,-2.443785c0,-0.187983 -2.067818,-5.263538 -8.459257,-5.263538z"/>
  <line stroke="#787878" id="svg_8" y2="22.747997" y1="15.235803" x2="4.837398" x1="4.837398" stroke-width="2" stroke-miterlimit="10" fill="none"/>
  <line stroke="#787878" id="svg_9" y2="19.235805" y1="19.235805" x2="0.512193" x1="9.243903" stroke-width="2" stroke-miterlimit="10" fill="none"/>
 </g>
</svg>