<svg width="20" height="20" viewBox="0 0 20 20" fill="none" xmlns="http://www.w3.org/2000/svg">
<g clip-path="url(#clip0)">
<path d="M19.3143 7.24718C19.3122 6.80712 19.5136 6.3518 19.8667 5.99779C19.9777 5.88656 20.0392 5.73519 20.0377 5.57802C20.036 5.42086 19.9713 5.27086 19.858 5.16192L14.8354 0.140547C14.7263 0.0271744 14.5763 -0.0375229 14.419 -0.0390488C14.2618 -0.0401169 14.1104 0.0212235 13.9992 0.13246C13.6672 0.464492 13.2259 0.647292 12.7565 0.647292C12.287 0.647292 11.8457 0.464492 11.5138 0.13246C11.404 0.0227494 11.2549 -0.0390488 11.0996 -0.0390488C10.9441 -0.0390488 10.7951 0.0227494 10.6853 0.132613L0.210721 10.6072C0.100858 10.717 0.0390596 10.8661 0.0390596 11.0215C0.0390596 11.1768 0.100705 11.3259 0.210721 11.4357C0.5426 11.7676 0.725401 12.2089 0.725401 12.6783C0.725401 13.1478 0.5426 13.5891 0.210721 13.9209C0.0993319 14.0322 0.0375337 14.1835 0.0390596 14.3409C0.0405854 14.4982 0.105283 14.6482 0.218656 14.7573L5.24018 19.7805C5.35324 19.8951 5.50766 19.9584 5.6691 19.955C5.82993 19.9517 5.98237 19.8825 6.0907 19.7635C6.40748 19.4153 6.84281 19.2237 7.31705 19.2237H7.32194C7.76292 19.2249 8.21747 19.43 8.56873 19.7864C8.67829 19.8975 8.82783 19.9604 8.98392 19.961H8.98591C9.1414 19.961 9.29032 19.8992 9.40019 19.7893L19.863 9.3233C19.9733 9.21298 20.0351 9.06298 20.0345 8.90673C20.0339 8.75064 19.9709 8.60125 19.8596 8.49169C19.5151 8.15264 19.3163 7.699 19.3143 7.24718ZM17.733 9.79678L16.4511 8.51504C16.2224 8.28616 15.8515 8.28616 15.6227 8.51504C15.394 8.74377 15.394 9.11471 15.6227 9.34344L16.9046 10.6253L8.9502 18.5823C8.4604 18.2425 7.89109 18.0536 7.32514 18.0521C7.32239 18.0521 7.31965 18.0521 7.3169 18.0521C6.71967 18.0521 6.15799 18.2311 5.68695 18.5648L1.41785 14.2855C1.72974 13.8121 1.89697 13.2581 1.89697 12.6784C1.89697 12.0951 1.7276 11.5377 1.4122 11.0626L9.37699 3.0977L10.652 4.37273C10.8807 4.60146 11.2517 4.60146 11.4804 4.37273C11.7091 4.14385 11.7091 3.77306 11.4804 3.54418L10.2054 2.2693L11.1408 1.33409C11.6158 1.64949 12.1732 1.81886 12.7565 1.81886C13.3363 1.81886 13.8902 1.65163 14.3636 1.33974L18.656 5.63143C18.3229 6.122 18.1401 6.68978 18.1426 7.25253C18.1453 7.82259 18.3286 8.38946 18.6577 8.87179L17.733 9.79678Z" fill="white"/>
<path d="M13.1375 5.20182C12.9086 4.97309 12.5379 4.97309 12.309 5.20182C12.0802 5.43055 12.0802 5.80149 12.309 6.03022L13.9658 7.68702C14.0801 7.80131 14.2301 7.85853 14.3799 7.85853C14.5299 7.85853 14.6797 7.80146 14.7942 7.68702C15.0229 7.45829 15.0229 7.08735 14.7942 6.85862L13.1375 5.20182Z" fill="white"/>
<path d="M10.9114 8.24393L10.4433 8.71207C9.79399 8.40125 8.98665 8.51172 8.44267 9.05585C7.7574 9.74097 7.7574 10.8559 8.44267 11.5411C8.67155 11.7701 8.67155 12.1406 8.44267 12.3696C8.21424 12.5979 7.84269 12.598 7.61412 12.3696C7.46672 12.2221 7.40858 12.0051 7.46244 11.803C7.54606 11.4905 7.36021 11.1695 7.04771 11.086C6.73536 11.0027 6.41401 11.1883 6.33054 11.5008C6.22129 11.9099 6.2663 12.3395 6.44346 12.7119L5.99043 13.1649C5.7617 13.3936 5.7617 13.7646 5.99043 13.9933C6.10487 14.1077 6.25471 14.165 6.4047 14.165C6.55454 14.165 6.70454 14.1077 6.81883 13.9933L7.2711 13.541C7.92814 13.8541 8.73365 13.7354 9.27107 13.198C9.95787 12.5112 9.95802 11.3996 9.27107 10.7127C9.04265 10.4842 9.04265 10.1127 9.27107 9.88425C9.49995 9.65537 9.87059 9.65521 10.0995 9.88425C10.247 10.0316 10.3052 10.2488 10.2511 10.4508C10.1677 10.7633 10.3534 11.0844 10.666 11.1678C10.9785 11.2511 11.2997 11.0656 11.383 10.7529C11.4923 10.3438 11.4473 9.91416 11.2703 9.54199L11.7398 9.07233C11.9685 8.8436 11.9685 8.47266 11.7398 8.24393C11.5111 8.01505 11.1401 8.01505 10.9114 8.24393Z" fill="white"/>
</g>
<defs>
<clipPath id="clip0">
<rect width="20" height="20" fill="white"/>
</clipPath>
</defs>
</svg>
