<svg width="40" height="40" viewBox="0 0 40 40" fill="none" xmlns="http://www.w3.org/2000/svg">
<g clip-path="url(#clip0)">
<path d="M38.4375 18.4375H11.2705C10.4075 18.4375 9.70801 19.137 9.70801 20C9.70801 20.863 10.4075 21.5625 11.2705 21.5625H38.4375C39.3005 21.5625 40 20.863 40 20C40 19.137 39.3005 18.4375 38.4375 18.4375Z" fill="#787878"/>
<path d="M38.4375 6.71875H11.2705C10.4075 6.71875 9.70801 7.41828 9.70801 8.28125C9.70801 9.14422 10.4075 9.84375 11.2705 9.84375H38.4375C39.3005 9.84375 40 9.14422 40 8.28125C40 7.41828 39.3005 6.71875 38.4375 6.71875Z" fill="#787878"/>
<path d="M38.4375 30.1562H11.2705C10.4075 30.1562 9.70801 30.8558 9.70801 31.7188C9.70801 32.5817 10.4075 33.2812 11.2705 33.2812H38.4375C39.3005 33.2812 40 32.5817 40 31.7188C40 30.8558 39.3005 30.1562 38.4375 30.1562Z" fill="#787878"/>
<path d="M2.10938 10.3906C3.27435 10.3906 4.21875 9.44623 4.21875 8.28125C4.21875 7.11627 3.27435 6.17188 2.10938 6.17188C0.944399 6.17188 0 7.11627 0 8.28125C0 9.44623 0.944399 10.3906 2.10938 10.3906Z" fill="#787878"/>
<path d="M2.10938 22.1094C3.27435 22.1094 4.21875 21.165 4.21875 20C4.21875 18.835 3.27435 17.8906 2.10938 17.8906C0.944399 17.8906 0 18.835 0 20C0 21.165 0.944399 22.1094 2.10938 22.1094Z" fill="#787878"/>
<path d="M2.10938 33.8281C3.27435 33.8281 4.21875 32.8837 4.21875 31.7188C4.21875 30.5538 3.27435 29.6094 2.10938 29.6094C0.944399 29.6094 0 30.5538 0 31.7188C0 32.8837 0.944399 33.8281 2.10938 33.8281Z" fill="#787878"/>
</g>
<defs>
<clipPath id="clip0">
<rect width="40" height="40" fill="white"/>
</clipPath>
</defs>
</svg>
