<svg width="40" height="40" viewBox="0 0 40 40" fill="none" xmlns="http://www.w3.org/2000/svg">
<g clip-path="url(#clip0)">
<path d="M37.0833 40.0003H2.91666C1.30833 40.0003 -7.62939e-06 38.6919 -7.62939e-06 37.0836V14.1669C-7.62939e-06 13.7553 0.203326 13.3703 0.541659 13.1369L19.2917 0.220273C19.7183 -0.0747266 20.2833 -0.0747266 20.71 0.220273L39.46 13.1369C39.7967 13.3703 40 13.7553 40 14.1669V37.0836C40 38.6919 38.6917 40.0003 37.0833 40.0003ZM2.49999 14.8236V37.0836C2.49999 37.3136 2.68666 37.5003 2.91666 37.5003H37.0833C37.3133 37.5003 37.5 37.3136 37.5 37.0836V14.8236L20 2.76861L2.49999 14.8236Z" fill="#787878"/>
<path d="M30.4167 40.0006H9.58336C8.89336 40.0006 8.33335 39.4406 8.33335 38.7506V19.584C8.33335 18.894 8.89336 18.334 9.58336 18.334H30.4167C31.1067 18.334 31.6667 18.894 31.6667 19.584V38.7506C31.6667 39.4406 31.1067 40.0006 30.4167 40.0006ZM10.8334 37.5006H29.1667V20.834H10.8334V37.5006Z" fill="#787878"/>
<path d="M30.4167 26.666H9.58336C8.89336 26.666 8.33335 26.106 8.33335 25.416C8.33335 24.726 8.89336 24.166 9.58336 24.166H30.4167C31.1067 24.166 31.6667 24.726 31.6667 25.416C31.6667 26.106 31.1067 26.666 30.4167 26.666Z" fill="#787878"/>
<path d="M30.4167 33.334H9.58336C8.89336 33.334 8.33335 32.774 8.33335 32.084C8.33335 31.394 8.89336 30.834 9.58336 30.834H30.4167C31.1067 30.834 31.6667 31.394 31.6667 32.084C31.6667 32.774 31.1067 33.334 30.4167 33.334Z" fill="#787878"/>
</g>
<defs>
<clipPath id="clip0">
<rect width="40" height="40" fill="white"/>
</clipPath>
</defs>
</svg>
