<svg width="20" height="20" viewBox="0 0 20 20" fill="none" xmlns="http://www.w3.org/2000/svg">
<g clip-path="url(#clip0)">
<path d="M18.5417 19.9996H1.45833C0.654167 19.9996 0 19.3455 0 18.5413V7.08298C0 6.87715 0.101667 6.68465 0.270833 6.56798L9.64583 0.109648C9.85917 -0.0378516 10.1417 -0.0378516 10.355 0.109648L19.73 6.56798C19.8983 6.68465 20 6.87715 20 7.08298V18.5413C20 19.3455 19.3458 19.9996 18.5417 19.9996ZM1.25 7.41131V18.5413C1.25 18.6563 1.34333 18.7496 1.45833 18.7496H18.5417C18.6567 18.7496 18.75 18.6563 18.75 18.5413V7.41131L10 1.38382L1.25 7.41131Z" fill="white"/>
<path d="M15.2083 20.0003H4.79166C4.44666 20.0003 4.16666 19.7203 4.16666 19.3753V9.79199C4.16666 9.44699 4.44666 9.16699 4.79166 9.16699H15.2083C15.5533 9.16699 15.8333 9.44699 15.8333 9.79199V19.3753C15.8333 19.7203 15.5533 20.0003 15.2083 20.0003ZM5.41666 18.7503H14.5833V10.417H5.41666V18.7503Z" fill="white"/>
<path d="M15.2083 13.333H4.79166C4.44666 13.333 4.16666 13.053 4.16666 12.708C4.16666 12.363 4.44666 12.083 4.79166 12.083H15.2083C15.5533 12.083 15.8333 12.363 15.8333 12.708C15.8333 13.053 15.5533 13.333 15.2083 13.333Z" fill="white"/>
<path d="M15.2083 16.667H4.79166C4.44666 16.667 4.16666 16.387 4.16666 16.042C4.16666 15.697 4.44666 15.417 4.79166 15.417H15.2083C15.5533 15.417 15.8333 15.697 15.8333 16.042C15.8333 16.387 15.5533 16.667 15.2083 16.667Z" fill="white"/>
</g>
<defs>
<clipPath id="clip0">
<rect width="20" height="20" fill="white"/>
</clipPath>
</defs>
</svg>
