<svg width="40" height="40" viewBox="0 0 40 40" fill="none" xmlns="http://www.w3.org/2000/svg">
<path d="M35.5384 32.6025C35.3217 32.2272 34.8418 32.0985 34.4662 32.3152L31.6129 33.9623C31.2376 34.1791 31.1089 34.6591 31.3257 35.0345C31.4711 35.2863 31.7349 35.4272 32.0062 35.4272C32.1394 35.4272 32.2743 35.3932 32.3979 35.3219L35.2511 33.6748C35.6264 33.458 35.7552 32.978 35.5384 32.6025Z" fill="#787878"/>
<path d="M39.8027 22.738C39.8025 22.7061 39.8006 22.6741 39.7964 22.6422C39.796 22.6401 39.7956 22.638 39.7953 22.6359C39.7913 22.6073 39.7853 22.5789 39.7782 22.5506C39.7761 22.5427 39.7739 22.535 39.7717 22.5272C39.7651 22.5044 39.7573 22.4818 39.7485 22.4594C39.7455 22.4517 39.7428 22.4438 39.7395 22.4363C39.7275 22.4083 39.7142 22.3807 39.6987 22.3537C39.6982 22.3529 39.6978 22.352 39.6973 22.3512C39.6817 22.3244 39.6645 22.2992 39.6464 22.2749C39.6414 22.2683 39.636 22.262 39.6308 22.2555C39.6158 22.2367 39.6001 22.2187 39.5836 22.2016C39.578 22.1957 39.5724 22.1898 39.5666 22.1842C39.5457 22.1637 39.5239 22.1445 39.5011 22.1266C39.4995 22.1254 39.498 22.1239 39.4964 22.1227C39.4708 22.1031 39.4442 22.0855 39.4166 22.0693C39.4146 22.0681 39.4128 22.0666 39.4107 22.0654L30.2938 16.8022V6.2747C30.2938 6.27244 30.2934 6.27033 30.2934 6.26806C30.2931 6.23595 30.2912 6.20384 30.2869 6.17173C30.2867 6.17009 30.2863 6.16853 30.2861 6.16697C30.2821 6.13775 30.276 6.10884 30.2686 6.07994C30.2667 6.07251 30.2645 6.06509 30.2624 6.05767C30.2557 6.03431 30.2477 6.01111 30.2387 5.98814C30.2359 5.98095 30.2334 5.97361 30.2303 5.96658C30.218 5.93806 30.2047 5.90986 30.1887 5.88228C30.1729 5.85478 30.1552 5.82915 30.1367 5.80431C30.132 5.79798 30.1268 5.79197 30.1219 5.78579C30.1066 5.76665 30.0907 5.74837 30.074 5.73103C30.0685 5.72533 30.063 5.71954 30.0573 5.714C30.0364 5.69345 30.0145 5.67408 29.9917 5.65618C29.9901 5.65493 29.9887 5.65353 29.9871 5.65228C29.9615 5.63267 29.9348 5.61501 29.9071 5.59876C29.9051 5.59759 29.9034 5.59611 29.9015 5.59501L20.3925 0.105147C20.1497 -0.0350099 19.8505 -0.035088 19.6076 0.105147L10.0989 5.59493C10.097 5.59603 10.0955 5.59736 10.0936 5.59845C10.0658 5.61478 10.0389 5.63251 10.013 5.65236C10.0118 5.65329 10.0107 5.65439 10.0094 5.6554C9.98624 5.67345 9.96406 5.69322 9.94281 5.714C9.93726 5.71947 9.93179 5.72509 9.9264 5.73072C9.90968 5.74814 9.89374 5.76642 9.87851 5.78556C9.87359 5.79173 9.86835 5.79783 9.86359 5.80423C9.84507 5.829 9.82749 5.8547 9.81164 5.88212C9.79578 5.90962 9.78234 5.93767 9.77015 5.96611C9.76702 5.97345 9.76437 5.98111 9.7614 5.98853C9.75249 6.01119 9.74468 6.034 9.73804 6.05705C9.73585 6.06462 9.73367 6.07228 9.73164 6.07994C9.72437 6.10845 9.71835 6.13712 9.71437 6.16595C9.71414 6.16791 9.71359 6.1697 9.71335 6.17166C9.70914 6.20361 9.70726 6.23572 9.70703 6.26767C9.70703 6.26994 9.70656 6.2722 9.70656 6.27447V16.8018L0.589491 22.0652C0.587537 22.0662 0.585897 22.0677 0.584022 22.0688C0.556287 22.0851 0.529412 22.1028 0.503709 22.1226C0.502459 22.1235 0.501287 22.1247 0.500037 22.1256C0.476834 22.1437 0.454724 22.1634 0.433474 22.1843C0.427849 22.1898 0.422459 22.1955 0.41699 22.2011C0.400349 22.2184 0.384412 22.2366 0.369177 22.2558C0.364177 22.262 0.358865 22.2682 0.354099 22.2746C0.335818 22.2991 0.318474 22.3245 0.302771 22.3516C0.302536 22.352 0.302224 22.3523 0.30199 22.3528C0.286286 22.3802 0.272849 22.408 0.260818 22.4363C0.257614 22.4438 0.25488 22.4516 0.251833 22.4592C0.243083 22.4816 0.235271 22.5044 0.22863 22.5272C0.226364 22.5349 0.224177 22.5427 0.222145 22.5505C0.21488 22.5788 0.208942 22.6073 0.204958 22.6359C0.204645 22.638 0.204177 22.64 0.203864 22.6421C0.199645 22.6741 0.19777 22.7061 0.197536 22.7381C0.197536 22.7404 0.197067 22.7426 0.197067 22.7448V33.7253H0.197145C0.197145 34.0057 0.346755 34.2648 0.589569 34.405L10.0991 39.8948C10.1009 39.8959 10.103 39.8966 10.1049 39.8976C10.1329 39.9135 10.1616 39.9279 10.1915 39.9403C10.1933 39.941 10.1951 39.9416 10.1969 39.9423C10.2238 39.9532 10.2516 39.9623 10.2799 39.9703C10.2877 39.9725 10.2955 39.9744 10.3032 39.9762C10.3263 39.9819 10.3499 39.9866 10.3738 39.9901C10.3819 39.9914 10.3899 39.9929 10.398 39.9938C10.4287 39.9974 10.4598 39.9998 10.4913 39.9998C10.5229 39.9998 10.554 39.9974 10.5846 39.9938C10.5927 39.9929 10.6008 39.9913 10.6088 39.9901C10.6327 39.9866 10.6562 39.982 10.6794 39.9762C10.6872 39.9743 10.695 39.9724 10.7028 39.9702C10.731 39.9624 10.7586 39.9532 10.7854 39.9423C10.7873 39.9416 10.7893 39.941 10.7912 39.9401C10.8211 39.9278 10.8498 39.9134 10.8775 39.8976C10.8795 39.8966 10.8816 39.8958 10.8836 39.8947L19.9998 34.6315L29.116 39.8947C29.118 39.8958 29.1201 39.8966 29.1222 39.8977C29.15 39.9135 29.1786 39.9278 29.2083 39.9401C29.2104 39.941 29.2125 39.9416 29.2145 39.9424C29.2412 39.9533 29.2687 39.9623 29.2969 39.9702C29.3047 39.9724 29.3126 39.9743 29.3204 39.9762C29.3434 39.9819 29.367 39.9866 29.3909 39.9901C29.399 39.9914 29.407 39.9929 29.4151 39.9938C29.4458 39.9974 29.4768 39.9998 29.5084 39.9998C29.5401 39.9998 29.5711 39.9974 29.6017 39.9938C29.6098 39.9929 29.6179 39.9913 29.626 39.9901C29.6498 39.9866 29.6734 39.982 29.6965 39.9762C29.7043 39.9743 29.7122 39.9724 29.72 39.9702C29.7481 39.9624 29.7755 39.9533 29.8023 39.9424C29.8044 39.9416 29.8065 39.941 29.8085 39.9401C29.8383 39.9278 29.8669 39.9134 29.8947 39.8977C29.8967 39.8966 29.8988 39.8958 29.9009 39.8947L39.4103 34.405C39.6532 34.2648 39.8028 34.0057 39.8028 33.7252V22.745C39.8032 22.7426 39.8027 22.7404 39.8027 22.738ZM32.7023 20.0051L24.7634 24.5887L21.5699 22.7448L29.5087 18.1615L32.7023 20.0051ZM28.7238 16.802L20.785 21.3854V12.2185L28.7238 7.6344V16.802ZM20 1.69125L23.1936 3.535L15.2545 8.11862L12.0612 6.2747L20 1.69125ZM10.4913 18.1615L13.6845 20.0051L5.74537 24.5885L2.55192 22.7449L10.4913 18.1615ZM9.70648 37.8557L1.76684 33.2722V24.1045L5.14857 26.0567C5.25334 26.1659 5.38498 26.2405 5.52709 26.2752L9.70648 28.6881V37.8557ZM10.4914 27.3285L7.31538 25.4949L15.2542 20.9114L18.4302 22.745L10.4914 27.3285ZM19.2151 33.2722L11.2763 37.8556V28.688L19.2151 24.1045V33.2722ZM19.2151 21.3855L11.2763 16.8021V7.63432L14.656 9.58589C14.7613 9.69612 14.894 9.77128 15.0373 9.80604L19.2152 12.2185V21.3855H19.2151ZM16.8245 9.02518L24.7634 4.44134L27.9389 6.2747L20.0001 10.8589L16.8245 9.02518ZM28.7237 37.8555L20.785 33.2722V24.1045L24.1667 26.0568C24.2711 26.1656 24.4026 26.24 24.5445 26.2749L28.7238 28.6878V37.8555H28.7237ZM29.5087 27.3285L26.3333 25.4951L34.2722 20.9115L37.4481 22.745L29.5087 27.3285ZM38.2332 33.2722L30.2937 37.8557V28.688L38.2332 24.1045V33.2722Z" fill="#787878"/>
<path d="M36.8236 31.1855C35.8135 31.1855 35.8118 32.7554 36.8236 32.7554C37.8337 32.7554 37.8354 31.1855 36.8236 31.1855Z" fill="#787878"/>
</svg>
