<svg width="40" height="40" xmlns="http://www.w3.org/2000/svg">

 <g>
  <title>background</title>
  <rect fill="none" id="canvas_background" height="42" width="42" y="-1" x="-1"/>
 </g>
 <g>
  <title>Layer 1</title>
  <path fill="#787878" stroke="null" id="svg_1" d="m33.717077,0.630912l-25.661459,0c-1.66993,0 -3.028894,1.240654 -3.028894,2.765203l0,33.489682c0,1.524549 1.358964,2.765203 3.028894,2.765203l25.661459,0c1.66993,0 3.028894,-1.240654 3.028894,-2.765203l0,-33.489682c0,-1.524549 -1.358964,-2.765203 -3.028894,-2.765203zm1.009631,36.254885c0,0.508183 -0.452988,0.921734 -1.009631,0.921734l-25.661459,0c-0.556643,0 -1.009631,-0.413551 -1.009631,-0.921734l0,-33.489682c0,-0.508183 0.452988,-0.921734 1.009631,-0.921734l25.661459,0c0.556643,0 1.009631,0.413551 1.009631,0.921734l0,33.489682z"/>
  <path fill="#787878" stroke="null" id="svg_2" d="m12.034403,8.329096l15.477482,0c0.447698,0 0.811047,-0.671 0.811047,-1.5s-0.363349,-1.5 -0.811047,-1.5l-15.477482,0c-0.448239,0 -0.811047,0.671 -0.811047,1.5s0.362808,1.5 0.811047,1.5z"/>
  <path fill="#787878" stroke="null" id="svg_3" d="m13.626579,23.821521l17.009746,0c0.90138,0 1.632936,-0.671 1.632936,-1.5s-0.731555,-1.5 -1.632936,-1.5l-17.009746,0c-0.902469,0 -1.632936,0.671 -1.632936,1.5s0.730467,1.5 1.632936,1.5z"/>
  <path fill="#787878" stroke="null" id="svg_4" d="m12.621213,13.894452l18.157356,0c0.650131,0 1.177774,-0.671 1.177774,-1.5s-0.527643,-1.5 -1.177774,-1.5l-18.157356,0c-0.650917,0 -1.177774,0.671 -1.177774,1.5s0.526858,1.5 1.177774,1.5z"/>
  <path fill="#787878" id="svg_5" d="m26.446603,17.32293c0,-0.828 -0.671,-1.5 -1.5,-1.5l-11.563,0c-0.829,0 -1.5,0.672 -1.5,1.5s0.671,1.5 1.5,1.5l11.563,0c0.828,0 1.5,-0.672 1.5,-1.5z"/>
  <path fill="#787878" stroke="null" id="svg_6" d="m29.219413,31.311662l-2.924582,2.959277l-3.038916,-6.799318c-0.011039,-0.023655 -0.026021,-0.044945 -0.038637,-0.067812c-0.019713,-0.037848 -0.040214,-0.076485 -0.064658,-0.111968c-0.022867,-0.035483 -0.049676,-0.066235 -0.076485,-0.097775c-0.022078,-0.026021 -0.044157,-0.05283 -0.0686,-0.078062c-0.036271,-0.035483 -0.074908,-0.066235 -0.115122,-0.096987c-0.016559,-0.012616 -0.029963,-0.027598 -0.048099,-0.040214c-0.00552,-0.003943 -0.011828,-0.006308 -0.017347,-0.009462c-0.041002,-0.026809 -0.083582,-0.049676 -0.127739,-0.070966c-0.027598,-0.014193 -0.053619,-0.029175 -0.082005,-0.041002c-0.03706,-0.01577 -0.076485,-0.024444 -0.115122,-0.035483c-0.035483,-0.011039 -0.070177,-0.022867 -0.106449,-0.029963c-0.03706,-0.007097 -0.07412,-0.007885 -0.11118,-0.011828c-0.038637,-0.003943 -0.077274,-0.009462 -0.115122,-0.008674c-0.036271,0 -0.072543,0.00552 -0.108026,0.009462c-0.041002,0.003943 -0.081216,0.006308 -0.120642,0.014982c-0.03154,0.006308 -0.063081,0.017347 -0.094621,0.026809c-0.044157,0.013405 -0.087525,0.025232 -0.130104,0.043368c-0.007885,0.003154 -0.01577,0.004731 -0.022867,0.007885c-0.022867,0.011039 -0.04258,0.025232 -0.064658,0.03706c-0.040214,0.020501 -0.079639,0.041791 -0.116699,0.067023c-0.03154,0.02129 -0.059927,0.046522 -0.088313,0.070966c-0.029963,0.024444 -0.059138,0.048099 -0.086736,0.076485c-0.03154,0.032329 -0.059138,0.067023 -0.086736,0.103295c-0.01577,0.018924 -0.033906,0.035483 -0.048099,0.055984l-3.718611,5.415484l-0.91546,-0.939115c-0.00552,-0.006308 -0.014193,-0.007885 -0.019713,-0.014193c-0.041002,-0.039425 -0.080428,-0.080428 -0.127739,-0.115122c-0.072543,-0.05283 -0.149817,-0.094621 -0.229456,-0.129316c-0.012616,-0.00552 -0.025232,-0.007885 -0.037848,-0.012616c-0.131681,-0.051253 -0.268093,-0.082005 -0.406082,-0.084371c-0.011828,0 -0.022867,0.002366 -0.034694,0.002366c-0.140355,0.000789 -0.279132,0.024444 -0.410814,0.07412c-0.011039,0.004731 -0.020501,0.011039 -0.03154,0.01577c-0.131681,0.053619 -0.255477,0.130893 -0.362714,0.234187c-0.003943,0.003154 -0.008674,0.003943 -0.012616,0.007885c-0.007097,0.007097 -0.009462,0.016559 -0.016559,0.023655c-0.038637,0.040214 -0.078062,0.078062 -0.11118,0.123796l-2.168401,2.956911c-0.38637,0.526724 -0.272824,1.266346 0.2539,1.653505c0.211321,0.153759 0.455759,0.228668 0.69862,0.228668c0.363503,0 0.723063,-0.167164 0.954097,-0.483356l1.342832,-1.830919l0.940692,0.965924c0.000789,0.000789 0.000789,0.000789 0.001577,0.001577l0.003943,0.004731c0.001577,0.001577 0.003154,0.001577 0.004731,0.003154c0.052042,0.05283 0.109603,0.102506 0.172684,0.146663c0.047311,0.032329 0.099352,0.048099 0.149028,0.072543c0.038637,0.018924 0.074908,0.041002 0.115122,0.055196c0.131681,0.048888 0.267305,0.080428 0.403717,0.080428c0,0 0,0 0.000789,0l0,0c0.000789,0 0.000789,0 0.001577,0c0.13247,-0.000789 0.261785,-0.030752 0.387158,-0.07412c0.027598,-0.010251 0.054407,-0.018924 0.082005,-0.030752c0.122219,-0.05283 0.235764,-0.124585 0.335905,-0.218417c0.00552,-0.00552 0.014193,-0.007097 0.018924,-0.012616c0.012616,-0.011828 0.016559,-0.027598 0.027598,-0.040214c0.041791,-0.044945 0.085948,-0.085948 0.12143,-0.137989l3.340127,-4.865104l2.870963,6.421622l0,0.000789l0.014193,0.030752c0.056773,0.12695 0.137201,0.234187 0.227879,0.328809c0.008674,0.009462 0.011039,0.02129 0.019713,0.029963c0.018136,0.017347 0.043368,0.023655 0.062292,0.041002c0.082005,0.070966 0.170318,0.129316 0.267305,0.175838c0.036271,0.016559 0.070177,0.035483 0.108026,0.048888c0.125373,0.044945 0.256266,0.075697 0.391889,0.075697c0.000789,0 0.001577,0.000789 0.002366,0.000789l0,0c0.000789,0 0.000789,0 0.000789,0c0.138778,0 0.279132,-0.029963 0.414756,-0.082005c0.01577,-0.00552 0.029963,-0.007885 0.044945,-0.014193c0.007885,-0.003943 0.014982,-0.004731 0.022078,-0.007885c0.130893,-0.05835 0.242861,-0.140355 0.339848,-0.234976c0.00552,-0.00552 0.014193,-0.007097 0.018924,-0.013405l4.139675,-4.189352c0.458913,-0.465221 0.454182,-1.213516 -0.010251,-1.673217c-0.463644,-0.457336 -1.211151,-0.45497 -1.670852,0.009462z"/>
 </g>
</svg>