<svg width="40" height="40" xmlns="http://www.w3.org/2000/svg" style="vector-effect: non-scaling-stroke;" stroke="null">

 <g stroke="null">
  <title stroke="null">background</title>
  <rect stroke="null" fill="none" id="canvas_background" height="42" width="42" y="-1" x="-1"/>
 </g>
 <g stroke="null">
  <title stroke="null">Layer 1</title>
  <path stroke="#787878" stroke-miterlimit="10" stroke-linejoin="round" stroke-linecap="round" stroke-width="2" fill="none" id="svg_1" d="m36.115536,28.308521c-1.392899,0.253254 -2.532543,0 -3.039052,-0.88639c-0.506509,-0.88639 -0.126627,-2.152662 0.759763,-3.165679c-1.139644,-1.139644 -2.405916,-1.899407 -3.925442,-2.279289c-0.379881,1.266271 -1.266271,2.279289 -2.279289,2.279289s-1.899407,-0.88639 -2.279289,-2.279289c-1.519526,0.379881 -2.912424,1.139644 -3.925442,2.279289c0.88639,1.013017 1.266271,2.279289 0.759763,3.165679c-0.506509,0.88639 -1.77278,1.139644 -3.039052,0.88639c-0.379881,0.759763 -0.506509,1.519526 -0.506509,2.279289s0.126627,1.519526 0.253254,2.279289c1.392899,-0.253254 2.532543,0 3.039052,0.88639c0.506509,0.88639 0.126627,2.152662 -0.759763,3.165679c1.139644,1.139644 2.405916,1.899407 3.925442,2.279289c0.379881,-1.266271 1.266271,-2.279289 2.279289,-2.279289s1.899407,0.88639 2.279289,2.279289c1.519526,-0.379881 2.912424,-1.139644 3.925442,-2.279289c-0.88639,-1.013017 -1.266271,-2.279289 -0.759763,-3.165679c0.506509,-0.88639 1.77278,-1.139644 3.039052,-0.88639c0.253254,-0.759763 0.253254,-1.519526 0.253254,-2.279289s0.126627,-1.519526 0,-2.279289z" class="st0"/>
  <circle stroke="#787878" stroke-miterlimit="10" stroke-linejoin="round" stroke-linecap="round" stroke-width="2" fill="none" id="svg_2" r="2" cy="31.033008" cx="27.951855" class="st0"/>
  <path stroke="#787878" stroke-miterlimit="10" stroke-linejoin="round" stroke-linecap="round" stroke-width="2" fill="none" id="svg_3" d="m25.394671,21.906986c1.223488,-1.495374 2.039147,-3.262635 2.039147,-5.301781l0,0c0,-1.495374 1.223488,-2.718862 2.718862,-2.718862l0,0l0,-3.126692c0,-3.806407 -2.854805,-7.340928 -6.661213,-7.748758c-2.718862,-0.271886 -5.165838,0.815659 -6.661213,2.854805c-1.087545,-0.271886 -2.17509,-0.135943 -3.534521,0.815659c-1.359431,0.951602 -2.17509,2.718862 -2.17509,4.486123l0,1.359431l0,2.039147l0,1.76726c0,2.990749 1.631317,5.845554 4.078293,7.340928l0,0c0,3.126692 -2.17509,5.709611 -5.165838,6.52527c-3.534521,0.951602 -6.11744,3.806407 -6.933099,7.340928c0,0.407829 0.271886,0.815659 0.815659,0.815659l21.343069,0" class="st0"/>
 </g>
</svg>