<svg width="40" height="40" xmlns="http://www.w3.org/2000/svg">

 <g>
  <title>background</title>
  <rect fill="none" id="canvas_background" height="42" width="42" y="-1" x="-1"/>
 </g>
 <g>
  <title>Layer 1</title>
  <path stroke="null" id="svg_2" fill="#787878" d="m36.564805,26.459552l-3.445905,0l0,-3.445905c0,-1.187764 -0.956595,-2.217468 -2.144359,-2.217468l-0.860318,0c-1.187249,0 -2.143844,1.029704 -2.143844,2.217468l0,3.445905l-3.44642,0c-1.187249,0 -2.216953,0.95608 -2.216953,2.143844l0,0.860318c0,1.187249 1.029704,2.144359 2.216953,2.144359l3.44642,0l0,3.445905c0,1.187764 0.956595,2.217468 2.143844,2.217468l0.860318,0c1.187764,0 2.144359,-1.029704 2.144359,-2.217468l0,-3.445905l3.445905,0c1.187764,0 2.217468,-0.95711 2.217468,-2.144359l0,-0.860318c0,-1.187764 -1.029704,-2.143844 -2.217468,-2.143844z"/>
  <circle stroke="null" id="svg_3" r="9.076752" fill="#787878" cy="11.07155" cx="17.666509"/>
  <path stroke="null" id="svg_4" fill="#787878" d="m27.360251,35.628641l-0.981276,0c-2.972211,0 -5.390645,-2.670637 -5.390645,-5.953878l0,-1.085535c0,-3.282591 2.418433,-5.953228 5.390645,-5.953228l0.981276,0l0,-0.649632l-16.801596,0c-4.525801,3.5314 -8.072644,9.830232 -9.816812,17.540066l27.225479,0c-0.385791,-0.837376 -0.60707,-1.788437 -0.60707,-2.797965l0,-1.099827z"/>
 </g>
</svg>