<svg width="40" height="40" xmlns="http://www.w3.org/2000/svg">

 <title/>
 <g>
  <title>background</title>
  <rect fill="none" id="canvas_background" height="42" width="42" y="-1" x="-1"/>
 </g>
 <g>
  <title>Layer 1</title>
  <path stroke="null" fill="#787878" id="svg_6" d="m32.427779,18.971109l-4.650617,0a6.200827,6.120795 0 0 1 -6.200827,-6.120784l0,-4.590599a6.200827,6.120795 0 0 1 6.200827,-6.120795l4.650617,0a6.200827,6.120795 0 0 1 6.200827,6.120795l0,4.590599a6.200827,6.120795 0 0 1 -6.200827,6.120784zm-4.650617,-13.771786a3.100408,3.060392 0 0 0 -3.100408,3.060404l0,4.590599a3.100408,3.060392 0 0 0 3.100408,3.060392l4.650617,0a3.100408,3.060392 0 0 0 3.10042,-3.060392l0,-4.590599a3.100408,3.060392 0 0 0 -3.10042,-3.060404l-4.650617,0z" class="cls-1"/>
  <path stroke="null" fill="#787878" id="svg_7" d="m12.555331,19.13617l-4.740649,0a6.320872,6.10079 0 0 1 -6.320872,-6.10078l0,-4.57559a6.320872,6.10079 0 0 1 6.320872,-6.10079l4.740649,0a6.320872,6.10079 0 0 1 6.320872,6.10079l0,4.57559a6.320872,6.10079 0 0 1 -6.320872,6.10078zm-4.740649,-13.72677a3.160425,3.05039 0 0 0 -3.160425,3.0504l0,4.57559a3.160425,3.05039 0 0 0 3.160425,3.05039l4.740649,0a3.160425,3.05039 0 0 0 3.160447,-3.05039l0,-4.57559a3.160425,3.05039 0 0 0 -3.160447,-3.0504l-4.740649,0z" class="cls-1"/>
  <path stroke="null" fill="#787878" id="svg_8" d="m12.495318,38.558442l-4.620615,0a6.160813,6.10079 0 0 1 -6.160813,-6.100769l0,-4.575601a6.160813,6.10079 0 0 1 6.160813,-6.10079l4.620615,0a6.160813,6.10079 0 0 1 6.160813,6.10079l0,4.575601a6.160813,6.10079 0 0 1 -6.160813,6.100769zm-4.620615,-13.72677a3.080396,3.05039 0 0 0 -3.080396,3.0504l0,4.575601a3.080396,3.05039 0 0 0 3.080396,3.050379l4.620615,0a3.080396,3.05039 0 0 0 3.080406,-3.050379l0,-4.575601a3.080396,3.05039 0 0 0 -3.080406,-3.0504l-4.620615,0z" class="cls-1"/>
  <path stroke="null" fill="#787878" id="svg_9" d="m32.61285,38.283335l-4.635609,0a6.18082,6.000752 0 0 1 -6.18082,-6.000732l0,-4.500572a6.18082,6.000752 0 0 1 6.18082,-6.000742l4.635609,0a6.18082,6.000752 0 0 1 6.18082,6.000742l0,4.500572a6.18082,6.000752 0 0 1 -6.18082,6.000732zm-4.635609,-13.501685a3.090399,3.000371 0 0 0 -3.09041,3.000381l0,4.500572a3.090399,3.000371 0 0 0 3.09041,3.000371l4.635609,0a3.090399,3.000371 0 0 0 3.09041,-3.000371l0,-4.500572a3.090399,3.000371 0 0 0 -3.09041,-3.000381l-4.635609,0z" class="cls-1"/>
 </g>
</svg>