<svg width="40" height="40" xmlns="http://www.w3.org/2000/svg">

 <g>
  <title>background</title>
  <rect fill="none" id="canvas_background" height="42" width="42" y="-1" x="-1"/>
 </g>
 <g>
  <title>Layer 1</title>
  <path fill="#787878" stroke="null" id="svg_2" d="m37.348344,19.434637c-0.598574,-8.783621 -7.673925,-15.859563 -16.458137,-16.458728l-0.631074,-0.042544l0,17.132346l17.132346,0l-0.043135,-0.631074zm-15.907425,-0.550712l0,-14.673641c1.46246,0.156587 2.868194,0.507577 4.193566,1.023426c-0.002364,0.020681 -0.011818,0.038408 -0.011818,0.05968c0,0.326173 0.26472,0.590893 0.590893,0.590893c0.177859,0 0.332082,-0.082725 0.440806,-0.206812c2.917238,1.369099 5.370625,3.566038 7.062351,6.285327c-0.106361,-0.104588 -0.25172,-0.169586 -0.412443,-0.169586c-0.326173,0 -0.590893,0.26472 -0.590893,0.590893s0.26472,0.590893 0.590893,0.590893s0.590893,-0.26472 0.590893,-0.590893c0,-0.076225 -0.017136,-0.147723 -0.043135,-0.214494c0.302537,0.502259 0.572575,1.025199 0.821341,1.559957c-0.114042,0.107542 -0.187313,0.25822 -0.187313,0.427215c0,0.326173 0.26472,0.590893 0.590893,0.590893c0.012409,0 0.023045,-0.0065 0.036044,-0.007091c0.505213,1.3106 0.84734,2.699789 1.002154,4.14334l-14.674232,0z"/>
  <path fill="#787878" stroke="null" id="svg_3" d="m19.923339,20.93587l12.197674,12.719944l0.4285,-0.484822c2.802849,-3.169701 4.50046,-7.274869 4.78026,-11.559155l0.044307,-0.675967l-17.45074,0zm12.153974,10.884454l-9.223668,-9.618599l13.208229,0c-0.364164,3.534267 -1.760733,6.905239 -3.984561,9.618599z"/>
  <circle fill="#787878" id="svg_4" r="1" cy="6.833965" cx="23.494543"/>
  <circle fill="#787878" id="svg_5" r="1" cy="10.218798" cx="24.988925"/>
  <circle fill="#787878" id="svg_6" r="1" cy="7.218798" cx="27.988925"/>
  <circle fill="#787878" id="svg_7" r="1" cy="14.503908" cx="28.104798"/>
  <circle fill="#787878" id="svg_8" r="1" cy="10.218798" cx="30.988925"/>
  <circle id="svg_9" r="1" cy="10.032" cx="47.076"/>
  <circle id="svg_10" r="1" cy="13.032" cx="50.076"/>
  <circle fill="#787878" id="svg_11" r="1" cy="10.883827" cx="27.988925"/>
  <circle fill="#787878" id="svg_12" r="1" cy="13.032" cx="31.280358"/>
  <circle id="svg_13" r="1" cy="19.032" cx="50.076"/>
  <circle id="svg_14" r="1" cy="22.032" cx="53.076"/>
  <circle fill="#787878" id="svg_15" r="1" cy="16.498994" cx="25.269121"/>
  <circle fill="#787878" id="svg_16" r="1" cy="17.735653" cx="23.027549"/>
  <circle fill="#787878" id="svg_17" r="1" cy="12.867676" cx="25.840751"/>
  <circle fill="#787878" id="svg_18" r="1" cy="17.257422" cx="34.082324"/>
  <circle fill="#787878" id="svg_19" r="1" cy="16.405595" cx="31.269121"/>
  <circle id="svg_20" r="1" cy="16.032" cx="47.076"/>
  <circle fill="#787878" id="svg_21" r="1" cy="17.081861" cx="28.373757"/>
  <circle id="svg_22" r="1" cy="22.032" cx="47.076"/>
  <circle id="svg_23" r="1" cy="25.032" cx="56.076"/>
  <circle id="svg_24" r="1" cy="25.032" cx="50.076"/>
  <circle fill="#787878" id="svg_25" r="1" cy="12.983549" cx="23.038786"/>
  <path fill="#787878" stroke="null" id="svg_27" d="m18.726127,3.016986l-0.634604,0.042782c-9.306925,0.635198 -16.597142,8.44415 -16.597142,17.779597c0,4.3014 1.557393,8.457222 4.385182,11.702732l0.418315,0.480112l12.428248,-12.428842l0,-17.576381zm-1.188396,17.084385l-11.171519,11.171519c-2.379764,-2.951976 -3.683434,-6.631845 -3.683434,-10.433525c0,-8.498816 6.474383,-15.643454 14.854953,-16.538317l0,15.800323z"/>
  <path fill="#787878" stroke="null" id="svg_28" d="m6.789434,33.741486l0.501543,0.436988c3.389762,2.954015 7.73171,4.580927 12.224495,4.580927c4.29974,0 8.495819,-1.50525 11.816681,-4.237047l0.528234,-0.434505l-12.708658,-12.708658l-12.362295,12.362295zm12.362295,-10.606894l0.683415,0.683415l-10.433092,10.432471c-0.264427,-0.189941 -0.531338,-0.374916 -0.785834,-0.579754l10.535511,-10.536132zm-5.09985,13.489526c-0.431402,-0.143387 -0.855975,-0.304774 -1.274342,-0.48168l9.691329,-9.691329l0.877701,0.877701l-9.294688,9.295309zm10.172389,-8.416987l0.877701,0.877701l-8.220839,8.22146c-0.493474,-0.075728 -0.982603,-0.17194 -1.466145,-0.289877l8.809284,-8.809284zm-12.642241,7.375416c-0.382365,-0.196148 -0.756039,-0.407814 -1.123506,-0.632515l10.254324,-10.254324l0.878321,0.878321l-10.009139,10.008518zm6.887529,1.890719l7.510113,-7.510734l0.877701,0.877701l-6.648551,6.649172c-0.230909,0.009311 -0.461196,0.028553 -0.693346,0.028553c-0.350087,0 -0.697691,-0.023587 -1.045916,-0.044692zm9.265514,-5.754712l0.878321,0.878321l-4.197941,4.197941c-0.744866,0.219736 -1.501526,0.396641 -2.271221,0.515199l5.590841,-5.591462zm-0.423332,3.935376l2.179975,-2.179975l0.513958,0.513958c-0.846665,0.642447 -1.752298,1.192407 -2.693933,1.666017z"/>
 </g>
</svg>