<svg width="40" height="40" xmlns="http://www.w3.org/2000/svg">

 <g>
  <title>background</title>
  <rect fill="none" id="canvas_background" height="42" width="42" y="-1" x="-1"/>
 </g>
 <g>
  <title>Layer 1</title>
  <path fill="#787878" stroke="null" id="svg_2" d="m38.934425,33.543782l-16.177081,-31.244976c-0.551219,-1.053286 -1.509869,-1.679821 -2.572379,-1.679821c-1.054514,0 -2.021113,0.626534 -2.564335,1.679821l-16.177081,31.244976c-0.567212,1.089634 -0.575209,2.397185 -0.02399,3.495917c0.543222,1.071456 1.509877,1.716169 2.588325,1.716169l32.362158,0c1.078456,0 2.045103,-0.644713 2.580328,-1.716169c0.559216,-1.098733 0.551219,-2.406283 -0.015945,-3.495917zm-20.394545,-19.435881l2.700861,0l0,2.893872l-0.578868,8.098585l-1.543126,0l-0.578868,-8.098585l0,-2.893872zm2.372814,15.748044c-0.282799,0.328976 -0.620609,0.493909 -1.012629,0.493909c-0.392412,0 -0.730213,-0.164933 -1.013021,-0.493909c-0.283191,-0.328985 -0.424399,-0.720923 -0.424399,-1.177594c0,-0.455781 0.141208,-0.848609 0.424399,-1.177585c0.282807,-0.328985 0.620609,-0.493918 1.013021,-0.493918c0.392021,0 0.72983,0.164933 1.012629,0.493918s0.424399,0.721804 0.424399,1.177585c0,0.456671 -0.141599,0.848609 -0.424399,1.177594z"/>
 </g>
</svg>