<svg width="40" height="40" xmlns="http://www.w3.org/2000/svg">

 <g>
  <title>background</title>
  <rect fill="none" id="canvas_background" height="42" width="42" y="-1" x="-1"/>
 </g>
 <g>
  <title>Layer 1</title>
  <path stroke="null" id="svg_1" fill="#787878" d="m38.459432,13.017947l-2.126111,-2.139916c-0.855346,-0.86112 -2.173331,-0.158801 -2.173331,-0.158801l-0.003586,-0.002397c-1.373574,0.573481 -3.01493,0.30322 -4.130286,-0.819173c-1.115954,-1.12419 -1.379551,-2.773322 -0.79916,-4.148597c0.00538,-0.013183 0.00538,-0.021573 0.011357,-0.035356c0.496113,-1.315949 -0.209204,-2.179466 -0.417213,-2.397593l-2.136272,-2.150103c-0.93305,-0.939022 -1.946196,-0.085093 -2.194252,0.154007l-23.057875,23.024322c-1.280927,1.277598 -0.224745,2.298118 -0.224745,2.298118l2.473988,2.489877c0,0 0.610278,0.66157 1.794971,0.182172c0.037657,-0.014981 0.066348,-0.021573 0.099223,-0.03176c1.408242,-0.680147 3.144636,-0.445841 4.309604,0.726289c1.109379,1.117598 1.378954,2.752947 0.81231,4.124027l0.001793,0c0,0 -0.719662,1.33932 0.145845,2.210028l2.166756,2.181264c0.154213,0.152209 1.292881,1.177523 2.714273,-0.240299l22.910237,-22.875109c0.345486,-0.403294 0.884634,-1.321942 -0.177525,-2.391001zm-23.625117,14.771473l-0.196652,0.195355c-0.220561,0.220523 -0.446501,0.079101 -0.561265,-0.023371l-2.539737,-2.556993l-0.639567,0.639398c-0.323967,0.324193 -0.600715,-0.010187 -0.600715,-0.010187l-0.084877,-0.085693c0,0 -0.230124,-0.20734 0.120143,-0.556103l1.945,-1.942164c0,0 0.306036,-0.339175 0.597726,-0.046741l0.066348,0.066517c0.21817,0.232508 0.081888,0.442245 -0.011955,0.544118l-0.659889,0.660372l2.44171,2.458716c0.303047,0.304418 0.217572,0.533331 0.123729,0.656776zm2.161975,-2.159092l-0.158995,0.158801c-0.247459,0.24749 -0.571426,-0.037753 -0.650326,-0.113258l-2.681996,-2.700813c0,0 -0.369992,-0.381721 -0.066348,-0.683742l0.11297,-0.112659c0,0 0.321577,-0.300223 0.763894,0.145617l2.632983,2.649876c0.291093,0.293632 0.14465,0.544118 0.047818,0.656177zm3.271952,-3.429499c-0.161984,0.320598 -0.37059,0.625016 -0.655705,0.910858c-0.50209,0.501571 -1.037652,0.731682 -1.606687,0.691533c-0.569633,-0.038352 -1.13807,-0.343969 -1.70591,-0.915052c-0.356842,-0.360148 -0.604899,-0.738873 -0.742973,-1.141568c-0.138075,-0.400897 -0.156604,-0.794603 -0.054991,-1.184115s0.316197,-0.746664 0.644946,-1.075651c0.262999,-0.262471 0.592944,-0.46262 0.958155,-0.626215c0.121338,-0.019775 0.344888,-0.021573 0.451283,0.227115l0.041243,0.097078c0.181709,0.425466 -0.326358,0.567488 -0.326358,0.567488l0.000598,0.001798c-0.02092,0.010187 -0.044232,0.018577 -0.06575,0.028165c-0.175731,0.083296 -0.326358,0.188763 -0.452479,0.315804c-0.275552,0.273857 -0.385533,0.591458 -0.330542,0.949809c0.054991,0.357751 0.266586,0.721495 0.634785,1.09243c0.766285,0.770633 1.439324,0.86891 2.016727,0.291834c0.167961,-0.166591 0.330542,-0.411084 0.490135,-0.686739c0.001793,0 0.011955,0.003595 0.011955,0.003595s0.2104,-0.363744 0.408247,-0.165393l0.122534,0.124044c0.207411,0.192359 0.194859,0.378126 0.160788,0.493181zm3.491317,-3.324031l-0.34967,0.349362c-0.217572,0.216928 -0.559471,0.13543 -0.559471,0.13543l-2.009555,-0.474605l-0.087268,0.530934l0.829644,0.835352c0.297668,0.299025 0.23132,0.529736 0.137477,0.66157l-0.181111,0.178576c-0.254631,0.255879 -0.542137,0.032359 -0.650326,-0.071311l-2.699928,-2.717591c0,0 -0.380154,-0.378725 -0.105797,-0.651383l0.168559,-0.168389c0.105797,-0.088689 0.35744,-0.224119 0.687983,0.108464l1.176325,1.184115l-0.117154,-0.695128l-0.203227,-1.8337c0,0 -0.031679,-0.273857 0.175731,-0.481196l0.273758,-0.273857c0,0 0.331738,-0.335579 0.386729,0.146816c0,0 0.001195,0 0.001195,0.001798l0.261804,2.253174l2.707698,0.621421c0.14465,0.03955 0.374774,0.141423 0.156604,0.360148zm2.474585,-2.394597l-1.322767,1.321343c-0.34429,0.343969 -0.665269,0.082097 -0.756721,-0.006592l-2.670639,-2.68703c0,0 -0.331738,-0.445841 0.017334,-0.795203l1.293479,-1.290781c0,0 0.272563,-0.305617 0.497906,-0.078502l0.103407,0.103071c0,0 0.317392,0.255879 -0.004184,0.576477l-0.704719,0.702918c-0.269574,0.270261 -0.001793,0.524342 -0.001793,0.524342l0.208009,0.20734c0,0 0.281529,0.295429 0.60191,-0.025168l0.566644,-0.56629c0,0 0.281529,-0.290635 0.497906,-0.073708l0.084279,0.085093c0.236699,0.258875 0.130902,0.459624 0.050209,0.554305l-0.545126,0.544717c-0.341302,0.340373 -0.148834,0.592657 -0.087866,0.656177l0.372981,0.375729c0.112372,0.08809 0.295874,0.165393 0.491331,-0.029962l0.695753,-0.695128c0,0 0.285713,-0.309212 0.472801,-0.121647l0.11835,0.118651c0.251643,0.260673 0.116557,0.490784 0.021518,0.599848zm1.898378,-1.970928l-0.114763,0.113258c-0.227734,0.227115 -0.508067,-0.010187 -0.598921,-0.098876l-2.166756,-2.180665c-0.280931,-0.282246 -0.52301,-0.107865 -0.60729,-0.029363l-0.392706,0.393107c-0.273758,0.273857 -0.529585,-0.023371 -0.529585,-0.023371l-0.104004,-0.105468c0,0 -0.228331,-0.227714 0.045427,-0.501571l2.013739,-2.009879c0.121338,-0.109662 0.365808,-0.273257 0.57561,-0.062322l0.065152,0.066517c0.232515,0.245692 0.098625,0.46262 0.014345,0.5579l-0.405258,0.403893c-0.054393,0.056929 -0.232515,0.288838 0.093245,0.617825l2.130295,2.14471c0.117752,0.133033 0.285713,0.415279 -0.01853,0.714304z"/>
 </g>
</svg>