<svg width="40" height="40" viewBox="0 0 40 40" fill="none" xmlns="http://www.w3.org/2000/svg">
<g clip-path="url(#clip0)">
<path d="M6.53963 16.3196C6.92623 16.681 7.74815 16.7597 8.20634 16.2227L11.1396 12.8761C11.5657 12.39 11.5166 11.6509 11.03 11.2253C10.5435 10.7997 9.80364 10.8486 9.37761 11.3347L7.22836 13.7868L6.65229 13.2661C6.17263 12.8327 5.43222 12.8696 4.99823 13.3487C4.56432 13.8278 4.60133 14.5675 5.08091 15.001L6.53963 16.3196Z" fill="#787878"/>
<path d="M20.9491 14.2354H14.1921C13.5454 14.2354 13.0211 14.7591 13.0211 15.4052C13.0211 16.0513 13.5454 16.5751 14.1921 16.5751H20.9491C21.5958 16.5751 22.1201 16.0513 22.1201 15.4052C22.1201 14.7591 21.5958 14.2354 20.9491 14.2354Z" fill="#787878"/>
<path d="M20.9491 19.0879H5.77042C5.1237 19.0879 4.59938 19.6117 4.59938 20.2578C4.59938 20.9039 5.1237 21.4276 5.77042 21.4276H20.9491C21.5958 21.4276 22.1201 20.9039 22.1201 20.2578C22.1201 19.6117 21.5958 19.0879 20.9491 19.0879Z" fill="#787878"/>
<path d="M6.53963 29.7297C6.92623 30.0912 7.74815 30.1699 8.20634 29.6329L11.1396 26.2862C11.5657 25.8002 11.5166 25.0611 11.03 24.6354C10.5435 24.2099 9.80364 24.2588 9.37761 24.7449L7.22836 27.197L6.65229 26.6763C6.17263 26.2429 5.43214 26.2799 4.99823 26.7589C4.56432 27.238 4.60133 27.9778 5.08091 28.4113L6.53963 29.7297Z" fill="#787878"/>
<path d="M20.9491 27.6426H14.1921C13.5454 27.6426 13.0211 28.1663 13.0211 28.8124C13.0211 29.4586 13.5454 29.9823 14.1921 29.9823H20.9491C21.5958 29.9823 22.1201 29.4586 22.1201 28.8124C22.1201 28.1663 21.5958 27.6426 20.9491 27.6426Z" fill="#787878"/>
<path d="M20.9491 32.4248H5.77042C5.1237 32.4248 4.59938 32.9486 4.59938 33.5947C4.59938 34.2408 5.1237 34.7645 5.77042 34.7645H20.9491C21.5958 34.7645 22.1201 34.2408 22.1201 33.5947C22.1201 32.9486 21.5958 32.4248 20.9491 32.4248Z" fill="#787878"/>
<path d="M37.1236 0H14.8256C14.6135 0.0010149 14.3598 0.0427821 14.1093 0.140213C13.8724 0.0947764 13.6297 0.0711994 13.3835 0.0711994C12.3789 0.0711994 11.4308 0.458346 10.714 1.16136C10.2813 1.58575 9.96207 2.09656 9.77291 2.65538H8.5213C7.6374 2.65538 6.91354 3.34489 6.85584 4.21357H2.72612C1.23374 4.21357 0.0196075 5.42645 0.0196075 6.91735V37.2963C0.0196075 38.7872 1.23374 40.0001 2.72612 40.0001H24.0409C25.2894 40.0001 26.3426 39.151 26.6537 38.0006H37.3204C38.7277 37.9153 40.0065 36.6376 39.9801 35.1471V2.85352C39.9801 1.28011 38.6987 0 37.1236 0V0ZM9.19223 4.99504H10.7441C11.3817 4.99504 11.9021 4.48548 11.9149 3.84867C11.9308 3.0558 12.5897 2.41079 13.3835 2.41079C14.1773 2.41079 14.8361 3.0558 14.8521 3.84867C14.8649 4.48548 15.3853 4.99504 16.0229 4.99504H17.5748V6.28358H9.19223V4.99504ZM24.4053 37.2962C24.4053 37.497 24.2418 37.6603 24.0409 37.6603H2.72612C2.52517 37.6603 2.36169 37.497 2.36169 37.2962V6.91727C2.36169 6.71655 2.52517 6.55323 2.72612 6.55323H6.85014V6.8018C6.85014 7.80617 7.66808 8.62332 8.67346 8.62332H18.0936C19.0989 8.62332 19.9169 7.80625 19.9169 6.8018V6.55323H24.0409C24.2418 6.55323 24.4053 6.71655 24.4053 6.91727V37.2962ZM37.638 35.147C37.638 35.408 37.4428 35.627 37.184 35.6566C37.1727 35.6579 37.1615 35.6593 37.1503 35.661H26.7474V6.91727C26.7474 5.42645 25.5333 4.21349 24.0409 4.21349H19.9105C19.8456 3.34372 19.1181 2.6553 18.231 2.6553H16.994C16.9577 2.54803 16.9151 2.44311 16.8693 2.33966H37.1236C37.4072 2.33966 37.638 2.5702 37.638 2.85352V35.147Z" fill="#787878"/>
</g>
<defs>
<clipPath id="clip0">
<rect width="40" height="40" fill="white"/>
</clipPath>
</defs>
</svg>
