<svg width="40" height="32" xmlns="http://www.w3.org/2000/svg">

 <g>
  <title>background</title>
  <rect fill="none" id="canvas_background" height="34" width="42" y="-1" x="-1"/>
 </g>
 <g>
  <title>Layer 1</title>
  <path fill="#787878" stroke="null" id="svg_2" d="m27.68635,14.27908l0,-8.475l-5.54759,-5.584l-18.28735,0l0,32l23.83494,0l0,-0.059c4.46805,-0.5 7.94299,-4.309 7.94498,-8.941c-0.00199,-4.634 -3.47693,-8.444 -7.94498,-8.941zm-5.96073,-11.646l3.56333,3.587l-3.56333,0l0,-3.587zm-15.88797,27.587l0,-28.002l13.90372,0l0,6.001l5.95873,0l0,6.06c-1.73995,0.194 -3.32895,0.89 -4.62,1.941l-13.2562,0l0,2l11.43779,0c-0.40917,0.616 -0.73789,1.289 -0.98717,2l-10.45062,0l0,2l9.98982,0c-0.03675,0.329 -0.0586,0.661 -0.0586,1c0,2.829 1.29901,5.351 3.32597,7l-15.24344,0zm20.85557,-0.117c-3.77486,-0.009 -6.82871,-3.084 -6.83764,-6.883c0.00893,-3.801 3.06278,-6.876 6.83764,-6.885c3.77288,0.009 6.82673,3.084 6.83567,6.885c-0.00894,3.799 -3.06279,6.874 -6.83567,6.883zm-2.97936,-17.883l-15.88996,0l0,2l15.88996,0l0,-2z"/>
  <polygon fill="#787878" id="svg_3" points="21.796383917331696,24.045381739735603 23.796383917331696,22.045381739735603 25.796383917331696,24.045381739735603 29.796383917331696,20.045381739735603 31.796383917331696,22.045381739735603 25.796383917331696,28.045381739735603 "/>
 </g>
</svg>